<svg width="401" height="176" viewBox="0 0 401 176" fill="none" xmlns="http://www.w3.org/2000/svg">
<path d="M297.074 226.852H130.954L40.5791 47H378.874L297.074 226.852Z" fill="url(#paint0_linear_2757_71537)"/>
<path d="M343.004 -518.379L343.004 -478.684M343.004 -518.379C343.004 -521.484 345.827 -524 349.31 -524L393.847 -524C397.33 -524 400.153 -521.484 400.153 -518.379L400.153 -478.684C400.153 -475.58 397.33 -473.064 393.847 -473.064M343.004 -518.379C343.004 -521.484 340.18 -524 336.697 -524L292.16 -524C288.677 -524 285.854 -521.484 285.854 -518.379M349.31 -473.064L393.847 -473.064M349.31 -473.064C345.827 -473.064 343.004 -475.58 343.004 -478.684M349.31 -473.064C345.827 -473.064 343.004 -470.547 343.004 -467.443M343.004 -478.684C343.004 -475.58 340.18 -473.064 336.697 -473.064M393.847 -473.064C397.33 -473.064 400.153 -470.547 400.153 -467.443L400.153 -427.748C400.153 -424.644 397.33 -422.127 393.847 -422.127M343.004 -467.443L343.004 -427.748M343.004 -467.443C343.004 -470.547 340.18 -473.064 336.697 -473.064M349.31 -422.127L393.847 -422.127M349.31 -422.127C345.827 -422.127 343.004 -424.644 343.004 -427.748M349.31 -422.127C345.827 -422.127 343.004 -419.611 343.004 -416.507M343.004 -427.748C343.004 -424.644 340.18 -422.127 336.697 -422.127M393.847 -422.127C397.33 -422.127 400.153 -419.611 400.153 -416.507L400.153 -376.811C400.153 -373.707 397.33 -371.191 393.847 -371.191M343.004 -416.507L343.004 -376.811M343.004 -416.507C343.004 -419.611 340.18 -422.127 336.697 -422.127M349.31 -371.191L393.847 -371.191M349.31 -371.191C345.827 -371.191 343.004 -373.707 343.004 -376.811M349.31 -371.191C345.827 -371.191 343.004 -368.674 343.004 -365.57M343.004 -376.811C343.004 -373.707 340.18 -371.191 336.697 -371.191M393.847 -371.191C397.33 -371.191 400.153 -368.674 400.153 -365.57L400.153 -325.875C400.153 -322.771 397.33 -320.254 393.847 -320.254M343.004 -365.57L343.004 -325.875M343.004 -365.57C343.004 -368.674 340.18 -371.191 336.697 -371.191M349.31 -320.254L393.847 -320.254M349.31 -320.254C345.827 -320.254 343.004 -322.771 343.004 -325.875M349.31 -320.254C345.827 -320.254 343.004 -317.738 343.004 -314.634M343.004 -325.875C343.004 -322.771 340.18 -320.254 336.697 -320.254M393.847 -320.254C397.33 -320.254 400.153 -317.738 400.153 -314.634L400.153 -274.939C400.153 -271.834 397.33 -269.318 393.847 -269.318M343.004 -314.634L343.004 -274.939M343.004 -314.634C343.004 -317.738 340.18 -320.254 336.697 -320.254M349.31 -269.318L393.847 -269.318M349.31 -269.318C345.827 -269.318 343.004 -271.834 343.004 -274.939M349.31 -269.318C345.827 -269.318 343.004 -266.802 343.004 -263.697M343.004 -274.939C343.004 -271.834 340.18 -269.318 336.697 -269.318M393.847 -269.318C397.33 -269.318 400.153 -266.802 400.153 -263.697L400.153 -224.002C400.153 -220.898 397.33 -218.382 393.847 -218.382M343.004 -263.697L343.004 -224.002M343.004 -263.697C343.004 -266.802 340.18 -269.318 336.697 -269.318M349.31 -218.382L393.847 -218.382M349.31 -218.382C345.827 -218.382 343.004 -220.898 343.004 -224.002M349.31 -218.382C345.827 -218.382 343.004 -215.865 343.004 -212.761M343.004 -224.002C343.004 -220.898 340.18 -218.382 336.697 -218.382M393.847 -218.382C397.33 -218.382 400.153 -215.865 400.153 -212.761L400.153 -173.066C400.153 -169.962 397.33 -167.445 393.847 -167.445M343.004 92.8575L343.004 132.553M343.004 92.8575C343.004 89.7533 345.827 87.2369 349.31 87.2369M343.004 92.8575C343.004 89.7533 340.18 87.2369 336.697 87.2369M349.31 87.2369L393.847 87.2369M349.31 87.2369C345.827 87.2369 343.004 84.7205 343.004 81.6164M349.31 138.173L393.847 138.173M349.31 138.173C345.827 138.173 343.004 135.657 343.004 132.553M349.31 138.173C345.827 138.173 343.004 140.69 343.004 143.794M343.004 132.553C343.004 135.657 340.18 138.173 336.697 138.173M393.847 138.173C397.33 138.173 400.153 135.657 400.153 132.553L400.153 92.8575C400.153 89.7533 397.33 87.2369 393.847 87.2369M393.847 138.173C397.33 138.173 400.153 140.69 400.153 143.794L400.153 183.489C400.153 186.593 397.33 189.11 393.847 189.11M393.847 87.2369C397.33 87.2369 400.153 84.7205 400.153 81.6164L400.153 41.9211C400.153 38.8169 397.33 36.3005 393.847 36.3005M343.004 143.794L343.004 183.489M343.004 143.794C343.004 140.69 340.18 138.173 336.697 138.173M349.31 189.11L393.847 189.11M349.31 189.11C345.827 189.11 343.004 186.593 343.004 183.489M349.31 189.11C345.827 189.11 343.004 191.626 343.004 194.73M343.004 183.489C343.004 186.593 340.18 189.11 336.697 189.11M393.847 189.11C397.33 189.11 400.153 191.626 400.153 194.73L400.153 234.426C400.153 237.53 397.33 240.046 393.847 240.046M343.004 194.73L343.004 234.426M343.004 194.73C343.004 191.626 340.18 189.11 336.697 189.11M349.31 240.046L393.847 240.046M349.31 240.046C345.827 240.046 343.004 237.53 343.004 234.426M349.31 240.046C345.827 240.046 343.004 242.563 343.004 245.667M343.004 234.426C343.004 237.53 340.18 240.046 336.697 240.046M393.847 240.046C397.33 240.046 400.153 242.563 400.153 245.667L400.153 285.362C400.153 288.466 397.33 290.983 393.847 290.983M343.004 245.667L343.004 285.362M343.004 245.667C343.004 242.563 340.18 240.046 336.697 240.046M349.31 290.983L393.847 290.983M349.31 290.983C345.827 290.983 343.004 288.466 343.004 285.362M349.31 290.983C345.827 290.983 343.004 293.499 343.004 296.603M343.004 285.362C343.004 288.466 340.18 290.983 336.697 290.983M393.847 290.983C397.33 290.983 400.153 293.499 400.153 296.603L400.153 336.298C400.153 339.403 397.33 341.919 393.847 341.919M343.004 296.603L343.004 336.298M343.004 296.603C343.004 293.499 340.18 290.983 336.697 290.983M349.31 341.919L393.847 341.919M349.31 341.919C345.827 341.919 343.004 339.403 343.004 336.298M349.31 341.919C345.827 341.919 343.004 344.435 343.004 347.54M343.004 336.298C343.004 339.403 340.18 341.919 336.697 341.919M393.847 341.919C397.33 341.919 400.153 344.435 400.153 347.54L400.153 387.235C400.153 390.339 397.33 392.855 393.847 392.855M343.004 347.54L343.004 387.235M343.004 347.54C343.004 344.435 340.18 341.919 336.697 341.919M349.31 392.855L393.847 392.855M349.31 392.855C345.827 392.855 343.004 390.339 343.004 387.235M349.31 392.855C345.827 392.855 343.004 395.372 343.004 398.476M343.004 387.235C343.004 390.339 340.18 392.855 336.697 392.855M393.847 392.855C397.33 392.855 400.153 395.372 400.153 398.476L400.153 438.171C400.153 441.275 397.33 443.792 393.847 443.792M343.004 -212.761L343.004 -173.066M343.004 -212.761C343.004 -215.865 340.18 -218.382 336.697 -218.382M349.31 -167.445L393.847 -167.445M349.31 -167.445C345.827 -167.445 343.004 -169.962 343.004 -173.066M349.31 -167.445C345.827 -167.445 343.004 -164.929 343.004 -161.825M343.004 -173.066C343.004 -169.962 340.18 -167.445 336.697 -167.445M393.847 -167.445C397.33 -167.445 400.153 -164.929 400.153 -161.825L400.153 -122.129C400.153 -119.025 397.33 -116.509 393.847 -116.509M343.004 -161.825L343.004 -122.129M343.004 -161.825C343.004 -164.929 340.18 -167.445 336.697 -167.445M349.31 -116.509L393.847 -116.509M349.31 -116.509C345.827 -116.509 343.004 -119.025 343.004 -122.129M349.31 -116.509C345.827 -116.509 343.004 -113.992 343.004 -110.888M343.004 -122.129C343.004 -119.025 340.18 -116.509 336.697 -116.509M393.847 -116.509C397.33 -116.509 400.153 -113.992 400.153 -110.888L400.153 -71.1929C400.153 -68.0887 397.33 -65.5723 393.847 -65.5723M343.004 -110.888L343.004 -71.1928M343.004 -110.888C343.004 -113.992 340.18 -116.509 336.697 -116.509M349.31 -65.5723L393.847 -65.5723M349.31 -65.5723C345.827 -65.5723 343.004 -68.0887 343.004 -71.1928M349.31 -65.5723C345.827 -65.5723 343.004 -63.0559 343.004 -59.9517M343.004 -71.1928C343.004 -68.0887 340.18 -65.5723 336.697 -65.5723M393.847 -65.5723C397.33 -65.5723 400.153 -63.0559 400.153 -59.9518L400.153 -20.2565C400.153 -17.1523 397.33 -14.6359 393.847 -14.6359M343.004 -59.9517L343.004 -20.2565M343.004 -59.9517C343.004 -63.0559 340.18 -65.5723 336.697 -65.5723M349.31 -14.6359L393.847 -14.6359M349.31 -14.6359C345.827 -14.6359 343.004 -17.1523 343.004 -20.2565M349.31 -14.6359C345.827 -14.6359 343.004 -12.1195 343.004 -9.01532M343.004 -20.2565C343.004 -17.1523 340.18 -14.6359 336.697 -14.6359M393.847 -14.6359C397.33 -14.6359 400.153 -12.1195 400.153 -9.01532L400.153 30.6799C400.153 33.7841 397.33 36.3005 393.847 36.3005M343.004 -9.01532L343.004 30.6799M343.004 -9.01532C343.004 -12.1195 340.18 -14.6359 336.697 -14.6359M349.31 36.3005L393.847 36.3005M349.31 36.3005C345.827 36.3005 343.004 33.7841 343.004 30.6799M349.31 36.3005C345.827 36.3005 343.004 38.817 343.004 41.9211M343.004 30.6799C343.004 33.7841 340.18 36.3005 336.697 36.3005M343.004 41.9211L343.004 81.6164M343.004 41.9211C343.004 38.817 340.18 36.3005 336.697 36.3005M343.004 81.6164C343.004 84.7205 340.18 87.2369 336.697 87.2369M343.004 398.476L343.004 438.171M343.004 398.476C343.004 395.372 340.18 392.855 336.697 392.855M349.31 443.792L393.847 443.792M349.31 443.792C345.827 443.792 343.004 441.275 343.004 438.171M349.31 443.792C345.827 443.792 343.004 446.308 343.004 449.412M343.004 438.171C343.004 441.275 340.18 443.792 336.697 443.792M393.847 443.792C397.33 443.792 400.153 446.308 400.153 449.412L400.153 489.108C400.153 492.212 397.33 494.728 393.847 494.728M343.004 449.412L343.004 489.108M343.004 449.412C343.004 446.308 340.18 443.792 336.697 443.792M349.31 494.728L393.847 494.728M349.31 494.728C345.827 494.728 343.004 492.212 343.004 489.108M349.31 494.728C345.827 494.728 343.004 497.245 343.004 500.349M343.004 489.108C343.004 492.212 340.18 494.728 336.697 494.728M393.847 494.728C397.33 494.728 400.153 497.245 400.153 500.349L400.153 540.044C400.153 543.148 397.33 545.665 393.847 545.665M343.004 500.349L343.004 540.044M343.004 500.349C343.004 497.245 340.18 494.728 336.697 494.728M349.31 545.665L393.847 545.665M349.31 545.665C345.827 545.665 343.004 543.148 343.004 540.044M349.31 545.665C345.827 545.665 343.004 548.181 343.004 551.285M343.004 540.044C343.004 543.148 340.18 545.665 336.697 545.665M393.847 545.665C397.33 545.665 400.153 548.181 400.153 551.285L400.153 590.98C400.153 594.085 397.33 596.601 393.847 596.601M343.004 551.285L343.004 590.98M343.004 551.285C343.004 548.181 340.18 545.665 336.697 545.665M349.31 596.601L393.847 596.601M349.31 596.601C345.827 596.601 343.004 594.085 343.004 590.98M349.31 596.601C345.827 596.601 343.004 599.118 343.004 602.222M343.004 590.98C343.004 594.085 340.18 596.601 336.697 596.601M393.847 596.601C397.33 596.601 400.153 599.117 400.153 602.222L400.153 641.917C400.153 645.021 397.33 647.537 393.847 647.537M343.004 602.222L343.004 641.917M343.004 602.222C343.004 599.118 340.18 596.601 336.697 596.601M349.31 647.537L393.847 647.537M349.31 647.537C345.827 647.537 343.004 645.021 343.004 641.917M349.31 647.537C345.827 647.537 343.004 650.054 343.004 653.158M343.004 641.917C343.004 645.021 340.18 647.537 336.697 647.537M393.847 647.537C397.33 647.537 400.153 650.054 400.153 653.158L400.153 692.853C400.153 695.957 397.33 698.474 393.847 698.474L349.31 698.474C345.827 698.474 343.004 695.957 343.004 692.853M343.004 653.158L343.004 692.853M343.004 653.158C343.004 650.054 340.18 647.537 336.697 647.537M343.004 692.853C343.004 695.957 340.18 698.474 336.697 698.474L292.16 698.474C288.677 698.474 285.854 695.957 285.854 692.853M285.854 -518.379L285.854 -478.684M285.854 -518.379C285.854 -521.484 283.031 -524 279.548 -524L235.011 -524C231.528 -524 228.704 -521.484 228.704 -518.379M292.16 -473.064L336.697 -473.064M292.16 -473.064C288.677 -473.064 285.854 -475.58 285.854 -478.684M292.16 -473.064C288.677 -473.064 285.854 -470.547 285.854 -467.443M285.854 -478.684C285.854 -475.58 283.031 -473.064 279.548 -473.064M285.854 -467.443L285.854 -427.748M285.854 -467.443C285.854 -470.547 283.031 -473.064 279.548 -473.064M292.16 -422.127L336.697 -422.127M292.16 -422.127C288.677 -422.127 285.854 -424.644 285.854 -427.748M292.16 -422.127C288.677 -422.127 285.854 -419.611 285.854 -416.507M285.854 -427.748C285.854 -424.644 283.031 -422.127 279.548 -422.127M285.854 -416.507L285.854 -376.811M285.854 -416.507C285.854 -419.611 283.031 -422.127 279.548 -422.127M292.16 -371.191L336.697 -371.191M292.16 -371.191C288.677 -371.191 285.854 -373.707 285.854 -376.811M292.16 -371.191C288.677 -371.191 285.854 -368.674 285.854 -365.57M285.854 -376.811C285.854 -373.707 283.031 -371.191 279.548 -371.191M285.854 -365.57L285.854 -325.875M285.854 -365.57C285.854 -368.674 283.031 -371.191 279.548 -371.191M292.16 -320.254L336.697 -320.254M292.16 -320.254C288.677 -320.254 285.854 -322.771 285.854 -325.875M292.16 -320.254C288.677 -320.254 285.854 -317.738 285.854 -314.634M285.854 -325.875C285.854 -322.771 283.031 -320.254 279.548 -320.254M285.854 -314.634L285.854 -274.939M285.854 -314.634C285.854 -317.738 283.031 -320.254 279.548 -320.254M292.16 -269.318L336.697 -269.318M292.16 -269.318C288.677 -269.318 285.854 -271.834 285.854 -274.939M292.16 -269.318C288.677 -269.318 285.854 -266.802 285.854 -263.697M285.854 -274.939C285.854 -271.834 283.031 -269.318 279.548 -269.318M285.854 -263.697L285.854 -224.002M285.854 -263.697C285.854 -266.802 283.031 -269.318 279.548 -269.318M292.16 -218.382L336.697 -218.382M292.16 -218.382C288.677 -218.382 285.854 -220.898 285.854 -224.002M292.16 -218.382C288.677 -218.382 285.854 -215.865 285.854 -212.761M285.854 -224.002C285.854 -220.898 283.031 -218.382 279.548 -218.382M285.854 92.8575L285.854 132.553M285.854 92.8575C285.854 89.7533 288.677 87.2369 292.16 87.2369M285.854 92.8575C285.854 89.7533 283.031 87.2369 279.548 87.2369M292.16 87.2369L336.697 87.2369M292.16 87.2369C288.677 87.2369 285.854 84.7205 285.854 81.6164M292.16 138.173L336.697 138.173M292.16 138.173C288.677 138.173 285.854 135.657 285.854 132.553M292.16 138.173C288.677 138.173 285.854 140.69 285.854 143.794M285.854 132.553C285.854 135.657 283.031 138.173 279.548 138.173M285.854 143.794L285.854 183.489M285.854 143.794C285.854 140.69 283.031 138.173 279.548 138.173M292.16 189.11L336.697 189.11M292.16 189.11C288.677 189.11 285.854 186.593 285.854 183.489M292.16 189.11C288.677 189.11 285.854 191.626 285.854 194.73M285.854 183.489C285.854 186.593 283.031 189.11 279.548 189.11M285.854 194.73L285.854 234.426M285.854 194.73C285.854 191.626 283.031 189.11 279.548 189.11M292.16 240.046L336.697 240.046M292.16 240.046C288.677 240.046 285.854 237.53 285.854 234.426M292.16 240.046C288.677 240.046 285.854 242.563 285.854 245.667M285.854 234.426C285.854 237.53 283.031 240.046 279.548 240.046M285.854 245.667L285.854 285.362M285.854 245.667C285.854 242.563 283.031 240.046 279.548 240.046M292.16 290.983L336.697 290.983M292.16 290.983C288.677 290.983 285.854 288.466 285.854 285.362M292.16 290.983C288.677 290.983 285.854 293.499 285.854 296.603M285.854 285.362C285.854 288.466 283.031 290.983 279.548 290.983M285.854 296.603L285.854 336.298M285.854 296.603C285.854 293.499 283.031 290.983 279.548 290.983M292.16 341.919L336.697 341.919M292.16 341.919C288.677 341.919 285.854 339.403 285.854 336.298M292.16 341.919C288.677 341.919 285.854 344.435 285.854 347.54M285.854 336.298C285.854 339.403 283.031 341.919 279.548 341.919M285.854 347.54L285.854 387.235M285.854 347.54C285.854 344.435 283.031 341.919 279.548 341.919M292.16 392.855L336.697 392.855M292.16 392.855C288.677 392.855 285.854 390.339 285.854 387.235M292.16 392.855C288.677 392.855 285.854 395.372 285.854 398.476M285.854 387.235C285.854 390.339 283.031 392.855 279.548 392.855M285.854 -212.761L285.854 -173.066M285.854 -212.761C285.854 -215.865 283.031 -218.382 279.548 -218.382M292.16 -167.445L336.697 -167.445M292.16 -167.445C288.677 -167.445 285.854 -169.962 285.854 -173.066M292.16 -167.445C288.677 -167.445 285.854 -164.929 285.854 -161.825M285.854 -173.066C285.854 -169.962 283.031 -167.445 279.548 -167.445M285.854 -161.825L285.854 -122.129M285.854 -161.825C285.854 -164.929 283.031 -167.445 279.548 -167.445M292.16 -116.509L336.697 -116.509M292.16 -116.509C288.677 -116.509 285.854 -119.025 285.854 -122.129M292.16 -116.509C288.677 -116.509 285.854 -113.992 285.854 -110.888M285.854 -122.129C285.854 -119.025 283.031 -116.509 279.548 -116.509M285.854 -110.888L285.854 -71.1928M285.854 -110.888C285.854 -113.992 283.031 -116.509 279.548 -116.509M292.16 -65.5723L336.697 -65.5723M292.16 -65.5723C288.677 -65.5723 285.854 -68.0887 285.854 -71.1928M292.16 -65.5723C288.677 -65.5723 285.854 -63.0559 285.854 -59.9517M285.854 -71.1928C285.854 -68.0887 283.031 -65.5723 279.548 -65.5723M285.854 -59.9517L285.854 -20.2565M285.854 -59.9517C285.854 -63.0559 283.031 -65.5723 279.548 -65.5723M292.16 -14.6359L336.697 -14.6359M292.16 -14.6359C288.677 -14.6359 285.854 -17.1523 285.854 -20.2565M292.16 -14.6359C288.677 -14.6359 285.854 -12.1195 285.854 -9.01532M285.854 -20.2565C285.854 -17.1523 283.031 -14.6359 279.548 -14.6359M285.854 -9.01532L285.854 30.6799M285.854 -9.01532C285.854 -12.1195 283.031 -14.6359 279.548 -14.6359M292.16 36.3005L336.697 36.3005M292.16 36.3005C288.677 36.3005 285.854 33.7841 285.854 30.6799M292.16 36.3005C288.677 36.3005 285.854 38.817 285.854 41.9211M285.854 30.6799C285.854 33.7841 283.031 36.3005 279.548 36.3005M285.854 41.9211L285.854 81.6164M285.854 41.9211C285.854 38.817 283.031 36.3005 279.548 36.3005M285.854 81.6164C285.854 84.7205 283.031 87.2369 279.548 87.2369M285.854 398.476L285.854 438.171M285.854 398.476C285.854 395.372 283.031 392.855 279.548 392.855M292.16 443.792L336.697 443.792M292.16 443.792C288.677 443.792 285.854 441.275 285.854 438.171M292.16 443.792C288.677 443.792 285.854 446.308 285.854 449.412M285.854 438.171C285.854 441.275 283.031 443.792 279.548 443.792M285.854 449.412L285.854 489.108M285.854 449.412C285.854 446.308 283.031 443.792 279.548 443.792M292.16 494.728L336.697 494.728M292.16 494.728C288.677 494.728 285.854 492.212 285.854 489.108M292.16 494.728C288.677 494.728 285.854 497.245 285.854 500.349M285.854 489.108C285.854 492.212 283.031 494.728 279.548 494.728M285.854 500.349L285.854 540.044M285.854 500.349C285.854 497.245 283.031 494.728 279.548 494.728M292.16 545.665L336.697 545.665M292.16 545.665C288.677 545.665 285.854 543.148 285.854 540.044M292.16 545.665C288.677 545.665 285.854 548.181 285.854 551.285M285.854 540.044C285.854 543.148 283.031 545.665 279.548 545.665M285.854 551.285L285.854 590.98M285.854 551.285C285.854 548.181 283.031 545.665 279.548 545.665M292.16 596.601L336.697 596.601M292.16 596.601C288.677 596.601 285.854 594.085 285.854 590.98M292.16 596.601C288.677 596.601 285.854 599.118 285.854 602.222M285.854 590.98C285.854 594.085 283.031 596.601 279.548 596.601M285.854 602.222L285.854 641.917M285.854 602.222C285.854 599.118 283.031 596.601 279.548 596.601M292.16 647.537L336.697 647.537M292.16 647.537C288.677 647.537 285.854 645.021 285.854 641.917M292.16 647.537C288.677 647.537 285.854 650.054 285.854 653.158M285.854 641.917C285.854 645.021 283.031 647.537 279.548 647.537M285.854 653.158L285.854 692.853M285.854 653.158C285.854 650.054 283.031 647.537 279.548 647.537M285.854 692.853C285.854 695.957 283.031 698.474 279.548 698.474L235.011 698.474C231.528 698.474 228.704 695.957 228.704 692.853M228.704 -518.379L228.704 -478.684M228.704 -518.379C228.704 -521.484 225.881 -524 222.398 -524L177.861 -524C174.378 -524 171.555 -521.484 171.555 -518.379M235.011 -473.064L279.548 -473.064M235.011 -473.064C231.528 -473.064 228.704 -475.58 228.704 -478.684M235.011 -473.064C231.528 -473.064 228.704 -470.547 228.704 -467.443M228.704 -478.684C228.704 -475.58 225.881 -473.064 222.398 -473.064M228.704 -467.443L228.704 -427.748M228.704 -467.443C228.704 -470.547 225.881 -473.064 222.398 -473.064M235.011 -422.127L279.548 -422.127M235.011 -422.127C231.528 -422.127 228.704 -424.644 228.704 -427.748M235.011 -422.127C231.528 -422.127 228.704 -419.611 228.704 -416.507M228.704 -427.748C228.704 -424.644 225.881 -422.127 222.398 -422.127M228.704 -416.507L228.704 -376.811M228.704 -416.507C228.704 -419.611 225.881 -422.127 222.398 -422.127M235.011 -371.191L279.548 -371.191M235.011 -371.191C231.528 -371.191 228.704 -373.707 228.704 -376.811M235.011 -371.191C231.528 -371.191 228.704 -368.674 228.704 -365.57M228.704 -376.811C228.704 -373.707 225.881 -371.191 222.398 -371.191M228.704 -365.57L228.704 -325.875M228.704 -365.57C228.704 -368.674 225.881 -371.191 222.398 -371.191M235.011 -320.254L279.548 -320.254M235.011 -320.254C231.528 -320.254 228.704 -322.771 228.704 -325.875M235.011 -320.254C231.528 -320.254 228.704 -317.738 228.704 -314.634M228.704 -325.875C228.704 -322.771 225.881 -320.254 222.398 -320.254M228.704 -314.634L228.704 -274.939M228.704 -314.634C228.704 -317.738 225.881 -320.254 222.398 -320.254M235.011 -269.318L279.548 -269.318M235.011 -269.318C231.528 -269.318 228.704 -271.834 228.704 -274.939M235.011 -269.318C231.528 -269.318 228.704 -266.802 228.704 -263.697M228.704 -274.939C228.704 -271.834 225.881 -269.318 222.398 -269.318M228.704 -263.697L228.704 -224.002M228.704 -263.697C228.704 -266.802 225.881 -269.318 222.398 -269.318M235.011 -218.382L279.548 -218.382M235.011 -218.382C231.528 -218.382 228.704 -220.898 228.704 -224.002M235.011 -218.382C231.528 -218.382 228.704 -215.865 228.704 -212.761M228.704 -224.002C228.704 -220.898 225.881 -218.382 222.398 -218.382M228.704 92.8575L228.704 132.553M228.704 92.8575C228.704 89.7533 231.528 87.2369 235.011 87.2369M228.704 92.8575C228.704 89.7533 225.881 87.2369 222.398 87.2369M235.011 87.2369L279.548 87.2369M235.011 87.2369C231.528 87.2369 228.704 84.7205 228.704 81.6164M235.011 138.173L279.548 138.173M235.011 138.173C231.528 138.173 228.704 135.657 228.704 132.553M235.011 138.173C231.528 138.173 228.704 140.69 228.704 143.794M228.704 132.553C228.704 135.657 225.881 138.173 222.398 138.173M228.704 143.794L228.704 183.489M228.704 143.794C228.704 140.69 225.881 138.173 222.398 138.173M235.011 189.11L279.548 189.11M235.011 189.11C231.528 189.11 228.704 186.593 228.704 183.489M235.011 189.11C231.528 189.11 228.704 191.626 228.704 194.73M228.704 183.489C228.704 186.593 225.881 189.11 222.398 189.11M228.704 194.73L228.704 234.426M228.704 194.73C228.704 191.626 225.881 189.11 222.398 189.11M235.011 240.046L279.548 240.046M235.011 240.046C231.528 240.046 228.704 237.53 228.704 234.426M235.011 240.046C231.528 240.046 228.704 242.563 228.704 245.667M228.704 234.426C228.704 237.53 225.881 240.046 222.398 240.046M228.704 245.667L228.704 285.362M228.704 245.667C228.704 242.563 225.881 240.046 222.398 240.046M235.011 290.983L279.548 290.983M235.011 290.983C231.528 290.983 228.704 288.466 228.704 285.362M235.011 290.983C231.528 290.983 228.704 293.499 228.704 296.603M228.704 285.362C228.704 288.466 225.881 290.983 222.398 290.983M228.704 296.603L228.704 336.298M228.704 296.603C228.704 293.499 225.881 290.983 222.398 290.983M235.011 341.919L279.548 341.919M235.011 341.919C231.528 341.919 228.704 339.403 228.704 336.298M235.011 341.919C231.528 341.919 228.704 344.435 228.704 347.54M228.704 336.298C228.704 339.403 225.881 341.919 222.398 341.919M228.704 347.54L228.704 387.235M228.704 347.54C228.704 344.435 225.881 341.919 222.398 341.919M235.011 392.855L279.548 392.855M235.011 392.855C231.528 392.855 228.704 390.339 228.704 387.235M235.011 392.855C231.528 392.855 228.704 395.372 228.704 398.476M228.704 387.235C228.704 390.339 225.881 392.855 222.398 392.855M228.704 -212.761L228.704 -173.066M228.704 -212.761C228.704 -215.865 225.881 -218.382 222.398 -218.382M235.011 -167.445L279.548 -167.445M235.011 -167.445C231.528 -167.445 228.704 -169.962 228.704 -173.066M235.011 -167.445C231.528 -167.445 228.704 -164.929 228.704 -161.825M228.704 -173.066C228.704 -169.962 225.881 -167.445 222.398 -167.445M228.704 -161.825L228.704 -122.129M228.704 -161.825C228.704 -164.929 225.881 -167.445 222.398 -167.445M235.011 -116.509L279.548 -116.509M235.011 -116.509C231.528 -116.509 228.704 -119.025 228.704 -122.129M235.011 -116.509C231.528 -116.509 228.704 -113.992 228.704 -110.888M228.704 -122.129C228.704 -119.025 225.881 -116.509 222.398 -116.509M228.704 -110.888L228.704 -71.1928M228.704 -110.888C228.704 -113.992 225.881 -116.509 222.398 -116.509M235.011 -65.5723L279.548 -65.5723M235.011 -65.5723C231.528 -65.5723 228.704 -68.0887 228.704 -71.1928M235.011 -65.5723C231.528 -65.5723 228.704 -63.0559 228.704 -59.9517M228.704 -71.1928C228.704 -68.0887 225.881 -65.5723 222.398 -65.5723M228.704 -59.9517L228.704 -20.2565M228.704 -59.9517C228.704 -63.0559 225.881 -65.5723 222.398 -65.5723M235.011 -14.6359L279.548 -14.6359M235.011 -14.6359C231.528 -14.6359 228.704 -17.1523 228.704 -20.2565M235.011 -14.6359C231.528 -14.6359 228.704 -12.1195 228.704 -9.01533M228.704 -20.2565C228.704 -17.1523 225.881 -14.6359 222.398 -14.6359M228.704 -9.01533L228.704 30.6799M228.704 -9.01533C228.704 -12.1195 225.881 -14.6359 222.398 -14.6359M235.011 36.3005L279.548 36.3005M235.011 36.3005C231.528 36.3005 228.704 33.7841 228.704 30.6799M235.011 36.3005C231.528 36.3005 228.704 38.817 228.704 41.9211M228.704 30.6799C228.704 33.7841 225.881 36.3005 222.398 36.3005M228.704 41.9211L228.704 81.6164M228.704 41.9211C228.704 38.817 225.881 36.3005 222.398 36.3005M228.704 81.6164C228.704 84.7205 225.881 87.2369 222.398 87.2369M228.704 398.476L228.704 438.171M228.704 398.476C228.704 395.372 225.881 392.855 222.398 392.855M235.011 443.792L279.548 443.792M235.011 443.792C231.528 443.792 228.704 441.275 228.704 438.171M235.011 443.792C231.528 443.792 228.704 446.308 228.704 449.412M228.704 438.171C228.704 441.275 225.881 443.792 222.398 443.792M228.704 449.412L228.704 489.108M228.704 449.412C228.704 446.308 225.881 443.792 222.398 443.792M235.011 494.728L279.548 494.728M235.011 494.728C231.528 494.728 228.704 492.212 228.704 489.108M235.011 494.728C231.528 494.728 228.704 497.245 228.704 500.349M228.704 489.108C228.704 492.212 225.881 494.728 222.398 494.728M228.704 500.349L228.704 540.044M228.704 500.349C228.704 497.245 225.881 494.728 222.398 494.728M235.011 545.665L279.548 545.665M235.011 545.665C231.528 545.665 228.704 543.148 228.704 540.044M235.011 545.665C231.528 545.665 228.704 548.181 228.704 551.285M228.704 540.044C228.704 543.148 225.881 545.665 222.398 545.665M228.704 551.285L228.704 590.98M228.704 551.285C228.704 548.181 225.881 545.665 222.398 545.665M235.011 596.601L279.548 596.601M235.011 596.601C231.528 596.601 228.704 594.085 228.704 590.98M235.011 596.601C231.528 596.601 228.704 599.118 228.704 602.222M228.704 590.98C228.704 594.085 225.881 596.601 222.398 596.601M228.704 602.222L228.704 641.917M228.704 602.222C228.704 599.118 225.881 596.601 222.398 596.601M235.011 647.537L279.548 647.537M235.011 647.537C231.528 647.537 228.704 645.021 228.704 641.917M235.011 647.537C231.528 647.537 228.704 650.054 228.704 653.158M228.704 641.917C228.704 645.021 225.881 647.537 222.398 647.537M228.704 653.158L228.704 692.853M228.704 653.158C228.704 650.054 225.881 647.537 222.398 647.537M228.704 692.853C228.704 695.957 225.881 698.474 222.398 698.474L177.861 698.474C174.378 698.474 171.555 695.957 171.555 692.853M171.555 -518.379L171.555 -478.684M171.555 -518.379C171.555 -521.484 168.731 -524 165.248 -524L120.711 -524C117.228 -524 114.405 -521.484 114.405 -518.379M177.861 -473.064L222.398 -473.064M177.861 -473.064C174.378 -473.064 171.555 -475.58 171.555 -478.684M177.861 -473.064C174.378 -473.064 171.555 -470.547 171.555 -467.443M171.555 -478.684C171.555 -475.58 168.731 -473.064 165.248 -473.064M171.555 -467.443L171.555 -427.748M171.555 -467.443C171.555 -470.547 168.731 -473.064 165.248 -473.064M177.861 -422.127L222.398 -422.127M177.861 -422.127C174.378 -422.127 171.555 -424.644 171.555 -427.748M177.861 -422.127C174.378 -422.127 171.555 -419.611 171.555 -416.507M171.555 -427.748C171.555 -424.644 168.731 -422.127 165.248 -422.127M171.555 -416.507L171.555 -376.811M171.555 -416.507C171.555 -419.611 168.731 -422.127 165.248 -422.127M177.861 -371.191L222.398 -371.191M177.861 -371.191C174.378 -371.191 171.555 -373.707 171.555 -376.811M177.861 -371.191C174.378 -371.191 171.555 -368.674 171.555 -365.57M171.555 -376.811C171.555 -373.707 168.731 -371.191 165.248 -371.191M171.555 -365.57L171.555 -325.875M171.555 -365.57C171.555 -368.674 168.731 -371.191 165.248 -371.191M177.861 -320.254L222.398 -320.254M177.861 -320.254C174.378 -320.254 171.555 -322.771 171.555 -325.875M177.861 -320.254C174.378 -320.254 171.555 -317.738 171.555 -314.634M171.555 -325.875C171.555 -322.771 168.731 -320.254 165.248 -320.254M171.555 -314.634L171.555 -274.939M171.555 -314.634C171.555 -317.738 168.731 -320.254 165.248 -320.254M177.861 -269.318L222.398 -269.318M177.861 -269.318C174.378 -269.318 171.555 -271.834 171.555 -274.939M177.861 -269.318C174.378 -269.318 171.555 -266.802 171.555 -263.697M171.555 -274.939C171.555 -271.834 168.731 -269.318 165.248 -269.318M171.555 -263.697L171.555 -224.002M171.555 -263.697C171.555 -266.802 168.731 -269.318 165.248 -269.318M177.861 -218.382L222.398 -218.382M177.861 -218.382C174.378 -218.382 171.555 -220.898 171.555 -224.002M177.861 -218.382C174.378 -218.382 171.555 -215.865 171.555 -212.761M171.555 -224.002C171.555 -220.898 168.731 -218.382 165.248 -218.382M171.555 92.8575L171.555 132.553M171.555 92.8575C171.555 89.7533 174.378 87.2369 177.861 87.2369M171.555 92.8575C171.555 89.7533 168.731 87.2369 165.248 87.2369M177.861 87.2369L222.398 87.2369M177.861 87.2369C174.378 87.2369 171.555 84.7205 171.555 81.6164M177.861 138.173L222.398 138.173M177.861 138.173C174.378 138.173 171.555 135.657 171.555 132.553M177.861 138.173C174.378 138.173 171.555 140.69 171.555 143.794M171.555 132.553C171.555 135.657 168.731 138.173 165.248 138.173M171.555 143.794L171.555 183.489M171.555 143.794C171.555 140.69 168.731 138.173 165.248 138.173M177.861 189.11L222.398 189.11M177.861 189.11C174.378 189.11 171.555 186.593 171.555 183.489M177.861 189.11C174.378 189.11 171.555 191.626 171.555 194.73M171.555 183.489C171.555 186.593 168.731 189.11 165.248 189.11M171.555 194.73L171.555 234.426M171.555 194.73C171.555 191.626 168.731 189.11 165.248 189.11M177.861 240.046L222.398 240.046M177.861 240.046C174.378 240.046 171.555 237.53 171.555 234.426M177.861 240.046C174.378 240.046 171.555 242.563 171.555 245.667M171.555 234.426C171.555 237.53 168.731 240.046 165.248 240.046M171.555 245.667L171.555 285.362M171.555 245.667C171.555 242.563 168.731 240.046 165.248 240.046M177.861 290.983L222.398 290.983M177.861 290.983C174.378 290.983 171.555 288.466 171.555 285.362M177.861 290.983C174.378 290.983 171.555 293.499 171.555 296.603M171.555 285.362C171.555 288.466 168.731 290.983 165.248 290.983M171.555 296.603L171.555 336.298M171.555 296.603C171.555 293.499 168.731 290.983 165.248 290.983M177.861 341.919L222.398 341.919M177.861 341.919C174.378 341.919 171.555 339.403 171.555 336.298M177.861 341.919C174.378 341.919 171.555 344.435 171.555 347.54M171.555 336.298C171.555 339.403 168.731 341.919 165.248 341.919M171.555 347.54L171.555 387.235M171.555 347.54C171.555 344.435 168.731 341.919 165.248 341.919M177.861 392.855L222.398 392.855M177.861 392.855C174.378 392.855 171.555 390.339 171.555 387.235M177.861 392.855C174.378 392.855 171.555 395.372 171.555 398.476M171.555 387.235C171.555 390.339 168.731 392.855 165.248 392.855M171.555 -212.761L171.555 -173.066M171.555 -212.761C171.555 -215.865 168.731 -218.382 165.248 -218.382M177.861 -167.445L222.398 -167.445M177.861 -167.445C174.378 -167.445 171.555 -169.962 171.555 -173.066M177.861 -167.445C174.378 -167.445 171.555 -164.929 171.555 -161.825M171.555 -173.066C171.555 -169.962 168.731 -167.445 165.248 -167.445M171.555 -161.825L171.555 -122.129M171.555 -161.825C171.555 -164.929 168.731 -167.445 165.248 -167.445M177.861 -116.509L222.398 -116.509M177.861 -116.509C174.378 -116.509 171.555 -119.025 171.555 -122.129M177.861 -116.509C174.378 -116.509 171.555 -113.992 171.555 -110.888M171.555 -122.129C171.555 -119.025 168.731 -116.509 165.248 -116.509M171.555 -110.888L171.555 -71.1928M171.555 -110.888C171.555 -113.992 168.731 -116.509 165.248 -116.509M177.861 -65.5723L222.398 -65.5723M177.861 -65.5723C174.378 -65.5723 171.555 -68.0887 171.555 -71.1928M177.861 -65.5723C174.378 -65.5723 171.555 -63.0559 171.555 -59.9517M171.555 -71.1928C171.555 -68.0887 168.731 -65.5723 165.248 -65.5723M171.555 -59.9517L171.555 -20.2565M171.555 -59.9517C171.555 -63.0559 168.731 -65.5723 165.248 -65.5723M177.861 -14.6359L222.398 -14.6359M177.861 -14.6359C174.378 -14.6359 171.555 -17.1523 171.555 -20.2565M177.861 -14.6359C174.378 -14.6359 171.555 -12.1195 171.555 -9.01533M171.555 -20.2565C171.555 -17.1523 168.731 -14.6359 165.248 -14.6359M171.555 -9.01533L171.555 30.6799M171.555 -9.01533C171.555 -12.1195 168.731 -14.6359 165.248 -14.6359M177.861 36.3005L222.398 36.3005M177.861 36.3005C174.378 36.3005 171.555 33.7841 171.555 30.6799M177.861 36.3005C174.378 36.3005 171.555 38.817 171.555 41.9211M171.555 30.6799C171.555 33.7841 168.731 36.3005 165.248 36.3005M171.555 41.9211L171.555 81.6164M171.555 41.9211C171.555 38.817 168.731 36.3005 165.248 36.3005M171.555 81.6164C171.555 84.7205 168.731 87.2369 165.248 87.2369M171.555 398.476L171.555 438.171M171.555 398.476C171.555 395.372 168.731 392.855 165.248 392.855M177.861 443.792L222.398 443.792M177.861 443.792C174.378 443.792 171.555 441.275 171.555 438.171M177.861 443.792C174.378 443.792 171.555 446.308 171.555 449.412M171.555 438.171C171.555 441.275 168.731 443.792 165.248 443.792M171.555 449.412L171.555 489.108M171.555 449.412C171.555 446.308 168.731 443.792 165.248 443.792M177.861 494.728L222.398 494.728M177.861 494.728C174.378 494.728 171.555 492.212 171.555 489.108M177.861 494.728C174.378 494.728 171.555 497.245 171.555 500.349M171.555 489.108C171.555 492.212 168.731 494.728 165.248 494.728M171.555 500.349L171.555 540.044M171.555 500.349C171.555 497.245 168.731 494.728 165.248 494.728M177.861 545.665L222.398 545.665M177.861 545.665C174.378 545.665 171.555 543.148 171.555 540.044M177.861 545.665C174.378 545.665 171.555 548.181 171.555 551.285M171.555 540.044C171.555 543.148 168.731 545.665 165.248 545.665M171.555 551.285L171.555 590.98M171.555 551.285C171.555 548.181 168.731 545.665 165.248 545.665M177.861 596.601L222.398 596.601M177.861 596.601C174.378 596.601 171.555 594.085 171.555 590.98M177.861 596.601C174.378 596.601 171.555 599.118 171.555 602.222M171.555 590.98C171.555 594.085 168.731 596.601 165.248 596.601M171.555 602.222L171.555 641.917M171.555 602.222C171.555 599.118 168.731 596.601 165.248 596.601M177.861 647.537L222.398 647.537M177.861 647.537C174.378 647.537 171.555 645.021 171.555 641.917M177.861 647.537C174.378 647.537 171.555 650.054 171.555 653.158M171.555 641.917C171.555 645.021 168.731 647.537 165.248 647.537M171.555 653.158L171.555 692.853M171.555 653.158C171.555 650.054 168.731 647.537 165.248 647.537M171.555 692.853C171.555 695.957 168.731 698.474 165.248 698.474L120.711 698.474C117.228 698.474 114.405 695.957 114.405 692.853M114.405 -518.379L114.405 -478.684M114.405 -518.379C114.405 -521.484 111.582 -524 108.099 -524L63.5616 -524C60.0788 -524 57.2555 -521.484 57.2555 -518.379M120.711 -473.064L165.248 -473.064M120.711 -473.064C117.228 -473.064 114.405 -475.58 114.405 -478.684M120.711 -473.064C117.228 -473.064 114.405 -470.547 114.405 -467.443M114.405 -478.684C114.405 -475.58 111.582 -473.064 108.099 -473.064M114.405 -467.443L114.405 -427.748M114.405 -467.443C114.405 -470.547 111.582 -473.064 108.099 -473.064M120.711 -422.127L165.248 -422.127M120.711 -422.127C117.228 -422.127 114.405 -424.644 114.405 -427.748M120.711 -422.127C117.228 -422.127 114.405 -419.611 114.405 -416.507M114.405 -427.748C114.405 -424.644 111.582 -422.127 108.099 -422.127M114.405 -416.507L114.405 -376.811M114.405 -416.507C114.405 -419.611 111.582 -422.127 108.099 -422.127M120.711 -371.191L165.248 -371.191M120.711 -371.191C117.228 -371.191 114.405 -373.707 114.405 -376.811M120.711 -371.191C117.228 -371.191 114.405 -368.674 114.405 -365.57M114.405 -376.811C114.405 -373.707 111.582 -371.191 108.099 -371.191M114.405 -365.57L114.405 -325.875M114.405 -365.57C114.405 -368.674 111.582 -371.191 108.099 -371.191M120.711 -320.254L165.248 -320.254M120.711 -320.254C117.228 -320.254 114.405 -322.771 114.405 -325.875M120.711 -320.254C117.228 -320.254 114.405 -317.738 114.405 -314.634M114.405 -325.875C114.405 -322.771 111.582 -320.254 108.099 -320.254M114.405 -314.634L114.405 -274.939M114.405 -314.634C114.405 -317.738 111.582 -320.254 108.099 -320.254M120.711 -269.318L165.248 -269.318M120.711 -269.318C117.228 -269.318 114.405 -271.834 114.405 -274.939M120.711 -269.318C117.228 -269.318 114.405 -266.802 114.405 -263.697M114.405 -274.939C114.405 -271.834 111.582 -269.318 108.099 -269.318M114.405 -263.697L114.405 -224.002M114.405 -263.697C114.405 -266.802 111.582 -269.318 108.099 -269.318M120.711 -218.382L165.248 -218.382M120.711 -218.382C117.228 -218.382 114.405 -220.898 114.405 -224.002M120.711 -218.382C117.228 -218.382 114.405 -215.865 114.405 -212.761M114.405 -224.002C114.405 -220.898 111.582 -218.382 108.099 -218.382M114.405 92.8575L114.405 132.553M114.405 92.8575C114.405 89.7533 117.228 87.2369 120.711 87.2369M114.405 92.8575C114.405 89.7533 111.582 87.2369 108.099 87.2369M120.711 87.2369L165.248 87.2369M120.711 87.2369C117.228 87.2369 114.405 84.7205 114.405 81.6164M120.711 138.173L165.248 138.173M120.711 138.173C117.228 138.173 114.405 135.657 114.405 132.553M120.711 138.173C117.228 138.173 114.405 140.69 114.405 143.794M114.405 132.553C114.405 135.657 111.582 138.173 108.099 138.173M114.405 143.794L114.405 183.489M114.405 143.794C114.405 140.69 111.582 138.173 108.099 138.173M120.711 189.11L165.248 189.11M120.711 189.11C117.228 189.11 114.405 186.593 114.405 183.489M120.711 189.11C117.228 189.11 114.405 191.626 114.405 194.73M114.405 183.489C114.405 186.593 111.582 189.11 108.099 189.11M114.405 194.73L114.405 234.426M114.405 194.73C114.405 191.626 111.582 189.11 108.099 189.11M120.711 240.046L165.248 240.046M120.711 240.046C117.228 240.046 114.405 237.53 114.405 234.426M120.711 240.046C117.228 240.046 114.405 242.563 114.405 245.667M114.405 234.426C114.405 237.53 111.582 240.046 108.099 240.046M114.405 245.667L114.405 285.362M114.405 245.667C114.405 242.563 111.582 240.046 108.099 240.046M120.711 290.983L165.248 290.983M120.711 290.983C117.228 290.983 114.405 288.466 114.405 285.362M120.711 290.983C117.228 290.983 114.405 293.499 114.405 296.603M114.405 285.362C114.405 288.466 111.582 290.983 108.099 290.983M114.405 296.603L114.405 336.298M114.405 296.603C114.405 293.499 111.582 290.983 108.099 290.983M120.711 341.919L165.248 341.919M120.711 341.919C117.228 341.919 114.405 339.403 114.405 336.298M120.711 341.919C117.228 341.919 114.405 344.435 114.405 347.54M114.405 336.298C114.405 339.403 111.582 341.919 108.099 341.919M114.405 347.54L114.405 387.235M114.405 347.54C114.405 344.435 111.582 341.919 108.099 341.919M120.711 392.855L165.248 392.855M120.711 392.855C117.228 392.855 114.405 390.339 114.405 387.235M120.711 392.855C117.228 392.855 114.405 395.372 114.405 398.476M114.405 387.235C114.405 390.339 111.582 392.855 108.099 392.855M114.405 -212.761L114.405 -173.066M114.405 -212.761C114.405 -215.865 111.582 -218.382 108.099 -218.382M120.711 -167.445L165.248 -167.445M120.711 -167.445C117.228 -167.445 114.405 -169.962 114.405 -173.066M120.711 -167.445C117.228 -167.445 114.405 -164.929 114.405 -161.825M114.405 -173.066C114.405 -169.962 111.582 -167.445 108.099 -167.445M114.405 -161.825L114.405 -122.129M114.405 -161.825C114.405 -164.929 111.582 -167.445 108.099 -167.445M120.711 -116.509L165.248 -116.509M120.711 -116.509C117.228 -116.509 114.405 -119.025 114.405 -122.129M120.711 -116.509C117.228 -116.509 114.405 -113.992 114.405 -110.888M114.405 -122.129C114.405 -119.025 111.582 -116.509 108.099 -116.509M114.405 -110.888L114.405 -71.1929M114.405 -110.888C114.405 -113.992 111.582 -116.509 108.099 -116.509M120.711 -65.5723L165.248 -65.5723M120.711 -65.5723C117.228 -65.5723 114.405 -68.0887 114.405 -71.1929M120.711 -65.5723C117.228 -65.5723 114.405 -63.0559 114.405 -59.9517M114.405 -71.1929C114.405 -68.0887 111.582 -65.5723 108.099 -65.5723M114.405 -59.9517L114.405 -20.2565M114.405 -59.9517C114.405 -63.0559 111.582 -65.5723 108.099 -65.5723M120.711 -14.6359L165.248 -14.6359M120.711 -14.6359C117.228 -14.6359 114.405 -17.1523 114.405 -20.2565M120.711 -14.6359C117.228 -14.6359 114.405 -12.1195 114.405 -9.01533M114.405 -20.2565C114.405 -17.1523 111.582 -14.6359 108.099 -14.6359M114.405 -9.01533L114.405 30.6799M114.405 -9.01533C114.405 -12.1195 111.582 -14.6359 108.099 -14.6359M120.711 36.3005L165.248 36.3005M120.711 36.3005C117.228 36.3005 114.405 33.7841 114.405 30.6799M120.711 36.3005C117.228 36.3005 114.405 38.817 114.405 41.9211M114.405 30.6799C114.405 33.7841 111.582 36.3005 108.099 36.3005M114.405 41.9211L114.405 81.6164M114.405 41.9211C114.405 38.817 111.582 36.3005 108.099 36.3005M114.405 81.6164C114.405 84.7205 111.582 87.2369 108.099 87.2369M114.405 398.476L114.405 438.171M114.405 398.476C114.405 395.372 111.582 392.855 108.099 392.855M120.711 443.792L165.248 443.792M120.711 443.792C117.228 443.792 114.405 441.275 114.405 438.171M120.711 443.792C117.228 443.792 114.405 446.308 114.405 449.412M114.405 438.171C114.405 441.275 111.582 443.792 108.099 443.792M114.405 449.412L114.405 489.108M114.405 449.412C114.405 446.308 111.582 443.792 108.099 443.792M120.711 494.728L165.248 494.728M120.711 494.728C117.228 494.728 114.405 492.212 114.405 489.108M120.711 494.728C117.228 494.728 114.405 497.245 114.405 500.349M114.405 489.108C114.405 492.212 111.582 494.728 108.099 494.728M114.405 500.349L114.405 540.044M114.405 500.349C114.405 497.245 111.582 494.728 108.099 494.728M120.711 545.665L165.248 545.665M120.711 545.665C117.228 545.665 114.405 543.148 114.405 540.044M120.711 545.665C117.228 545.665 114.405 548.181 114.405 551.285M114.405 540.044C114.405 543.148 111.582 545.665 108.099 545.665M114.405 551.285L114.405 590.98M114.405 551.285C114.405 548.181 111.582 545.665 108.099 545.665M120.711 596.601L165.248 596.601M120.711 596.601C117.228 596.601 114.405 594.085 114.405 590.98M120.711 596.601C117.228 596.601 114.405 599.118 114.405 602.222M114.405 590.98C114.405 594.085 111.582 596.601 108.099 596.601M114.405 602.222L114.405 641.917M114.405 602.222C114.405 599.118 111.582 596.601 108.099 596.601M120.711 647.537L165.248 647.537M120.711 647.537C117.228 647.537 114.405 645.021 114.405 641.917M120.711 647.537C117.228 647.537 114.405 650.054 114.405 653.158M114.405 641.917C114.405 645.021 111.582 647.537 108.099 647.537M114.405 653.158L114.405 692.853M114.405 653.158C114.405 650.054 111.582 647.537 108.099 647.537M114.405 692.853C114.405 695.957 111.582 698.474 108.099 698.474L63.5616 698.474C60.0788 698.474 57.2554 695.957 57.2554 692.853M57.2555 -518.379L57.2555 -478.684M57.2555 -518.379C57.2555 -521.484 54.432 -524 50.9492 -524L6.41189 -524C2.92909 -524 0.105705 -521.484 0.105705 -518.379L0.105703 -478.684C0.105703 -475.58 2.92908 -473.064 6.41188 -473.064M63.5616 -473.064L108.099 -473.064M63.5616 -473.064C60.0788 -473.064 57.2555 -475.58 57.2555 -478.684M63.5616 -473.064C60.0788 -473.064 57.2555 -470.547 57.2555 -467.443M57.2555 -478.684C57.2555 -475.58 54.432 -473.064 50.9492 -473.064M57.2555 -467.443L57.2555 -427.748M57.2555 -467.443C57.2555 -470.547 54.432 -473.064 50.9492 -473.064M63.5616 -422.127L108.099 -422.127M63.5616 -422.127C60.0788 -422.127 57.2555 -424.644 57.2555 -427.748M63.5616 -422.127C60.0788 -422.127 57.2555 -419.611 57.2555 -416.507M57.2555 -427.748C57.2555 -424.644 54.4319 -422.127 50.9491 -422.127M57.2555 -416.507L57.2555 -376.811M57.2555 -416.507C57.2555 -419.611 54.4319 -422.127 50.9491 -422.127M63.5616 -371.191L108.099 -371.191M63.5616 -371.191C60.0788 -371.191 57.2555 -373.707 57.2555 -376.811M63.5616 -371.191C60.0788 -371.191 57.2555 -368.674 57.2555 -365.57M57.2555 -376.811C57.2555 -373.707 54.4319 -371.191 50.9491 -371.191M57.2555 -365.57L57.2555 -325.875M57.2555 -365.57C57.2555 -368.674 54.4319 -371.191 50.9491 -371.191M63.5616 -320.254L108.099 -320.254M63.5616 -320.254C60.0788 -320.254 57.2555 -322.771 57.2555 -325.875M63.5616 -320.254C60.0788 -320.254 57.2555 -317.738 57.2555 -314.634M57.2555 -325.875C57.2555 -322.771 54.4319 -320.254 50.9491 -320.254M57.2555 -314.634L57.2555 -274.939M57.2555 -314.634C57.2555 -317.738 54.4319 -320.254 50.9491 -320.254M63.5616 -269.318L108.099 -269.318M63.5616 -269.318C60.0788 -269.318 57.2555 -271.834 57.2555 -274.939M63.5616 -269.318C60.0788 -269.318 57.2555 -266.802 57.2555 -263.697M57.2555 -274.939C57.2555 -271.834 54.4319 -269.318 50.9491 -269.318M57.2555 -263.697L57.2555 -224.002M57.2555 -263.697C57.2555 -266.802 54.4319 -269.318 50.9491 -269.318M63.5616 -218.382L108.099 -218.382M63.5616 -218.382C60.0788 -218.382 57.2555 -220.898 57.2555 -224.002M63.5616 -218.382C60.0788 -218.382 57.2555 -215.865 57.2555 -212.761M57.2555 -224.002C57.2555 -220.898 54.4319 -218.382 50.9491 -218.382M57.2555 92.8575L57.2555 132.553M57.2555 92.8575C57.2555 89.7533 60.0788 87.2369 63.5616 87.2369M57.2555 92.8575C57.2555 89.7533 54.432 87.2369 50.9492 87.2369M63.5616 87.2369L108.099 87.2369M63.5616 87.2369C60.0788 87.2369 57.2555 84.7205 57.2555 81.6164M63.5616 138.173L108.099 138.173M63.5616 138.173C60.0788 138.173 57.2555 135.657 57.2555 132.553M63.5616 138.173C60.0788 138.173 57.2555 140.69 57.2555 143.794M57.2555 132.553C57.2555 135.657 54.432 138.173 50.9492 138.173M57.2555 143.794L57.2555 183.489M57.2555 143.794C57.2555 140.69 54.432 138.173 50.9492 138.173M63.5616 189.11L108.099 189.11M63.5616 189.11C60.0788 189.11 57.2555 186.593 57.2555 183.489M63.5616 189.11C60.0788 189.11 57.2555 191.626 57.2555 194.73M57.2555 183.489C57.2555 186.593 54.4319 189.11 50.9491 189.11M57.2555 194.73L57.2555 234.426M57.2555 194.73C57.2555 191.626 54.4319 189.11 50.9491 189.11M63.5616 240.046L108.099 240.046M63.5616 240.046C60.0788 240.046 57.2555 237.53 57.2555 234.426M63.5616 240.046C60.0788 240.046 57.2555 242.563 57.2555 245.667M57.2555 234.426C57.2555 237.53 54.4319 240.046 50.9491 240.046M57.2555 245.667L57.2555 285.362M57.2555 245.667C57.2555 242.563 54.4319 240.046 50.9491 240.046M63.5616 290.983L108.099 290.983M63.5616 290.983C60.0788 290.983 57.2555 288.466 57.2555 285.362M63.5616 290.983C60.0788 290.983 57.2555 293.499 57.2555 296.603M57.2555 285.362C57.2555 288.466 54.4319 290.983 50.9491 290.983M57.2555 296.603L57.2555 336.298M57.2555 296.603C57.2555 293.499 54.4319 290.983 50.9491 290.983M63.5616 341.919L108.099 341.919M63.5616 341.919C60.0788 341.919 57.2555 339.403 57.2555 336.298M63.5616 341.919C60.0788 341.919 57.2555 344.435 57.2555 347.54M57.2555 336.298C57.2555 339.403 54.4319 341.919 50.9491 341.919M57.2555 347.54L57.2555 387.235M57.2555 347.54C57.2555 344.435 54.4319 341.919 50.9491 341.919M63.5616 392.855L108.099 392.855M63.5616 392.855C60.0788 392.855 57.2555 390.339 57.2555 387.235M63.5616 392.855C60.0788 392.855 57.2555 395.372 57.2555 398.476M57.2555 387.235C57.2555 390.339 54.4319 392.855 50.9491 392.855M57.2555 -212.761L57.2555 -173.066M57.2555 -212.761C57.2555 -215.865 54.4319 -218.382 50.9491 -218.382M63.5616 -167.445L108.099 -167.445M63.5616 -167.445C60.0788 -167.445 57.2555 -169.962 57.2555 -173.066M63.5616 -167.445C60.0788 -167.445 57.2555 -164.929 57.2555 -161.825M57.2555 -173.066C57.2555 -169.962 54.432 -167.445 50.9492 -167.445M57.2555 -161.825L57.2555 -122.129M57.2555 -161.825C57.2555 -164.929 54.432 -167.445 50.9492 -167.445M63.5616 -116.509L108.099 -116.509M63.5616 -116.509C60.0788 -116.509 57.2555 -119.025 57.2555 -122.129M63.5616 -116.509C60.0788 -116.509 57.2555 -113.992 57.2555 -110.888M57.2555 -122.129C57.2555 -119.025 54.4319 -116.509 50.9491 -116.509M57.2555 -110.888L57.2555 -71.1929M57.2555 -110.888C57.2555 -113.992 54.4319 -116.509 50.9491 -116.509M63.5616 -65.5723L108.099 -65.5723M63.5616 -65.5723C60.0788 -65.5723 57.2555 -68.0887 57.2555 -71.1929M63.5616 -65.5723C60.0788 -65.5723 57.2555 -63.0559 57.2555 -59.9517M57.2555 -71.1929C57.2555 -68.0887 54.4319 -65.5723 50.9491 -65.5723M57.2555 -59.9517L57.2555 -20.2565M57.2555 -59.9517C57.2555 -63.0559 54.4319 -65.5723 50.9491 -65.5723M63.5616 -14.6359L108.099 -14.6359M63.5616 -14.6359C60.0788 -14.6359 57.2555 -17.1523 57.2555 -20.2565M63.5616 -14.6359C60.0788 -14.6359 57.2555 -12.1195 57.2555 -9.01533M57.2555 -20.2565C57.2555 -17.1523 54.4319 -14.6359 50.9491 -14.6359M57.2555 -9.01533L57.2555 30.6799M57.2555 -9.01533C57.2555 -12.1195 54.4319 -14.6359 50.9491 -14.6359M63.5616 36.3005L108.099 36.3005M63.5616 36.3005C60.0788 36.3005 57.2555 33.7841 57.2555 30.6799M63.5616 36.3005C60.0788 36.3005 57.2555 38.817 57.2555 41.9211M57.2555 30.6799C57.2555 33.7841 54.4319 36.3005 50.9491 36.3005M57.2555 41.9211L57.2555 81.6164M57.2555 41.9211C57.2555 38.817 54.4319 36.3005 50.9491 36.3005M57.2555 81.6164C57.2555 84.7205 54.432 87.2369 50.9492 87.2369M57.2555 398.476L57.2555 438.171M57.2555 398.476C57.2555 395.372 54.4319 392.855 50.9491 392.855M63.5616 443.792L108.099 443.792M63.5616 443.792C60.0788 443.792 57.2555 441.275 57.2555 438.171M63.5616 443.792C60.0788 443.792 57.2555 446.308 57.2555 449.412M57.2555 438.171C57.2555 441.275 54.4319 443.792 50.9491 443.792M57.2555 449.412L57.2555 489.108M57.2555 449.412C57.2555 446.308 54.4319 443.792 50.9491 443.792M63.5616 494.728L108.099 494.728M63.5616 494.728C60.0788 494.728 57.2555 492.212 57.2555 489.108M63.5616 494.728C60.0788 494.728 57.2555 497.245 57.2555 500.349M57.2555 489.108C57.2555 492.212 54.4319 494.728 50.9491 494.728M57.2555 500.349L57.2554 540.044M57.2555 500.349C57.2555 497.245 54.4319 494.728 50.9491 494.728M63.5616 545.665L108.099 545.665M63.5616 545.665C60.0788 545.665 57.2554 543.148 57.2554 540.044M63.5616 545.665C60.0788 545.665 57.2554 548.181 57.2554 551.285M57.2554 540.044C57.2554 543.148 54.4319 545.665 50.9491 545.665M57.2554 551.285L57.2554 590.98M57.2554 551.285C57.2554 548.181 54.4319 545.665 50.9491 545.665M63.5616 596.601L108.099 596.601M63.5616 596.601C60.0788 596.601 57.2554 594.085 57.2554 590.98M63.5616 596.601C60.0788 596.601 57.2554 599.118 57.2554 602.222M57.2554 590.98C57.2554 594.085 54.4319 596.601 50.9491 596.601M57.2554 602.222L57.2554 641.917M57.2554 602.222C57.2554 599.118 54.4319 596.601 50.9491 596.601M63.5616 647.537L108.099 647.537M63.5616 647.537C60.0788 647.537 57.2554 645.021 57.2554 641.917M63.5616 647.537C60.0788 647.537 57.2554 650.054 57.2554 653.158M57.2554 641.917C57.2554 645.021 54.4319 647.537 50.9491 647.537M57.2554 653.158L57.2554 692.853M57.2554 653.158C57.2554 650.054 54.4319 647.537 50.9491 647.537M57.2554 692.853C57.2554 695.957 54.4319 698.474 50.9491 698.474L6.41176 698.474C2.92896 698.474 0.105551 695.957 0.105551 692.853L0.105553 653.158C0.105553 650.054 2.92897 647.537 6.41177 647.537M6.41188 -473.064L50.9492 -473.064M6.41188 -473.064C2.92908 -473.064 0.105605 -470.547 0.105605 -467.443L0.105603 -427.748C0.105603 -424.644 2.92902 -422.127 6.41182 -422.127M6.41182 -422.127L50.9491 -422.127M6.41182 -422.127C2.92902 -422.127 0.105603 -419.611 0.105603 -416.507L0.105601 -376.811C0.105601 -373.707 2.92901 -371.191 6.41181 -371.191M6.41181 -371.191L50.9491 -371.191M6.41181 -371.191C2.92901 -371.191 0.105601 -368.674 0.1056 -365.57L0.105599 -325.875C0.105598 -322.771 2.92901 -320.254 6.41181 -320.254M6.41181 -320.254L50.9491 -320.254M6.41181 -320.254C2.92901 -320.254 0.105598 -317.738 0.105598 -314.634L0.105596 -274.939C0.105596 -271.834 2.92901 -269.318 6.41181 -269.318M6.41181 -269.318L50.9491 -269.318M6.41181 -269.318C2.92901 -269.318 0.105596 -266.802 0.105596 -263.697L0.105594 -224.002C0.105594 -220.898 2.92901 -218.382 6.41181 -218.382M6.41181 -218.382L50.9491 -218.382M6.41181 -218.382C2.92901 -218.382 0.105691 -215.865 0.105691 -212.761L0.105689 -173.066C0.105689 -169.962 2.92907 -167.445 6.41187 -167.445M6.41186 87.2369L50.9492 87.2369M6.41186 87.2369C2.92906 87.2369 0.105677 89.7533 0.105677 92.8575L0.105675 132.553C0.105675 135.657 2.92905 138.173 6.41186 138.173M6.41186 87.2369C2.92906 87.2369 0.10558 84.7205 0.10558 81.6164L0.105581 41.9211C0.105582 38.817 2.92899 36.3005 6.4118 36.3005M6.41186 138.173L50.9492 138.173M6.41186 138.173C2.92905 138.173 0.105577 140.69 0.105577 143.794L0.105575 183.489C0.105575 186.593 2.92899 189.11 6.41179 189.11M6.41179 189.11L50.9491 189.11M6.41179 189.11C2.92899 189.11 0.105575 191.626 0.105574 194.73L0.105573 234.426C0.105572 237.53 2.92898 240.046 6.41179 240.046M6.41179 240.046L50.9491 240.046M6.41179 240.046C2.92898 240.046 0.105572 242.563 0.105572 245.667L0.10557 285.362C0.10557 288.466 2.92898 290.983 6.41178 290.983M6.41178 290.983L50.9491 290.983M6.41178 290.983C2.92898 290.983 0.10557 293.499 0.10557 296.603L0.105568 336.298C0.105568 339.403 2.92898 341.919 6.41178 341.919M6.41178 341.919L50.9491 341.919M6.41178 341.919C2.92898 341.919 0.105567 344.435 0.105567 347.54L0.105565 387.235C0.105565 390.339 2.92898 392.855 6.41178 392.855M6.41178 392.855L50.9491 392.855M6.41178 392.855C2.92898 392.855 0.105662 395.372 0.105662 398.476L0.10566 438.171C0.10566 441.275 2.92904 443.792 6.41184 443.792M6.41187 -167.445L50.9492 -167.445M6.41187 -167.445C2.92907 -167.445 0.105591 -164.929 0.105591 -161.825L0.105589 -122.129C0.105589 -119.025 2.929 -116.509 6.4118 -116.509M6.4118 -116.509L50.9491 -116.509M6.4118 -116.509C2.929 -116.509 0.105589 -113.992 0.105589 -110.888L0.105587 -71.1929C0.105587 -68.0887 2.929 -65.5723 6.4118 -65.5723M6.4118 -65.5723L50.9491 -65.5723M6.4118 -65.5723C2.929 -65.5723 0.105586 -63.0559 0.105586 -59.9517L0.105584 -20.2565C0.105584 -17.1523 2.929 -14.6359 6.4118 -14.6359M6.4118 -14.6359L50.9491 -14.6359M6.4118 -14.6359C2.929 -14.6359 0.105584 -12.1195 0.105584 -9.01534L0.105582 30.6799C0.105582 33.7841 2.92899 36.3005 6.4118 36.3005M6.4118 36.3005L50.9491 36.3005M6.41184 443.792L50.9491 443.792M6.41184 443.792C2.92904 443.792 0.105563 446.308 0.105563 449.412L0.105561 489.108C0.105561 492.212 2.92897 494.728 6.41177 494.728M6.41177 494.728L50.9491 494.728M6.41177 494.728C2.92897 494.728 0.10556 497.245 0.10556 500.349L0.105558 540.044C0.105558 543.148 2.92897 545.665 6.41177 545.665M6.41177 545.665L50.9491 545.665M6.41177 545.665C2.92897 545.665 0.105558 548.181 0.105558 551.285L0.105556 590.98C0.105556 594.085 2.92897 596.601 6.41177 596.601M6.41177 596.601L50.9491 596.601M6.41177 596.601C2.92897 596.601 0.105556 599.118 0.105555 602.222L0.105554 641.917C0.105553 645.021 2.92897 647.537 6.41177 647.537M6.41177 647.537L50.9491 647.537" stroke="url(#paint1_linear_2757_71537)" stroke-opacity="0.8" stroke-width="0.210789"/>
<defs>
<linearGradient id="paint0_linear_2757_71537" x1="209.727" y1="47" x2="209.727" y2="226.852" gradientUnits="userSpaceOnUse">
<stop stop-color="white" stop-opacity="0"/>
<stop offset="0.509615" stop-color="white" stop-opacity="0.201923"/>
<stop offset="1" stop-color="white" stop-opacity="0.3"/>
</linearGradient>
<linearGradient id="paint1_linear_2757_71537" x1="352.39" y1="223.196" x2="-2.28925" y2="18.2026" gradientUnits="userSpaceOnUse">
<stop stop-color="#10686C"/>
<stop offset="0.245555" stop-color="#10686C" stop-opacity="0.15"/>
<stop offset="0.480555" stop-color="#10686C"/>
<stop offset="0.680555" stop-color="#10686C" stop-opacity="0.15"/>
<stop offset="1" stop-color="#10686C"/>
</linearGradient>
</defs>
</svg>
