<svg width="40" height="40" viewBox="0 0 40 40" fill="none" xmlns="http://www.w3.org/2000/svg">
<path d="M37.9525 19.1098C37.9462 19.1223 37.9399 19.1336 37.9336 19.1449C37.9035 19.2001 37.8735 19.254 37.8434 19.3054C37.1048 20.5894 36.4716 20.9167 35.7293 21.585C35.575 21.723 35.4158 21.876 35.2503 22.0565C34.9631 22.3675 34.6584 22.7575 34.3224 23.2854C31.664 27.4684 33.8923 30.1167 31.5474 33.1223C29.5374 35.6979 25.4847 36.9305 23.2816 35.7104C21.8697 34.9292 22.1644 33.5575 20.7299 32.9794C20.4001 32.8465 20.0941 32.8013 19.7982 32.8176C19.7017 32.8227 19.6051 32.8339 19.5098 32.8515C18.2571 33.0772 17.0684 34.2584 14.6233 34.2571C13.1951 34.2571 11.6227 33.8521 10.5431 33.1299C10.4804 33.0885 10.4202 33.0471 10.3625 33.0032C9.87346 32.6396 9.50606 32.2057 9.33051 31.7079C9.22393 31.4082 9.19007 31.096 9.12612 30.4841C8.95559 28.8841 9.21265 28.0854 9.18005 27.5725C9.08726 26.1217 6.59195 25.7368 4.34116 24.7324C4.28098 24.7073 4.22205 24.6785 4.16312 24.6509C3.19384 24.2032 2.28474 23.6289 1.64901 22.7951C0.312328 21.0396 0.195713 18.1368 1.02079 15.6176C1.03584 15.5712 1.05088 15.5249 1.06719 15.4772C1.65903 13.7506 2.69478 12.2195 4.08412 11.3832C5.30168 10.6509 6.76624 10.4665 8.10292 10.5117C8.13678 10.5117 8.17064 10.5142 8.20449 10.5167C10.044 10.597 11.6177 11.1048 11.9224 11.2026C12.9368 11.5299 14.7901 12.2985 17.5098 12.7198C17.5637 12.7286 17.6177 12.7374 17.6716 12.7449C17.8772 12.775 18.0879 12.8039 18.3035 12.8289C18.6521 12.8716 18.8277 12.8929 19.0057 12.9017C22.3512 13.0709 24.8452 10.7675 25.412 10.2546C25.6151 10.0703 25.6741 9.99758 25.8095 9.86717C27.8547 7.88598 33.5349 5.08347 37.096 7.85338C37.1499 7.89601 37.2026 7.93739 37.254 7.98253C37.4521 8.14805 37.6327 8.32485 37.797 8.51169C40.6985 11.7907 38.6057 17.8672 37.9499 19.1073L37.9525 19.1098Z" fill="#F2F4F7"/>
<path d="M35.7273 21.585C35.573 21.7229 35.4138 21.8759 35.2483 22.0564C34.6727 22.306 34.1009 22.5655 33.5354 22.8389C32.1411 23.5122 30.7793 24.2533 29.4564 25.0571C28.1285 25.8646 26.8382 26.7361 25.5956 27.669C24.3517 28.6019 23.1542 29.5962 22.0044 30.6445C21.4313 31.1674 20.8646 31.7003 20.3179 32.2546C20.1373 32.4351 19.9605 32.622 19.7962 32.8176C19.6997 32.8226 19.6031 32.8339 19.5078 32.8514C19.6633 32.6483 19.8313 32.4552 20.0069 32.2696C20.5599 31.679 21.1492 31.1198 21.7448 30.5718C22.9398 29.4721 24.1925 28.4351 25.4928 27.4633C26.7906 26.4928 28.136 25.5887 29.5229 24.7511C30.9147 23.9122 32.348 23.1411 33.8175 22.4464C34.447 22.148 35.0853 21.8571 35.7285 21.585H35.7273Z" fill="white"/>
<path d="M10.8582 32.1187C10.7729 32.4623 10.6676 32.8008 10.5384 33.1319C10.4757 33.0905 10.4155 33.0491 10.3579 33.0052C10.8193 31.6598 10.9785 30.1977 10.8231 28.792C10.7278 27.9243 10.5033 27.0754 10.1748 26.2692C9.80865 25.3714 9.33592 24.5212 8.90332 23.6535C8.46319 22.7732 8.04062 21.883 7.64689 20.9801C7.28952 20.1563 6.93718 19.3275 6.73028 18.4497C6.36414 16.9162 6.36288 15.2848 6.71398 13.7475C6.9773 12.5902 7.45127 11.4993 8.0983 10.5137C8.13215 10.5137 8.16601 10.5162 8.19987 10.5187C7.46131 11.7275 6.99234 13.1206 6.78545 14.5112C6.55096 16.0836 6.68387 17.7112 7.203 19.2159C7.52024 20.1362 7.94281 21.024 8.35284 21.9068C8.76288 22.7946 9.19925 23.6673 9.64439 24.5388C10.067 25.3676 10.4833 26.2065 10.7528 27.1018C10.9974 27.9118 11.124 28.7569 11.1416 29.6021C11.1591 30.4485 11.0638 31.2961 10.8594 32.1174L10.8582 32.1187Z" fill="white"/>
<path d="M4.36986 23.9462C4.36986 24.2095 4.35731 24.4729 4.33474 24.7349C4.27456 24.7099 4.21563 24.681 4.1567 24.6534C4.18052 24.3249 4.18804 23.9939 4.18051 23.6641C4.14039 22.0378 3.70529 20.4428 3.02692 18.9719C2.69839 18.2597 2.31343 17.5738 1.89086 16.9117C1.6802 16.582 1.46202 16.2534 1.23632 15.9324C1.16233 15.8284 1.08961 15.7218 1.01562 15.619C1.03067 15.5726 1.04572 15.5262 1.06202 15.4785C1.16359 15.6052 1.2614 15.7331 1.35544 15.8635C1.62503 16.2246 1.87958 16.5958 2.12159 16.9757C2.99056 18.35 3.69525 19.8459 4.07017 21.4334C4.26327 22.2534 4.37362 23.0998 4.37111 23.9437L4.36986 23.9462Z" fill="white"/>
<path d="M37.7958 8.51367C36.7313 8.04972 35.5588 7.86288 34.3952 7.90552C32.7852 7.96571 31.2203 8.47856 29.7783 9.16947C28.2497 9.90301 26.8391 10.846 25.4359 11.7876C24.7124 12.2717 23.9902 12.7569 23.2491 13.2121C22.5457 13.6435 21.8222 14.0873 21.0234 14.3193C20.3087 14.5287 19.5137 14.545 18.8316 14.2177C18.1996 13.913 17.8096 13.33 17.5062 12.7218C17.4798 12.6679 17.4522 12.614 17.4272 12.5601C17.4021 12.5061 17.4723 12.4635 17.5074 12.5137C17.5613 12.5914 17.6153 12.6692 17.6692 12.7482C17.7193 12.8209 17.7707 12.8949 17.8209 12.9676C18.0366 13.271 18.2698 13.577 18.5695 13.804C18.8692 14.0322 19.2278 14.1663 19.6002 14.219C20.3889 14.3319 21.1701 14.0798 21.8673 13.73C22.6234 13.3513 23.3381 12.8823 24.0441 12.4196C24.7676 11.9456 25.4786 11.4579 26.1983 10.9789C27.5902 10.0535 29.0121 9.16571 30.5582 8.52119C32.0027 7.91931 33.5664 7.54564 35.14 7.61586C35.8548 7.64846 36.5707 7.76633 37.2529 7.98452C37.451 8.15003 37.6316 8.32684 37.7958 8.51367Z" fill="white"/>
<path d="M37.9522 19.11C37.9459 19.1225 37.9397 19.1338 37.9334 19.1451C37.9033 19.2003 37.8732 19.2542 37.8431 19.3056C37.4394 19.3307 37.0356 19.2956 36.6406 19.2028C36.1014 19.0761 35.6086 18.8191 35.1284 18.5507C34.1227 17.9877 33.1209 17.4047 32.0525 16.9658C31.0343 16.547 29.961 16.251 28.8563 16.2247C27.8143 16.1996 26.7346 16.3764 25.8143 16.8868C25.7528 16.9206 25.7014 16.8316 25.7604 16.794C25.872 16.7213 25.9848 16.6548 26.0977 16.5884C26.993 16.063 28.1077 15.9062 29.1309 15.9677C30.2469 16.0341 31.3215 16.3564 32.3447 16.7978C33.4017 17.2542 34.3873 17.841 35.3842 18.4128C35.8481 18.6786 36.3296 18.9257 36.8563 19.0373C37.2149 19.1137 37.5861 19.1376 37.9535 19.1112L37.9522 19.11Z" fill="white"/>
<path d="M20.9454 11.1734C21.8156 11.9032 24.0489 10.2355 24.2984 10.0461C25.0031 9.5107 25.8432 8.87371 25.7266 8.11258C25.6112 7.3502 24.5993 6.86243 23.8294 6.79722C22.4476 6.67935 21.5159 7.87434 21.3755 8.06243C20.6407 9.03923 20.3122 10.643 20.9454 11.1734Z" fill="#F2F4F7"/>
<path d="M5.3219 25.7489C5.93632 25.4743 6.94195 26.3696 7.43976 27.142C8.31875 28.5075 8.30246 30.5665 7.60654 30.8762C6.9056 31.1872 5.34571 29.7941 4.93192 28.2016C4.70872 27.3426 4.71375 26.0223 5.3219 25.7489Z" fill="#F2F4F7"/>
<path d="M13.0739 19.5517C13.9253 19.4702 14.3742 20.0583 15.1604 19.7511C15.9065 19.4602 15.8388 18.7994 16.4683 18.3893C17.6971 17.5893 19.9705 18.7969 21.1767 19.7912C21.9554 20.4332 23.44 21.6571 23.435 23.3009C23.4275 25.8941 19.7172 27.5994 17.8288 28.1599C15.5353 28.8408 11.351 29.1881 10.0344 26.9323C9.18926 25.4853 9.89397 23.5994 10.1949 22.7944C10.3328 22.4245 11.3447 19.7185 13.0726 19.5517H13.0739Z" fill="white"/>
<path d="M14.2175 28.4569C13.8576 28.3139 13.4777 28.2249 13.1203 28.0706C12.783 27.9252 12.4557 27.7471 12.156 27.534C11.5905 27.1315 11.1128 26.576 10.8595 25.9239C10.5723 25.1829 10.625 24.3753 10.7705 23.6079C10.9071 22.8895 11.1178 22.1797 11.4225 21.5139C11.5905 21.1478 11.7749 20.7779 11.9993 20.4431C12.2238 20.1083 12.4808 19.7484 12.8244 19.5152C12.8369 19.5064 12.8256 19.4863 12.8118 19.4938C12.4908 19.6606 12.2639 19.9741 12.0545 20.26C11.8338 20.5609 11.6206 20.8744 11.4463 21.2054C11.094 21.8725 10.8369 22.5973 10.6752 23.3333C10.5009 24.1221 10.4043 24.9622 10.64 25.7484C10.8457 26.4368 11.2896 27.0424 11.8451 27.4926C12.1799 27.7634 12.5498 27.9841 12.9447 28.1547C13.3397 28.3252 13.7711 28.4757 14.2049 28.5333C14.2526 28.5396 14.2538 28.4706 14.215 28.4556L14.2175 28.4569Z" fill="black"/>
<path d="M10.9616 26.2415C11.0369 26.4572 11.2024 26.6327 11.3717 26.7819C11.5522 26.9399 11.7541 27.0741 11.9585 27.1995C12.376 27.4553 12.8174 27.6722 13.2738 27.8465C14.1917 28.1976 15.1735 28.3769 16.1566 28.3782C16.4287 28.3782 16.7021 28.3656 16.9729 28.3381C17.1096 28.3243 17.2463 28.3055 17.3829 28.2829C17.5196 28.2603 17.6613 28.239 17.7917 28.1851C17.8306 28.1688 17.8306 28.1048 17.7804 28.1048C17.546 28.1073 17.3102 28.1663 17.077 28.1913C16.8438 28.2164 16.6043 28.234 16.3673 28.2403C15.8858 28.2503 15.403 28.2189 14.9278 28.1425C13.9836 27.9907 13.0632 27.676 12.2306 27.2045C12.0036 27.0754 11.7792 26.9374 11.5685 26.7819C11.3579 26.6265 11.1673 26.4271 10.9767 26.234C10.9704 26.2277 10.9579 26.234 10.9616 26.2428V26.2415Z" fill="black"/>
<path d="M10.0054 25.5096C10.0054 25.5021 10.0091 25.4958 10.0154 25.492C10.0179 25.4908 10.0217 25.4883 10.0242 25.4883H10.0279C10.0254 25.4883 10.033 25.492 10.0305 25.4883L10.0254 25.4695C10.0229 25.4782 10.0204 25.4883 10.0192 25.4958C10.0192 25.5033 10.0167 25.5121 10.0154 25.5196V25.5322C10.0154 25.5322 10.0129 25.5359 10.0129 25.5384C10.0129 25.5409 10.0129 25.5422 10.0129 25.5384C10.0129 25.5447 10.0079 25.551 10.0054 25.556C10.0041 25.5598 10.0029 25.5648 10.0004 25.5685L10.0693 25.551C10.0769 25.5597 10.0743 25.5585 10.0718 25.5547C10.0718 25.5547 10.0718 25.5535 10.0706 25.5522C10.0668 25.546 10.0631 25.5422 10.0581 25.5372C10.0581 25.5372 10.0568 25.5347 10.0555 25.5334C10.0555 25.5334 10.0631 25.5447 10.0593 25.5384C10.0555 25.5322 10.0505 25.5271 10.0468 25.5221L10.0543 25.5322C10.0543 25.5322 10.0455 25.5196 10.043 25.5121L10.048 25.5234C10.0442 25.5146 10.0417 25.5058 10.0405 25.4958V25.5096C10.0405 25.4996 10.0405 25.4908 10.0417 25.4808V25.4946C10.0417 25.4858 10.043 25.477 10.0468 25.4695L10.0417 25.482C10.0443 25.4757 10.048 25.4695 10.0518 25.4644L10.0442 25.4745C10.0442 25.4745 10.053 25.4645 10.0581 25.4607L10.048 25.4682C10.048 25.4682 10.0518 25.4657 10.0543 25.4644L9.99284 25.4569C9.99284 25.4569 10.0029 25.467 10.0079 25.472L10.0004 25.4619C10.0054 25.4682 10.0091 25.4757 10.0129 25.4833L10.0079 25.4707C10.0117 25.4795 10.0142 25.4895 10.0154 25.4996V25.4858C10.0154 25.4958 10.0154 25.5058 10.0129 25.5159V25.5021C10.0129 25.5109 10.0117 25.5184 10.0079 25.5259L10.0129 25.5134C10.0104 25.5209 10.0066 25.5272 10.0016 25.5334L10.0831 25.5234C10.0706 25.5134 10.058 25.5021 10.0468 25.4895L10.0555 25.5008C10.0555 25.5008 10.0468 25.4883 10.0442 25.482L10.0493 25.4946C10.0493 25.4946 10.0455 25.4845 10.0455 25.4795L10.048 25.4933C10.048 25.4933 10.048 25.482 10.048 25.477L10.0455 25.4908C10.0455 25.4908 10.048 25.4808 10.0505 25.4757L10.0455 25.4883C10.0455 25.4883 10.0493 25.482 10.0518 25.4782L10.043 25.4895C10.043 25.4895 10.0468 25.4845 10.0493 25.4833L10.038 25.492C10.038 25.492 10.043 25.4883 10.0455 25.487L10.033 25.492C10.033 25.492 10.038 25.4908 10.0405 25.4895L10.0254 25.492C10.0254 25.492 10.033 25.492 10.0367 25.492L10.0217 25.4895C10.0217 25.4895 10.0267 25.4895 10.0292 25.492L10.0167 25.487C10.0167 25.487 10.0217 25.4895 10.0242 25.4908L10.0129 25.482C10.0129 25.482 10.0204 25.4883 10.0229 25.492L10.0142 25.4808C10.0142 25.4808 10.0217 25.4933 10.0242 25.4996L10.0192 25.487C10.0242 25.4983 10.0267 25.5108 10.0279 25.5234L10.0254 25.5083C10.0254 25.5159 10.0254 25.5234 10.0254 25.5322L10.0279 25.5171C10.0279 25.5234 10.0254 25.5297 10.0229 25.5359L10.0292 25.5221C10.0292 25.5221 10.0242 25.5334 10.0217 25.5397L10.0279 25.5259C10.0279 25.5259 10.0254 25.5309 10.0229 25.5334L10.0317 25.5209C10.0317 25.5209 10.028 25.5246 10.0254 25.5271L10.038 25.5171C10.038 25.5171 10.0342 25.5196 10.033 25.5196L10.048 25.5134C10.048 25.5134 10.0455 25.5134 10.043 25.5134L10.0593 25.5109C10.053 25.5109 10.0455 25.5121 10.0392 25.5134L10.0555 25.5109C10.0555 25.5109 10.0518 25.5109 10.0505 25.5109L10.0668 25.5134C10.0668 25.5134 10.0631 25.5134 10.0605 25.5121L10.0756 25.5184C10.0756 25.5184 10.0718 25.5159 10.0706 25.5146L10.0831 25.5246C10.0831 25.5246 10.0781 25.5196 10.0756 25.5171L10.0856 25.5297C10.0781 25.5184 10.0718 25.5058 10.0656 25.492L10.0718 25.5071C10.0681 25.4983 10.0656 25.4895 10.0643 25.4795L10.0668 25.4958C10.0668 25.4895 10.0668 25.4833 10.0668 25.477L10.0643 25.4933C10.0643 25.4933 10.0656 25.4858 10.0681 25.482L10.0618 25.4971C10.0643 25.4908 10.0681 25.4845 10.0731 25.4795L10.0631 25.492C10.0631 25.492 10.0681 25.487 10.0706 25.4845C10.0831 25.4732 10.0881 25.4569 10.0894 25.4406L10.0869 25.4557C10.0894 25.4469 10.0907 25.4381 10.0881 25.4293C10.0856 25.4168 10.0756 25.4043 10.0656 25.3955C10.0468 25.3804 10.0229 25.3792 10.0016 25.388C9.98155 25.3967 9.96525 25.4093 9.95397 25.4281C9.93516 25.4619 9.93515 25.5021 9.94895 25.5372C9.96148 25.5698 9.9778 25.6049 10.0091 25.6237C10.033 25.6375 10.0643 25.6387 10.0894 25.625C10.1032 25.6174 10.1157 25.6049 10.1232 25.5898C10.132 25.5723 10.1345 25.556 10.137 25.5359C10.137 25.5221 10.1358 25.5071 10.1333 25.4933L10.1358 25.5083C10.132 25.4808 10.127 25.4544 10.1132 25.4306C10.0957 25.4018 10.0681 25.3817 10.0342 25.3792C10.0004 25.3767 9.9665 25.398 9.9502 25.4281C9.93265 25.4607 9.9339 25.4971 9.9502 25.5297C9.96525 25.5597 9.99284 25.5811 10.0192 25.6011C10.0292 25.6087 10.048 25.6099 10.0593 25.6061C10.0731 25.6024 10.0819 25.5936 10.0906 25.5823C10.1333 25.5221 10.1207 25.4268 10.0631 25.3804C10.0543 25.3729 10.0455 25.3679 10.0342 25.3666C10.0229 25.3654 10.0116 25.3666 10.0016 25.3729C9.96024 25.4005 9.93516 25.4507 9.94017 25.5021C9.94268 25.5272 9.94896 25.551 9.96275 25.5723C9.97153 25.5861 9.98156 25.5974 9.99535 25.6061C9.99912 25.6087 10.0029 25.6099 10.0066 25.6124C10.0154 25.6162 10.0229 25.6187 10.033 25.6187C10.0355 25.6187 10.0367 25.6187 10.0392 25.6187C10.0643 25.6199 10.0869 25.5911 10.0794 25.566C10.0781 25.5623 10.0768 25.5585 10.0756 25.5547C10.0756 25.551 10.0743 25.5447 10.0718 25.5422C10.0693 25.5397 10.0718 25.5447 10.0718 25.5422C10.0718 25.5409 10.0718 25.5384 10.0718 25.5359V25.5221C10.0693 25.5134 10.0681 25.5058 10.0681 25.4971C10.0681 25.487 10.0643 25.477 10.0618 25.467C10.0605 25.4607 10.0543 25.4544 10.048 25.4532C10.0167 25.4469 9.97779 25.4695 9.98029 25.5046C9.98155 25.5196 10.0054 25.5209 10.0054 25.5046V25.5096Z" fill="black"/>
<path d="M20.6958 20.4514C20.6281 20.4576 20.5704 20.4927 20.5265 20.5429C20.5002 20.573 20.4801 20.6081 20.4851 20.6495C20.4902 20.6846 20.5127 20.7122 20.5391 20.7335C20.6218 20.8037 20.746 20.8351 20.8513 20.8012C20.8877 20.7899 20.919 20.7699 20.9416 20.7385C20.9478 20.7285 20.9516 20.7159 20.9554 20.7072C20.9604 20.6934 20.9679 20.6833 20.9704 20.6683C20.9729 20.6557 20.9616 20.6432 20.9491 20.647C20.9403 20.6495 20.929 20.6545 20.9215 20.6557C20.9115 20.657 20.9002 20.6545 20.8889 20.6557C20.8764 20.6557 20.8563 20.6583 20.845 20.6633C20.84 20.6633 20.8413 20.6633 20.85 20.6633C20.8425 20.6633 20.835 20.6645 20.8275 20.667C20.8225 20.667 20.8174 20.6695 20.8112 20.6708C20.7986 20.6733 20.7861 20.6758 20.7736 20.6783C20.7911 20.6758 20.7736 20.6783 20.7698 20.6783C20.7635 20.6783 20.7572 20.6783 20.751 20.6783C20.7397 20.6783 20.7272 20.6783 20.7159 20.6771C20.7322 20.6783 20.7134 20.6771 20.7096 20.6758C20.7033 20.6758 20.6971 20.6733 20.6908 20.672C20.6858 20.6708 20.6808 20.6695 20.6757 20.667C20.6732 20.667 20.6519 20.657 20.6657 20.6633C20.6557 20.6583 20.6457 20.6532 20.6369 20.6482C20.6306 20.6445 20.6243 20.6407 20.6193 20.6357C20.6281 20.642 20.6193 20.6344 20.6156 20.6319C20.6131 20.6294 20.6093 20.6256 20.6068 20.6231L20.6093 20.6257C20.6093 20.6257 20.6118 20.6432 20.6093 20.642C20.608 20.642 20.6243 20.6219 20.6281 20.6181C20.6394 20.6068 20.6507 20.5968 20.662 20.5868C20.6858 20.5655 20.7071 20.5479 20.7297 20.5278C20.7573 20.5028 20.7372 20.4476 20.6983 20.4514H20.6958Z" fill="black"/>
<path d="M16.4946 16.0565C18.5273 14.0238 18.5273 10.7282 16.4946 8.69547C14.4619 6.66279 11.1663 6.66279 9.13363 8.69547C7.10094 10.7282 7.10094 14.0238 9.13363 16.0565C11.1663 18.0892 14.4619 18.0892 16.4946 16.0565Z" stroke="black" stroke-width="0.2" stroke-linecap="round" stroke-linejoin="round"/>
<path d="M10.1981 22.889C10.099 23.294 9.88708 24.3861 10.3586 25.6388C10.5115 26.0476 10.914 26.9404 11.8407 27.6538C13.2977 28.7774 14.9567 28.6081 15.3241 28.5617C15.867 28.5027 16.4112 28.4426 16.9542 28.3836C17.2075 28.3084 17.4595 28.2344 17.7128 28.1592C17.6877 28.1629 17.1586 28.2244 16.9918 27.9473C16.825 27.6689 17.1247 27.2162 17.4056 26.9868C17.6539 26.7836 17.8883 26.7548 18.9943 26.667C20.0977 26.5792 20.326 26.5705 20.6896 26.4137C20.9918 26.2833 21.3228 26.1404 21.531 25.7993C21.7956 25.3654 21.5874 25.0607 21.8783 24.8112C22.173 24.5579 22.7059 24.6005 22.8388 24.6106C22.9429 24.6194 23.0294 24.6344 23.0896 24.6482C22.9303 24.9078 22.6821 25.2764 22.3234 25.6701C21.2814 26.8175 20.1253 27.2965 18.9579 27.7642C18.0626 28.1228 16.6783 28.6632 14.8024 28.7347C13.5435 28.7824 12.5805 28.5993 11.768 28.2858C10.9893 27.9849 10.6307 27.6727 10.4087 27.4281C9.90339 26.8689 9.75542 26.2582 9.69899 26.015C9.52595 25.2614 9.66264 24.6495 9.78552 24.1002C9.90213 23.5799 10.0677 23.1661 10.1968 22.8877L10.1981 22.889Z" fill="#F2F4F7"/>
<path d="M16.4946 16.0565C18.5273 14.0238 18.5273 10.7282 16.4946 8.69547C14.4619 6.66279 11.1663 6.66279 9.13363 8.69547C7.10094 10.7282 7.10094 14.0238 9.13363 16.0565C11.1663 18.0892 14.4619 18.0892 16.4946 16.0565Z" stroke="black" stroke-width="0.2" stroke-linecap="round" stroke-linejoin="round"/>
<path d="M13.0739 19.5517C13.9253 19.4702 14.3742 20.0583 15.1604 19.7511C15.9065 19.4602 15.8388 18.7994 16.4683 18.3893C17.6971 17.5893 19.9705 18.7969 21.1767 19.7912C21.9554 20.4332 23.44 21.6571 23.435 23.3009C23.4275 25.8941 19.7172 27.5994 17.8288 28.1599C15.5353 28.8408 11.351 29.1881 10.0344 26.9323C9.18926 25.4853 9.89397 23.5994 10.1949 22.7944C10.3328 22.4245 11.3447 19.7185 13.0726 19.5517H13.0739Z" stroke="black" stroke-width="0.2" stroke-linecap="round" stroke-linejoin="round"/>
<path d="M18.2049 9.25071C18.1246 9.44131 17.8475 9.47767 17.8186 9.48018C17.8926 9.84382 17.9566 10.2413 18.0017 10.6714C18.0306 10.9473 18.0481 11.2131 18.0569 11.4639C18.0669 11.6444 18.0569 12.0081 17.8262 12.3366C17.7045 12.5109 17.5691 12.6049 17.381 12.7316C16.9396 13.0325 16.5271 13.168 16.3327 13.2256C15.7685 13.3899 15.4074 13.4965 14.9923 13.3648C14.5422 13.2244 14.2375 12.8745 14.1096 12.7278C13.529 12.0607 13.4788 11.9905 13.4788 11.9905C13.4462 11.9328 13.3522 11.7849 13.1867 11.7473C13.0951 11.7272 12.9973 11.7623 12.8042 11.835C12.581 11.9191 12.4682 11.9617 12.4042 12.052C12.3165 12.1749 12.3202 12.3253 12.3353 12.4256C12.3353 12.4256 12.3415 12.5134 12.3227 13.3962C12.3177 13.5905 12.3089 14.0545 12.0531 14.4507C11.8174 14.8169 11.4726 14.9673 10.9334 15.2031C10.7478 15.2833 10.344 15.4438 9.81237 15.4965C9.58667 15.5191 9.4224 15.5341 9.21676 15.4789C8.8293 15.3761 8.58855 15.1015 8.48071 14.9573C8.32648 14.7579 8.171 14.5435 8.01551 14.314C7.77351 13.9567 7.56912 13.6093 7.39232 13.2821C7.36849 13.2971 7.1315 13.4476 6.94843 13.3535C6.73777 13.2444 6.74655 12.8921 6.82303 12.6777C6.93589 12.3642 7.23934 12.2438 7.29451 12.2238C7.95783 11.9078 8.68259 11.5968 9.46503 11.3071C9.85626 11.1629 10.24 11.0325 10.6124 10.9134C10.8606 10.8595 11.0487 10.8846 11.1829 10.9259C11.4249 10.9987 11.4487 11.1002 11.6719 11.1404C11.8337 11.168 11.9729 11.1341 12.25 11.0664C12.3528 11.03 12.4945 10.9761 12.66 10.8959C12.9208 10.7692 13.05 10.7065 13.1591 10.5799C13.3058 10.4068 13.2581 10.3128 13.3973 10.1021C13.4738 9.98551 13.603 9.84633 13.8287 9.72846C14.1898 9.58049 14.5685 9.43504 14.961 9.29585C15.7472 9.01623 16.5033 8.79053 17.2155 8.60745C17.2707 8.58865 17.5804 8.48457 17.8675 8.65385C18.0644 8.76921 18.2976 9.03504 18.2049 9.25322V9.25071Z" fill="#FFEECD"/>
<path d="M8.16884 12.8461C8.03467 13.2624 8.40958 13.7426 8.65159 14.0498C8.84846 14.3019 9.01648 14.5163 9.3262 14.6429C9.7914 14.8348 10.234 14.6893 10.4836 14.6078C10.7506 14.5201 11.2246 14.3646 11.4892 13.9132C11.7249 13.5119 11.6698 13.0868 11.6021 12.5502C11.5557 12.184 11.5318 11.9997 11.4303 11.8881C10.9764 11.3878 9.70739 11.9382 8.98514 12.2517C8.33435 12.5339 8.21649 12.7019 8.17009 12.8461H8.16884Z" fill="#C9C8C8"/>
<path d="M17.0713 9.67083C17.4362 9.91158 17.445 10.5197 17.45 10.911C17.4538 11.2307 17.4575 11.5028 17.2958 11.7962C17.0538 12.2363 16.6174 12.4006 16.3716 12.4934C16.1083 12.5925 15.6418 12.768 15.1528 12.5824C14.7177 12.4169 14.4932 12.052 14.2111 11.5906C14.018 11.2758 13.9215 11.1179 13.9302 10.9661C13.9704 10.2915 15.3045 9.92537 16.0632 9.71722C16.7465 9.52913 16.9434 9.58682 17.0713 9.66958V9.67083Z" fill="#C9C8C8"/>
<path opacity="0.54" d="M9.08943 12.2133C9.25871 12.1406 9.42925 12.0678 9.59853 11.9951C9.46185 12.8478 9.32642 13.7017 9.18975 14.5544L8.77344 14.207C8.87877 13.5425 8.9841 12.8779 9.08817 12.2133H9.08943Z" fill="white"/>
<path opacity="0.54" d="M9.79669 11.8857C9.89575 11.8656 9.99481 11.8443 10.0939 11.8242C9.91205 12.7659 9.72898 13.7063 9.54717 14.648C9.48196 14.6242 9.41677 14.6016 9.35156 14.5778C9.49952 13.6813 9.64873 12.7835 9.79669 11.8869V11.8857Z" fill="white"/>
<path opacity="0.54" d="M14.7133 10.2129C14.6656 10.8361 14.618 11.4581 14.5703 12.0813C14.6468 12.1791 14.7233 12.2769 14.801 12.3747C14.8738 11.5985 14.9452 10.8211 15.018 10.0449C14.9164 10.1013 14.8148 10.1565 14.7133 10.2129Z" fill="white"/>
<path opacity="0.54" d="M15.221 9.97036C15.1495 10.8168 15.0793 11.6619 15.0078 12.5083C15.1558 12.5572 15.3025 12.6061 15.4504 12.655C15.537 11.7095 15.6235 10.7628 15.71 9.81738C15.547 9.86879 15.384 9.9202 15.221 9.97161V9.97036Z" fill="white"/>
<path d="M18.2049 9.25071C18.1246 9.44131 17.8475 9.47767 17.8186 9.48018C17.8926 9.84382 17.9566 10.2413 18.0017 10.6714C18.0306 10.9473 18.0481 11.2131 18.0569 11.4639C18.0669 11.6444 18.0569 12.0081 17.8262 12.3366C17.7045 12.5109 17.5691 12.6049 17.381 12.7316C16.9396 13.0325 16.5271 13.168 16.3327 13.2256C15.7685 13.3899 15.4074 13.4965 14.9923 13.3648C14.5422 13.2244 14.2375 12.8745 14.1096 12.7278C13.529 12.0607 13.4788 11.9905 13.4788 11.9905C13.4462 11.9328 13.3522 11.7849 13.1867 11.7473C13.0951 11.7272 12.9973 11.7623 12.8042 11.835C12.581 11.9191 12.4682 11.9617 12.4042 12.052C12.3165 12.1749 12.3202 12.3253 12.3353 12.4256C12.3353 12.4256 12.3415 12.5134 12.3227 13.3962C12.3177 13.5905 12.3089 14.0545 12.0531 14.4507C11.8174 14.8169 11.4726 14.9673 10.9334 15.2031C10.7478 15.2833 10.344 15.4438 9.81237 15.4965C9.58667 15.5191 9.4224 15.5341 9.21676 15.4789C8.8293 15.3761 8.58855 15.1015 8.48071 14.9573C8.32648 14.7579 8.171 14.5435 8.01551 14.314C7.77351 13.9567 7.56912 13.6093 7.39232 13.2821C7.36849 13.2971 7.1315 13.4476 6.94843 13.3535C6.73777 13.2444 6.74655 12.8921 6.82303 12.6777C6.93589 12.3642 7.23934 12.2438 7.29451 12.2238C7.95783 11.9078 8.68259 11.5968 9.46503 11.3071C9.85626 11.1629 10.24 11.0325 10.6124 10.9134C10.8606 10.8595 11.0487 10.8846 11.1829 10.9259C11.4249 10.9987 11.4487 11.1002 11.6719 11.1404C11.8337 11.168 11.9729 11.1341 12.25 11.0664C12.3528 11.03 12.4945 10.9761 12.66 10.8959C12.9208 10.7692 13.05 10.7065 13.1591 10.5799C13.3058 10.4068 13.2581 10.3128 13.3973 10.1021C13.4738 9.98551 13.603 9.84633 13.8287 9.72846C14.1898 9.5805 14.5685 9.43504 14.961 9.29585C15.7472 9.01623 16.5033 8.79053 17.2155 8.60745C17.2707 8.58865 17.5804 8.48457 17.8675 8.65385C18.0644 8.76921 18.2976 9.03504 18.2049 9.25322V9.25071Z" stroke="black" stroke-width="0.2" stroke-linecap="round" stroke-linejoin="round"/>
<path d="M8.16884 12.8461C8.03467 13.2624 8.40958 13.7426 8.65159 14.0498C8.84846 14.3019 9.01648 14.5163 9.3262 14.6429C9.7914 14.8348 10.234 14.6893 10.4836 14.6078C10.7506 14.5201 11.2246 14.3646 11.4892 13.9132C11.7249 13.5119 11.6698 13.0868 11.6021 12.5502C11.5557 12.184 11.5318 11.9997 11.4303 11.8881C10.9764 11.3878 9.70739 11.9382 8.98514 12.2517C8.33435 12.5339 8.21649 12.7019 8.17009 12.8461H8.16884Z" stroke="black" stroke-width="0.2" stroke-linecap="round" stroke-linejoin="round"/>
<path d="M17.0713 9.67083C17.4362 9.91158 17.445 10.5197 17.45 10.911C17.4538 11.2307 17.4575 11.5028 17.2958 11.7962C17.0538 12.2363 16.6174 12.4006 16.3716 12.4934C16.1083 12.5925 15.6418 12.768 15.1528 12.5824C14.7177 12.4169 14.4932 12.052 14.2111 11.5906C14.018 11.2758 13.9215 11.1179 13.9302 10.9661C13.9704 10.2915 15.3045 9.92537 16.0632 9.71722C16.7465 9.52913 16.9434 9.58682 17.0713 9.66958V9.67083Z" stroke="black" stroke-width="0.2" stroke-linecap="round" stroke-linejoin="round"/>
<path d="M7.136 12.9346C7.12095 12.9158 7.16108 12.8469 7.2175 12.8105C7.29023 12.7641 7.38928 12.7767 7.39555 12.8017C7.40684 12.8444 7.16484 12.9698 7.136 12.9346Z" stroke="black" stroke-width="0.2" stroke-linecap="round" stroke-linejoin="round"/>
<path d="M17.494 9.16044C17.4815 9.13913 17.5342 9.07768 17.5956 9.05261C17.6759 9.02 17.7699 9.04884 17.7724 9.07517C17.7762 9.11906 17.5166 9.19932 17.494 9.16044Z" stroke="black" stroke-width="0.2" stroke-linecap="round" stroke-linejoin="round"/>
<path d="M32.726 9.39463L32.561 10.6098C32.4712 11.2713 32.9347 11.8804 33.5962 11.9702L34.8114 12.1352C35.4729 12.2249 36.082 11.7615 36.1718 11.0999L36.3367 9.88475C36.4265 9.22323 35.9631 8.61418 35.3015 8.52438L34.0864 8.35944C33.4248 8.26964 32.8158 8.73311 32.726 9.39463Z" fill="white"/>
<path d="M35.3223 10.0878C35.3824 10.0979 35.4125 10.1041 35.4363 10.1142C35.5229 10.1493 35.5818 10.2333 35.5856 10.3273C35.5856 10.3537 35.5818 10.3838 35.5705 10.444C35.5605 10.5041 35.5542 10.5342 35.5442 10.5581C35.5091 10.6446 35.4251 10.7035 35.331 10.7073C35.3047 10.7073 35.2746 10.7035 35.2144 10.6922L35.1041 10.6722C34.9411 10.6433 34.8583 10.6283 34.7931 10.6571C34.763 10.6697 34.7354 10.6897 34.7129 10.7135C34.6639 10.7662 34.6489 10.8477 34.6201 11.0107L34.6 11.1211C34.59 11.1813 34.5837 11.2114 34.5737 11.2352C34.5386 11.3217 34.4545 11.3806 34.3605 11.3844C34.3342 11.3844 34.3053 11.3806 34.2451 11.3693C34.1849 11.3593 34.1549 11.353 34.131 11.343C34.0445 11.3079 33.9856 11.2239 33.9818 11.1298C33.9818 11.1035 33.9856 11.0747 33.9969 11.0145L34.0169 10.9041C34.0458 10.7411 34.0608 10.6584 34.032 10.5932C34.0194 10.5631 33.9994 10.5355 33.9755 10.5129C33.9229 10.464 33.8414 10.449 33.6784 10.4201L33.568 10.4001C33.5078 10.39 33.4777 10.3838 33.4539 10.3737C33.3674 10.3386 33.3084 10.2546 33.3047 10.1606C33.3047 10.1342 33.3085 10.1041 33.3197 10.044C33.3298 9.98377 33.336 9.95367 33.3461 9.92985C33.3812 9.84333 33.4652 9.78439 33.5592 9.78063C33.5856 9.78063 33.6157 9.7844 33.6759 9.79568L33.7862 9.81574C33.9492 9.84458 34.0307 9.85963 34.0972 9.83079C34.1273 9.81825 34.1549 9.79819 34.1774 9.77436C34.2263 9.7217 34.2414 9.64019 34.2702 9.47718L34.2903 9.36684C34.3003 9.30665 34.3066 9.27656 34.3166 9.25273C34.3517 9.16621 34.4357 9.10728 34.5298 9.10352C34.5561 9.10352 34.5849 9.10728 34.6451 9.11856C34.7053 9.12859 34.7354 9.13487 34.7592 9.1449C34.8458 9.18001 34.9047 9.26402 34.9085 9.35806C34.9085 9.38439 34.9047 9.41324 34.8934 9.47342L34.8733 9.58377C34.8445 9.74678 34.8295 9.82828 34.8583 9.89474C34.8708 9.92483 34.8909 9.95242 34.9147 9.97499C34.9674 10.0239 35.0489 10.0389 35.2119 10.0678L35.3223 10.0878Z" fill="#C9C8C8"/>
<path d="M33.4834 10.4148C33.4759 10.4135 33.4683 10.411 33.4621 10.4085C33.3743 10.3759 33.3129 10.2944 33.3053 10.2016C33.3028 10.1753 33.3079 10.1452 33.3166 10.085C33.3254 10.0248 33.3292 9.99472 33.3379 9.96964C33.3705 9.88187 33.452 9.82043 33.5448 9.8129C33.5712 9.8104 33.6013 9.81541 33.6615 9.82419L33.7718 9.83923C33.9361 9.8618 34.0188 9.87434 34.0828 9.843C34.1129 9.8292 34.1392 9.80914 34.1618 9.78406C34.2094 9.73014 34.2207 9.64864 34.2433 9.48438L34.2583 9.37403C34.2671 9.31384 34.2709 9.28375 34.2796 9.25992C34.3122 9.17215 34.3937 9.11071 34.4865 9.10318C34.5129 9.10068 34.543 9.10569 34.6031 9.11447C34.6633 9.12325 34.6934 9.12701 34.7172 9.13579C34.805 9.16839 34.8665 9.24989 34.874 9.34268C34.8765 9.36902 34.8715 9.39911 34.8627 9.4593V9.46808" stroke="black" stroke-width="0.2" stroke-linecap="round" stroke-linejoin="round"/>
<path d="M34.8321 9.7168C34.8246 9.78952 34.8271 9.83843 34.8472 9.88106C34.861 9.91115 34.881 9.93749 34.9061 9.96006C34.96 10.0077 35.0415 10.019 35.2058 10.0416L35.3161 10.0566C35.3763 10.0654 35.4064 10.0691 35.4315 10.0779C35.5193 10.1105 35.5807 10.192 35.5882 10.2848C35.5908 10.3112 35.5857 10.3412 35.577 10.4014C35.5682 10.4616 35.5644 10.4917 35.5556 10.5168C35.523 10.6046 35.4415 10.666 35.3487 10.6735C35.3224 10.676 35.2923 10.671 35.2321 10.6622L35.1218 10.6472C34.9575 10.6246 34.8748 10.6121 34.8096 10.6434C34.7795 10.6572 34.7531 10.6773 34.7318 10.7024C34.6842 10.7563 34.6729 10.8391 34.6503 11.0033L34.6353 11.1137C34.6265 11.1738 34.6227 11.2039 34.614 11.2278C34.5813 11.3155 34.4998 11.377 34.4071 11.3845C34.3807 11.387 34.3506 11.382 34.2904 11.3732C34.2303 11.3644 34.2002 11.3607 34.1763 11.3519C34.0886 11.3193 34.0271 11.2378 34.0196 11.145C34.0171 11.1187 34.0221 11.0886 34.0309 11.0284L34.0459 10.918C34.0685 10.7538 34.081 10.671 34.0497 10.6058C34.0359 10.5757 34.0158 10.5494 33.9908 10.5281C33.9444 10.4867 33.8754 10.4729 33.75 10.4541" stroke="black" stroke-width="0.2" stroke-linecap="round" stroke-linejoin="round"/>
<path d="M32.6937 9.4557L32.5726 10.676C32.5066 11.3404 32.9917 11.9324 33.656 11.9983L34.8763 12.1195C35.5406 12.1854 36.1327 11.7004 36.1986 11.0361L36.3198 9.81572C36.3857 9.15139 35.9007 8.5594 35.2363 8.49344L34.016 8.37228C33.3517 8.30632 32.7597 8.79138 32.6937 9.4557Z" stroke="black" stroke-width="0.2" stroke-linecap="round" stroke-linejoin="round"/>
<path d="M29.0671 15.2101L23.1466 16.2434C21.905 16.4601 21.0741 17.6423 21.2908 18.8839L22.3241 24.8044C22.5408 26.0461 23.723 26.8769 24.9646 26.6602L30.8852 25.6269C32.1268 25.4102 32.9576 24.228 32.7409 22.9864L31.7076 17.0659C31.491 15.8242 30.3087 14.9934 29.0671 15.2101Z" fill="#C9C8C8"/>
<path d="M28.3307 17.0297L24.3545 17.7236C23.5201 17.8693 22.9618 18.6637 23.1074 19.498L23.8014 23.4743C23.947 24.3086 24.7414 24.8669 25.5758 24.7213L29.552 24.0273C30.3864 23.8817 30.9447 23.0873 30.7991 22.253L30.1051 18.2767C29.9595 17.4424 29.1651 16.8841 28.3307 17.0297Z" fill="white"/>
<path d="M23.3516 18.3736C23.4331 18.3171 23.5597 18.2381 23.729 18.1792C24.1227 18.0413 24.3058 18.1616 24.6895 18.0714C25.1321 17.9673 25.102 17.7566 25.4067 17.7441C25.8569 17.7253 26.0237 18.1817 26.3773 18.1629C26.5817 18.1516 26.8538 17.9811 27.1547 17.2852C25.7252 17.5598 24.8901 17.6877 24.4638 17.714C24.3936 17.7178 24.2042 17.7278 23.9835 17.8243C23.6688 17.9623 23.4694 18.2005 23.3528 18.3736H23.3516Z" fill="#F2F4F7"/>
<path d="M28.7004 20.0154C29.0089 19.9539 29.1631 19.9238 29.281 19.9928C29.2935 20.0003 29.3048 20.0078 29.3161 20.0154C29.4252 20.0981 29.4565 20.2524 29.518 20.5608C29.5794 20.8693 29.6095 21.0235 29.5406 21.1414C29.533 21.1539 29.5255 21.1652 29.518 21.1765C29.4352 21.2856 29.281 21.3169 28.9725 21.3784L28.5011 21.4724C28.1675 21.5389 28.0007 21.5715 27.918 21.6956C27.8352 21.8198 27.8678 21.9865 27.9343 22.3201L28.0283 22.7915C28.0898 23.0987 28.1199 23.253 28.0509 23.3708C28.0434 23.3834 28.0359 23.3947 28.0271 23.406C27.9443 23.515 27.7901 23.5451 27.4829 23.6066C27.1757 23.668 27.0214 23.6981 26.9036 23.6292C26.891 23.6216 26.8797 23.6141 26.8685 23.6053C26.7594 23.5226 26.7293 23.3683 26.6678 23.0611L26.5738 22.5897C26.5073 22.2561 26.4747 22.0893 26.3506 22.0066C26.2265 21.9238 26.0597 21.9564 25.7261 22.0229L25.2547 22.1169C24.9462 22.1784 24.792 22.2085 24.6741 22.1395C24.6616 22.132 24.6503 22.1245 24.639 22.1169C24.5299 22.0342 24.4986 21.8799 24.4371 21.5715C24.3757 21.263 24.3456 21.1088 24.4145 20.9909C24.4221 20.9784 24.4296 20.9671 24.4371 20.9558C24.5199 20.8467 24.6741 20.8154 24.9826 20.7539L25.4541 20.6599C25.7876 20.5934 25.9544 20.5608 26.0371 20.4367C26.1199 20.3125 26.0873 20.1458 26.0208 19.8122L25.9268 19.342C25.8653 19.0348 25.8352 18.8806 25.9042 18.7627C25.9117 18.7502 25.9192 18.7389 25.928 18.7276C26.0108 18.6185 26.165 18.5884 26.4722 18.527C26.7794 18.4655 26.9337 18.4354 27.0515 18.5044C27.0641 18.5119 27.0754 18.5194 27.0866 18.5282C27.1957 18.611 27.2258 18.7652 27.2873 19.0724L27.3813 19.5426C27.4478 19.8762 27.4804 20.0429 27.6045 20.1257C27.7286 20.2085 27.8954 20.1759 28.229 20.1094L28.7004 20.0154Z" fill="#EEA563"/>
<path d="M27.3828 19.7207C27.3828 19.7558 27.3991 20.2586 27.6838 20.3752C27.7703 20.4104 27.8643 20.4041 27.9772 20.3953C28.1176 20.3853 28.1791 20.3564 28.411 20.2887C28.7471 20.1909 28.885 20.1734 28.9314 20.1684C29.196 20.1383 29.2787 20.1821 29.3113 20.2022C29.4267 20.2724 29.4731 20.3928 29.4919 20.4555C29.4994 20.4304 29.5559 20.2235 29.4317 20.0818C29.3665 20.0066 29.2812 19.984 29.2286 19.9715C29.0769 19.9339 28.964 19.9715 28.7772 20.0216C28.5816 20.0731 28.3809 20.1044 28.1828 20.1483C27.853 20.2223 27.7728 20.2398 27.6888 20.1884C27.6198 20.1458 27.5772 20.0768 27.4957 19.9414C27.4417 19.8536 27.4054 19.7759 27.3828 19.7207Z" fill="black"/>
<path d="M28.3942 17.0312C28.9547 17.4701 29.5164 17.9077 30.0769 18.3466C30.1208 18.5259 30.1635 18.7052 30.2073 18.8833C30.0356 18.6927 29.781 18.4306 29.445 18.151C28.9923 17.7736 28.6901 17.5228 28.2525 17.3773C28.013 17.2971 27.4851 17.1679 26.7578 17.3686C27.3033 17.257 27.8487 17.1441 28.3942 17.0325V17.0312Z" fill="black"/>
<path d="M23.1586 19.823C23.1411 19.7365 23.126 19.7039 23.136 19.6976C23.1724 19.6725 23.3693 20.0474 23.6777 20.2368C24.0865 20.4876 24.5943 20.3521 24.8251 20.2907C25.447 20.1239 25.8157 19.7013 25.9573 19.5195C26.0238 19.6412 26.163 19.9383 26.0802 20.2644C26.0627 20.3346 26.0376 20.4299 25.9573 20.5114C25.8633 20.6092 25.7517 20.6255 25.4483 20.6606C24.9605 20.7183 24.7686 20.7321 24.5592 20.86C24.4514 20.9264 24.4188 20.9741 24.4088 20.9904C24.3461 21.0894 24.3774 21.1659 24.4376 21.6035C24.4589 21.759 24.4677 21.843 24.5229 21.9534C24.5542 22.0161 24.5918 22.0901 24.6671 22.139C24.7661 22.2029 24.8765 22.1866 25.0508 22.154C25.452 22.08 25.5686 22.0374 25.763 22.0136C25.8621 22.001 26.0163 21.991 26.2119 22.0098C26.2533 22.0098 26.3398 22.0173 26.4138 22.0763C26.5693 22.1979 26.5743 22.4612 26.5053 22.4963C26.4426 22.5289 26.3624 22.3509 26.158 22.2832C25.9636 22.218 25.7768 22.2907 25.6038 22.3634C24.7624 22.717 24.6157 22.9264 24.3222 22.9101C24.153 22.9014 23.9022 22.8161 23.6075 22.4173C23.6301 22.4662 23.6376 22.47 23.6414 22.47C23.7003 22.4524 23.2 20.3697 23.1812 20.0675C23.1787 20.0286 23.1799 19.9446 23.1548 19.823H23.1586Z" fill="#F2F4F7"/>
<path d="M29.0671 15.2101L23.1466 16.2434C21.905 16.4601 21.0741 17.6423 21.2908 18.8839L22.3241 24.8044C22.5408 26.0461 23.723 26.8769 24.9646 26.6602L30.8852 25.6269C32.1268 25.4102 32.9576 24.228 32.7409 22.9864L31.7076 17.0659C31.491 15.8242 30.3087 14.9934 29.0671 15.2101Z" stroke="black" stroke-width="0.2" stroke-linecap="round" stroke-linejoin="round"/>
<path d="M23.618 22.4544C23.5089 21.8299 23.371 21.0399 23.2656 20.4355" stroke="black" stroke-width="0.2" stroke-linecap="round" stroke-linejoin="round"/>
<path d="M23.2184 20.1421L23.1406 19.6982" stroke="black" stroke-width="0.2" stroke-linecap="round" stroke-linejoin="round"/>
<path d="M23.0896 19.3494C23.0357 18.5745 23.5749 17.8697 24.3561 17.7331L28.3335 17.0397C29.1674 16.8942 29.9624 17.4522 30.1078 18.2861C30.1078 18.2861 30.4552 20.2735 30.6583 21.4384" stroke="black" stroke-width="0.2" stroke-linecap="round" stroke-linejoin="round"/>
<path d="M30.7587 22.0605L30.7939 22.2649C30.9393 23.0988 30.3813 23.8938 29.5475 24.0392C29.5475 24.0392 28.6221 24.201 27.6641 24.3678" stroke="black" stroke-width="0.2" stroke-linecap="round" stroke-linejoin="round"/>
<path d="M27.2685 24.4355C26.3795 24.591 25.5707 24.7314 25.5707 24.7314C24.7368 24.8769 23.9418 24.3189 23.7964 23.485L23.75 23.2217" stroke="black" stroke-width="0.2" stroke-linecap="round" stroke-linejoin="round"/>
<path d="M27.3594 19.4512L27.3769 19.5427C27.3782 19.5502 27.3794 19.5578 27.3807 19.564" stroke="black" stroke-width="0.2" stroke-linecap="round" stroke-linejoin="round"/>
<path d="M27.4277 19.7696C27.4704 19.9564 27.5117 20.0643 27.6045 20.1257C27.7286 20.2085 27.8954 20.1759 28.229 20.1094L28.7004 20.0154C29.0089 19.9539 29.1631 19.9238 29.281 19.9928C29.2935 20.0003 29.3048 20.0078 29.3161 20.0154C29.4252 20.0981 29.4565 20.2524 29.518 20.5608C29.5794 20.8693 29.6095 21.0235 29.5406 21.1414C29.533 21.1539 29.5255 21.1652 29.518 21.1765C29.4352 21.2856 29.281 21.3169 28.9725 21.3784L28.5011 21.4724C28.1675 21.5389 28.0007 21.5715 27.918 21.6956C27.8352 21.8198 27.8678 21.9865 27.9343 22.3201L28.0283 22.7915C28.0898 23.0987 28.1199 23.253 28.0509 23.3708C28.0434 23.3834 28.0359 23.3947 28.0271 23.406C27.9443 23.515 27.7901 23.5451 27.4829 23.6066C27.1757 23.668 27.0214 23.6981 26.9036 23.6292C26.891 23.6216 26.8797 23.6141 26.8685 23.6053C26.7594 23.5226 26.7293 23.3683 26.6678 23.0611L26.5738 22.5897C26.5073 22.2561 26.4747 22.0893 26.3506 22.0066C26.2265 21.9238 26.0597 21.9564 25.7261 22.0229L25.2547 22.1169C24.9462 22.1784 24.792 22.2085 24.6741 22.1395C24.6616 22.132 24.6503 22.1245 24.639 22.1169C24.5299 22.0342 24.4986 21.8799 24.4371 21.5715C24.3757 21.263 24.3456 21.1088 24.4145 20.9909C24.4221 20.9784 24.4296 20.9671 24.4371 20.9558C24.5199 20.8467 24.6741 20.8154 24.9826 20.7539L25.4541 20.6599C25.7876 20.5934 25.9544 20.5608 26.0371 20.4367C26.1199 20.3125 26.0873 20.1458 26.0208 19.8122L25.9268 19.342C25.8653 19.0348 25.8352 18.8806 25.9042 18.7627C25.9117 18.7502 25.9192 18.7389 25.928 18.7276C26.0108 18.6185 26.165 18.5884 26.4722 18.527C26.7794 18.4655 26.9337 18.4354 27.0515 18.5044C27.0641 18.5119 27.0754 18.5194 27.0866 18.5282C27.1957 18.611 27.2258 18.7652 27.2873 19.0724L27.2998 19.1389" stroke="black" stroke-width="0.2" stroke-linecap="round" stroke-linejoin="round"/>
<path d="M37.5888 33.0498C37.5776 33.2065 37.4923 33.3219 37.4459 33.3783C36.9155 34.0429 35.649 34.8103 35.649 34.8103C35.649 34.8103 34.4265 35.5526 33.7117 35.6555C33.5726 35.6755 33.4233 35.673 33.2841 35.5953C33.1174 35.5012 33.0396 35.3395 33.007 35.2555C32.9343 35.0724 32.8541 34.8856 32.7663 34.695C32.5381 34.1997 32.2923 33.7583 32.0453 33.3683C31.8446 33.263 31.5613 33.1087 31.2265 32.9156C30.4152 32.4442 29.9688 32.1859 29.4823 31.7859C28.8616 31.273 28.3888 30.8818 28.1832 30.1934C28.123 29.994 27.9851 29.505 28.1744 28.9746C28.2898 28.6498 28.4854 28.4241 28.6271 28.2623C28.8754 27.979 29.1324 27.7946 29.313 27.6843L29.3268 27.6793C29.145 27.3094 28.9857 27.0498 28.7788 26.4881C28.5644 25.905 28.4014 25.4498 28.3926 24.8191C28.3863 24.4203 28.3838 23.7031 28.8603 23.1902C28.9619 23.0799 29.1989 22.8254 29.555 22.804C29.8371 22.7877 30.0553 22.9282 30.128 22.9771C30.5218 23.2417 30.5192 23.6066 30.8766 24.6323C31.0572 25.1514 31.2164 25.5163 31.3493 25.7771C31.4384 25.6855 31.7732 25.3683 32.286 25.3445C32.6785 25.3257 32.9669 25.4887 33.086 25.5589C33.3142 25.6906 33.4672 25.8573 33.5863 26.0166C33.7368 25.925 34.0114 25.7896 34.36 25.7997C34.8603 25.8122 35.2026 26.1131 35.4622 26.3514C36.0791 26.9119 36.3011 27.579 36.4779 28.1131C36.6208 28.5457 36.7914 29.0799 36.7261 29.7859C36.6898 30.1859 36.5895 30.5106 36.5029 30.7326C36.4653 30.7865 36.4139 30.878 36.4052 30.9971C36.3976 31.1125 36.4352 31.204 36.4591 31.2542C36.6208 31.6053 37.1562 32.2749 37.3393 32.5094C37.4935 32.7062 37.6026 32.8567 37.5888 33.0523V33.0498Z" fill="white"/>
<path d="M28.7331 23.4302C28.8233 23.444 28.6365 24.0948 28.8045 24.97C28.8936 25.4339 28.9776 25.4176 29.7036 27.0791C29.7036 27.0791 29.8265 27.3612 30.2014 28.6277C30.234 28.7368 30.3469 29.1355 30.2102 29.5443C30.2001 29.5744 30.0998 29.8653 29.9694 29.864C29.8879 29.864 29.849 29.7512 29.7475 29.7575C29.6635 29.7625 29.6384 29.8427 29.5782 29.8377C29.4917 29.8302 29.4415 29.6571 29.4177 29.5794C29.2647 29.0716 29.207 29.143 29.1594 28.8759C29.0679 28.3593 29.2534 27.8991 29.3412 27.7123C29.0139 27.1343 28.8121 26.6189 28.6879 26.239C28.4998 25.6672 28.3456 25.1832 28.3907 24.56C28.4346 23.9581 28.6503 23.4164 28.7331 23.4289V23.4302Z" fill="#F2F4F7"/>
<path d="M31.3438 25.8604C31.3475 26.3018 31.4666 26.6128 31.5569 26.7946C31.6209 26.9238 31.7952 27.2736 31.9657 27.2485C32.0836 27.231 32.1463 27.0441 32.1525 27.0266C32.2102 26.8473 32.1162 26.7394 32.1086 26.5463C32.0986 26.288 32.2503 26.0749 32.3218 25.9946C32.5488 25.7401 32.9826 25.6774 33.4077 25.8253C33.3513 25.7388 33.1381 25.4341 32.7318 25.3275C32.3594 25.2297 32.056 25.3589 31.9218 25.4153C31.6146 25.5457 31.429 25.7513 31.3438 25.8617V25.8604Z" fill="#F2F4F7"/>
<path d="M33.625 25.9499C33.7328 25.9035 33.8607 25.8621 34.0062 25.8395C34.6194 25.748 35.1134 26.0665 35.2789 26.1856C35.0959 26.0389 34.8589 25.995 34.6745 26.0828C34.4375 26.1969 34.346 26.5004 34.3811 26.706C34.4037 26.8389 34.4739 26.9141 34.435 26.9643C34.3861 27.0245 34.2131 26.9982 34.0965 26.9104C33.9686 26.8151 33.9598 26.6822 33.8833 26.4652C33.8382 26.3373 33.7617 26.1555 33.625 25.9486V25.9499Z" fill="#F2F4F7"/>
<path d="M32.9585 33.7213C33.0575 33.5746 33.2657 33.6097 34.0532 33.6411C35.4676 33.6975 35.7635 33.6222 35.8287 33.7878C35.9315 34.0498 35.3146 34.5777 34.7478 34.816C34.467 34.9338 34.0657 35.1019 33.6531 34.9364C33.1052 34.7157 32.7717 33.9984 32.9585 33.7213Z" fill="#F2F4F7"/>
<path d="M36.0237 33.4954C36.03 33.3612 36.1416 33.2647 36.2507 33.2421C36.4212 33.2057 36.6068 33.3474 36.6106 33.4954C36.6156 33.6634 36.3874 33.8214 36.2106 33.7625C36.1103 33.7286 36.0175 33.6233 36.0237 33.4954Z" fill="#F2F4F7"/>
<path d="M29.9944 29.6247C29.9267 29.3212 29.8101 28.8648 29.6069 28.3294C29.2872 27.4867 29.084 27.3175 28.7793 26.4874C28.5649 25.9043 28.4019 25.4491 28.3919 24.8184C28.3856 24.4196 28.3844 23.7037 28.8596 23.1896C28.9612 23.0792 29.1982 22.8234 29.5543 22.8021C29.8377 22.7858 30.0546 22.9262 30.1286 22.9751C30.5223 23.2385 30.5198 23.6046 30.8759 24.6303C31.2095 25.5896 31.4715 26.0196 31.6232 26.2454C31.7712 26.4673 31.9116 26.6378 32.0107 26.7532" stroke="black" stroke-width="0.2" stroke-linecap="round" stroke-linejoin="round"/>
<path d="M29.8513 29.0508C29.8312 29.1423 29.7898 29.279 29.6908 29.4194C29.6406 29.4909 29.5867 29.5461 29.5391 29.5887" stroke="black" stroke-width="0.2" stroke-linecap="round" stroke-linejoin="round"/>
<path d="M31.3516 25.7778C31.4418 25.6863 31.7754 25.3691 32.2883 25.3452C32.6807 25.3264 32.9704 25.4894 33.0895 25.5584C33.4168 25.749 33.5886 26.0048 33.7303 26.2167C33.887 26.4525 33.9785 26.6694 34.0324 26.8224" stroke="black" stroke-width="0.2" stroke-linecap="round" stroke-linejoin="round"/>
<path d="M33.5822 26.018C33.7327 25.9252 34.0098 25.7885 34.3597 25.7973C34.86 25.8098 35.2011 26.112 35.4631 26.349C36.0801 26.9095 36.3007 27.5766 36.4775 28.1108C36.6205 28.5434 36.791 29.0775 36.7271 29.7835C36.6907 30.1835 36.5904 30.507 36.5039 30.7302C36.4663 30.7841 36.4149 30.8756 36.4061 30.9935C36.3986 31.1089 36.4362 31.2004 36.46 31.2518C36.623 31.6029 37.1572 32.2725 37.3402 32.507C37.4932 32.7026 37.6036 32.8543 37.5898 33.0487C37.5785 33.2054 37.4932 33.3195 37.4468 33.3785C36.9152 34.043 35.65 34.8117 35.65 34.8117C35.65 34.8117 34.4274 35.554 33.7127 35.6568C33.5735 35.6769 33.4243 35.6744 33.2851 35.5966C33.117 35.5026 33.0393 35.3409 33.0067 35.2568C32.934 35.075 32.855 34.8869 32.7659 34.6963C32.5377 34.201 32.292 33.7597 32.0449 33.3709C31.8443 33.2644 31.5609 33.1114 31.2261 32.917C30.4148 32.4468 29.9684 32.1885 29.4819 31.7872C28.8612 31.2744 28.3873 30.8832 28.1829 30.1948C28.1239 29.9954 27.9848 29.5064 28.1741 28.976C28.2895 28.6512 28.4863 28.4255 28.628 28.2637C28.8763 27.9791 29.1333 27.796 29.3126 27.6857" stroke="black" stroke-width="0.2" stroke-linecap="round" stroke-linejoin="round"/>
</svg>
