<svg width="160" height="160" viewBox="0 0 160 160" fill="none" xmlns="http://www.w3.org/2000/svg">
<path d="M156.665 111.8C154.855 118.049 150.12 123.195 143.84 127.128C143.609 127.273 143.379 127.414 143.143 127.549C132.53 133.939 117.779 136.978 105.209 136.186C99.8025 135.84 95.6445 134.842 92.0031 133.623C91.6119 133.498 91.2257 133.362 90.8445 133.227C82.9949 130.448 77.2771 126.847 65.6106 127.243C54.3354 127.624 44.9561 131.481 38.1899 135.288C37.7586 135.524 37.3373 135.77 36.926 136.015C36.0181 136.542 35.1554 137.079 34.3529 137.59C33.3899 138.052 21.1166 143.715 11.1404 137.114C4.03821 132.414 2.45326 124.374 2.30279 123.557C0.161094 111.72 10.2576 106.087 11.7222 90.5434C12.3893 83.4763 10.9648 77.623 9.86642 74.1672C8.91344 70.1597 7.84008 63.238 9.63068 55.1227C9.84134 54.1847 10.0771 53.2769 10.3379 52.3891C10.4382 52.0581 10.5385 51.7371 10.6388 51.4161C15.494 36.4192 27.7222 28.6499 30.7718 26.7791C38.7216 21.9038 48.6426 19.085 58.9097 19.6267H58.9147C59.4865 19.6518 60.0533 19.697 60.625 19.7471C65.5354 20.1785 70.5109 21.3923 75.3661 23.5289C96.2915 32.7377 101.899 53.2869 102.541 55.8148C104.026 61.8386 107.145 69.6079 114.388 74.8593C114.885 75.2205 115.341 75.5264 115.978 75.9277C120.467 78.7465 125.107 80.7227 129.586 82.3427C129.761 82.4079 129.937 82.4681 130.112 82.5233C140.675 86.2951 150.27 88.181 154.799 94.606C155.421 95.4888 155.923 96.4217 156.309 97.3647C156.445 97.6807 156.565 97.9966 156.675 98.3126C158.732 104.331 156.941 110.812 156.66 111.795L156.665 111.8Z" fill="#F2F4F7"/>
<path d="M60.6249 19.7471C59.8826 20.2336 59.1704 20.7602 58.4833 21.327C56.8532 22.6662 55.3434 24.1609 53.919 25.7207C49.0086 31.1076 44.8256 37.5627 44.0732 44.9859C43.8826 46.8618 43.8927 48.7678 44.1685 50.6336C44.4344 52.4493 44.956 54.2098 45.6481 55.9C46.3503 57.6254 47.2331 59.2706 48.1861 60.8656C48.6626 61.658 49.1541 62.4405 49.6657 63.2079C49.9416 63.6192 50.2074 64.0405 50.4431 64.4819C50.6638 64.8831 50.8193 65.3145 51.045 65.7207C51.1453 65.9113 50.8895 66.122 50.7441 65.9565C50.3879 65.5602 49.9917 65.2141 49.6506 64.8129C49.2996 64.4016 48.9986 63.9552 48.6927 63.5088C48.0908 62.616 47.5039 61.7182 46.9472 60.7953C45.8387 58.9596 44.8506 57.0486 44.0983 55.0373C42.714 51.3408 42.3428 47.4336 42.9196 43.5364C43.4914 39.6944 44.9309 36.0229 46.9021 32.6875C48.8381 29.4223 51.2607 26.5032 53.9641 23.8499C55.3836 22.4505 56.8381 21.1013 58.4682 19.9427C58.6137 19.8373 58.7591 19.732 58.9146 19.6367H58.9196C59.4914 19.6618 60.0582 19.7069 60.63 19.7571L60.6249 19.7471Z" fill="white"/>
<path d="M38.195 135.288C37.7636 135.524 37.3423 135.77 36.931 136.015C31.9504 134.355 27.4413 131.281 24.8934 126.561C21.0564 119.444 22.9824 111.108 25.0288 103.765C27.2407 95.8298 29.3824 87.7847 29.6533 79.5038C29.7837 75.4812 29.563 71.3433 28.294 67.5013C27.341 64.6072 25.7059 61.9489 23.6495 59.7069C21.573 57.4449 19.0551 55.6141 16.2915 54.28C14.3855 53.3621 12.3843 52.7953 10.3379 52.3891C10.4382 52.058 10.5385 51.737 10.6388 51.416C16.4921 52.1383 21.9793 55.4938 25.6307 60.063C27.6319 62.5709 29.1015 65.4549 29.894 68.5696C30.9022 72.517 31.0075 76.68 30.7667 80.7276C30.2752 88.9985 28.0432 96.9834 25.8765 104.933C24.8131 108.815 23.8451 112.778 23.8501 116.825C23.8551 120.512 24.6877 124.158 26.7592 127.238C28.6451 130.042 31.3084 132.254 34.3128 133.778C35.5517 134.4 36.8558 134.897 38.1899 135.288H38.195Z" fill="white"/>
<path d="M63.6042 98.6782C61.2619 99.1948 59.2757 100.76 57.455 102.244C55.539 103.804 53.7384 105.52 52.3591 107.581C50.9948 109.617 50.102 111.98 49.761 114.402C49.4299 116.785 49.5252 119.318 50.9898 121.324C52.2237 123.009 54.0694 124.178 56.0807 124.715C58.5334 125.372 61.1516 125.076 63.5541 124.348C67.7773 123.074 71.7046 120.662 74.9397 117.683C76.5246 116.228 77.944 114.598 79.1929 112.847C79.8149 111.98 80.4318 111.077 80.9284 110.129C81.4249 109.191 81.8513 108.208 82.2274 107.215C82.3227 106.964 82.3629 106.708 82.418 106.453C82.4732 106.197 82.5785 105.951 82.6638 105.7C82.739 105.469 82.3629 105.304 82.2676 105.535C82.1723 105.765 82.087 106.001 81.9616 106.207C81.8262 106.432 81.6557 106.633 81.5353 106.869C81.3046 107.325 81.0588 107.777 80.808 108.223C80.3165 109.101 79.7848 109.968 79.2431 110.816C78.1547 112.521 76.8857 114.106 75.4763 115.556C72.6726 118.435 69.3171 120.802 65.6005 122.337C61.6281 123.977 56.5873 124.855 53.0513 121.775C52.3491 121.163 51.7672 120.436 51.361 119.594C50.8745 118.58 50.7491 117.442 50.7591 116.333C50.7792 114.001 51.3459 111.669 52.3992 109.587C53.4625 107.476 55.0224 105.72 56.7027 104.075C57.5303 103.263 58.3779 102.47 59.2506 101.703C60.1234 100.935 61.0212 100.148 62.0494 99.5509C62.556 99.255 63.0926 99.0092 63.6394 98.8036C63.7246 98.7735 63.6895 98.6481 63.6042 98.6682V98.6782Z" fill="white"/>
<path d="M133.779 107.988C132.806 110.445 131.176 112.622 129.265 114.438C125.408 118.089 120.442 120.261 115.482 121.961C109.989 123.847 104.251 125.242 99.1355 128.055C96.9737 129.249 94.9173 130.674 93.1518 132.409C92.7555 132.8 92.3744 133.202 92.0082 133.628C91.617 133.503 91.2308 133.367 90.8496 133.232C90.8546 133.227 90.8596 133.217 90.8646 133.212C91.6371 132.259 92.5048 131.381 93.4377 130.573C95.3336 128.928 97.4653 127.564 99.7123 126.445C105.044 123.797 110.877 122.463 116.45 120.467C121.26 118.746 126.055 116.379 129.556 112.572C131.346 110.616 132.861 108.234 133.342 105.595C133.889 102.651 133.087 99.6467 132.134 96.8731C131.191 94.1295 129.992 91.4411 129.46 88.5721C129.209 87.2078 129.034 85.7834 129.204 84.4041C129.285 83.7571 129.395 83.105 129.556 82.468C129.566 82.4279 129.576 82.3878 129.586 82.3477C129.761 82.4078 129.937 82.473 130.112 82.5282C130.102 82.5583 130.097 82.5834 130.092 82.6185C129.821 83.9577 129.912 85.3922 130.097 86.7414C130.298 88.1458 130.664 89.5301 131.09 90.8793C131.983 93.7031 133.237 96.4016 133.974 99.2756C134.717 102.15 134.882 105.174 133.774 107.988H133.779Z" fill="white"/>
<path d="M156.68 98.3124C156.298 98.5882 155.917 98.8641 155.541 99.155C154.352 100.068 153.214 101.041 152.135 102.074C148.394 105.665 145.354 110.089 144.15 115.19C143.478 118.044 143.448 121.013 143.574 123.932C143.619 125.001 143.654 126.069 143.839 127.122C143.609 127.268 143.378 127.408 143.142 127.544C143.142 127.539 143.137 127.529 143.137 127.524C142.776 126.109 142.676 124.63 142.621 123.17C142.49 120.156 142.601 117.106 143.393 114.182C144.09 111.619 145.254 109.196 146.713 106.979C148.228 104.682 150.074 102.601 152.11 100.75C153.154 99.802 154.247 98.9142 155.365 98.0616C155.681 97.8258 155.992 97.5901 156.313 97.3594C156.449 97.6754 156.569 97.9913 156.68 98.3073V98.3124Z" fill="white"/>
<path d="M114.158 62.0491C108.009 61.3569 103.826 52.7149 106.725 47.8046C108.38 45.0058 112.132 43.7569 115.241 44.2434C120.618 45.0861 125.012 51.2804 123.141 56.4767C121.837 60.093 117.774 62.4604 114.158 62.0491Z" fill="#F2F4F7"/>
<path d="M118.646 66.8488C118.385 65.3893 120.582 63.0369 122.518 63.5987C124.444 64.1554 125.061 67.3002 124.068 68.3987C122.879 69.7128 118.962 68.5893 118.646 66.8488Z" fill="#F2F4F7"/>
<path d="M103.383 30.2339L100.863 31.2261C100.09 31.5305 99.7097 32.4042 100.014 33.1774L101.006 35.6976C101.311 36.4709 102.184 36.8509 102.958 36.5465L105.478 35.5543C106.251 35.2498 106.631 34.3762 106.327 33.6029L105.334 31.0828C105.03 30.3095 104.156 29.9295 103.383 30.2339Z" stroke="black" stroke-width="0.8" stroke-linecap="round" stroke-linejoin="round"/>
<path d="M20.1487 80.4965C20.4296 81.6651 20.4798 82.8839 20.2089 84.0626C20.0735 84.6444 19.8628 85.2062 19.587 85.7328C19.4465 85.9987 19.2861 86.2595 19.0955 86.4902C18.935 86.6808 18.7243 86.8212 18.5788 87.0168C18.5387 87.067 18.6039 87.1422 18.6591 87.1222C19.1306 86.9667 19.5017 86.3447 19.7274 85.9385C20.0334 85.3867 20.2541 84.7849 20.3945 84.1679C20.6754 82.9491 20.6353 81.6601 20.219 80.4764C20.2039 80.4363 20.1387 80.4513 20.1487 80.4965Z" fill="black"/>
<path d="M22.0801 86.2953C21.6136 87.6897 20.3246 88.1762 20.1641 88.2364C19.0556 88.6527 17.9422 89.074 16.8337 89.4903C16.6331 89.5756 15.7052 89.9116 14.6469 89.4903C13.5384 89.059 13.102 88.111 13.0218 87.9204C12.5303 86.8119 12.0437 85.7035 11.5572 84.59C11.4318 84.2539 11.2964 83.7273 11.3767 83.1003C11.5723 81.5003 12.9767 80.6477 13.2274 80.5072C13.2325 80.5022 13.2375 80.4972 13.2425 80.4972C13.3879 80.3818 13.5585 80.2915 13.739 80.2213L17.4757 78.7517C18.6193 78.2953 19.9184 78.8621 20.3647 80.0107L21.8393 83.7423C21.8694 83.8176 21.8895 83.8878 21.9146 83.968C22.0149 84.1687 22.4613 85.1417 22.0801 86.2953Z" fill="white"/>
<path d="M13.6184 86.008C13.483 85.6669 13.3225 85.2606 13.167 84.8594" stroke="black" stroke-width="0.8" stroke-linecap="round" stroke-linejoin="round"/>
<path d="M12.5052 83.1746L12.4801 83.1094C12.0287 81.9658 12.5905 80.6668 13.7391 80.2154L17.4757 78.7458C18.6193 78.2944 19.9184 78.8561 20.3698 80.0047L21.8394 83.7414C22.2908 84.8849 21.729 86.184 20.5805 86.6354L16.8438 88.105C15.8156 88.5113 14.662 88.095 14.1152 87.1771" stroke="black" stroke-width="0.8" stroke-linecap="round" stroke-linejoin="round"/>
<path d="M13.2421 80.4961C13.0415 80.6064 11.5719 81.4641 11.3712 83.0992C11.296 83.7262 11.4314 84.2528 11.5568 84.5889C12.0433 85.6973 12.5299 86.8108 13.0164 87.9193C13.0966 88.1049 13.538 89.0478 14.6415 89.4892C15.6998 89.9105 16.6277 89.5695 16.8283 89.4892C17.9368 89.0679 19.0502 88.6516 20.1587 88.2303C20.3192 88.1701 21.6132 87.6886 22.0747 86.2942C22.4559 85.1406 22.0045 84.1676 21.9092 83.9669" stroke="black" stroke-width="0.8" stroke-linecap="round" stroke-linejoin="round"/>
<path d="M125.628 97.5428C126.195 97.5278 126.757 97.4375 127.329 97.4927C127.84 97.5478 128.367 97.7535 128.773 98.0594C129.179 98.3654 129.495 98.7867 129.666 99.2582C129.847 99.7597 129.897 100.377 129.801 100.898C129.781 100.999 129.922 101.039 129.957 100.943C130.178 100.352 130.203 99.7748 129.992 99.1729C129.811 98.6513 129.49 98.1999 129.054 97.8588C128.618 97.5177 128.116 97.3171 127.554 97.277C126.907 97.2268 126.24 97.3021 125.618 97.4776C125.578 97.4876 125.588 97.5478 125.628 97.5478V97.5428Z" fill="black"/>
<path d="M129.977 103.902C129.977 104.579 129.977 105.07 129.897 105.411C129.972 105.888 129.947 106.279 129.967 106.555C129.972 106.695 129.967 106.936 129.862 107.207C129.746 107.523 129.566 107.719 129.46 107.819L128.613 108.616C128.512 108.702 128.232 108.917 127.8 108.963C127.499 108.998 127.228 108.927 127.008 108.832C126.376 108.561 122.604 106.63 117.458 103.937C117.322 103.842 117.082 103.656 116.901 103.335C116.686 102.964 116.655 102.618 116.65 102.447V100.175C116.691 99.5732 117.714 99.2923 119.74 98.7306C122.373 98.0033 125.006 97.271 127.64 96.5438C128.713 96.2528 129.245 96.0974 129.611 96.3632C129.977 96.629 129.977 97.1557 129.977 98.219V103.902Z" fill="white"/>
<path d="M125.965 99.297C125.965 99.0111 127.083 98.4794 127.881 98.8907C128.894 99.4173 128.829 101.178 128.578 101.273C128.412 101.333 128.247 100.656 127.414 100.054C126.617 99.4775 125.965 99.5177 125.965 99.297Z" fill="#F2F4F7"/>
<path d="M118.205 101.464C117.142 100.972 116.615 100.626 116.65 100.175C116.695 99.5727 117.713 99.2918 119.74 98.7301C122.373 98.0028 125.006 97.2755 127.639 96.5483C128.713 96.2523 129.249 96.1019 129.611 96.3627C129.977 96.6235 129.977 97.1552 129.977 98.2185V103.901C129.977 105.1 129.977 105.702 129.56 105.958C129.144 106.213 128.572 105.968 127.424 105.481C126.285 104.995 125.152 104.503 124.013 104.007" stroke="black" stroke-width="0.8" stroke-linecap="round" stroke-linejoin="round"/>
<path d="M120.857 102.627C120.406 102.431 119.955 102.231 119.498 102.035C119.473 102.025 119.443 102.01 119.418 102" stroke="black" stroke-width="0.8" stroke-linecap="round" stroke-linejoin="round"/>
<path d="M116.65 100.176V102.448C116.65 102.618 116.691 102.964 116.901 103.336C117.087 103.657 117.328 103.847 117.463 103.938C122.604 106.636 126.376 108.567 127.008 108.833C127.233 108.928 127.504 108.998 127.805 108.968C128.232 108.923 128.517 108.707 128.618 108.622C128.899 108.356 129.18 108.091 129.46 107.825C129.566 107.724 129.751 107.524 129.867 107.213C129.967 106.942 129.977 106.701 129.967 106.561C129.952 106.28 129.972 105.889 129.902 105.412" stroke="black" stroke-width="0.8" stroke-linecap="round" stroke-linejoin="round"/>
<path d="M71.1737 62.9717C71.9762 62.8363 72.9041 62.7661 73.9273 62.8313C74.8201 62.8915 75.6176 63.0419 76.2947 63.2275C77.1223 63.4532 78.0051 63.2877 78.6872 62.7661C79.2289 62.3498 79.7756 61.9285 80.3173 61.5122C80.8138 61.131 81.1649 60.5843 81.3054 59.9723C83.0809 52.3234 84.8565 44.6745 86.632 37.0307C86.948 35.6714 86.1906 34.2971 84.8715 33.8457C81.837 32.7974 77.2828 31.7241 71.7555 32.1002C64.9041 32.5667 59.8333 35.0444 57.19 36.5993C56.9442 36.7448 56.7286 36.9203 56.538 37.131C55.595 38.1792 54.6471 39.2275 53.7041 40.2758C52.8364 41.2388 52.7662 42.6833 53.5436 43.7266C57.8671 49.5197 62.1906 55.3178 66.5192 61.1109C67.4872 62.4049 69.5787 63.2476 71.1737 62.9817V62.9717Z" fill="white"/>
<path d="M66.6345 64.317C65.8471 65.4054 64.9643 66.9 64.3223 68.7909C63.6402 70.8323 63.4596 72.6881 63.4646 74.1176C63.4646 74.8649 63.0383 75.522 62.3963 75.843C62.2408 76.0737 61.9499 76.4398 61.5135 76.7909C60.4251 77.6586 59.2063 77.779 58.8452 77.8342C52.8163 78.742 46.7825 79.6549 40.7536 80.5677C39.5549 80.7433 38.4715 79.8605 38.3812 78.6568C37.9298 72.5226 38.8878 67.6875 39.7455 64.6329C39.7455 64.6329 43.096 52.6505 51.5323 47.6148C51.7681 47.4743 52.4101 47.1232 53.2176 47.2085C54.4715 47.3389 55.3091 48.4524 55.6402 48.964C59.2765 53.2875 62.9129 57.601 66.5543 61.9245C67.1361 62.6066 67.1662 63.5947 66.6395 64.317H66.6345Z" fill="white"/>
<path d="M107.372 94.7616C100.781 106.007 89.9425 109.603 86.8979 110.566C86.1356 110.807 83.4823 111.599 79.7055 112.006C73.3707 112.678 63.886 112.241 54.9581 106.192C47.9412 101.437 44.2346 95.2231 42.4189 91.366C41.8622 90.1723 41.9926 88.7779 42.745 87.7046C43.3519 86.8419 43.9537 85.9742 44.5606 85.1115C45.0722 84.3742 45.8396 83.8575 46.7124 83.6419C51.5174 82.4883 56.3174 81.3296 61.1274 80.176C62.6973 79.7948 64.3124 80.5021 65.15 81.8814C65.9625 83.2105 67.2616 84.7854 69.2829 85.9842C70.0653 86.4506 72.9042 88.0055 76.5606 87.6193C77.1073 87.5641 77.6791 87.4588 78.261 87.2983C81.9926 86.2901 85.1625 83.3409 86.2359 79.5541C86.607 78.25 86.7124 76.8908 86.5719 75.5416C86.281 72.6826 84.8716 69.8839 82.5794 67.7723C81.2553 66.5585 81.0798 64.5372 82.0879 63.0525C84.982 58.7892 87.886 54.5309 90.7801 50.2626C91.3368 49.44 92.2146 48.8782 93.1926 48.7027C93.9349 48.5773 94.6772 48.4469 95.4196 48.3165C96.4478 48.1409 97.5111 48.4068 98.3287 49.0588C101.544 51.6218 106.87 56.7428 109.85 64.9184C110.045 65.445 110.512 66.7892 110.963 68.7353C112.242 74.2475 113.341 84.5798 107.372 94.7616Z" fill="white"/>
<path d="M110.963 68.7344C107.844 70.2091 104.368 71.6285 100.541 72.8774C97.1301 73.9859 93.895 74.8134 90.9057 75.4254C89.4662 75.4655 88.0367 75.5056 86.6022 75.5457C86.5922 75.5407 86.5822 75.5357 86.5721 75.5357C86.2812 72.6768 84.8718 69.878 82.5797 67.7664C81.2555 66.5526 81.08 64.5313 82.0881 63.0467C84.9822 58.7833 87.8862 54.525 90.7803 50.2567C91.337 49.4341 92.2148 48.8724 93.1928 48.6968C93.9351 48.5714 94.6775 48.441 95.4198 48.3106C96.448 48.1351 97.5113 48.4009 98.3289 49.0529C101.544 51.616 106.871 56.737 109.85 64.9125C110.045 65.4391 110.512 66.7834 110.963 68.7294V68.7344Z" fill="#EEA563"/>
<path d="M80.156 111.555C80.0156 111.7 79.8651 111.851 79.6996 112.006C73.3648 112.678 63.8802 112.242 54.9523 106.193C47.9353 101.438 44.2288 95.2237 42.4131 91.3667C41.8563 90.1729 41.9868 88.7786 42.7391 87.7052C43.346 86.8425 43.9479 85.9748 44.5548 85.1121C45.0664 84.3748 45.8338 83.8582 46.7065 83.6425C51.5115 82.4889 56.3115 81.3303 61.1215 80.1767C62.6915 79.7955 64.3065 80.5027 65.1441 81.882C65.9567 83.2112 67.2557 84.7861 69.277 85.9849C70.0595 86.4513 72.8984 88.0062 76.5548 87.62C77.1115 87.8958 77.6733 88.1667 78.23 88.4425C78.9322 91.5322 79.5491 95.0532 79.9203 98.9504C80.3667 103.65 80.3617 107.898 80.151 111.555H80.156Z" fill="#C9C8C8"/>
<path d="M61.6942 39.7939C62.1005 38.0735 63.53 37.0904 64.5582 36.3883C66.6949 34.9237 68.8265 34.703 69.8999 34.6077C71.555 34.4572 73.6365 34.2716 75.3218 35.5757C75.4572 35.681 77.1977 37.0553 76.8717 38.2491C76.6008 39.2372 75.2115 39.0215 73.5061 40.2252C71.1839 41.8604 70.4416 44.5889 70.3713 44.8698C69.7243 47.3776 70.7726 48.8522 69.6742 49.9005C68.8616 50.6779 67.5977 50.5425 67.4271 50.5174C64.7187 50.1864 63.3043 46.224 62.2409 43.2397C61.5187 41.2234 61.5488 40.4209 61.6992 39.7939H61.6942Z" fill="#F2F4F7"/>
<path d="M68.4553 52.8994C68.4904 52.3176 68.8415 51.6204 69.4433 51.4198C70.4114 51.0938 71.7806 52.1371 71.7957 53.3358C71.8057 54.0982 71.2691 54.9308 70.5468 55.0762C69.5186 55.2819 68.385 54.053 68.4553 52.8994Z" fill="#F2F4F7"/>
<path d="M57.0441 63.2929C56.0861 61.6828 58.2529 57.9462 60.53 57.9512C61.6234 57.9512 62.4811 58.8189 62.9325 59.2653C63.3388 59.6716 64.6479 60.9907 64.3268 62.2847C63.9306 63.8797 61.3124 64.4013 59.6823 64.296C58.9049 64.2458 57.5657 64.1606 57.0491 63.2879L57.0441 63.2929Z" fill="#F2F4F7"/>
<path d="M56.5421 56.8676C56.3866 56.4363 56.9333 55.4933 57.7408 55.5535C58.5484 55.6087 58.9596 56.6219 58.749 57.0231C58.4581 57.5748 56.7527 57.4595 56.5421 56.8676Z" fill="#F2F4F7"/>
<path d="M85.4977 58.3023C85.297 58.8289 85.0563 59.5913 85.4224 60.0828C85.7033 60.469 86.24 60.5242 86.5058 60.5493C90.2776 60.8452 93.0111 59.7367 93.0111 59.7367C96.6525 58.2571 99.3259 57.1737 100.249 54.5104C100.364 54.1744 101.182 51.7117 99.8224 49.9411C98.8293 48.6521 97.1942 48.4013 96.6525 48.3161C95.3886 48.1204 94.3854 48.4164 93.6883 48.617C93.1165 48.7825 91.9729 49.1336 90.9597 50.0114C89.9616 50.8791 90.1021 51.3907 89.0588 53.0709C87.6343 55.3581 86.3654 56.0302 85.4977 58.2973V58.3023Z" fill="white"/>
<path d="M103.54 63.2186C103.149 62.2105 103.826 61.0117 104.854 60.7409C105.983 60.445 107.201 61.3377 107.257 62.4462C107.297 63.3039 106.63 64.0914 105.787 64.302C104.899 64.5227 103.881 64.0914 103.54 63.2186Z" fill="white"/>
<path d="M44.8513 86.9562C43.9384 86.9061 43.3014 88.5311 43.1108 89.0177C42.9854 89.3336 42.7647 89.9054 42.9353 90.0358C43.1008 90.1562 43.5372 89.8101 44.2995 89.1932C45.729 88.0396 45.7089 87.7286 45.6939 87.6233C45.6387 87.2772 45.2274 86.9763 44.8513 86.9562Z" fill="white"/>
<path d="M61.8093 81.82C61.2275 82.0458 60.9717 82.8432 61.0269 83.4451C61.0971 84.1925 61.694 85.1254 62.5366 85.1003C63.2037 85.0802 63.7353 84.4683 63.8708 83.8815C64.0965 82.8884 63.2037 81.9555 62.4212 81.79C62.3059 81.7649 62.0701 81.7197 61.8093 81.82Z" fill="white"/>
<path d="M65.4108 86.465C65.7268 86.2042 66.6096 87.2826 68.9218 88.5265C71.3594 89.8356 72.6635 90.5327 74.3538 90.3823C75.397 90.292 76.044 89.9208 76.6208 90.3522C77.2779 90.8487 77.4484 92.1027 76.9669 92.5591C76.6158 92.8951 76.0491 92.6744 74.5594 92.3284C71.856 91.7014 72.1469 92.0475 70.6672 91.571C69.2578 91.1196 67.8083 90.6581 66.6597 89.3641C65.6817 88.2657 65.0798 86.7409 65.4108 86.46V86.465Z" fill="white"/>
<path d="M52.8711 104.662C53.2573 104.742 54.4761 104.938 55.8002 104.291C56.9689 103.719 57.5507 102.811 57.7513 102.455C58.9802 103.338 60.214 104.221 61.4429 105.103C60.4749 105.274 59.3915 105.414 58.2078 105.48C56.4774 105.58 54.9225 105.51 53.5934 105.364C53.3526 105.128 53.1118 104.893 52.8711 104.657V104.662Z" fill="black"/>
<path d="M55.7101 106.788C56.6831 106.978 58.0474 107.134 59.6574 106.993C61.1672 106.858 62.406 106.507 63.2988 106.176C64.9339 107.043 66.9302 107.931 69.2624 108.628C70.396 108.97 71.4693 109.225 72.4775 109.421C71.4944 109.757 70.2957 110.073 68.9164 110.243C66.1577 110.59 63.8355 110.228 62.2656 109.837C60.0787 108.819 57.8919 107.806 55.7051 106.788H55.7101Z" fill="black"/>
<path d="M66.7746 111.112C67.893 111.297 69.5231 111.443 71.4491 111.172C73.31 110.911 74.7896 110.354 75.7977 109.888C77.2924 109.923 78.7871 109.958 80.2767 109.993C81.8316 109.938 84.1037 109.748 86.7821 109.111C88.9639 108.594 90.3883 108.027 90.4084 108.077C90.4385 108.163 86.6968 109.993 81.7513 111.087C79.5946 111.563 76.0235 112.321 71.384 111.899C69.4579 111.724 67.878 111.393 66.7695 111.117L66.7746 111.112Z" fill="black"/>
<path d="M71.1737 62.9717C71.9762 62.8363 72.9041 62.7661 73.9273 62.8313C74.8201 62.8915 75.6176 63.0419 76.2947 63.2275C77.1223 63.4532 78.0051 63.2877 78.6872 62.7661C79.2289 62.3498 79.7756 61.9285 80.3173 61.5122C80.8138 61.131 81.1649 60.5843 81.3054 59.9723C83.0809 52.3234 84.8565 44.6745 86.632 37.0307C86.948 35.6714 86.1906 34.2971 84.8715 33.8457C81.837 32.7974 77.2828 31.7241 71.7555 32.1002C64.9041 32.5667 59.8333 35.0444 57.19 36.5993C56.9442 36.7448 56.7286 36.9203 56.538 37.131C55.595 38.1792 54.6471 39.2275 53.7041 40.2758C52.8364 41.2388 52.7662 42.6833 53.5436 43.7266C57.8671 49.5197 62.1906 55.3178 66.5192 61.1109C67.4872 62.4049 69.5787 63.2476 71.1737 62.9817V62.9717Z" stroke="black" stroke-width="0.8" stroke-linecap="round" stroke-linejoin="round"/>
<path d="M55.6349 48.9627C54.9127 48.105 53.6086 48.0298 52.8011 48.8123C50.3936 51.1395 47.0933 55.0267 44.8914 60.6593C42.2782 67.3452 42.4337 73.364 42.8801 76.9652C43.0155 78.0486 44.0287 78.801 45.107 78.6355C50.6795 77.7677 56.2469 76.9 61.8193 76.0323C62.7672 75.8869 63.4644 75.0743 63.4644 74.1163C63.4644 72.6919 63.64 70.8361 64.3271 68.7947C64.9641 66.8988 65.8469 65.4091 66.6343 64.3207C67.161 63.5934 67.1309 62.6104 66.549 61.9232C62.9127 57.6047 59.2713 53.2862 55.6349 48.9677V48.9627Z" stroke="black" stroke-width="0.8" stroke-linecap="round" stroke-linejoin="round"/>
<path d="M46.7123 83.6424C51.5173 82.4838 56.3223 81.3302 61.1223 80.1716C62.6922 79.7954 64.3073 80.4976 65.1499 81.8769C65.9925 83.2562 67.2615 84.786 69.2778 85.9797C70.1806 86.5114 73.8069 88.4976 78.2609 87.2938C81.9925 86.2857 85.1624 83.3364 86.2358 79.5496C87.3944 75.4468 85.9499 70.8675 82.5794 67.7628C81.2602 66.549 81.0797 64.5226 82.0878 63.043C84.9869 58.7797 87.8859 54.5214 90.78 50.2581C91.3417 49.4355 92.2094 48.8737 93.1925 48.7032C93.9348 48.5728 94.6772 48.4474 95.4145 48.317C96.4477 48.1364 97.506 48.4023 98.3286 49.0543C101.544 51.6173 106.865 56.7383 109.85 64.9189C110.582 66.9302 115.442 80.9891 107.372 94.7621C100.781 106.007 89.9424 109.604 86.8928 110.562C84.8515 111.204 69.1975 115.838 54.953 106.188C47.9361 101.433 44.2295 95.2186 42.4189 91.3665C41.8621 90.1728 41.9875 88.7784 42.7399 87.7001C43.3417 86.8374 43.9486 85.9747 44.5505 85.112C45.0671 84.3747 45.8295 83.8531 46.7022 83.6424H46.7123Z" stroke="black" stroke-width="0.8" stroke-linecap="round" stroke-linejoin="round"/>
<path d="M57.3153 37.9785C57.1949 38.3597 57.0745 38.8914 57.0846 39.5284C57.1046 40.7923 57.6212 41.7302 57.8971 42.1616C60.2595 46.149 62.6219 50.1365 64.9792 54.124" stroke="black" stroke-width="0.8" stroke-linecap="round" stroke-linejoin="round"/>
<path d="M65.7969 55.2422C65.9273 55.4478 66.0527 55.6535 66.1831 55.8591" stroke="black" stroke-width="0.8" stroke-linecap="round" stroke-linejoin="round"/>
<path d="M67.4619 57.2949C68.1792 58.1977 68.8914 59.1056 69.6086 60.0084C69.8042 60.2542 70.1252 60.3645 70.4312 60.2843C71.1434 60.0836 71.981 59.9181 72.924 59.8479C73.902 59.7777 75.477 59.3564 78.8876 60.8159" stroke="black" stroke-width="0.8" stroke-linecap="round" stroke-linejoin="round"/>
<path d="M69.6792 61.0312L69.3281 61.7234" stroke="black" stroke-width="0.8" stroke-linecap="round" stroke-linejoin="round"/>
<path d="M55.6349 48.962C55.2988 48.4504 54.4663 47.3369 53.2123 47.2065C52.4048 47.1213 51.7628 47.4724 51.5271 47.6128C43.0957 52.6485 39.7402 64.626 39.7402 64.626C38.8876 67.6755 37.9246 72.5106 38.376 78.6448C38.4662 79.8536 39.5496 80.7413 40.7484 80.5558C46.7822 79.6429 52.8111 78.7351 58.8449 77.8222C59.2061 77.767 60.4299 77.6467 61.5183 76.7789C61.9546 76.4279 62.2405 76.0617 62.401 75.836" stroke="black" stroke-width="0.8" stroke-linecap="round" stroke-linejoin="round"/>
<path d="M81.5605 66.0671C83.0502 65.1242 84.5348 64.1812 86.0245 63.2383" stroke="black" stroke-width="0.8" stroke-linecap="round" stroke-linejoin="round"/>
<path d="M97.2548 48.4668C96.8485 48.5822 96.3118 48.7878 95.7501 49.1539C94.9125 49.7007 94.4009 50.3577 94.125 50.779" stroke="black" stroke-width="0.8" stroke-linecap="round" stroke-linejoin="round"/>
<path d="M89.2756 58.3574L86.7126 62.2044C86.3113 62.8063 86.3364 63.5888 86.7727 64.1656C87.7107 65.4095 88.769 67.1098 89.5665 69.2765C90.1884 70.9668 91.6079 73.3342 90.6398 78.5957" stroke="black" stroke-width="0.8" stroke-linecap="round" stroke-linejoin="round"/>
<path d="M92.8716 52.4082C92.7663 52.5436 92.6609 52.6841 92.5556 52.8446C92.3249 53.1906 92.1443 53.5267 92.0039 53.8327" stroke="black" stroke-width="0.8" stroke-linecap="round" stroke-linejoin="round"/>
<path d="M90.4738 56.2617C90.4287 56.3269 90.3835 56.4022 90.3384 56.4774C90.2381 56.6529 90.1578 56.8185 90.0977 56.9689" stroke="black" stroke-width="0.8" stroke-linecap="round" stroke-linejoin="round"/>
<path d="M49.0246 83.084C48.5481 83.2294 47.2039 83.6959 46.6371 84.9297C46.1958 85.8877 46.3412 86.9009 46.6522 87.6282C47.7506 90.1761 49.466 93.4313 52.1694 96.7417C54.1907 99.2194 59.0208 104.997 67.6177 108.082C75.8835 111.051 83.2766 109.973 87.2842 108.99C88.3274 108.734 89.2152 108.463 89.6817 108.318C95.7255 106.387 100.014 103.287 102.672 100.985" stroke="black" stroke-width="0.8" stroke-linecap="round" stroke-linejoin="round"/>
<path d="M89.7969 81.2383C89.2853 82.2013 87.1035 86.0283 82.3386 87.7536C76.5806 89.8402 71.6301 87.1869 70.8828 86.7706" stroke="black" stroke-width="0.8" stroke-linecap="round" stroke-linejoin="round"/>
<path d="M85.2578 81.8866C86.6672 81.8515 88.0766 81.8164 89.491 81.7812C92.7512 82.8596 96.4979 84.3543 100.485 86.4609C103.625 88.116 106.354 89.8565 108.671 91.5117" stroke="black" stroke-width="0.8" stroke-linecap="round" stroke-linejoin="round"/>
<path d="M86.8379 75.4304H90.9758C94.5119 74.6831 98.4442 73.6448 102.632 72.1802C105.677 71.1119 108.465 69.9633 110.978 68.8047" stroke="black" stroke-width="0.8" stroke-linecap="round" stroke-linejoin="round"/>
<path d="M78.1807 88.541C79.2189 92.7893 79.9963 97.499 80.2622 102.605" stroke="black" stroke-width="0.8" stroke-linecap="round" stroke-linejoin="round"/>
<path d="M80.3625 106.498C80.3625 106.633 80.3625 106.769 80.3625 106.904C80.3575 107.953 80.3274 108.981 80.2822 109.989" stroke="black" stroke-width="0.8" stroke-linecap="round" stroke-linejoin="round"/>
<path d="M46.0304 57.9252C46.0204 58.4619 46.2361 58.9585 46.4718 59.4299C46.7276 59.9365 47.0235 60.423 47.3495 60.8845C47.9966 61.7923 48.7589 62.6099 49.6267 63.3121C51.5025 64.8218 53.7897 65.7497 56.1922 65.9403C56.8693 65.9954 57.5665 65.9954 58.2436 65.9403C58.9608 65.8801 59.6129 65.6744 60.29 65.4487C60.3702 65.4237 60.3351 65.3183 60.2549 65.3284C59.648 65.4186 59.016 65.4237 58.4041 65.4487C57.8223 65.4738 57.2555 65.4788 56.6737 65.4337C55.495 65.3334 54.3314 65.0625 53.2279 64.6462C51.1915 63.8788 49.411 62.5346 48.0517 60.8393C47.6806 60.3779 47.3545 59.8864 47.0486 59.3798C46.7426 58.8732 46.5069 58.3265 46.1006 57.9001C46.0756 57.8701 46.0254 57.8951 46.0254 57.9302L46.0304 57.9252Z" fill="black"/>
<path d="M66.3435 62.4559C66.178 62.4007 65.9322 62.5161 65.7817 62.5863C65.5861 62.6816 65.3955 62.7819 65.2099 62.8922C65.0244 63.0026 64.8388 63.0979 64.6683 63.2183C64.573 63.2835 64.5027 63.3637 64.4275 63.444C64.3573 63.5192 64.277 63.5744 64.2369 63.6797C64.2219 63.7299 64.257 63.8001 64.3071 63.8051C64.4074 63.8201 64.4927 63.7901 64.583 63.7549C64.6883 63.7198 64.7937 63.6998 64.894 63.6546C65.0896 63.5643 65.2701 63.4339 65.4507 63.3186C65.6313 63.2032 65.8068 63.0929 65.9723 62.9675C66.0576 62.9023 66.1429 62.8371 66.2181 62.7568C66.2783 62.6916 66.3585 62.6114 66.3736 62.5211C66.3786 62.491 66.3636 62.4659 66.3335 62.4559H66.3435Z" fill="black"/>
<path d="M103.614 88.3068C103.68 88.4623 103.8 88.5676 103.91 88.693C104.066 88.8736 104.211 89.0592 104.347 89.2498C104.572 89.5658 104.773 89.9118 104.939 90.268C105.104 90.6241 105.245 91.0303 105.34 91.4266C105.435 91.8228 105.561 92.2742 105.591 92.6905C105.731 94.5814 105.004 96.4573 104.051 98.0573C103.489 99.0053 102.832 99.9081 102.185 100.796C102.13 100.871 102.25 100.961 102.315 100.896C103.745 99.4818 104.843 97.641 105.46 95.725C105.761 94.7921 105.952 93.8191 105.937 92.836C105.927 92.3946 105.937 91.9733 105.846 91.5369C105.756 91.1006 105.616 90.6993 105.445 90.3031C105.255 89.8667 105.014 89.4604 104.713 89.0893C104.467 88.7883 104.066 88.3219 103.665 88.2466C103.629 88.2416 103.604 88.2717 103.619 88.3018L103.614 88.3068Z" fill="black"/>
</svg>
