<svg width="160" height="160" viewBox="0 0 160 160" fill="none" xmlns="http://www.w3.org/2000/svg">
<path d="M152.747 101.629C144.325 109.87 129.78 104.543 122.442 113.697C120.255 116.425 120.175 118.612 120.11 120.884C120.105 120.954 120.105 121.03 120.1 121.1C120.034 123.272 119.924 125.539 117.958 128.428C113.298 135.284 94.5147 144.864 79.2369 137.907C77.3511 137.05 75.8413 136.087 74.5623 135.058C74.3015 134.853 74.0557 134.642 73.815 134.426C72.1899 132.997 70.941 131.467 69.7072 129.942C69.652 129.877 69.6018 129.807 69.5466 129.742C66.9485 126.537 64.3504 123.382 58.4219 121.3C51.2244 118.767 49.6394 121.506 37.8426 120.588C30.5197 120.021 8.81183 118.326 3.09396 105.22C3.0087 105.025 2.41186 103.605 1.99054 101.524C1.98051 101.448 1.96542 101.368 1.95038 101.293C1.4137 98.4691 1.24321 94.5217 3.0639 90.78C8.11469 80.3976 23.6733 81.5261 24.8319 74.2233C25.4388 70.3763 21.2607 69.2227 19.6256 62.3963C17.9554 55.4296 20.5435 49.2753 21.9931 45.8346C25.83 36.701 34.7228 28.676 45.657 23.9713C46.0131 23.8158 46.3692 23.6653 46.7303 23.5249C53.3009 20.8565 60.5636 19.3869 67.8814 19.5775C70.1937 19.6377 86.7955 20.0741 95.9592 28.7963C96.1849 29.007 96.4055 29.2277 96.6162 29.4534C97.84 30.7173 98.9034 32.1418 99.756 33.7518C102.154 38.276 101.757 42.2985 100.97 46.0603C100.91 46.3713 100.839 46.6772 100.769 46.9832C99.756 51.5324 98.457 55.7205 101.271 59.9788C106.226 67.4822 118.77 67.1111 130.843 67.8283C130.979 67.8383 131.119 67.8434 131.254 67.8534C140.664 68.4352 149.727 69.7443 154.628 76.0189C160.28 83.2666 159.061 95.4496 152.747 101.629Z" fill="#F2F4F7"/>
<path d="M104.537 56.6926C104.236 54.8183 104.279 51.3948 105.453 50.3142C108.191 47.7956 116.283 58.7341 114.923 61.5574C113.854 63.781 105.658 63.6314 104.537 56.6926Z" fill="#F2F4F7"/>
<path d="M20.6655 60.6747C19.0275 59.2453 20.7711 53.7918 22.8077 53.5642C24.3702 53.39 27.1513 56.1789 26.166 58.766C25.2669 61.1307 21.835 61.6966 20.6607 60.6758L20.6655 60.6747Z" fill="white"/>
<path d="M20.7389 52.9945C20.3517 52.6063 20.7388 51.0304 21.638 50.9205C22.255 50.8432 22.9582 51.4741 22.9365 52.0017C22.9014 52.807 21.1658 53.4221 20.7389 52.9945Z" fill="white"/>
<path d="M139.252 93.5886C138.169 95.3441 136.523 96.6682 134.863 97.857C131.287 100.43 127.325 102.406 123.247 104.061C115.147 107.347 106.6 109.338 98.4897 112.593C90.8859 115.648 83.4025 119.951 78.6275 126.797H78.6225C78.5924 126.843 78.5624 126.878 78.5373 126.918C78.4871 126.993 78.4369 127.068 78.3868 127.143C76.7366 129.581 75.4476 132.254 74.5598 135.058C74.299 134.853 74.0533 134.642 73.8125 134.426C74.625 131.999 75.7335 129.671 77.1129 127.52C77.1831 127.404 77.2533 127.294 77.3285 127.179C77.9354 126.261 78.5874 125.373 79.2896 124.525C84.6614 118.035 92.3555 114.063 100.11 111.128C108.416 107.989 117.128 105.987 125.258 102.376C127.32 101.458 129.336 100.445 131.277 99.2914C133.128 98.183 134.979 96.9792 136.584 95.5247C138.144 94.1203 139.498 92.3347 139.588 90.1579C139.683 87.961 138.59 85.9447 137.321 84.2294C134.858 80.904 130.961 78.3861 129.948 74.1479C129.436 72.0212 129.797 69.7341 130.841 67.8281C130.976 67.8382 131.117 67.8432 131.252 67.8532C130.57 69.1924 130.204 70.6971 130.254 72.1968C130.314 74.2482 131.147 76.0689 132.36 77.699C134.878 81.0695 138.715 83.5372 139.984 87.7403C140.591 89.7316 140.34 91.8131 139.252 93.5886Z" fill="white"/>
<path d="M120.11 120.884C120.105 120.954 120.105 121.03 120.1 121.1C117.838 121.11 115.581 121.175 113.319 121.291C108.759 121.526 104.21 121.948 99.6911 122.585C95.182 123.217 90.698 124.054 86.2642 125.087C83.6209 125.704 80.9977 126.386 78.3895 127.144C77.9632 127.264 77.5419 127.39 77.1156 127.52C75.7964 127.911 74.4773 128.328 73.1682 128.759C72.0096 129.14 70.856 129.531 69.7074 129.943C69.6522 129.877 69.602 129.807 69.5469 129.742C71.202 129.14 72.8623 128.573 74.5375 128.042C75.4654 127.746 76.3983 127.46 77.3312 127.179C77.7626 127.049 78.1939 126.923 78.6252 126.803L78.6303 126.798C81.6798 125.92 84.7494 125.143 87.8491 124.455C92.2879 123.472 96.772 122.69 101.281 122.108C105.82 121.521 110.385 121.14 114.954 120.98C116.669 120.914 118.39 120.884 120.11 120.884Z" fill="white"/>
<path d="M96.6158 29.4534C94.9506 29.5237 93.2904 29.6491 91.6302 29.8246C88.9118 30.1105 86.2033 30.5318 83.5199 31.0785H83.5149C83.0384 31.1688 82.5619 31.2691 82.0854 31.3744H82.0804C80.34 31.7456 78.6096 32.1719 76.8942 32.6384C72.1744 33.9224 67.5299 35.5274 63.0208 37.4233C58.6823 39.2491 54.449 41.3807 50.5469 44.029C43.0183 49.1299 37.3256 56.2321 32.9519 64.1418C30.76 68.0992 28.8842 72.2221 27.1788 76.4102C25.4384 80.6885 23.8484 85.0472 21.5763 89.0798C19.4497 92.8566 16.7161 96.2923 13.0647 98.6948C9.80454 100.842 5.89233 102.05 1.99014 101.524C1.85472 101.509 1.71926 101.489 1.58384 101.463C1.4434 101.438 1.50359 101.233 1.64403 101.253C1.74434 101.268 1.84966 101.283 1.94997 101.293C2.89292 101.418 3.85094 101.443 4.7989 101.373C9.13245 101.032 13.15 98.6948 16.2096 95.7005C19.5099 92.4653 21.6967 88.3174 23.5274 84.1243C25.3632 79.9412 26.8929 75.6277 28.7487 71.4547C30.5594 67.392 32.5857 63.4146 34.9632 59.6528C37.3155 55.9362 40.0139 52.4152 43.1387 49.3055C46.3838 46.0704 50.1005 43.3418 54.0679 41.0547C58.0754 38.7375 62.3186 36.8666 66.6471 35.2415C71.2716 33.5011 76.0064 32.0465 80.8265 30.9481C80.8816 30.9331 80.9419 30.923 80.997 30.908H81.0021C81.4836 30.7976 81.965 30.6923 82.4515 30.592C86.8904 29.6591 91.4196 29.0221 95.9588 28.7964C96.1845 29.007 96.4051 29.2277 96.6158 29.4534Z" fill="white"/>
<path d="M100.969 46.0603C100.909 46.3713 100.839 46.6773 100.768 46.9832C98.1754 43.7431 95.5673 40.4979 92.4124 37.7694C89.3328 35.1111 85.8017 33.0146 82.0851 31.3744H82.0801C81.724 31.2139 81.3629 31.0584 81.0017 30.908H80.9967C80.8463 30.8478 80.6908 30.7826 80.5403 30.7224C76.1817 28.9669 71.6174 27.7832 67.018 26.8653C62.1328 25.8973 57.1873 25.1751 52.2418 24.5882C50.055 24.3274 47.8581 24.1067 45.6562 23.9713C46.0124 23.8158 46.3685 23.6653 46.7296 23.5249C49.3077 23.6653 51.8807 23.9211 54.4437 24.2271C59.319 24.8039 64.1892 25.466 68.9992 26.4691C73.5986 27.4221 78.1377 28.7111 82.4512 30.592C82.4713 30.602 82.4864 30.607 82.5065 30.6171C82.8475 30.7675 83.1785 30.918 83.5145 31.0785H83.5196C87.4769 32.9142 91.1534 35.3268 94.3233 38.3312C96.1842 40.0867 97.8644 42.0177 99.4493 44.024C99.976 44.691 100.483 45.3682 100.969 46.0603Z" fill="white"/>
<path d="M36.5176 60.9114C49.2023 55.339 58.5014 51.2763 59.1032 51.0455C59.4543 50.9151 59.8054 50.9101 59.8054 50.9101C60.2318 50.9051 60.5628 51.0355 60.7283 51.1208C63.5923 52.6355 66.5816 54.3509 69.6512 56.2969C71.3716 57.3904 73.0117 58.4838 74.5766 59.5772C77.0694 58.0474 79.6374 56.5176 82.2706 54.9879C84.9791 53.4129 87.6524 51.9082 90.2907 50.4637C90.5414 50.3383 91.028 50.1377 91.675 50.1377C92.2418 50.1377 92.6781 50.2982 92.9239 50.4085C96.0236 51.8129 99.3189 53.4681 102.74 55.4092C105.222 56.8186 107.54 58.2531 109.681 59.6675C109.882 59.7477 110.333 59.9584 110.679 60.4449C110.905 60.7609 110.995 61.0719 111.035 61.2675C113.443 67.9584 115.901 74.6894 118.399 81.4506C121.834 90.7496 125.295 99.9484 128.776 109.042C128.786 109.077 128.896 109.458 128.686 109.709C128.46 109.975 127.943 110.015 127.547 109.679C125.2 108.671 122.702 107.688 120.049 106.765C113.674 104.548 107.685 103.098 102.308 102.15C97.4531 104.447 92.5227 106.855 87.5221 109.368C81.9346 112.177 76.5026 115.005 71.2311 117.829C71.0255 117.92 70.6844 118.035 70.2531 118.045C69.6963 118.055 69.27 117.884 69.0543 117.779C61.7415 113.922 54.4286 110.06 47.1158 106.203C47.0305 106.128 46.8449 105.992 46.5741 105.947C46.1177 105.872 45.7766 106.118 45.7114 106.168C35.4342 109.032 25.1521 111.896 14.875 114.76C21.5509 97.5509 28.2268 80.3421 34.9026 63.1283C34.9528 62.8775 35.0431 62.5465 35.2337 62.1954C35.6349 61.4631 36.2217 61.0769 36.5176 60.9114Z" fill="#F2F4F7"/>
<path d="M112.783 104.217C112.783 104.217 112.813 104.167 113.289 104.101C114.057 103.991 114.924 103.871 116.033 103.981C118.184 104.202 118.736 105.059 120.647 105.225C121.42 105.29 123.325 105.456 124.489 104.337C125.703 103.173 125.798 100.911 124.85 98.7095C126.129 102.376 127.408 106.037 128.692 109.704C115.847 105.767 112.707 104.513 112.783 104.217Z" fill="white"/>
<path d="M47.1367 105.751C47.5731 105.546 48.3054 105.265 49.2082 105.28C51.6007 105.315 52.4834 107.382 54.8859 108.711C57.6495 110.24 61.9229 110.516 63.874 108.415C64.2652 107.993 65.168 106.825 65.0276 104.387C66.121 104.944 67.2144 105.496 68.3079 106.052C67.9116 107.116 67.4602 108.736 67.4803 110.722C67.5204 114.228 69 116.781 69.7273 117.879C62.1987 113.837 54.6652 109.799 47.1367 105.756V105.751Z" fill="white"/>
<path d="M42.5102 63.961C43.2475 63.5648 49.4619 60.766 58.0086 57.0293C58.3146 56.8588 58.9215 56.5729 59.7391 56.5428C60.4463 56.5127 60.998 56.6832 61.314 56.8086C63.9322 57.6463 66.9015 58.8249 70.0262 60.5102C71.5159 61.3127 72.8801 62.1453 74.114 62.9679C76.0701 61.8143 78.1967 60.6557 80.5039 59.5321C83.6889 57.9773 86.7234 56.7184 89.5372 55.6952C89.7779 55.5999 90.1942 55.4745 90.7208 55.4895C91.3077 55.5046 91.7541 55.6952 91.9949 55.8155C93.8507 56.8989 95.7566 58.0575 97.7027 59.3064C99.6538 60.5553 101.505 61.8042 103.27 63.0381C103.436 63.0983 103.812 63.2538 104.098 63.6199C104.283 63.8557 104.358 64.0864 104.394 64.2318C106.395 69.2425 108.431 74.2782 110.508 79.339C113.362 86.3008 116.236 93.1873 119.125 99.9936C119.135 100.019 119.225 100.305 119.049 100.49C118.864 100.691 118.432 100.721 118.106 100.47C116.155 99.7127 114.084 98.9804 111.882 98.2883C106.59 96.6281 101.615 95.5447 97.151 94.8325C93.1184 96.5528 89.0206 98.3535 84.8726 100.234C80.2331 102.336 75.724 104.453 71.3454 106.569C71.1748 106.634 70.8939 106.725 70.5328 106.73C70.0713 106.74 69.7152 106.609 69.5397 106.529C63.4657 103.64 57.3917 100.751 51.3178 97.8619C51.2475 97.8068 51.092 97.7064 50.8663 97.6713C50.4902 97.6162 50.2043 97.7967 50.1491 97.8368C41.6124 99.9836 33.0757 102.125 24.5391 104.272C30.0814 91.3867 35.6237 78.5064 41.1711 65.6212C41.2112 65.4306 41.2914 65.1848 41.4469 64.924C41.5773 64.7133 42.0086 64.2318 42.5152 63.961H42.5102Z" fill="white"/>
<path d="M85.7509 74.4889C86.0368 74.509 85.5853 74.9504 85.465 74.6946C85.3446 74.4388 85.6054 74.1729 85.8361 74.0074C88.6549 71.9961 91.3133 69.7692 93.781 67.3466C94.0368 67.0958 94.3277 66.825 94.6838 66.82C94.9346 66.815 95.1703 66.9403 95.391 67.0657C98.4054 68.756 101.425 70.4513 104.439 72.1416C104.58 75.3918 104.715 78.6369 104.856 81.8871C104.866 82.0726 104.861 82.2833 104.73 82.4137C104.605 82.5391 104.409 82.5441 104.234 82.5441C102.473 82.524 100.713 82.509 98.9571 82.4889C98.4807 82.4889 97.9992 82.4789 97.5478 82.6294C97.1064 82.7798 96.7252 83.0657 96.349 83.3516C94.0869 85.077 91.8249 86.8074 89.5628 88.5328C87.6117 84.1291 85.9916 79.5748 84.7227 74.9303C85.2343 74.6093 85.7509 74.2933 86.2625 73.9723" fill="#A9A9A9"/>
<path d="M37.375 75.2963C41.9342 78.5415 46.4885 81.7866 51.0477 85.0317C52.2615 87.7603 53.4803 90.4888 54.6941 93.2173C59.1631 89.4606 63.6371 85.6988 68.106 81.9421C67.449 77.423 66.9073 72.6179 66.5311 67.5521C66.2954 64.3973 66.1449 61.3377 66.0597 58.3835C64.0685 57.7916 62.0772 57.1998 60.086 56.6079C57.5832 57.596 55.0402 58.6393 52.4572 59.7427C48.7406 61.3277 45.1644 62.9427 41.7286 64.5678C40.2791 68.144 38.8245 71.7201 37.375 75.2963Z" fill="#A9A9A9"/>
<path d="M61.2344 102.582C66.5761 97.4356 71.9177 92.2945 77.2594 87.1484C80.1033 91.3716 82.9472 95.5898 85.7911 99.813C80.976 102.065 76.156 104.317 71.341 106.564C67.9704 105.235 64.6049 103.906 61.2344 102.577V102.582Z" fill="#F2F4F7"/>
<path d="M85.7433 74.5292C85.8386 74.5643 85.7183 74.6094 85.6882 74.6345C85.5578 74.7398 85.6029 74.5191 85.6831 74.4138C85.7684 74.2985 85.9289 74.2132 86.0493 74.1329C86.3703 73.9122 86.6913 73.6966 87.0073 73.4659C87.5941 73.0445 88.1659 72.6082 88.7326 72.1618C89.8963 71.2489 91.0248 70.2959 92.1232 69.3079C92.6549 68.8263 93.1816 68.3348 93.6982 67.8332C93.9289 67.6126 94.1747 67.3016 94.4706 67.1662C94.8418 67.0006 95.2079 67.2916 95.5189 67.4671C96.8781 68.2345 98.2374 69.0069 99.6016 69.7693C101.162 70.647 102.726 71.5198 104.286 72.4075L104.131 72.1417C104.201 73.9724 104.276 75.8082 104.356 77.6389C104.397 78.5568 104.437 79.4696 104.472 80.3875L104.527 81.6364C104.527 81.7467 104.602 82.0928 104.507 82.1831C104.392 82.2984 103.95 82.2132 103.805 82.2132C102.044 82.1931 100.274 82.1229 98.5182 82.163C97.6856 82.1831 97.0235 82.4439 96.3665 82.9405C95.6492 83.4771 94.9421 84.0289 94.2299 84.5756C92.6248 85.8044 91.0198 87.0332 89.4097 88.2571L89.8361 88.3674C87.9201 83.9787 86.3251 79.4445 85.0612 74.8301L84.9007 75.2213C85.4424 74.8853 85.954 74.5542 86.4405 74.143C86.6762 73.9474 86.3753 73.6464 86.1396 73.7517C85.5778 73.9975 85.0762 74.2985 84.5546 74.6245C84.4242 74.7047 84.3539 74.8652 84.3941 75.0157C85.6731 79.6953 87.3132 84.2596 89.2944 88.6834C89.3596 88.8238 89.5953 88.889 89.7207 88.7938C91.2605 87.6201 92.8054 86.4414 94.3452 85.2677C95.0976 84.6959 95.8449 84.1191 96.5972 83.5524C96.9183 83.3116 97.2493 83.0608 97.6304 82.9304C98.0568 82.785 98.5132 82.795 98.9546 82.8C99.9377 82.81 100.921 82.8201 101.899 82.8301C102.35 82.8301 102.797 82.8401 103.248 82.8452C103.669 82.8452 104.171 82.9254 104.582 82.8251C104.913 82.7448 105.119 82.4991 105.159 82.163C105.219 81.7116 105.139 81.2101 105.119 80.7536C105.079 79.7956 105.039 78.8376 104.999 77.8796C104.958 76.9216 104.913 75.8784 104.873 74.8803C104.853 74.4238 104.833 73.9624 104.813 73.506L104.783 72.879C104.773 72.6282 104.818 72.2822 104.738 72.0464C104.672 71.8608 104.482 71.7956 104.321 71.7104C104.121 71.6 103.92 71.4897 103.719 71.3743C103.283 71.1285 102.847 70.8828 102.41 70.642C101.573 70.1756 100.74 69.7041 99.9026 69.2376C99.0649 68.7712 98.1571 68.2646 97.2844 67.7731C96.8831 67.5474 96.4819 67.3267 96.0856 67.101C95.7095 66.8903 95.3082 66.5944 94.8718 66.5292C94.0793 66.4088 93.4975 67.2163 92.996 67.6978C92.354 68.3198 91.6969 68.9267 91.0248 69.5185C89.5001 70.8727 87.9101 72.1517 86.285 73.3806C85.959 73.6263 85.5226 73.8721 85.337 74.2533C85.2417 74.4539 85.2317 74.8151 85.5076 74.8803C85.7835 74.9455 86.0894 74.4439 85.7534 74.4389C85.7032 74.4389 85.6982 74.5041 85.7433 74.5191V74.5292Z" fill="black"/>
<path d="M36.5176 60.9114C49.2023 55.339 58.5014 51.2763 59.1032 51.0455C59.4543 50.9151 59.8054 50.9101 59.8054 50.9101C60.2318 50.9051 60.5628 51.0355 60.7283 51.1208C63.5923 52.6355 66.5816 54.3509 69.6512 56.2969C71.3716 57.3904 73.0117 58.4838 74.5766 59.5772C77.0694 58.0474 79.6374 56.5176 82.2706 54.9879C84.9791 53.4129 87.6524 51.9082 90.2907 50.4637C90.5414 50.3383 91.028 50.1377 91.675 50.1377C92.2418 50.1377 92.6781 50.2982 92.9239 50.4085C96.0236 51.8129 99.3189 53.4681 102.74 55.4092C105.222 56.8186 107.54 58.2531 109.681 59.6675C109.882 59.7477 110.333 59.9584 110.679 60.4449C110.905 60.7609 110.995 61.0719 111.035 61.2675C113.443 67.9584 115.901 74.6894 118.399 81.4506C121.834 90.7496 125.295 99.9484 128.776 109.042C128.786 109.077 128.896 109.458 128.686 109.709C128.46 109.975 127.943 110.015 127.547 109.679C125.2 108.671 122.702 107.688 120.049 106.765C113.674 104.548 107.685 103.098 102.308 102.15C97.4531 104.447 92.5227 106.855 87.5221 109.368C81.9346 112.177 76.5026 115.005 71.2311 117.829C71.0255 117.92 70.6844 118.035 70.2531 118.045C69.6963 118.055 69.27 117.884 69.0543 117.779C61.7415 113.922 54.4286 110.06 47.1158 106.203C47.0305 106.128 46.8449 105.992 46.5741 105.947C46.1177 105.872 45.7766 106.118 45.7114 106.168C35.4342 109.032 25.1521 111.896 14.875 114.76C21.5509 97.5509 28.2267 80.3421 34.9026 63.1283C34.9528 62.8775 35.0431 62.5465 35.2337 62.1954C35.6349 61.4631 36.2217 61.0769 36.5176 60.9114Z" stroke="black" stroke-width="0.8" stroke-linecap="round" stroke-linejoin="round"/>
<path d="M42.5102 63.961C43.2475 63.5648 49.4619 60.766 58.0086 57.0293C58.3146 56.8588 58.9215 56.5729 59.7391 56.5428C60.4463 56.5127 60.998 56.6832 61.314 56.8086C63.9322 57.6463 66.9015 58.8249 70.0262 60.5102C71.5159 61.3127 72.8801 62.1453 74.114 62.9679C76.0701 61.8143 78.1967 60.6557 80.5039 59.5321C83.6889 57.9773 86.7234 56.7184 89.5372 55.6952C89.7779 55.5999 90.1942 55.4745 90.7209 55.4895C91.3077 55.5046 91.7541 55.6952 91.9949 55.8155C93.8507 56.8989 95.7566 58.0575 97.7027 59.3064C99.6538 60.5553 101.505 61.8042 103.27 63.0381C103.436 63.0983 103.812 63.2538 104.098 63.6199C104.283 63.8557 104.358 64.0864 104.394 64.2318C106.395 69.2425 108.431 74.2782 110.508 79.339C113.362 86.3008 116.236 93.1873 119.125 99.9936C119.135 100.019 119.225 100.305 119.049 100.49C118.864 100.691 118.432 100.721 118.106 100.47C116.155 99.7127 114.084 98.9804 111.882 98.2883C106.59 96.6281 101.615 95.5447 97.151 94.8325C93.1184 96.5528 89.0206 98.3535 84.8726 100.234C80.2331 102.336 75.724 104.453 71.3454 106.569C71.1748 106.634 70.8939 106.725 70.5328 106.73C70.0713 106.74 69.7152 106.609 69.5397 106.529C63.4657 103.64 57.3917 100.751 51.3178 97.8619C51.2475 97.8068 51.092 97.7064 50.8663 97.6713C50.4902 97.6162 50.2043 97.7967 50.1491 97.8368C41.6124 99.9836 33.0757 102.125 24.5391 104.272C30.0814 91.3867 35.6237 78.5064 41.1711 65.6212C41.2112 65.4306 41.2914 65.1848 41.4469 64.924C41.5773 64.7133 42.0086 64.2318 42.5152 63.961H42.5102Z" stroke="black" stroke-width="0.8" stroke-linecap="round" stroke-linejoin="round"/>
<path d="M59.5845 53.2373C58.812 55.9608 58.0447 58.6793 57.2773 61.3978C54.7193 70.4712 52.1763 79.5495 49.6484 88.6329" stroke="black" stroke-width="0.8" stroke-linecap="round" stroke-linejoin="round"/>
<path d="M48.7603 90.9404C47.9929 95.1385 47.2205 99.3367 46.4531 103.535" stroke="black" stroke-width="0.8" stroke-linecap="round" stroke-linejoin="round"/>
<path d="M74.2164 59.3267C73.0628 74.2082 71.9142 89.0947 70.7656 103.976" stroke="black" stroke-width="0.8" stroke-linecap="round" stroke-linejoin="round"/>
<path d="M91.875 57.937C93.0085 63.8003 94.2173 69.7439 95.5114 75.7677C96.2938 79.4141 97.0913 83.0204 97.9089 86.5916" stroke="black" stroke-width="0.8" stroke-linecap="round" stroke-linejoin="round"/>
<path d="M36.9338 74.8702C37.626 75.5072 38.3833 76.0489 39.1407 76.6057C39.8981 77.1624 40.6956 77.7392 41.473 78.306C42.9928 79.4144 44.5125 80.5229 46.0373 81.6263C46.8147 82.1931 47.5921 82.7549 48.3746 83.3216C49.0667 83.8232 49.784 84.2997 50.4159 84.8815C51.5445 85.9147 52.2066 87.284 52.7081 88.7085C53.2599 90.2784 53.6712 91.8934 54.4085 93.3931C54.5088 93.6038 54.7846 93.5887 54.9351 93.4633C58.9978 90.0577 63.0505 86.637 67.1282 83.2514C67.5495 82.9053 68.1363 82.5542 68.3721 82.0426C68.6078 81.531 68.4322 80.9292 68.3419 80.4025C68.1162 79.1085 67.9006 77.8144 67.71 76.5104C67.3288 73.9172 67.0178 71.3091 66.7871 68.701C66.5213 65.7568 66.3458 62.8025 66.2605 59.8483C66.2505 59.4972 65.7087 59.4972 65.7137 59.8483C65.8341 64.9643 66.2505 70.0652 66.9426 75.1361C67.1182 76.4151 67.3088 77.6941 67.5194 78.9731C67.6248 79.6 67.73 80.227 67.8454 80.8539C67.9006 81.1499 67.9959 81.516 67.8605 81.8069C67.7451 82.0627 67.4642 82.2383 67.2536 82.4138C65.2573 84.079 63.2511 85.7342 61.2448 87.3894C58.9827 89.2552 56.7156 91.121 54.4536 92.9868L54.9802 93.0571C53.6962 90.3988 53.4354 87.2238 51.4091 84.9467C50.8524 84.3198 50.1702 83.8182 49.4931 83.3267C48.7207 82.7699 47.9432 82.2182 47.1708 81.6665C45.6059 80.553 44.036 79.4445 42.4711 78.3361C41.5834 77.7091 40.7006 77.0821 39.8128 76.4552C38.925 75.8282 38.0574 75.1812 37.1044 74.6596C36.969 74.5843 36.8134 74.7699 36.9338 74.8803V74.8702Z" fill="black"/>
<path d="M35.4031 79.9509C35.5285 80.2568 35.7592 80.4474 36.0251 80.648C36.3912 80.9239 36.7573 81.1948 37.1285 81.4656C37.8006 81.9521 38.4777 82.4336 39.1498 82.9151C40.5492 83.9183 41.9536 84.9114 43.358 85.9095C44.6219 86.8073 45.9762 87.6399 47.1248 88.6882C47.6564 89.1697 48.1128 89.7214 48.4338 90.3634C48.7849 91.0656 49.0006 91.833 49.2414 92.5753C49.5373 93.4731 49.8282 94.3709 50.1241 95.2687C50.42 96.1665 50.6909 97.1245 51.052 98.0173C51.1774 98.3333 51.6639 98.223 51.5787 97.8719C51.373 97.0393 51.0771 96.2167 50.8213 95.3991C50.5655 94.5816 50.2996 93.754 50.0388 92.9314C49.5724 91.4618 49.2012 89.927 48.1529 88.7433C47.1047 87.5596 45.7906 86.8023 44.5567 85.9446C43.1122 84.9415 41.6677 83.9283 40.2182 82.9352C39.4157 82.3835 38.6131 81.8317 37.8106 81.285C37.3993 81.0042 36.9881 80.7233 36.5768 80.4524C36.2207 80.2167 35.8645 79.9408 35.4332 79.9258C35.4181 79.9258 35.3981 79.9458 35.4031 79.9609V79.9509Z" fill="black"/>
<path d="M55.1266 99.2512C55.6733 99.0505 56.1649 98.6142 56.6313 98.2631C57.1279 97.8919 57.6195 97.5107 58.111 97.1295C59.1442 96.327 60.1674 95.5145 61.1956 94.702C63.2119 93.107 65.2232 91.4919 67.2345 89.8919C67.8012 89.4405 68.368 88.9841 68.9348 88.5277C69.2257 88.2919 69.5216 88.0662 69.8075 87.8255C70.0934 87.5847 70.3292 87.2988 70.585 87.028C70.6903 86.9176 70.5548 86.7371 70.4194 86.8173C70.1536 86.9728 69.8828 87.1132 69.6219 87.2838C69.3611 87.4543 69.1254 87.665 68.8796 87.8606C68.3731 88.2568 67.8665 88.6581 67.3649 89.0543C66.3367 89.8668 65.3235 90.6844 64.3003 91.5019C62.2941 93.107 60.2778 94.707 58.2916 96.3421C57.7298 96.8035 57.168 97.2599 56.6163 97.7314C56.0997 98.1728 55.4577 98.6142 55.0865 99.191C55.0715 99.2161 55.0965 99.2562 55.1266 99.2462V99.2512Z" fill="black"/>
<path d="M62.2812 101.864L62.1558 101.729L62.2462 101.609C62.2963 101.553 62.3515 101.508 62.4066 101.458C62.522 101.348 62.6423 101.232 62.7577 101.117C63.0185 100.861 63.2844 100.61 63.5502 100.355C64.0367 99.8932 64.5182 99.4268 64.9998 98.9553C65.9728 98.0023 66.9458 97.0544 67.9239 96.1064C69.8499 94.2406 71.796 92.3898 73.7571 90.5591C74.3239 90.0324 74.8906 89.5058 75.4574 88.9842C75.7283 88.7384 75.9941 88.4876 76.2649 88.2418C76.5358 87.9961 76.8317 87.7904 76.9621 87.4343C77.0123 87.2989 76.8618 87.1735 76.7364 87.2086C76.4054 87.2989 76.2048 87.5396 75.959 87.7654C75.658 88.0412 75.3621 88.3171 75.0612 88.5929C74.4944 89.1196 73.9276 89.6412 73.3659 90.1729C72.2373 91.2262 71.1189 92.2895 70.0004 93.3578C67.7734 95.4945 65.5364 97.6312 63.4047 99.8682C63.0938 100.194 62.7878 100.515 62.4769 100.841C62.2712 101.057 61.9352 101.308 61.8449 101.604C61.7847 101.799 61.8549 102.01 62.0706 102.04C62.1959 102.06 62.3113 102.025 62.3464 101.9C62.3565 101.864 62.3063 101.839 62.2863 101.874L62.2812 101.864Z" fill="black"/>
<path d="M76.8124 85.9347C76.6218 86.1705 76.7071 86.4313 76.8124 86.6921C76.993 87.1335 77.2839 87.5398 77.5297 87.951C78.0613 88.8438 78.6281 89.7115 79.1848 90.5893C80.3133 92.3548 81.4318 94.1304 82.5754 95.8858C83.2174 96.8739 83.8293 97.8971 84.5165 98.8601C84.7673 99.2112 85.329 98.9003 85.1033 98.5191C84.4613 97.4557 83.7391 96.4325 83.0519 95.3943C82.3648 94.3561 81.6776 93.3128 80.9754 92.2846C80.2732 91.2564 79.5861 90.2131 78.8839 89.1799C78.5328 88.6633 78.1817 88.1467 77.8206 87.6401C77.65 87.4043 77.4845 87.1636 77.309 86.9278C77.1334 86.6921 76.7121 86.346 76.9128 86.015C76.9479 85.9548 76.8575 85.8796 76.8124 85.9347Z" fill="black"/>
<path d="M86.0133 58.2479C85.597 58.6592 85.296 59.1758 84.9549 59.6523C84.5838 60.1689 84.2477 60.7156 83.9117 61.2573C83.2596 62.3257 82.6427 63.4191 82.0509 64.5275C80.8772 66.7194 79.7938 68.9614 78.8107 71.2485C78.259 72.5326 77.7374 73.8316 77.2458 75.1457C77.0903 75.562 77.7625 75.7476 77.913 75.3313C79.6283 70.6717 81.76 66.2178 84.1524 61.8692C84.4784 61.2774 84.8095 60.6906 85.1355 60.0987C85.4616 59.5069 85.8327 58.915 86.0634 58.283C86.0735 58.2529 86.0283 58.2279 86.0083 58.2529L86.0133 58.2479Z" fill="black"/>
<path d="M77.2666 75.1559C77.4723 75.4518 77.5876 75.7979 77.7531 76.1189C77.9538 76.5151 78.1594 76.9063 78.3701 77.2976C78.7764 78.0499 79.1726 78.8073 79.5788 79.5546C80.3964 81.0543 81.204 82.559 82.0015 84.0687C83.5764 87.053 85.1161 90.0574 86.6058 93.0819C87.0171 93.9195 87.4234 94.7621 87.8297 95.6048C88.2359 96.4474 88.6221 97.4004 89.1036 98.238C89.2992 98.5791 89.9112 98.3483 89.7607 97.9621C89.4547 97.1797 89.0434 96.4273 88.6723 95.675C88.3011 94.9226 87.9149 94.1452 87.5337 93.3828C86.7713 91.8581 86.0039 90.3333 85.2215 88.8135C83.6516 85.759 82.0315 82.7295 80.3663 79.7251C79.9049 78.8875 79.4284 78.065 78.9469 77.2374C78.7011 76.8161 78.4603 76.3947 78.1945 75.9834C77.9638 75.6223 77.708 75.3465 77.387 75.0606C77.3268 75.0054 77.2165 75.0806 77.2666 75.1508V75.1559Z" fill="black"/>
<path d="M47.086 73.1898C42.8076 67.7478 31.3268 53.1371 36.839 40.0563C38.439 36.2594 40.8465 34.0726 41.4032 33.5861C46.5945 29.0168 52.869 29.2676 53.7317 29.3127C54.8954 29.3779 59.7806 29.7691 64.0239 33.4857C66.4716 35.6324 67.6452 37.9597 68.1017 38.8876C74.7374 52.3948 60.849 70.4462 58.5569 73.4205C57.3631 74.9754 55.5123 77.1221 53.0546 77.1672C50.4966 77.2124 48.4904 74.9654 47.091 73.1848L47.086 73.1898Z" fill="#C9C8C8"/>
<path d="M47.6524 69.3827C47.9784 69.0115 49.8693 69.7689 49.8693 70.4911C49.8693 70.8623 49.3728 71.2285 48.9364 71.2435C48.0085 71.2786 47.3615 69.7087 47.6524 69.3827Z" fill="white"/>
<path d="M49.9616 72.3973C50.1722 72.1215 50.9245 72.8086 52.359 72.8387C54.3402 72.8788 55.4587 71.6149 55.8198 71.9961C56.1358 72.3271 55.5741 73.6111 54.6211 74.3033C54.5459 74.3584 53.3772 75.176 52.0029 74.7446C50.5684 74.2983 49.6957 72.7434 49.9616 72.3923V72.3973Z" fill="white"/>
<path d="M61.8517 32.3971C61.5859 33.3902 61.4054 34.7595 62.1176 35.7877C62.89 36.9012 63.9634 36.53 64.816 37.4429C66.411 39.1482 64.169 42.0272 65.2875 44.8962C65.6988 45.9444 66.7069 47.3689 69.5458 48.5024C69.8116 46.9977 70.0323 44.4748 69.1897 41.5808C67.5395 35.9231 63.0455 33.0993 61.8467 32.3921L61.8517 32.3971Z" fill="white"/>
<path d="M47.086 73.1898C42.8076 67.7478 31.3268 53.1371 36.839 40.0563C38.439 36.2594 40.8465 34.0726 41.4032 33.5861C46.5945 29.0168 52.869 29.2676 53.7317 29.3127C54.8954 29.3779 59.7806 29.7691 64.0239 33.4857C66.4716 35.6324 67.6452 37.9597 68.1017 38.8876C74.7374 52.3948 60.849 70.4462 58.5569 73.4205C57.3631 74.9754 55.5123 77.1221 53.0546 77.1672C50.4966 77.2124 48.4904 74.9654 47.091 73.1848L47.086 73.1898Z" stroke="black" stroke-width="0.8" stroke-linecap="round" stroke-linejoin="round"/>
<path d="M54.5115 54.3841C58.6908 53.2744 61.1792 48.9868 60.0695 44.8076C58.9599 40.6283 54.6723 38.1399 50.493 39.2495C46.3138 40.3592 43.8254 44.6468 44.935 48.8261C46.0447 53.0053 50.3323 55.4937 54.5115 54.3841Z" fill="#F2F4F7"/>
<path d="M54.5115 54.3841C58.6908 53.2744 61.1792 48.9868 60.0695 44.8076C58.9599 40.6283 54.6723 38.1399 50.493 39.2495C46.3138 40.3592 43.8254 44.6468 44.935 48.8261C46.0447 53.0053 50.3323 55.4937 54.5115 54.3841Z" stroke="black" stroke-width="0.8" stroke-linecap="round" stroke-linejoin="round"/>
<path d="M110.701 94.035C108.57 91.3216 102.847 84.0438 105.595 77.5234C106.393 75.6325 107.592 74.5441 107.868 74.2984C110.456 72.0212 113.58 72.1466 114.012 72.1717C114.594 72.2018 117.026 72.3974 119.138 74.2532C120.357 75.3216 120.943 76.4802 121.169 76.9466C124.474 83.6777 117.553 92.6708 116.414 94.1554C115.817 94.9278 114.899 96.0012 113.671 96.0212C112.397 96.0463 111.394 94.9228 110.696 94.035H110.701Z" fill="#C9C8C8"/>
<path d="M114.403 84.6817C116.486 84.1287 117.726 81.9918 117.173 79.9088C116.62 77.8259 114.483 76.5857 112.4 77.1387C110.317 77.6918 109.077 79.8287 109.63 81.9116C110.183 83.9946 112.32 85.2348 114.403 84.6817Z" fill="#F2F4F7"/>
<path d="M114.403 84.6817C116.486 84.1287 117.726 81.9918 117.173 79.9088C116.62 77.8259 114.483 76.5857 112.4 77.1387C110.317 77.6918 109.077 79.8287 109.63 81.9116C110.183 83.9946 112.32 85.2348 114.403 84.6817Z" stroke="black" stroke-width="0.8" stroke-linecap="round" stroke-linejoin="round"/>
<path d="M110.701 94.035C108.57 91.3216 102.847 84.0438 105.595 77.5234C106.393 75.6325 107.592 74.5441 107.868 74.2984C110.456 72.0212 113.58 72.1466 114.012 72.1717C114.594 72.2018 117.026 72.3974 119.138 74.2532C120.357 75.3216 120.943 76.4802 121.169 76.9466C124.474 83.6777 117.553 92.6708 116.414 94.1554C115.817 94.9278 114.899 96.0012 113.671 96.0212C112.397 96.0463 111.394 94.9228 110.696 94.035H110.701Z" stroke="black" stroke-width="0.8" stroke-linecap="round" stroke-linejoin="round"/>
</svg>
