<svg width="160" height="160" viewBox="0 0 160 160" fill="none" xmlns="http://www.w3.org/2000/svg">
<path d="M148.719 114.695C136.41 125.665 119.121 120.664 117.305 120.107C115.781 119.636 116.352 119.686 113.152 118.557C111.066 117.825 108.934 117.078 106.737 116.386C106.211 116.215 105.674 116.055 105.142 115.894C100.438 114.5 95.407 113.421 89.8597 113.336C85.16 113.266 80.4001 113.196 75.0735 115.658C73.3431 116.461 71.4271 117.584 62.8001 125.9C59.0334 129.532 56.8365 131.789 55.3368 133.349C54.8653 133.83 54.4691 134.247 54.113 134.613C52.7387 136.022 51.9663 136.729 50.3312 137.888C45.8321 141.053 40.5155 144.825 33.2277 144.649C29.8572 144.569 25.1926 143.631 21.4058 141.494C21.0096 141.273 20.6234 141.033 20.2522 140.792C18.2008 139.413 16.5105 137.637 15.6027 135.39C12.5932 127.932 19.8559 119.465 21.9675 111.375C22.1782 110.563 22.3387 109.755 22.429 108.957C22.6848 106.751 22.429 104.589 21.3456 102.492C20.9243 101.675 20.3675 100.847 19.8259 100.115C19.6553 99.8841 19.4898 99.6634 19.3293 99.4528C19.219 99.3073 19.1186 99.1719 19.0183 99.0415C14.5744 93.2032 10.6873 91.849 7.51739 88.6992C5.16504 86.3568 3.74059 83.5581 2.88291 81.0051C2.73746 80.5838 2.61206 80.1725 2.50171 79.7713C1.67914 76.8522 1.56378 74.4446 1.52867 73.7173C1.10234 64.7794 6.2384 56.4534 12.4478 51.8741C18.2259 47.6158 25.313 46.3067 31.5525 46.392C31.7632 46.392 31.9788 46.392 32.1895 46.407C37.2804 46.5525 41.7343 47.6007 44.3525 48.6891C44.9945 48.96 46.3136 49.5568 48.2196 49.7524C54.4139 50.3944 59.4647 46.0509 61.165 44.6314C65.5537 40.975 92.5682 18.4597 117.225 15.1543C121.273 14.6126 127.332 13.8703 133.621 15.7763C134.043 15.9067 134.464 16.0472 134.885 16.1976C136.44 16.7594 138.005 17.4917 139.55 18.4396C148.433 23.8917 153.609 34.565 153.082 42.7004C152.591 50.2139 149.31 55.7462 149.31 55.7462C148.924 56.4032 148.568 56.9199 148.147 57.8728C147.445 59.4678 146.557 62.3067 147.124 66.6603C147.174 67.0716 147.239 67.5029 147.324 67.9493C147.369 68.1951 147.415 68.4459 147.47 68.7017C147.946 70.9186 148.553 72.4233 149.326 73.8929C149.456 74.1386 149.591 74.3794 149.727 74.6302C150.74 76.4359 151.999 78.3619 153.559 81.6522C155.876 86.5475 157.687 90.3644 158.003 94.5976C158.82 105.467 149.476 114.033 148.724 114.705L148.719 114.695Z" fill="#F2F4F7"/>
<path d="M32.1741 46.3951C30.7396 49.7355 28.8888 52.9155 26.9528 55.985C24.9465 59.1449 22.6744 62.1543 20.2619 65.0183C17.8544 67.8872 15.2663 70.6057 12.5227 73.1537C9.77411 75.7117 6.87002 78.0991 3.83053 80.306C3.51454 80.5368 3.19354 80.7675 2.86752 80.9932C2.72207 80.5719 2.59667 80.1606 2.48633 79.7594C3.10326 79.323 3.71517 78.8766 4.32207 78.4252C7.26627 76.2183 10.07 73.8308 12.7283 71.2879C15.4017 68.7299 17.9296 66.0114 20.2869 63.1575C22.6393 60.3086 24.8312 57.3142 26.8525 54.2245C27.8656 52.6697 28.8437 51.0848 29.7816 49.4848C30.2481 48.6873 30.6945 47.8847 31.1459 47.0772C31.2763 46.8415 31.4017 46.6107 31.5321 46.375C31.7428 46.375 31.9584 46.375 32.1691 46.3901L32.1741 46.3951Z" fill="white"/>
<path d="M134.871 16.1869C124.754 20.3249 114.914 25.0948 105.464 30.607C95.8089 36.2346 86.56 42.5944 77.8829 49.6414C69.271 56.6333 61.1958 64.2672 53.7675 72.5029C49.4591 77.2778 45.3914 82.2734 41.3588 87.2791C40.5914 88.2321 39.824 89.185 39.0566 90.143C38.6403 90.6646 38.219 91.1863 37.7976 91.7079C34.8585 95.3643 31.9243 99.0258 28.9851 102.687C26.6478 105.586 24.2854 108.475 21.9531 111.379C22.1638 110.572 22.3243 109.764 22.4146 108.967C25.1882 105.506 27.9669 102.04 30.7456 98.5744C32.3205 96.6133 33.8854 94.6421 35.4503 92.6759C35.8666 92.1543 36.2829 91.6327 36.6992 91.1161C42.7732 83.4872 48.9074 75.8985 55.5632 68.7762C63.2371 60.5756 71.5531 52.9719 80.4158 46.0703C89.2685 39.1788 98.6277 32.9593 108.438 27.5223C113.319 24.8189 118.309 22.301 123.41 20.0239C126.766 18.5293 130.156 17.0747 133.602 15.7656C134.023 15.896 134.445 16.0365 134.866 16.1869H134.871Z" fill="white"/>
<path d="M147.314 67.9374C144.791 67.9073 142.263 67.9124 139.735 68.0077C134.524 68.1983 129.328 68.6196 124.152 69.2315C113.804 70.4453 103.557 72.4115 93.4158 74.7638C83.6302 77.0309 73.9098 79.5989 64.2847 82.4729C55.3317 85.1513 46.459 88.1556 37.807 91.7017C37.486 91.8321 37.165 91.9625 36.8389 92.098C36.3775 92.2886 35.9161 92.4792 35.4596 92.6698C31.3819 94.3901 27.3543 96.2409 23.3919 98.2321C22.1932 98.834 21.0045 99.461 19.8208 100.113C19.6502 99.8823 19.4847 99.6616 19.3242 99.451C24.9669 96.3613 30.775 93.6027 36.7085 91.1099C37.491 90.7789 38.2734 90.4528 39.0609 90.1368C39.2716 90.0515 39.4822 89.9663 39.6929 89.881C48.7763 86.2196 58.0854 83.135 67.4897 80.3964C77.3004 77.5325 87.2114 74.9444 97.1925 72.7325C107.359 70.4754 117.636 68.6547 128.009 67.6115C133.24 67.0848 138.492 66.7588 143.743 66.6786C144.862 66.6635 145.99 66.6484 147.119 66.6484C147.169 67.0597 147.234 67.491 147.319 67.9374H147.314Z" fill="white"/>
<path d="M149.721 74.6145C146.787 79.9863 143.451 85.1374 139.619 89.9173C135.386 95.2089 130.526 99.9688 125.24 104.207C120.013 108.4 114.381 112.082 108.547 115.372C107.945 115.713 107.344 116.044 106.732 116.38C106.205 116.21 105.668 116.049 105.137 115.889C106.757 115.021 108.362 114.118 109.952 113.185C115.665 109.84 121.167 106.103 126.268 101.875C131.459 97.5712 136.174 92.7412 140.307 87.4095C142.443 84.6509 144.424 81.7719 146.285 78.8227C147.218 77.3531 148.116 75.8584 149.019 74.3688C149.119 74.2032 149.219 74.0327 149.32 73.8672C149.45 74.113 149.586 74.3537 149.721 74.6045V74.6145Z" fill="white"/>
<path d="M55.3319 133.348C54.8604 133.829 54.4641 134.246 54.108 134.612C49.8898 134.521 45.6616 134.692 41.4735 135.224C37.6867 135.705 33.935 136.518 30.3036 137.696C27.219 138.694 24.2397 139.958 21.3958 141.498C20.9996 141.277 20.6133 141.037 20.2422 140.796C20.4428 140.681 20.6434 140.57 20.8441 140.455C24.1093 138.649 27.5851 137.21 31.1563 136.121C34.9732 134.963 38.9005 134.21 42.8579 133.774C46.9958 133.308 51.1688 133.207 55.3268 133.348H55.3319Z" fill="white"/>
<path d="M48.8712 37.9134C48.0937 35.0193 52.7132 30.4852 57.6385 30.0388C61.1595 29.7178 65.5332 31.4231 65.9596 33.9008C66.4862 36.9504 61.0442 41.1335 55.853 41.1535C53.31 41.1636 49.473 40.1754 48.8661 37.9134H48.8712Z" fill="#F2F4F7"/>
<path d="M27.7412 44.7457C35.6158 44.0485 43.992 43.5569 52.8246 43.3663C63.197 43.1457 72.9726 43.3664 82.066 43.888C82.5625 43.9131 85.4115 44.1036 87.3826 46.4961C88.6616 48.046 88.9124 49.7263 88.9776 50.4285C89.3086 56.1814 89.4039 62.5263 89.0879 69.3727C88.8171 75.2761 88.2754 80.7732 87.5832 85.809C87.3776 86.5212 86.9663 87.5595 86.1086 88.5576C84.1174 90.8598 81.2936 91.0955 80.6315 91.1306C70.0234 92.3293 57.8704 92.9362 44.4836 92.2591C37.9933 91.9281 31.8641 91.3313 26.1362 90.5589C25.4942 90.4836 23.5983 90.1827 21.9431 88.6178C19.992 86.7771 19.7312 84.4698 19.681 83.893C19.1494 77.5833 18.9337 70.5363 19.3049 62.8924C19.5005 58.8648 19.8365 55.0379 20.2729 51.4316C20.3531 50.7996 20.7042 48.6429 22.5651 46.8623C24.6616 44.8611 27.1745 44.7657 27.7463 44.7607L27.7412 44.7457Z" fill="white"/>
<path d="M19.9579 55.0278C29.8137 54.0648 40.6024 53.4379 52.2036 53.4078C65.6607 53.3676 78.0644 54.13 89.2243 55.3137C89.129 58.268 89.0337 61.2171 88.9384 64.1714C78.1748 63.4592 66.7942 63.0128 54.8469 62.9325C42.4532 62.8473 30.6563 63.1683 19.5215 63.7802C19.6669 60.8661 19.8124 57.952 19.9579 55.0379V55.0278Z" fill="#F2F4F7"/>
<path d="M24.6263 65.1814C27.1943 65.1162 29.7623 64.9206 32.3303 64.8403C34.9034 64.7601 37.4764 64.74 40.0495 64.7651C41.504 64.7801 42.9535 64.8203 44.4081 64.8353C44.6839 64.8353 44.6789 64.4291 44.4081 64.414C41.82 64.2635 39.2168 64.2836 36.6237 64.3337C34.0306 64.3839 31.4777 64.5043 28.9096 64.7049C27.4751 64.8152 26.0407 64.9206 24.6162 65.1362C24.5861 65.1362 24.5962 65.1864 24.6212 65.1864L24.6263 65.1814Z" fill="black"/>
<path d="M19.7669 52.8353C19.5061 54.325 19.4659 55.8247 19.4158 57.3344C19.3656 58.8441 19.3857 60.3689 19.4358 61.8836C19.486 63.3983 19.5662 64.9582 19.6816 66.488C19.797 68.0178 19.9123 69.4823 20.2032 70.957C20.3688 71.7996 20.5042 72.6422 20.6346 73.4899C20.765 74.3375 20.9556 75.1752 21.1111 76.0178C21.1211 76.068 21.1913 76.0429 21.1813 75.9977C20.9606 74.4679 20.8051 72.9231 20.6948 71.3783C20.6446 70.641 20.6396 69.9137 20.5694 69.1764C20.4992 68.4391 20.4239 67.6667 20.3637 66.9093C20.118 63.925 20.0076 60.9306 19.9725 57.9413C19.9525 56.241 19.9976 54.5356 19.8622 52.8403C19.8622 52.7952 19.7819 52.7751 19.7719 52.8303L19.7669 52.8353Z" fill="black"/>
<path d="M24.1743 57.8938C24.39 57.9289 24.6157 57.9389 24.8314 57.9339H25.1373C25.1875 57.9339 25.2376 57.9339 25.2878 57.9339C25.3078 57.9339 25.3279 57.9339 25.348 57.9339C25.358 57.9339 25.373 57.9339 25.3831 57.9339C25.363 57.9339 25.363 57.9339 25.3831 57.9339C25.4031 57.9339 25.4182 57.9439 25.4382 57.9489C25.4082 57.9339 25.4533 57.9589 25.4583 57.9639C25.4332 57.9238 25.4433 57.9539 25.4583 57.9639C25.4433 57.9489 25.4382 57.9288 25.4483 57.9639C25.4282 57.9188 25.4583 57.984 25.4483 57.9639C25.4683 58.004 25.4382 57.964 25.4483 57.9539C25.4483 57.9539 25.4433 58.0793 25.4483 57.9991C25.4483 58.0292 25.4433 58.0543 25.4382 58.0843C25.4382 58.0593 25.4483 58.0492 25.4382 58.0793C25.4382 58.0843 25.4232 58.1294 25.4332 58.1044C25.4433 58.0793 25.4282 58.1144 25.4232 58.1194C25.4232 58.1244 25.3931 58.1596 25.4232 58.1295C25.4182 58.1345 25.368 58.1946 25.3981 58.1595C25.368 58.1946 25.348 58.2198 25.3329 58.2649L25.3881 58.1947C25.3881 58.1947 25.373 58.2047 25.368 58.2097C25.2828 58.2599 25.3129 58.3702 25.3931 58.4053C25.4031 58.4053 25.4082 58.4103 25.4182 58.4153L25.368 58.3853C25.5285 58.5458 25.7643 58.3502 25.8445 58.1997C25.9398 58.0191 25.8947 57.7683 25.7442 57.6279C25.5436 57.4423 25.2477 57.4774 24.9969 57.4824C24.726 57.4824 24.4502 57.4874 24.1843 57.5376C24.0088 57.5677 24.0038 57.8686 24.1843 57.8987L24.1743 57.8938Z" fill="black"/>
<path d="M67.5355 59.7137C67.4903 59.6886 67.4251 59.6434 67.39 59.6033C67.3549 59.5632 67.2997 59.5431 67.2596 59.5883C67.2395 59.6083 67.2094 59.6234 67.1894 59.6485C67.1693 59.6735 67.1593 59.6936 67.1442 59.7236C67.1192 59.7738 67.0891 59.829 67.064 59.8792C67.0389 59.9293 67.0038 59.9795 66.9737 60.0297C66.9436 60.0798 66.9236 60.135 66.8935 60.1901C66.8433 60.2955 66.7931 60.4058 66.748 60.5162C66.6928 60.6365 66.6627 60.7669 66.6326 60.8923C66.5725 61.118 66.8834 61.2484 67.0088 61.0528C67.079 60.9425 67.1442 60.8271 67.1944 60.7068C67.2395 60.5914 67.2797 60.471 67.3098 60.3556C67.3248 60.3005 67.3449 60.2403 67.3549 60.1851C67.37 60.1249 67.3699 60.0698 67.38 60.0046C67.39 59.9444 67.4051 59.8892 67.4151 59.829C67.4201 59.7889 67.4301 59.7588 67.4201 59.7187C67.4201 59.7087 67.4 59.6334 67.4051 59.6584L67.3198 59.7437C67.375 59.7487 67.4402 59.7839 67.4903 59.8089C67.5455 59.839 67.5906 59.7588 67.5355 59.7287V59.7137Z" fill="black"/>
<path d="M29.7133 78.3353C30.6914 78.9573 32.0807 79.8451 33.9416 79.9203C35.5516 79.9855 36.2086 79.3936 37.2218 79.9203C38.4858 80.5773 38.7767 82.1824 38.8068 82.3529C39.2231 84.8055 36.8557 86.7667 36.6902 86.9021C33.5052 89.4702 28.7353 87.5141 28.018 87.2181C27.0049 86.8018 24.7478 85.8489 23.4688 83.4112C23.2281 82.9548 21.8137 80.2564 23.0475 77.6984C23.1779 77.4326 24.2413 75.2858 25.7961 75.2657C27.1102 75.2507 27.2707 76.7805 29.7083 78.3353H29.7133Z" fill="#F2F4F7"/>
<path d="M41.6641 84.0462C41.6891 82.7521 42.6521 81.5283 43.9913 81.2976C45.5111 81.0318 47.0007 82.1302 47.2716 83.6249C47.5675 85.265 46.3086 86.9302 44.6283 87.0105C42.9832 87.0907 41.634 85.6211 41.6691 84.0512L41.6641 84.0462Z" fill="#F2F4F7"/>
<path d="M27.6162 44.5425C35.4908 43.8454 43.867 43.3538 52.6996 43.1632C63.072 42.9425 72.8476 43.1632 81.941 43.6848C82.4375 43.7099 85.2865 43.9005 87.2576 46.293C88.5366 47.8428 88.7874 49.5231 88.8526 50.2253C89.1836 55.9783 89.2789 62.3231 88.9629 69.1695C88.6921 75.0729 88.1504 80.5701 87.4582 85.6059C87.2526 86.3181 86.8413 87.3563 85.9836 88.3544C83.9924 90.6566 81.1686 90.8924 80.5065 90.9275C69.8984 92.1262 57.7454 92.7331 44.3586 92.056C37.8683 91.725 31.7391 91.1281 26.0112 90.3557C25.3692 90.2805 23.4733 89.9795 21.8181 88.4146C19.867 86.5739 19.6062 84.2666 19.556 83.6898C19.0244 77.3801 18.8087 70.3331 19.1799 62.6892C19.3755 58.6616 19.7115 54.8347 20.1479 51.2284C20.2281 50.5964 20.5792 48.4397 22.4401 46.6591C24.5366 44.6579 27.0495 44.5626 27.6213 44.5575L27.6162 44.5425Z" stroke="black" stroke-width="0.8" stroke-linecap="round" stroke-linejoin="round"/>
<path d="M19.957 55.0219C29.4567 54.1743 39.6937 53.6276 50.5777 53.5423C64.3257 53.437 77.0855 54.0891 88.6968 55.1775" stroke="black" stroke-width="0.8" stroke-linecap="round" stroke-linejoin="round"/>
<path d="M19.1797 64.2093C29.4969 63.7529 40.1904 63.482 51.2248 63.4368C64.2857 63.3817 76.87 63.6475 88.9427 64.1642" stroke="black" stroke-width="0.8" stroke-linecap="round" stroke-linejoin="round"/>
<path d="M118.801 36.3916C118.776 36.3314 118.751 36.2711 118.721 36.2109C118.746 36.246 118.766 36.2762 118.776 36.3113C118.786 36.3414 118.801 36.3615 118.801 36.3916Z" fill="#F2F4F7"/>
<path d="M112.999 46.2128C108.611 48.1589 104.563 48.7858 103.54 47.7476C103.474 47.6473 103.409 47.5419 103.344 47.4416C103.344 47.4416 103.344 47.4383 103.344 47.4316C102.672 46.3933 102 45.3551 101.343 44.3118C101.298 44.2466 101.253 44.1714 101.207 44.1062C100.595 42.7269 104.026 39.858 108.881 37.7012C113.616 35.6047 117.945 34.9526 118.722 36.2065C118.752 36.2667 118.777 36.3269 118.802 36.3871C119.334 37.5508 119.866 38.7094 120.387 39.873C120.397 39.888 120.402 39.9081 120.412 39.9181C121.024 41.3024 117.709 44.1213 113.004 46.2078L112.999 46.2128Z" fill="#C9C8C8"/>
<path d="M103.348 47.4375C103.348 47.4375 103.358 47.4776 103.368 47.4876C103.413 47.5829 103.468 47.6632 103.543 47.7384" fill="#F2F4F7"/>
<path d="M104.122 40.3351C104.041 40.4103 103.635 40.7965 103.67 41.3131C103.735 42.2259 105.12 42.6823 105.31 42.4767C105.426 42.3513 105.08 42.0053 104.994 41.6291C104.819 40.8617 105.656 39.6278 109.383 37.5312C107.627 38.4642 105.877 39.4021 104.122 40.3351Z" fill="white"/>
<path d="M102.059 45.8434C102.465 46.034 103.062 46.2848 103.804 46.4804C104.862 46.7563 106.171 46.9117 108.75 46.5606C110.259 46.355 112.301 45.9638 114.673 45.1562C111.217 46.5807 108.554 47.4284 106.869 47.9149C105.961 48.1757 104.772 48.4967 103.674 47.9149C102.696 47.3932 102.254 46.4052 102.059 45.8534V45.8434Z" fill="white"/>
<path d="M110.968 42.5354C115.821 40.3806 119.257 37.5111 118.642 36.1262C118.027 34.7413 113.594 35.3655 108.741 37.5203C103.888 39.6751 100.452 42.5445 101.066 43.9294C101.681 45.3143 106.114 44.6901 110.968 42.5354Z" stroke="black" stroke-width="0.8" stroke-linecap="round" stroke-linejoin="round"/>
<path d="M103.213 47.2305C103.213 47.2305 103.228 47.2707 103.238 47.2907C103.855 48.675 108.168 48.1032 112.873 46.0117C117.578 43.9202 120.898 41.1063 120.281 39.722C120.276 39.707 120.266 39.6869 120.256 39.6719" stroke="black" stroke-width="0.8" stroke-linecap="round" stroke-linejoin="round"/>
<path d="M101.076 43.9062C101.854 45.12 102.636 46.3288 103.413 47.5426" stroke="black" stroke-width="0.8" stroke-linecap="round" stroke-linejoin="round"/>
<path d="M120.287 39.7244C119.725 38.4855 119.163 37.2467 118.602 36.0078" stroke="black" stroke-width="0.8" stroke-linecap="round" stroke-linejoin="round"/>
<path d="M45.0645 119.393C42.4313 121.334 38.9203 121.038 37.215 118.731C37.0696 118.531 36.9392 118.32 36.8288 118.104C36.6884 117.969 36.563 117.823 36.4426 117.668C34.8727 115.536 35.7454 112.221 38.3937 110.27C41.042 108.314 44.4627 108.454 46.0326 110.591C46.2081 110.832 46.3586 111.087 46.4689 111.358C46.5692 111.469 46.6595 111.584 46.7498 111.699C48.4501 114.006 47.6978 117.452 45.0595 119.393H45.0645Z" fill="#C9C8C8"/>
<path d="M36.8328 118.106C36.8028 118.061 36.7828 118.011 36.7578 117.961L36.8328 118.106Z" fill="#F2F4F7"/>
<path d="M46.474 111.351L46.459 111.336L46.474 111.351Z" fill="#F2F4F7"/>
<path d="M43.9884 117.75C46.6365 115.796 47.5087 112.484 45.9364 110.354C44.3642 108.223 40.9429 108.079 38.2948 110.033C35.6467 111.986 34.7746 115.298 36.3468 117.429C37.919 119.56 41.3403 119.703 43.9884 117.75Z" stroke="black" stroke-width="0.8" stroke-linecap="round" stroke-linejoin="round"/>
<path d="M46.3331 111.141C46.4385 111.256 46.5337 111.376 46.629 111.502C48.3294 113.809 47.577 117.255 44.9438 119.196C42.3106 121.137 38.7946 120.841 37.0943 118.539C36.9137 118.293 36.7582 118.032 36.6328 117.761" stroke="black" stroke-width="0.8" stroke-linecap="round" stroke-linejoin="round"/>
<path d="M142.289 113.269C146.028 113.269 149.06 110.237 149.06 106.498C149.06 102.758 146.028 99.7266 142.289 99.7266C138.549 99.7266 135.518 102.758 135.518 106.498C135.518 110.237 138.549 113.269 142.289 113.269Z" fill="#C9C8C8"/>
<path d="M141.352 110.801C141.332 110.309 141.799 109.923 142.2 109.798C142.912 109.577 143.845 110.048 143.89 110.645C143.935 111.182 143.248 111.769 142.566 111.754C142.029 111.744 141.372 111.362 141.352 110.801Z" fill="white"/>
<path d="M145.067 109.858C144.46 109.848 144.029 109.136 143.984 109.066C143.397 108.063 144.22 107.285 144.114 105.56C144.009 103.875 143.126 103.117 143.517 102.721C143.894 102.34 145.032 102.736 145.739 103.303C147.154 104.441 147.028 106.423 147.008 106.688C146.893 108.133 146.02 109.873 145.067 109.863V109.858Z" fill="white"/>
<path d="M142.164 113.066C145.903 113.066 148.935 110.034 148.935 106.295C148.935 102.555 145.903 99.5234 142.164 99.5234C138.424 99.5234 135.393 102.555 135.393 106.295C135.393 110.034 138.424 113.066 142.164 113.066Z" stroke="black" stroke-width="0.8" stroke-linecap="round" stroke-linejoin="round"/>
<path d="M77.5677 99.5329C78.7314 100.541 79.9251 101.489 81.2242 102.317C82.5232 103.144 83.8975 103.917 85.2768 104.639C88.0053 106.068 90.8442 107.292 93.6931 108.461C95.3031 109.123 96.9583 109.725 98.6336 110.191C98.7239 110.216 98.789 110.081 98.6988 110.036C95.9652 108.611 93.0511 107.548 90.2373 106.289C87.4235 105.03 84.7151 103.696 82.0869 102.156C80.5872 101.278 79.0775 100.406 77.6229 99.4526C77.5778 99.4225 77.5226 99.4928 77.5627 99.5279L77.5677 99.5329Z" fill="black"/>
<path d="M78.5117 101.276C82.6998 103.061 85.8948 103.101 88.0967 102.77C90.3437 102.434 91.4321 101.722 93.328 102.269C95.4396 102.881 96.8942 104.576 98.5694 106.522C100.706 109.01 100.37 109.627 101.744 110.329C103.314 111.136 104.628 110.775 106.188 112.125C106.921 112.762 106.76 112.952 107.407 113.499C109.178 114.999 111.751 114.693 112.909 114.557C115.843 114.211 117.905 112.691 118.873 111.854C118.557 112.586 117.98 113.624 116.927 114.502C114.309 116.684 110.883 116.087 109.955 115.926C108.46 115.666 107.262 115.104 106.394 114.577C97.1048 110.138 87.8108 105.699 78.5217 101.266L78.5117 101.276Z" fill="#EEA563"/>
<path d="M72.757 53.589C74.0059 52.5909 75.962 51.3771 78.3093 51.4724C80.4861 51.5627 81.5344 52.7213 83.8617 53.5339C85.572 54.1307 88.2103 54.6223 91.972 53.7997C89.4491 52.9069 87.5331 52.0041 86.2291 51.332C85.0905 50.7451 83.8516 50.0379 81.9407 49.5765C81.0228 49.3508 80.2053 49.1602 79.1068 49.2354C76.9802 49.3859 75.5006 50.4291 74.989 50.8204C73.735 51.7884 73.078 52.9219 72.752 53.589H72.757Z" fill="#EEA563"/>
<path d="M83.2147 50.2327C90.5276 53.2271 98.1965 56.6377 106.131 60.5299C115.445 65.0992 124.027 69.7838 131.867 74.4183C132.293 74.6691 134.741 76.1487 135.393 79.1781C135.814 81.1443 135.267 82.7493 135.002 83.4014C132.654 88.6628 129.825 94.3456 126.4 100.279C123.445 105.4 120.441 110.035 117.517 114.188C117.01 114.724 116.168 115.462 114.944 115.948C112.12 117.077 109.502 115.988 108.895 115.717C98.9188 111.91 87.8442 106.87 76.268 100.119C70.6555 96.8433 65.4843 93.4979 60.7495 90.1775C60.2128 89.8164 58.673 88.6778 57.9157 86.5261C57.0279 83.9932 57.8555 81.8265 58.0762 81.2898C60.5038 75.4415 63.5483 69.0866 67.3853 62.4609C69.4066 58.97 71.463 55.7299 73.5094 52.7255C73.8705 52.1988 75.1746 50.4433 77.6423 49.7161C80.421 48.8985 82.7031 49.9719 83.2147 50.2277V50.2327Z" fill="white"/>
<path d="M71.7693 54.9922C82.1216 59.411 93.3367 64.7978 105.088 71.3884C115.18 77.0461 124.288 82.8191 132.439 88.4467C131.055 90.9646 129.67 93.4825 128.291 96.0054C118.144 89.9866 107.411 83.9377 96.1003 77.9489C86.0689 72.6373 76.2633 67.732 66.7285 63.1928C68.4088 60.4593 70.094 57.7257 71.7743 54.9972L71.7693 54.9922Z" fill="#F2F4F7"/>
<path d="M72.9531 53.8646C72.6622 53.8997 72.5067 54.0251 72.281 54.2157C72.0553 54.4063 71.8246 54.642 71.624 54.8778C71.2077 55.3643 70.8616 55.9059 70.5456 56.4677C69.8685 57.6715 69.3118 58.9505 68.7299 60.1994C68.098 61.5687 67.471 62.943 66.8892 64.3373C66.3074 65.7317 65.7155 67.0909 65.2942 68.5154C65.0635 69.2978 64.8879 70.1154 64.7074 70.9078C64.5168 71.7505 64.3412 72.5981 64.1907 73.4508C64.1757 73.536 64.2961 73.5712 64.3212 73.4859C64.7425 72.0715 65.2039 70.6471 65.8158 69.3029C66.4278 67.9587 66.8491 66.6044 67.3958 65.2652C68.4792 62.6169 69.6177 59.9837 70.8365 57.3956C71.1375 56.7637 71.4635 56.1417 71.8547 55.5599C72.0453 55.279 72.2459 55.0082 72.4666 54.7574C72.6873 54.5066 72.9331 54.3261 73.0535 54.0101C73.0785 53.9449 73.0133 53.8546 72.9381 53.8596L72.9531 53.8646Z" fill="black"/>
<path d="M128.18 95.5578C127.774 95.7384 127.523 96.1948 127.272 96.5459C126.986 96.9471 126.696 97.3434 126.4 97.7296C126.104 98.1158 125.828 98.492 125.542 98.8681C125.391 99.0637 125.251 99.2544 125.116 99.465C124.99 99.6606 124.84 99.8863 124.79 100.112C124.759 100.247 124.89 100.338 125.01 100.283C125.211 100.192 125.391 100.007 125.542 99.8462C125.707 99.6656 125.863 99.485 126.008 99.2894C126.314 98.8882 126.61 98.4819 126.891 98.0656C127.172 97.6493 127.428 97.248 127.689 96.8368C127.924 96.4656 128.245 96.0443 128.235 95.5828C128.235 95.5528 128.205 95.5377 128.18 95.5528V95.5578Z" fill="black"/>
<path d="M74.3113 59.6638L74.3364 59.6789L74.196 59.5384C74.2963 59.6789 74.3916 59.7291 74.5471 59.7792C74.6073 59.7993 74.6725 59.8244 74.7326 59.8394C74.8731 59.8745 75.0085 59.8996 75.1489 59.9297C75.4248 59.9899 75.7057 60.0601 75.9815 60.1253L75.6455 59.6839C75.6455 59.6839 75.6455 59.709 75.6455 59.724C75.6455 59.6688 75.6555 59.6137 75.6856 59.5635C75.6605 59.6037 75.6756 59.5836 75.7257 59.5184C75.6906 59.5485 75.7107 59.5384 75.7759 59.4833C75.7508 59.4933 75.7257 59.5084 75.7007 59.5234C75.7759 59.4933 75.796 59.4833 75.7508 59.4983C75.7358 59.4983 75.7207 59.5084 75.7107 59.5084C75.5903 59.5385 75.816 59.5084 75.7207 59.5084C75.6856 59.5084 75.6455 59.5084 75.6104 59.5084C75.5352 59.5084 75.4649 59.5033 75.3897 59.4933L75.5151 59.5084C75.3897 59.4933 75.2693 59.4632 75.154 59.4181C75.0436 59.3779 75.2342 59.4582 75.154 59.4181C75.1289 59.408 75.1038 59.393 75.0787 59.383C75.0236 59.3529 74.9634 59.3228 74.9082 59.2927C74.6975 59.1974 74.4668 59.2174 74.3163 59.413C74.1859 59.5836 74.1809 59.8645 74.3515 60.015C74.6725 60.3009 75.154 60.4262 75.5753 60.4312C75.791 60.4312 76.0016 60.4011 76.1922 60.3008C76.4129 60.1855 76.5935 59.9347 76.5684 59.6789C76.5483 59.4833 76.443 59.2877 76.2323 59.2375C75.9565 59.1723 75.6756 59.1121 75.3997 59.0519C75.2593 59.0218 75.1189 58.9918 74.9834 58.9667C74.7928 58.9316 74.522 58.8914 74.3464 59.0018L74.5421 58.9466H74.512C74.3515 58.9667 74.1859 59.0569 74.1508 59.2275C74.1157 59.388 74.1709 59.5736 74.3214 59.6539L74.3113 59.6638Z" fill="black"/>
<path d="M74.0118 55.4151C74.0118 55.4452 74.0118 55.4754 74.0218 55.5054C74.0218 55.5205 74.0319 55.5305 74.0369 55.5456C74.062 55.6007 74.057 55.5907 74.0269 55.5255C74.0469 55.6358 74.1472 55.7111 74.2476 55.7462C74.3479 55.7813 74.4632 55.7813 74.5685 55.7913C74.6739 55.8013 74.7692 55.8064 74.8695 55.8064C75.0701 55.8114 75.2707 55.8164 75.4664 55.8265C75.5466 55.8265 75.6269 55.7963 75.687 55.7462C75.7422 55.7011 75.8074 55.6308 75.8175 55.5556C75.8175 55.5305 75.8325 55.4803 75.8325 55.4603C75.8225 55.365 75.8024 55.2697 75.7272 55.1995C75.6569 55.1343 75.5667 55.0891 75.4664 55.0941C75.2557 55.0941 75.04 55.0941 74.8294 55.0941C74.724 55.0941 74.6237 55.0941 74.5184 55.1092C74.4733 55.1092 74.4231 55.1192 74.378 55.1243C74.3629 55.1243 74.3479 55.1243 74.3328 55.1243C74.2425 55.1243 74.1673 55.1643 74.1071 55.2195L74.2425 55.1393H74.3629C74.1974 55.1042 74.0068 55.2195 74.0118 55.4051V55.4151Z" fill="black"/>
<path d="M92.373 76.0312C96.7267 78.4137 99.1893 81.0369 100.644 83.0282C101.627 84.3724 102.023 85.2601 103.392 86.5542C104.325 87.4319 106.813 89.7843 110.445 90.3611C113.288 90.8125 114.512 89.8094 116.508 90.9981C117.15 91.3793 117.757 91.921 118.906 92.1968C120.029 92.4677 121.038 92.3222 121.705 92.1617C116.965 89.4231 112.105 86.6795 107.129 83.946C102.149 81.2074 97.2282 78.5692 92.373 76.0312Z" fill="#F2F4F7"/>
<path d="M83.0897 50.0296C90.4026 53.0239 98.0715 56.4346 106.006 60.3268C115.32 64.896 123.902 69.5807 131.742 74.2151C132.168 74.4659 134.616 75.9455 135.268 78.975C135.689 80.9412 135.142 82.5462 134.877 83.1982C132.529 88.4597 129.7 94.1424 126.275 100.076C123.32 105.197 120.316 109.831 117.392 113.984C116.885 114.521 116.043 115.258 114.819 115.745C111.995 116.873 109.377 115.785 108.77 115.514C98.7938 111.707 87.7192 106.667 76.143 99.9155C70.5305 96.6402 65.3593 93.2948 60.6245 89.9744C60.0878 89.6133 58.548 88.4747 57.7907 86.323C56.9029 83.7901 57.7305 81.6233 57.9512 81.0867C60.3788 75.2384 63.4233 68.8835 67.2603 62.2578C69.2816 58.7669 71.338 55.5267 73.3844 52.5224C73.7455 51.9957 75.0496 50.2402 77.5173 49.5129C80.296 48.6954 82.5781 49.7688 83.0897 50.0246V50.0296Z" stroke="black" stroke-width="0.8" stroke-linecap="round" stroke-linejoin="round"/>
<path d="M71.7344 55.4609C80.5118 59.1876 89.8008 63.5211 99.446 68.5769C111.624 74.9569 122.573 81.5425 132.304 87.9675" stroke="black" stroke-width="0.8" stroke-linecap="round" stroke-linejoin="round"/>
<path d="M66.7227 63.1875C76.0418 67.6464 85.5966 72.4364 95.3571 77.5975C106.903 83.7016 117.883 89.8609 128.285 96.0001" stroke="black" stroke-width="0.8" stroke-linecap="round" stroke-linejoin="round"/>
</svg>
