<svg width="160" height="160" viewBox="0 0 160 160" fill="none" xmlns="http://www.w3.org/2000/svg">
<path d="M156.76 103.041C156.76 103.231 156.75 103.417 156.735 103.607C156.319 111.026 152.04 118.95 145.931 123.655C136.441 130.958 124.248 129.167 119.082 128.405C110.37 127.126 108.67 124.132 101.101 124.939C98.9442 125.17 91.0395 126.123 85.1712 132.132C84.454 132.864 84.6044 132.819 83.501 134.063C81.0333 136.831 76.0176 142.474 69.3718 145.363C67.4659 146.195 58.548 149.792 49.59 146.135C47.2527 145.182 45.2916 143.888 43.5361 142.384C43.3304 142.208 43.1248 142.027 42.9242 141.847C40.6972 139.831 38.7963 137.478 36.8652 135.086C32.9631 130.251 33.8207 129.488 29.8032 125.064C28.6145 123.76 27.4007 122.572 26.217 121.503C26.0214 121.328 25.8257 121.157 25.6351 120.992C22.8163 118.514 20.2583 116.759 18.879 115.816C15.3229 113.398 14.701 113.443 12.8452 112.094C12.6947 111.984 12.5392 111.873 12.3887 111.753C12.1831 111.597 11.9775 111.427 11.7668 111.251C8.71728 108.693 5.35678 104.279 3.27528 96.2344C2.88405 93.3203 2.42261 86.6845 5.97371 79.8532C6.62073 78.6193 8.32104 75.5949 11.4659 72.6507C11.5762 72.5453 11.6916 72.445 11.8019 72.3447C13.0859 71.1811 14.6007 70.0475 16.3662 69.0494C16.8276 68.7886 17.2841 68.5478 17.7455 68.3322C17.921 68.2419 18.0966 68.1566 18.2721 68.0814C29.5474 62.9453 39.7342 68.7384 47.3982 61.1648C49.0583 59.5246 49.7656 58.0801 50.6082 56.6055C54.5555 49.6839 62.7913 39.6174 74.1217 31.7027C74.3373 31.5522 74.553 31.4018 74.7787 31.2513C81.0433 26.9629 88.2308 23.3516 96.1455 21.2801C102.385 19.645 119.85 15.0707 134.877 24.746C136.948 26.0801 141.026 29.0093 144.622 33.7541C144.893 34.1152 145.169 34.4814 145.435 34.8626C145.746 35.314 146.056 35.7754 146.357 36.2519C146.528 36.5228 146.693 36.7986 146.859 37.0795C147.702 38.4939 148.474 40.0337 149.136 41.6989C153.981 53.8619 150.826 67.0281 149.327 70.9905C149.186 71.3566 148.845 72.2193 148.619 73.4331C147.732 78.2281 149.833 82.2707 151.193 85.1196C151.483 85.7315 155.3 93.8168 156.329 98.351C156.67 99.8607 156.805 101.436 156.755 103.041H156.76Z" fill="#F2F4F7"/>
<path d="M145.439 34.8674C144.997 34.727 144.551 34.5966 144.1 34.4712C141.416 33.7238 138.678 33.1721 135.909 32.831C130.331 32.1439 124.664 32.2793 119.131 33.2624C116.137 33.789 113.178 34.5263 110.199 35.1433C107.415 35.7151 104.611 36.1514 101.777 36.352C96.2851 36.7483 90.7327 36.3621 85.3409 35.2486C82.6475 34.6868 79.9942 33.9345 77.4111 32.9966C76.3077 32.5953 75.2092 32.164 74.1309 31.6975C74.3465 31.547 74.5622 31.3966 74.7879 31.2461C78.971 32.9464 83.3396 34.1803 87.7936 34.9176C93.2506 35.8254 98.8481 35.9558 104.345 35.2937C110.244 34.5915 115.937 32.7508 121.83 31.9984C127.352 31.2963 132.965 31.4367 138.452 32.3596C140.533 32.7107 142.595 33.1721 144.631 33.7489C144.902 34.11 145.178 34.4762 145.444 34.8574L145.439 34.8674Z" fill="white"/>
<path d="M103.463 114.186C102.811 114.266 102.169 114.341 101.527 114.467C100.308 114.707 99.0643 114.868 97.8354 115.058C96.6016 115.244 95.3627 115.43 94.1339 115.65C91.6511 116.082 89.1834 116.608 86.7357 117.225C81.8505 118.449 77.0455 120.024 72.3809 121.94C67.7564 123.841 63.2574 126.073 58.9539 128.621C55.152 130.873 51.4906 133.431 48.3257 136.536C46.7759 138.06 45.3615 139.715 44.1226 141.506C43.9169 141.802 43.7213 142.098 43.5357 142.394C43.3301 142.218 43.1245 142.038 42.9238 141.857C44.5138 139.254 46.5602 136.937 48.8172 134.88C52.1727 131.826 55.9847 129.303 59.922 127.066C64.3508 124.548 68.9652 122.356 73.7151 120.5C78.4599 118.65 83.3502 117.14 88.3107 115.991C90.8034 115.415 93.3113 114.928 95.8392 114.537C97.1082 114.336 98.3821 114.176 99.6662 114.085C100.93 113.99 102.189 113.95 103.453 113.895C103.649 113.885 103.639 114.171 103.453 114.196L103.463 114.186Z" fill="white"/>
<path d="M18.9138 88.0455C18.5978 91.5264 18.0511 94.9872 17.2436 98.3878C16.4411 101.773 15.3677 105.099 14.0035 108.304C13.5069 109.472 12.9702 110.621 12.3934 111.755C12.1878 111.599 11.9821 111.429 11.7715 111.253C12.5238 109.788 13.2009 108.284 13.8129 106.754C15.0868 103.569 16.0749 100.264 16.8072 96.9082C17.5395 93.5277 18.021 90.0919 18.2768 86.6411C18.5176 83.4311 18.5627 80.201 18.4423 76.986C18.4323 76.6951 18.4223 76.4041 18.4072 76.1182C18.3922 75.8474 18.3821 75.5816 18.3671 75.3107C18.2668 73.3647 18.1013 71.4186 17.8806 69.4775C17.8354 69.0963 17.7903 68.7101 17.7452 68.3289C17.9207 68.2386 18.0962 68.1534 18.2718 68.0781C18.7383 70.907 19.0241 73.7609 19.1596 76.6298C19.1596 76.68 19.1596 76.7352 19.1696 76.7853C19.1847 77.0361 19.1897 77.2819 19.1997 77.5377C19.3301 81.0386 19.2298 84.5546 18.9038 88.0455H18.9138Z" fill="white"/>
<path d="M33.0921 105.092C32.2796 110.193 30.1831 114.988 27.5448 119.397C27.1185 120.109 26.6771 120.811 26.2207 121.503C26.0251 121.328 25.8295 121.157 25.6389 120.992C26.3812 119.858 27.0884 118.705 27.7505 117.526C30.2081 113.132 32.0489 108.307 32.5555 103.266C32.8063 100.794 32.736 98.2859 32.2495 95.8433C31.8031 93.6013 31.0107 91.4395 29.9523 89.4182C27.7906 85.2753 24.5956 81.7593 20.9542 78.8552C20.3824 78.3988 19.7956 77.9524 19.2088 77.5311C18.958 77.3405 18.7022 77.1599 18.4464 76.9793C17.2677 76.1467 16.0539 75.3643 14.8201 74.6119C13.7517 73.9649 12.6784 73.343 11.6 72.721C11.5549 72.696 11.5198 72.6759 11.4746 72.6458C11.585 72.5405 11.7003 72.4402 11.8107 72.3398C13.5411 73.1674 15.2213 74.1104 16.8464 75.1035C17.373 75.4295 17.8947 75.7605 18.4113 76.1116C18.6671 76.2771 18.9179 76.4477 19.1687 76.6232C20.4777 77.5261 21.7417 78.4941 22.9404 79.5323C26.4715 82.5869 29.5009 86.3386 31.3868 90.632C32.3548 92.8239 33.0019 95.126 33.2928 97.5085C33.5987 100.031 33.4984 102.584 33.0921 105.092Z" fill="white"/>
<path d="M156.76 103.043C156.76 103.234 156.75 103.419 156.735 103.61C156.143 103.831 155.531 103.991 154.934 104.137C153.384 104.503 151.809 104.753 150.219 104.869C144.752 105.27 139.004 103.936 134.671 100.48C132.76 98.9604 131.074 97.0344 129.951 94.8575C129.379 93.7541 128.943 92.6055 128.642 91.4018C128.351 90.2181 128.291 88.9692 128.356 87.7554C128.366 87.5999 128.577 87.6049 128.592 87.7554C128.702 89.0895 129.033 90.4036 129.469 91.6726C129.891 92.9014 130.472 94.0751 131.15 95.1836C133.763 99.4569 138.116 102.311 142.946 103.454C145.605 104.081 148.353 104.207 151.072 104.001C152.436 103.896 153.795 103.7 155.14 103.414C155.676 103.299 156.233 103.194 156.775 103.043H156.76Z" fill="white"/>
<path d="M146.87 37.0826C145.48 37.1127 144.091 37.193 142.707 37.3384C137.656 37.8651 132.68 39.2393 128.081 41.3911C125.779 42.4694 123.567 43.7384 121.48 45.1779C120.432 45.9002 119.414 46.6676 118.431 47.4801C117.934 47.8814 117.448 48.2876 116.966 48.7039C116.47 49.1252 116.008 49.5766 115.486 49.9679C115.246 50.1434 114.895 49.7923 115.075 49.5566C115.522 48.9597 116.078 48.4431 116.615 47.9265C117.137 47.4299 117.673 46.9535 118.23 46.492C119.349 45.5641 120.517 44.7014 121.731 43.8939C126.029 41.0149 130.849 38.8983 135.86 37.6193C138.388 36.9773 140.971 36.5509 143.574 36.3603C144.507 36.2901 145.44 36.255 146.373 36.25C146.543 36.5208 146.709 36.7967 146.875 37.0776L146.87 37.0826Z" fill="white"/>
<path d="M89.844 134.177C89.2772 132.452 91.6095 130.415 92.1562 129.939C94.9048 127.541 99.7249 126.117 101.215 127.917C102.348 129.292 101.28 132.236 99.8653 133.891C97.8691 136.228 94.6038 136.69 92.3016 135.963C91.6245 135.747 90.2101 135.301 89.844 134.182V134.177Z" fill="#EEA563"/>
<path d="M91.6192 132.675C91.865 132.841 92.2111 132.786 92.4769 132.705C92.6173 132.66 92.7728 132.605 92.9033 132.535C92.9986 132.485 93.0838 132.409 93.1691 132.339C93.2794 132.249 93.0286 132.445 93.139 132.359C93.475 132.109 93.8211 131.863 94.1822 131.637C94.5434 131.411 94.8945 131.226 95.2606 131.035C95.4412 130.94 95.6167 130.845 95.8023 130.754C95.9979 130.659 95.6318 130.809 95.7722 130.764C95.8224 130.749 95.8675 130.729 95.9177 130.714C96.028 130.679 96.1384 130.654 96.2537 130.634C96.5296 130.589 96.8255 130.318 96.9609 130.092C97.1114 129.836 97.1716 129.465 97.0813 129.179C96.8656 128.517 96.2838 128.241 95.6268 128.352C95.1051 128.442 94.5985 128.703 94.1471 128.969C93.6957 129.235 93.2644 129.576 92.8481 129.902C92.497 130.182 92.1659 130.483 91.855 130.804C91.4236 131.246 90.9521 132.224 91.6293 132.675H91.6192Z" fill="white"/>
<path d="M98.3252 128.719C98.3252 128.719 98.3152 128.709 98.3101 128.704L98.3804 128.794C98.3804 128.794 98.3703 128.779 98.3653 128.774L98.4105 128.884C98.4105 128.884 98.4054 128.864 98.4004 128.854L98.4155 128.975C98.4155 128.975 98.4155 128.95 98.4155 128.939L98.4004 129.065C98.4004 129.065 98.4004 129.05 98.4054 129.04L98.3553 129.155C98.3553 129.155 98.3603 129.145 98.3653 129.135L98.2901 129.235C98.2901 129.235 98.3001 129.225 98.3051 129.22L97.8236 129.346C97.8236 129.346 97.8336 129.346 97.8387 129.346L97.7183 129.296C97.7183 129.296 97.7333 129.306 97.7383 129.311L97.6381 129.23C97.6381 129.23 97.643 129.23 97.643 129.235L97.5127 129.01C97.5127 129.01 97.5126 129.025 97.5177 129.035L97.4976 128.894C97.4976 128.894 97.4976 128.914 97.4976 128.924L97.5177 128.774C97.5177 128.774 97.5177 128.794 97.5076 128.799L97.5678 128.659C97.5678 128.659 97.5578 128.674 97.5578 128.679L97.6531 128.558C97.6531 128.558 97.6431 128.568 97.6381 128.573L97.7634 128.478C97.7634 128.478 97.7584 128.478 97.7534 128.483L97.9039 128.418C97.9039 128.418 97.8988 128.418 97.8938 128.418L98.6913 128.869V128.859L98.7164 129.035C98.7164 129.035 98.7164 129.01 98.7164 128.995L98.6913 129.185C98.7014 129.12 98.7164 129.05 98.7164 128.985C98.7164 128.854 98.6813 128.734 98.6161 128.618C98.576 128.568 98.5409 128.518 98.5007 128.468L98.6111 128.613C98.6111 128.613 98.586 128.578 98.576 128.553L98.6462 128.724C98.6462 128.724 98.6311 128.679 98.6261 128.654L98.6512 128.844C98.6512 128.844 98.6512 128.799 98.6512 128.779L98.6261 128.97C98.6261 128.97 98.6362 128.924 98.6412 128.904L98.571 129.075C98.571 129.075 98.581 129.06 98.586 129.05L97.4625 129.195C97.4625 129.195 97.4825 129.215 97.4926 129.23L97.3822 129.085C97.3822 129.085 97.4073 129.115 97.4174 129.135L97.3221 128.774C97.3221 128.774 97.3221 128.804 97.3221 128.824L97.3471 128.629C97.3471 128.664 97.3321 128.699 97.317 128.729L97.3973 128.538C97.3973 128.538 97.3873 128.558 97.3822 128.568C97.3421 128.644 97.3271 128.654 97.2819 128.789C97.2769 128.814 97.2669 128.839 97.2569 128.864L97.3421 128.664C97.3421 128.664 97.3271 128.689 97.3221 128.704L98.4807 128.398C98.4807 128.398 98.4556 128.383 98.4456 128.373L98.6161 128.508C98.6161 128.508 98.591 128.488 98.581 128.473L98.7164 128.649C98.6662 128.583 98.6161 128.513 98.5609 128.448L98.6964 128.623C98.6964 128.623 98.6713 128.588 98.6612 128.568L98.7465 128.774C98.7465 128.774 98.7315 128.734 98.7315 128.714L98.7616 128.944C98.7616 128.944 98.7616 128.909 98.7616 128.889L98.7315 129.12C98.7315 129.12 98.7365 129.09 98.7415 129.075L98.6562 129.281C98.6562 129.281 98.6713 129.25 98.6813 129.24L98.5459 129.416C98.5459 129.416 98.566 129.396 98.576 129.386L98.4004 129.521C98.4004 129.521 98.4305 129.501 98.4456 129.496L98.2399 129.581C98.2399 129.581 98.2801 129.566 98.3001 129.566L98.0744 129.597C98.0744 129.597 98.1145 129.597 98.1296 129.597L97.9039 129.566C97.9039 129.566 97.939 129.571 97.959 129.581L97.7534 129.496C97.7534 129.496 97.7785 129.506 97.7885 129.516L97.618 129.381C97.618 129.381 97.638 129.401 97.6481 129.411L97.5177 129.24C97.5177 129.24 97.5327 129.26 97.5377 129.276L97.4525 129.075C97.4525 129.075 97.4625 129.105 97.4625 129.12L97.4324 128.894C97.4324 128.894 97.4324 128.929 97.4324 128.944L97.4625 128.719C97.4625 128.719 97.4525 128.764 97.4424 128.784L97.5277 128.583C97.5277 128.583 97.5126 128.618 97.4976 128.634L97.628 128.463C97.6029 128.493 97.5778 128.523 97.5528 128.558C97.4775 128.639 97.4274 128.734 97.4023 128.844C97.3873 128.919 97.3772 128.995 97.3722 129.07C97.3722 129.185 97.3923 129.291 97.4424 129.391C97.4775 129.496 97.5327 129.581 97.613 129.662L97.7835 129.792C97.9139 129.867 98.0544 129.907 98.2048 129.907C98.3453 129.918 98.5108 129.862 98.6311 129.792C98.6964 129.757 98.7515 129.707 98.8067 129.657C98.8117 129.652 98.8218 129.647 98.8268 129.637C98.887 129.571 98.9471 129.501 98.9873 129.426C99.0274 129.351 99.0675 129.265 99.0876 129.18C99.0876 129.18 99.0876 129.17 99.0876 129.165C99.0976 129.1 99.1126 129 99.1177 128.934C99.1177 128.924 99.1177 128.914 99.1177 128.904C99.1126 128.814 99.1076 128.719 99.0775 128.634C99.0224 128.458 98.9973 128.428 98.902 128.302C98.8067 128.177 98.7916 128.162 98.6311 128.052C98.5559 128.002 98.4606 127.971 98.3854 127.941C98.3754 127.941 98.3703 127.936 98.3603 127.936C98.3553 127.936 98.3503 127.936 98.3453 127.936C98.275 127.926 98.1797 127.911 98.1145 127.906C98.0945 127.906 98.0744 127.906 98.0594 127.906C98.0042 127.911 97.8637 127.921 97.7835 127.951C97.7133 127.976 97.6079 128.012 97.5327 128.062C97.4826 128.097 97.4073 128.157 97.3572 128.197C97.3572 128.197 97.3471 128.202 97.3471 128.207C97.3421 128.212 97.3371 128.217 97.3271 128.227C97.1766 128.403 97.1666 128.433 97.0813 128.649C97.0512 128.734 97.0462 128.859 97.0362 128.924C97.0312 128.98 97.0462 129.04 97.0512 129.095C97.0562 129.135 97.0612 129.195 97.0713 129.24C97.0813 129.286 97.1064 129.336 97.1264 129.371C97.1465 129.406 97.1615 129.461 97.1816 129.501C97.2017 129.541 97.2418 129.581 97.2669 129.612C97.302 129.657 97.312 129.677 97.3421 129.707C97.3722 129.737 97.4123 129.762 97.4424 129.782C97.4725 129.802 97.5126 129.842 97.5528 129.867C97.633 129.913 97.7233 129.958 97.8136 129.973C97.9239 130.008 98.0393 130.013 98.1496 129.988C98.26 129.983 98.3653 129.948 98.4656 129.887L98.6362 129.757C98.7415 129.652 98.8117 129.526 98.8518 129.386C98.8769 129.286 98.8919 129.175 98.897 129.07C98.902 128.899 98.8518 128.724 98.7616 128.578C98.7114 128.498 98.6562 128.423 98.591 128.358C98.5258 128.292 98.4556 128.242 98.3804 128.192L98.5258 128.302C98.5609 128.348 98.6011 128.393 98.6362 128.443C98.6261 128.428 98.6161 128.413 98.6061 128.393C98.5659 128.338 98.5258 128.282 98.4807 128.232C98.4757 128.222 98.4656 128.217 98.4606 128.207C98.3703 128.117 98.265 128.057 98.1446 128.022C98.0493 127.992 97.954 127.987 97.8587 128.007C97.7634 128.007 97.6731 128.042 97.5929 128.092C97.4876 128.157 97.4023 128.242 97.3371 128.348C97.3321 128.358 97.3271 128.363 97.3221 128.373C97.307 128.403 97.292 128.443 97.2819 128.468C97.2719 128.498 97.2518 128.533 97.2418 128.563C97.2418 128.573 97.2368 128.583 97.2318 128.588C97.2318 128.593 97.2318 128.598 97.2318 128.603C97.2218 128.664 97.2117 128.739 97.2067 128.799C97.2067 128.819 97.2067 128.834 97.2067 128.854C97.2067 128.859 97.2067 128.864 97.2067 128.869C97.2117 128.934 97.2218 129.005 97.2318 129.065C97.2318 129.075 97.2318 129.085 97.2368 129.095C97.2568 129.17 97.292 129.245 97.3271 129.316C97.3271 129.326 97.3371 129.331 97.3421 129.341C97.3421 129.341 97.3471 129.351 97.3522 129.351C97.3973 129.441 97.4575 129.506 97.5377 129.556C97.5829 129.602 97.6381 129.632 97.6982 129.647C97.7283 129.662 97.7584 129.677 97.7885 129.682L97.9791 129.707C97.9791 129.707 97.9791 129.707 97.9841 129.707C97.9892 129.707 97.9992 129.707 98.0042 129.707C98.0493 129.707 98.1547 129.697 98.2199 129.672C98.3302 129.642 98.4255 129.587 98.5058 129.506C98.571 129.446 98.6161 129.376 98.6412 129.296C98.6813 129.22 98.7014 129.135 98.6964 129.045C98.6964 128.929 98.6663 128.819 98.6061 128.719C98.6061 128.714 98.601 128.709 98.596 128.704C98.5659 128.654 98.5308 128.608 98.4907 128.563C98.4907 128.563 98.4907 128.563 98.4857 128.558C98.4606 128.533 98.3904 128.483 98.3603 128.463C98.3553 128.463 98.3503 128.458 98.3402 128.453L98.2048 128.393C98.2048 128.393 98.1998 128.393 98.1948 128.393C98.1396 128.378 98.0844 128.373 98.0343 128.368C98.0293 128.368 98.0192 128.368 98.0142 128.368C97.9841 128.368 97.8988 128.378 97.8688 128.388C97.8688 128.388 97.8638 128.388 97.8587 128.388L97.9941 128.368C97.9941 128.368 97.9791 128.368 97.9741 128.368C97.949 128.368 97.9239 128.373 97.9039 128.378C97.8788 128.378 97.8537 128.383 97.8336 128.388C97.8286 128.388 97.8186 128.388 97.8136 128.393L97.6982 128.443C97.623 128.488 97.5628 128.543 97.5227 128.618C97.4474 128.744 97.4324 128.909 97.4775 129.05C97.4876 129.09 97.5126 129.135 97.5277 129.17C97.5277 129.175 97.5327 129.185 97.5377 129.19C97.5628 129.23 97.5929 129.276 97.628 129.311C97.6982 129.376 97.7885 129.436 97.8838 129.456L97.9992 129.471C98.0594 129.471 98.1145 129.461 98.1697 129.431C98.2048 129.421 98.2399 129.401 98.265 129.376C98.3152 129.346 98.3503 129.306 98.3804 129.25L98.4255 129.145L98.4405 129.03C98.4405 128.97 98.4305 128.914 98.4004 128.859C98.3804 128.804 98.3503 128.759 98.3101 128.719H98.3252Z" fill="white"/>
<path d="M31.8044 54.5833C31.2878 52.7526 32.7373 50.8817 33.4194 49.999C34.9542 48.0228 36.9705 47.3306 37.9686 47.0046C39.4232 46.5281 40.6169 46.1369 41.8859 46.6184C43.857 47.3657 44.9705 49.8234 44.8401 51.8849C44.6495 54.9394 41.7204 57.0861 39.1222 57.6027C36.2382 58.1745 32.4815 56.9858 31.7993 54.5833H31.8044Z" fill="#F2F4F7"/>
<path d="M38.2236 50.4763C37.9678 49.5886 38.9809 48.1691 40.0844 48.1641C41.4787 48.1541 42.4417 50.4011 41.9151 51.1785C41.3383 52.0362 38.5747 51.6901 38.2185 50.4763H38.2236Z" fill="white"/>
<path d="M54.9097 41.567C68.8482 40.6843 83.6946 40.1978 99.3486 40.2931C112.144 40.3733 124.372 40.8297 135.993 41.567C136.51 41.567 139.243 41.6172 141.455 43.8291C142.855 45.2285 143.717 47.1595 143.717 49.2912V113.482C143.717 117.745 140.261 121.206 135.993 121.206C122.506 121.893 108.342 122.274 93.5555 122.239C80.1435 122.209 67.2432 121.838 54.9097 121.206C54.3931 121.206 51.6595 121.156 49.4476 118.944C48.0482 117.544 47.1855 115.613 47.1855 113.482V49.2912C47.1855 45.0279 50.6413 41.567 54.9097 41.567Z" fill="white"/>
<path d="M143.281 106.176C142.835 108.132 142.117 109.988 140.914 111.613C139.71 113.238 138.18 114.447 136.48 115.435C134.779 116.423 132.999 117.175 131.183 117.872C129.137 118.66 127.075 119.417 124.974 120.039C123.785 120.39 122.581 120.696 121.363 120.927C120.746 121.042 120.124 121.117 119.502 121.228C118.88 121.338 118.223 121.479 117.566 121.544C117.475 121.554 117.47 121.684 117.566 121.689C118.132 121.704 118.704 121.714 119.271 121.709C119.838 121.704 120.41 121.604 120.971 121.504C122.095 121.313 123.208 121.052 124.307 120.746C126.524 120.134 128.68 119.337 130.832 118.529C134.529 117.135 138.376 115.515 140.894 112.325C142.268 110.589 143.256 108.418 143.437 106.196C143.442 106.105 143.301 106.085 143.281 106.176Z" fill="black"/>
<path d="M140.447 115.595C137.955 116.513 135.417 117.2 132.809 117.682C130.2 118.163 127.412 118.589 124.708 118.996C119.156 119.833 113.568 120.49 107.951 120.516C104.796 120.531 101.626 120.43 98.5013 119.964C98.4461 119.954 98.4211 120.039 98.4762 120.049C101.215 120.551 104.008 120.902 106.792 120.957C109.576 121.012 112.45 120.877 115.269 120.626C118.087 120.375 120.881 120.009 123.675 119.598C126.469 119.186 129.202 118.765 131.951 118.268C134.865 117.742 137.869 117.125 140.518 115.746C140.603 115.7 140.543 115.56 140.452 115.59L140.447 115.595Z" fill="black"/>
<path d="M143.757 55.1706C139.043 55.0001 134.288 54.8496 129.493 54.7242C121.533 54.5236 113.463 54.3781 105.287 54.3079C85.2896 54.1374 65.899 54.4032 47.1504 55.0252V48.7305C47.2557 47.9882 47.657 45.8816 49.4375 44.0107C51.178 42.18 53.2043 41.6584 53.9416 41.5129C66.5711 40.6803 79.993 40.1788 94.1272 40.1537C106.235 40.1286 117.826 40.4546 128.841 41.0465C130.757 41.1418 132.653 41.2521 134.533 41.3675C135.06 41.3123 138.491 41.0365 141.114 43.5844C142.799 45.2246 143.261 47.1756 143.401 47.9481C143.522 50.3556 143.637 52.7581 143.757 55.1706Z" fill="#EEA563"/>
<path d="M143.756 55.171C139.042 55.0005 134.287 54.85 129.492 54.7246C129.276 50.1654 129.056 45.6061 128.84 41.0469C130.756 41.1422 132.652 41.2525 134.533 41.3679C135.059 41.3127 138.49 41.0369 141.113 43.5848C142.798 45.2249 143.26 47.176 143.4 47.9484C143.521 50.356 143.636 52.7585 143.756 55.171Z" fill="#C9C8C8"/>
<path d="M129.984 41.0817C131.489 40.3244 134.569 41.2623 135.04 42.9576C135.301 43.8905 134.719 44.8535 133.876 45.4253C132.683 46.2278 130.722 46.3983 129.638 45.641C128.76 45.024 128.796 44.0259 128.816 43.4441C128.836 42.9676 128.886 41.6335 129.979 41.0868L129.984 41.0817Z" fill="white"/>
<path d="M136.103 45.0894C135.722 45.0142 135.341 43.9057 135.782 43.1584C136.228 42.401 137.477 42.09 138.139 42.6769C138.701 43.1734 138.731 44.2067 138.355 44.5026C138.019 44.7634 137.542 44.312 136.855 44.6079C136.394 44.8085 136.324 45.1346 136.103 45.0894Z" fill="white"/>
<path d="M54.9097 41.567C68.8482 40.6843 83.6946 40.1978 99.3486 40.2931C112.144 40.3733 124.372 40.8297 135.993 41.567C136.51 41.567 139.243 41.6172 141.455 43.8291C142.855 45.2285 143.717 47.1595 143.717 49.2912V113.482C143.717 117.745 140.261 121.206 135.993 121.206C122.506 121.893 108.342 122.274 93.5555 122.239C80.1435 122.209 67.2432 121.838 54.9097 121.206C54.3931 121.206 51.6595 121.156 49.4476 118.944C48.0482 117.544 47.1855 115.613 47.1855 113.482V49.2912C47.1855 45.0279 50.6413 41.567 54.9097 41.567Z" stroke="black" stroke-width="0.8" stroke-linecap="round" stroke-linejoin="round"/>
<path d="M47.1914 55.0849C62.7249 54.5884 78.7149 54.3175 95.1362 54.3125C111.783 54.3125 127.989 54.5834 143.723 55.0849" stroke="black" stroke-width="0.8" stroke-linecap="round" stroke-linejoin="round"/>
<path d="M128.816 41.1523C128.967 43.3793 129.087 45.6665 129.173 48.0188C129.253 50.3009 129.298 52.5229 129.313 54.6896" stroke="black" stroke-width="0.8" stroke-linecap="round" stroke-linejoin="round"/>
<path d="M134.172 46.2422C134.889 46.8391 135.687 47.5914 136.489 48.5243C137.407 49.5927 138.094 50.6259 138.606 51.5137" stroke="black" stroke-width="0.8" stroke-linecap="round" stroke-linejoin="round"/>
<path d="M133.941 51.2994C134.478 50.537 135.165 49.6793 136.028 48.8016C137.016 47.8035 137.989 47.031 138.832 46.4492" stroke="black" stroke-width="0.8" stroke-linecap="round" stroke-linejoin="round"/>
<path d="M119.361 47.8779C120.204 47.7927 121.137 47.7375 122.155 47.7425C123.299 47.7425 124.342 47.8278 125.27 47.9431" stroke="black" stroke-width="0.8" stroke-linecap="round" stroke-linejoin="round"/>
<path d="M125.117 64H69.6083C66.9435 64 64.7832 66.1603 64.7832 68.8251V80.4113C64.7832 83.0761 66.9435 85.2364 69.6083 85.2364H125.117C127.782 85.2364 129.942 83.0761 129.942 80.4113V68.8251C129.942 66.1603 127.782 64 125.117 64Z" fill="#C9C8C8"/>
<path d="M124.525 70.1134C123.763 69.3259 123.03 67.776 123.738 66.8933C124.39 66.0807 125.975 66.2011 126.883 66.8933C128.257 67.9416 128.272 70.4293 127.314 71.0413C126.567 71.5177 125.237 70.8456 124.525 70.1134Z" fill="white"/>
<path d="M121.265 72.8503C120.392 73.3218 118.135 74.5807 117.157 77.1889C116.811 78.1118 116.5 78.9394 116.871 79.6917C117.603 81.1763 120.342 81.0911 121.731 81.0509C123.396 81.0008 124.716 80.9607 125.593 79.9776C126.456 79.0096 126.361 77.7155 126.235 76.0453C126.115 74.3851 125.98 72.5594 124.806 71.9676C123.818 71.471 122.614 72.118 121.26 72.8503H121.265Z" fill="white"/>
<path d="M66.2129 83.4589C98.4336 83.4489 121.907 83.3987 124.811 83.3736C125.267 83.3736 126.125 83.3134 127.028 82.8369C129.506 81.5278 129.761 78.3981 129.782 78.1172C129.746 79.4062 129.711 80.7003 129.676 81.9893C129.556 82.3604 129.185 83.3736 128.151 84.1561C126.993 85.0388 125.754 85.0589 125.383 85.0539C106.92 85.1141 88.4574 85.1742 69.9947 85.2344C69.5182 85.2595 68.2192 85.2545 67.0706 84.3717C66.6844 84.0708 66.4085 83.7448 66.2129 83.4589Z" fill="black"/>
<path d="M125.117 64H69.6083C66.9435 64 64.7832 66.1603 64.7832 68.8251V80.4113C64.7832 83.0761 66.9435 85.2364 69.6083 85.2364H125.117C127.782 85.2364 129.942 83.0761 129.942 80.4113V68.8251C129.942 66.1603 127.782 64 125.117 64Z" stroke="black" stroke-width="0.8" stroke-linecap="round" stroke-linejoin="round"/>
<path d="M77.3434 68.9297C77.213 70.309 77.1328 71.7886 77.1177 73.3585C77.0927 75.9065 77.2582 78.2438 77.519 80.3102" stroke="black" stroke-width="0.8" stroke-linecap="round" stroke-linejoin="round"/>
<path d="M100.257 91.6992H94.4644C92.866 91.6992 91.5703 92.9949 91.5703 94.5933V100.386C91.5703 101.985 92.866 103.28 94.4644 103.28H100.257C101.856 103.28 103.152 101.985 103.152 100.386V94.5933C103.152 92.9949 101.856 91.6992 100.257 91.6992Z" fill="#FFEECD"/>
<path d="M96.8577 91.6992C96.8176 91.8397 96.4966 93.0835 97.2891 94.0666C97.9261 94.8591 99.2602 95.4459 100.223 94.7839C101.086 94.187 101.347 92.7926 100.589 91.7193C99.3455 91.7143 98.1066 91.7042 96.8627 91.6992H96.8577Z" fill="white"/>
<path d="M91.7901 93.4883C91.0829 95.6551 91.5293 97.9572 92.9939 99.4268C94.1124 100.55 95.9983 101.353 97.7136 100.856C98.0647 100.756 99.3287 100.39 99.7851 99.3566C100.166 98.504 99.7299 97.7967 100.141 97.4958C100.598 97.1648 101.626 97.6864 102.213 98.2833C102.95 99.0356 103.386 100.31 102.95 101.448C102.604 102.341 101.867 102.782 101.495 102.998C100.603 103.525 99.755 103.555 98.5663 103.575C97.4378 103.595 97.5732 103.434 95.4214 103.279C93.997 103.179 93.6158 103.224 93.0691 102.918C92.2867 102.481 91.8904 101.714 91.6848 101.182C91.7199 98.6193 91.755 96.0513 91.7901 93.4883Z" fill="white"/>
<path d="M100.257 91.6992H94.4644C92.866 91.6992 91.5703 92.9949 91.5703 94.5933V100.386C91.5703 101.985 92.866 103.28 94.4644 103.28H100.257C101.856 103.28 103.152 101.985 103.152 100.386V94.5933C103.152 92.9949 101.856 91.6992 100.257 91.6992Z" stroke="black" stroke-width="0.8" stroke-linecap="round" stroke-linejoin="round"/>
<path d="M103.387 99.6561C102.87 99.0141 101.917 98.8786 101.15 99.0191C100.257 99.1846 99.5801 99.8216 98.8779 100.343C97.3532 101.472 95.3619 101.808 93.6115 100.99C92.7137 100.574 92.0366 99.8567 91.3193 99.2046C91.2641 99.1545 91.1588 99.2047 91.1889 99.2799C91.3293 99.6711 91.4949 99.9921 91.7958 100.288C92.0967 100.584 92.4629 100.86 92.8341 101.086C93.5714 101.532 94.4039 101.798 95.2616 101.868C96.1795 101.943 97.1074 101.773 97.9551 101.412C98.8027 101.05 99.4748 100.373 100.272 99.8918C100.729 99.6159 101.22 99.4354 101.762 99.4354C102.304 99.4354 102.81 99.6109 103.322 99.7764C103.397 99.8015 103.432 99.7062 103.392 99.6561H103.387Z" fill="black"/>
<path d="M95.0006 91.9144C94.9554 92.2705 94.9704 92.5715 95.0758 92.9176C95.1761 93.2436 95.3316 93.5596 95.5322 93.8304C95.9285 94.3621 96.4802 94.7633 97.0971 94.9991C97.714 95.2348 98.4463 95.3351 99.0683 95.0643C99.615 94.8285 100.016 94.337 100.197 93.7702C100.397 93.1333 100.307 92.1502 99.7604 91.6937C99.6501 91.6035 99.4244 91.6837 99.4896 91.8542C99.62 92.1903 99.8056 92.4812 99.8658 92.8423C99.926 93.2035 99.8858 93.5897 99.7203 93.9207C99.3943 94.5677 98.7172 94.9088 98.0049 94.8035C96.4952 94.5828 95.3667 93.379 95.1209 91.8994C95.1059 91.8191 95.0006 91.8492 94.9955 91.9144H95.0006Z" fill="black"/>
<path d="M83.3649 91.6992H77.5718C75.9735 91.6992 74.6777 92.9949 74.6777 94.5933V100.386C74.6777 101.985 75.9735 103.28 77.5718 103.28H83.3649C84.9632 103.28 86.2589 101.985 86.2589 100.386V94.5933C86.2589 92.9949 84.9632 91.6992 83.3649 91.6992Z" fill="#FFEECD"/>
<path d="M85.5199 92.9515C85.0786 92.9917 83.8096 93.1622 82.661 94.1653C82.335 94.4512 81.2717 95.3791 81.0861 96.7735C80.9858 97.5409 81.2316 97.8418 80.9407 98.3835C80.6447 98.9453 79.9375 99.4619 79.1149 99.3916C77.9914 99.2913 77.525 98.1578 77.4698 98.0274C77.0385 96.949 77.6554 95.9409 77.7557 95.7804C78.3124 94.9076 79.0096 95.0029 79.4008 94.2707C79.6265 93.8544 79.767 93.1421 79.2203 91.8832C79.782 91.6675 81.362 91.1509 83.2228 91.6926C84.3062 92.0086 85.0736 92.5703 85.5099 92.9465L85.5199 92.9515Z" fill="white"/>
<path d="M83.3649 91.6992H77.5718C75.9735 91.6992 74.6777 92.9949 74.6777 94.5933V100.386C74.6777 101.985 75.9735 103.28 77.5718 103.28H83.3649C84.9632 103.28 86.2589 101.985 86.2589 100.386V94.5933C86.2589 92.9949 84.9632 91.6992 83.3649 91.6992Z" stroke="black" stroke-width="0.8" stroke-linecap="round" stroke-linejoin="round"/>
<path d="M79.3665 91.88C79.3013 92.6173 79.1508 93.2944 78.7797 93.9414C78.4687 94.4932 78.0624 94.9947 77.6211 95.4511C77.1797 95.9076 76.6881 96.2888 76.1364 96.5947C75.8505 96.7552 75.5496 96.8957 75.2436 97.016C74.9678 97.1214 74.6869 97.1866 74.4261 97.327C74.3559 97.3671 74.386 97.4825 74.4662 97.4825C74.8023 97.4825 75.1233 97.3471 75.4342 97.2267C75.7452 97.1063 76.0261 96.9709 76.312 96.8104C76.9038 96.4794 77.4606 96.0731 77.9521 95.6066C78.4436 95.1402 78.87 94.5734 79.1759 93.9615C79.4819 93.3496 79.7427 92.5621 79.4919 91.87C79.4668 91.7997 79.3715 91.8148 79.3665 91.885V91.88Z" fill="black"/>
<path d="M85.6815 93.185C85.3254 93.1499 84.9041 93.2953 84.5781 93.4308C84.1868 93.5913 83.8257 93.8019 83.4947 94.0577C82.8677 94.5392 82.336 95.1511 81.985 95.8634C81.0871 97.6841 81.2727 99.916 80.1643 101.646C79.8784 102.098 79.4871 102.479 79.0207 102.74C78.5542 103.001 78.0025 103.076 77.4558 103.051C77.3555 103.051 77.3455 103.191 77.4307 103.221C78.2031 103.482 79.0508 103.101 79.6426 102.609C80.3548 102.018 80.736 101.18 81.037 100.322C81.3931 99.3091 81.5787 98.2408 81.8596 97.2076C82.1103 96.2746 82.5317 95.432 83.2238 94.7499C83.5699 94.4038 83.9661 94.1179 84.3975 93.8772C84.6031 93.7618 84.8188 93.6565 85.0345 93.5662C85.2501 93.4759 85.5009 93.4207 85.7166 93.3054C85.7718 93.2753 85.7417 93.2 85.6865 93.195L85.6815 93.185Z" fill="black"/>
<path d="M117.148 91.6992H111.355C109.757 91.6992 108.461 92.9949 108.461 94.5933V100.386C108.461 101.985 109.757 103.28 111.355 103.28H117.148C118.746 103.28 120.042 101.985 120.042 100.386V94.5933C120.042 92.9949 118.746 91.6992 117.148 91.6992Z" stroke="black" stroke-width="0.8" stroke-linecap="round" stroke-linejoin="round"/>
<path d="M109.384 95.3703C109.435 95.275 110.041 94.2117 111.26 93.9759C112.89 93.6599 114.566 95.0242 114.691 96.228C114.761 96.87 114.33 96.9201 113.833 98.3747C113.302 99.9245 113.568 100.516 112.976 101.003C112.434 101.449 111.581 101.454 110.989 101.219C109.801 100.742 109.505 99.2374 109.274 98.0537C109.073 97.0405 108.913 96.223 109.379 95.3703H109.384Z" fill="#FFEECD"/>
<path d="M118.914 92.3017C118.563 92.3268 118.333 92.8785 118.127 93.3901C117.711 94.3932 117.741 95.276 117.751 95.4816C117.776 96.0133 117.861 97.8791 118.985 98.3757C119.03 98.3957 119.647 98.6616 120.048 98.3757C120.269 98.2152 120.374 97.9243 120.324 96.2841C120.289 95.1205 120.269 94.5287 120.108 94.0321C120.073 93.9167 119.536 92.2565 118.914 92.3017Z" fill="#FFEECD"/>
<path d="M117.148 91.6992H111.355C109.757 91.6992 108.461 92.9949 108.461 94.5933V100.386C108.461 101.985 109.757 103.28 111.355 103.28H117.148C118.746 103.28 120.042 101.985 120.042 100.386V94.5933C120.042 92.9949 118.746 91.6992 117.148 91.6992Z" stroke="black" stroke-width="0.8" stroke-linecap="round" stroke-linejoin="round"/>
<path d="M108.988 94.6834C108.868 94.6182 109.425 94.2471 109.495 94.207C109.716 94.0766 109.941 93.9662 110.187 93.8859C110.619 93.7505 111.055 93.7204 111.501 93.7706C112.414 93.8759 113.222 94.3825 113.683 95.18C114.145 95.9775 114.195 96.9455 113.859 97.8333C113.523 98.7211 113.041 99.6239 113.457 100.577C113.673 101.073 114.074 101.48 114.245 101.991C114.405 102.458 114.33 102.914 114.034 103.305C113.994 103.361 114.059 103.426 114.114 103.411C114.551 103.31 114.696 102.869 114.691 102.463C114.681 101.916 114.41 101.475 114.135 101.018C113.778 100.426 113.593 99.8847 113.793 99.2026C113.974 98.5957 114.31 98.0439 114.456 97.427C114.937 95.3906 113.252 93.1135 111.075 93.3994C110.498 93.4747 109.936 93.6452 109.46 93.9863C109.36 94.0565 108.657 94.6132 108.963 94.7286C108.988 94.7386 109.009 94.6935 108.983 94.6834H108.988Z" fill="black"/>
<path d="M118.532 92.3051C117.519 92.9521 117.088 94.1809 117.238 95.3446C117.323 95.9966 117.554 96.6386 117.92 97.1853C118.241 97.6668 118.703 98.2637 119.254 98.4894C119.31 98.5145 119.34 98.4342 119.31 98.3991C119.124 98.1835 118.883 98.0179 118.683 97.8173C118.482 97.6167 118.286 97.3759 118.126 97.1302C117.79 96.6236 117.529 96.0568 117.429 95.4549C117.243 94.2963 117.664 93.1126 118.582 92.3653C118.617 92.3402 118.572 92.285 118.537 92.3051H118.532Z" fill="black"/>
<path d="M129.354 98.1644C129.053 98.4352 128.993 98.5306 129.173 98.4403C129.243 98.4152 129.309 98.3751 129.359 98.3199C129.434 98.2697 129.449 98.2346 129.534 98.1945L129.158 98.2948C129.479 98.2697 129.795 98.2547 130.101 98.1443C130.382 98.044 130.648 97.9888 130.924 97.9888C131.465 97.9788 131.952 98.0541 132.388 98.4102C132.253 98.2998 132.599 98.661 132.519 98.5606C132.488 98.5205 132.634 98.7512 132.669 98.8114C132.699 98.8716 132.734 98.9268 132.759 98.992C132.664 98.7763 132.749 98.982 132.759 99.0271C132.799 99.1776 132.84 99.328 132.875 99.4785C132.935 99.7042 132.865 99.2478 132.88 99.4785C132.88 99.5437 132.89 99.6089 132.89 99.6791C132.89 99.8146 132.88 99.945 132.875 100.08C132.89 99.7494 132.845 100.166 132.824 100.256C132.809 100.321 132.779 100.381 132.769 100.447C132.794 100.316 132.85 100.296 132.769 100.442C132.729 100.517 132.674 100.592 132.639 100.667C132.654 100.642 132.809 100.487 132.674 100.627C132.549 100.758 132.433 100.888 132.293 100.998C132.473 100.858 132.167 101.063 132.107 101.094C132.042 101.134 131.972 101.169 131.902 101.204C131.856 101.229 131.545 101.349 131.786 101.259C131.014 101.545 130.206 101.665 129.454 102.021C127.869 102.774 126.971 104.795 127.132 106.5C127.217 107.428 127.944 108.868 129.103 108.296C129.981 107.86 130.061 106.887 130.241 106.039C130.282 105.853 130.332 105.673 130.397 105.492C130.322 105.713 130.452 105.387 130.492 105.317C130.532 105.252 130.572 105.186 130.613 105.126C130.753 104.921 130.467 105.267 130.648 105.101C130.703 105.051 130.753 104.996 130.808 104.946C130.673 105.066 130.763 104.981 130.858 104.921C130.858 104.921 131.089 104.785 130.964 104.855C130.818 104.931 131.129 104.795 131.159 104.785C131.32 104.73 131.48 104.685 131.641 104.64C132.042 104.524 132.428 104.399 132.814 104.238C134.294 103.616 135.573 102.483 135.844 100.828C136.115 99.1726 135.483 97.5324 134.114 96.5494C132.744 95.5663 130.979 95.471 129.484 96.1832C128.897 96.4641 128.14 97.2967 128.361 98.034C128.436 98.2898 128.656 98.5155 128.942 98.5055C129.128 98.5005 129.329 98.3751 129.334 98.1744L129.354 98.1644Z" fill="#F2F4F7"/>
<path d="M127.192 109.574C127.192 109.574 127.162 109.584 127.142 109.584L127.548 109.529C127.548 109.529 127.503 109.529 127.478 109.529L127.889 109.584C127.889 109.584 127.849 109.574 127.829 109.569L128.2 109.724C128.2 109.724 128.17 109.709 128.155 109.699L128.476 109.945C128.476 109.945 128.456 109.925 128.446 109.915L128.697 110.236C128.697 110.236 128.687 110.226 128.687 110.221L128.436 112.157C128.536 112.052 128.627 111.941 128.702 111.816L128.867 111.42C128.948 111.129 128.948 110.833 128.867 110.542L128.702 110.146C128.557 109.895 128.356 109.699 128.11 109.554L127.714 109.388C127.423 109.308 127.127 109.308 126.836 109.388C126.62 109.438 126.435 109.539 126.274 109.684C126.094 109.8 125.953 109.955 125.848 110.151C125.728 110.341 125.662 110.547 125.652 110.768C125.602 110.988 125.612 111.209 125.683 111.43C125.733 111.645 125.833 111.831 125.978 111.991C126.094 112.172 126.249 112.312 126.445 112.418C126.636 112.538 126.841 112.603 127.062 112.613C127.283 112.664 127.503 112.654 127.724 112.583C127.859 112.528 127.99 112.473 128.125 112.413H126.51C126.851 112.573 126.997 112.633 127.378 112.643C127.383 112.643 127.393 112.643 127.398 112.643C127.543 112.633 127.684 112.608 127.829 112.588C127.844 112.588 127.854 112.583 127.869 112.578C128.005 112.533 128.145 112.473 128.271 112.408C128.281 112.403 128.296 112.393 128.306 112.388L128.617 112.147C128.617 112.147 128.622 112.147 128.627 112.142C128.627 112.142 128.637 112.132 128.642 112.127C128.742 112.027 128.822 111.906 128.903 111.791L129.053 111.43L129.108 111.028L129.053 110.627C129.008 110.432 128.918 110.261 128.782 110.116C128.717 110 128.627 109.91 128.511 109.845C128.416 109.749 128.306 109.684 128.18 109.649C128.065 109.579 127.935 109.549 127.799 109.544C127.599 109.499 127.398 109.509 127.197 109.569L127.192 109.574Z" fill="#F2F4F7"/>
<path d="M43.7446 19.0298C44.2763 19.0749 44.6424 18.7238 44.8681 18.2825C45.154 17.7257 45.3847 17.2743 45.8311 16.8229C46.6687 15.9652 47.8374 15.2279 48.9709 14.8417C51.0825 14.1195 53.3045 14.7615 54.6737 16.5521C56.043 18.3427 56.0179 20.8455 55.0248 22.8016C53.9364 24.9383 51.7095 26.1019 50.4405 28.1082C49.5929 29.4474 49.3872 31.0123 49.6079 32.5621C49.7233 33.3696 49.949 34.1521 50.2299 34.9195C50.5107 35.6868 50.7866 36.5947 51.4085 37.1815C52.0305 37.7684 53.139 37.3671 53.1139 36.4743C53.0888 35.6869 52.7126 35.0298 52.4468 34.3076C52.1809 33.5853 51.9502 32.853 51.865 32.1006C51.7145 30.8016 52.0606 29.6279 52.9183 28.6449C53.7759 27.6618 54.749 26.9395 55.5916 26.0217C56.5145 25.0185 57.2117 23.8499 57.643 22.5558C58.5208 19.9226 58.0995 16.9834 56.344 14.8166C54.5885 12.6499 51.9854 11.6568 49.3421 12.1734C47.6969 12.4944 46.117 13.4123 44.8681 14.5107C44.3214 14.9922 43.8098 15.5539 43.4838 16.211C43.3032 16.5621 43.1477 16.9533 43.0725 17.3445C43.0474 17.485 43.0273 17.6505 43.0273 17.7959C43.0374 17.9414 43.0524 18.0869 43.0775 18.2323C43.1126 18.448 43.1427 18.3828 43.1678 18.0417C42.8317 18.4831 43.3032 19.0047 43.7396 19.0398L43.7446 19.0298Z" fill="black"/>
<path d="M53.2489 38.9048H53.2339C53.5148 39.0252 53.7956 39.1355 54.0715 39.2509C54.0665 39.2409 54.0615 39.2308 54.0565 39.2208L54.1317 39.4014C54.1166 39.3663 54.1066 39.3412 54.0916 39.3011C54.0715 39.2359 54.0414 39.1807 53.9912 39.1305C53.9712 39.1004 53.9511 39.0754 53.926 39.0503L54.0464 39.2058C54.0464 39.2058 54.0163 39.1606 54.0063 39.1355L54.0865 39.3211C54.0765 39.291 54.0665 39.2659 54.0615 39.2359L54.0916 39.4415C54.0916 39.4114 54.0916 39.3813 54.0916 39.3512L54.0615 39.5619C54.0615 39.5318 54.0715 39.5067 54.0815 39.4816L54.0013 39.6722C54.0013 39.6722 54.0113 39.6522 54.0163 39.6421L52.9179 39.928C52.9179 39.928 52.9329 39.9381 52.938 39.9431L52.7674 39.8127C52.7925 39.8427 52.8577 39.8879 52.8577 39.8829C52.9279 39.933 52.9129 39.933 52.953 39.9531C52.958 39.9531 52.9681 39.9631 52.9731 39.9681L52.7975 39.8327C52.7975 39.8327 52.8226 39.8578 52.8376 39.8728L52.6972 39.6923C52.6972 39.6923 52.7173 39.7224 52.7223 39.7424L52.627 39.5167C52.627 39.5167 52.637 39.5468 52.637 39.5619L52.7323 38.8196C52.7323 38.8196 52.7273 38.8296 52.7223 38.8296C52.6521 38.9449 52.6119 39.0653 52.6019 39.2007C52.5718 39.3311 52.5768 39.4666 52.622 39.597C52.6571 39.6772 52.6922 39.7575 52.7223 39.8377L52.622 39.602C52.622 39.602 52.632 39.6321 52.637 39.6522L52.6019 39.3863C52.6019 39.3863 52.6019 39.4114 52.6019 39.4265L52.637 39.1606C52.6721 39.0854 52.7072 39.0051 52.7373 38.9249C52.7323 38.9399 52.7223 38.955 52.7123 38.965L52.8727 38.7544C52.8727 38.7544 52.8477 38.7794 52.8326 38.7945L53.0483 38.629C53.0483 38.629 53.0433 38.629 53.0383 38.634L53.2941 38.5286C53.2941 38.5286 53.279 38.5286 53.274 38.5337H53.264C53.2188 38.5437 53.1737 38.5587 53.1336 38.5888C53.0884 38.6089 53.0433 38.629 52.9981 38.644L52.7774 38.8145L52.6069 39.0352C52.4013 39.3562 52.5216 39.2058 52.4966 39.3061C52.4966 39.3161 52.4916 39.3211 52.4865 39.3312L52.5969 39.0754C52.5969 39.0754 52.5919 39.0904 52.5869 39.0954C52.4916 39.2609 52.4414 39.4415 52.4414 39.6321C52.4414 39.8227 52.4916 40.0032 52.5869 40.1688C52.6822 40.3293 52.8075 40.4547 52.968 40.55C53.1336 40.6453 53.3141 40.6954 53.5047 40.6954C53.6101 40.6954 53.7154 40.6753 53.8157 40.6553C53.8709 40.6453 53.916 40.6202 53.9762 40.5951C54.1116 40.55 54.227 40.4747 54.3273 40.3694C54.4627 40.234 54.558 40.0735 54.6082 39.8879C54.6333 39.7926 54.6483 39.6873 54.6483 39.587C54.6483 39.5769 54.6483 39.5669 54.6483 39.5569C54.6483 39.5468 54.6483 39.5368 54.6483 39.5268C54.6483 39.5217 54.6483 39.5167 54.6483 39.5117V39.5017L54.6132 39.2258C54.6132 39.2258 54.6132 39.2058 54.6082 39.1957C54.5781 39.1004 54.538 39.0102 54.4928 38.9249L54.5931 39.1656C54.5931 39.1656 54.5931 39.1406 54.5831 39.1305C54.5831 39.1305 54.5831 39.1255 54.5831 39.1205L54.4828 38.8797C54.4828 38.8797 54.4778 38.8697 54.4727 38.8597C54.4477 38.8145 54.4025 38.7644 54.3774 38.7343C54.3072 38.6239 54.2169 38.5387 54.0966 38.4785C53.9812 38.4083 53.8608 38.3681 53.7254 38.3581C53.5599 38.3381 53.5097 38.328 53.3191 38.3782H53.8307C53.8307 38.3782 53.8107 38.3732 53.8006 38.3681C53.8006 38.3681 53.7906 38.3681 53.7856 38.3681C53.7054 38.3531 53.61 38.3431 53.5298 38.333C53.4696 38.328 53.4094 38.3431 53.3543 38.3481C53.2991 38.3531 53.2389 38.3581 53.1837 38.3782C53.1085 38.4083 53.0282 38.4334 52.958 38.4735C52.8326 38.5437 52.7072 38.6641 52.642 38.7895L52.7724 38.6189C52.6571 38.7443 52.647 38.7644 52.5969 38.8948C52.5568 38.96 52.5417 39.0302 52.5417 39.1054C52.5267 39.1506 52.5216 39.1957 52.5267 39.2409L52.5568 39.0252C52.5317 39.1054 52.5267 39.2208 52.5166 39.291C52.5166 39.3111 52.5166 39.3312 52.5166 39.3512C52.5166 39.4365 52.5317 39.5268 52.5518 39.612C52.5518 39.6321 52.5618 39.6522 52.5668 39.6722C52.5969 39.7475 52.627 39.8327 52.6671 39.9029C52.6671 39.913 52.6771 39.918 52.6821 39.928C52.7223 39.9882 52.7724 40.0484 52.8176 40.1036C52.8326 40.1186 52.8427 40.1337 52.8577 40.1487L53.0132 40.2691L53.1938 40.3443C53.1938 40.3443 53.2038 40.3443 53.2088 40.3443C53.2188 40.3443 53.2289 40.3493 53.2389 40.3544L53.4345 40.3794C53.5348 40.3794 53.6301 40.3644 53.7204 40.3142C53.7856 40.2942 53.8358 40.2641 53.8859 40.2189C53.9662 40.1688 54.0314 40.0986 54.0765 40.0083V39.9932C54.1066 39.933 54.1317 39.8779 54.1568 39.8177L54.1818 39.6221L54.1568 39.4265C54.1317 39.3312 54.0916 39.2459 54.0264 39.1757C53.9913 39.1205 53.9511 39.0754 53.8959 39.0453C53.8508 39.0001 53.7956 38.97 53.7354 38.95C53.6803 38.9148 53.6151 38.8998 53.5499 38.8998C53.4496 38.8797 53.3543 38.8848 53.2539 38.9148L53.2489 38.9048Z" fill="black"/>
<path d="M16.4846 140.611C15.7975 140.481 14.6388 140.165 13.4501 139.332C12.5021 138.67 11.8902 137.928 11.5241 137.406C11.3034 137.005 11.2232 136.654 11.1881 136.423C11.1529 136.212 11.1178 135.977 11.1931 135.681C11.2332 135.525 11.2934 135.375 11.3837 135.234L28.126 108.335C28.2815 108.155 28.6025 107.839 29.109 107.633C29.6959 107.392 30.2175 107.427 30.4533 107.463C32.0683 108.541 33.6834 109.619 35.2984 110.698C35.4087 110.838 35.6395 111.174 35.6896 111.666C35.7548 112.278 35.499 112.729 35.4087 112.874L18.6664 139.774C18.526 139.939 18.21 140.27 17.6833 140.476C17.1567 140.681 16.6953 140.646 16.4796 140.616L16.4846 140.611Z" fill="#C9C8C8"/>
<path d="M16.4846 140.611C15.7975 140.481 14.6388 140.165 13.4501 139.332C12.5021 138.67 11.8902 137.928 11.5241 137.406C11.3034 137.005 11.2232 136.654 11.1881 136.423C11.1529 136.212 11.1178 135.977 11.1931 135.681C11.2332 135.525 11.2934 135.375 11.3837 135.234L28.126 108.335C28.2815 108.155 28.6025 107.839 29.109 107.633C29.6959 107.392 30.2175 107.427 30.4533 107.463C32.0683 108.541 33.6834 109.619 35.2984 110.698C35.4087 110.838 35.6395 111.174 35.6896 111.666C35.7548 112.278 35.499 112.729 35.4087 112.874L18.6664 139.774C18.526 139.939 18.21 140.27 17.6833 140.476C17.1567 140.681 16.6953 140.646 16.4796 140.616L16.4846 140.611Z" stroke="black" stroke-width="0.8" stroke-linecap="round" stroke-linejoin="round"/>
<path d="M32.5187 102.734C31.7413 104.505 30.9688 106.275 30.1914 108.051C30.5224 108.553 31.0541 109.245 31.8717 109.882C32.925 110.709 33.9732 111.08 34.6203 111.256C36.145 109.982 37.6748 108.713 39.1996 107.439" fill="white"/>
<path d="M34.3997 111.598C33.1056 113.745 31.8116 115.897 30.5175 118.044C30.6229 118.199 30.7332 118.4 30.8034 118.65C31.0442 119.523 30.5978 120.286 30.4824 120.476C32.0423 118.069 33.6072 115.661 35.1671 113.254C35.2874 113.118 35.6787 112.642 35.6937 111.924C35.7037 111.443 35.5332 111.077 35.4379 110.906C35.0918 111.137 34.7457 111.368 34.3997 111.598Z" fill="black"/>
<path d="M29.9507 118.602C30.0209 118.908 30.0761 119.274 30.0861 119.685C30.1062 120.653 29.8654 121.44 29.6548 121.937C29.414 122.288 29.1783 122.639 28.9375 122.99C29.1331 122.484 29.3438 121.776 29.404 120.919C29.4391 120.427 29.414 119.986 29.3689 119.615C29.5645 119.279 29.7551 118.938 29.9507 118.602Z" fill="black"/>
<path d="M32.5187 102.734C31.7413 104.505 30.9688 106.275 30.1914 108.051C30.5224 108.553 31.0541 109.245 31.8717 109.882C32.925 110.709 33.9732 111.08 34.6203 111.256C36.145 109.982 37.6748 108.713 39.1996 107.439" fill="white"/>
<path d="M32.5187 102.734C31.7413 104.505 30.9688 106.275 30.1914 108.051C30.5224 108.553 31.0541 109.245 31.8717 109.882C32.925 110.709 33.9732 111.08 34.6203 111.256C36.145 109.982 37.6748 108.713 39.1996 107.439" stroke="black" stroke-width="0.8" stroke-linecap="round" stroke-linejoin="round"/>
<path d="M34.7219 104.602C33.774 106.362 32.821 108.123 31.873 109.878" stroke="black" stroke-width="0.8" stroke-linecap="round" stroke-linejoin="round"/>
<path d="M16.043 140.514C16.2887 140.122 16.5395 139.731 16.7853 139.34" stroke="black" stroke-width="0.8" stroke-linecap="round" stroke-linejoin="round"/>
<path d="M18.3242 136.914C18.896 135.986 19.4678 135.053 20.0396 134.125" stroke="black" stroke-width="0.8" stroke-linecap="round" stroke-linejoin="round"/>
<path d="M21.7969 130.989C26.0702 124.414 30.3436 117.833 34.622 111.258" stroke="black" stroke-width="0.8" stroke-linecap="round" stroke-linejoin="round"/>
<path d="M46.91 60.25C33.9244 60.25 23.3965 70.7829 23.3965 83.7685C23.3965 96.7541 33.9244 107.282 46.91 107.282C59.8955 107.282 70.4285 96.7541 70.4285 83.7685C70.4285 70.7829 59.8955 60.25 46.91 60.25ZM46.91 102.402C36.6178 102.402 28.2817 94.0556 28.2817 83.7735C28.2817 73.4914 36.6228 65.1453 46.91 65.1453C57.1971 65.1453 65.5382 73.4864 65.5382 83.7735C65.5382 94.0607 57.1971 102.402 46.91 102.402Z" fill="white"/>
<path d="M72.3141 85.7636C72.3141 98.7491 61.7862 109.282 48.7956 109.282C41.563 109.282 35.0928 106.017 30.7793 100.881C34.9874 104.848 40.6652 107.286 46.9097 107.286C59.8953 107.286 70.4282 96.7579 70.4282 83.7673C70.4282 77.9993 68.3517 72.7128 64.9059 68.625C69.4652 72.9184 72.3191 79.0024 72.3191 85.7585L72.3141 85.7636Z" fill="white"/>
<path d="M60.9082 71.4754C57.648 68.6566 53.3947 66.9563 48.7402 66.9563C38.453 66.9563 30.112 75.2974 30.112 85.5795C30.112 90.2892 31.8574 94.5927 34.7465 97.8729C30.7891 94.4623 28.2812 89.4065 28.2812 83.7688C28.2812 73.4817 36.6273 65.1406 46.9095 65.1406C52.4869 65.1406 57.4976 67.5933 60.9082 71.4804V71.4754Z" fill="white"/>
<path d="M51.543 106.756C52.2301 107.414 52.9173 108.066 53.6044 108.723C54.4771 108.517 55.3499 108.306 56.2226 108.101C55.5505 107.449 54.8784 106.797 54.2113 106.145C53.3235 106.35 52.4358 106.551 51.548 106.756H51.543Z" fill="black"/>
<path d="M56.9709 107.709C56.2436 107.118 55.5163 106.521 54.7891 105.929C55.3207 105.718 55.8474 105.508 56.379 105.297C56.6098 105.603 56.9558 105.959 57.4574 106.205C59.1627 107.052 61.0336 105.849 61.179 105.753C59.7797 106.405 58.3753 107.052 56.9759 107.704L56.9709 107.709Z" fill="black"/>
<path d="M30.2016 75.5195C30.5678 76.4775 30.9339 77.4355 31.3051 78.3935C30.9239 79.5622 30.5578 81.0017 30.3371 82.6669C30.1364 84.1966 30.1013 85.5709 30.1465 86.7245C30.2869 85.0794 30.2719 82.9728 29.7352 80.6104C29.5496 79.7979 29.3239 79.0455 29.0781 78.3684C29.4543 77.4205 29.8305 76.4675 30.2067 75.5195H30.2016Z" fill="black"/>
<path d="M30.4883 74.9684C30.5585 75.3496 30.6488 75.7559 30.7692 76.1772C30.9798 76.9245 31.2306 77.5816 31.4864 78.1434C31.6569 77.8976 31.8325 77.6468 32.003 77.401C31.8325 76.8092 31.662 75.9716 31.667 74.9634C31.667 74.0004 31.8275 73.2029 31.988 72.6211C31.4914 73.4035 30.9899 74.186 30.4933 74.9684H30.4883Z" fill="black"/>
<path d="M28.723 79.7109C29.0942 81.1906 29.4653 82.6652 29.8365 84.1448C29.8816 85.8652 30.1023 88.047 30.7644 90.4896C31.2459 92.2702 31.8528 93.8 32.4496 95.0489C31.8427 94.3316 31.0302 93.2432 30.3029 91.7937C28.7581 88.7191 28.5675 85.9454 28.4772 84.4307C28.407 83.262 28.407 81.637 28.723 79.7109Z" fill="black"/>
<path d="M38.2726 61.8928C39.3259 61.4765 40.5848 61.0703 42.0293 60.7643C44.0657 60.333 45.8764 60.2327 47.3259 60.2627C47.2105 60.333 46.0419 61.0402 45.9265 62.3994C45.8312 63.553 46.5384 64.6916 47.6971 65.1881C46.7992 64.9975 45.2845 64.7919 43.4588 65.133C41.7735 65.449 40.5096 66.101 39.7522 66.5674C40.5347 65.9555 40.9359 64.9925 40.7754 64.0596C40.5798 62.901 39.5466 61.9831 38.2676 61.8928H38.2726Z" fill="#F2F4F7"/>
<path d="M55.255 61.7773C56.534 62.8005 56.86 63.6933 56.9202 64.3253C56.9754 64.8921 56.7898 64.9824 56.8149 65.8802C56.8299 66.5773 56.855 67.5755 57.502 68.4382C57.6976 68.694 58.1089 69.1654 58.8864 69.4965C59.6136 70.1084 60.4513 70.9059 61.2839 71.914C62.1064 72.9121 62.7284 73.8701 63.1848 74.6977C61.4795 73.1679 60.8324 71.3723 61.4243 70.3842C61.65 70.0081 62.1516 69.5867 62.7133 69.5817C63.6061 69.5767 63.892 70.635 65.0707 71.1918C65.808 71.5378 66.6205 71.5529 67.413 71.4024C66.3296 69.9278 64.8249 68.1673 62.7986 66.4419C60.0249 64.0795 57.2914 62.6501 55.25 61.7824L55.255 61.7773Z" fill="#F2F4F7"/>
<path d="M64.0176 91.1478C63.9574 91.3735 63.8069 92.0305 64.158 92.512C64.6947 93.2493 65.9737 93.0036 66.3048 92.9434C68.6069 92.507 69.6753 89.4926 69.8308 89.0362C70.1919 88.6449 70.6834 88.023 71.0245 87.1503C71.2703 86.5133 71.3104 86.0819 71.5261 84.7177C71.6164 84.1308 71.7618 83.2681 71.9574 82.2148C72.1781 83.4136 72.3587 85.0036 72.2885 86.8594C72.2684 87.4412 72.1781 89.1967 71.6264 91.4236C71.3054 92.7227 70.6784 94.759 69.4395 97.0362C67.1173 101.294 63.9324 104.008 63.7769 103.888C63.6866 103.812 64.765 102.869 65.4521 100.948C65.7681 100.061 65.7631 99.6443 66.2395 99.0876C66.9066 98.3151 67.5537 98.3954 67.8847 97.7985C68.1054 97.3973 68.1907 96.68 67.3831 95.2957C66.701 96.5246 66.0088 97.5127 65.432 98.255C64.9706 98.8518 63.9073 100.156 62.2722 101.565C61.0784 102.599 60.1204 103.311 60.0703 103.251C59.9549 103.12 65.091 99.539 64.6596 96.5847C64.6195 96.3239 64.5092 95.5465 63.8722 95.0851C63.0847 94.5133 62.0465 94.8192 61.8609 94.8794C62.5831 93.6355 63.3004 92.3866 64.0226 91.1427L64.0176 91.1478Z" fill="#F2F4F7"/>
<path d="M40.8311 64.3555C40.5954 64.7016 40.1941 65.2232 39.5972 65.7498C38.1226 67.0439 36.5427 67.39 35.8957 67.5755C31.7326 68.7693 29.1245 74.126 28.6029 75.1893C27.2988 77.8627 27.0631 80.21 26.9427 81.5693C26.6919 84.2928 26.4612 86.8608 27.8004 89.3987C28.7483 91.1943 30.0022 92.0621 29.6261 93.1505C29.3352 93.9831 28.2718 94.4445 27.4292 94.4395C26.08 94.4244 24.7759 93.2056 24.5352 91.4351C25.0919 93.1806 26.1753 95.8188 28.3421 98.4621C31.4417 102.239 35.0881 103.989 36.974 104.737C36.7433 104.2 36.5527 103.513 36.8687 103.076C37.29 102.49 38.3734 102.695 40.2994 102.971C45.3502 103.688 46.7295 103.533 47.5922 103.347C48.7609 103.097 49.6587 102.65 50.2204 102.329C48.6355 102.615 45.8568 102.911 42.5515 102.113C38.5138 101.14 35.9308 99.084 35.2587 98.5222C32.3496 96.1047 31.0455 93.3912 30.3082 91.8063C29.5358 90.1561 28.1314 87.0564 28.2869 82.8081C28.4574 78.1787 30.3935 74.8683 31.2361 73.5843C34.2907 68.9298 38.5891 67.084 40.1389 66.5072C41.2825 65.9755 41.8844 65.2683 41.749 64.847C41.6336 64.4959 41.0116 64.3906 40.8361 64.3655L40.8311 64.3555Z" fill="#F2F4F7"/>
<path d="M46.9091 107.287C59.898 107.287 70.4276 96.7574 70.4276 83.7685C70.4276 70.7796 59.898 60.25 46.9091 60.25C33.9202 60.25 23.3906 70.7796 23.3906 83.7685C23.3906 96.7574 33.9202 107.287 46.9091 107.287Z" stroke="black" stroke-width="0.8" stroke-linecap="round" stroke-linejoin="round"/>
<path d="M46.9095 102.397C57.1975 102.397 65.5377 94.0569 65.5377 83.7688C65.5377 73.4808 57.1975 65.1406 46.9095 65.1406C36.6214 65.1406 28.2812 73.4808 28.2812 83.7688C28.2812 94.0569 36.6214 102.397 46.9095 102.397Z" stroke="black" stroke-width="0.8" stroke-linecap="round" stroke-linejoin="round"/>
<path d="M72.3141 85.7636C72.3141 98.7491 61.7862 109.282 48.7956 109.282C41.563 109.282 35.0928 106.017 30.7793 100.881C34.9874 104.848 40.6652 107.286 46.9097 107.286C59.8953 107.286 70.4282 96.7579 70.4282 83.7673C70.4282 77.9993 68.3517 72.7128 64.9059 68.625C69.4652 72.9184 72.3191 79.0024 72.3191 85.7585L72.3141 85.7636Z" stroke="black" stroke-width="0.8" stroke-linecap="round" stroke-linejoin="round"/>
<path d="M60.9082 71.4754C57.648 68.6566 53.3947 66.9563 48.7402 66.9563C38.453 66.9563 30.112 75.2974 30.112 85.5795C30.112 90.2892 31.8574 94.5927 34.7465 97.8729C30.7891 94.4623 28.2812 89.4065 28.2812 83.7688C28.2812 73.4817 36.6273 65.1406 46.9095 65.1406C52.4869 65.1406 57.4976 67.5933 60.9082 71.4804V71.4754Z" stroke="black" stroke-width="0.8" stroke-linecap="round" stroke-linejoin="round"/>
<path d="M40.324 61.4973C40.1384 62.0892 39.9277 62.5556 39.3058 62.7613C38.8143 62.9218 38.2826 62.9619 37.781 63.0873C36.7879 63.3431 35.8099 63.7895 35.0776 64.5268C34.3453 65.2641 33.8638 66.3023 33.1315 67.0898C32.7403 67.5111 32.2738 67.8371 31.707 67.9675C31.4312 68.0328 31.1403 68.0378 30.8644 67.9776C30.6337 67.9274 30.4331 67.8522 30.1923 67.8321C30.102 67.8271 30.0569 67.9324 30.092 68.0027C30.4882 68.7249 31.6719 68.4591 32.2638 68.1632C33.0462 67.7719 33.613 66.9995 34.0995 66.3023C34.6713 65.4798 35.223 64.6071 36.1359 64.1306C36.9835 63.6842 37.9616 63.5186 38.8945 63.323C39.3008 63.2378 39.7422 63.1224 40.0581 62.8415C40.4393 62.5005 40.5146 62.0089 40.5296 61.5224C40.5296 61.402 40.3591 61.387 40.324 61.4923V61.4973Z" fill="black"/>
</svg>
