<svg width="160" height="160" viewBox="0 0 160 160" fill="none" xmlns="http://www.w3.org/2000/svg">
<path d="M150.826 113.75C143.167 124.283 129.755 125.632 128.897 125.702C120.797 126.394 110.239 123.831 103.032 124.579C100.509 124.84 98.1113 125.421 98.1113 125.421C95.162 126.139 92.9852 127.061 91.9219 127.528C85.4918 130.372 69.6975 138.763 63.1018 141.587C59.5859 143.097 45.9432 148.93 30.7658 144.962C26.8385 143.934 11.31 139.866 5.60215 125.421C2.31187 117.09 2.72316 106.397 8.13005 98.7079C8.43601 98.2765 8.752 97.8602 9.073 97.459C9.2636 97.2232 9.45921 96.9925 9.65482 96.7668C13.3413 92.5737 18.0059 90.2866 21.7627 88.4458C32.0899 83.385 36.4134 85.7925 39.8993 81.8401C44.6993 76.3881 39.0868 68.8847 38.7558 57.6195C38.7558 57.3536 38.7407 57.0878 38.7457 56.8169C38.7457 56.2602 38.7457 55.7035 38.7758 55.1267C39.3476 42.1461 47.5031 27.8765 60.0222 20.0069C60.3232 19.8214 60.6241 19.6358 60.93 19.4552C62.9965 18.2263 65.1783 17.1731 67.4605 16.3254C77.7075 12.5135 93.9984 11.375 105.138 21.1104C108.102 23.6985 110.385 26.7831 112.12 30.0583C112.301 30.3944 112.471 30.7304 112.637 31.0715C113.755 33.3486 114.618 35.696 115.28 38.0282C115.4 38.4445 115.511 38.8659 115.616 39.2872C117.622 47.237 117.296 54.7104 116.434 57.7449C116.303 58.2063 115.706 60.1423 115.817 62.7204C115.857 63.6182 116.062 68.4583 119.473 71.7185C121.314 73.479 123.355 74.0809 124.393 74.3919C129.289 75.8615 138.292 78.8909 142.385 81.0025C147.47 83.6157 153.203 89.0477 155.059 95.9994C155.155 96.3605 155.24 96.7217 155.305 97.0928C155.445 97.7599 155.546 98.447 155.606 99.1392C156.213 106.352 152.21 111.854 150.821 113.76L150.826 113.75Z" fill="#F2F4F7"/>
<path d="M155.31 97.0876C144.591 93.9678 133.126 98.5371 123.44 103.207C111.368 109.03 99.4604 115.194 87.2924 120.822C81.2937 123.595 75.2397 126.249 69.0955 128.686C62.9865 131.109 56.747 133.331 50.2717 134.595C44.4736 135.728 38.204 136.245 32.4109 134.8C29.9532 134.189 27.5658 133.15 25.5996 131.53C23.5633 129.855 22.1789 127.583 21.3413 125.1C19.4755 119.608 20.0122 113.634 18.3871 108.072C17.5545 105.223 16.1902 102.484 14.0184 100.413C12.6341 99.0888 10.9238 98.0355 9.08301 97.4587C9.2736 97.223 9.46922 96.9923 9.66483 96.7666C9.8805 96.8167 10.0912 96.8819 10.3018 96.9471C15.789 98.7227 18.7081 104.37 19.8918 109.637C21.1357 115.194 20.604 121.353 23.1771 126.555C25.705 131.671 31.162 133.812 36.5639 134.324C43.0191 134.936 49.5746 133.822 55.784 132.087C62.209 130.286 68.4586 127.824 74.6178 125.266C80.8623 122.673 87.0216 119.859 93.1256 116.955C99.2347 114.051 105.299 111.041 111.358 108.042C117.286 105.103 123.175 102.028 129.274 99.46C134.951 97.0575 140.965 95.2017 147.175 95.1164C149.783 95.0813 152.486 95.3371 155.069 95.9942C155.165 96.3553 155.25 96.7164 155.315 97.0876H155.31Z" fill="white"/>
<path d="M115.62 39.2873C112.119 37.9481 108.428 37.0954 104.706 36.639C98.5169 35.8867 92.2223 36.1375 86.068 37.0353C79.8235 37.9431 73.6793 39.4679 67.7358 41.5694C61.7771 43.671 56.0292 46.3494 50.5721 49.5343C47.8536 51.1243 45.2053 52.8447 42.6524 54.6954C41.3383 55.6484 40.0442 56.6265 38.7552 57.6196C38.7552 57.3538 38.7401 57.0879 38.7452 56.8171C40.4555 55.3726 42.226 54.0083 44.0668 52.7193C46.69 50.8785 49.4035 49.1682 52.1922 47.5933C57.7796 44.4434 63.7031 41.8603 69.8022 39.8741C75.8912 37.898 82.1608 36.5287 88.5157 35.7713C94.7903 35.024 101.185 34.9588 107.43 36.0121C110.068 36.4534 112.716 37.1105 115.274 38.0284C115.395 38.4447 115.505 38.866 115.61 39.2873H115.62Z" fill="white"/>
<path d="M112.642 31.0761C107.802 31.0862 102.982 30.5645 98.2067 29.8473C93.4167 29.1301 88.6468 28.2523 83.8869 27.3445C79.2273 26.4517 74.5778 25.4485 70.0436 24.0492C67.7866 23.352 65.5596 22.5344 63.3878 21.6015C62.2643 21.12 61.1258 20.5984 60.0273 20.0166C60.3283 19.831 60.6292 19.6454 60.9352 19.4648C64.5114 21.1652 68.2681 22.4943 72.07 23.5777C76.5791 24.8617 81.1734 25.8046 85.7828 26.6623C90.5226 27.5501 95.2675 28.4379 100.047 29.1C104.045 29.6567 108.088 30.0429 112.125 30.063C112.306 30.399 112.476 30.7351 112.642 31.0761Z" fill="white"/>
<path d="M123.696 71.9433C118.469 69.6561 119.006 57.5683 121.79 56.4799C123.279 55.8981 125.537 58.421 126.991 60.0461C128.21 61.4053 132.759 66.4912 130.853 69.8567C129.639 71.9984 126.073 72.9865 123.696 71.9433Z" fill="#F2F4F7"/>
<path d="M103.423 94.5977H113.9C116.609 94.5977 118.806 96.7945 118.806 99.503V109.7C118.806 111.977 116.96 113.823 114.683 113.823H104.29C101.537 113.823 99.3047 111.586 99.3047 108.837V98.7206C99.3047 96.4434 101.15 94.5977 103.428 94.5977H103.423Z" fill="#F2F4F7"/>
<path d="M112.336 94.5977H104.03C101.415 94.5977 99.2949 96.7175 99.2949 99.3325V107.638C99.2949 110.253 101.415 112.373 104.03 112.373H112.336C114.951 112.373 117.07 110.253 117.07 107.638V99.3325C117.07 96.7175 114.951 94.5977 112.336 94.5977Z" fill="#F2F4F7"/>
<path d="M99.3906 104.312C99.4608 104.824 99.7016 106.088 100.73 107.212C100.865 107.362 102.169 108.751 104.221 108.922C106.352 109.097 107.105 107.783 108.83 107.583C110.204 107.427 112.281 107.969 115.165 111.445C114.874 111.691 114.122 112.257 112.993 112.413C111.94 112.558 111.117 112.267 110.766 112.117C108.118 112.192 105.465 112.267 102.816 112.338C102.601 112.338 101.372 112.302 100.439 111.299C99.6615 110.457 99.5862 109.479 99.5762 109.208C99.516 107.578 99.4558 105.948 99.3956 104.312H99.3906Z" fill="white"/>
<path d="M103.423 94.5977H113.9C116.609 94.5977 118.806 96.7945 118.806 99.503V109.7C118.806 111.977 116.96 113.823 114.683 113.823H104.29C101.537 113.823 99.3047 111.586 99.3047 108.837V98.7206C99.3047 96.4434 101.15 94.5977 103.428 94.5977H103.423Z" stroke="black" stroke-width="0.8" stroke-linecap="round" stroke-linejoin="round"/>
<path d="M112.336 94.5977H104.03C101.415 94.5977 99.2949 96.7175 99.2949 99.3325V107.638C99.2949 110.253 101.415 112.373 104.03 112.373H112.336C114.951 112.373 117.07 110.253 117.07 107.638V99.3325C117.07 96.7175 114.951 94.5977 112.336 94.5977Z" stroke="black" stroke-width="0.8" stroke-linecap="round" stroke-linejoin="round"/>
<path d="M71.9288 51.6066L36.4469 60.3744C30.7619 61.7792 27.2921 67.5265 28.6969 73.2115L42.0741 127.347C43.4789 133.032 49.2263 136.502 54.9113 135.097L90.3932 126.33C96.0782 124.925 99.548 119.177 98.1432 113.493L84.7659 59.3566C83.3612 53.6716 77.6138 50.2019 71.9288 51.6066Z" fill="#C9C8C8"/>
<path d="M70.6929 58.273L41.751 65.1946C37.3111 66.2564 34.5727 70.7164 35.6345 75.1563L46.1225 119.011C47.1843 123.45 51.6443 126.189 56.0842 125.127L85.0261 118.205C89.466 117.144 92.2044 112.684 91.1426 108.244L80.6546 64.3895C79.5928 59.9496 75.1328 57.2111 70.6929 58.273Z" fill="white"/>
<path d="M52.7037 126.948C54.0278 128.257 56.0792 127.926 57.7294 127.6C60.0015 127.149 62.2586 126.622 64.5106 126.091C69.0698 125.017 73.599 123.834 78.0981 122.53C79.347 122.168 80.5959 121.797 81.8448 121.416C83.0937 121.035 84.3476 120.553 85.6015 120.112C85.7169 120.072 85.6717 119.891 85.5513 119.926C84.4579 120.242 83.3444 120.493 82.251 120.824C81.1576 121.155 80.0692 121.481 78.9758 121.802C76.789 122.439 74.5871 123.046 72.3852 123.633C67.9814 124.807 63.5476 125.88 59.0887 126.838C57.1024 127.264 54.6548 128.057 52.794 126.823C52.7187 126.773 52.6385 126.883 52.7037 126.943V126.948Z" fill="black"/>
<path d="M98.0057 113.95C97.4188 115.756 96.5461 117.411 95.222 118.785C93.8978 120.159 92.1072 121.283 90.2564 122.025C88.3104 122.803 86.284 123.174 84.2326 123.545C82.3016 123.896 80.4057 124.383 78.7706 125.506C77.1355 126.63 75.7963 128.179 75.1844 129.99C75.1292 130.151 75.39 130.266 75.4652 130.105C75.8615 129.283 76.2677 128.49 76.8345 127.773C77.4013 127.056 78.0483 126.424 78.7806 125.892C80.4558 124.678 82.437 124.212 84.4433 123.861C86.4496 123.51 88.521 123.104 90.4521 122.306C92.2326 121.569 93.9129 120.556 95.2771 119.186C96.6414 117.817 97.8702 115.966 98.126 113.965C98.1361 113.895 98.0257 113.885 98.0057 113.95Z" fill="black"/>
<path d="M74.2363 51.3242C74.2363 51.3242 75.4903 51.4345 77.1304 52.1518C77.7874 52.4377 79.0062 52.9844 80.2501 54.138C81.2332 55.0509 82.6175 56.3349 82.778 58.1505C82.8833 59.3443 82.3617 59.6703 82.5573 60.6032C82.8633 62.0578 84.4783 62.9405 85.7423 63.4471C85.647 62.1179 85.326 59.9712 84.1473 57.649C83.6708 56.711 82.9335 55.2665 81.499 54.0076C78.4294 51.3192 74.2363 51.3242 74.2363 51.3242Z" fill="white"/>
<path d="M70.6929 58.273L41.751 65.1946C37.3111 66.2564 34.5727 70.7164 35.6345 75.1563L46.1225 119.011C47.1843 123.45 51.6443 126.189 56.0842 125.127L85.0261 118.205C89.466 117.144 92.2044 112.684 91.1426 108.244L80.6546 64.3895C79.5928 59.9496 75.1328 57.2111 70.6929 58.273Z" stroke="black" stroke-width="0.8" stroke-linecap="round" stroke-linejoin="round"/>
<path d="M71.9288 51.6066L36.4469 60.3744C30.7619 61.7792 27.2921 67.5265 28.6969 73.2115L42.0741 127.347C43.4789 133.032 49.2263 136.502 54.9113 135.097L90.3932 126.33C96.0782 124.925 99.548 119.177 98.1432 113.493L84.7659 59.3566C83.3612 53.6716 77.6138 50.2019 71.9288 51.6066Z" stroke="black" stroke-width="0.8" stroke-linecap="round" stroke-linejoin="round"/>
<path d="M44.0674 74.1616C48.6417 72.6218 53.6273 71.1371 59.0041 69.813C63.2373 68.7697 67.3 67.9271 71.152 67.25" stroke="black" stroke-width="0.8" stroke-linecap="round" stroke-linejoin="round"/>
<path d="M45.3965 78.7905C49.9708 77.2507 54.9564 75.766 60.3332 74.4419C64.5664 73.3986 68.6291 72.556 72.4811 71.8789" stroke="black" stroke-width="0.8" stroke-linecap="round" stroke-linejoin="round"/>
<path d="M48.8164 92.646C53.3907 91.1062 58.3763 89.6215 63.7531 88.2974C67.9863 87.2541 72.049 86.4115 75.901 85.7344" stroke="black" stroke-width="0.8" stroke-linecap="round" stroke-linejoin="round"/>
<path d="M50.252 97.4558C52.4488 96.6834 54.8363 95.9461 57.4143 95.284C59.4457 94.7624 61.3918 94.3411 63.2425 94" stroke="black" stroke-width="0.8" stroke-linecap="round" stroke-linejoin="round"/>
<path d="M52.584 108.048C57.1583 106.508 62.1439 105.024 67.5207 103.7C71.7539 102.656 75.8166 101.814 79.6686 101.137" stroke="black" stroke-width="0.8" stroke-linecap="round" stroke-linejoin="round"/>
<path d="M54.0186 112.858C56.2154 112.086 58.6029 111.348 61.1809 110.686C63.2123 110.165 65.1584 109.743 67.0091 109.402" stroke="black" stroke-width="0.8" stroke-linecap="round" stroke-linejoin="round"/>
<path d="M64.2601 51.1347L64.3755 51.5961C64.5711 52.3986 64.0846 53.2061 63.2821 53.4017L62.304 53.6425C61.4965 53.8431 61.005 54.6657 61.2156 55.4682L61.2256 55.4983C61.4313 56.2858 62.2288 56.7622 63.0213 56.5716L64.1147 56.3058C65.9655 55.8594 67.8313 56.993 68.2777 58.8438L68.4081 59.3855C68.6037 60.183 68.1172 60.9854 67.3197 61.1861C60.8695 62.7961 54.4144 64.4061 47.9642 66.0162C47.1717 66.2118 46.3692 65.7403 46.1586 64.9478C46.1134 64.7823 46.0733 64.6218 46.0282 64.4563C45.5316 62.5804 46.6752 60.6644 48.5661 60.218C48.9974 60.1177 49.4288 60.0124 49.8652 59.9121C50.6777 59.7165 51.1742 58.8989 50.9686 58.0864L50.9184 57.8808C50.7178 57.0933 49.9203 56.6118 49.1278 56.7974L47.894 57.0883C47.0965 57.2739 46.299 56.7873 46.1034 55.9949L46.0031 55.5886C45.8025 54.7861 46.294 53.9735 47.0965 53.7779C52.2175 52.529 57.3385 51.2801 62.4645 50.0312C63.262 49.8356 64.0695 50.3271 64.2702 51.1246L64.2601 51.1347Z" fill="white"/>
<path d="M64.2601 51.1347L64.3755 51.5961C64.5711 52.3986 64.0846 53.2061 63.2821 53.4017L62.304 53.6425C61.4965 53.8431 61.005 54.6657 61.2156 55.4682L61.2256 55.4983C61.4313 56.2858 62.2288 56.7622 63.0213 56.5716L64.1147 56.3058C65.9655 55.8594 67.8313 56.993 68.2777 58.8438L68.4081 59.3855C68.6037 60.183 68.1172 60.9854 67.3197 61.1861C60.8695 62.7961 54.4144 64.4061 47.9642 66.0162C47.1717 66.2118 46.3692 65.7403 46.1586 64.9478C46.1134 64.7823 46.0733 64.6218 46.0282 64.4563C45.5316 62.5804 46.6752 60.6644 48.5661 60.218C48.9974 60.1177 49.4288 60.0124 49.8652 59.9121C50.6777 59.7165 51.1742 58.8989 50.9686 58.0864L50.9184 57.8808C50.7178 57.0933 49.9203 56.6118 49.1278 56.7974L47.894 57.0883C47.0965 57.2739 46.299 56.7873 46.1034 55.9949L46.0031 55.5886C45.8025 54.7861 46.294 53.9735 47.0965 53.7779C52.2175 52.529 57.3385 51.2801 62.4645 50.0312C63.262 49.8356 64.0695 50.3271 64.2702 51.1246L64.2601 51.1347Z" stroke="black" stroke-width="0.8" stroke-linecap="round" stroke-linejoin="round"/>
<path d="M49.7051 61.8937C51.7515 61.0762 54.144 60.2636 56.8474 59.5966C59.3753 58.9696 61.7176 58.5834 63.7941 58.3477" stroke="black" stroke-width="0.8" stroke-linecap="round" stroke-linejoin="round"/>
<path d="M103.423 72.4805H113.9C116.609 72.4805 118.806 74.6773 118.806 77.3858V87.5827C118.806 89.8598 116.96 91.7056 114.683 91.7056H104.29C101.537 91.7056 99.3047 89.4686 99.3047 86.72V76.6033C99.3047 74.3262 101.15 72.4805 103.428 72.4805H103.423Z" fill="#F2F4F7"/>
<path d="M112.336 72.4805H104.03C101.415 72.4805 99.2949 74.6003 99.2949 77.2153V85.5212C99.2949 88.1362 101.415 90.256 104.03 90.256H112.336C114.951 90.256 117.07 88.1362 117.07 85.5212V77.2153C117.07 74.6003 114.951 72.4805 112.336 72.4805Z" fill="#F2F4F7"/>
<path d="M103.423 72.4805H113.9C116.609 72.4805 118.806 74.6773 118.806 77.3858V87.5827C118.806 89.8598 116.96 91.7056 114.683 91.7056H104.29C101.537 91.7056 99.3047 89.4686 99.3047 86.72V76.6033C99.3047 74.3262 101.15 72.4805 103.428 72.4805H103.423Z" stroke="black" stroke-width="0.8" stroke-linecap="round" stroke-linejoin="round"/>
<path d="M112.336 72.4805H104.03C101.415 72.4805 99.2949 74.6003 99.2949 77.2153V85.5212C99.2949 88.1362 101.415 90.256 104.03 90.256H112.336C114.951 90.256 117.07 88.1362 117.07 85.5212V77.2153C117.07 74.6003 114.951 72.4805 112.336 72.4805Z" stroke="black" stroke-width="0.8" stroke-linecap="round" stroke-linejoin="round"/>
<path d="M110.977 76.5715C110.902 76.5965 110.816 76.5865 110.746 76.6266C110.646 76.6818 110.545 76.7671 110.45 76.8273C110.28 76.9326 110.124 77.073 109.979 77.2135C109.663 77.5194 109.372 77.8655 109.081 78.1965C108.504 78.8486 107.987 79.5708 107.511 80.2981C107.034 81.0254 106.603 81.7878 106.212 82.5702C106.021 82.9514 105.841 83.3426 105.675 83.7339C105.495 84.1502 105.239 84.6116 105.299 85.078C105.339 85.3991 105.68 85.5746 105.941 85.3439C106.267 85.053 106.387 84.6116 106.548 84.2153C106.708 83.8191 106.884 83.448 107.07 83.0668C107.446 82.2994 107.862 81.552 108.308 80.8197C108.755 80.0875 109.246 79.3953 109.743 78.7031C109.984 78.3671 110.244 78.0511 110.495 77.7251C110.616 77.5696 110.746 77.4041 110.841 77.2285C110.891 77.1332 110.952 77.0429 111.002 76.9476C111.057 76.8473 111.047 76.7821 111.082 76.6668C111.102 76.6066 111.042 76.5464 110.982 76.5664L110.977 76.5715Z" fill="black"/>
<path d="M105.715 78.816C105.61 78.6254 105.574 78.4949 105.65 78.2993L105.529 78.4548L105.61 78.3996L104.978 78.0385C104.953 78.4548 105.384 78.7106 105.66 78.9564C105.936 79.2021 106.216 79.4379 106.492 79.6786C107.064 80.1702 107.611 80.6918 108.147 81.2184C108.684 81.7451 109.181 82.2667 109.667 82.8235C109.918 83.1094 110.144 83.4404 110.415 83.7062C110.685 83.9721 110.961 84.3683 111.403 84.3081C111.603 84.283 111.719 84.1978 111.794 84.0122C111.964 83.6009 111.663 83.2448 111.443 82.9137C111.222 82.5827 110.921 82.2818 110.66 81.9808C110.149 81.404 109.617 80.8423 109.06 80.3056C108.504 79.7689 107.922 79.2623 107.32 78.7758C107.019 78.5351 106.718 78.2993 106.402 78.0786C106.086 77.8579 105.685 77.4818 105.284 77.6322C104.948 77.7626 104.862 78.194 105.183 78.3996C105.359 78.515 105.439 78.7608 105.574 78.9213C105.64 78.9965 105.755 78.9012 105.71 78.816H105.715Z" fill="black"/>
<path d="M103.424 50.3633H113.901C116.61 50.3633 118.807 52.5602 118.807 55.2686V65.4655C118.807 67.7426 116.961 69.5884 114.684 69.5884H104.291C101.538 69.5884 99.3057 67.3514 99.3057 64.6028V54.4862C99.3057 52.2091 101.151 50.3633 103.429 50.3633H103.424Z" fill="#F2F4F7"/>
<path d="M112.337 50.3633H104.031C101.416 50.3633 99.2959 52.4831 99.2959 55.0981V63.404C99.2959 66.019 101.416 68.1388 104.031 68.1388H112.337C114.952 68.1388 117.071 66.019 117.071 63.404V55.0981C117.071 52.4831 114.952 50.3633 112.337 50.3633Z" fill="#F2F4F7"/>
<path d="M103.424 50.3633H113.901C116.61 50.3633 118.807 52.5602 118.807 55.2686V65.4655C118.807 67.7426 116.961 69.5884 114.684 69.5884H104.291C101.538 69.5884 99.3057 67.3514 99.3057 64.6028V54.4862C99.3057 52.2091 101.151 50.3633 103.429 50.3633H103.424Z" stroke="black" stroke-width="0.8" stroke-linecap="round" stroke-linejoin="round"/>
<path d="M112.337 50.3633H104.031C101.416 50.3633 99.2959 52.4831 99.2959 55.0981V63.404C99.2959 66.019 101.416 68.1388 104.031 68.1388H112.337C114.952 68.1388 117.071 66.019 117.071 63.404V55.0981C117.071 52.4831 114.952 50.3633 112.337 50.3633Z" stroke="black" stroke-width="0.8" stroke-linecap="round" stroke-linejoin="round"/>
<path d="M105.444 60.5749C105.484 60.8759 105.66 61.0915 105.841 61.3273C106.021 61.563 106.212 61.8188 106.382 62.0746C106.723 62.5711 107.074 63.0978 107.21 63.6896C107.265 63.9454 107.536 64.131 107.787 64.131C108.073 64.131 108.263 63.9404 108.363 63.6896C108.654 62.9824 108.88 62.2451 109.191 61.5429C109.502 60.8407 109.873 60.1185 110.269 59.4414C110.666 58.7642 111.087 58.1323 111.553 57.5204C111.774 57.2294 112 56.9486 112.231 56.6677C112.501 56.3366 112.832 56.0107 113.018 55.6244C113.264 55.1279 112.767 54.6012 112.256 54.8621C111.879 55.0577 111.563 55.4088 111.283 55.7197C111.002 56.0307 110.741 56.3467 110.49 56.6727C109.979 57.3348 109.512 58.0269 109.091 58.7492C108.669 59.4715 108.313 60.2138 107.992 60.9762C107.671 61.7385 107.355 62.5461 107.215 63.3686L108.308 63.2232C107.912 62.7015 107.616 62.1097 107.225 61.583C107.039 61.3323 106.849 61.0815 106.633 60.8558C106.417 60.6301 106.157 60.3291 105.841 60.279C105.67 60.2489 105.419 60.3592 105.449 60.5749H105.444Z" fill="black"/>
<path d="M73.4203 31.5503L70.9001 32.5425C70.1268 32.847 69.7468 33.7206 70.0512 34.4938L71.0434 37.014C71.3479 37.7873 72.2215 38.1673 72.9948 37.8629L75.5149 36.8707C76.2882 36.5662 76.6682 35.6926 76.3638 34.9194L75.3716 32.3992C75.0671 31.6259 74.1935 31.2459 73.4203 31.5503Z" stroke="black" stroke-width="0.8" stroke-linecap="round" stroke-linejoin="round"/>
<path d="M28.9014 107.049L26.63 105.574C25.9331 105.121 25.0012 105.319 24.5485 106.016L23.0731 108.287C22.6204 108.984 22.8184 109.916 23.5153 110.369L25.7867 111.844C26.4836 112.297 27.4155 112.099 27.8682 111.402L29.3436 109.13C29.7962 108.434 29.5983 107.502 28.9014 107.049Z" stroke="black" stroke-width="0.8" stroke-linecap="round" stroke-linejoin="round"/>
</svg>
