<svg width="80" height="80" viewBox="0 0 80 80" fill="none" xmlns="http://www.w3.org/2000/svg">
<path d="M73.8324 34.7402C72.1474 39.6102 67.6624 39.3377 61.2149 47.2952C60.6924 47.9377 60.2949 48.4702 60.0574 48.7877C57.0349 52.8702 56.0049 55.8077 54.9524 58.2477C54.8824 58.4127 54.8099 58.5727 54.7399 58.7327C54.4174 59.4552 54.0774 60.1402 53.6699 60.8002C49.7399 67.1452 41.2024 68.2977 40.7974 68.3452C40.4149 68.3927 40.0249 68.4252 39.6299 68.4452C39.5099 68.4552 39.3899 68.4602 39.2674 68.4627C34.3074 68.6502 28.7099 66.9127 25.4499 63.0202C24.1524 61.4702 23.7424 60.1952 23.2374 59.0352C23.1524 58.8427 23.0624 58.6477 22.9674 58.4602C22.5474 57.6277 21.9874 56.8427 20.8849 56.0427C17.6174 53.6877 15.6549 55.5927 11.4999 53.1252C10.7774 52.6977 7.87241 50.8802 6.48991 47.8802C6.42741 47.7477 6.36991 47.6127 6.31491 47.4777C6.05741 46.8302 5.87241 46.1352 5.78991 45.3877C5.72491 44.7627 5.68741 43.6602 6.10741 42.2002C7.72991 36.6002 13.0349 36.6252 17.2074 31.4402C22.1199 25.3202 20.2199 18.4677 25.9574 14.3202C27.0174 13.5502 28.0974 13.0527 28.2399 12.9902C30.1399 12.1202 32.0199 11.8102 33.6574 11.7577C33.8099 11.7527 33.9574 11.7502 34.0999 11.7502C35.8174 11.7427 37.2274 12.0077 38.0499 12.1702C45.3549 13.6077 45.3474 17.9427 52.8399 20.5977C53.5874 20.8627 54.3699 21.0952 55.1724 21.3077C55.3974 21.3652 55.6249 21.4227 55.8549 21.4777C61.1049 22.7577 67.1074 23.1577 70.6474 24.8577C70.7424 24.9052 70.8374 24.9502 70.9324 25.0002C71.5774 25.3352 72.1324 25.7202 72.5724 26.1702C72.9649 26.5727 73.2599 27.0052 73.2599 27.0052C73.8499 27.8702 74.1624 28.8277 74.3074 29.7677C74.3299 29.9227 74.3499 30.0752 74.3649 30.2227C74.5849 32.4827 73.9099 34.5252 73.8324 34.7427V34.7402Z" fill="#F2F4F7"/>
<path d="M59.5545 53.0924C59.2962 52.1771 60.021 51.2416 60.3621 50.8003C61.1294 49.8122 62.1376 49.4661 62.6367 49.3031C63.3639 49.0648 63.9608 48.8692 64.5953 49.11C65.5809 49.4836 66.1376 50.7125 66.0724 51.7432C65.9771 53.2705 64.5125 54.3438 63.2135 54.6021C61.7715 54.888 59.8931 54.2937 59.552 53.0924H59.5545Z" fill="#F2F4F7"/>
<path d="M62.7622 51.0389C62.6343 50.5951 63.1409 49.8853 63.6926 49.8828C64.3898 49.8778 64.8713 51.0013 64.6079 51.39C64.3195 51.8189 62.9377 51.6458 62.7597 51.0389H62.7622Z" fill="white"/>
<path d="M70.9362 24.9974C69.1912 25.9974 67.5988 27.1949 66.1738 28.6149C66.1263 28.6599 66.0788 28.7049 66.0338 28.7524C65.9538 28.8324 65.8762 28.9124 65.8012 28.9949C64.3412 30.5074 63.0612 32.1849 61.8988 33.9299C59.3937 37.6974 57.4562 41.7974 55.0837 45.6424C52.6912 49.5249 49.7437 53.1499 45.8137 55.5549C41.7962 58.0149 37.1337 59.2749 32.4537 59.5349C29.3887 59.7049 26.2912 59.5124 23.2387 59.0374C23.1537 58.8424 23.0662 58.6499 22.9688 58.4624C26.7137 59.0199 30.4862 59.3174 34.2812 58.9149C38.9637 58.4174 43.5813 56.9749 47.3738 54.1149C51.0588 51.3299 53.6213 47.3924 55.8938 43.4374C58.1138 39.5749 60.0937 35.5649 62.7612 31.9799C63.5537 30.9174 64.4087 29.8724 65.3412 28.8974C65.4612 28.7699 65.5862 28.6449 65.7087 28.5199C67.1712 27.0524 68.8087 25.7674 70.6537 24.8574C70.7512 24.9049 70.8463 24.9524 70.9388 24.9974H70.9362Z" fill="white"/>
<path d="M74.3612 30.2229C73.1937 30.1254 72.0287 29.9979 70.8687 29.8454C69.1662 29.6204 67.4762 29.3354 65.7962 28.9929C65.6412 28.9604 65.4888 28.9279 65.3338 28.8954C63.3713 28.4829 61.4287 27.9854 59.5062 27.4104C55.7962 26.2929 52.1687 24.8804 48.6862 23.1829C45.2487 21.5104 41.8863 19.5804 38.8063 17.3129C36.8313 15.8604 34.7563 14.0279 33.6562 11.7604C33.8063 11.7529 33.9538 11.7529 34.0988 11.7529C35.5138 14.3429 38.0038 16.2779 40.4113 17.8979C43.5738 20.0304 46.9113 21.9004 50.3763 23.4904C53.8638 25.0929 57.4838 26.4079 61.1813 27.4279C62.6763 27.8404 64.1812 28.2079 65.6987 28.5204C65.8537 28.5529 66.0087 28.5854 66.1662 28.6179C68.2412 29.0354 70.3312 29.3604 72.4338 29.5929C73.0563 29.6604 73.6788 29.7204 74.3038 29.7704C74.3263 29.9254 74.3463 30.0754 74.3588 30.2254L74.3612 30.2229Z" fill="white"/>
<path d="M54.9506 58.248C54.8806 58.413 54.8081 58.573 54.7381 58.733C54.3556 58.8205 53.9731 58.913 53.5906 59.013C51.8556 59.463 50.1481 60.0305 48.5156 60.7755C47.0606 61.438 45.6681 62.2355 44.3881 63.193C43.1581 64.1105 42.0331 65.1755 41.0656 66.3655C40.5856 66.953 40.1556 67.573 39.7656 68.218C39.7181 68.2955 39.6731 68.3705 39.6281 68.448C39.5081 68.4555 39.3881 68.463 39.2656 68.4655C39.4181 68.163 39.5856 67.8655 39.7631 67.5755C40.1731 66.918 40.6331 66.2955 41.1281 65.703C42.1306 64.5055 43.3181 63.458 44.5856 62.548C45.9281 61.588 47.3831 60.7905 48.9006 60.143C50.5856 59.423 52.3356 58.8705 54.1156 58.4405C54.3906 58.373 54.6706 58.3105 54.9481 58.248H54.9506Z" fill="white"/>
<path d="M15.2093 30.186C14.1967 30.5475 12.3984 30.7668 11.9313 29.9744C10.8425 28.127 17.3005 21.3153 18.6689 22.1174C19.7468 22.7482 18.9586 28.8442 15.2093 30.186Z" fill="#F2F4F7"/>
<path d="M27.9145 15.5078C27.7295 14.7703 28.652 13.5853 29.617 13.6553C30.7645 13.7378 31.4045 15.5528 30.9495 16.1728C30.432 16.8803 28.1595 16.4903 27.912 15.5053L27.9145 15.5078Z" fill="white"/>
<path d="M7.16713 42.8038C6.51213 41.9363 7.92463 39.4463 8.94463 39.5438C9.72713 39.6188 10.8021 41.2688 10.0546 42.4338C9.37213 43.4988 7.63463 43.4238 7.16463 42.8038H7.16713Z" fill="white"/>
<path d="M10.3073 39.1412C10.2598 38.8712 10.8698 38.3362 11.2698 38.5487C11.5448 38.6937 11.6523 39.1537 11.4923 39.3637C11.2473 39.6837 10.3598 39.4387 10.3073 39.1412Z" fill="white"/>
<path d="M59.2295 26.1552L58.3456 23.7607C57.8398 22.3902 56.3187 21.6894 54.9483 22.1952L52.5538 23.0791C51.1833 23.5849 50.4825 25.1059 50.9883 26.4764L51.8722 28.8709C52.378 30.2414 53.899 30.9422 55.2695 30.4364L57.664 29.5525C59.0345 29.0467 59.7353 27.5256 59.2295 26.1552Z" fill="#FFEECD"/>
<path d="M57.8151 24.9298C58.4926 25.5573 58.5751 26.7498 58.2001 27.6373C57.7651 28.6623 56.8226 29.0298 56.6376 29.1023C56.3676 29.2073 55.8376 29.4123 55.5726 29.1698C55.3201 28.9348 55.3851 28.3523 55.6551 27.9948C56.0401 27.4848 56.6251 27.7123 56.8751 27.2798C57.0226 27.0248 56.8726 26.8548 56.7126 25.7623C56.5651 24.7448 56.6551 24.6198 56.7251 24.5673C56.9526 24.3948 57.4876 24.6298 57.8151 24.9323V24.9298Z" fill="white"/>
<path d="M54.8646 28.567C55.1371 28.6395 55.3196 28.967 55.2021 29.2495C55.0946 29.502 54.7846 29.622 54.5421 29.5145C54.2571 29.387 54.1771 28.997 54.3446 28.7595C54.4571 28.5995 54.6721 28.517 54.8671 28.5695L54.8646 28.567Z" fill="white"/>
<path d="M59.2295 26.1552L58.3456 23.7607C57.8398 22.3902 56.3187 21.6894 54.9483 22.1952L52.5538 23.0791C51.1833 23.5849 50.4825 25.1059 50.9883 26.4764L51.8722 28.8709C52.378 30.2414 53.899 30.9422 55.2695 30.4364L57.664 29.5525C59.0345 29.0467 59.7353 27.5256 59.2295 26.1552Z" stroke="black" stroke-width="0.4" stroke-linecap="round" stroke-linejoin="round"/>
<path d="M55.2038 23.3872C55.6313 23.2297 55.9713 23.1047 55.9713 23.1047C57.0088 22.7222 58.1588 23.2522 58.5438 24.2897L59.4538 26.7597C59.8363 27.7972 59.3063 28.9472 58.2688 29.3322L55.7988 30.2422C54.7613 30.6247 53.6112 30.0947 53.2262 29.0572L53.0312 28.5297" stroke="black" stroke-width="0.4" stroke-linecap="round" stroke-linejoin="round"/>
<path d="M52.7825 27.8393C52.5525 27.2168 52.32 26.5868 52.32 26.5868C51.975 25.6543 52.37 24.6293 53.2075 24.1543" stroke="black" stroke-width="0.4" stroke-linecap="round" stroke-linejoin="round"/>
<path d="M53.7266 23.9269C53.8291 23.8894 54.0191 23.8194 54.2441 23.7344" stroke="black" stroke-width="0.4" stroke-linecap="round" stroke-linejoin="round"/>
<path d="M22.5339 52.3646C22.7364 47.6196 22.8389 42.6896 22.8139 37.5846C22.7989 34.3946 22.7339 31.2746 22.6264 28.2296C22.5664 27.5521 22.5014 25.7496 23.6864 24.6246C24.2264 24.1121 24.8264 23.9321 25.6664 23.7396C28.8489 23.0071 31.6189 22.9571 32.7289 22.9446C33.9214 22.9296 35.4614 22.9296 37.2664 22.9721C37.6239 22.9921 38.7264 23.1046 39.6664 23.9746C40.2189 24.4846 40.4914 25.0496 40.6214 25.3921C41.8514 29.0146 43.0464 32.9271 44.1414 37.1171C45.2614 41.4021 46.1489 45.4871 46.8539 49.3246C46.9339 49.7171 47.0139 50.3396 46.9014 51.0871C46.8364 51.5196 46.7589 52.0296 46.4189 52.5421C45.8864 53.3471 45.0489 53.6421 44.6839 53.7446C41.4489 54.3471 37.7589 54.8371 33.6789 55.0496C30.4689 55.2146 27.4914 55.1821 24.7914 55.0346C24.5939 55.0046 23.7489 54.8546 23.1239 54.0846C22.5439 53.3696 22.5289 52.5846 22.5314 52.3696L22.5339 52.3646Z" fill="#C9C8C8"/>
<path d="M22.6175 27.2324C22.22 30.7424 21.6975 34.4349 21.0175 38.2874C20.4625 41.4299 19.845 44.4324 19.1875 47.2899C19.12 47.5924 19.01 48.0574 18.8575 48.6249C18.41 50.2774 18.16 50.6574 18.28 51.2274C18.355 51.5824 18.5775 52.0199 19.73 52.8174C20.58 53.4049 21.96 54.2049 23.935 54.7424" fill="#C9C8C8"/>
<path d="M38.3697 37.0802L38.4847 38.8577C38.5022 39.1427 38.2872 39.3902 37.9997 39.4102L36.4722 39.5077C36.1872 39.5252 35.9697 39.7727 35.9872 40.0602L36.0847 41.5877C36.1022 41.8727 35.8872 42.1202 35.5997 42.1402L33.8222 42.2552C33.5372 42.2727 33.2897 42.0577 33.2697 41.7702L33.1697 40.2277C33.1522 39.9427 32.9047 39.7252 32.6172 39.7427L31.0747 39.8427C30.7897 39.8602 30.5422 39.6452 30.5222 39.3577L30.4072 37.5802C30.3897 37.2952 30.6047 37.0477 30.8922 37.0277L32.6697 36.9127C32.9547 36.8952 33.2022 37.1102 33.2222 37.3977L33.3222 38.9402C33.3397 39.2252 33.5872 39.4427 33.8747 39.4252L35.1672 39.3427C35.4522 39.3252 35.6697 39.0777 35.6522 38.7902L35.5547 37.2652C35.5372 36.9802 35.7522 36.7327 36.0397 36.7127L37.8172 36.5977C38.1022 36.5802 38.3497 36.7952 38.3697 37.0827V37.0802Z" fill="black"/>
<path d="M38.0327 50.0275C38.7502 48.0525 40.8927 47.3525 41.2127 47.2525C41.8352 47.06 43.7027 46.4825 44.5502 47.47C45.1277 48.145 44.9752 49.2475 44.6427 49.9325C44.1127 51.0275 42.9727 51.375 41.7727 51.74C41.1177 51.94 38.6152 52.705 37.9377 51.71C37.6002 51.215 37.8602 50.5 38.0302 50.025L38.0327 50.0275Z" fill="white"/>
<path d="M40.7837 44.3824C40.4112 43.5149 40.7812 42.3199 41.7187 41.9499C42.4137 41.6749 43.2987 41.9024 43.6512 42.4499C44.2887 43.4374 43.1412 45.3999 42.0287 45.3799C41.4612 45.3699 40.9812 44.8474 40.7812 44.3824H40.7837Z" fill="white"/>
<path d="M22.5339 52.3646C22.7364 47.6196 22.8389 42.6896 22.8139 37.5846C22.7989 34.3946 22.7339 31.2746 22.6264 28.2296C22.5664 27.5521 22.5014 25.7496 23.6864 24.6246C24.2264 24.1121 24.8264 23.9321 25.6664 23.7396C28.8489 23.0071 31.6189 22.9571 32.7289 22.9446C33.9214 22.9296 35.4614 22.9296 37.2664 22.9721C37.6239 22.9921 38.7264 23.1046 39.6664 23.9746C40.2189 24.4846 40.4914 25.0496 40.6214 25.3921C41.8514 29.0146 43.0464 32.9271 44.1414 37.1171C45.2614 41.4021 46.1489 45.4871 46.8539 49.3246C46.9339 49.7171 47.0139 50.3396 46.9014 51.0871C46.8364 51.5196 46.7589 52.0296 46.4189 52.5421C45.8864 53.3471 45.0489 53.6421 44.6839 53.7446C41.4489 54.3471 37.7589 54.8371 33.6789 55.0496C30.4689 55.2146 27.4914 55.1821 24.7914 55.0346C24.5939 55.0046 23.7489 54.8546 23.1239 54.0846C22.5439 53.3696 22.5289 52.5846 22.5314 52.3696L22.5339 52.3646Z" stroke="black" stroke-width="0.4" stroke-linecap="round" stroke-linejoin="round"/>
<path d="M22.6175 27.2324C22.22 30.7424 21.6975 34.4349 21.0175 38.2874C20.4625 41.4299 19.845 44.4324 19.1875 47.2899C19.12 47.5924 19.01 48.0574 18.8575 48.6249C18.41 50.2774 18.16 50.6574 18.28 51.2274C18.355 51.5824 18.5775 52.0199 19.73 52.8174C20.58 53.4049 21.96 54.2049 23.935 54.7424" stroke="black" stroke-width="0.4" stroke-linecap="round" stroke-linejoin="round"/>
<path d="M38.3697 37.0802L38.4847 38.8577C38.5022 39.1427 38.2872 39.3902 37.9997 39.4102L36.4722 39.5077C36.1872 39.5252 35.9697 39.7727 35.9872 40.0602L36.0847 41.5877C36.1022 41.8727 35.8872 42.1202 35.5997 42.1402L33.8222 42.2552C33.5372 42.2727 33.2897 42.0577 33.2697 41.7702L33.1697 40.2277C33.1522 39.9427 32.9047 39.7252 32.6172 39.7427L31.0747 39.8427C30.7897 39.8602 30.5422 39.6452 30.5222 39.3577L30.4072 37.5802C30.3897 37.2952 30.6047 37.0477 30.8922 37.0277L32.6697 36.9127C32.9547 36.8952 33.2022 37.1102 33.2222 37.3977L33.3222 38.9402C33.3397 39.2252 33.5872 39.4427 33.8747 39.4252L35.1672 39.3427C35.4522 39.3252 35.6697 39.0777 35.6522 38.7902L35.5547 37.2652C35.5372 36.9802 35.7522 36.7327 36.0397 36.7127L37.8172 36.5977C38.1022 36.5802 38.3497 36.7952 38.3697 37.0827V37.0802Z" stroke="black" stroke-width="0.4" stroke-linecap="round" stroke-linejoin="round"/>
<path d="M28.5538 27.6077C26.8113 25.6727 26.5188 23.0627 27.6813 21.3402C28.3713 20.3177 29.5963 19.5752 30.9188 19.5052C33.0288 19.3952 34.4088 21.0452 34.9138 21.6527C36.2763 23.2827 36.3988 25.1327 36.4113 25.8002" stroke="black" stroke-width="0.4" stroke-linecap="round" stroke-linejoin="round"/>
<path d="M28.5312 28.2949C28.9109 28.2949 29.2188 27.9871 29.2188 27.6074C29.2188 27.2277 28.9109 26.9199 28.5312 26.9199C28.1516 26.9199 27.8438 27.2277 27.8438 27.6074C27.8438 27.9871 28.1516 28.2949 28.5312 28.2949Z" stroke="black" stroke-width="0.4" stroke-linecap="round" stroke-linejoin="round"/>
<path d="M36.4141 26.6426C36.7938 26.6426 37.1016 26.3348 37.1016 25.9551C37.1016 25.5754 36.7938 25.2676 36.4141 25.2676C36.0344 25.2676 35.7266 25.5754 35.7266 25.9551C35.7266 26.3348 36.0344 26.6426 36.4141 26.6426Z" stroke="black" stroke-width="0.4" stroke-linecap="round" stroke-linejoin="round"/>
</svg>
