<svg width="160" height="160" viewBox="0 0 160 160" fill="none" xmlns="http://www.w3.org/2000/svg">
<path d="M152.654 99.1864C152.363 99.7431 152.052 100.28 151.736 100.811C149.78 104.072 147.352 106.88 144.589 108.992C141.374 111.445 138.329 112.478 136.599 113.025C112.865 120.513 96.4333 112.047 79.8866 112.302C79.3098 112.307 78.738 112.332 78.1612 112.363C73.9831 112.588 69.775 113.426 65.4314 115.272C51.9794 120.979 46.8985 132.205 31.8665 134.607C31.5355 134.662 31.1994 134.712 30.8584 134.752C30.5023 134.803 30.1361 134.843 29.765 134.878C27.1317 135.139 22.9938 135.259 18.4245 133.494C11.6835 130.89 4.68157 124.45 3.26715 115.733C1.36621 104.021 10.5348 94.3613 13.0678 92.1494C13.3787 91.8785 14.2264 91.1613 15.2095 90.0077C15.4352 89.7419 19.4176 84.9519 19.6484 79.7456C19.839 75.4171 17.3211 73.4559 15.5154 69.4835C13.6195 65.3105 13.2132 60.4904 13.8352 55.9312C13.8853 55.545 13.9505 55.1638 14.0157 54.7826C14.6176 51.3318 15.8013 48.0867 17.3461 45.4485C24.7393 32.819 41.5267 32.3074 43.528 32.2773C45.8101 32.2422 48.007 32.4478 50.0985 32.8491C50.575 32.9394 51.0515 33.0397 51.5179 33.15C63.2847 35.9036 71.5907 44.4654 73.6922 48.508C73.7625 48.6434 73.8828 48.8892 74.0534 49.1952C74.1436 49.3557 74.2439 49.5312 74.3643 49.7218C74.6552 50.2083 75.0415 50.7901 75.528 51.4171C75.528 51.4171 79.0791 55.9563 85.0176 57.8472C91.2019 59.8133 95.7712 56.0917 105.08 53.0974C110.552 51.3369 121.306 47.876 131.724 50.3438C135.174 51.1613 138.826 52.676 142.246 54.903C142.447 55.0334 142.648 55.1688 142.848 55.3042C145.321 56.9845 147.658 59.0409 149.685 61.4685C149.735 61.5287 149.785 61.5838 149.83 61.644C151.144 63.234 152.318 64.9845 153.311 66.8854C158.788 77.3532 157.594 89.8322 152.644 99.1864H152.654Z" fill="#F2F4F7"/>
<path d="M51.5179 33.1475C48.5486 34.7525 45.5492 36.3074 42.5549 37.8672C38.3668 40.0491 34.1887 42.2509 30.1009 44.6133C26.0633 46.9506 22.116 49.4534 18.3793 52.2522C16.8144 53.4258 15.2997 54.6496 13.8301 55.9336C13.8802 55.5474 13.9454 55.1663 14.0106 54.7851C15.7009 53.3155 17.4514 51.9212 19.252 50.597C23.0439 47.8083 27.0564 45.3255 31.1442 42.9932C35.2771 40.6309 39.5003 38.434 43.7135 36.2221C45.8401 35.1036 47.9718 33.9901 50.0884 32.8516C50.5649 32.9418 51.0414 33.0421 51.5078 33.1525L51.5179 33.1475Z" fill="white"/>
<path d="M74.3692 49.7269C72.3429 51.989 70.5322 54.4266 68.7717 56.8843C66.7504 59.7081 64.7492 62.547 62.7329 65.3759C58.7755 70.9383 54.7479 76.4856 51.4376 82.4693C49.7423 85.5288 48.3178 88.7038 46.9837 91.9288C45.5893 95.3044 44.1949 98.68 42.7956 102.05C40.1623 108.395 37.494 114.73 35.3272 121.25C33.8777 125.624 32.694 130.078 31.8714 134.602C31.5404 134.657 31.2043 134.708 30.8633 134.748C31.7912 129.271 33.3661 123.914 35.2219 118.677C37.5692 112.057 40.3429 105.602 43.0263 99.1163C45.7498 92.5358 48.3279 85.89 51.9592 79.7358C55.4902 73.7571 59.6382 68.1646 63.6909 62.532C65.7022 59.7332 67.6934 56.9044 69.805 54.1758C71.1291 52.4655 72.5185 50.7401 74.0683 49.1953C74.1586 49.3558 74.2589 49.5314 74.3793 49.722L74.3692 49.7269Z" fill="white"/>
<path d="M142.852 55.3024C139.918 60.6993 136.342 65.7702 132.385 70.4498C127.72 75.962 122.459 80.9376 116.936 85.5771C111.394 90.2317 105.591 94.5501 99.7526 98.8184C96.6128 101.116 93.4479 103.368 90.1777 105.479C86.9978 107.541 83.7677 109.527 80.678 111.724C80.4122 111.914 80.1464 112.105 79.8855 112.301C79.3087 112.306 78.737 112.326 78.1602 112.361C79.3739 111.438 80.6178 110.555 81.8818 109.702C85.0216 107.581 88.2617 105.615 91.4266 103.528C94.6517 101.412 97.7514 99.1094 100.861 96.8272C106.694 92.5288 112.487 88.1702 117.99 83.4554C123.467 78.7557 128.658 73.695 133.207 68.0875C135.509 65.2536 137.651 62.2893 139.622 59.2147C140.53 57.8003 141.403 56.3608 142.255 54.9062C142.456 55.0367 142.657 55.172 142.857 55.3075L142.852 55.3024Z" fill="white"/>
<path d="M152.655 99.1867C152.364 99.7434 152.053 100.28 151.737 100.812C151.752 99.8487 151.682 98.8857 151.496 97.9427C151.105 95.9415 150.227 94.0957 149.254 92.3151C148.281 90.5446 147.213 88.8242 146.385 86.9835C145.633 85.3183 145.071 83.5778 144.715 81.7822C144.003 78.191 144.083 74.4343 144.951 70.8731C145.377 69.1076 145.999 67.3923 146.791 65.7622C147.539 64.2274 148.427 62.6424 149.69 61.4688C149.741 61.5289 149.791 61.5841 149.836 61.6443C149.665 61.9553 149.495 62.2613 149.304 62.5622C147.323 65.6167 145.969 69.0274 145.417 72.6336C144.865 76.2349 145.036 79.9315 146.049 83.4424C146.571 85.2531 147.333 86.9584 148.236 88.6086C149.209 90.3841 150.292 92.1045 151.145 93.9452C151.922 95.6205 152.469 97.361 152.655 99.1867Z" fill="white"/>
<path d="M84.6324 52.9016C81.5176 51.2163 78.9145 47.3041 79.9527 44.9869C81.2368 42.1129 87.712 42.6195 91.0976 43.427C94.112 44.1442 99.6694 46.286 99.569 48.7787C99.4436 51.8684 90.5559 56.1116 84.6324 52.9016Z" fill="#F2F4F7"/>
<path d="M14.6415 79.7541C13.5782 79.087 14.0697 75.7866 15.2384 75.4455C15.8603 75.26 16.6829 75.9271 17.0591 76.5992C17.0892 76.6543 17.7061 77.813 17.024 78.8663C16.4522 79.744 15.2434 80.1352 14.6465 79.759L14.6415 79.7541Z" fill="#F2F4F7"/>
<path d="M65.8979 58.4946C76.4057 61.5692 83.8189 63.7711 85.5242 64.3931C85.7499 64.4733 86.4471 64.7341 87.4001 64.7693C88.7142 64.8144 89.7273 64.4081 90.254 64.1523C98.3292 60.0143 106.404 55.8715 114.48 51.7335C114.771 51.5881 115.182 51.4275 115.688 51.3373C115.688 51.3373 116.576 51.1868 117.539 51.4175C118.738 51.7034 128.157 54.7479 141.043 59.0614C141.098 59.0865 141.434 59.232 141.534 59.568C141.645 59.9392 141.434 60.3956 140.998 60.6112C136.503 63.1943 132.004 65.7774 127.51 68.3604C124.501 69.9103 121.492 71.4651 118.482 73.015C118.151 73.0802 117.9 73.3461 117.855 73.6721C117.81 74.0232 118.021 74.3742 118.367 74.5046C123.889 76.2451 129.411 77.9805 134.939 79.7059C137.401 80.4733 139.864 81.2457 142.327 82.0131C142.803 82.1335 143.154 82.5247 143.194 82.9811C143.245 83.5028 142.863 83.8539 142.818 83.894C139.262 86.4821 135.42 89.1103 131.287 91.7235C128.263 93.6344 125.293 95.3999 122.414 97.03C122.058 97.2808 121.607 97.5366 121.045 97.7272C119.199 98.3492 117.534 97.7523 116.937 97.5015C108.075 94.6978 99.212 91.899 90.3493 89.0953C89.9982 88.9849 89.5217 88.8796 88.9549 88.8796C87.7512 88.8846 86.8534 89.3912 86.5675 89.5517C85.1531 90.3291 75.844 95.1792 63.049 101.9C62.7631 102.051 62.417 102.211 62.0057 102.342C61.4439 102.522 60.9374 102.602 60.5311 102.638C52.5211 103.932 44.5161 105.231 36.506 106.525C36.0596 106.585 35.5681 106.615 35.0314 106.605C33.4465 106.57 32.1474 106.159 31.2496 105.772C23.8765 102.241 16.5035 98.7103 9.13048 95.1842C8.51857 95.0187 8.14238 94.4269 8.24269 93.8701C8.32294 93.4137 8.71419 93.0426 9.20573 92.9573C22.2314 92.4959 31.365 92.1949 32.1474 92.24C32.2527 92.2451 32.7944 92.2953 33.4565 92.0997C33.6672 92.0395 33.8427 91.9642 33.9781 91.899C34.0333 91.8739 34.0784 91.8489 34.1035 91.8388C34.1135 91.8388 34.1186 91.8338 34.1186 91.8338C34.1687 91.8087 42.9913 87.2143 56.7142 80.077C57.0753 79.8664 57.2157 79.4652 57.0853 79.1743C56.965 78.8984 56.644 78.8232 56.6038 78.8131C50.7857 77.1329 44.9675 75.4476 39.1493 73.7673C38.2314 73.5868 37.7198 72.8996 37.8201 72.378C37.8904 72.0068 38.3067 71.7661 38.4571 71.6858C39.6057 71.0739 46.6527 67.0464 56.5787 61.3787C56.9599 61.1329 57.5568 60.7617 58.2991 60.3303C60.7368 58.9159 61.9857 58.2087 63.5255 58.1435C64.0421 58.1234 64.8596 58.1535 65.8778 58.5096L65.8979 58.4946Z" fill="white"/>
<path d="M37.1327 90.3867C43.7032 88.1949 50.2637 85.9829 56.8493 83.8412C63.465 81.6895 70.1007 79.593 76.7515 77.5466C83.4023 75.5002 90.0079 73.5291 96.6587 71.598C103.34 69.657 110.041 67.7711 116.757 65.9403C123.437 64.1196 130.133 62.3491 136.839 60.6087C137.677 60.393 138.515 60.1723 139.352 59.9516C139.422 59.9315 139.392 59.8262 139.322 59.8463C132.596 61.5015 125.9 63.277 119.214 65.0827C112.528 66.8883 105.797 68.7792 99.1114 70.7102C92.4556 72.6312 85.8198 74.6024 79.1941 76.6287C72.5383 78.6651 65.9026 80.7566 59.2819 82.8983C52.6913 85.03 46.1208 87.2168 39.5703 89.4739C38.7528 89.7548 37.9352 90.0457 37.1176 90.3366C37.0825 90.3466 37.0976 90.4018 37.1327 90.3917V90.3867Z" fill="black"/>
<path d="M86.5121 65.5781C86.2111 65.6132 85.9402 65.7436 85.6694 65.874C85.3986 66.0044 85.1277 66.1549 84.8619 66.3004C84.5961 66.4458 84.3302 66.6013 84.0694 66.7568C83.929 66.837 83.7785 66.9123 83.6531 67.0126C83.5378 67.1029 83.3773 67.1831 83.3121 67.3185C83.2519 67.4389 83.3271 67.5643 83.4575 67.5744C83.608 67.5844 83.7534 67.4841 83.8939 67.4289C84.0443 67.3687 84.1848 67.2734 84.3252 67.1932C84.586 67.0427 84.8569 66.8922 85.1127 66.7317C85.3685 66.5712 85.6343 66.4107 85.8851 66.2402C86.1359 66.0696 86.3766 65.8991 86.5572 65.6583C86.5773 65.6333 86.5522 65.5882 86.5171 65.5882L86.5121 65.5781Z" fill="black"/>
<path d="M60.251 79.3222C60.898 79.1466 61.4648 78.8557 62.0616 78.5648C62.6585 78.2739 63.3005 77.9579 63.9124 77.6419C65.1362 77.0149 66.36 76.3879 67.5889 75.756C70.0365 74.502 72.4992 73.2682 74.9168 71.9491C76.271 71.2068 77.6052 70.4444 78.8992 69.6018C78.9795 69.5516 78.9293 69.3961 78.829 69.4362C76.3061 70.4745 73.9036 71.7535 71.4861 73.0174C69.0685 74.2814 66.5958 75.6256 64.1481 76.9347C63.466 77.3008 62.7889 77.667 62.1168 78.0431C61.4447 78.4193 60.7876 78.7554 60.2058 79.2469C60.1707 79.277 60.2058 79.3322 60.2459 79.3171L60.251 79.3222Z" fill="black"/>
<path d="M35.3568 92.825C35.8684 92.6696 36.3449 92.3987 36.8164 92.1479C37.333 91.8671 37.8345 91.5611 38.3361 91.2551C38.8377 90.9492 39.3091 90.6633 39.7906 90.3623C40.0314 90.2119 40.2671 90.0514 40.5029 89.8859C40.7386 89.7203 40.9894 89.5899 41.175 89.3843C41.2703 89.279 41.175 89.0984 41.0295 89.1385C40.7637 89.2138 40.5229 89.3793 40.2771 89.5097C40.0314 89.6401 39.8107 89.7605 39.58 89.9009C39.0784 90.2069 38.5769 90.5178 38.0753 90.8238C37.5737 91.1297 37.1023 91.4206 36.6358 91.7467C36.1693 92.0727 35.7029 92.3736 35.3167 92.7799C35.2966 92.8 35.3167 92.8401 35.3468 92.8301L35.3568 92.825Z" fill="black"/>
<path d="M13.1842 97.727C13.776 98.0079 14.418 98.1082 15.055 98.2436C15.692 98.3791 16.3792 98.5395 17.0413 98.7C18.3804 99.021 19.7096 99.3872 21.0387 99.7534C23.6619 100.476 26.2601 101.268 28.8632 102.066C31.4663 102.863 34.0995 103.691 36.7378 104.418C38.0218 104.769 39.3108 105.075 40.645 105.125C41.9792 105.175 43.1779 105.03 44.4268 104.809C45.8513 104.563 47.2607 104.252 48.6901 104.047C49.4325 103.936 50.1848 103.856 50.9372 103.821C51.6895 103.786 52.4017 103.851 53.134 103.836C53.3397 103.836 53.3898 103.525 53.1842 103.475C51.9855 103.174 50.6312 103.34 49.4224 103.49C48.2137 103.64 46.9046 103.906 45.6456 104.102C44.3867 104.298 43.0676 104.473 41.7685 104.503C40.4695 104.533 39.1353 104.358 37.8362 104.032C35.203 103.37 32.5999 102.547 30.0017 101.76C27.4036 100.972 24.8005 100.17 22.1823 99.4424C20.7027 99.0311 19.208 98.6549 17.7133 98.3088C16.976 98.1383 16.2337 97.9727 15.4914 97.8223C14.7491 97.6718 13.9967 97.4662 13.2494 97.5264C13.1491 97.5364 13.0839 97.6819 13.1942 97.732L13.1842 97.727Z" fill="black"/>
<path d="M88.8247 87.8489C90.3545 87.1217 91.8191 86.274 93.2887 85.4314C94.7583 84.5887 96.2329 83.7712 97.7125 82.9486C100.637 81.3286 103.586 79.7586 106.56 78.2389C108.245 77.3812 109.886 76.4383 111.556 75.5605C111.651 75.5104 111.566 75.3699 111.47 75.4151C109.926 76.1122 108.381 76.8044 106.846 77.5317C105.311 78.2589 103.832 79.0765 102.342 79.864C99.3877 81.4289 96.4636 83.0439 93.5746 84.7241C91.9344 85.6771 90.2993 86.6301 88.7746 87.7637C88.7294 87.7988 88.7645 87.869 88.8197 87.8439L88.8247 87.8489Z" fill="black"/>
<path d="M116.28 72.4907C116.455 72.8066 116.992 72.8568 117.318 72.8869C117.734 72.927 118.171 72.8669 118.577 72.7816C118.983 72.6963 119.389 72.5709 119.776 72.4054C120.162 72.2399 120.468 71.9641 120.774 71.6732C120.859 71.5929 120.774 71.4624 120.663 71.4875C120.297 71.5678 119.936 71.628 119.58 71.7433C119.224 71.8587 118.853 72.0092 118.472 72.1045C118.115 72.1898 117.759 72.2299 117.398 72.2349C117.218 72.2349 117.037 72.2249 116.857 72.2249C116.676 72.2249 116.51 72.1898 116.345 72.275C116.27 72.3151 116.25 72.4204 116.29 72.4907H116.28Z" fill="black"/>
<path d="M96.6427 89.4475C96.738 89.4475 96.8333 89.4576 96.9336 89.4525C97.0339 89.4475 97.1292 89.4475 97.2245 89.4425C97.4201 89.4375 97.6157 89.4425 97.8114 89.4676C98.007 89.4927 98.1976 89.5227 98.3882 89.5578C98.5788 89.593 98.7543 89.6381 98.9298 89.5578C98.97 89.5378 98.985 89.4726 98.9599 89.4375C98.8446 89.2619 98.6339 89.2168 98.4433 89.1867C98.2327 89.1516 98.022 89.1366 97.8114 89.1416C97.6007 89.1466 97.3951 89.1666 97.1894 89.1917C97.0941 89.2068 96.9988 89.2268 96.9035 89.2519C96.8032 89.277 96.723 89.3221 96.6327 89.3622C96.5926 89.3773 96.5976 89.4425 96.6427 89.4375V89.4475Z" fill="black"/>
<path d="M97.9476 90.6396C98.7501 91.111 99.658 91.4721 100.526 91.8032C101.393 92.1342 102.326 92.4753 103.229 92.8063C104.132 93.1373 105.025 93.4684 105.918 93.8195C106.359 93.995 106.795 94.1706 107.232 94.3562C107.437 94.4415 107.643 94.5368 107.849 94.617C108.089 94.7123 108.345 94.7524 108.586 94.8427C108.776 94.9129 108.897 94.617 108.721 94.5167C108.511 94.4013 108.33 94.2458 108.119 94.1355C107.909 94.0251 107.688 93.9349 107.467 93.8396C107.041 93.654 106.615 93.4734 106.183 93.2979C105.296 92.9368 104.403 92.5906 103.505 92.2546C102.607 91.9185 101.699 91.6026 100.791 91.2916C99.8837 90.9807 98.9357 90.6797 97.9978 90.5242C97.9275 90.5142 97.8824 90.6045 97.9476 90.6446V90.6396Z" fill="black"/>
<path d="M37.2426 75.7295C37.9699 76.0204 38.7774 76.1609 39.5448 76.3364C39.916 76.4217 40.2871 76.517 40.6633 76.6073C41.0395 76.6976 41.4709 76.8329 41.842 76.7527C42.0025 76.7176 42.0627 76.4869 41.9423 76.3765C41.6614 76.1207 41.21 76.0254 40.8489 75.9401C40.4627 75.8499 40.0715 75.7646 39.6853 75.6843C38.9179 75.5238 38.0852 75.3483 37.2978 75.3784C37.0821 75.3884 37.0621 75.6593 37.2476 75.7345L37.2426 75.7295Z" fill="black"/>
<path d="M67.0266 57.4047L67.0366 57.4398V57.3295C66.9965 57.5351 67.157 57.6455 67.3125 57.7358C67.4279 57.806 67.5633 57.8511 67.6937 57.8913C67.8241 57.9314 67.9645 57.9514 68.1 57.9565C68.1551 57.9565 68.2103 57.9565 68.2705 57.9565C68.3156 57.9565 68.3658 57.9564 68.4109 57.9414C68.4812 57.9263 68.5263 57.8913 68.5765 57.8461L68.4761 57.9063C68.5965 57.8712 68.8122 57.7959 68.7921 57.6354C68.7721 57.4749 68.5413 57.4699 68.416 57.4549L68.5313 57.485C68.4511 57.4298 68.3658 57.4248 68.2705 57.4198C68.2454 57.4198 68.2203 57.4198 68.2003 57.4148C68.1852 57.4148 68.1702 57.4148 68.1501 57.4098C68.1852 57.4098 68.1852 57.4098 68.1501 57.4098C68.0498 57.3897 67.9445 57.3747 67.8442 57.3496C67.7438 57.3245 67.6435 57.2844 67.5482 57.2493C67.5232 57.2393 67.4931 57.2292 67.468 57.2192C67.4579 57.2192 67.3827 57.184 67.4278 57.2041C67.3376 57.164 67.2222 57.1389 67.1319 57.2041L67.2372 57.174H67.1971C67.0868 57.1891 66.9865 57.2844 67.0266 57.4047Z" fill="black"/>
<path d="M61.9392 53.7847C61.9994 54.0355 62.0295 54.2863 62.0947 54.5371C62.1649 54.8029 62.2351 55.0687 62.3053 55.3345C62.4408 55.8261 62.5812 56.3176 62.7166 56.8092C62.8521 57.3007 63.0025 57.7872 63.153 58.2787C63.3035 58.7703 63.4138 59.3421 63.6897 59.7584C63.7749 59.8888 63.9806 59.8386 63.9856 59.6781C64.0006 59.1766 63.795 58.6148 63.6696 58.1333C63.5342 57.6217 63.3987 57.1101 63.2533 56.5985C63.1078 56.0869 62.9624 55.5803 62.8119 55.0737C62.6715 54.5972 62.5662 54.0605 62.3104 53.6292C62.19 53.4286 61.889 53.564 61.9392 53.7847Z" fill="black"/>
<path d="M121.562 73.5845C121.592 73.5845 121.582 73.5845 121.532 73.5795C121.547 73.5895 121.567 73.5995 121.582 73.6046C121.622 73.6196 121.657 73.6196 121.702 73.6296C121.772 73.6446 121.848 73.6547 121.923 73.6647C122.058 73.6798 122.199 73.6998 122.334 73.7099C122.389 73.7099 122.434 73.6998 122.49 73.6998C122.44 73.6998 122.53 73.6998 122.535 73.6998C122.6 73.6998 122.665 73.6998 122.735 73.6998C122.766 73.6998 122.796 73.6998 122.821 73.6898C122.886 73.6597 122.906 73.6497 122.876 73.6698C122.906 73.6597 122.931 73.6547 122.961 73.6497C123.026 73.6346 123.092 73.6196 123.157 73.5945C123.267 73.5544 123.322 73.3738 123.192 73.3186C123.122 73.2885 123.046 73.2585 122.976 73.2334C122.881 73.2033 122.831 73.1732 122.72 73.1582C122.65 73.1481 122.58 73.1431 122.505 73.1381C122.439 73.128 122.52 73.1431 122.46 73.128C122.399 73.113 122.344 73.118 122.289 73.118C122.149 73.118 122.003 73.123 121.863 73.128C121.722 73.133 121.487 73.1381 121.406 73.3036C121.346 73.429 121.416 73.5744 121.567 73.5795L121.562 73.5845Z" fill="black"/>
<path d="M71.4199 60.1568C73.1303 61.4408 75.7234 63.2766 79.0337 65.2276C84.9171 68.6935 87.8563 70.4289 91.6632 70.8602C92.5108 70.9555 101.574 71.8684 106.063 66.5969C106.138 66.5066 107.613 64.2597 110.567 59.7606C111.079 58.9832 112.232 57.2177 114.269 55.4973C116.09 53.9575 117.118 53.7117 117.73 53.6465C119.169 53.491 120.162 54.1079 121.19 54.5292C122.745 55.1712 125.148 55.6929 128.734 54.9807C125.514 53.9424 122.294 52.9091 119.074 51.8709C118.537 51.6251 117.79 51.3693 116.887 51.3142C116.466 51.2891 115.814 51.254 115.021 51.5098C114.449 51.6954 114.023 51.9562 113.747 52.1568C105.893 56.1894 98.0381 60.2271 90.1786 64.2597C89.7422 64.4352 89.1403 64.6258 88.408 64.701C87.8814 64.7562 87.4149 64.7412 87.0387 64.701C81.8325 63.1863 76.6262 61.6715 71.4199 60.1518V60.1568Z" fill="#F2F4F7"/>
<path d="M46.5924 93.6692C46.3166 93.6742 43.4025 93.7445 43.0012 92.5407C42.5097 91.0861 46.0658 88.804 47.9366 87.8761C49.8125 86.9432 50.4294 87.1638 50.6702 87.2842C51.7837 87.846 52.1046 89.8974 51.4727 91.3068C50.4595 93.5789 47.1993 93.6542 46.5924 93.6642V93.6692Z" fill="#F2F4F7"/>
<path d="M74.3646 95.9585C74.0085 94.9203 73.5169 93.0144 73.8881 90.7222C74.7859 85.225 79.8066 82.7172 80.1075 82.5717C85.69 79.8984 91.3176 83.1786 91.9044 83.5347C94.668 85.2099 94.3671 86.5843 97.0505 87.773C99.3326 88.7811 100.576 88.2445 106.114 88.094C111.766 87.9435 114.64 87.8933 116.782 89.1121C119.109 90.4363 121.823 93.2651 121.502 96.1892C121.432 96.8413 121.221 97.3629 121.045 97.7191C120.418 97.8896 119.455 98.0701 118.282 97.9598C116.657 97.8043 115.463 97.1673 114.851 96.7811C106.555 94.1379 98.2642 91.4896 89.9683 88.8464C89.4969 88.7812 88.7194 88.741 87.8216 89.0068C87.2749 89.1673 86.8436 89.3981 86.5326 89.5987C82.4749 91.7203 78.4122 93.8419 74.3545 95.9585H74.3646Z" fill="#F2F4F7"/>
<path d="M65.8979 58.4946C72.4383 60.4608 78.9838 62.4269 85.5242 64.3931C85.9706 64.5586 86.6176 64.7392 87.4001 64.7693C88.7142 64.8144 89.7273 64.4081 90.254 64.1523C98.3292 60.0143 106.404 55.8715 114.48 51.7335C114.771 51.5881 115.182 51.4275 115.688 51.3373C115.688 51.3373 116.576 51.1868 117.539 51.4175C118.738 51.7034 128.157 54.7479 141.043 59.0614C141.098 59.0865 141.434 59.232 141.534 59.568C141.645 59.9392 141.434 60.3956 140.998 60.6112C136.503 63.1943 132.004 65.7774 127.51 68.3604C124.501 69.9103 121.492 71.4651 118.482 73.015C118.151 73.0802 117.9 73.3461 117.855 73.6721C117.81 74.0232 118.021 74.3742 118.367 74.5046C123.889 76.2451 129.411 77.9805 134.939 79.7059C137.401 80.4733 139.864 81.2457 142.327 82.0131C142.803 82.1335 143.154 82.5247 143.194 82.9811C143.245 83.5028 142.863 83.8539 142.818 83.894C139.262 86.4821 135.42 89.1103 131.287 91.7235C128.263 93.6344 125.293 95.3999 122.414 97.03C122.058 97.2808 121.607 97.5366 121.045 97.7272C119.199 98.3492 117.534 97.7523 116.937 97.5015C108.075 94.6978 99.212 91.899 90.3493 89.0953C89.9982 88.9849 89.5217 88.8796 88.9549 88.8796C87.7512 88.8846 86.8534 89.3911 86.5675 89.5517C85.1531 90.3291 75.844 95.1792 63.049 101.9C62.7631 102.051 62.417 102.211 62.0057 102.342C61.4439 102.522 60.9374 102.602 60.5311 102.638C52.5211 103.932 44.5161 105.231 36.506 106.525C36.0596 106.585 35.5681 106.615 35.0314 106.605C33.4465 106.57 32.1474 106.159 31.2496 105.772L9.13048 95.1842C8.51857 95.0187 8.14238 94.4269 8.24269 93.8701C8.32294 93.4137 8.71419 93.0426 9.20573 92.9573C22.2314 92.4959 31.365 92.1949 32.1474 92.24C32.2527 92.2451 32.7944 92.2953 33.4565 92.0997C33.6672 92.0395 33.8427 91.9642 33.9781 91.899C34.0333 91.8739 34.0784 91.8489 34.1035 91.8388C34.1135 91.8388 34.1186 91.8338 34.1186 91.8338C34.1687 91.8087 42.9913 87.2143 56.7142 80.077C57.0753 79.8664 57.2157 79.4652 57.0853 79.1743C56.965 78.8984 56.644 78.8232 56.6038 78.8131C50.7857 77.1329 44.9675 75.4476 39.1493 73.7673C38.2314 73.5868 37.7198 72.8996 37.8201 72.378C37.9004 71.9667 38.3568 71.736 38.4571 71.6858C44.496 68.2501 50.5399 64.8144 56.5787 61.3787" stroke="black" stroke-width="0.8" stroke-linecap="round" stroke-linejoin="round"/>
<path d="M117.86 73.6745C107.939 78.7353 98.0175 83.7911 88.1015 88.8519C78.2708 85.6369 68.4401 82.4168 58.6094 79.2017C64.8489 75.9114 71.0834 72.6262 77.3229 69.3359" stroke="black" stroke-width="0.8" stroke-linecap="round" stroke-linejoin="round"/>
<path d="M88.8496 65.3594C98.6101 68.3638 108.376 71.3631 118.136 74.3675" stroke="black" stroke-width="0.8" stroke-linecap="round" stroke-linejoin="round"/>
<path d="M33.4727 92.0859C43.1078 95.4565 52.7428 98.827 62.378 102.198" stroke="black" stroke-width="0.8" stroke-linecap="round" stroke-linejoin="round"/>
<path d="M83.9187 129.822C92.445 129.822 99.357 122.91 99.357 114.384C99.357 105.857 92.445 98.9453 83.9187 98.9453C75.3924 98.9453 68.4805 105.857 68.4805 114.384C68.4805 122.91 75.3924 129.822 83.9187 129.822Z" stroke="black" stroke-width="0.8" stroke-linecap="round" stroke-linejoin="round"/>
<path d="M89.0696 110.544C89.3906 110.469 89.6564 110.408 89.8219 110.373C90.5994 110.178 90.9856 110.082 91.3216 110.143C91.7078 110.213 92.0589 110.418 92.2997 110.729C92.5103 111 92.6056 111.387 92.8012 112.159C92.9969 112.936 93.0922 113.323 93.032 113.659C92.9618 114.045 92.7561 114.396 92.4451 114.637C92.1743 114.847 91.7881 114.943 91.0157 115.138L89.9975 115.394C88.5329 115.76 87.8056 115.941 87.4646 116.508C87.1235 117.074 87.3041 117.807 87.6702 119.271L87.926 120.294C88.1166 121.067 88.2169 121.453 88.1567 121.789C88.0865 122.175 87.8759 122.526 87.5699 122.767C87.3041 122.978 86.9128 123.073 86.1404 123.269C85.368 123.459 84.9818 123.56 84.6458 123.499C84.2595 123.429 83.9084 123.224 83.6677 122.913C83.457 122.647 83.3617 122.255 83.1661 121.483L82.9103 120.46C82.5442 118.995 82.3636 118.268 81.7969 117.927C81.2301 117.586 80.4978 117.766 79.0332 118.133L78.015 118.388C77.2376 118.584 76.8514 118.679 76.5153 118.619C76.1291 118.549 75.7781 118.343 75.5373 118.032C75.3266 117.761 75.2313 117.375 75.0357 116.603C74.8401 115.825 74.7448 115.439 74.805 115.103C74.8752 114.717 75.0809 114.366 75.3918 114.125C75.6627 113.914 76.0489 113.819 76.8213 113.623L77.8395 113.368C79.3041 113.002 80.0313 112.821 80.3724 112.254C80.7135 111.687 80.5329 110.955 80.1668 109.491L79.911 108.472C79.7204 107.7 79.62 107.314 79.6802 106.978C79.7504 106.592 79.9611 106.24 80.2671 106C80.5329 105.789 80.9241 105.694 81.6965 105.498C82.4689 105.308 82.8551 105.207 83.1912 105.267C83.5774 105.338 83.9285 105.548 84.1693 105.854C84.3799 106.12 84.4752 106.511 84.6708 107.284C84.731 107.565 84.8012 107.85 84.8865 108.146C85.1022 108.924 85.368 109.616 85.6388 110.223C85.7191 110.388 85.8796 110.654 86.1806 110.815C86.331 110.895 86.5417 110.965 87.1536 110.915C87.7454 110.87 88.1367 110.76 89.0646 110.544H89.0696Z" fill="#FFEECD"/>
<path d="M88.9601 110.59L89.8278 110.374C90.6052 110.178 90.9914 110.083 91.3275 110.143C91.7137 110.213 92.0648 110.419 92.3055 110.73C92.5162 111.001 92.6115 111.387 92.8071 112.159C93.0027 112.932 93.098 113.323 93.0378 113.659C92.9676 114.045 92.762 114.396 92.451 114.637C92.1801 114.848 91.7939 114.943 91.0215 115.139L90.0033 115.395C88.5388 115.761 87.8115 115.941 87.4704 116.508C87.1294 117.075 87.3099 117.807 87.6761 119.272L87.9319 120.295C88.1225 121.067 88.2228 121.453 88.1626 121.789C88.0924 122.176 87.8817 122.527 87.5758 122.768C87.3099 122.978 86.9187 123.073 86.1463 123.269C85.3739 123.46 84.9877 123.56 84.6516 123.5C84.2654 123.43 83.9143 123.224 83.6736 122.913C83.4629 122.647 83.3676 122.256 83.172 121.484L82.9162 120.46C82.55 118.996 82.3695 118.269 81.8027 117.927C81.2359 117.586 80.5037 117.767 79.0391 118.133L78.0209 118.389C77.2435 118.584 76.8572 118.68 76.5212 118.62C76.135 118.549 75.7839 118.344 75.5431 118.033C75.3325 117.762 75.2372 117.376 75.0416 116.603C74.846 115.831 74.7507 115.44 74.8109 115.104C74.8811 114.717 75.0867 114.366 75.3977 114.126C75.6685 113.915 76.0548 113.82 76.8272 113.624L77.8453 113.368C79.3099 113.002 80.0372 112.821 80.3783 112.255C80.7193 111.688 80.5388 110.956 80.1726 109.491L79.9168 108.473C79.7262 107.7 79.6259 107.314 79.6861 106.978C79.7563 106.592 79.967 106.241 80.2729 106C80.5388 105.79 80.93 105.694 81.7024 105.499C82.4748 105.303 82.861 105.208 83.1971 105.268C83.5833 105.338 83.9344 105.549 84.1751 105.855C84.3858 106.121 84.4811 106.512 84.6767 107.284L84.8924 108.147" stroke="black" stroke-width="0.8" stroke-linecap="round" stroke-linejoin="round"/>
<path d="M85.0469 108.773C85.1121 109.034 85.1723 109.265 85.2325 109.471" stroke="black" stroke-width="0.8" stroke-linecap="round" stroke-linejoin="round"/>
<path d="M85.4277 110.039C85.5832 110.42 85.7688 110.671 86.0397 110.837C86.4259 111.067 86.8923 111.057 87.6096 110.912" stroke="black" stroke-width="0.8" stroke-linecap="round" stroke-linejoin="round"/>
<path d="M73.5956 120.32C75.652 123.886 79.504 126.289 83.9178 126.289C90.4934 126.289 95.82 120.962 95.82 114.387C95.82 107.811 90.4934 102.484 83.9178 102.484C77.3423 102.484 72.0658 107.766 72.0156 114.296" stroke="black" stroke-width="0.8" stroke-linecap="round" stroke-linejoin="round"/>
<path d="M72.041 115.211C72.051 115.371 72.0661 115.532 72.0811 115.687" stroke="black" stroke-width="0.8" stroke-linecap="round" stroke-linejoin="round"/>
<path d="M72.3027 117C72.4382 117.602 72.6187 118.189 72.8394 118.75" stroke="black" stroke-width="0.8" stroke-linecap="round" stroke-linejoin="round"/>
<path d="M88.8496 121.838C89.0101 126.292 89.1706 130.746 89.3361 135.205C89.3813 136.499 90.8609 137.206 91.8991 136.434C92.5963 135.912 93.2935 135.396 93.9907 134.874C94.7029 134.342 95.7211 134.578 96.1324 135.371C96.975 137.011 97.8176 138.656 98.6653 140.296C99.0314 141.003 99.8991 141.284 100.606 140.913C101.073 140.672 101.539 140.426 102.006 140.186C102.753 139.794 103.009 138.851 102.557 138.139C101.604 136.64 100.651 135.135 99.6985 133.635C99.207 132.858 99.5581 131.824 100.426 131.509L102.598 130.726C103.831 130.28 104.042 128.619 102.954 127.882C99.1969 125.344 95.4402 122.806 91.6835 120.268C90.4546 119.436 88.7995 120.354 88.8546 121.838H88.8496Z" fill="#EEA563" stroke="black" stroke-width="0.8" stroke-linecap="round" stroke-linejoin="round"/>
<path d="M90.5447 131.81C90.9911 131.609 91.8037 132.271 92.1999 132.888C92.3303 133.094 92.6112 133.53 92.561 134.097C92.4808 135.07 91.4776 135.948 90.9109 135.787C89.9629 135.517 89.7322 132.181 90.5447 131.815V131.81Z" fill="white"/>
<path d="M90.3495 130.198C90.3695 129.917 90.8209 129.611 91.1921 129.717C91.6987 129.862 91.7789 130.695 91.5532 130.885C91.2824 131.106 90.3143 130.624 90.3444 130.203L90.3495 130.198Z" fill="white"/>
<path d="M60.6906 58.4802C60.1037 58.5504 59.3965 58.736 58.6843 59.1623C57.8768 59.6489 57.3501 60.2708 57.0241 60.7824C57.0241 60.7824 57.004 60.7975 56.999 60.8025C56.8686 60.637 56.7382 60.4714 56.6078 60.3009C50.1526 51.9598 44.5902 41.1962 41.4354 27.1774C41.2097 26.6507 41.4053 26.0388 41.8818 25.7429C42.3783 25.4369 43.0454 25.5673 43.4015 26.0488C52.199 36.8626 57.4555 47.6413 60.4749 57.7579C60.5451 57.9987 60.6203 58.2395 60.6906 58.4802Z" fill="#FFEECD"/>
<path d="M64.7186 70.3637C64.3123 69.812 63.0634 68.2621 60.8565 67.6904C59.7731 67.4095 58.8302 67.4596 58.2033 67.5499C58.3738 66.8126 58.5192 65.8446 58.4841 64.7211C58.4239 62.8602 57.9023 61.3907 57.491 60.4879C57.3305 60.5832 57.175 60.6834 57.0195 60.7787C57.3506 60.2671 57.8722 59.6452 58.6797 59.1587C59.3919 58.7324 60.0992 58.5468 60.686 58.4766C60.686 58.4816 60.686 58.4966 60.691 58.5016C60.5305 58.6119 60.37 58.7273 60.2095 58.8427C60.6659 59.7505 61.5788 61.2352 63.2641 62.444C64.0214 62.9857 64.7537 63.3468 65.3757 63.5875C64.9895 63.9988 64.3575 64.7863 64.0515 65.9399C63.4597 68.1418 64.4779 69.9674 64.7136 70.3637H64.7186Z" fill="#F2F4F7"/>
<path d="M56.995 60.7974C56.8646 60.6319 56.7342 60.4664 56.6038 60.2959C50.1486 51.9548 44.5862 41.1912 41.4314 27.1774C41.2057 26.6507 41.4013 26.0338 41.8828 25.7429C42.3793 25.4369 43.0514 25.5673 43.4025 26.0488C52.2 36.8626 57.4564 47.6413 60.4759 57.7579C60.5511 58.0087 60.6213 58.2545 60.6966 58.5052C60.5361 58.6206 60.3755 58.731 60.215 58.8463C60.6715 59.7542 61.5894 61.2388 63.2696 62.4476C64.027 62.9893 64.7643 63.3504 65.3812 63.5962C64.995 64.0075 64.363 64.7949 64.052 65.9486C63.4602 68.1504 64.4834 69.9761 64.7141 70.3723C64.3078 69.8206 63.0589 68.2708 60.852 67.699C59.7687 67.4181 58.8257 67.4683 58.1988 67.5586C58.3693 66.8213 58.5147 65.8532 58.4796 64.7297C58.4245 62.8689 57.8978 61.3993 57.4865 60.4915C57.321 60.5918 57.1555 60.6971 56.99 60.7974H56.995Z" stroke="black" stroke-width="0.8" stroke-linecap="round" stroke-linejoin="round"/>
<path d="M60.7109 63.5625C61.8645 65.5587 63.0181 67.555 64.1717 69.5562" stroke="black" stroke-width="0.8" stroke-linecap="round" stroke-linejoin="round"/>
<path d="M55.043 58.2096C55.4543 57.7131 56.1816 56.9607 57.295 56.3538C58.253 55.8372 59.1408 55.6215 59.7377 55.5312" stroke="black" stroke-width="0.8" stroke-linecap="round" stroke-linejoin="round"/>
<path d="M50.375 50.8884C50.6208 50.3668 51.2227 49.2734 52.4766 48.4458C54.3173 47.242 56.2333 47.4878 56.7198 47.568" stroke="black" stroke-width="0.8" stroke-linecap="round" stroke-linejoin="round"/>
<path d="M51.1172 52.1389C51.3479 51.6374 51.9247 50.5741 53.1184 49.7766C54.8689 48.6079 56.6946 48.8486 57.156 48.9239" stroke="black" stroke-width="0.8" stroke-linecap="round" stroke-linejoin="round"/>
<path d="M57.0762 60.5284C57.3871 60.1573 57.9088 59.6206 58.6862 59.1592C59.4486 58.7078 60.1558 58.5122 60.6323 58.4219" stroke="black" stroke-width="0.8" stroke-linecap="round" stroke-linejoin="round"/>
<path d="M44.6624 32.3066C45.174 32.1461 46.6837 34.002 46.1119 34.96C45.8862 35.3361 45.3294 35.6019 44.9432 35.4414C44.0555 35.0753 44.1207 32.4722 44.6624 32.3066Z" fill="white"/>
<path d="M45.6699 36.488C45.6699 36.0867 46.1013 35.8159 46.2317 35.8861C46.4323 35.9914 46.2367 36.9845 45.9909 37.0146C45.8555 37.0297 45.6699 36.7538 45.6699 36.493V36.488Z" fill="white"/>
</svg>
