<svg width="1080" height="130" viewBox="0 0 1080 130" fill="none" xmlns="http://www.w3.org/2000/svg">
<g clip-path="url(#clip0_2148_322674)">
<rect width="1080" height="130" rx="12" fill="#8F4400"/>
<path d="M636.967 219.852H470.848L380.473 40H718.768L636.967 219.852Z" fill="url(#paint0_linear_2148_322674)"/>
<path d="M682.897 -541.379L682.897 -501.684M682.897 -541.379C682.897 -544.484 685.721 -547 689.203 -547L733.741 -547C737.224 -547 740.047 -544.484 740.047 -541.379L740.047 -501.684C740.047 -498.58 737.224 -496.064 733.741 -496.064M682.897 -541.379C682.897 -544.484 680.074 -547 676.591 -547L632.054 -547C628.571 -547 625.747 -544.484 625.747 -541.379M689.203 -496.064L733.741 -496.064M689.203 -496.064C685.721 -496.064 682.897 -498.58 682.897 -501.684M689.203 -496.064C685.721 -496.064 682.897 -493.547 682.897 -490.443M682.897 -501.684C682.897 -498.58 680.074 -496.064 676.591 -496.064M733.741 -496.064C737.224 -496.064 740.047 -493.547 740.047 -490.443L740.047 -450.748C740.047 -447.644 737.224 -445.127 733.741 -445.127M682.897 -490.443L682.897 -450.748M682.897 -490.443C682.897 -493.547 680.074 -496.064 676.591 -496.064M689.203 -445.127L733.741 -445.127M689.203 -445.127C685.721 -445.127 682.897 -447.644 682.897 -450.748M689.203 -445.127C685.721 -445.127 682.897 -442.611 682.897 -439.507M682.897 -450.748C682.897 -447.644 680.074 -445.127 676.591 -445.127M733.741 -445.127C737.224 -445.127 740.047 -442.611 740.047 -439.507L740.047 -399.811C740.047 -396.707 737.223 -394.191 733.741 -394.191M682.897 -439.507L682.897 -399.811M682.897 -439.507C682.897 -442.611 680.074 -445.127 676.591 -445.127M689.203 -394.191L733.741 -394.191M689.203 -394.191C685.721 -394.191 682.897 -396.707 682.897 -399.811M689.203 -394.191C685.721 -394.191 682.897 -391.674 682.897 -388.57M682.897 -399.811C682.897 -396.707 680.074 -394.191 676.591 -394.191M733.741 -394.191C737.223 -394.191 740.047 -391.674 740.047 -388.57L740.047 -348.875C740.047 -345.771 737.223 -343.254 733.741 -343.254M682.897 -388.57L682.897 -348.875M682.897 -388.57C682.897 -391.674 680.074 -394.191 676.591 -394.191M689.203 -343.254L733.741 -343.254M689.203 -343.254C685.721 -343.254 682.897 -345.771 682.897 -348.875M689.203 -343.254C685.721 -343.254 682.897 -340.738 682.897 -337.634M682.897 -348.875C682.897 -345.771 680.074 -343.254 676.591 -343.254M733.741 -343.254C737.223 -343.254 740.047 -340.738 740.047 -337.634L740.047 -297.939C740.047 -294.834 737.223 -292.318 733.741 -292.318M682.897 -337.634L682.897 -297.939M682.897 -337.634C682.897 -340.738 680.074 -343.254 676.591 -343.254M689.203 -292.318L733.741 -292.318M689.203 -292.318C685.721 -292.318 682.897 -294.834 682.897 -297.939M689.203 -292.318C685.721 -292.318 682.897 -289.802 682.897 -286.697M682.897 -297.939C682.897 -294.834 680.074 -292.318 676.591 -292.318M733.741 -292.318C737.223 -292.318 740.047 -289.802 740.047 -286.697L740.047 -247.002C740.047 -243.898 737.223 -241.382 733.741 -241.382M682.897 -286.697L682.897 -247.002M682.897 -286.697C682.897 -289.802 680.074 -292.318 676.591 -292.318M689.203 -241.382L733.741 -241.382M689.203 -241.382C685.721 -241.382 682.897 -243.898 682.897 -247.002M689.203 -241.382C685.721 -241.382 682.897 -238.865 682.897 -235.761M682.897 -247.002C682.897 -243.898 680.074 -241.382 676.591 -241.382M733.741 -241.382C737.223 -241.382 740.047 -238.865 740.047 -235.761L740.047 -196.066C740.047 -192.962 737.223 -190.445 733.741 -190.445M682.897 69.8575L682.897 109.553M682.897 69.8575C682.897 66.7533 685.721 64.2369 689.203 64.2369M682.897 69.8575C682.897 66.7533 680.074 64.2369 676.591 64.2369M689.203 64.2369L733.741 64.2369M689.203 64.2369C685.721 64.2369 682.897 61.7205 682.897 58.6164M689.203 115.173L733.741 115.173M689.203 115.173C685.721 115.173 682.897 112.657 682.897 109.553M689.203 115.173C685.721 115.173 682.897 117.69 682.897 120.794M682.897 109.553C682.897 112.657 680.074 115.173 676.591 115.173M733.741 115.173C737.223 115.173 740.047 112.657 740.047 109.553L740.047 69.8575C740.047 66.7533 737.223 64.2369 733.741 64.2369M733.741 115.173C737.223 115.173 740.047 117.69 740.047 120.794L740.047 160.489C740.047 163.593 737.223 166.11 733.741 166.11M733.741 64.2369C737.223 64.2369 740.047 61.7205 740.047 58.6164L740.047 18.9211C740.047 15.8169 737.223 13.3005 733.741 13.3005M682.897 120.794L682.897 160.489M682.897 120.794C682.897 117.69 680.074 115.173 676.591 115.173M689.203 166.11L733.741 166.11M689.203 166.11C685.721 166.11 682.897 163.593 682.897 160.489M689.203 166.11C685.721 166.11 682.897 168.626 682.897 171.73M682.897 160.489C682.897 163.593 680.074 166.11 676.591 166.11M733.741 166.11C737.223 166.11 740.047 168.626 740.047 171.73L740.047 211.426C740.047 214.53 737.223 217.046 733.741 217.046M682.897 171.73L682.897 211.426M682.897 171.73C682.897 168.626 680.074 166.11 676.591 166.11M689.203 217.046L733.741 217.046M689.203 217.046C685.721 217.046 682.897 214.53 682.897 211.426M689.203 217.046C685.721 217.046 682.897 219.563 682.897 222.667M682.897 211.426C682.897 214.53 680.074 217.046 676.591 217.046M733.741 217.046C737.223 217.046 740.047 219.563 740.047 222.667L740.047 262.362C740.047 265.466 737.223 267.983 733.741 267.983M682.897 222.667L682.897 262.362M682.897 222.667C682.897 219.563 680.074 217.046 676.591 217.046M689.203 267.983L733.741 267.983M689.203 267.983C685.721 267.983 682.897 265.466 682.897 262.362M689.203 267.983C685.721 267.983 682.897 270.499 682.897 273.603M682.897 262.362C682.897 265.466 680.074 267.983 676.591 267.983M733.741 267.983C737.223 267.983 740.047 270.499 740.047 273.603L740.047 313.298C740.047 316.403 737.223 318.919 733.741 318.919M682.897 273.603L682.897 313.298M682.897 273.603C682.897 270.499 680.074 267.983 676.591 267.983M689.203 318.919L733.741 318.919M689.203 318.919C685.721 318.919 682.897 316.403 682.897 313.298M689.203 318.919C685.721 318.919 682.897 321.435 682.897 324.54M682.897 313.298C682.897 316.403 680.074 318.919 676.591 318.919M733.741 318.919C737.223 318.919 740.047 321.435 740.047 324.54L740.047 364.235C740.047 367.339 737.223 369.855 733.741 369.855M682.897 324.54L682.897 364.235M682.897 324.54C682.897 321.435 680.074 318.919 676.591 318.919M689.203 369.855L733.741 369.855M689.203 369.855C685.721 369.855 682.897 367.339 682.897 364.235M689.203 369.855C685.721 369.855 682.897 372.372 682.897 375.476M682.897 364.235C682.897 367.339 680.074 369.855 676.591 369.855M733.741 369.855C737.223 369.855 740.047 372.372 740.047 375.476L740.047 415.171C740.047 418.275 737.223 420.792 733.741 420.792M682.897 -235.761L682.897 -196.066M682.897 -235.761C682.897 -238.865 680.074 -241.382 676.591 -241.382M689.203 -190.445L733.741 -190.445M689.203 -190.445C685.721 -190.445 682.897 -192.962 682.897 -196.066M689.203 -190.445C685.721 -190.445 682.897 -187.929 682.897 -184.825M682.897 -196.066C682.897 -192.962 680.074 -190.445 676.591 -190.445M733.741 -190.445C737.223 -190.445 740.047 -187.929 740.047 -184.825L740.047 -145.129C740.047 -142.025 737.223 -139.509 733.741 -139.509M682.897 -184.825L682.897 -145.129M682.897 -184.825C682.897 -187.929 680.074 -190.445 676.591 -190.445M689.203 -139.509L733.741 -139.509M689.203 -139.509C685.721 -139.509 682.897 -142.025 682.897 -145.129M689.203 -139.509C685.721 -139.509 682.897 -136.992 682.897 -133.888M682.897 -145.129C682.897 -142.025 680.074 -139.509 676.591 -139.509M733.741 -139.509C737.223 -139.509 740.047 -136.992 740.047 -133.888L740.047 -94.1929C740.047 -91.0887 737.223 -88.5723 733.741 -88.5723M682.897 -133.888L682.897 -94.1928M682.897 -133.888C682.897 -136.992 680.074 -139.509 676.591 -139.509M689.203 -88.5723L733.741 -88.5723M689.203 -88.5723C685.721 -88.5723 682.897 -91.0887 682.897 -94.1928M689.203 -88.5723C685.721 -88.5723 682.897 -86.0559 682.897 -82.9517M682.897 -94.1928C682.897 -91.0887 680.074 -88.5723 676.591 -88.5723M733.741 -88.5723C737.223 -88.5723 740.047 -86.0559 740.047 -82.9518L740.047 -43.2565C740.047 -40.1523 737.223 -37.6359 733.741 -37.6359M682.897 -82.9517L682.897 -43.2565M682.897 -82.9517C682.897 -86.0559 680.074 -88.5723 676.591 -88.5723M689.203 -37.6359L733.741 -37.6359M689.203 -37.6359C685.721 -37.6359 682.897 -40.1523 682.897 -43.2565M689.203 -37.6359C685.721 -37.6359 682.897 -35.1195 682.897 -32.0153M682.897 -43.2565C682.897 -40.1523 680.074 -37.6359 676.591 -37.6359M733.741 -37.6359C737.223 -37.6359 740.047 -35.1195 740.047 -32.0153L740.047 7.67993C740.047 10.7841 737.223 13.3005 733.741 13.3005M682.897 -32.0153L682.897 7.67993M682.897 -32.0153C682.897 -35.1195 680.074 -37.6359 676.591 -37.6359M689.203 13.3005L733.741 13.3005M689.203 13.3005C685.721 13.3005 682.897 10.7841 682.897 7.67993M689.203 13.3005C685.721 13.3005 682.897 15.817 682.897 18.9211M682.897 7.67993C682.897 10.7841 680.074 13.3005 676.591 13.3005M682.897 18.9211L682.897 58.6164M682.897 18.9211C682.897 15.817 680.074 13.3005 676.591 13.3005M682.897 58.6164C682.897 61.7205 680.074 64.2369 676.591 64.2369M682.897 375.476L682.897 415.171M682.897 375.476C682.897 372.372 680.074 369.855 676.591 369.855M689.203 420.792L733.741 420.792M689.203 420.792C685.721 420.792 682.897 418.275 682.897 415.171M689.203 420.792C685.721 420.792 682.897 423.308 682.897 426.412M682.897 415.171C682.897 418.275 680.074 420.792 676.591 420.792M733.741 420.792C737.223 420.792 740.047 423.308 740.047 426.412L740.047 466.108C740.047 469.212 737.223 471.728 733.741 471.728M682.897 426.412L682.897 466.108M682.897 426.412C682.897 423.308 680.074 420.792 676.591 420.792M689.203 471.728L733.741 471.728M689.203 471.728C685.721 471.728 682.897 469.212 682.897 466.108M689.203 471.728C685.721 471.728 682.897 474.245 682.897 477.349M682.897 466.108C682.897 469.212 680.074 471.728 676.591 471.728M733.741 471.728C737.223 471.728 740.047 474.245 740.047 477.349L740.047 517.044C740.047 520.148 737.223 522.665 733.741 522.665M682.897 477.349L682.897 517.044M682.897 477.349C682.897 474.245 680.074 471.728 676.591 471.728M689.203 522.665L733.741 522.665M689.203 522.665C685.721 522.665 682.897 520.148 682.897 517.044M689.203 522.665C685.721 522.665 682.897 525.181 682.897 528.285M682.897 517.044C682.897 520.148 680.074 522.665 676.591 522.665M733.741 522.665C737.223 522.665 740.047 525.181 740.047 528.285L740.047 567.98C740.047 571.085 737.223 573.601 733.741 573.601M682.897 528.285L682.897 567.98M682.897 528.285C682.897 525.181 680.074 522.665 676.591 522.665M689.203 573.601L733.741 573.601M689.203 573.601C685.721 573.601 682.897 571.085 682.897 567.98M689.203 573.601C685.721 573.601 682.897 576.118 682.897 579.222M682.897 567.98C682.897 571.085 680.074 573.601 676.591 573.601M733.741 573.601C737.223 573.601 740.047 576.117 740.047 579.222L740.047 618.917C740.047 622.021 737.223 624.537 733.741 624.537M682.897 579.222L682.897 618.917M682.897 579.222C682.897 576.118 680.074 573.601 676.591 573.601M689.203 624.537L733.741 624.537M689.203 624.537C685.721 624.537 682.897 622.021 682.897 618.917M689.203 624.537C685.721 624.537 682.897 627.054 682.897 630.158M682.897 618.917C682.897 622.021 680.074 624.537 676.591 624.537M733.741 624.537C737.223 624.537 740.047 627.054 740.047 630.158L740.047 669.853C740.047 672.957 737.223 675.474 733.741 675.474L689.203 675.474C685.721 675.474 682.897 672.957 682.897 669.853M682.897 630.158L682.897 669.853M682.897 630.158C682.897 627.054 680.074 624.537 676.591 624.537M682.897 669.853C682.897 672.957 680.074 675.474 676.591 675.474L632.054 675.474C628.571 675.474 625.747 672.957 625.747 669.853M625.747 -541.379L625.747 -501.684M625.747 -541.379C625.747 -544.484 622.924 -547 619.441 -547L574.904 -547C571.421 -547 568.598 -544.484 568.598 -541.379M632.054 -496.064L676.591 -496.064M632.054 -496.064C628.571 -496.064 625.747 -498.58 625.747 -501.684M632.054 -496.064C628.571 -496.064 625.748 -493.547 625.748 -490.443M625.747 -501.684C625.747 -498.58 622.924 -496.064 619.441 -496.064M625.748 -490.443L625.748 -450.748M625.748 -490.443C625.748 -493.547 622.924 -496.064 619.441 -496.064M632.054 -445.127L676.591 -445.127M632.054 -445.127C628.571 -445.127 625.748 -447.644 625.748 -450.748M632.054 -445.127C628.571 -445.127 625.748 -442.611 625.748 -439.507M625.748 -450.748C625.748 -447.644 622.924 -445.127 619.441 -445.127M625.748 -439.507L625.748 -399.811M625.748 -439.507C625.748 -442.611 622.924 -445.127 619.441 -445.127M632.054 -394.191L676.591 -394.191M632.054 -394.191C628.571 -394.191 625.748 -396.707 625.748 -399.811M632.054 -394.191C628.571 -394.191 625.748 -391.674 625.748 -388.57M625.748 -399.811C625.748 -396.707 622.924 -394.191 619.441 -394.191M625.748 -388.57L625.748 -348.875M625.748 -388.57C625.748 -391.674 622.924 -394.191 619.441 -394.191M632.054 -343.254L676.591 -343.254M632.054 -343.254C628.571 -343.254 625.748 -345.771 625.748 -348.875M632.054 -343.254C628.571 -343.254 625.748 -340.738 625.748 -337.634M625.748 -348.875C625.748 -345.771 622.924 -343.254 619.441 -343.254M625.748 -337.634L625.748 -297.939M625.748 -337.634C625.748 -340.738 622.924 -343.254 619.441 -343.254M632.054 -292.318L676.591 -292.318M632.054 -292.318C628.571 -292.318 625.748 -294.834 625.748 -297.939M632.054 -292.318C628.571 -292.318 625.748 -289.802 625.748 -286.697M625.748 -297.939C625.748 -294.834 622.924 -292.318 619.441 -292.318M625.748 -286.697L625.748 -247.002M625.748 -286.697C625.748 -289.802 622.924 -292.318 619.441 -292.318M632.054 -241.382L676.591 -241.382M632.054 -241.382C628.571 -241.382 625.748 -243.898 625.748 -247.002M632.054 -241.382C628.571 -241.382 625.747 -238.865 625.747 -235.761M625.748 -247.002C625.748 -243.898 622.924 -241.382 619.441 -241.382M625.747 69.8575L625.747 109.553M625.747 69.8575C625.747 66.7533 628.571 64.2369 632.054 64.2369M625.747 69.8575C625.747 66.7533 622.924 64.2369 619.441 64.2369M632.054 64.2369L676.591 64.2369M632.054 64.2369C628.571 64.2369 625.747 61.7205 625.747 58.6164M632.054 115.173L676.591 115.173M632.054 115.173C628.571 115.173 625.747 112.657 625.747 109.553M632.054 115.173C628.571 115.173 625.747 117.69 625.747 120.794M625.747 109.553C625.747 112.657 622.924 115.173 619.441 115.173M625.747 120.794L625.747 160.489M625.747 120.794C625.747 117.69 622.924 115.173 619.441 115.173M632.054 166.11L676.591 166.11M632.054 166.11C628.571 166.11 625.747 163.593 625.747 160.489M632.054 166.11C628.571 166.11 625.747 168.626 625.747 171.73M625.747 160.489C625.747 163.593 622.924 166.11 619.441 166.11M625.747 171.73L625.747 211.426M625.747 171.73C625.747 168.626 622.924 166.11 619.441 166.11M632.054 217.046L676.591 217.046M632.054 217.046C628.571 217.046 625.747 214.53 625.747 211.426M632.054 217.046C628.571 217.046 625.747 219.563 625.747 222.667M625.747 211.426C625.747 214.53 622.924 217.046 619.441 217.046M625.747 222.667L625.747 262.362M625.747 222.667C625.747 219.563 622.924 217.046 619.441 217.046M632.054 267.983L676.591 267.983M632.054 267.983C628.571 267.983 625.747 265.466 625.747 262.362M632.054 267.983C628.571 267.983 625.747 270.499 625.747 273.603M625.747 262.362C625.747 265.466 622.924 267.983 619.441 267.983M625.747 273.603L625.747 313.298M625.747 273.603C625.747 270.499 622.924 267.983 619.441 267.983M632.054 318.919L676.591 318.919M632.054 318.919C628.571 318.919 625.747 316.403 625.747 313.298M632.054 318.919C628.571 318.919 625.747 321.435 625.747 324.54M625.747 313.298C625.747 316.403 622.924 318.919 619.441 318.919M625.747 324.54L625.747 364.235M625.747 324.54C625.747 321.435 622.924 318.919 619.441 318.919M632.054 369.855L676.591 369.855M632.054 369.855C628.571 369.855 625.747 367.339 625.747 364.235M632.054 369.855C628.571 369.855 625.747 372.372 625.747 375.476M625.747 364.235C625.747 367.339 622.924 369.855 619.441 369.855M625.747 -235.761L625.747 -196.066M625.747 -235.761C625.747 -238.865 622.924 -241.382 619.441 -241.382M632.054 -190.445L676.591 -190.445M632.054 -190.445C628.571 -190.445 625.747 -192.962 625.747 -196.066M632.054 -190.445C628.571 -190.445 625.748 -187.929 625.748 -184.825M625.747 -196.066C625.747 -192.962 622.924 -190.445 619.441 -190.445M625.748 -184.825L625.748 -145.129M625.748 -184.825C625.748 -187.929 622.924 -190.445 619.441 -190.445M632.054 -139.509L676.591 -139.509M632.054 -139.509C628.571 -139.509 625.748 -142.025 625.748 -145.129M632.054 -139.509C628.571 -139.509 625.748 -136.992 625.748 -133.888M625.748 -145.129C625.748 -142.025 622.924 -139.509 619.441 -139.509M625.748 -133.888L625.748 -94.1928M625.748 -133.888C625.748 -136.992 622.924 -139.509 619.441 -139.509M632.054 -88.5723L676.591 -88.5723M632.054 -88.5723C628.571 -88.5723 625.748 -91.0887 625.748 -94.1928M632.054 -88.5723C628.571 -88.5723 625.748 -86.0559 625.748 -82.9517M625.748 -94.1928C625.748 -91.0887 622.924 -88.5723 619.441 -88.5723M625.748 -82.9517L625.747 -43.2565M625.748 -82.9517C625.748 -86.0559 622.924 -88.5723 619.441 -88.5723M632.054 -37.6359L676.591 -37.6359M632.054 -37.6359C628.571 -37.6359 625.747 -40.1523 625.747 -43.2565M632.054 -37.6359C628.571 -37.6359 625.747 -35.1195 625.747 -32.0153M625.747 -43.2565C625.747 -40.1523 622.924 -37.6359 619.441 -37.6359M625.747 -32.0153L625.747 7.67993M625.747 -32.0153C625.747 -35.1195 622.924 -37.6359 619.441 -37.6359M632.054 13.3005L676.591 13.3005M632.054 13.3005C628.571 13.3005 625.747 10.7841 625.747 7.67993M632.054 13.3005C628.571 13.3005 625.747 15.817 625.747 18.9211M625.747 7.67993C625.747 10.7841 622.924 13.3005 619.441 13.3005M625.747 18.9211L625.747 58.6164M625.747 18.9211C625.747 15.817 622.924 13.3005 619.441 13.3005M625.747 58.6164C625.747 61.7205 622.924 64.2369 619.441 64.2369M625.747 375.476L625.747 415.171M625.747 375.476C625.747 372.372 622.924 369.855 619.441 369.855M632.054 420.792L676.591 420.792M632.054 420.792C628.571 420.792 625.747 418.275 625.747 415.171M632.054 420.792C628.571 420.792 625.747 423.308 625.747 426.412M625.747 415.171C625.747 418.275 622.924 420.792 619.441 420.792M625.747 426.412L625.747 466.108M625.747 426.412C625.747 423.308 622.924 420.792 619.441 420.792M632.054 471.728L676.591 471.728M632.054 471.728C628.571 471.728 625.747 469.212 625.747 466.108M632.054 471.728C628.571 471.728 625.747 474.245 625.747 477.349M625.747 466.108C625.747 469.212 622.924 471.728 619.441 471.728M625.747 477.349L625.747 517.044M625.747 477.349C625.747 474.245 622.924 471.728 619.441 471.728M632.054 522.665L676.591 522.665M632.054 522.665C628.571 522.665 625.747 520.148 625.747 517.044M632.054 522.665C628.571 522.665 625.747 525.181 625.747 528.285M625.747 517.044C625.747 520.148 622.924 522.665 619.441 522.665M625.747 528.285L625.747 567.98M625.747 528.285C625.747 525.181 622.924 522.665 619.441 522.665M632.054 573.601L676.591 573.601M632.054 573.601C628.571 573.601 625.747 571.085 625.747 567.98M632.054 573.601C628.571 573.601 625.747 576.118 625.747 579.222M625.747 567.98C625.747 571.085 622.924 573.601 619.441 573.601M625.747 579.222L625.747 618.917M625.747 579.222C625.747 576.118 622.924 573.601 619.441 573.601M632.054 624.537L676.591 624.537M632.054 624.537C628.571 624.537 625.747 622.021 625.747 618.917M632.054 624.537C628.571 624.537 625.747 627.054 625.747 630.158M625.747 618.917C625.747 622.021 622.924 624.537 619.441 624.537M625.747 630.158L625.747 669.853M625.747 630.158C625.747 627.054 622.924 624.537 619.441 624.537M625.747 669.853C625.747 672.957 622.924 675.474 619.441 675.474L574.904 675.474C571.421 675.474 568.598 672.957 568.598 669.853M568.598 -541.379L568.598 -501.684M568.598 -541.379C568.598 -544.484 565.775 -547 562.292 -547L517.754 -547C514.272 -547 511.448 -544.484 511.448 -541.379M574.904 -496.064L619.441 -496.064M574.904 -496.064C571.421 -496.064 568.598 -498.58 568.598 -501.684M574.904 -496.064C571.421 -496.064 568.598 -493.547 568.598 -490.443M568.598 -501.684C568.598 -498.58 565.775 -496.064 562.292 -496.064M568.598 -490.443L568.598 -450.748M568.598 -490.443C568.598 -493.547 565.775 -496.064 562.292 -496.064M574.904 -445.127L619.441 -445.127M574.904 -445.127C571.421 -445.127 568.598 -447.644 568.598 -450.748M574.904 -445.127C571.421 -445.127 568.598 -442.611 568.598 -439.507M568.598 -450.748C568.598 -447.644 565.775 -445.127 562.292 -445.127M568.598 -439.507L568.598 -399.811M568.598 -439.507C568.598 -442.611 565.775 -445.127 562.292 -445.127M574.904 -394.191L619.441 -394.191M574.904 -394.191C571.421 -394.191 568.598 -396.707 568.598 -399.811M574.904 -394.191C571.421 -394.191 568.598 -391.674 568.598 -388.57M568.598 -399.811C568.598 -396.707 565.775 -394.191 562.292 -394.191M568.598 -388.57L568.598 -348.875M568.598 -388.57C568.598 -391.674 565.775 -394.191 562.292 -394.191M574.904 -343.254L619.441 -343.254M574.904 -343.254C571.421 -343.254 568.598 -345.771 568.598 -348.875M574.904 -343.254C571.421 -343.254 568.598 -340.738 568.598 -337.634M568.598 -348.875C568.598 -345.771 565.775 -343.254 562.292 -343.254M568.598 -337.634L568.598 -297.939M568.598 -337.634C568.598 -340.738 565.775 -343.254 562.292 -343.254M574.904 -292.318L619.441 -292.318M574.904 -292.318C571.421 -292.318 568.598 -294.834 568.598 -297.939M574.904 -292.318C571.421 -292.318 568.598 -289.802 568.598 -286.697M568.598 -297.939C568.598 -294.834 565.775 -292.318 562.292 -292.318M568.598 -286.697L568.598 -247.002M568.598 -286.697C568.598 -289.802 565.775 -292.318 562.292 -292.318M574.904 -241.382L619.441 -241.382M574.904 -241.382C571.421 -241.382 568.598 -243.898 568.598 -247.002M574.904 -241.382C571.421 -241.382 568.598 -238.865 568.598 -235.761M568.598 -247.002C568.598 -243.898 565.775 -241.382 562.292 -241.382M568.598 69.8575L568.598 109.553M568.598 69.8575C568.598 66.7533 571.421 64.2369 574.904 64.2369M568.598 69.8575C568.598 66.7533 565.774 64.2369 562.292 64.2369M574.904 64.2369L619.441 64.2369M574.904 64.2369C571.421 64.2369 568.598 61.7205 568.598 58.6164M574.904 115.173L619.441 115.173M574.904 115.173C571.421 115.173 568.598 112.657 568.598 109.553M574.904 115.173C571.421 115.173 568.598 117.69 568.598 120.794M568.598 109.553C568.598 112.657 565.774 115.173 562.292 115.173M568.598 120.794L568.598 160.489M568.598 120.794C568.598 117.69 565.774 115.173 562.292 115.173M574.904 166.11L619.441 166.11M574.904 166.11C571.421 166.11 568.598 163.593 568.598 160.489M574.904 166.11C571.421 166.11 568.598 168.626 568.598 171.73M568.598 160.489C568.598 163.593 565.775 166.11 562.292 166.11M568.598 171.73L568.598 211.426M568.598 171.73C568.598 168.626 565.775 166.11 562.292 166.11M574.904 217.046L619.441 217.046M574.904 217.046C571.421 217.046 568.598 214.53 568.598 211.426M574.904 217.046C571.421 217.046 568.598 219.563 568.598 222.667M568.598 211.426C568.598 214.53 565.775 217.046 562.292 217.046M568.598 222.667L568.598 262.362M568.598 222.667C568.598 219.563 565.775 217.046 562.292 217.046M574.904 267.983L619.441 267.983M574.904 267.983C571.421 267.983 568.598 265.466 568.598 262.362M574.904 267.983C571.421 267.983 568.598 270.499 568.598 273.603M568.598 262.362C568.598 265.466 565.775 267.983 562.292 267.983M568.598 273.603L568.598 313.298M568.598 273.603C568.598 270.499 565.775 267.983 562.292 267.983M574.904 318.919L619.441 318.919M574.904 318.919C571.421 318.919 568.598 316.403 568.598 313.298M574.904 318.919C571.421 318.919 568.598 321.435 568.598 324.54M568.598 313.298C568.598 316.403 565.775 318.919 562.292 318.919M568.598 324.54L568.598 364.235M568.598 324.54C568.598 321.435 565.775 318.919 562.292 318.919M574.904 369.855L619.441 369.855M574.904 369.855C571.421 369.855 568.598 367.339 568.598 364.235M574.904 369.855C571.421 369.855 568.598 372.372 568.598 375.476M568.598 364.235C568.598 367.339 565.775 369.855 562.292 369.855M568.598 -235.761L568.598 -196.066M568.598 -235.761C568.598 -238.865 565.775 -241.382 562.292 -241.382M574.904 -190.445L619.441 -190.445M574.904 -190.445C571.421 -190.445 568.598 -192.962 568.598 -196.066M574.904 -190.445C571.421 -190.445 568.598 -187.929 568.598 -184.825M568.598 -196.066C568.598 -192.962 565.775 -190.445 562.292 -190.445M568.598 -184.825L568.598 -145.129M568.598 -184.825C568.598 -187.929 565.775 -190.445 562.292 -190.445M574.904 -139.509L619.441 -139.509M574.904 -139.509C571.421 -139.509 568.598 -142.025 568.598 -145.129M574.904 -139.509C571.421 -139.509 568.598 -136.992 568.598 -133.888M568.598 -145.129C568.598 -142.025 565.775 -139.509 562.292 -139.509M568.598 -133.888L568.598 -94.1928M568.598 -133.888C568.598 -136.992 565.775 -139.509 562.292 -139.509M574.904 -88.5723L619.441 -88.5723M574.904 -88.5723C571.421 -88.5723 568.598 -91.0887 568.598 -94.1928M574.904 -88.5723C571.421 -88.5723 568.598 -86.0559 568.598 -82.9517M568.598 -94.1928C568.598 -91.0887 565.775 -88.5723 562.292 -88.5723M568.598 -82.9517L568.598 -43.2565M568.598 -82.9517C568.598 -86.0559 565.775 -88.5723 562.292 -88.5723M574.904 -37.6359L619.441 -37.6359M574.904 -37.6359C571.421 -37.6359 568.598 -40.1523 568.598 -43.2565M574.904 -37.6359C571.421 -37.6359 568.598 -35.1195 568.598 -32.0153M568.598 -43.2565C568.598 -40.1523 565.775 -37.6359 562.292 -37.6359M568.598 -32.0153L568.598 7.67992M568.598 -32.0153C568.598 -35.1195 565.775 -37.6359 562.292 -37.6359M574.904 13.3005L619.441 13.3005M574.904 13.3005C571.421 13.3005 568.598 10.7841 568.598 7.67992M574.904 13.3005C571.421 13.3005 568.598 15.817 568.598 18.9211M568.598 7.67992C568.598 10.7841 565.775 13.3005 562.292 13.3005M568.598 18.9211L568.598 58.6164M568.598 18.9211C568.598 15.817 565.775 13.3005 562.292 13.3005M568.598 58.6164C568.598 61.7205 565.774 64.2369 562.292 64.2369M568.598 375.476L568.598 415.171M568.598 375.476C568.598 372.372 565.775 369.855 562.292 369.855M574.904 420.792L619.441 420.792M574.904 420.792C571.421 420.792 568.598 418.275 568.598 415.171M574.904 420.792C571.421 420.792 568.598 423.308 568.598 426.412M568.598 415.171C568.598 418.275 565.774 420.792 562.292 420.792M568.598 426.412L568.598 466.108M568.598 426.412C568.598 423.308 565.774 420.792 562.292 420.792M574.904 471.728L619.441 471.728M574.904 471.728C571.421 471.728 568.598 469.212 568.598 466.108M574.904 471.728C571.421 471.728 568.598 474.245 568.598 477.349M568.598 466.108C568.598 469.212 565.775 471.728 562.292 471.728M568.598 477.349L568.598 517.044M568.598 477.349C568.598 474.245 565.775 471.728 562.292 471.728M574.904 522.665L619.441 522.665M574.904 522.665C571.421 522.665 568.598 520.148 568.598 517.044M574.904 522.665C571.421 522.665 568.598 525.181 568.598 528.285M568.598 517.044C568.598 520.148 565.775 522.665 562.292 522.665M568.598 528.285L568.598 567.98M568.598 528.285C568.598 525.181 565.775 522.665 562.292 522.665M574.904 573.601L619.441 573.601M574.904 573.601C571.421 573.601 568.598 571.085 568.598 567.98M574.904 573.601C571.421 573.601 568.598 576.118 568.598 579.222M568.598 567.98C568.598 571.085 565.775 573.601 562.292 573.601M568.598 579.222L568.598 618.917M568.598 579.222C568.598 576.118 565.775 573.601 562.292 573.601M574.904 624.537L619.441 624.537M574.904 624.537C571.421 624.537 568.598 622.021 568.598 618.917M574.904 624.537C571.421 624.537 568.598 627.054 568.598 630.158M568.598 618.917C568.598 622.021 565.775 624.537 562.292 624.537M568.598 630.158L568.598 669.853M568.598 630.158C568.598 627.054 565.775 624.537 562.292 624.537M568.598 669.853C568.598 672.957 565.775 675.474 562.292 675.474L517.754 675.474C514.272 675.474 511.448 672.957 511.448 669.853M511.448 -541.379L511.448 -501.684M511.448 -541.379C511.448 -544.484 508.625 -547 505.142 -547L460.605 -547C457.122 -547 454.298 -544.484 454.298 -541.379M517.754 -496.064L562.292 -496.064M517.754 -496.064C514.272 -496.064 511.448 -498.58 511.448 -501.684M517.754 -496.064C514.272 -496.064 511.448 -493.547 511.448 -490.443M511.448 -501.684C511.448 -498.58 508.625 -496.064 505.142 -496.064M511.448 -490.443L511.448 -450.748M511.448 -490.443C511.448 -493.547 508.625 -496.064 505.142 -496.064M517.754 -445.127L562.292 -445.127M517.754 -445.127C514.272 -445.127 511.448 -447.644 511.448 -450.748M517.754 -445.127C514.272 -445.127 511.448 -442.611 511.448 -439.507M511.448 -450.748C511.448 -447.644 508.625 -445.127 505.142 -445.127M511.448 -439.507L511.448 -399.811M511.448 -439.507C511.448 -442.611 508.625 -445.127 505.142 -445.127M517.754 -394.191L562.292 -394.191M517.754 -394.191C514.272 -394.191 511.448 -396.707 511.448 -399.811M517.754 -394.191C514.272 -394.191 511.448 -391.674 511.448 -388.57M511.448 -399.811C511.448 -396.707 508.625 -394.191 505.142 -394.191M511.448 -388.57L511.448 -348.875M511.448 -388.57C511.448 -391.674 508.625 -394.191 505.142 -394.191M517.754 -343.254L562.292 -343.254M517.754 -343.254C514.272 -343.254 511.448 -345.771 511.448 -348.875M517.754 -343.254C514.272 -343.254 511.448 -340.738 511.448 -337.634M511.448 -348.875C511.448 -345.771 508.625 -343.254 505.142 -343.254M511.448 -337.634L511.448 -297.939M511.448 -337.634C511.448 -340.738 508.625 -343.254 505.142 -343.254M517.754 -292.318L562.292 -292.318M517.754 -292.318C514.272 -292.318 511.448 -294.834 511.448 -297.939M517.754 -292.318C514.272 -292.318 511.448 -289.802 511.448 -286.697M511.448 -297.939C511.448 -294.834 508.625 -292.318 505.142 -292.318M511.448 -286.697L511.448 -247.002M511.448 -286.697C511.448 -289.802 508.625 -292.318 505.142 -292.318M517.754 -241.382L562.292 -241.382M517.754 -241.382C514.272 -241.382 511.448 -243.898 511.448 -247.002M517.754 -241.382C514.272 -241.382 511.448 -238.865 511.448 -235.761M511.448 -247.002C511.448 -243.898 508.625 -241.382 505.142 -241.382M511.448 69.8575L511.448 109.553M511.448 69.8575C511.448 66.7533 514.272 64.2369 517.754 64.2369M511.448 69.8575C511.448 66.7533 508.625 64.2369 505.142 64.2369M517.754 64.2369L562.292 64.2369M517.754 64.2369C514.272 64.2369 511.448 61.7205 511.448 58.6164M517.754 115.173L562.292 115.173M517.754 115.173C514.272 115.173 511.448 112.657 511.448 109.553M517.754 115.173C514.272 115.173 511.448 117.69 511.448 120.794M511.448 109.553C511.448 112.657 508.625 115.173 505.142 115.173M511.448 120.794L511.448 160.489M511.448 120.794C511.448 117.69 508.625 115.173 505.142 115.173M517.754 166.11L562.292 166.11M517.754 166.11C514.272 166.11 511.448 163.593 511.448 160.489M517.754 166.11C514.272 166.11 511.448 168.626 511.448 171.73M511.448 160.489C511.448 163.593 508.625 166.11 505.142 166.11M511.448 171.73L511.448 211.426M511.448 171.73C511.448 168.626 508.625 166.11 505.142 166.11M517.754 217.046L562.292 217.046M517.754 217.046C514.272 217.046 511.448 214.53 511.448 211.426M517.754 217.046C514.272 217.046 511.448 219.563 511.448 222.667M511.448 211.426C511.448 214.53 508.625 217.046 505.142 217.046M511.448 222.667L511.448 262.362M511.448 222.667C511.448 219.563 508.625 217.046 505.142 217.046M517.754 267.983L562.292 267.983M517.754 267.983C514.272 267.983 511.448 265.466 511.448 262.362M517.754 267.983C514.272 267.983 511.448 270.499 511.448 273.603M511.448 262.362C511.448 265.466 508.625 267.983 505.142 267.983M511.448 273.603L511.448 313.298M511.448 273.603C511.448 270.499 508.625 267.983 505.142 267.983M517.754 318.919L562.292 318.919M517.754 318.919C514.272 318.919 511.448 316.403 511.448 313.298M517.754 318.919C514.272 318.919 511.448 321.435 511.448 324.54M511.448 313.298C511.448 316.403 508.625 318.919 505.142 318.919M511.448 324.54L511.448 364.235M511.448 324.54C511.448 321.435 508.625 318.919 505.142 318.919M517.754 369.855L562.292 369.855M517.754 369.855C514.272 369.855 511.448 367.339 511.448 364.235M517.754 369.855C514.272 369.855 511.448 372.372 511.448 375.476M511.448 364.235C511.448 367.339 508.625 369.855 505.142 369.855M511.448 -235.761L511.448 -196.066M511.448 -235.761C511.448 -238.865 508.625 -241.382 505.142 -241.382M517.754 -190.445L562.292 -190.445M517.754 -190.445C514.272 -190.445 511.448 -192.962 511.448 -196.066M517.754 -190.445C514.272 -190.445 511.448 -187.929 511.448 -184.825M511.448 -196.066C511.448 -192.962 508.625 -190.445 505.142 -190.445M511.448 -184.825L511.448 -145.129M511.448 -184.825C511.448 -187.929 508.625 -190.445 505.142 -190.445M517.754 -139.509L562.292 -139.509M517.754 -139.509C514.272 -139.509 511.448 -142.025 511.448 -145.129M517.754 -139.509C514.272 -139.509 511.448 -136.992 511.448 -133.888M511.448 -145.129C511.448 -142.025 508.625 -139.509 505.142 -139.509M511.448 -133.888L511.448 -94.1928M511.448 -133.888C511.448 -136.992 508.625 -139.509 505.142 -139.509M517.754 -88.5723L562.292 -88.5723M517.754 -88.5723C514.272 -88.5723 511.448 -91.0887 511.448 -94.1928M517.754 -88.5723C514.272 -88.5723 511.448 -86.0559 511.448 -82.9517M511.448 -94.1928C511.448 -91.0887 508.625 -88.5723 505.142 -88.5723M511.448 -82.9517L511.448 -43.2565M511.448 -82.9517C511.448 -86.0559 508.625 -88.5723 505.142 -88.5723M517.754 -37.6359L562.292 -37.6359M517.754 -37.6359C514.272 -37.6359 511.448 -40.1523 511.448 -43.2565M517.754 -37.6359C514.272 -37.6359 511.448 -35.1195 511.448 -32.0153M511.448 -43.2565C511.448 -40.1523 508.625 -37.6359 505.142 -37.6359M511.448 -32.0153L511.448 7.67992M511.448 -32.0153C511.448 -35.1195 508.625 -37.6359 505.142 -37.6359M517.754 13.3005L562.292 13.3005M517.754 13.3005C514.272 13.3005 511.448 10.7841 511.448 7.67992M517.754 13.3005C514.272 13.3005 511.448 15.817 511.448 18.9211M511.448 7.67992C511.448 10.7841 508.625 13.3005 505.142 13.3005M511.448 18.9211L511.448 58.6164M511.448 18.9211C511.448 15.817 508.625 13.3005 505.142 13.3005M511.448 58.6164C511.448 61.7205 508.625 64.2369 505.142 64.2369M511.448 375.476L511.448 415.171M511.448 375.476C511.448 372.372 508.625 369.855 505.142 369.855M517.754 420.792L562.292 420.792M517.754 420.792C514.272 420.792 511.448 418.275 511.448 415.171M517.754 420.792C514.272 420.792 511.448 423.308 511.448 426.412M511.448 415.171C511.448 418.275 508.625 420.792 505.142 420.792M511.448 426.412L511.448 466.108M511.448 426.412C511.448 423.308 508.625 420.792 505.142 420.792M517.754 471.728L562.292 471.728M517.754 471.728C514.272 471.728 511.448 469.212 511.448 466.108M517.754 471.728C514.272 471.728 511.448 474.245 511.448 477.349M511.448 466.108C511.448 469.212 508.625 471.728 505.142 471.728M511.448 477.349L511.448 517.044M511.448 477.349C511.448 474.245 508.625 471.728 505.142 471.728M517.754 522.665L562.292 522.665M517.754 522.665C514.272 522.665 511.448 520.148 511.448 517.044M517.754 522.665C514.272 522.665 511.448 525.181 511.448 528.285M511.448 517.044C511.448 520.148 508.625 522.665 505.142 522.665M511.448 528.285L511.448 567.98M511.448 528.285C511.448 525.181 508.625 522.665 505.142 522.665M517.754 573.601L562.292 573.601M517.754 573.601C514.272 573.601 511.448 571.085 511.448 567.98M517.754 573.601C514.272 573.601 511.448 576.118 511.448 579.222M511.448 567.98C511.448 571.085 508.625 573.601 505.142 573.601M511.448 579.222L511.448 618.917M511.448 579.222C511.448 576.118 508.625 573.601 505.142 573.601M517.754 624.537L562.292 624.537M517.754 624.537C514.272 624.537 511.448 622.021 511.448 618.917M517.754 624.537C514.272 624.537 511.448 627.054 511.448 630.158M511.448 618.917C511.448 622.021 508.625 624.537 505.142 624.537M511.448 630.158L511.448 669.853M511.448 630.158C511.448 627.054 508.625 624.537 505.142 624.537M511.448 669.853C511.448 672.957 508.625 675.474 505.142 675.474L460.605 675.474C457.122 675.474 454.298 672.957 454.298 669.853M454.298 -541.379L454.298 -501.684M454.298 -541.379C454.298 -544.484 451.475 -547 447.993 -547L403.455 -547C399.972 -547 397.149 -544.484 397.149 -541.379M460.605 -496.064L505.142 -496.064M460.605 -496.064C457.122 -496.064 454.298 -498.58 454.298 -501.684M460.605 -496.064C457.122 -496.064 454.298 -493.547 454.298 -490.443M454.298 -501.684C454.298 -498.58 451.475 -496.064 447.993 -496.064M454.298 -490.443L454.298 -450.748M454.298 -490.443C454.298 -493.547 451.475 -496.064 447.993 -496.064M460.605 -445.127L505.142 -445.127M460.605 -445.127C457.122 -445.127 454.298 -447.644 454.298 -450.748M460.605 -445.127C457.122 -445.127 454.298 -442.611 454.298 -439.507M454.298 -450.748C454.298 -447.644 451.475 -445.127 447.993 -445.127M454.298 -439.507L454.298 -399.811M454.298 -439.507C454.298 -442.611 451.475 -445.127 447.993 -445.127M460.605 -394.191L505.142 -394.191M460.605 -394.191C457.122 -394.191 454.298 -396.707 454.298 -399.811M460.605 -394.191C457.122 -394.191 454.298 -391.674 454.298 -388.57M454.298 -399.811C454.298 -396.707 451.475 -394.191 447.993 -394.191M454.298 -388.57L454.298 -348.875M454.298 -388.57C454.298 -391.674 451.475 -394.191 447.993 -394.191M460.605 -343.254L505.142 -343.254M460.605 -343.254C457.122 -343.254 454.298 -345.771 454.298 -348.875M460.605 -343.254C457.122 -343.254 454.298 -340.738 454.298 -337.634M454.298 -348.875C454.298 -345.771 451.475 -343.254 447.993 -343.254M454.298 -337.634L454.298 -297.939M454.298 -337.634C454.298 -340.738 451.475 -343.254 447.993 -343.254M460.605 -292.318L505.142 -292.318M460.605 -292.318C457.122 -292.318 454.298 -294.834 454.298 -297.939M460.605 -292.318C457.122 -292.318 454.298 -289.802 454.298 -286.697M454.298 -297.939C454.298 -294.834 451.475 -292.318 447.993 -292.318M454.298 -286.697L454.298 -247.002M454.298 -286.697C454.298 -289.802 451.475 -292.318 447.993 -292.318M460.605 -241.382L505.142 -241.382M460.605 -241.382C457.122 -241.382 454.298 -243.898 454.298 -247.002M460.605 -241.382C457.122 -241.382 454.298 -238.865 454.298 -235.761M454.298 -247.002C454.298 -243.898 451.475 -241.382 447.993 -241.382M454.298 69.8575L454.298 109.553M454.298 69.8575C454.298 66.7533 457.122 64.2369 460.605 64.2369M454.298 69.8575C454.298 66.7533 451.475 64.2369 447.993 64.2369M460.605 64.2369L505.142 64.2369M460.605 64.2369C457.122 64.2369 454.298 61.7205 454.298 58.6164M460.605 115.173L505.142 115.173M460.605 115.173C457.122 115.173 454.298 112.657 454.298 109.553M460.605 115.173C457.122 115.173 454.298 117.69 454.298 120.794M454.298 109.553C454.298 112.657 451.475 115.173 447.993 115.173M454.298 120.794L454.298 160.489M454.298 120.794C454.298 117.69 451.475 115.173 447.993 115.173M460.605 166.11L505.142 166.11M460.605 166.11C457.122 166.11 454.298 163.593 454.298 160.489M460.605 166.11C457.122 166.11 454.298 168.626 454.298 171.73M454.298 160.489C454.298 163.593 451.475 166.11 447.993 166.11M454.298 171.73L454.298 211.426M454.298 171.73C454.298 168.626 451.475 166.11 447.993 166.11M460.605 217.046L505.142 217.046M460.605 217.046C457.122 217.046 454.298 214.53 454.298 211.426M460.605 217.046C457.122 217.046 454.298 219.563 454.298 222.667M454.298 211.426C454.298 214.53 451.475 217.046 447.993 217.046M454.298 222.667L454.298 262.362M454.298 222.667C454.298 219.563 451.475 217.046 447.993 217.046M460.605 267.983L505.142 267.983M460.605 267.983C457.122 267.983 454.298 265.466 454.298 262.362M460.605 267.983C457.122 267.983 454.298 270.499 454.298 273.603M454.298 262.362C454.298 265.466 451.475 267.983 447.992 267.983M454.298 273.603L454.298 313.298M454.298 273.603C454.298 270.499 451.475 267.983 447.992 267.983M460.605 318.919L505.142 318.919M460.605 318.919C457.122 318.919 454.298 316.403 454.298 313.298M460.605 318.919C457.122 318.919 454.298 321.435 454.298 324.54M454.298 313.298C454.298 316.403 451.475 318.919 447.992 318.919M454.298 324.54L454.298 364.235M454.298 324.54C454.298 321.435 451.475 318.919 447.992 318.919M460.605 369.855L505.142 369.855M460.605 369.855C457.122 369.855 454.298 367.339 454.298 364.235M460.605 369.855C457.122 369.855 454.298 372.372 454.298 375.476M454.298 364.235C454.298 367.339 451.475 369.855 447.992 369.855M454.298 -235.761L454.298 -196.066M454.298 -235.761C454.298 -238.865 451.475 -241.382 447.993 -241.382M460.605 -190.445L505.142 -190.445M460.605 -190.445C457.122 -190.445 454.298 -192.962 454.298 -196.066M460.605 -190.445C457.122 -190.445 454.298 -187.929 454.298 -184.825M454.298 -196.066C454.298 -192.962 451.475 -190.445 447.993 -190.445M454.298 -184.825L454.298 -145.129M454.298 -184.825C454.298 -187.929 451.475 -190.445 447.993 -190.445M460.605 -139.509L505.142 -139.509M460.605 -139.509C457.122 -139.509 454.298 -142.025 454.298 -145.129M460.605 -139.509C457.122 -139.509 454.298 -136.992 454.298 -133.888M454.298 -145.129C454.298 -142.025 451.475 -139.509 447.993 -139.509M454.298 -133.888L454.298 -94.1929M454.298 -133.888C454.298 -136.992 451.475 -139.509 447.993 -139.509M460.605 -88.5723L505.142 -88.5723M460.605 -88.5723C457.122 -88.5723 454.298 -91.0887 454.298 -94.1929M460.605 -88.5723C457.122 -88.5723 454.298 -86.0559 454.298 -82.9517M454.298 -94.1929C454.298 -91.0887 451.475 -88.5723 447.993 -88.5723M454.298 -82.9517L454.298 -43.2565M454.298 -82.9517C454.298 -86.0559 451.475 -88.5723 447.993 -88.5723M460.605 -37.6359L505.142 -37.6359M460.605 -37.6359C457.122 -37.6359 454.298 -40.1523 454.298 -43.2565M460.605 -37.6359C457.122 -37.6359 454.298 -35.1195 454.298 -32.0153M454.298 -43.2565C454.298 -40.1523 451.475 -37.6359 447.993 -37.6359M454.298 -32.0153L454.298 7.67992M454.298 -32.0153C454.298 -35.1195 451.475 -37.6359 447.993 -37.6359M460.605 13.3005L505.142 13.3005M460.605 13.3005C457.122 13.3005 454.298 10.7841 454.298 7.67992M460.605 13.3005C457.122 13.3005 454.298 15.817 454.298 18.9211M454.298 7.67992C454.298 10.7841 451.475 13.3005 447.993 13.3005M454.298 18.9211L454.298 58.6164M454.298 18.9211C454.298 15.817 451.475 13.3005 447.993 13.3005M454.298 58.6164C454.298 61.7205 451.475 64.2369 447.993 64.2369M454.298 375.476L454.298 415.171M454.298 375.476C454.298 372.372 451.475 369.855 447.992 369.855M460.605 420.792L505.142 420.792M460.605 420.792C457.122 420.792 454.298 418.275 454.298 415.171M460.605 420.792C457.122 420.792 454.298 423.308 454.298 426.412M454.298 415.171C454.298 418.275 451.475 420.792 447.992 420.792M454.298 426.412L454.298 466.108M454.298 426.412C454.298 423.308 451.475 420.792 447.992 420.792M460.605 471.728L505.142 471.728M460.605 471.728C457.122 471.728 454.298 469.212 454.298 466.108M460.605 471.728C457.122 471.728 454.298 474.245 454.298 477.349M454.298 466.108C454.298 469.212 451.475 471.728 447.992 471.728M454.298 477.349L454.298 517.044M454.298 477.349C454.298 474.245 451.475 471.728 447.992 471.728M460.605 522.665L505.142 522.665M460.605 522.665C457.122 522.665 454.298 520.148 454.298 517.044M460.605 522.665C457.122 522.665 454.298 525.181 454.298 528.285M454.298 517.044C454.298 520.148 451.475 522.665 447.992 522.665M454.298 528.285L454.298 567.98M454.298 528.285C454.298 525.181 451.475 522.665 447.992 522.665M460.605 573.601L505.142 573.601M460.605 573.601C457.122 573.601 454.298 571.085 454.298 567.98M460.605 573.601C457.122 573.601 454.298 576.118 454.298 579.222M454.298 567.98C454.298 571.085 451.475 573.601 447.992 573.601M454.298 579.222L454.298 618.917M454.298 579.222C454.298 576.118 451.475 573.601 447.992 573.601M460.605 624.537L505.142 624.537M460.605 624.537C457.122 624.537 454.298 622.021 454.298 618.917M460.605 624.537C457.122 624.537 454.298 627.054 454.298 630.158M454.298 618.917C454.298 622.021 451.475 624.537 447.992 624.537M454.298 630.158L454.298 669.853M454.298 630.158C454.298 627.054 451.475 624.537 447.992 624.537M454.298 669.853C454.298 672.957 451.475 675.474 447.992 675.474L403.455 675.474C399.972 675.474 397.149 672.957 397.149 669.853M397.149 -541.379L397.149 -501.684M397.149 -541.379C397.149 -544.484 394.326 -547 390.843 -547L346.305 -547C342.823 -547 339.999 -544.484 339.999 -541.379L339.999 -501.684C339.999 -498.58 342.823 -496.064 346.305 -496.064M403.455 -496.064L447.993 -496.064M403.455 -496.064C399.972 -496.064 397.149 -498.58 397.149 -501.684M403.455 -496.064C399.972 -496.064 397.149 -493.547 397.149 -490.443M397.149 -501.684C397.149 -498.58 394.326 -496.064 390.843 -496.064M397.149 -490.443L397.149 -450.748M397.149 -490.443C397.149 -493.547 394.326 -496.064 390.843 -496.064M403.455 -445.127L447.993 -445.127M403.455 -445.127C399.972 -445.127 397.149 -447.644 397.149 -450.748M403.455 -445.127C399.972 -445.127 397.149 -442.611 397.149 -439.507M397.149 -450.748C397.149 -447.644 394.325 -445.127 390.843 -445.127M397.149 -439.507L397.149 -399.811M397.149 -439.507C397.149 -442.611 394.325 -445.127 390.843 -445.127M403.455 -394.191L447.993 -394.191M403.455 -394.191C399.972 -394.191 397.149 -396.707 397.149 -399.811M403.455 -394.191C399.972 -394.191 397.149 -391.674 397.149 -388.57M397.149 -399.811C397.149 -396.707 394.325 -394.191 390.843 -394.191M397.149 -388.57L397.149 -348.875M397.149 -388.57C397.149 -391.674 394.325 -394.191 390.843 -394.191M403.455 -343.254L447.993 -343.254M403.455 -343.254C399.972 -343.254 397.149 -345.771 397.149 -348.875M403.455 -343.254C399.972 -343.254 397.149 -340.738 397.149 -337.634M397.149 -348.875C397.149 -345.771 394.325 -343.254 390.843 -343.254M397.149 -337.634L397.149 -297.939M397.149 -337.634C397.149 -340.738 394.325 -343.254 390.843 -343.254M403.455 -292.318L447.993 -292.318M403.455 -292.318C399.972 -292.318 397.149 -294.834 397.149 -297.939M403.455 -292.318C399.972 -292.318 397.149 -289.802 397.149 -286.697M397.149 -297.939C397.149 -294.834 394.325 -292.318 390.843 -292.318M397.149 -286.697L397.149 -247.002M397.149 -286.697C397.149 -289.802 394.325 -292.318 390.843 -292.318M403.455 -241.382L447.993 -241.382M403.455 -241.382C399.972 -241.382 397.149 -243.898 397.149 -247.002M403.455 -241.382C399.972 -241.382 397.149 -238.865 397.149 -235.761M397.149 -247.002C397.149 -243.898 394.325 -241.382 390.843 -241.382M397.149 69.8575L397.149 109.553M397.149 69.8575C397.149 66.7533 399.972 64.2369 403.455 64.2369M397.149 69.8575C397.149 66.7533 394.326 64.2369 390.843 64.2369M403.455 64.2369L447.993 64.2369M403.455 64.2369C399.972 64.2369 397.149 61.7205 397.149 58.6164M403.455 115.173L447.993 115.173M403.455 115.173C399.972 115.173 397.149 112.657 397.149 109.553M403.455 115.173C399.972 115.173 397.149 117.69 397.149 120.794M397.149 109.553C397.149 112.657 394.326 115.173 390.843 115.173M397.149 120.794L397.149 160.489M397.149 120.794C397.149 117.69 394.326 115.173 390.843 115.173M403.455 166.11L447.993 166.11M403.455 166.11C399.972 166.11 397.149 163.593 397.149 160.489M403.455 166.11C399.972 166.11 397.149 168.626 397.149 171.73M397.149 160.489C397.149 163.593 394.325 166.11 390.843 166.11M397.149 171.73L397.149 211.426M397.149 171.73C397.149 168.626 394.325 166.11 390.843 166.11M403.455 217.046L447.993 217.046M403.455 217.046C399.972 217.046 397.149 214.53 397.149 211.426M403.455 217.046C399.972 217.046 397.149 219.563 397.149 222.667M397.149 211.426C397.149 214.53 394.325 217.046 390.843 217.046M397.149 222.667L397.149 262.362M397.149 222.667C397.149 219.563 394.325 217.046 390.843 217.046M403.455 267.983L447.992 267.983M403.455 267.983C399.972 267.983 397.149 265.466 397.149 262.362M403.455 267.983C399.972 267.983 397.149 270.499 397.149 273.603M397.149 262.362C397.149 265.466 394.325 267.983 390.843 267.983M397.149 273.603L397.149 313.298M397.149 273.603C397.149 270.499 394.325 267.983 390.843 267.983M403.455 318.919L447.992 318.919M403.455 318.919C399.972 318.919 397.149 316.403 397.149 313.298M403.455 318.919C399.972 318.919 397.149 321.435 397.149 324.54M397.149 313.298C397.149 316.403 394.325 318.919 390.843 318.919M397.149 324.54L397.149 364.235M397.149 324.54C397.149 321.435 394.325 318.919 390.843 318.919M403.455 369.855L447.992 369.855M403.455 369.855C399.972 369.855 397.149 367.339 397.149 364.235M403.455 369.855C399.972 369.855 397.149 372.372 397.149 375.476M397.149 364.235C397.149 367.339 394.325 369.855 390.843 369.855M397.149 -235.761L397.149 -196.066M397.149 -235.761C397.149 -238.865 394.325 -241.382 390.843 -241.382M403.455 -190.445L447.993 -190.445M403.455 -190.445C399.972 -190.445 397.149 -192.962 397.149 -196.066M403.455 -190.445C399.972 -190.445 397.149 -187.929 397.149 -184.825M397.149 -196.066C397.149 -192.962 394.326 -190.445 390.843 -190.445M397.149 -184.825L397.149 -145.129M397.149 -184.825C397.149 -187.929 394.326 -190.445 390.843 -190.445M403.455 -139.509L447.993 -139.509M403.455 -139.509C399.972 -139.509 397.149 -142.025 397.149 -145.129M403.455 -139.509C399.972 -139.509 397.149 -136.992 397.149 -133.888M397.149 -145.129C397.149 -142.025 394.325 -139.509 390.843 -139.509M397.149 -133.888L397.149 -94.1929M397.149 -133.888C397.149 -136.992 394.325 -139.509 390.843 -139.509M403.455 -88.5723L447.993 -88.5723M403.455 -88.5723C399.972 -88.5723 397.149 -91.0887 397.149 -94.1929M403.455 -88.5723C399.972 -88.5723 397.149 -86.0559 397.149 -82.9517M397.149 -94.1929C397.149 -91.0887 394.325 -88.5723 390.843 -88.5723M397.149 -82.9517L397.149 -43.2565M397.149 -82.9517C397.149 -86.0559 394.325 -88.5723 390.843 -88.5723M403.455 -37.6359L447.993 -37.6359M403.455 -37.6359C399.972 -37.6359 397.149 -40.1523 397.149 -43.2565M403.455 -37.6359C399.972 -37.6359 397.149 -35.1195 397.149 -32.0153M397.149 -43.2565C397.149 -40.1523 394.325 -37.6359 390.843 -37.6359M397.149 -32.0153L397.149 7.67992M397.149 -32.0153C397.149 -35.1195 394.325 -37.6359 390.843 -37.6359M403.455 13.3005L447.993 13.3005M403.455 13.3005C399.972 13.3005 397.149 10.7841 397.149 7.67992M403.455 13.3005C399.972 13.3005 397.149 15.817 397.149 18.9211M397.149 7.67992C397.149 10.7841 394.325 13.3005 390.843 13.3005M397.149 18.9211L397.149 58.6164M397.149 18.9211C397.149 15.817 394.325 13.3005 390.843 13.3005M397.149 58.6164C397.149 61.7205 394.326 64.2369 390.843 64.2369M397.149 375.476L397.149 415.171M397.149 375.476C397.149 372.372 394.325 369.855 390.843 369.855M403.455 420.792L447.992 420.792M403.455 420.792C399.972 420.792 397.149 418.275 397.149 415.171M403.455 420.792C399.972 420.792 397.149 423.308 397.149 426.412M397.149 415.171C397.149 418.275 394.325 420.792 390.843 420.792M397.149 426.412L397.149 466.108M397.149 426.412C397.149 423.308 394.325 420.792 390.843 420.792M403.455 471.728L447.992 471.728M403.455 471.728C399.972 471.728 397.149 469.212 397.149 466.108M403.455 471.728C399.972 471.728 397.149 474.245 397.149 477.349M397.149 466.108C397.149 469.212 394.325 471.728 390.843 471.728M397.149 477.349L397.149 517.044M397.149 477.349C397.149 474.245 394.325 471.728 390.843 471.728M403.455 522.665L447.992 522.665M403.455 522.665C399.972 522.665 397.149 520.148 397.149 517.044M403.455 522.665C399.972 522.665 397.149 525.181 397.149 528.285M397.149 517.044C397.149 520.148 394.325 522.665 390.843 522.665M397.149 528.285L397.149 567.98M397.149 528.285C397.149 525.181 394.325 522.665 390.843 522.665M403.455 573.601L447.992 573.601M403.455 573.601C399.972 573.601 397.149 571.085 397.149 567.98M403.455 573.601C399.972 573.601 397.149 576.118 397.149 579.222M397.149 567.98C397.149 571.085 394.325 573.601 390.843 573.601M397.149 579.222L397.149 618.917M397.149 579.222C397.149 576.118 394.325 573.601 390.843 573.601M403.455 624.537L447.992 624.537M403.455 624.537C399.972 624.537 397.149 622.021 397.149 618.917M403.455 624.537C399.972 624.537 397.149 627.054 397.149 630.158M397.149 618.917C397.149 622.021 394.325 624.537 390.843 624.537M397.149 630.158L397.149 669.853M397.149 630.158C397.149 627.054 394.325 624.537 390.843 624.537M397.149 669.853C397.149 672.957 394.325 675.474 390.843 675.474L346.305 675.474C342.823 675.474 339.999 672.957 339.999 669.853L339.999 630.158C339.999 627.054 342.823 624.537 346.305 624.537M346.305 -496.064L390.843 -496.064M346.305 -496.064C342.823 -496.064 339.999 -493.547 339.999 -490.443L339.999 -450.748C339.999 -447.644 342.823 -445.127 346.305 -445.127M346.305 -445.127L390.843 -445.127M346.305 -445.127C342.823 -445.127 339.999 -442.611 339.999 -439.507L339.999 -399.811C339.999 -396.707 342.823 -394.191 346.305 -394.191M346.305 -394.191L390.843 -394.191M346.305 -394.191C342.823 -394.191 339.999 -391.674 339.999 -388.57L339.999 -348.875C339.999 -345.771 342.823 -343.254 346.305 -343.254M346.305 -343.254L390.843 -343.254M346.305 -343.254C342.823 -343.254 339.999 -340.738 339.999 -337.634L339.999 -297.939C339.999 -294.834 342.823 -292.318 346.305 -292.318M346.305 -292.318L390.843 -292.318M346.305 -292.318C342.823 -292.318 339.999 -289.802 339.999 -286.697L339.999 -247.002C339.999 -243.898 342.823 -241.382 346.305 -241.382M346.305 -241.382L390.843 -241.382M346.305 -241.382C342.823 -241.382 339.999 -238.865 339.999 -235.761L339.999 -196.066C339.999 -192.962 342.823 -190.445 346.305 -190.445M346.305 64.2369L390.843 64.2369M346.305 64.2369C342.823 64.2369 339.999 66.7533 339.999 69.8575L339.999 109.553C339.999 112.657 342.823 115.173 346.305 115.173M346.305 64.2369C342.823 64.2369 339.999 61.7205 339.999 58.6164L339.999 18.9211C339.999 15.817 342.823 13.3005 346.305 13.3005M346.305 115.173L390.843 115.173M346.305 115.173C342.823 115.173 339.999 117.69 339.999 120.794L339.999 160.489C339.999 163.593 342.823 166.11 346.305 166.11M346.305 166.11L390.843 166.11M346.305 166.11C342.823 166.11 339.999 168.626 339.999 171.73L339.999 211.426C339.999 214.53 342.823 217.046 346.305 217.046M346.305 217.046L390.843 217.046M346.305 217.046C342.823 217.046 339.999 219.563 339.999 222.667L339.999 262.362C339.999 265.466 342.823 267.983 346.305 267.983M346.305 267.983L390.843 267.983M346.305 267.983C342.823 267.983 339.999 270.499 339.999 273.603L339.999 313.298C339.999 316.403 342.823 318.919 346.305 318.919M346.305 318.919L390.843 318.919M346.305 318.919C342.823 318.919 339.999 321.435 339.999 324.54L339.999 364.235C339.999 367.339 342.823 369.855 346.305 369.855M346.305 369.855L390.843 369.855M346.305 369.855C342.823 369.855 339.999 372.372 339.999 375.476L339.999 415.171C339.999 418.275 342.823 420.792 346.305 420.792M346.305 -190.445L390.843 -190.445M346.305 -190.445C342.823 -190.445 339.999 -187.929 339.999 -184.825L339.999 -145.129C339.999 -142.025 342.823 -139.509 346.305 -139.509M346.305 -139.509L390.843 -139.509M346.305 -139.509C342.823 -139.509 339.999 -136.992 339.999 -133.888L339.999 -94.1929C339.999 -91.0887 342.823 -88.5723 346.305 -88.5723M346.305 -88.5723L390.843 -88.5723M346.305 -88.5723C342.823 -88.5723 339.999 -86.0559 339.999 -82.9517L339.999 -43.2565C339.999 -40.1523 342.823 -37.6359 346.305 -37.6359M346.305 -37.6359L390.843 -37.6359M346.305 -37.6359C342.823 -37.6359 339.999 -35.1195 339.999 -32.0153L339.999 7.67992C339.999 10.7841 342.823 13.3005 346.305 13.3005M346.305 13.3005L390.843 13.3005M346.305 420.792L390.843 420.792M346.305 420.792C342.823 420.792 339.999 423.308 339.999 426.412L339.999 466.108C339.999 469.212 342.823 471.728 346.305 471.728M346.305 471.728L390.843 471.728M346.305 471.728C342.823 471.728 339.999 474.245 339.999 477.349L339.999 517.044C339.999 520.148 342.823 522.665 346.305 522.665M346.305 522.665L390.843 522.665M346.305 522.665C342.823 522.665 339.999 525.181 339.999 528.285L339.999 567.98C339.999 571.085 342.823 573.601 346.305 573.601M346.305 573.601L390.843 573.601M346.305 573.601C342.823 573.601 339.999 576.118 339.999 579.222L339.999 618.917C339.999 622.021 342.823 624.537 346.305 624.537M346.305 624.537L390.843 624.537" stroke="url(#paint1_linear_2148_322674)" stroke-opacity="0.8" stroke-width="0.210789"/>
</g>
<defs>
<linearGradient id="paint0_linear_2148_322674" x1="549.62" y1="40" x2="549.62" y2="219.852" gradientUnits="userSpaceOnUse">
<stop stop-color="white" stop-opacity="0"/>
<stop offset="0.509615" stop-color="white" stop-opacity="0.201923"/>
<stop offset="1" stop-color="white" stop-opacity="0.3"/>
</linearGradient>
<linearGradient id="paint1_linear_2148_322674" x1="692.283" y1="200.196" x2="337.604" y2="-4.79743" gradientUnits="userSpaceOnUse">
<stop stop-color="white"/>
<stop offset="0.245555" stop-color="white" stop-opacity="0.15"/>
<stop offset="0.480555" stop-color="white"/>
<stop offset="0.680555" stop-color="white" stop-opacity="0.15"/>
<stop offset="1" stop-color="white"/>
</linearGradient>
<clipPath id="clip0_2148_322674">
<rect width="1080" height="130" rx="12" fill="white"/>
</clipPath>
</defs>
</svg>
