<svg width="80" height="80" viewBox="0 0 80 80" fill="none" xmlns="http://www.w3.org/2000/svg">
<path d="M76.7302 37.8755C76.0155 43.8441 70.0619 47.4253 69.1415 47.9795C68.5772 48.3181 68.2186 48.4786 67.4362 49.0027C66.6587 49.5219 64.1133 51.3024 61.939 54.3745C59.5616 57.7325 60.4844 58.5927 58.0594 62.8986C56.6299 65.4391 55.6218 67.2297 53.6682 68.7394C48.9309 72.4059 42.6888 71.2648 41.776 71.0842C38.2199 70.3795 34.7716 68.3682 32.6324 66.5325C32.4845 66.4071 32.3415 66.2817 32.2086 66.1563C31.6769 65.6648 31.2506 65.1958 30.9471 64.7745C30.754 64.5062 30.1421 63.6008 28.986 62.9438C27.7647 62.2466 26.5735 62.1939 26.0443 62.1764C20.1584 61.9757 14.5208 62.8686 10.6563 61.4516C8.91331 60.8121 7.39355 59.6535 6.1622 58.214C6.08446 58.1237 6.00921 58.0309 5.93398 57.9407C4.73272 56.456 3.83242 54.7005 3.30577 52.92C3.25311 52.7419 3.20296 52.5613 3.15782 52.3808C3.06503 52.0121 2.98727 51.6435 2.92708 51.2773C2.22238 46.9664 3.77976 42.4222 6.45061 39.6836C7.3133 38.7983 7.98791 38.4121 8.61738 37.9431C8.7202 37.8654 8.82302 37.7877 8.92333 37.7049C9.31205 37.3814 9.68572 36.9902 10.0895 36.3858C12.0682 33.3964 11.2907 30.2391 11.3409 27.9745C11.3459 27.6685 11.3685 27.3601 11.4086 27.0566C11.4337 26.836 11.4688 26.6127 11.5114 26.3921C12.65 20.3883 19.2832 14.8886 24.8556 12.599C30.4882 10.2867 36.0958 10.8159 40.7829 12.3858C40.9108 12.4284 41.0362 12.4711 41.1616 12.5162C46.6713 14.4447 50.8443 17.7676 52.1785 19.4629C52.2964 19.6134 52.6274 20.0497 53.1591 20.5714C55.9051 23.2648 59.2782 23.5707 62.0669 24.1099C64.808 24.6391 67.6393 25.1858 70.0845 26.3218C70.1622 26.3595 70.2424 26.3946 70.3177 26.4322C71.5967 27.0491 72.7628 27.8391 73.7459 28.8848C74.9998 30.2165 75.9277 31.9269 76.4117 33.7551C76.4569 33.9206 76.497 34.0861 76.5346 34.2541C76.7979 35.4504 76.8732 36.6817 76.7302 37.8804V37.8755Z" fill="#F9EFE6" fill-opacity="0.7"/>
<path d="M41.1592 12.5138C38.8821 13.2511 36.6175 14.0285 34.373 14.8636C31.7122 15.8542 29.0664 16.8925 26.4758 18.0561C23.9981 19.1671 21.5655 20.3683 19.2081 21.7175C16.8683 23.0592 14.6012 24.5363 12.4721 26.194C12.111 26.4749 11.7573 26.7608 11.4062 27.0517C11.4313 26.831 11.4664 26.6078 11.509 26.3871C11.9855 26.0059 12.467 25.6323 12.9561 25.2661C15.1454 23.631 17.4552 22.1689 19.8426 20.8423C22.2251 19.5207 24.6852 18.337 27.1906 17.2611C29.8589 16.115 32.5724 15.0718 35.3185 14.1288C37.1266 13.5069 38.9448 12.915 40.7805 12.3809C40.9084 12.4235 41.0338 12.4661 41.1592 12.5113V12.5138Z" fill="white"/>
<path d="M8.93931 39.5658C8.82896 41.1132 8.4578 42.6279 7.93868 44.0874C7.40702 45.5821 6.73242 47.0216 6.00766 48.4335C5.36315 49.6925 4.71361 50.969 3.90358 52.1326C3.71298 52.4009 3.51486 52.6668 3.3042 52.9201C3.25154 52.742 3.20139 52.5614 3.15625 52.3809C3.397 52.0749 3.62019 51.7514 3.83335 51.4229C4.18947 50.8661 4.51548 50.2918 4.83147 49.71C5.1951 49.0404 5.55373 48.3683 5.8973 47.6887C6.59448 46.3144 7.23649 44.91 7.72552 43.4505C8.20452 42.0185 8.54308 40.5288 8.60829 39.0166C8.62333 38.6605 8.62836 38.3019 8.61582 37.9458C8.71864 37.868 8.82145 37.7903 8.92177 37.7075C8.97694 38.327 8.98194 38.9514 8.93931 39.5709V39.5658Z" fill="white"/>
<path d="M76.5356 34.2491C73.4159 34.5224 70.3087 34.9086 67.2165 35.4077C67.0008 35.4428 66.7877 35.4779 66.577 35.513C66.3914 35.5431 66.2059 35.5732 66.0178 35.6058C60.5983 36.5287 55.2341 37.7651 49.9475 39.2773C44.2472 40.9049 38.6422 42.866 33.1375 45.0729C27.5852 47.2973 22.1431 49.7876 16.809 52.4911C14.1707 53.8252 11.5651 55.2196 8.977 56.6466C8.03656 57.1657 7.09864 57.6848 6.16572 58.2089C6.08798 58.1187 6.01274 58.0259 5.9375 57.9356C10.1105 55.508 14.3714 53.2334 18.6924 51.0917C24.0366 48.4434 29.4886 46.0108 35.046 43.8415C40.6159 41.6697 46.2986 39.7763 52.0642 38.2014C56.7789 36.9124 61.5563 35.8466 66.3764 35.039C66.5569 35.0114 66.735 34.9788 66.9156 34.9513C67.7607 34.8133 68.6058 34.6854 69.451 34.5625C71.7632 34.2315 74.0855 33.9582 76.4153 33.75C76.4604 33.9155 76.5005 34.081 76.5381 34.2491H76.5356Z" fill="white"/>
<path d="M70.3161 26.4298C70.2233 26.7609 70.1255 27.0869 70.0252 27.4154C69.6616 28.579 69.2403 29.7276 68.8039 30.8687C68.3826 31.9646 67.9237 33.0505 67.387 34.0963C67.2365 34.3872 67.0785 34.6731 66.913 34.9565C66.8026 35.1446 66.6898 35.3327 66.5744 35.5157C65.6641 36.9703 64.5882 38.3195 63.5349 39.6712C60.9945 42.9239 58.291 46.0537 55.4246 49.0229C52.5631 51.9872 49.5387 54.7985 46.3412 57.3991C43.1537 59.9897 39.8008 62.3747 36.2772 64.4863C35.081 65.2035 33.8672 65.8856 32.6309 66.5302C32.4829 66.4048 32.3399 66.2794 32.207 66.154C33.9199 65.2662 35.5976 64.3082 37.2403 63.2925C40.7061 61.1458 44.0064 58.7283 47.1287 56.1076C50.271 53.4718 53.2403 50.6355 56.0491 47.6512C58.8603 44.6618 61.5111 41.5345 64.034 38.2969C64.7186 37.4192 65.4033 36.5364 66.0152 35.606C66.0252 35.591 66.0353 35.5784 66.0428 35.5608C66.1556 35.3878 66.266 35.2148 66.3713 35.0392C66.8804 34.2016 67.3243 33.3289 67.723 32.4336C68.6158 30.4348 69.303 28.3583 70.0804 26.3145C70.1581 26.3521 70.2384 26.3872 70.3136 26.4248L70.3161 26.4298Z" fill="white"/>
<path d="M16.9883 32.3057V57.3539C17.0109 57.5746 17.1287 58.5452 17.8309 59.2148C18.2347 59.5985 18.6535 59.7189 18.8767 59.759H59.2955C59.4786 59.7389 60.103 59.6386 60.6221 59.0066C61.2717 58.2142 61.2441 57.201 61.2365 57.0329C61.1638 55.3201 61.2566 45.7552 61.2365 32.6267" fill="white"/>
<path d="M15.2691 26.9413C17.5337 22.6855 19.2917 19.5858 19.9212 18.5801C20.0867 18.3143 20.4453 17.7526 21.1224 17.4265C21.6315 17.1808 22.1005 17.1557 22.3538 17.1607H55.4096C55.6278 17.1607 56.36 17.1356 57.0622 17.567C57.5839 17.8855 57.8898 18.3344 58.0604 18.6428C59.703 21.4341 61.3456 24.2278 62.9908 27.019V33.7827C62.9005 36.0999 61.0949 37.9707 58.8955 38.1337C56.8892 38.2842 54.9707 36.9827 54.3312 34.9739C53.6666 36.9325 51.8134 38.2566 49.7444 38.2491C47.6779 38.2416 45.8347 36.9099 45.1801 34.9488C44.9143 35.4253 44.4027 36.2002 43.4948 36.8196C42.2008 37.7074 40.8867 37.7501 40.0089 37.7802C38.9832 37.8153 37.4886 37.8629 36.0065 36.9149C34.1732 35.7388 33.619 33.8378 33.4786 33.2886C33.4409 33.7475 33.2604 35.1845 32.0993 36.3532C30.8253 37.6347 28.8064 38.1513 26.9983 37.4767C24.6535 36.604 24.0315 34.2441 23.9789 34.0359C23.5751 36.1801 21.7344 37.7325 19.6729 37.7576C17.3933 37.7852 15.3695 35.9419 15.1914 33.5193C15.214 31.325 15.2391 29.1331 15.2616 26.9388L15.2691 26.9413Z" fill="white"/>
<path d="M20.2631 18.5252C20.401 18.3497 20.6994 18.0186 21.1985 17.8005C21.7603 17.5547 22.2643 17.5848 22.485 17.6124C23.4355 17.6274 24.3885 17.6425 25.3389 17.66C25.4292 17.66 25.8029 17.6801 26.0462 17.961C26.3396 18.2995 26.332 18.8864 25.9709 19.3453C25.1208 21.9108 24.2706 24.4788 23.4204 27.0443C23.1897 27.5233 23.2323 28.0299 23.5132 28.3083C23.5759 28.3685 23.7063 28.4738 23.9346 28.519C23.9421 30.3998 23.9496 32.2782 23.9571 34.1591C23.8794 34.598 23.6361 35.6211 22.7634 36.4763C21.1358 38.0688 18.8537 37.5672 18.6907 37.5296C16.9427 37.1158 15.5709 35.6287 15.1797 33.7378C15.2073 31.4732 15.2349 29.2086 15.2625 26.944C16.9277 24.1378 18.5929 21.334 20.2581 18.5277L20.2631 18.5252Z" fill="#F4CF70"/>
<path d="M35.1438 18.4724C35.2666 18.4373 35.4447 18.3645 35.5425 18.1965C35.6529 18.0109 35.5726 17.8554 35.6604 17.7275C35.8259 17.4868 36.4002 17.6122 36.503 17.6347C37.8848 17.9257 40.488 17.7602 41.3005 17.6824C41.945 17.6197 42.414 17.5219 42.8203 17.8228C43.2717 18.1564 43.3519 18.7533 43.382 18.9689C43.5601 20.2103 44.1996 23.1094 45.1149 27.1119C45.1952 27.779 45.2579 28.4736 45.303 29.1934C45.4284 31.2523 45.3632 33.1457 45.1977 34.8385C43.4071 37.0103 40.9344 38.1815 38.7977 37.71C37.6717 37.4617 36.7388 36.7796 36.5758 36.6567C36.1319 36.3257 34.9105 35.3903 34.4942 33.8028C34.3538 33.2636 34.3538 32.8398 34.3538 32.5865C34.3538 30.8009 34.2084 29.0153 34.1958 27.2297C34.1783 24.5589 34.6221 21.8906 34.4717 19.2247C34.4642 19.0818 34.429 18.6028 34.6823 18.4523C34.8228 18.367 35.0083 18.4147 35.1488 18.4699L35.1438 18.4724Z" fill="#F4CF70"/>
<path d="M50.8228 17.2357C52.9169 17.3636 54.1783 17.3035 54.9658 17.2132C55.1388 17.1931 55.505 17.148 55.9714 17.2357C55.9714 17.2357 56.9444 17.4213 57.8698 18.3342C58.8278 19.2796 60.8015 22.5172 62.9432 27.1342C63.194 30.2088 62.7777 32.5912 62.3815 34.131C61.8874 36.0495 61.4059 36.7141 60.789 37.1254C59.5576 37.9505 57.8448 37.7298 56.6937 37.0777C55.1714 36.2176 54.6774 34.6276 54.4717 33.9655C54.1658 32.9799 54.2159 31.2345 54.3313 27.7887C54.3413 27.5128 54.3489 27.2846 54.3539 27.1342C53.1752 23.8338 51.999 20.5361 50.8203 17.2357H50.8228Z" fill="#F4CF70"/>
<path d="M47.527 18.9664C46.1853 19.5232 44.8587 20.1125 43.4994 20.6266C42.1402 21.1407 40.7533 21.5946 39.3514 21.9909C36.5477 22.7808 33.6787 23.3276 30.7822 23.631C29.1521 23.8015 27.5145 23.8768 25.8793 23.947C25.8267 23.947 25.8267 24.0272 25.8793 24.0297C27.354 24.0824 28.8286 24.0047 30.2981 23.8717C31.7677 23.7388 33.1696 23.5457 34.5941 23.2899C37.4781 22.7708 40.317 22.0009 43.0681 20.9877C44.5953 20.426 46.1276 19.8065 47.5521 19.0166C47.5797 19.0015 47.5596 18.9539 47.532 18.9664H47.527Z" fill="black"/>
<path d="M18.6094 25.2861C18.3812 24.9049 18.6621 24.2579 19.0458 23.9143C19.7404 23.2874 21.032 23.4078 21.2928 23.9444C21.4758 24.3231 21.1348 24.8748 20.8238 25.1607C20.1567 25.7751 18.9229 25.8078 18.6094 25.2861Z" fill="white"/>
<path d="M19.9537 22.54C19.3618 21.8102 20.0414 20.2929 20.8891 19.4503C20.9894 19.3525 22.2082 18.1663 22.948 18.5776C23.565 18.9211 23.4546 20.1575 23.259 20.8246C22.9806 21.7826 22.128 22.9412 21.012 22.9462C20.8841 22.9462 20.2847 22.9487 19.9512 22.54H19.9537Z" fill="white"/>
<path d="M57.6483 39.5605H49.1518C47.9828 39.5605 47.0352 40.5082 47.0352 41.6771V56.5386C47.0352 57.7076 47.9828 58.6552 49.1518 58.6552H57.6483C58.8173 58.6552 59.7649 57.7076 59.7649 56.5386V41.6771C59.7649 40.5082 58.8173 39.5605 57.6483 39.5605Z" fill="#F4CF70"/>
<path d="M17.7564 22.357C18.1953 21.9908 18.5564 21.6673 18.8298 21.4165C19.2611 21.0228 19.6147 20.6742 19.9533 20.1676C20.169 19.8441 20.3721 19.5356 20.2643 19.3877C20.1113 19.1745 19.4266 19.4454 19.394 19.4579C18.8473 20.4234 18.3006 21.3889 17.7539 22.3545L17.7564 22.357Z" fill="white"/>
<path d="M52.5547 41.1984C52.5722 40.8197 52.8707 40.4185 53.3045 40.4185C53.7359 40.4185 54.0544 40.8222 54.0544 41.1984C54.0544 41.6975 53.5001 42.1138 53.0563 41.9784C52.7428 41.8831 52.5422 41.5295 52.5572 41.1984H52.5547Z" fill="white"/>
<path d="M49.6224 43.7563C50.0914 43.2698 49.9434 42.9739 50.3396 42.6654C50.7559 42.3394 51.0393 42.5751 51.4932 42.229C51.7565 42.0284 52.0976 41.6222 52.0249 41.2309C51.912 40.6366 50.9064 40.4384 50.6531 40.3883C50.297 40.3181 49.2688 40.1149 48.5615 40.7945C47.892 41.4365 48.0173 42.3895 48.0926 42.9789C48.1352 43.3074 48.2456 44.1425 48.6845 44.2579C49.0481 44.3532 49.4669 43.9168 49.6199 43.7588L49.6224 43.7563Z" fill="white"/>
<path d="M58.4757 35.3021C58.8092 34.0181 60.3866 33.0927 60.9559 33.4538C61.4174 33.7472 61.312 34.9434 60.8155 35.7234C60.3139 36.5108 59.2531 37.1328 58.734 36.7993C58.3277 36.5384 58.3578 35.7635 58.4757 35.3021Z" fill="white"/>
<path d="M34.0521 19.5782C33.8841 19.4804 33.9468 19.1092 33.9593 19.0491C34.0145 18.7481 34.2477 18.3619 34.491 18.3945C34.6991 18.4196 34.8722 18.7456 34.8345 19.019C34.7794 19.4252 34.2552 19.6986 34.0546 19.5807L34.0521 19.5782Z" fill="#D0E0F9"/>
<path d="M29.5079 37.7375C29.0414 37.7751 28.723 37.6597 28.5449 37.577C27.4565 37.0579 27.153 35.4604 27.4991 34.4597C27.6245 34.0961 27.7925 33.9431 27.8427 33.898C28.2063 33.5795 28.6778 33.6296 29.4026 33.6798C31.2408 33.8052 31.79 33.2835 32.1788 33.7099C32.2841 33.8252 32.58 34.234 32.1637 35.3927C32.0784 35.7362 31.8603 36.3983 31.2734 36.9249C30.9299 37.2334 30.5687 37.3989 30.4157 37.4666C30.0596 37.6271 29.7386 37.6999 29.5079 37.7375Z" fill="#D0E0F9"/>
<path d="M43.1101 39.5605H21.1941C20.2412 39.5605 19.4688 40.333 19.4688 41.2859V56.9298C19.4688 57.8827 20.2412 58.6552 21.1941 58.6552H43.1101C44.063 58.6552 44.8355 57.8827 44.8355 56.9298V41.2859C44.8355 40.333 44.063 39.5605 43.1101 39.5605Z" fill="#D0E0F9"/>
<path d="M44.7397 50.9087C42.0187 53.4592 39.2952 56.0096 36.5742 58.5601H37.5799C39.9974 56.2504 42.415 53.9432 44.835 51.6335C44.8049 51.3927 44.7723 51.1494 44.7422 50.9087H44.7397Z" fill="black"/>
<path d="M44.8361 52.2905C42.8373 54.4122 40.8386 56.5338 38.8398 58.6554H41.7941C42.8072 57.399 43.8229 56.1426 44.8361 54.8886V52.2905Z" fill="black"/>
<path d="M26.606 39.5606C24.2261 41.1982 21.8487 42.8358 19.4688 44.4735V45.128C22.1095 43.2948 24.7502 41.4616 27.3885 39.6283C27.1277 39.6058 26.8669 39.5807 26.6035 39.5581L26.606 39.5606Z" fill="black"/>
<path d="M27.7747 39.631C25.0061 41.5771 22.2374 43.5231 19.4688 45.4692V45.7501C22.3553 43.7037 25.2418 41.6548 28.1258 39.6084C28.0079 39.6159 27.8926 39.6235 27.7747 39.631Z" fill="black"/>
<path d="M49.4837 49.0705C49.8674 49.0705 50.1784 48.7595 50.1784 48.3758C50.1784 47.9922 49.8674 47.6812 49.4837 47.6812C49.1001 47.6812 48.7891 47.9922 48.7891 48.3758C48.7891 48.7595 49.1001 49.0705 49.4837 49.0705Z" fill="black"/>
<path d="M15.2691 26.9413C17.5337 22.6855 19.2917 19.5858 19.9212 18.5801C20.0867 18.3143 20.4453 17.7526 21.1224 17.4265C21.6315 17.1808 22.1005 17.1557 22.3538 17.1607H55.4096C55.6278 17.1607 56.36 17.1356 57.0622 17.567C57.5839 17.8855 57.8898 18.3344 58.0604 18.6428C59.703 21.4341 61.3456 24.2278 62.9908 27.019V33.7827C62.9005 36.0999 61.0949 37.9707 58.8955 38.1337C56.8892 38.2842 54.9707 36.9827 54.3312 34.9739C53.6666 36.9325 51.8134 38.2566 49.7444 38.2491C47.6779 38.2416 45.8347 36.9099 45.1801 34.9488C44.9143 35.4253 44.4027 36.2002 43.4948 36.8196C42.2008 37.7074 40.8867 37.7501 40.0089 37.7802C38.9832 37.8153 37.4886 37.8629 36.0065 36.9149C34.1732 35.7388 33.619 33.8378 33.4786 33.2886C33.4409 33.7475 33.2604 35.1845 32.0993 36.3532C30.8253 37.6347 28.8064 38.1513 26.9983 37.4767C24.6535 36.604 24.0315 34.2441 23.9789 34.0359C23.5751 36.1801 21.7344 37.7325 19.6729 37.7576C17.3933 37.7852 15.3695 35.9419 15.1914 33.5193C15.214 31.325 15.2391 29.1331 15.2616 26.9388L15.2691 26.9413Z" stroke="black" stroke-linecap="round" stroke-linejoin="round"/>
<path d="M15.8359 27.064C31.3218 27.084 46.8077 27.1066 62.2936 27.1267" stroke="black" stroke-linecap="round" stroke-linejoin="round"/>
<path d="M23.9844 34.0388V27.7441" stroke="black" stroke-linecap="round" stroke-linejoin="round"/>
<path d="M33.4844 33.5947V27.6035" stroke="black" stroke-linecap="round" stroke-linejoin="round"/>
<path d="M45.2305 35.084V28.501" stroke="black" stroke-linecap="round" stroke-linejoin="round"/>
<path d="M54.3359 34.9886V27.2344" stroke="black" stroke-linecap="round" stroke-linejoin="round"/>
<path d="M16.9883 36.9878V57.7677C17.0109 57.9508 17.1287 58.7558 17.8309 59.3126C18.2347 59.6311 18.6535 59.7288 18.8767 59.764H59.2955C59.4785 59.7464 60.103 59.6636 60.6221 59.1395C61.2717 58.4825 61.2441 57.6398 61.2365 57.5019V37.2561" stroke="black" stroke-linecap="round" stroke-linejoin="round"/>
<path d="M44.8359 41.7598V43.0388" stroke="black" stroke-linecap="round" stroke-linejoin="round"/>
<path d="M44.8359 43.415V56.3003" stroke="black" stroke-linecap="round" stroke-linejoin="round"/>
<path d="M42.8208 58.6553H21.5117" stroke="black" stroke-linecap="round" stroke-linejoin="round"/>
<path d="M19.4688 56.3305V41.2458C19.4688 40.3154 20.2236 39.5605 21.154 39.5605H43.1502C43.1778 39.5605 43.2054 39.5605 43.233 39.5605" stroke="black" stroke-linecap="round" stroke-linejoin="round"/>
<path d="M57.6483 39.5605H49.1518C47.9828 39.5605 47.0352 40.5082 47.0352 41.6771V56.5386C47.0352 57.7076 47.9828 58.6552 49.1518 58.6552H57.6483C58.8173 58.6552 59.7649 57.7076 59.7649 56.5386V41.6771C59.7649 40.5082 58.8173 39.5605 57.6483 39.5605Z" stroke="black" stroke-linecap="round" stroke-linejoin="round"/>
<path d="M49.4837 49.0705C49.8674 49.0705 50.1784 48.7595 50.1784 48.3758C50.1784 47.9922 49.8674 47.6812 49.4837 47.6812C49.1001 47.6812 48.7891 47.9922 48.7891 48.3758C48.7891 48.7595 49.1001 49.0705 49.4837 49.0705Z" stroke="black" stroke-width="0.5" stroke-linecap="round" stroke-linejoin="round"/>
<path d="M10.1641 60.466C10.2418 58.6578 10.2794 56.7794 10.2719 54.8359C10.2669 53.6196 10.2418 52.4308 10.2017 51.2722C10.1791 51.0139 10.154 50.3268 10.6054 49.8979C10.8111 49.7023 11.0393 49.6346 11.3603 49.5594C12.5716 49.281 13.6274 49.261 14.0512 49.2559C14.5051 49.2509 15.092 49.2509 15.7791 49.2659C15.9145 49.2735 16.3359 49.3161 16.6945 49.6471C16.9051 49.8428 17.0079 50.0559 17.0581 50.1863C17.5271 51.5656 17.981 53.0578 18.3998 54.6553C18.8262 56.2879 19.1647 57.8453 19.433 59.3073C19.4631 59.4578 19.4932 59.6935 19.4506 59.9794C19.4255 60.1449 19.3954 60.3381 19.2675 60.5337C19.0644 60.8396 18.7459 60.9525 18.608 60.9926C17.3766 61.2233 15.9697 61.4089 14.4149 61.4891C13.191 61.5518 12.0575 61.5393 11.0293 61.4841C10.954 61.4716 10.633 61.4164 10.3948 61.123C10.1741 60.8497 10.1691 60.5512 10.1691 60.4685L10.1641 60.466Z" fill="#F4CF70"/>
<path d="M10.1951 50.8887C10.0446 52.2253 9.844 53.6323 9.58569 55.0993C9.37503 56.2956 9.13929 57.4417 8.8885 58.5301C8.86342 58.6454 8.82079 58.8235 8.76311 59.0391C8.59258 59.6686 8.49728 59.8141 8.54242 60.0323C8.57001 60.1677 8.65529 60.3357 9.09416 60.6391C9.41767 60.8623 9.94429 61.1683 10.6966 61.3714" fill="#F4CF70"/>
<path d="M16.1951 54.6402L16.2378 55.3173C16.2453 55.4251 16.1625 55.5204 16.0522 55.5279L15.4703 55.5655C15.3625 55.5731 15.2797 55.6659 15.2848 55.7762L15.3224 56.358C15.3299 56.4659 15.2472 56.5611 15.1368 56.5687L14.4597 56.6113C14.3518 56.6188 14.2565 56.5361 14.249 56.4257L14.2114 55.8389C14.2039 55.7311 14.1111 55.6483 14.0008 55.6533L13.4139 55.6909C13.3061 55.6984 13.2108 55.6157 13.2032 55.5053L13.1606 54.8282C13.1531 54.7204 13.2359 54.6251 13.3462 54.6176L14.0233 54.5749C14.1311 54.5674 14.2265 54.6502 14.234 54.7605L14.2716 55.3474C14.2791 55.4552 14.3719 55.5379 14.4823 55.5329L14.9738 55.5003C15.0816 55.4928 15.1644 55.4 15.1594 55.2897L15.1217 54.7079C15.1142 54.6 15.197 54.5047 15.3073 54.4972L15.9845 54.4546C16.0923 54.4471 16.1876 54.5298 16.1951 54.6402Z" fill="black"/>
<path d="M16.0727 59.5732C16.3461 58.8209 17.1611 58.5525 17.284 58.5149C17.5222 58.4422 18.232 58.2215 18.5555 58.5977C18.7762 58.8535 18.7185 59.2748 18.5906 59.5356C18.39 59.9519 17.9536 60.0848 17.4972 60.2253C17.2489 60.3005 16.2934 60.5914 16.0351 60.2127C15.9072 60.0246 16.005 59.7513 16.0702 59.5707L16.0727 59.5732Z" fill="white"/>
<path d="M17.1134 57.4238C16.9704 57.0927 17.1134 56.6388 17.4695 56.4959C17.7353 56.3905 18.0714 56.4783 18.2068 56.6865C18.4501 57.0626 18.0137 57.81 17.5899 57.8024C17.3742 57.7999 17.1911 57.5993 17.1159 57.4212L17.1134 57.4238Z" fill="white"/>
<path d="M10.1641 60.466C10.2418 58.6578 10.2794 56.7794 10.2719 54.8359C10.2669 53.6196 10.2418 52.4308 10.2017 51.2722C10.1791 51.0139 10.154 50.3268 10.6054 49.8979C10.8111 49.7023 11.0393 49.6346 11.3603 49.5594C12.5716 49.281 13.6274 49.261 14.0512 49.2559C14.5051 49.2509 15.092 49.2509 15.7791 49.2659C15.9145 49.2735 16.3359 49.3161 16.6945 49.6471C16.9051 49.8428 17.0079 50.0559 17.0581 50.1863C17.5271 51.5656 17.981 53.0578 18.3998 54.6553C18.8262 56.2879 19.1647 57.8453 19.433 59.3073C19.4631 59.4578 19.4932 59.6935 19.4506 59.9794C19.4255 60.1449 19.3954 60.3381 19.2675 60.5337C19.0644 60.8396 18.7459 60.9525 18.608 60.9926C17.3766 61.2233 15.9697 61.4089 14.4149 61.4891C13.191 61.5518 12.0575 61.5393 11.0293 61.4841C10.954 61.4716 10.633 61.4164 10.3948 61.123C10.1741 60.8497 10.1691 60.5512 10.1691 60.4685L10.1641 60.466Z" stroke="black" stroke-linecap="round" stroke-linejoin="round"/>
<path d="M10.1951 50.8887C10.0446 52.2253 9.844 53.6323 9.58569 55.0993C9.37503 56.2956 9.13929 57.4417 8.8885 58.5301C8.86342 58.6454 8.82079 58.8235 8.76311 59.0391C8.59258 59.6686 8.49728 59.8141 8.54242 60.0323C8.57001 60.1677 8.65529 60.3357 9.09416 60.6391C9.41767 60.8623 9.94429 61.1683 10.6966 61.3714" stroke="black" stroke-linecap="round" stroke-linejoin="round"/>
<path d="M16.1951 54.6402L16.2378 55.3173C16.2453 55.4251 16.1625 55.5204 16.0522 55.5279L15.4703 55.5655C15.3625 55.5731 15.2797 55.6659 15.2848 55.7762L15.3224 56.358C15.3299 56.4659 15.2472 56.5611 15.1368 56.5687L14.4597 56.6113C14.3518 56.6188 14.2565 56.5361 14.249 56.4257L14.2114 55.8389C14.2039 55.7311 14.1111 55.6483 14.0008 55.6533L13.4139 55.6909C13.3061 55.6984 13.2108 55.6157 13.2032 55.5053L13.1606 54.8282C13.1531 54.7204 13.2359 54.6251 13.3462 54.6176L14.0233 54.5749C14.1311 54.5674 14.2265 54.6502 14.234 54.7605L14.2716 55.3474C14.2791 55.4552 14.3719 55.5379 14.4823 55.5329L14.9738 55.5003C15.0816 55.4928 15.1644 55.4 15.1594 55.2897L15.1217 54.7079C15.1142 54.6 15.197 54.5047 15.3073 54.4972L15.9845 54.4546C16.0923 54.4471 16.1876 54.5298 16.1951 54.6402Z" stroke="black" stroke-width="0.5" stroke-linecap="round" stroke-linejoin="round"/>
<path d="M12.4576 51.0316C11.793 50.2943 11.6827 49.2987 12.124 48.6441C12.3874 48.2554 12.8538 47.972 13.3579 47.9444C14.1629 47.9018 14.6871 48.5313 14.8802 48.762C15.3993 49.3839 15.4469 50.0887 15.4494 50.342" stroke="black" stroke-linecap="round" stroke-linejoin="round"/>
<path d="M12.4483 51.2926C12.5924 51.2926 12.7091 51.1759 12.7091 51.0318C12.7091 50.8878 12.5924 50.771 12.4483 50.771C12.3043 50.771 12.1875 50.8878 12.1875 51.0318C12.1875 51.1759 12.3043 51.2926 12.4483 51.2926Z" stroke="black" stroke-linecap="round" stroke-linejoin="round"/>
<path d="M15.4522 50.6628C15.5963 50.6628 15.713 50.546 15.713 50.4019C15.713 50.2579 15.5963 50.1411 15.4522 50.1411C15.3082 50.1411 15.1914 50.2579 15.1914 50.4019C15.1914 50.546 15.3082 50.6628 15.4522 50.6628Z" stroke="black" stroke-linecap="round" stroke-linejoin="round"/>
</svg>
