<svg width="415" height="13" viewBox="0 0 415 13" fill="none" xmlns="http://www.w3.org/2000/svg">
<path d="M31 1.1365e-06C31 1.70719 30.5991 3.39765 29.8201 4.97489C29.0412 6.55212 27.8995 7.98523 26.4602 9.19239C25.0208 10.3996 23.3121 11.3571 21.4316 12.0104C19.551 12.6637 17.5355 13 15.5 13C13.4645 13 11.449 12.6637 9.56841 12.0104C7.68786 11.3571 5.97915 10.3995 4.53984 9.19239C3.10054 7.98523 1.95881 6.55212 1.17987 4.97488C0.400919 3.39765 -1.77948e-07 1.70718 0 0L31 1.1365e-06Z" fill="white"/>
<path d="M67 1.1365e-06C67 1.70719 66.5991 3.39765 65.8201 4.97489C65.0412 6.55212 63.8995 7.98523 62.4602 9.19239C61.0208 10.3996 59.3121 11.3571 57.4316 12.0104C55.551 12.6637 53.5355 13 51.5 13C49.4645 13 47.449 12.6637 45.5684 12.0104C43.6879 11.3571 41.9792 10.3995 40.5398 9.19239C39.1005 7.98523 37.9588 6.55212 37.1799 4.97488C36.4009 3.39765 36 1.70718 36 0L67 1.1365e-06Z" fill="white"/>
<path d="M103 1.1365e-06C103 1.70719 102.599 3.39765 101.82 4.97489C101.041 6.55212 99.8995 7.98523 98.4602 9.19239C97.0209 10.3996 95.3121 11.3571 93.4316 12.0104C91.551 12.6637 89.5355 13 87.5 13C85.4645 13 83.449 12.6637 81.5684 12.0104C79.6879 11.3571 77.9791 10.3995 76.5398 9.19239C75.1005 7.98523 73.9588 6.55212 73.1799 4.97488C72.4009 3.39765 72 1.70718 72 0L103 1.1365e-06Z" fill="white"/>
<path d="M139 1.1365e-06C139 1.70719 138.599 3.39765 137.82 4.97489C137.041 6.55212 135.899 7.98523 134.46 9.19239C133.021 10.3996 131.312 11.3571 129.432 12.0104C127.551 12.6637 125.535 13 123.5 13C121.465 13 119.449 12.6637 117.568 12.0104C115.688 11.3571 113.979 10.3995 112.54 9.19239C111.101 7.98523 109.959 6.55212 109.18 4.97488C108.401 3.39765 108 1.70718 108 0L139 1.1365e-06Z" fill="white"/>
<path d="M175 1.1365e-06C175 1.70719 174.599 3.39765 173.82 4.97489C173.041 6.55212 171.899 7.98523 170.46 9.19239C169.021 10.3996 167.312 11.3571 165.432 12.0104C163.551 12.6637 161.535 13 159.5 13C157.465 13 155.449 12.6637 153.568 12.0104C151.688 11.3571 149.979 10.3995 148.54 9.19239C147.101 7.98523 145.959 6.55212 145.18 4.97488C144.401 3.39765 144 1.70718 144 0L175 1.1365e-06Z" fill="white"/>
<path d="M211 1.1365e-06C211 1.70719 210.599 3.39765 209.82 4.97489C209.041 6.55212 207.899 7.98523 206.46 9.19239C205.021 10.3996 203.312 11.3571 201.432 12.0104C199.551 12.6637 197.535 13 195.5 13C193.465 13 191.449 12.6637 189.568 12.0104C187.688 11.3571 185.979 10.3995 184.54 9.19239C183.101 7.98523 181.959 6.55212 181.18 4.97488C180.401 3.39765 180 1.70718 180 0L211 1.1365e-06Z" fill="white"/>
<path d="M247 1.1365e-06C247 1.70719 246.599 3.39765 245.82 4.97489C245.041 6.55212 243.899 7.98523 242.46 9.19239C241.021 10.3996 239.312 11.3571 237.432 12.0104C235.551 12.6637 233.535 13 231.5 13C229.465 13 227.449 12.6637 225.568 12.0104C223.688 11.3571 221.979 10.3995 220.54 9.19239C219.101 7.98523 217.959 6.55212 217.18 4.97488C216.401 3.39765 216 1.70718 216 0L247 1.1365e-06Z" fill="white"/>
<path d="M283 1.1365e-06C283 1.70719 282.599 3.39765 281.82 4.97489C281.041 6.55212 279.899 7.98523 278.46 9.19239C277.021 10.3996 275.312 11.3571 273.432 12.0104C271.551 12.6637 269.535 13 267.5 13C265.465 13 263.449 12.6637 261.568 12.0104C259.688 11.3571 257.979 10.3995 256.54 9.19239C255.101 7.98523 253.959 6.55212 253.18 4.97488C252.401 3.39765 252 1.70718 252 0L283 1.1365e-06Z" fill="white"/>
<path d="M319 1.1365e-06C319 1.70719 318.599 3.39765 317.82 4.97489C317.041 6.55212 315.899 7.98523 314.46 9.19239C313.021 10.3996 311.312 11.3571 309.432 12.0104C307.551 12.6637 305.535 13 303.5 13C301.465 13 299.449 12.6637 297.568 12.0104C295.688 11.3571 293.979 10.3995 292.54 9.19239C291.101 7.98523 289.959 6.55212 289.18 4.97488C288.401 3.39765 288 1.70718 288 0L319 1.1365e-06Z" fill="white"/>
<path d="M355 1.1365e-06C355 1.70719 354.599 3.39765 353.82 4.97489C353.041 6.55212 351.899 7.98523 350.46 9.19239C349.021 10.3996 347.312 11.3571 345.432 12.0104C343.551 12.6637 341.535 13 339.5 13C337.465 13 335.449 12.6637 333.568 12.0104C331.688 11.3571 329.979 10.3995 328.54 9.19239C327.101 7.98523 325.959 6.55212 325.18 4.97488C324.401 3.39765 324 1.70718 324 0L355 1.1365e-06Z" fill="white"/>
<path d="M391 1.1365e-06C391 1.70719 390.599 3.39765 389.82 4.97489C389.041 6.55212 387.899 7.98523 386.46 9.19239C385.021 10.3996 383.312 11.3571 381.432 12.0104C379.551 12.6637 377.535 13 375.5 13C373.465 13 371.449 12.6637 369.568 12.0104C367.688 11.3571 365.979 10.3995 364.54 9.19239C363.101 7.98523 361.959 6.55212 361.18 4.97488C360.401 3.39765 360 1.70718 360 0L391 1.1365e-06Z" fill="white"/>
<path d="M427 1.1365e-06C427 1.70719 426.599 3.39765 425.82 4.97489C425.041 6.55212 423.899 7.98523 422.46 9.19239C421.021 10.3996 419.312 11.3571 417.432 12.0104C415.551 12.6637 413.535 13 411.5 13C409.465 13 407.449 12.6637 405.568 12.0104C403.688 11.3571 401.979 10.3995 400.54 9.19239C399.101 7.98523 397.959 6.55212 397.18 4.97488C396.401 3.39765 396 1.70718 396 0L427 1.1365e-06Z" fill="white"/>
<path d="M463 1.1365e-06C463 1.70719 462.599 3.39765 461.82 4.97489C461.041 6.55212 459.899 7.98523 458.46 9.19239C457.021 10.3996 455.312 11.3571 453.432 12.0104C451.551 12.6637 449.535 13 447.5 13C445.465 13 443.449 12.6637 441.568 12.0104C439.688 11.3571 437.979 10.3995 436.54 9.19239C435.101 7.98523 433.959 6.55212 433.18 4.97488C432.401 3.39765 432 1.70718 432 0L463 1.1365e-06Z" fill="white"/>
<path d="M499 1.1365e-06C499 1.70719 498.599 3.39765 497.82 4.97489C497.041 6.55212 495.899 7.98523 494.46 9.19239C493.021 10.3996 491.312 11.3571 489.432 12.0104C487.551 12.6637 485.535 13 483.5 13C481.465 13 479.449 12.6637 477.568 12.0104C475.688 11.3571 473.979 10.3995 472.54 9.19239C471.101 7.98523 469.959 6.55212 469.18 4.97488C468.401 3.39765 468 1.70718 468 0L499 1.1365e-06Z" fill="white"/>
<path d="M535 1.1365e-06C535 1.70719 534.599 3.39765 533.82 4.97489C533.041 6.55212 531.899 7.98523 530.46 9.19239C529.021 10.3996 527.312 11.3571 525.432 12.0104C523.551 12.6637 521.535 13 519.5 13C517.465 13 515.449 12.6637 513.568 12.0104C511.688 11.3571 509.979 10.3995 508.54 9.19239C507.101 7.98523 505.959 6.55212 505.18 4.97488C504.401 3.39765 504 1.70718 504 0L535 1.1365e-06Z" fill="white"/>
<path d="M571 1.1365e-06C571 1.70719 570.599 3.39765 569.82 4.97489C569.041 6.55212 567.899 7.98523 566.46 9.19239C565.021 10.3996 563.312 11.3571 561.432 12.0104C559.551 12.6637 557.535 13 555.5 13C553.465 13 551.449 12.6637 549.568 12.0104C547.688 11.3571 545.979 10.3995 544.54 9.19239C543.101 7.98523 541.959 6.55212 541.18 4.97488C540.401 3.39765 540 1.70718 540 0L571 1.1365e-06Z" fill="white"/>
</svg>
