<svg width="400" height="13" viewBox="0 0 400 13" fill="none" xmlns="http://www.w3.org/2000/svg">
<path d="M31 13C31 11.2928 30.5991 9.60235 29.8201 8.02511C29.0412 6.44788 27.8995 5.01477 26.4602 3.80761C25.0208 2.60045 23.3121 1.64288 21.4316 0.989565C19.551 0.336254 17.5355 -9.53674e-07 15.5 0C13.4645 0 11.449 0.336254 9.56841 0.989565C7.68786 1.64288 5.97915 2.60045 4.53984 3.80761C3.10054 5.01477 1.95881 6.44788 1.17987 8.02512C0.400919 9.60235 -1.77948e-07 11.2928 0 13L31 13Z" fill="white"/>
<path d="M67 13C67 11.2928 66.5991 9.60235 65.8201 8.02511C65.0412 6.44788 63.8995 5.01477 62.4602 3.80761C61.0208 2.60045 59.3121 1.64288 57.4316 0.989565C55.551 0.336254 53.5355 -9.53674e-07 51.5 0C49.4645 0 47.449 0.336254 45.5684 0.989565C43.6879 1.64288 41.9792 2.60045 40.5398 3.80761C39.1005 5.01477 37.9588 6.44788 37.1799 8.02512C36.4009 9.60235 36 11.2928 36 13L67 13Z" fill="white"/>
<path d="M103 13C103 11.2928 102.599 9.60235 101.82 8.02511C101.041 6.44788 99.8995 5.01477 98.4602 3.80761C97.0209 2.60045 95.3121 1.64288 93.4316 0.989565C91.551 0.336254 89.5355 -9.53674e-07 87.5 0C85.4645 0 83.449 0.336254 81.5684 0.989565C79.6879 1.64288 77.9791 2.60045 76.5398 3.80761C75.1005 5.01477 73.9588 6.44788 73.1799 8.02512C72.4009 9.60235 72 11.2928 72 13L103 13Z" fill="white"/>
<path d="M139 13C139 11.2928 138.599 9.60235 137.82 8.02511C137.041 6.44788 135.899 5.01477 134.46 3.80761C133.021 2.60045 131.312 1.64288 129.432 0.989565C127.551 0.336254 125.535 -9.53674e-07 123.5 0C121.465 0 119.449 0.336254 117.568 0.989565C115.688 1.64288 113.979 2.60045 112.54 3.80761C111.101 5.01477 109.959 6.44788 109.18 8.02512C108.401 9.60235 108 11.2928 108 13L139 13Z" fill="white"/>
<path d="M175 13C175 11.2928 174.599 9.60235 173.82 8.02511C173.041 6.44788 171.899 5.01477 170.46 3.80761C169.021 2.60045 167.312 1.64288 165.432 0.989565C163.551 0.336254 161.535 -9.53674e-07 159.5 0C157.465 0 155.449 0.336254 153.568 0.989565C151.688 1.64288 149.979 2.60045 148.54 3.80761C147.101 5.01477 145.959 6.44788 145.18 8.02512C144.401 9.60235 144 11.2928 144 13L175 13Z" fill="white"/>
<path d="M211 13C211 11.2928 210.599 9.60235 209.82 8.02511C209.041 6.44788 207.899 5.01477 206.46 3.80761C205.021 2.60045 203.312 1.64288 201.432 0.989565C199.551 0.336254 197.535 -9.53674e-07 195.5 0C193.465 0 191.449 0.336254 189.568 0.989565C187.688 1.64288 185.979 2.60045 184.54 3.80761C183.101 5.01477 181.959 6.44788 181.18 8.02512C180.401 9.60235 180 11.2928 180 13L211 13Z" fill="white"/>
<path d="M247 13C247 11.2928 246.599 9.60235 245.82 8.02511C245.041 6.44788 243.899 5.01477 242.46 3.80761C241.021 2.60045 239.312 1.64288 237.432 0.989565C235.551 0.336254 233.535 -9.53674e-07 231.5 0C229.465 0 227.449 0.336254 225.568 0.989565C223.688 1.64288 221.979 2.60045 220.54 3.80761C219.101 5.01477 217.959 6.44788 217.18 8.02512C216.401 9.60235 216 11.2928 216 13L247 13Z" fill="white"/>
<path d="M283 13C283 11.2928 282.599 9.60235 281.82 8.02511C281.041 6.44788 279.899 5.01477 278.46 3.80761C277.021 2.60045 275.312 1.64288 273.432 0.989565C271.551 0.336254 269.535 -9.53674e-07 267.5 0C265.465 0 263.449 0.336254 261.568 0.989565C259.688 1.64288 257.979 2.60045 256.54 3.80761C255.101 5.01477 253.959 6.44788 253.18 8.02512C252.401 9.60235 252 11.2928 252 13L283 13Z" fill="white"/>
<path d="M319 13C319 11.2928 318.599 9.60235 317.82 8.02511C317.041 6.44788 315.899 5.01477 314.46 3.80761C313.021 2.60045 311.312 1.64288 309.432 0.989565C307.551 0.336254 305.535 -9.53674e-07 303.5 0C301.465 0 299.449 0.336254 297.568 0.989565C295.688 1.64288 293.979 2.60045 292.54 3.80761C291.101 5.01477 289.959 6.44788 289.18 8.02512C288.401 9.60235 288 11.2928 288 13L319 13Z" fill="white"/>
<path d="M355 13C355 11.2928 354.599 9.60235 353.82 8.02511C353.041 6.44788 351.899 5.01477 350.46 3.80761C349.021 2.60045 347.312 1.64288 345.432 0.989565C343.551 0.336254 341.535 -9.53674e-07 339.5 0C337.465 0 335.449 0.336254 333.568 0.989565C331.688 1.64288 329.979 2.60045 328.54 3.80761C327.101 5.01477 325.959 6.44788 325.18 8.02512C324.401 9.60235 324 11.2928 324 13L355 13Z" fill="white"/>
<path d="M391 13C391 11.2928 390.599 9.60235 389.82 8.02511C389.041 6.44788 387.899 5.01477 386.46 3.80761C385.021 2.60045 383.312 1.64288 381.432 0.989565C379.551 0.336254 377.535 -9.53674e-07 375.5 0C373.465 0 371.449 0.336254 369.568 0.989565C367.688 1.64288 365.979 2.60045 364.54 3.80761C363.101 5.01477 361.959 6.44788 361.18 8.02512C360.401 9.60235 360 11.2928 360 13L391 13Z" fill="white"/>
<path d="M427 13C427 11.2928 426.599 9.60235 425.82 8.02511C425.041 6.44788 423.899 5.01477 422.46 3.80761C421.021 2.60045 419.312 1.64288 417.432 0.989565C415.551 0.336254 413.535 -9.53674e-07 411.5 0C409.465 0 407.449 0.336254 405.568 0.989565C403.688 1.64288 401.979 2.60045 400.54 3.80761C399.101 5.01477 397.959 6.44788 397.18 8.02512C396.401 9.60235 396 11.2928 396 13L427 13Z" fill="white"/>
<path d="M463 13C463 11.2928 462.599 9.60235 461.82 8.02511C461.041 6.44788 459.899 5.01477 458.46 3.80761C457.021 2.60045 455.312 1.64288 453.432 0.989565C451.551 0.336254 449.535 -9.53674e-07 447.5 0C445.465 0 443.449 0.336254 441.568 0.989565C439.688 1.64288 437.979 2.60045 436.54 3.80761C435.101 5.01477 433.959 6.44788 433.18 8.02512C432.401 9.60235 432 11.2928 432 13L463 13Z" fill="white"/>
<path d="M499 13C499 11.2928 498.599 9.60235 497.82 8.02511C497.041 6.44788 495.899 5.01477 494.46 3.80761C493.021 2.60045 491.312 1.64288 489.432 0.989565C487.551 0.336254 485.535 -9.53674e-07 483.5 0C481.465 0 479.449 0.336254 477.568 0.989565C475.688 1.64288 473.979 2.60045 472.54 3.80761C471.101 5.01477 469.959 6.44788 469.18 8.02512C468.401 9.60235 468 11.2928 468 13L499 13Z" fill="white"/>
<path d="M535 13C535 11.2928 534.599 9.60235 533.82 8.02511C533.041 6.44788 531.899 5.01477 530.46 3.80761C529.021 2.60045 527.312 1.64288 525.432 0.989565C523.551 0.336254 521.535 -9.53674e-07 519.5 0C517.465 0 515.449 0.336254 513.568 0.989565C511.688 1.64288 509.979 2.60045 508.54 3.80761C507.101 5.01477 505.959 6.44788 505.18 8.02512C504.401 9.60235 504 11.2928 504 13L535 13Z" fill="white"/>
<path d="M571 13C571 11.2928 570.599 9.60235 569.82 8.02511C569.041 6.44788 567.899 5.01477 566.46 3.80761C565.021 2.60045 563.312 1.64288 561.432 0.989565C559.551 0.336254 557.535 -9.53674e-07 555.5 0C553.465 0 551.449 0.336254 549.568 0.989565C547.688 1.64288 545.979 2.60045 544.54 3.80761C543.101 5.01477 541.959 6.44788 541.18 8.02512C540.401 9.60235 540 11.2928 540 13L571 13Z" fill="white"/>
</svg>
