<svg width="1440" height="730" viewBox="0 0 1440 730" fill="none" xmlns="http://www.w3.org/2000/svg">
<mask id="mask0_2663_29166" style="mask-type:alpha" maskUnits="userSpaceOnUse" x="195" y="0" width="1172" height="1172">
<rect width="1171.5" height="1171.5" transform="translate(195.25)" fill="url(#paint0_radial_2663_29166)"/>
</mask>
<g mask="url(#mask0_2663_29166)">
<g clip-path="url(#clip0_2663_29166)">
<mask id="path-3-inside-1_2663_29166" fill="white">
<path d="M156.2 0H234.3V78.1H156.2V0Z"/>
</mask>
<path d="M234.3 78.1V78.9135H235.114V78.1H234.3ZM234.3 0H233.487V78.1H234.3H235.114V0H234.3ZM234.3 78.1V77.2865H156.2V78.1V78.9135H234.3V78.1Z" fill="#D0D5DD" mask="url(#path-3-inside-1_2663_29166)"/>
<mask id="path-5-inside-2_2663_29166" fill="white">
<path d="M234.3 0H312.4V78.1H234.3V0Z"/>
</mask>
<path d="M312.4 78.1V78.9135H313.213V78.1H312.4ZM312.4 0H311.586V78.1H312.4H313.213V0H312.4ZM312.4 78.1V77.2865H234.3V78.1V78.9135H312.4V78.1Z" fill="#D0D5DD" mask="url(#path-5-inside-2_2663_29166)"/>
<mask id="path-7-inside-3_2663_29166" fill="white">
<path d="M312.4 0H390.5V78.1H312.4V0Z"/>
</mask>
<path d="M390.5 78.1V78.9135H391.314V78.1H390.5ZM390.5 0H389.687V78.1H390.5H391.314V0H390.5ZM390.5 78.1V77.2865H312.4V78.1V78.9135H390.5V78.1Z" fill="#D0D5DD" mask="url(#path-7-inside-3_2663_29166)"/>
<mask id="path-9-inside-4_2663_29166" fill="white">
<path d="M390.5 0H468.6V78.1H390.5V0Z"/>
</mask>
<path d="M468.6 78.1V78.9135H469.414V78.1H468.6ZM468.6 0H467.786V78.1H468.6H469.414V0H468.6ZM468.6 78.1V77.2865H390.5V78.1V78.9135H468.6V78.1Z" fill="#D0D5DD" mask="url(#path-9-inside-4_2663_29166)"/>
<mask id="path-11-inside-5_2663_29166" fill="white">
<path d="M468.6 0H546.7V78.1H468.6V0Z"/>
</mask>
<path d="M546.7 78.1V78.9135H547.513V78.1H546.7ZM546.7 0H545.886V78.1H546.7H547.513V0H546.7ZM546.7 78.1V77.2865H468.6V78.1V78.9135H546.7V78.1Z" fill="#D0D5DD" mask="url(#path-11-inside-5_2663_29166)"/>
<mask id="path-13-inside-6_2663_29166" fill="white">
<path d="M546.7 0H624.8V78.1H546.7V0Z"/>
</mask>
<path d="M624.8 78.1V78.9135H625.614V78.1H624.8ZM624.8 0H623.987V78.1H624.8H625.614V0H624.8ZM624.8 78.1V77.2865H546.7V78.1V78.9135H624.8V78.1Z" fill="#D0D5DD" mask="url(#path-13-inside-6_2663_29166)"/>
<mask id="path-15-inside-7_2663_29166" fill="white">
<path d="M624.8 0H702.9V78.1H624.8V0Z"/>
</mask>
<path d="M702.9 78.1V78.9135H703.713V78.1H702.9ZM702.9 0H702.086V78.1H702.9H703.713V0H702.9ZM702.9 78.1V77.2865H624.8V78.1V78.9135H702.9V78.1Z" fill="#D0D5DD" mask="url(#path-15-inside-7_2663_29166)"/>
<mask id="path-17-inside-8_2663_29166" fill="white">
<path d="M702.9 0H781V78.1H702.9V0Z"/>
</mask>
<path d="M781 78.1V78.9135H781.814V78.1H781ZM781 0H780.187V78.1H781H781.814V0H781ZM781 78.1V77.2865H702.9V78.1V78.9135H781V78.1Z" fill="#D0D5DD" mask="url(#path-17-inside-8_2663_29166)"/>
<mask id="path-19-inside-9_2663_29166" fill="white">
<path d="M781 0H859.1V78.1H781V0Z"/>
</mask>
<path d="M859.1 78.1V78.9135H859.914V78.1H859.1ZM859.1 0H858.286V78.1H859.1H859.914V0H859.1ZM859.1 78.1V77.2865H781V78.1V78.9135H859.1V78.1Z" fill="#D0D5DD" mask="url(#path-19-inside-9_2663_29166)"/>
<mask id="path-21-inside-10_2663_29166" fill="white">
<path d="M859.1 0H937.2V78.1H859.1V0Z"/>
</mask>
<path d="M937.2 78.1V78.9135H938.013V78.1H937.2ZM937.2 0H936.386V78.1H937.2H938.013V0H937.2ZM937.2 78.1V77.2865H859.1V78.1V78.9135H937.2V78.1Z" fill="#D0D5DD" mask="url(#path-21-inside-10_2663_29166)"/>
<mask id="path-23-inside-11_2663_29166" fill="white">
<path d="M937.2 0H1015.3V78.1H937.2V0Z"/>
</mask>
<path d="M1015.3 78.1V78.9135H1016.11V78.1H1015.3ZM1015.3 0H1014.49V78.1H1015.3H1016.11V0H1015.3ZM1015.3 78.1V77.2865H937.2V78.1V78.9135H1015.3V78.1Z" fill="#D0D5DD" mask="url(#path-23-inside-11_2663_29166)"/>
<mask id="path-25-inside-12_2663_29166" fill="white">
<path d="M1015.3 0H1093.4V78.1H1015.3V0Z"/>
</mask>
<path d="M1093.4 78.1V78.9135H1094.21V78.1H1093.4ZM1093.4 0H1092.59V78.1H1093.4H1094.21V0H1093.4ZM1093.4 78.1V77.2865H1015.3V78.1V78.9135H1093.4V78.1Z" fill="#D0D5DD" mask="url(#path-25-inside-12_2663_29166)"/>
<mask id="path-27-inside-13_2663_29166" fill="white">
<path d="M1093.4 0H1171.5V78.1H1093.4V0Z"/>
</mask>
<path d="M1171.5 78.1V78.9135H1172.31V78.1H1171.5ZM1171.5 0H1170.69V78.1H1171.5H1172.31V0H1171.5ZM1171.5 78.1V77.2865H1093.4V78.1V78.9135H1171.5V78.1Z" fill="#D0D5DD" mask="url(#path-27-inside-13_2663_29166)"/>
<mask id="path-29-inside-14_2663_29166" fill="white">
<path d="M1171.5 0H1249.6V78.1H1171.5V0Z"/>
</mask>
<path d="M1249.6 78.1V78.9135H1250.41V78.1H1249.6ZM1249.6 0H1248.79V78.1H1249.6H1250.41V0H1249.6ZM1249.6 78.1V77.2865H1171.5V78.1V78.9135H1249.6V78.1Z" fill="#D0D5DD" mask="url(#path-29-inside-14_2663_29166)"/>
<mask id="path-31-inside-15_2663_29166" fill="white">
<path d="M1249.6 0H1327.7V78.1H1249.6V0Z"/>
</mask>
<path d="M1327.7 78.1V78.9135H1328.51V78.1H1327.7ZM1327.7 0H1326.89V78.1H1327.7H1328.51V0H1327.7ZM1327.7 78.1V77.2865H1249.6V78.1V78.9135H1327.7V78.1Z" fill="#D0D5DD" mask="url(#path-31-inside-15_2663_29166)"/>
<mask id="path-33-inside-16_2663_29166" fill="white">
<path d="M1327.7 0H1405.8V78.1H1327.7V0Z"/>
</mask>
<path d="M1405.8 78.1V78.9135H1406.61V78.1H1405.8ZM1405.8 0H1404.99V78.1H1405.8H1406.61V0H1405.8ZM1405.8 78.1V77.2865H1327.7V78.1V78.9135H1405.8V78.1Z" fill="#D0D5DD" mask="url(#path-33-inside-16_2663_29166)"/>
<mask id="path-35-inside-17_2663_29166" fill="white">
<path d="M156.2 78.1016H234.3V156.202H156.2V78.1016Z"/>
</mask>
<path d="M234.3 156.202V157.015H235.114V156.202H234.3ZM234.3 78.1016H233.487V156.202H234.3H235.114V78.1016H234.3ZM234.3 156.202V155.388H156.2V156.202V157.015H234.3V156.202Z" fill="#D0D5DD" mask="url(#path-35-inside-17_2663_29166)"/>
<mask id="path-37-inside-18_2663_29166" fill="white">
<path d="M234.3 78.1016H312.4V156.202H234.3V78.1016Z"/>
</mask>
<path d="M312.4 156.202V157.015H313.213V156.202H312.4ZM312.4 78.1016H311.586V156.202H312.4H313.213V78.1016H312.4ZM312.4 156.202V155.388H234.3V156.202V157.015H312.4V156.202Z" fill="#D0D5DD" mask="url(#path-37-inside-18_2663_29166)"/>
<mask id="path-39-inside-19_2663_29166" fill="white">
<path d="M312.4 78.1016H390.5V156.202H312.4V78.1016Z"/>
</mask>
<path d="M390.5 156.202V157.015H391.314V156.202H390.5ZM390.5 78.1016H389.687V156.202H390.5H391.314V78.1016H390.5ZM390.5 156.202V155.388H312.4V156.202V157.015H390.5V156.202Z" fill="#D0D5DD" mask="url(#path-39-inside-19_2663_29166)"/>
<mask id="path-41-inside-20_2663_29166" fill="white">
<path d="M390.5 78.1016H468.6V156.202H390.5V78.1016Z"/>
</mask>
<path d="M390.5 78.1016H468.6V156.202H390.5V78.1016Z" fill="#F2F4F7"/>
<path d="M468.6 156.202V157.015H469.414V156.202H468.6ZM468.6 78.1016H467.786V156.202H468.6H469.414V78.1016H468.6ZM468.6 156.202V155.388H390.5V156.202V157.015H468.6V156.202Z" fill="#D0D5DD" mask="url(#path-41-inside-20_2663_29166)"/>
<mask id="path-43-inside-21_2663_29166" fill="white">
<path d="M468.6 78.1016H546.7V156.202H468.6V78.1016Z"/>
</mask>
<path d="M546.7 156.202V157.015H547.513V156.202H546.7ZM546.7 78.1016H545.886V156.202H546.7H547.513V78.1016H546.7ZM546.7 156.202V155.388H468.6V156.202V157.015H546.7V156.202Z" fill="#D0D5DD" mask="url(#path-43-inside-21_2663_29166)"/>
<mask id="path-45-inside-22_2663_29166" fill="white">
<path d="M546.7 78.1016H624.8V156.202H546.7V78.1016Z"/>
</mask>
<path d="M624.8 156.202V157.015H625.614V156.202H624.8ZM624.8 78.1016H623.987V156.202H624.8H625.614V78.1016H624.8ZM624.8 156.202V155.388H546.7V156.202V157.015H624.8V156.202Z" fill="#D0D5DD" mask="url(#path-45-inside-22_2663_29166)"/>
<mask id="path-47-inside-23_2663_29166" fill="white">
<path d="M624.8 78.1016H702.9V156.202H624.8V78.1016Z"/>
</mask>
<path d="M702.9 156.202V157.015H703.713V156.202H702.9ZM702.9 78.1016H702.086V156.202H702.9H703.713V78.1016H702.9ZM702.9 156.202V155.388H624.8V156.202V157.015H702.9V156.202Z" fill="#D0D5DD" mask="url(#path-47-inside-23_2663_29166)"/>
<mask id="path-49-inside-24_2663_29166" fill="white">
<path d="M702.9 78.1016H781V156.202H702.9V78.1016Z"/>
</mask>
<path d="M781 156.202V157.015H781.814V156.202H781ZM781 78.1016H780.187V156.202H781H781.814V78.1016H781ZM781 156.202V155.388H702.9V156.202V157.015H781V156.202Z" fill="#D0D5DD" mask="url(#path-49-inside-24_2663_29166)"/>
<mask id="path-51-inside-25_2663_29166" fill="white">
<path d="M781 78.1016H859.1V156.202H781V78.1016Z"/>
</mask>
<path d="M859.1 156.202V157.015H859.914V156.202H859.1ZM859.1 78.1016H858.286V156.202H859.1H859.914V78.1016H859.1ZM859.1 156.202V155.388H781V156.202V157.015H859.1V156.202Z" fill="#D0D5DD" mask="url(#path-51-inside-25_2663_29166)"/>
<mask id="path-53-inside-26_2663_29166" fill="white">
<path d="M859.1 78.1016H937.2V156.202H859.1V78.1016Z"/>
</mask>
<path d="M937.2 156.202V157.015H938.013V156.202H937.2ZM937.2 78.1016H936.386V156.202H937.2H938.013V78.1016H937.2ZM937.2 156.202V155.388H859.1V156.202V157.015H937.2V156.202Z" fill="#D0D5DD" mask="url(#path-53-inside-26_2663_29166)"/>
<mask id="path-55-inside-27_2663_29166" fill="white">
<path d="M937.2 78.1016H1015.3V156.202H937.2V78.1016Z"/>
</mask>
<path d="M1015.3 156.202V157.015H1016.11V156.202H1015.3ZM1015.3 78.1016H1014.49V156.202H1015.3H1016.11V78.1016H1015.3ZM1015.3 156.202V155.388H937.2V156.202V157.015H1015.3V156.202Z" fill="#D0D5DD" mask="url(#path-55-inside-27_2663_29166)"/>
<mask id="path-57-inside-28_2663_29166" fill="white">
<path d="M1015.3 78.1016H1093.4V156.202H1015.3V78.1016Z"/>
</mask>
<path d="M1093.4 156.202V157.015H1094.21V156.202H1093.4ZM1093.4 78.1016H1092.59V156.202H1093.4H1094.21V78.1016H1093.4ZM1093.4 156.202V155.388H1015.3V156.202V157.015H1093.4V156.202Z" fill="#D0D5DD" mask="url(#path-57-inside-28_2663_29166)"/>
<mask id="path-59-inside-29_2663_29166" fill="white">
<path d="M1093.4 78.1016H1171.5V156.202H1093.4V78.1016Z"/>
</mask>
<path d="M1093.4 78.1016H1171.5V156.202H1093.4V78.1016Z" fill="#F2F4F7"/>
<path d="M1171.5 156.202V157.015H1172.31V156.202H1171.5ZM1171.5 78.1016H1170.69V156.202H1171.5H1172.31V78.1016H1171.5ZM1171.5 156.202V155.388H1093.4V156.202V157.015H1171.5V156.202Z" fill="#D0D5DD" mask="url(#path-59-inside-29_2663_29166)"/>
<mask id="path-61-inside-30_2663_29166" fill="white">
<path d="M1171.5 78.1016H1249.6V156.202H1171.5V78.1016Z"/>
</mask>
<path d="M1249.6 156.202V157.015H1250.41V156.202H1249.6ZM1249.6 78.1016H1248.79V156.202H1249.6H1250.41V78.1016H1249.6ZM1249.6 156.202V155.388H1171.5V156.202V157.015H1249.6V156.202Z" fill="#D0D5DD" mask="url(#path-61-inside-30_2663_29166)"/>
<mask id="path-63-inside-31_2663_29166" fill="white">
<path d="M1249.6 78.1016H1327.7V156.202H1249.6V78.1016Z"/>
</mask>
<path d="M1327.7 156.202V157.015H1328.51V156.202H1327.7ZM1327.7 78.1016H1326.89V156.202H1327.7H1328.51V78.1016H1327.7ZM1327.7 156.202V155.388H1249.6V156.202V157.015H1327.7V156.202Z" fill="#D0D5DD" mask="url(#path-63-inside-31_2663_29166)"/>
<mask id="path-65-inside-32_2663_29166" fill="white">
<path d="M1327.7 78.1016H1405.8V156.202H1327.7V78.1016Z"/>
</mask>
<path d="M1405.8 156.202V157.015H1406.61V156.202H1405.8ZM1405.8 78.1016H1404.99V156.202H1405.8H1406.61V78.1016H1405.8ZM1405.8 156.202V155.388H1327.7V156.202V157.015H1405.8V156.202Z" fill="#D0D5DD" mask="url(#path-65-inside-32_2663_29166)"/>
<mask id="path-67-inside-33_2663_29166" fill="white">
<path d="M156.2 156.203H234.3V234.303H156.2V156.203Z"/>
</mask>
<path d="M234.3 234.303V235.117H235.114V234.303H234.3ZM234.3 156.203H233.487V234.303H234.3H235.114V156.203H234.3ZM234.3 234.303V233.49H156.2V234.303V235.117H234.3V234.303Z" fill="#D0D5DD" mask="url(#path-67-inside-33_2663_29166)"/>
<mask id="path-69-inside-34_2663_29166" fill="white">
<path d="M234.3 156.203H312.4V234.303H234.3V156.203Z"/>
</mask>
<path d="M312.4 234.303V235.117H313.213V234.303H312.4ZM312.4 156.203H311.586V234.303H312.4H313.213V156.203H312.4ZM312.4 234.303V233.49H234.3V234.303V235.117H312.4V234.303Z" fill="#D0D5DD" mask="url(#path-69-inside-34_2663_29166)"/>
<mask id="path-71-inside-35_2663_29166" fill="white">
<path d="M312.4 156.203H390.5V234.303H312.4V156.203Z"/>
</mask>
<path d="M390.5 234.303V235.117H391.314V234.303H390.5ZM390.5 156.203H389.687V234.303H390.5H391.314V156.203H390.5ZM390.5 234.303V233.49H312.4V234.303V235.117H390.5V234.303Z" fill="#D0D5DD" mask="url(#path-71-inside-35_2663_29166)"/>
<mask id="path-73-inside-36_2663_29166" fill="white">
<path d="M390.5 156.203H468.6V234.303H390.5V156.203Z"/>
</mask>
<path d="M468.6 234.303V235.117H469.414V234.303H468.6ZM468.6 156.203H467.786V234.303H468.6H469.414V156.203H468.6ZM468.6 234.303V233.49H390.5V234.303V235.117H468.6V234.303Z" fill="#D0D5DD" mask="url(#path-73-inside-36_2663_29166)"/>
<mask id="path-75-inside-37_2663_29166" fill="white">
<path d="M468.6 156.203H546.7V234.303H468.6V156.203Z"/>
</mask>
<path d="M546.7 234.303V235.117H547.513V234.303H546.7ZM546.7 156.203H545.886V234.303H546.7H547.513V156.203H546.7ZM546.7 234.303V233.49H468.6V234.303V235.117H546.7V234.303Z" fill="#D0D5DD" mask="url(#path-75-inside-37_2663_29166)"/>
<mask id="path-77-inside-38_2663_29166" fill="white">
<path d="M546.7 156.203H624.8V234.303H546.7V156.203Z"/>
</mask>
<path d="M546.7 156.203H624.8V234.303H546.7V156.203Z" fill="#F2F4F7"/>
<path d="M624.8 234.303V235.117H625.614V234.303H624.8ZM624.8 156.203H623.987V234.303H624.8H625.614V156.203H624.8ZM624.8 234.303V233.49H546.7V234.303V235.117H624.8V234.303Z" fill="#D0D5DD" mask="url(#path-77-inside-38_2663_29166)"/>
<mask id="path-79-inside-39_2663_29166" fill="white">
<path d="M624.8 156.203H702.9V234.303H624.8V156.203Z"/>
</mask>
<path d="M702.9 234.303V235.117H703.713V234.303H702.9ZM702.9 156.203H702.086V234.303H702.9H703.713V156.203H702.9ZM702.9 234.303V233.49H624.8V234.303V235.117H702.9V234.303Z" fill="#D0D5DD" mask="url(#path-79-inside-39_2663_29166)"/>
<mask id="path-81-inside-40_2663_29166" fill="white">
<path d="M702.9 156.203H781V234.303H702.9V156.203Z"/>
</mask>
<path d="M781 234.303V235.117H781.814V234.303H781ZM781 156.203H780.187V234.303H781H781.814V156.203H781ZM781 234.303V233.49H702.9V234.303V235.117H781V234.303Z" fill="#D0D5DD" mask="url(#path-81-inside-40_2663_29166)"/>
<mask id="path-83-inside-41_2663_29166" fill="white">
<path d="M781 156.203H859.1V234.303H781V156.203Z"/>
</mask>
<path d="M859.1 234.303V235.117H859.914V234.303H859.1ZM859.1 156.203H858.286V234.303H859.1H859.914V156.203H859.1ZM859.1 234.303V233.49H781V234.303V235.117H859.1V234.303Z" fill="#D0D5DD" mask="url(#path-83-inside-41_2663_29166)"/>
<mask id="path-85-inside-42_2663_29166" fill="white">
<path d="M859.1 156.203H937.2V234.303H859.1V156.203Z"/>
</mask>
<path d="M859.1 156.203H937.2V234.303H859.1V156.203Z" fill="#F2F4F7"/>
<path d="M937.2 234.303V235.117H938.013V234.303H937.2ZM937.2 156.203H936.386V234.303H937.2H938.013V156.203H937.2ZM937.2 234.303V233.49H859.1V234.303V235.117H937.2V234.303Z" fill="#D0D5DD" mask="url(#path-85-inside-42_2663_29166)"/>
<mask id="path-87-inside-43_2663_29166" fill="white">
<path d="M937.2 156.203H1015.3V234.303H937.2V156.203Z"/>
</mask>
<path d="M1015.3 234.303V235.117H1016.11V234.303H1015.3ZM1015.3 156.203H1014.49V234.303H1015.3H1016.11V156.203H1015.3ZM1015.3 234.303V233.49H937.2V234.303V235.117H1015.3V234.303Z" fill="#D0D5DD" mask="url(#path-87-inside-43_2663_29166)"/>
<mask id="path-89-inside-44_2663_29166" fill="white">
<path d="M1015.3 156.203H1093.4V234.303H1015.3V156.203Z"/>
</mask>
<path d="M1093.4 234.303V235.117H1094.21V234.303H1093.4ZM1093.4 156.203H1092.59V234.303H1093.4H1094.21V156.203H1093.4ZM1093.4 234.303V233.49H1015.3V234.303V235.117H1093.4V234.303Z" fill="#D0D5DD" mask="url(#path-89-inside-44_2663_29166)"/>
<mask id="path-91-inside-45_2663_29166" fill="white">
<path d="M1093.4 156.203H1171.5V234.303H1093.4V156.203Z"/>
</mask>
<path d="M1171.5 234.303V235.117H1172.31V234.303H1171.5ZM1171.5 156.203H1170.69V234.303H1171.5H1172.31V156.203H1171.5ZM1171.5 234.303V233.49H1093.4V234.303V235.117H1171.5V234.303Z" fill="#D0D5DD" mask="url(#path-91-inside-45_2663_29166)"/>
<mask id="path-93-inside-46_2663_29166" fill="white">
<path d="M1171.5 156.203H1249.6V234.303H1171.5V156.203Z"/>
</mask>
<path d="M1249.6 234.303V235.117H1250.41V234.303H1249.6ZM1249.6 156.203H1248.79V234.303H1249.6H1250.41V156.203H1249.6ZM1249.6 234.303V233.49H1171.5V234.303V235.117H1249.6V234.303Z" fill="#D0D5DD" mask="url(#path-93-inside-46_2663_29166)"/>
<mask id="path-95-inside-47_2663_29166" fill="white">
<path d="M1249.6 156.203H1327.7V234.303H1249.6V156.203Z"/>
</mask>
<path d="M1327.7 234.303V235.117H1328.51V234.303H1327.7ZM1327.7 156.203H1326.89V234.303H1327.7H1328.51V156.203H1327.7ZM1327.7 234.303V233.49H1249.6V234.303V235.117H1327.7V234.303Z" fill="#D0D5DD" mask="url(#path-95-inside-47_2663_29166)"/>
<mask id="path-97-inside-48_2663_29166" fill="white">
<path d="M1327.7 156.203H1405.8V234.303H1327.7V156.203Z"/>
</mask>
<path d="M1405.8 234.303V235.117H1406.61V234.303H1405.8ZM1405.8 156.203H1404.99V234.303H1405.8H1406.61V156.203H1405.8ZM1405.8 234.303V233.49H1327.7V234.303V235.117H1405.8V234.303Z" fill="#D0D5DD" mask="url(#path-97-inside-48_2663_29166)"/>
<mask id="path-99-inside-49_2663_29166" fill="white">
<path d="M156.2 234.297H234.3V312.397H156.2V234.297Z"/>
</mask>
<path d="M156.2 234.297H234.3V312.397H156.2V234.297Z" fill="#F2F4F7"/>
<path d="M234.3 312.397V313.21H235.114V312.397H234.3ZM234.3 234.297H233.487V312.397H234.3H235.114V234.297H234.3ZM234.3 312.397V311.583H156.2V312.397V313.21H234.3V312.397Z" fill="#D0D5DD" mask="url(#path-99-inside-49_2663_29166)"/>
<mask id="path-101-inside-50_2663_29166" fill="white">
<path d="M234.3 234.297H312.4V312.397H234.3V234.297Z"/>
</mask>
<path d="M312.4 312.397V313.21H313.213V312.397H312.4ZM312.4 234.297H311.586V312.397H312.4H313.213V234.297H312.4ZM312.4 312.397V311.583H234.3V312.397V313.21H312.4V312.397Z" fill="#D0D5DD" mask="url(#path-101-inside-50_2663_29166)"/>
<mask id="path-103-inside-51_2663_29166" fill="white">
<path d="M312.4 234.297H390.5V312.397H312.4V234.297Z"/>
</mask>
<path d="M390.5 312.397V313.21H391.314V312.397H390.5ZM390.5 234.297H389.687V312.397H390.5H391.314V234.297H390.5ZM390.5 312.397V311.583H312.4V312.397V313.21H390.5V312.397Z" fill="#D0D5DD" mask="url(#path-103-inside-51_2663_29166)"/>
<mask id="path-105-inside-52_2663_29166" fill="white">
<path d="M390.5 234.297H468.6V312.397H390.5V234.297Z"/>
</mask>
<path d="M468.6 312.397V313.21H469.414V312.397H468.6ZM468.6 234.297H467.786V312.397H468.6H469.414V234.297H468.6ZM468.6 312.397V311.583H390.5V312.397V313.21H468.6V312.397Z" fill="#D0D5DD" mask="url(#path-105-inside-52_2663_29166)"/>
<mask id="path-107-inside-53_2663_29166" fill="white">
<path d="M468.6 234.297H546.7V312.397H468.6V234.297Z"/>
</mask>
<path d="M546.7 312.397V313.21H547.513V312.397H546.7ZM546.7 234.297H545.886V312.397H546.7H547.513V234.297H546.7ZM546.7 312.397V311.583H468.6V312.397V313.21H546.7V312.397Z" fill="#D0D5DD" mask="url(#path-107-inside-53_2663_29166)"/>
<mask id="path-109-inside-54_2663_29166" fill="white">
<path d="M546.7 234.297H624.8V312.397H546.7V234.297Z"/>
</mask>
<path d="M624.8 312.397V313.21H625.614V312.397H624.8ZM624.8 234.297H623.987V312.397H624.8H625.614V234.297H624.8ZM624.8 312.397V311.583H546.7V312.397V313.21H624.8V312.397Z" fill="#D0D5DD" mask="url(#path-109-inside-54_2663_29166)"/>
<mask id="path-111-inside-55_2663_29166" fill="white">
<path d="M624.8 234.297H702.9V312.397H624.8V234.297Z"/>
</mask>
<path d="M702.9 312.397V313.21H703.713V312.397H702.9ZM702.9 234.297H702.086V312.397H702.9H703.713V234.297H702.9ZM702.9 312.397V311.583H624.8V312.397V313.21H702.9V312.397Z" fill="#D0D5DD" mask="url(#path-111-inside-55_2663_29166)"/>
<mask id="path-113-inside-56_2663_29166" fill="white">
<path d="M702.9 234.297H781V312.397H702.9V234.297Z"/>
</mask>
<path d="M781 312.397V313.21H781.814V312.397H781ZM781 234.297H780.187V312.397H781H781.814V234.297H781ZM781 312.397V311.583H702.9V312.397V313.21H781V312.397Z" fill="#D0D5DD" mask="url(#path-113-inside-56_2663_29166)"/>
<mask id="path-115-inside-57_2663_29166" fill="white">
<path d="M781 234.297H859.1V312.397H781V234.297Z"/>
</mask>
<path d="M859.1 312.397V313.21H859.914V312.397H859.1ZM859.1 234.297H858.286V312.397H859.1H859.914V234.297H859.1ZM859.1 312.397V311.583H781V312.397V313.21H859.1V312.397Z" fill="#D0D5DD" mask="url(#path-115-inside-57_2663_29166)"/>
<mask id="path-117-inside-58_2663_29166" fill="white">
<path d="M859.1 234.297H937.2V312.397H859.1V234.297Z"/>
</mask>
<path d="M937.2 312.397V313.21H938.013V312.397H937.2ZM937.2 234.297H936.386V312.397H937.2H938.013V234.297H937.2ZM937.2 312.397V311.583H859.1V312.397V313.21H937.2V312.397Z" fill="#D0D5DD" mask="url(#path-117-inside-58_2663_29166)"/>
<mask id="path-119-inside-59_2663_29166" fill="white">
<path d="M937.2 234.297H1015.3V312.397H937.2V234.297Z"/>
</mask>
<path d="M1015.3 312.397V313.21H1016.11V312.397H1015.3ZM1015.3 234.297H1014.49V312.397H1015.3H1016.11V234.297H1015.3ZM1015.3 312.397V311.583H937.2V312.397V313.21H1015.3V312.397Z" fill="#D0D5DD" mask="url(#path-119-inside-59_2663_29166)"/>
<mask id="path-121-inside-60_2663_29166" fill="white">
<path d="M1015.3 234.297H1093.4V312.397H1015.3V234.297Z"/>
</mask>
<path d="M1093.4 312.397V313.21H1094.21V312.397H1093.4ZM1093.4 234.297H1092.59V312.397H1093.4H1094.21V234.297H1093.4ZM1093.4 312.397V311.583H1015.3V312.397V313.21H1093.4V312.397Z" fill="#D0D5DD" mask="url(#path-121-inside-60_2663_29166)"/>
<mask id="path-123-inside-61_2663_29166" fill="white">
<path d="M1093.4 234.297H1171.5V312.397H1093.4V234.297Z"/>
</mask>
<path d="M1093.4 234.297H1171.5V312.397H1093.4V234.297Z" fill="#F2F4F7"/>
<path d="M1171.5 312.397V313.21H1172.31V312.397H1171.5ZM1171.5 234.297H1170.69V312.397H1171.5H1172.31V234.297H1171.5ZM1171.5 312.397V311.583H1093.4V312.397V313.21H1171.5V312.397Z" fill="#D0D5DD" mask="url(#path-123-inside-61_2663_29166)"/>
<mask id="path-125-inside-62_2663_29166" fill="white">
<path d="M1171.5 234.297H1249.6V312.397H1171.5V234.297Z"/>
</mask>
<path d="M1249.6 312.397V313.21H1250.41V312.397H1249.6ZM1249.6 234.297H1248.79V312.397H1249.6H1250.41V234.297H1249.6ZM1249.6 312.397V311.583H1171.5V312.397V313.21H1249.6V312.397Z" fill="#D0D5DD" mask="url(#path-125-inside-62_2663_29166)"/>
<mask id="path-127-inside-63_2663_29166" fill="white">
<path d="M1249.6 234.297H1327.7V312.397H1249.6V234.297Z"/>
</mask>
<path d="M1327.7 312.397V313.21H1328.51V312.397H1327.7ZM1327.7 234.297H1326.89V312.397H1327.7H1328.51V234.297H1327.7ZM1327.7 312.397V311.583H1249.6V312.397V313.21H1327.7V312.397Z" fill="#D0D5DD" mask="url(#path-127-inside-63_2663_29166)"/>
<mask id="path-129-inside-64_2663_29166" fill="white">
<path d="M1327.7 234.297H1405.8V312.397H1327.7V234.297Z"/>
</mask>
<path d="M1405.8 312.397V313.21H1406.61V312.397H1405.8ZM1405.8 234.297H1404.99V312.397H1405.8H1406.61V234.297H1405.8ZM1405.8 312.397V311.583H1327.7V312.397V313.21H1405.8V312.397Z" fill="#D0D5DD" mask="url(#path-129-inside-64_2663_29166)"/>
<mask id="path-131-inside-65_2663_29166" fill="white">
<path d="M156.2 312.398H234.3V390.498H156.2V312.398Z"/>
</mask>
<path d="M234.3 390.498V391.312H235.114V390.498H234.3ZM234.3 312.398H233.487V390.498H234.3H235.114V312.398H234.3ZM234.3 390.498V389.685H156.2V390.498V391.312H234.3V390.498Z" fill="#D0D5DD" mask="url(#path-131-inside-65_2663_29166)"/>
<mask id="path-133-inside-66_2663_29166" fill="white">
<path d="M234.3 312.398H312.4V390.498H234.3V312.398Z"/>
</mask>
<path d="M312.4 390.498V391.312H313.213V390.498H312.4ZM312.4 312.398H311.586V390.498H312.4H313.213V312.398H312.4ZM312.4 390.498V389.685H234.3V390.498V391.312H312.4V390.498Z" fill="#D0D5DD" mask="url(#path-133-inside-66_2663_29166)"/>
<mask id="path-135-inside-67_2663_29166" fill="white">
<path d="M312.4 312.398H390.5V390.498H312.4V312.398Z"/>
</mask>
<path d="M390.5 390.498V391.312H391.314V390.498H390.5ZM390.5 312.398H389.687V390.498H390.5H391.314V312.398H390.5ZM390.5 390.498V389.685H312.4V390.498V391.312H390.5V390.498Z" fill="#D0D5DD" mask="url(#path-135-inside-67_2663_29166)"/>
<mask id="path-137-inside-68_2663_29166" fill="white">
<path d="M390.5 312.398H468.6V390.498H390.5V312.398Z"/>
</mask>
<path d="M468.6 390.498V391.312H469.414V390.498H468.6ZM468.6 312.398H467.786V390.498H468.6H469.414V312.398H468.6ZM468.6 390.498V389.685H390.5V390.498V391.312H468.6V390.498Z" fill="#D0D5DD" mask="url(#path-137-inside-68_2663_29166)"/>
<mask id="path-139-inside-69_2663_29166" fill="white">
<path d="M468.6 312.398H546.7V390.498H468.6V312.398Z"/>
</mask>
<path d="M546.7 390.498V391.312H547.513V390.498H546.7ZM546.7 312.398H545.886V390.498H546.7H547.513V312.398H546.7ZM546.7 390.498V389.685H468.6V390.498V391.312H546.7V390.498Z" fill="#D0D5DD" mask="url(#path-139-inside-69_2663_29166)"/>
<mask id="path-141-inside-70_2663_29166" fill="white">
<path d="M546.7 312.398H624.8V390.498H546.7V312.398Z"/>
</mask>
<path d="M624.8 390.498V391.312H625.614V390.498H624.8ZM624.8 312.398H623.987V390.498H624.8H625.614V312.398H624.8ZM624.8 390.498V389.685H546.7V390.498V391.312H624.8V390.498Z" fill="#D0D5DD" mask="url(#path-141-inside-70_2663_29166)"/>
<mask id="path-143-inside-71_2663_29166" fill="white">
<path d="M624.8 312.398H702.9V390.498H624.8V312.398Z"/>
</mask>
<path d="M624.8 312.398H702.9V390.498H624.8V312.398Z" fill="#F2F4F7"/>
<path d="M702.9 390.498V391.312H703.713V390.498H702.9ZM702.9 312.398H702.086V390.498H702.9H703.713V312.398H702.9ZM702.9 390.498V389.685H624.8V390.498V391.312H702.9V390.498Z" fill="#D0D5DD" mask="url(#path-143-inside-71_2663_29166)"/>
<mask id="path-145-inside-72_2663_29166" fill="white">
<path d="M702.9 312.398H781V390.498H702.9V312.398Z"/>
</mask>
<path d="M781 390.498V391.312H781.814V390.498H781ZM781 312.398H780.187V390.498H781H781.814V312.398H781ZM781 390.498V389.685H702.9V390.498V391.312H781V390.498Z" fill="#D0D5DD" mask="url(#path-145-inside-72_2663_29166)"/>
<mask id="path-147-inside-73_2663_29166" fill="white">
<path d="M781 312.398H859.1V390.498H781V312.398Z"/>
</mask>
<path d="M859.1 390.498V391.312H859.914V390.498H859.1ZM859.1 312.398H858.286V390.498H859.1H859.914V312.398H859.1ZM859.1 390.498V389.685H781V390.498V391.312H859.1V390.498Z" fill="#D0D5DD" mask="url(#path-147-inside-73_2663_29166)"/>
<mask id="path-149-inside-74_2663_29166" fill="white">
<path d="M859.1 312.398H937.2V390.498H859.1V312.398Z"/>
</mask>
<path d="M937.2 390.498V391.312H938.013V390.498H937.2ZM937.2 312.398H936.386V390.498H937.2H938.013V312.398H937.2ZM937.2 390.498V389.685H859.1V390.498V391.312H937.2V390.498Z" fill="#D0D5DD" mask="url(#path-149-inside-74_2663_29166)"/>
<mask id="path-151-inside-75_2663_29166" fill="white">
<path d="M937.2 312.398H1015.3V390.498H937.2V312.398Z"/>
</mask>
<path d="M1015.3 390.498V391.312H1016.11V390.498H1015.3ZM1015.3 312.398H1014.49V390.498H1015.3H1016.11V312.398H1015.3ZM1015.3 390.498V389.685H937.2V390.498V391.312H1015.3V390.498Z" fill="#D0D5DD" mask="url(#path-151-inside-75_2663_29166)"/>
<mask id="path-153-inside-76_2663_29166" fill="white">
<path d="M1015.3 312.398H1093.4V390.498H1015.3V312.398Z"/>
</mask>
<path d="M1093.4 390.498V391.312H1094.21V390.498H1093.4ZM1093.4 312.398H1092.59V390.498H1093.4H1094.21V312.398H1093.4ZM1093.4 390.498V389.685H1015.3V390.498V391.312H1093.4V390.498Z" fill="#D0D5DD" mask="url(#path-153-inside-76_2663_29166)"/>
<mask id="path-155-inside-77_2663_29166" fill="white">
<path d="M1093.4 312.398H1171.5V390.498H1093.4V312.398Z"/>
</mask>
<path d="M1171.5 390.498V391.312H1172.31V390.498H1171.5ZM1171.5 312.398H1170.69V390.498H1171.5H1172.31V312.398H1171.5ZM1171.5 390.498V389.685H1093.4V390.498V391.312H1171.5V390.498Z" fill="#D0D5DD" mask="url(#path-155-inside-77_2663_29166)"/>
<mask id="path-157-inside-78_2663_29166" fill="white">
<path d="M1171.5 312.398H1249.6V390.498H1171.5V312.398Z"/>
</mask>
<path d="M1249.6 390.498V391.312H1250.41V390.498H1249.6ZM1249.6 312.398H1248.79V390.498H1249.6H1250.41V312.398H1249.6ZM1249.6 390.498V389.685H1171.5V390.498V391.312H1249.6V390.498Z" fill="#D0D5DD" mask="url(#path-157-inside-78_2663_29166)"/>
<mask id="path-159-inside-79_2663_29166" fill="white">
<path d="M1249.6 312.398H1327.7V390.498H1249.6V312.398Z"/>
</mask>
<path d="M1327.7 390.498V391.312H1328.51V390.498H1327.7ZM1327.7 312.398H1326.89V390.498H1327.7H1328.51V312.398H1327.7ZM1327.7 390.498V389.685H1249.6V390.498V391.312H1327.7V390.498Z" fill="#D0D5DD" mask="url(#path-159-inside-79_2663_29166)"/>
<mask id="path-161-inside-80_2663_29166" fill="white">
<path d="M1327.7 312.398H1405.8V390.498H1327.7V312.398Z"/>
</mask>
<path d="M1405.8 390.498V391.312H1406.61V390.498H1405.8ZM1405.8 312.398H1404.99V390.498H1405.8H1406.61V312.398H1405.8ZM1405.8 390.498V389.685H1327.7V390.498V391.312H1405.8V390.498Z" fill="#D0D5DD" mask="url(#path-161-inside-80_2663_29166)"/>
<mask id="path-163-inside-81_2663_29166" fill="white">
<path d="M156.2 390.5H234.3V468.6H156.2V390.5Z"/>
</mask>
<path d="M234.3 468.6V469.414H235.114V468.6H234.3ZM234.3 390.5H233.487V468.6H234.3H235.114V390.5H234.3ZM234.3 468.6V467.786H156.2V468.6V469.414H234.3V468.6Z" fill="#D0D5DD" mask="url(#path-163-inside-81_2663_29166)"/>
<mask id="path-165-inside-82_2663_29166" fill="white">
<path d="M234.3 390.5H312.4V468.6H234.3V390.5Z"/>
</mask>
<path d="M312.4 468.6V469.414H313.213V468.6H312.4ZM312.4 390.5H311.586V468.6H312.4H313.213V390.5H312.4ZM312.4 468.6V467.786H234.3V468.6V469.414H312.4V468.6Z" fill="#D0D5DD" mask="url(#path-165-inside-82_2663_29166)"/>
<mask id="path-167-inside-83_2663_29166" fill="white">
<path d="M312.4 390.5H390.5V468.6H312.4V390.5Z"/>
</mask>
<path d="M390.5 468.6V469.414H391.314V468.6H390.5ZM390.5 390.5H389.687V468.6H390.5H391.314V390.5H390.5ZM390.5 468.6V467.786H312.4V468.6V469.414H390.5V468.6Z" fill="#D0D5DD" mask="url(#path-167-inside-83_2663_29166)"/>
<mask id="path-169-inside-84_2663_29166" fill="white">
<path d="M390.5 390.5H468.6V468.6H390.5V390.5Z"/>
</mask>
<path d="M390.5 390.5H468.6V468.6H390.5V390.5Z" fill="#F2F4F7"/>
<path d="M468.6 468.6V469.414H469.414V468.6H468.6ZM468.6 390.5H467.786V468.6H468.6H469.414V390.5H468.6ZM468.6 468.6V467.786H390.5V468.6V469.414H468.6V468.6Z" fill="#D0D5DD" mask="url(#path-169-inside-84_2663_29166)"/>
<mask id="path-171-inside-85_2663_29166" fill="white">
<path d="M468.6 390.5H546.7V468.6H468.6V390.5Z"/>
</mask>
<path d="M546.7 468.6V469.414H547.513V468.6H546.7ZM546.7 390.5H545.886V468.6H546.7H547.513V390.5H546.7ZM546.7 468.6V467.786H468.6V468.6V469.414H546.7V468.6Z" fill="#D0D5DD" mask="url(#path-171-inside-85_2663_29166)"/>
<mask id="path-173-inside-86_2663_29166" fill="white">
<path d="M546.7 390.5H624.8V468.6H546.7V390.5Z"/>
</mask>
<path d="M624.8 468.6V469.414H625.614V468.6H624.8ZM624.8 390.5H623.987V468.6H624.8H625.614V390.5H624.8ZM624.8 468.6V467.786H546.7V468.6V469.414H624.8V468.6Z" fill="#D0D5DD" mask="url(#path-173-inside-86_2663_29166)"/>
<mask id="path-175-inside-87_2663_29166" fill="white">
<path d="M624.8 390.5H702.9V468.6H624.8V390.5Z"/>
</mask>
<path d="M702.9 468.6V469.414H703.713V468.6H702.9ZM702.9 390.5H702.086V468.6H702.9H703.713V390.5H702.9ZM702.9 468.6V467.786H624.8V468.6V469.414H702.9V468.6Z" fill="#D0D5DD" mask="url(#path-175-inside-87_2663_29166)"/>
<mask id="path-177-inside-88_2663_29166" fill="white">
<path d="M702.9 390.5H781V468.6H702.9V390.5Z"/>
</mask>
<path d="M781 468.6V469.414H781.814V468.6H781ZM781 390.5H780.187V468.6H781H781.814V390.5H781ZM781 468.6V467.786H702.9V468.6V469.414H781V468.6Z" fill="#D0D5DD" mask="url(#path-177-inside-88_2663_29166)"/>
<mask id="path-179-inside-89_2663_29166" fill="white">
<path d="M781 390.5H859.1V468.6H781V390.5Z"/>
</mask>
<path d="M859.1 468.6V469.414H859.914V468.6H859.1ZM859.1 390.5H858.286V468.6H859.1H859.914V390.5H859.1ZM859.1 468.6V467.786H781V468.6V469.414H859.1V468.6Z" fill="#D0D5DD" mask="url(#path-179-inside-89_2663_29166)"/>
<mask id="path-181-inside-90_2663_29166" fill="white">
<path d="M859.1 390.5H937.2V468.6H859.1V390.5Z"/>
</mask>
<path d="M859.1 390.5H937.2V468.6H859.1V390.5Z" fill="#F2F4F7"/>
<path d="M937.2 468.6V469.414H938.013V468.6H937.2ZM937.2 390.5H936.386V468.6H937.2H938.013V390.5H937.2ZM937.2 468.6V467.786H859.1V468.6V469.414H937.2V468.6Z" fill="#D0D5DD" mask="url(#path-181-inside-90_2663_29166)"/>
<mask id="path-183-inside-91_2663_29166" fill="white">
<path d="M937.2 390.5H1015.3V468.6H937.2V390.5Z"/>
</mask>
<path d="M1015.3 468.6V469.414H1016.11V468.6H1015.3ZM1015.3 390.5H1014.49V468.6H1015.3H1016.11V390.5H1015.3ZM1015.3 468.6V467.786H937.2V468.6V469.414H1015.3V468.6Z" fill="#D0D5DD" mask="url(#path-183-inside-91_2663_29166)"/>
<mask id="path-185-inside-92_2663_29166" fill="white">
<path d="M1015.3 390.5H1093.4V468.6H1015.3V390.5Z"/>
</mask>
<path d="M1093.4 468.6V469.414H1094.21V468.6H1093.4ZM1093.4 390.5H1092.59V468.6H1093.4H1094.21V390.5H1093.4ZM1093.4 468.6V467.786H1015.3V468.6V469.414H1093.4V468.6Z" fill="#D0D5DD" mask="url(#path-185-inside-92_2663_29166)"/>
<mask id="path-187-inside-93_2663_29166" fill="white">
<path d="M1093.4 390.5H1171.5V468.6H1093.4V390.5Z"/>
</mask>
<path d="M1171.5 468.6V469.414H1172.31V468.6H1171.5ZM1171.5 390.5H1170.69V468.6H1171.5H1172.31V390.5H1171.5ZM1171.5 468.6V467.786H1093.4V468.6V469.414H1171.5V468.6Z" fill="#D0D5DD" mask="url(#path-187-inside-93_2663_29166)"/>
<mask id="path-189-inside-94_2663_29166" fill="white">
<path d="M1171.5 390.5H1249.6V468.6H1171.5V390.5Z"/>
</mask>
<path d="M1249.6 468.6V469.414H1250.41V468.6H1249.6ZM1249.6 390.5H1248.79V468.6H1249.6H1250.41V390.5H1249.6ZM1249.6 468.6V467.786H1171.5V468.6V469.414H1249.6V468.6Z" fill="#D0D5DD" mask="url(#path-189-inside-94_2663_29166)"/>
<mask id="path-191-inside-95_2663_29166" fill="white">
<path d="M1249.6 390.5H1327.7V468.6H1249.6V390.5Z"/>
</mask>
<path d="M1327.7 468.6V469.414H1328.51V468.6H1327.7ZM1327.7 390.5H1326.89V468.6H1327.7H1328.51V390.5H1327.7ZM1327.7 468.6V467.786H1249.6V468.6V469.414H1327.7V468.6Z" fill="#D0D5DD" mask="url(#path-191-inside-95_2663_29166)"/>
<mask id="path-193-inside-96_2663_29166" fill="white">
<path d="M1327.7 390.5H1405.8V468.6H1327.7V390.5Z"/>
</mask>
<path d="M1405.8 468.6V469.414H1406.61V468.6H1405.8ZM1405.8 390.5H1404.99V468.6H1405.8H1406.61V390.5H1405.8ZM1405.8 468.6V467.786H1327.7V468.6V469.414H1405.8V468.6Z" fill="#D0D5DD" mask="url(#path-193-inside-96_2663_29166)"/>
<mask id="path-195-inside-97_2663_29166" fill="white">
<path d="M156.2 468.602H234.3V546.702H156.2V468.602Z"/>
</mask>
<path d="M234.3 546.702V547.515H235.114V546.702H234.3ZM234.3 468.602H233.487V546.702H234.3H235.114V468.602H234.3ZM234.3 546.702V545.888H156.2V546.702V547.515H234.3V546.702Z" fill="#D0D5DD" mask="url(#path-195-inside-97_2663_29166)"/>
<mask id="path-197-inside-98_2663_29166" fill="white">
<path d="M234.3 468.602H312.4V546.702H234.3V468.602Z"/>
</mask>
<path d="M234.3 468.602H312.4V546.702H234.3V468.602Z" fill="#F2F4F7"/>
<path d="M312.4 546.702V547.515H313.213V546.702H312.4ZM312.4 468.602H311.586V546.702H312.4H313.213V468.602H312.4ZM312.4 546.702V545.888H234.3V546.702V547.515H312.4V546.702Z" fill="#D0D5DD" mask="url(#path-197-inside-98_2663_29166)"/>
<mask id="path-199-inside-99_2663_29166" fill="white">
<path d="M312.4 468.602H390.5V546.702H312.4V468.602Z"/>
</mask>
<path d="M390.5 546.702V547.515H391.314V546.702H390.5ZM390.5 468.602H389.687V546.702H390.5H391.314V468.602H390.5ZM390.5 546.702V545.888H312.4V546.702V547.515H390.5V546.702Z" fill="#D0D5DD" mask="url(#path-199-inside-99_2663_29166)"/>
<mask id="path-201-inside-100_2663_29166" fill="white">
<path d="M390.5 468.602H468.6V546.702H390.5V468.602Z"/>
</mask>
<path d="M468.6 546.702V547.515H469.414V546.702H468.6ZM468.6 468.602H467.786V546.702H468.6H469.414V468.602H468.6ZM468.6 546.702V545.888H390.5V546.702V547.515H468.6V546.702Z" fill="#D0D5DD" mask="url(#path-201-inside-100_2663_29166)"/>
<mask id="path-203-inside-101_2663_29166" fill="white">
<path d="M468.6 468.602H546.7V546.702H468.6V468.602Z"/>
</mask>
<path d="M546.7 546.702V547.515H547.513V546.702H546.7ZM546.7 468.602H545.886V546.702H546.7H547.513V468.602H546.7ZM546.7 546.702V545.888H468.6V546.702V547.515H546.7V546.702Z" fill="#D0D5DD" mask="url(#path-203-inside-101_2663_29166)"/>
<mask id="path-205-inside-102_2663_29166" fill="white">
<path d="M546.7 468.602H624.8V546.702H546.7V468.602Z"/>
</mask>
<path d="M624.8 546.702V547.515H625.614V546.702H624.8ZM624.8 468.602H623.987V546.702H624.8H625.614V468.602H624.8ZM624.8 546.702V545.888H546.7V546.702V547.515H624.8V546.702Z" fill="#D0D5DD" mask="url(#path-205-inside-102_2663_29166)"/>
<mask id="path-207-inside-103_2663_29166" fill="white">
<path d="M624.8 468.602H702.9V546.702H624.8V468.602Z"/>
</mask>
<path d="M702.9 546.702V547.515H703.713V546.702H702.9ZM702.9 468.602H702.086V546.702H702.9H703.713V468.602H702.9ZM702.9 546.702V545.888H624.8V546.702V547.515H702.9V546.702Z" fill="#D0D5DD" mask="url(#path-207-inside-103_2663_29166)"/>
<mask id="path-209-inside-104_2663_29166" fill="white">
<path d="M702.9 468.602H781V546.702H702.9V468.602Z"/>
</mask>
<path d="M781 546.702V547.515H781.814V546.702H781ZM781 468.602H780.187V546.702H781H781.814V468.602H781ZM781 546.702V545.888H702.9V546.702V547.515H781V546.702Z" fill="#D0D5DD" mask="url(#path-209-inside-104_2663_29166)"/>
<mask id="path-211-inside-105_2663_29166" fill="white">
<path d="M781 468.602H859.1V546.702H781V468.602Z"/>
</mask>
<path d="M859.1 546.702V547.515H859.914V546.702H859.1ZM859.1 468.602H858.286V546.702H859.1H859.914V468.602H859.1ZM859.1 546.702V545.888H781V546.702V547.515H859.1V546.702Z" fill="#D0D5DD" mask="url(#path-211-inside-105_2663_29166)"/>
<mask id="path-213-inside-106_2663_29166" fill="white">
<path d="M859.1 468.602H937.2V546.702H859.1V468.602Z"/>
</mask>
<path d="M937.2 546.702V547.515H938.013V546.702H937.2ZM937.2 468.602H936.386V546.702H937.2H938.013V468.602H937.2ZM937.2 546.702V545.888H859.1V546.702V547.515H937.2V546.702Z" fill="#D0D5DD" mask="url(#path-213-inside-106_2663_29166)"/>
<mask id="path-215-inside-107_2663_29166" fill="white">
<path d="M937.2 468.602H1015.3V546.702H937.2V468.602Z"/>
</mask>
<path d="M1015.3 546.702V547.515H1016.11V546.702H1015.3ZM1015.3 468.602H1014.49V546.702H1015.3H1016.11V468.602H1015.3ZM1015.3 546.702V545.888H937.2V546.702V547.515H1015.3V546.702Z" fill="#D0D5DD" mask="url(#path-215-inside-107_2663_29166)"/>
<mask id="path-217-inside-108_2663_29166" fill="white">
<path d="M1015.3 468.602H1093.4V546.702H1015.3V468.602Z"/>
</mask>
<path d="M1093.4 546.702V547.515H1094.21V546.702H1093.4ZM1093.4 468.602H1092.59V546.702H1093.4H1094.21V468.602H1093.4ZM1093.4 546.702V545.888H1015.3V546.702V547.515H1093.4V546.702Z" fill="#D0D5DD" mask="url(#path-217-inside-108_2663_29166)"/>
<mask id="path-219-inside-109_2663_29166" fill="white">
<path d="M1093.4 468.602H1171.5V546.702H1093.4V468.602Z"/>
</mask>
<path d="M1171.5 546.702V547.515H1172.31V546.702H1171.5ZM1171.5 468.602H1170.69V546.702H1171.5H1172.31V468.602H1171.5ZM1171.5 546.702V545.888H1093.4V546.702V547.515H1171.5V546.702Z" fill="#D0D5DD" mask="url(#path-219-inside-109_2663_29166)"/>
<mask id="path-221-inside-110_2663_29166" fill="white">
<path d="M1171.5 468.602H1249.6V546.702H1171.5V468.602Z"/>
</mask>
<path d="M1249.6 546.702V547.515H1250.41V546.702H1249.6ZM1249.6 468.602H1248.79V546.702H1249.6H1250.41V468.602H1249.6ZM1249.6 546.702V545.888H1171.5V546.702V547.515H1249.6V546.702Z" fill="#D0D5DD" mask="url(#path-221-inside-110_2663_29166)"/>
<mask id="path-223-inside-111_2663_29166" fill="white">
<path d="M1249.6 468.602H1327.7V546.702H1249.6V468.602Z"/>
</mask>
<path d="M1249.6 468.602H1327.7V546.702H1249.6V468.602Z" fill="#F2F4F7"/>
<path d="M1327.7 546.702V547.515H1328.51V546.702H1327.7ZM1327.7 468.602H1326.89V546.702H1327.7H1328.51V468.602H1327.7ZM1327.7 546.702V545.888H1249.6V546.702V547.515H1327.7V546.702Z" fill="#D0D5DD" mask="url(#path-223-inside-111_2663_29166)"/>
<mask id="path-225-inside-112_2663_29166" fill="white">
<path d="M1327.7 468.602H1405.8V546.702H1327.7V468.602Z"/>
</mask>
<path d="M1405.8 546.702V547.515H1406.61V546.702H1405.8ZM1405.8 468.602H1404.99V546.702H1405.8H1406.61V468.602H1405.8ZM1405.8 546.702V545.888H1327.7V546.702V547.515H1405.8V546.702Z" fill="#D0D5DD" mask="url(#path-225-inside-112_2663_29166)"/>
<mask id="path-227-inside-113_2663_29166" fill="white">
<path d="M156.2 546.703H234.3V624.803H156.2V546.703Z"/>
</mask>
<path d="M234.3 624.803V625.617H235.114V624.803H234.3ZM234.3 546.703H233.487V624.803H234.3H235.114V546.703H234.3ZM234.3 624.803V623.99H156.2V624.803V625.617H234.3V624.803Z" fill="#D0D5DD" mask="url(#path-227-inside-113_2663_29166)"/>
<mask id="path-229-inside-114_2663_29166" fill="white">
<path d="M234.3 546.703H312.4V624.803H234.3V546.703Z"/>
</mask>
<path d="M312.4 624.803V625.617H313.213V624.803H312.4ZM312.4 546.703H311.586V624.803H312.4H313.213V546.703H312.4ZM312.4 624.803V623.99H234.3V624.803V625.617H312.4V624.803Z" fill="#D0D5DD" mask="url(#path-229-inside-114_2663_29166)"/>
<mask id="path-231-inside-115_2663_29166" fill="white">
<path d="M312.4 546.703H390.5V624.803H312.4V546.703Z"/>
</mask>
<path d="M390.5 624.803V625.617H391.314V624.803H390.5ZM390.5 546.703H389.687V624.803H390.5H391.314V546.703H390.5ZM390.5 624.803V623.99H312.4V624.803V625.617H390.5V624.803Z" fill="#D0D5DD" mask="url(#path-231-inside-115_2663_29166)"/>
<mask id="path-233-inside-116_2663_29166" fill="white">
<path d="M390.5 546.703H468.6V624.803H390.5V546.703Z"/>
</mask>
<path d="M468.6 624.803V625.617H469.414V624.803H468.6ZM468.6 546.703H467.786V624.803H468.6H469.414V546.703H468.6ZM468.6 624.803V623.99H390.5V624.803V625.617H468.6V624.803Z" fill="#D0D5DD" mask="url(#path-233-inside-116_2663_29166)"/>
<mask id="path-235-inside-117_2663_29166" fill="white">
<path d="M468.6 546.703H546.7V624.803H468.6V546.703Z"/>
</mask>
<path d="M546.7 624.803V625.617H547.513V624.803H546.7ZM546.7 546.703H545.886V624.803H546.7H547.513V546.703H546.7ZM546.7 624.803V623.99H468.6V624.803V625.617H546.7V624.803Z" fill="#D0D5DD" mask="url(#path-235-inside-117_2663_29166)"/>
<mask id="path-237-inside-118_2663_29166" fill="white">
<path d="M546.7 546.703H624.8V624.803H546.7V546.703Z"/>
</mask>
<path d="M624.8 624.803V625.617H625.614V624.803H624.8ZM624.8 546.703H623.987V624.803H624.8H625.614V546.703H624.8ZM624.8 624.803V623.99H546.7V624.803V625.617H624.8V624.803Z" fill="#D0D5DD" mask="url(#path-237-inside-118_2663_29166)"/>
<mask id="path-239-inside-119_2663_29166" fill="white">
<path d="M624.8 546.703H702.9V624.803H624.8V546.703Z"/>
</mask>
<path d="M624.8 546.703H702.9V624.803H624.8V546.703Z" fill="#F2F4F7"/>
<path d="M702.9 624.803V625.617H703.713V624.803H702.9ZM702.9 546.703H702.086V624.803H702.9H703.713V546.703H702.9ZM702.9 624.803V623.99H624.8V624.803V625.617H702.9V624.803Z" fill="#D0D5DD" mask="url(#path-239-inside-119_2663_29166)"/>
<mask id="path-241-inside-120_2663_29166" fill="white">
<path d="M702.9 546.703H781V624.803H702.9V546.703Z"/>
</mask>
<path d="M781 624.803V625.617H781.814V624.803H781ZM781 546.703H780.187V624.803H781H781.814V546.703H781ZM781 624.803V623.99H702.9V624.803V625.617H781V624.803Z" fill="#D0D5DD" mask="url(#path-241-inside-120_2663_29166)"/>
<mask id="path-243-inside-121_2663_29166" fill="white">
<path d="M781 546.703H859.1V624.803H781V546.703Z"/>
</mask>
<path d="M859.1 624.803V625.617H859.914V624.803H859.1ZM859.1 546.703H858.286V624.803H859.1H859.914V546.703H859.1ZM859.1 624.803V623.99H781V624.803V625.617H859.1V624.803Z" fill="#D0D5DD" mask="url(#path-243-inside-121_2663_29166)"/>
<mask id="path-245-inside-122_2663_29166" fill="white">
<path d="M859.1 546.703H937.2V624.803H859.1V546.703Z"/>
</mask>
<path d="M937.2 624.803V625.617H938.013V624.803H937.2ZM937.2 546.703H936.386V624.803H937.2H938.013V546.703H937.2ZM937.2 624.803V623.99H859.1V624.803V625.617H937.2V624.803Z" fill="#D0D5DD" mask="url(#path-245-inside-122_2663_29166)"/>
<mask id="path-247-inside-123_2663_29166" fill="white">
<path d="M937.2 546.703H1015.3V624.803H937.2V546.703Z"/>
</mask>
<path d="M1015.3 624.803V625.617H1016.11V624.803H1015.3ZM1015.3 546.703H1014.49V624.803H1015.3H1016.11V546.703H1015.3ZM1015.3 624.803V623.99H937.2V624.803V625.617H1015.3V624.803Z" fill="#D0D5DD" mask="url(#path-247-inside-123_2663_29166)"/>
<mask id="path-249-inside-124_2663_29166" fill="white">
<path d="M1015.3 546.703H1093.4V624.803H1015.3V546.703Z"/>
</mask>
<path d="M1093.4 624.803V625.617H1094.21V624.803H1093.4ZM1093.4 546.703H1092.59V624.803H1093.4H1094.21V546.703H1093.4ZM1093.4 624.803V623.99H1015.3V624.803V625.617H1093.4V624.803Z" fill="#D0D5DD" mask="url(#path-249-inside-124_2663_29166)"/>
<mask id="path-251-inside-125_2663_29166" fill="white">
<path d="M1093.4 546.703H1171.5V624.803H1093.4V546.703Z"/>
</mask>
<path d="M1093.4 546.703H1171.5V624.803H1093.4V546.703Z" fill="#F2F4F7"/>
<path d="M1171.5 624.803V625.617H1172.31V624.803H1171.5ZM1171.5 546.703H1170.69V624.803H1171.5H1172.31V546.703H1171.5ZM1171.5 624.803V623.99H1093.4V624.803V625.617H1171.5V624.803Z" fill="#D0D5DD" mask="url(#path-251-inside-125_2663_29166)"/>
<mask id="path-253-inside-126_2663_29166" fill="white">
<path d="M1171.5 546.703H1249.6V624.803H1171.5V546.703Z"/>
</mask>
<path d="M1249.6 624.803V625.617H1250.41V624.803H1249.6ZM1249.6 546.703H1248.79V624.803H1249.6H1250.41V546.703H1249.6ZM1249.6 624.803V623.99H1171.5V624.803V625.617H1249.6V624.803Z" fill="#D0D5DD" mask="url(#path-253-inside-126_2663_29166)"/>
<mask id="path-255-inside-127_2663_29166" fill="white">
<path d="M1249.6 546.703H1327.7V624.803H1249.6V546.703Z"/>
</mask>
<path d="M1327.7 624.803V625.617H1328.51V624.803H1327.7ZM1327.7 546.703H1326.89V624.803H1327.7H1328.51V546.703H1327.7ZM1327.7 624.803V623.99H1249.6V624.803V625.617H1327.7V624.803Z" fill="#D0D5DD" mask="url(#path-255-inside-127_2663_29166)"/>
<mask id="path-257-inside-128_2663_29166" fill="white">
<path d="M1327.7 546.703H1405.8V624.803H1327.7V546.703Z"/>
</mask>
<path d="M1405.8 624.803V625.617H1406.61V624.803H1405.8ZM1405.8 546.703H1404.99V624.803H1405.8H1406.61V546.703H1405.8ZM1405.8 624.803V623.99H1327.7V624.803V625.617H1405.8V624.803Z" fill="#D0D5DD" mask="url(#path-257-inside-128_2663_29166)"/>
<mask id="path-259-inside-129_2663_29166" fill="white">
<path d="M156.2 624.797H234.3V702.897H156.2V624.797Z"/>
</mask>
<path d="M234.3 702.897V703.71H235.114V702.897H234.3ZM234.3 624.797H233.487V702.897H234.3H235.114V624.797H234.3ZM234.3 702.897V702.083H156.2V702.897V703.71H234.3V702.897Z" fill="#D0D5DD" mask="url(#path-259-inside-129_2663_29166)"/>
<mask id="path-261-inside-130_2663_29166" fill="white">
<path d="M234.3 624.797H312.4V702.897H234.3V624.797Z"/>
</mask>
<path d="M312.4 702.897V703.71H313.213V702.897H312.4ZM312.4 624.797H311.586V702.897H312.4H313.213V624.797H312.4ZM312.4 702.897V702.083H234.3V702.897V703.71H312.4V702.897Z" fill="#D0D5DD" mask="url(#path-261-inside-130_2663_29166)"/>
<mask id="path-263-inside-131_2663_29166" fill="white">
<path d="M312.4 624.797H390.5V702.897H312.4V624.797Z"/>
</mask>
<path d="M390.5 702.897V703.71H391.314V702.897H390.5ZM390.5 624.797H389.687V702.897H390.5H391.314V624.797H390.5ZM390.5 702.897V702.083H312.4V702.897V703.71H390.5V702.897Z" fill="#D0D5DD" mask="url(#path-263-inside-131_2663_29166)"/>
<mask id="path-265-inside-132_2663_29166" fill="white">
<path d="M390.5 624.797H468.6V702.897H390.5V624.797Z"/>
</mask>
<path d="M390.5 624.797H468.6V702.897H390.5V624.797Z" fill="#F2F4F7"/>
<path d="M468.6 702.897V703.71H469.414V702.897H468.6ZM468.6 624.797H467.786V702.897H468.6H469.414V624.797H468.6ZM468.6 702.897V702.083H390.5V702.897V703.71H468.6V702.897Z" fill="#D0D5DD" mask="url(#path-265-inside-132_2663_29166)"/>
<mask id="path-267-inside-133_2663_29166" fill="white">
<path d="M468.6 624.797H546.7V702.897H468.6V624.797Z"/>
</mask>
<path d="M546.7 702.897V703.71H547.513V702.897H546.7ZM546.7 624.797H545.886V702.897H546.7H547.513V624.797H546.7ZM546.7 702.897V702.083H468.6V702.897V703.71H546.7V702.897Z" fill="#D0D5DD" mask="url(#path-267-inside-133_2663_29166)"/>
<mask id="path-269-inside-134_2663_29166" fill="white">
<path d="M546.7 624.797H624.8V702.897H546.7V624.797Z"/>
</mask>
<path d="M624.8 702.897V703.71H625.614V702.897H624.8ZM624.8 624.797H623.987V702.897H624.8H625.614V624.797H624.8ZM624.8 702.897V702.083H546.7V702.897V703.71H624.8V702.897Z" fill="#D0D5DD" mask="url(#path-269-inside-134_2663_29166)"/>
<mask id="path-271-inside-135_2663_29166" fill="white">
<path d="M624.8 624.797H702.9V702.897H624.8V624.797Z"/>
</mask>
<path d="M702.9 702.897V703.71H703.713V702.897H702.9ZM702.9 624.797H702.086V702.897H702.9H703.713V624.797H702.9ZM702.9 702.897V702.083H624.8V702.897V703.71H702.9V702.897Z" fill="#D0D5DD" mask="url(#path-271-inside-135_2663_29166)"/>
<mask id="path-273-inside-136_2663_29166" fill="white">
<path d="M702.9 624.797H781V702.897H702.9V624.797Z"/>
</mask>
<path d="M781 702.897V703.71H781.814V702.897H781ZM781 624.797H780.187V702.897H781H781.814V624.797H781ZM781 702.897V702.083H702.9V702.897V703.71H781V702.897Z" fill="#D0D5DD" mask="url(#path-273-inside-136_2663_29166)"/>
<mask id="path-275-inside-137_2663_29166" fill="white">
<path d="M781 624.797H859.1V702.897H781V624.797Z"/>
</mask>
<path d="M859.1 702.897V703.71H859.914V702.897H859.1ZM859.1 624.797H858.286V702.897H859.1H859.914V624.797H859.1ZM859.1 702.897V702.083H781V702.897V703.71H859.1V702.897Z" fill="#D0D5DD" mask="url(#path-275-inside-137_2663_29166)"/>
<mask id="path-277-inside-138_2663_29166" fill="white">
<path d="M859.1 624.797H937.2V702.897H859.1V624.797Z"/>
</mask>
<path d="M859.1 624.797H937.2V702.897H859.1V624.797Z" fill="#F2F4F7"/>
<path d="M937.2 702.897V703.71H938.013V702.897H937.2ZM937.2 624.797H936.386V702.897H937.2H938.013V624.797H937.2ZM937.2 702.897V702.083H859.1V702.897V703.71H937.2V702.897Z" fill="#D0D5DD" mask="url(#path-277-inside-138_2663_29166)"/>
<mask id="path-279-inside-139_2663_29166" fill="white">
<path d="M937.2 624.797H1015.3V702.897H937.2V624.797Z"/>
</mask>
<path d="M1015.3 702.897V703.71H1016.11V702.897H1015.3ZM1015.3 624.797H1014.49V702.897H1015.3H1016.11V624.797H1015.3ZM1015.3 702.897V702.083H937.2V702.897V703.71H1015.3V702.897Z" fill="#D0D5DD" mask="url(#path-279-inside-139_2663_29166)"/>
<mask id="path-281-inside-140_2663_29166" fill="white">
<path d="M1015.3 624.797H1093.4V702.897H1015.3V624.797Z"/>
</mask>
<path d="M1093.4 702.897V703.71H1094.21V702.897H1093.4ZM1093.4 624.797H1092.59V702.897H1093.4H1094.21V624.797H1093.4ZM1093.4 702.897V702.083H1015.3V702.897V703.71H1093.4V702.897Z" fill="#D0D5DD" mask="url(#path-281-inside-140_2663_29166)"/>
<mask id="path-283-inside-141_2663_29166" fill="white">
<path d="M1093.4 624.797H1171.5V702.897H1093.4V624.797Z"/>
</mask>
<path d="M1171.5 702.897V703.71H1172.31V702.897H1171.5ZM1171.5 624.797H1170.69V702.897H1171.5H1172.31V624.797H1171.5ZM1171.5 702.897V702.083H1093.4V702.897V703.71H1171.5V702.897Z" fill="#D0D5DD" mask="url(#path-283-inside-141_2663_29166)"/>
<mask id="path-285-inside-142_2663_29166" fill="white">
<path d="M1171.5 624.797H1249.6V702.897H1171.5V624.797Z"/>
</mask>
<path d="M1249.6 702.897V703.71H1250.41V702.897H1249.6ZM1249.6 624.797H1248.79V702.897H1249.6H1250.41V624.797H1249.6ZM1249.6 702.897V702.083H1171.5V702.897V703.71H1249.6V702.897Z" fill="#D0D5DD" mask="url(#path-285-inside-142_2663_29166)"/>
<mask id="path-287-inside-143_2663_29166" fill="white">
<path d="M1249.6 624.797H1327.7V702.897H1249.6V624.797Z"/>
</mask>
<path d="M1327.7 702.897V703.71H1328.51V702.897H1327.7ZM1327.7 624.797H1326.89V702.897H1327.7H1328.51V624.797H1327.7ZM1327.7 702.897V702.083H1249.6V702.897V703.71H1327.7V702.897Z" fill="#D0D5DD" mask="url(#path-287-inside-143_2663_29166)"/>
<mask id="path-289-inside-144_2663_29166" fill="white">
<path d="M1327.7 624.797H1405.8V702.897H1327.7V624.797Z"/>
</mask>
<path d="M1405.8 702.897V703.71H1406.61V702.897H1405.8ZM1405.8 624.797H1404.99V702.897H1405.8H1406.61V624.797H1405.8ZM1405.8 702.897V702.083H1327.7V702.897V703.71H1405.8V702.897Z" fill="#D0D5DD" mask="url(#path-289-inside-144_2663_29166)"/>
<mask id="path-291-inside-145_2663_29166" fill="white">
<path d="M156.2 702.898H234.3V780.998H156.2V702.898Z"/>
</mask>
<path d="M234.3 780.998V781.812H235.114V780.998H234.3ZM234.3 702.898H233.487V780.998H234.3H235.114V702.898H234.3ZM234.3 780.998V780.185H156.2V780.998V781.812H234.3V780.998Z" fill="#D0D5DD" mask="url(#path-291-inside-145_2663_29166)"/>
<mask id="path-293-inside-146_2663_29166" fill="white">
<path d="M234.3 702.898H312.4V780.998H234.3V702.898Z"/>
</mask>
<path d="M312.4 780.998V781.812H313.213V780.998H312.4ZM312.4 702.898H311.586V780.998H312.4H313.213V702.898H312.4ZM312.4 780.998V780.185H234.3V780.998V781.812H312.4V780.998Z" fill="#D0D5DD" mask="url(#path-293-inside-146_2663_29166)"/>
<mask id="path-295-inside-147_2663_29166" fill="white">
<path d="M312.4 702.898H390.5V780.998H312.4V702.898Z"/>
</mask>
<path d="M390.5 780.998V781.812H391.314V780.998H390.5ZM390.5 702.898H389.687V780.998H390.5H391.314V702.898H390.5ZM390.5 780.998V780.185H312.4V780.998V781.812H390.5V780.998Z" fill="#D0D5DD" mask="url(#path-295-inside-147_2663_29166)"/>
<mask id="path-297-inside-148_2663_29166" fill="white">
<path d="M390.5 702.898H468.6V780.998H390.5V702.898Z"/>
</mask>
<path d="M468.6 780.998V781.812H469.414V780.998H468.6ZM468.6 702.898H467.786V780.998H468.6H469.414V702.898H468.6ZM468.6 780.998V780.185H390.5V780.998V781.812H468.6V780.998Z" fill="#D0D5DD" mask="url(#path-297-inside-148_2663_29166)"/>
<mask id="path-299-inside-149_2663_29166" fill="white">
<path d="M468.6 702.898H546.7V780.998H468.6V702.898Z"/>
</mask>
<path d="M546.7 780.998V781.812H547.513V780.998H546.7ZM546.7 702.898H545.886V780.998H546.7H547.513V702.898H546.7ZM546.7 780.998V780.185H468.6V780.998V781.812H546.7V780.998Z" fill="#D0D5DD" mask="url(#path-299-inside-149_2663_29166)"/>
<mask id="path-301-inside-150_2663_29166" fill="white">
<path d="M546.7 702.898H624.8V780.998H546.7V702.898Z"/>
</mask>
<path d="M624.8 780.998V781.812H625.614V780.998H624.8ZM624.8 702.898H623.987V780.998H624.8H625.614V702.898H624.8ZM624.8 780.998V780.185H546.7V780.998V781.812H624.8V780.998Z" fill="#D0D5DD" mask="url(#path-301-inside-150_2663_29166)"/>
<mask id="path-303-inside-151_2663_29166" fill="white">
<path d="M624.8 702.898H702.9V780.998H624.8V702.898Z"/>
</mask>
<path d="M702.9 780.998V781.812H703.713V780.998H702.9ZM702.9 702.898H702.086V780.998H702.9H703.713V702.898H702.9ZM702.9 780.998V780.185H624.8V780.998V781.812H702.9V780.998Z" fill="#D0D5DD" mask="url(#path-303-inside-151_2663_29166)"/>
<mask id="path-305-inside-152_2663_29166" fill="white">
<path d="M702.9 702.898H781V780.998H702.9V702.898Z"/>
</mask>
<path d="M781 780.998V781.812H781.814V780.998H781ZM781 702.898H780.187V780.998H781H781.814V702.898H781ZM781 780.998V780.185H702.9V780.998V781.812H781V780.998Z" fill="#D0D5DD" mask="url(#path-305-inside-152_2663_29166)"/>
<mask id="path-307-inside-153_2663_29166" fill="white">
<path d="M781 702.898H859.1V780.998H781V702.898Z"/>
</mask>
<path d="M859.1 780.998V781.812H859.914V780.998H859.1ZM859.1 702.898H858.286V780.998H859.1H859.914V702.898H859.1ZM859.1 780.998V780.185H781V780.998V781.812H859.1V780.998Z" fill="#D0D5DD" mask="url(#path-307-inside-153_2663_29166)"/>
<mask id="path-309-inside-154_2663_29166" fill="white">
<path d="M859.1 702.898H937.2V780.998H859.1V702.898Z"/>
</mask>
<path d="M937.2 780.998V781.812H938.013V780.998H937.2ZM937.2 702.898H936.386V780.998H937.2H938.013V702.898H937.2ZM937.2 780.998V780.185H859.1V780.998V781.812H937.2V780.998Z" fill="#D0D5DD" mask="url(#path-309-inside-154_2663_29166)"/>
<mask id="path-311-inside-155_2663_29166" fill="white">
<path d="M937.2 702.898H1015.3V780.998H937.2V702.898Z"/>
</mask>
<path d="M1015.3 780.998V781.812H1016.11V780.998H1015.3ZM1015.3 702.898H1014.49V780.998H1015.3H1016.11V702.898H1015.3ZM1015.3 780.998V780.185H937.2V780.998V781.812H1015.3V780.998Z" fill="#D0D5DD" mask="url(#path-311-inside-155_2663_29166)"/>
<mask id="path-313-inside-156_2663_29166" fill="white">
<path d="M1015.3 702.898H1093.4V780.998H1015.3V702.898Z"/>
</mask>
<path d="M1093.4 780.998V781.812H1094.21V780.998H1093.4ZM1093.4 702.898H1092.59V780.998H1093.4H1094.21V702.898H1093.4ZM1093.4 780.998V780.185H1015.3V780.998V781.812H1093.4V780.998Z" fill="#D0D5DD" mask="url(#path-313-inside-156_2663_29166)"/>
<mask id="path-315-inside-157_2663_29166" fill="white">
<path d="M1093.4 702.898H1171.5V780.998H1093.4V702.898Z"/>
</mask>
<path d="M1171.5 780.998V781.812H1172.31V780.998H1171.5ZM1171.5 702.898H1170.69V780.998H1171.5H1172.31V702.898H1171.5ZM1171.5 780.998V780.185H1093.4V780.998V781.812H1171.5V780.998Z" fill="#D0D5DD" mask="url(#path-315-inside-157_2663_29166)"/>
<mask id="path-317-inside-158_2663_29166" fill="white">
<path d="M1171.5 702.898H1249.6V780.998H1171.5V702.898Z"/>
</mask>
<path d="M1249.6 780.998V781.812H1250.41V780.998H1249.6ZM1249.6 702.898H1248.79V780.998H1249.6H1250.41V702.898H1249.6ZM1249.6 780.998V780.185H1171.5V780.998V781.812H1249.6V780.998Z" fill="#D0D5DD" mask="url(#path-317-inside-158_2663_29166)"/>
<mask id="path-319-inside-159_2663_29166" fill="white">
<path d="M1249.6 702.898H1327.7V780.998H1249.6V702.898Z"/>
</mask>
<path d="M1327.7 780.998V781.812H1328.51V780.998H1327.7ZM1327.7 702.898H1326.89V780.998H1327.7H1328.51V702.898H1327.7ZM1327.7 780.998V780.185H1249.6V780.998V781.812H1327.7V780.998Z" fill="#D0D5DD" mask="url(#path-319-inside-159_2663_29166)"/>
<mask id="path-321-inside-160_2663_29166" fill="white">
<path d="M1327.7 702.898H1405.8V780.998H1327.7V702.898Z"/>
</mask>
<path d="M1327.7 702.898H1405.8V780.998H1327.7V702.898Z" fill="#F2F4F7"/>
<path d="M1405.8 780.998V781.812H1406.61V780.998H1405.8ZM1405.8 702.898H1404.99V780.998H1405.8H1406.61V702.898H1405.8ZM1405.8 780.998V780.185H1327.7V780.998V781.812H1405.8V780.998Z" fill="#D0D5DD" mask="url(#path-321-inside-160_2663_29166)"/>
</g>
<rect x="0.406771" y="0.406771" width="1561.19" height="1170.69" stroke="#D0D5DD" stroke-width="0.813542"/>
</g>
<defs>
<radialGradient id="paint0_radial_2663_29166" cx="0" cy="0" r="1" gradientUnits="userSpaceOnUse" gradientTransform="translate(585.75 -0.000139654) rotate(90) scale(1171.5 611.448)">
<stop/>
<stop offset="0.953125" stop-opacity="0"/>
</radialGradient>
<clipPath id="clip0_2663_29166">
<rect width="1562" height="1171.5" fill="white"/>
</clipPath>
</defs>
</svg>
