<svg width="16" height="16" viewBox="0 0 16 16" fill="none" xmlns="http://www.w3.org/2000/svg">
<path opacity="0.4" d="M5.10004 13.94C5.08004 13.94 5.05337 13.9534 5.03337 13.9534C3.74004 13.3134 2.68671 12.2534 2.04004 10.96C2.04004 10.94 2.05337 10.9134 2.05337 10.8934C2.86671 11.1334 3.70671 11.3134 4.54004 11.4534C4.68671 12.2934 4.86004 13.1267 5.10004 13.94Z" fill="#98A2B3"/>
<path opacity="0.4" d="M13.9599 10.9667C13.2999 12.2934 12.1999 13.3667 10.8599 14.0134C11.1132 13.1667 11.3265 12.3134 11.4665 11.4534C12.3065 11.3134 13.1332 11.1334 13.9465 10.8934C13.9399 10.92 13.9599 10.9467 13.9599 10.9667Z" fill="#98A2B3"/>
<path opacity="0.4" d="M14.0132 5.13997C13.1732 4.88663 12.3265 4.67997 11.4665 4.5333C11.3265 3.6733 11.1199 2.81997 10.8599 1.98663C12.2399 2.64663 13.3532 3.75997 14.0132 5.13997Z" fill="#98A2B3"/>
<path opacity="0.4" d="M5.10015 2.05998C4.86015 2.87331 4.68682 3.69998 4.54682 4.53998C3.68682 4.67331 2.83348 4.88664 1.98682 5.13998C2.63348 3.79998 3.70682 2.69998 5.03348 2.03998C5.05348 2.03998 5.08015 2.05998 5.10015 2.05998Z" fill="#98A2B3"/>
<path d="M10.3267 4.39331C8.78001 4.21998 7.22001 4.21998 5.67334 4.39331C5.84001 3.47998 6.05334 2.56665 6.35334 1.68665C6.36667 1.63331 6.36001 1.59331 6.36667 1.53998C6.89334 1.41331 7.43334 1.33331 8.00001 1.33331C8.56001 1.33331 9.10667 1.41331 9.62667 1.53998C9.63334 1.59331 9.63334 1.63331 9.64667 1.68665C9.94667 2.57331 10.16 3.47998 10.3267 4.39331Z" fill="#98A2B3"/>
<path d="M4.3935 10.3267C3.4735 10.16 2.56683 9.94667 1.68683 9.64667C1.6335 9.63334 1.5935 9.64001 1.54016 9.63334C1.4135 9.10667 1.3335 8.56667 1.3335 8.00001C1.3335 7.44001 1.4135 6.89334 1.54016 6.37334C1.5935 6.36667 1.6335 6.36667 1.68683 6.35334C2.5735 6.06001 3.4735 5.84001 4.3935 5.67334C4.22683 7.22001 4.22683 8.78001 4.3935 10.3267Z" fill="#98A2B3"/>
<path d="M14.6669 8.00001C14.6669 8.56667 14.5869 9.10667 14.4603 9.63334C14.4069 9.64001 14.3669 9.63334 14.3136 9.64667C13.4269 9.94001 12.5203 10.16 11.6069 10.3267C11.7803 8.78001 11.7803 7.22001 11.6069 5.67334C12.5203 5.84001 13.4336 6.05334 14.3136 6.35334C14.3669 6.36667 14.4069 6.37334 14.4603 6.37334C14.5869 6.90001 14.6669 7.44001 14.6669 8.00001Z" fill="#98A2B3"/>
<path d="M10.3267 11.6066C10.16 12.5266 9.94667 13.4333 9.64667 14.3133C9.63334 14.3666 9.63334 14.4066 9.62667 14.46C9.10667 14.5866 8.56001 14.6666 8.00001 14.6666C7.43334 14.6666 6.89334 14.5866 6.36667 14.46C6.36001 14.4066 6.36667 14.3666 6.35334 14.3133C6.06001 13.4266 5.84001 12.5266 5.67334 11.6066C6.44667 11.6933 7.22001 11.7533 8.00001 11.7533C8.78001 11.7533 9.56001 11.6933 10.3267 11.6066Z" fill="#98A2B3"/>
<path d="M10.509 10.5089C8.84165 10.7192 7.15867 10.7192 5.49128 10.5089C5.2809 8.84147 5.2809 7.15849 5.49128 5.49109C7.15867 5.28072 8.84165 5.28072 10.509 5.49109C10.7194 7.15849 10.7194 8.84147 10.509 10.5089Z" fill="#98A2B3"/>
</svg>
