<svg width="20" height="20" viewBox="0 0 20 20" fill="none" xmlns="http://www.w3.org/2000/svg">
<path d="M8.30013 11.6995V10.7745C8.30013 10.4161 8.03346 10.2411 7.70846 10.3828L3.53346 12.1828C2.87513 12.4661 2.3418 12.1161 2.3418 11.4078V10.3078C2.3418 9.74115 2.7668 9.08281 3.2918 8.86615L8.0418 6.82448C8.17513 6.75781 8.2918 6.58281 8.2918 6.43281V3.88281C8.2918 3.08281 8.88346 2.12448 9.5918 1.75781C9.8418 1.63281 10.1418 1.63281 10.3918 1.75781C11.1085 2.12448 11.7001 3.07448 11.7001 3.87448V6.42448C11.7001 6.57448 11.8168 6.74948 11.9501 6.81615L12.8168 7.18281L8.30013 11.6995Z" fill="#866F6E"/>
<path opacity="0.4" d="M17.6577 10.3047V11.4047C17.6577 12.113 17.1243 12.463 16.466 12.1797L12.291 10.3797C11.9577 10.2464 11.6993 10.413 11.6993 10.7714V13.1964C11.6993 13.388 11.8077 13.663 11.9493 13.7964L13.8827 15.738C14.0827 15.938 14.1743 16.338 14.0827 16.613L13.7077 17.7464C13.541 18.238 12.9827 18.463 12.5243 18.238L10.541 16.5714C10.241 16.313 9.74932 16.313 9.44932 16.5714L7.46599 18.238C7.00765 18.4714 6.44932 18.238 6.29932 17.7464L5.92432 16.613C5.83265 16.3297 5.92432 15.938 6.12432 15.738L8.05765 13.7964C8.19099 13.663 8.29932 13.388 8.29932 13.1964V11.6964L12.816 7.17969L16.7077 8.85469C17.2327 9.07969 17.6577 9.73802 17.6577 10.3047Z" fill="#866F6E"/>
</svg>
