<svg width="25" height="24" viewBox="0 0 25 24" fill="none" xmlns="http://www.w3.org/2000/svg">
<path d="M22.4004 8.00004V12M10.6504 5.50003H7.20039C5.52023 5.50003 4.68015 5.50003 4.03842 5.82701C3.47393 6.11463 3.01499 6.57358 2.72737 7.13806C2.40039 7.7798 2.40039 8.61988 2.40039 10.3L2.40039 11.5C2.40039 12.4319 2.40039 12.8979 2.55263 13.2654C2.75562 13.7555 3.14497 14.1448 3.63502 14.3478C4.00257 14.5 4.46851 14.5 5.40039 14.5V18.75C5.40039 18.9822 5.40039 19.0983 5.41002 19.1961C5.50355 20.1456 6.2548 20.8969 7.20436 20.9904C7.30214 21 7.41822 21 7.65039 21C7.88256 21 7.99865 21 8.09643 20.9904C9.04598 20.8969 9.79724 20.1456 9.89076 19.1961C9.90039 19.0983 9.90039 18.9822 9.90039 18.75V14.5H10.6504C12.4168 14.5 14.5776 15.4469 16.2447 16.3557C17.2172 16.8858 17.7035 17.1509 18.022 17.1119C18.3173 17.0757 18.5406 16.9431 18.7137 16.7011C18.9004 16.4402 18.9004 15.918 18.9004 14.8737V5.12632C18.9004 4.08203 18.9004 3.55988 18.7137 3.29892C18.5406 3.05694 18.3173 2.92433 18.022 2.88816C17.7035 2.84916 17.2172 3.11423 16.2447 3.64439C14.5776 4.55315 12.4168 5.50003 10.6504 5.50003Z" stroke="#6A5554" stroke-width="2" stroke-linecap="round" stroke-linejoin="round"/>
</svg>
