<svg width="24" height="24" viewBox="0 0 24 24" fill="none" xmlns="http://www.w3.org/2000/svg">
<rect x="0.5" y="0.5" width="23" height="23" rx="11.5" stroke="#D0D5DD"/>
<path d="M11.2578 7.57715C11.3916 7.50582 11.5449 7.49627 11.6836 7.5498L11.7422 7.57715L14.5576 9.09082V9.0918C14.6044 9.11811 14.6367 9.171 14.6367 9.23047C14.6367 9.28205 14.6171 9.32127 14.5918 9.3457L14.5654 9.36523L11.7402 10.8857L11.7354 10.8877C11.6696 10.9239 11.5837 10.9453 11.502 10.9453C11.4242 10.9453 11.3401 10.926 11.2627 10.8848H11.2617L8.43945 9.36523L8.43457 9.3623L8.41016 9.3457C8.3868 9.32367 8.36719 9.2864 8.36719 9.23047C8.36724 9.17097 8.39943 9.11712 8.44629 9.09082L11.2578 7.57715Z" fill="#D0D5DD" stroke="#D0D5DD"/>
<path d="M7.56738 10.998C7.62212 10.9686 7.6677 10.9721 7.70703 10.9922L7.71191 10.9941L10.3369 12.3047C10.5496 12.4161 10.6818 12.6311 10.6846 12.873V15.3477C10.6844 15.3942 10.6627 15.4359 10.6221 15.4658C10.5864 15.4844 10.5561 15.4922 10.54 15.4922C10.5225 15.4922 10.4986 15.4871 10.4736 15.4746L7.84863 14.165C7.63037 14.0535 7.50011 13.84 7.5 13.6025V11.1221C7.50005 11.0733 7.52299 11.0281 7.56738 10.998Z" fill="#D0D5DD" stroke="#D0D5DD"/>
<path d="M15.293 10.9922C15.3325 10.9719 15.3784 10.969 15.4336 10.999C15.4774 11.029 15.4999 11.0737 15.5 11.1221V11.7607C15.4163 11.7549 15.3326 11.752 15.25 11.752C14.4579 11.752 13.6842 12.0247 13.0713 12.5137C12.7732 12.7476 12.5221 13.025 12.3203 13.332V12.8672C12.3203 12.6296 12.4508 12.4162 12.6641 12.3047L15.2891 10.9941V10.9951L15.293 10.9922Z" fill="#D0D5DD" stroke="#D0D5DD"/>
<path d="M16.99 13.8328C16.58 13.3278 15.955 13.0078 15.25 13.0078C14.72 13.0078 14.23 13.1928 13.845 13.5028C13.325 13.9128 13 14.5478 13 15.2578C13 15.6778 13.12 16.0778 13.325 16.4178C13.46 16.6428 13.63 16.8378 13.83 16.9978H13.835C14.22 17.3178 14.715 17.5078 15.25 17.5078C15.82 17.5078 16.335 17.2978 16.73 16.9478C16.905 16.7978 17.055 16.6178 17.175 16.4178C17.38 16.0778 17.5 15.6778 17.5 15.2578C17.5 14.7178 17.31 14.2178 16.99 13.8328ZM16.38 14.9778L15.18 16.0878C15.11 16.1528 15.015 16.1878 14.925 16.1878C14.83 16.1878 14.735 16.1528 14.66 16.0778L14.105 15.5228C13.96 15.3778 13.96 15.1378 14.105 14.9928C14.25 14.8478 14.49 14.8478 14.635 14.9928L14.935 15.2928L15.87 14.4278C16.02 14.2878 16.26 14.2978 16.4 14.4478C16.545 14.6028 16.535 14.8378 16.38 14.9778Z" fill="#D0D5DD"/>
</svg>
