<svg width="16" height="16" viewBox="0 0 16 16" fill="none" xmlns="http://www.w3.org/2000/svg">
<path d="M10.794 1.33594H5.20732C2.78065 1.33594 1.33398 2.7826 1.33398 5.20927V10.7893C1.33398 13.2226 2.78065 14.6693 5.20732 14.6693H10.7873C13.214 14.6693 14.6607 13.2226 14.6607 10.7959V5.20927C14.6673 2.7826 13.2207 1.33594 10.794 1.33594ZM11.214 7.21594C11.0207 7.40927 10.7007 7.40927 10.5073 7.21594L8.50065 5.20927V12.0026C8.50065 12.2759 8.27398 12.5026 8.00065 12.5026C7.72732 12.5026 7.50065 12.2759 7.50065 12.0026V5.20927L5.49398 7.21594C5.30065 7.40927 4.98065 7.40927 4.78732 7.21594C4.68732 7.11594 4.64065 6.98927 4.64065 6.8626C4.64065 6.73594 4.69398 6.6026 4.78732 6.50927L7.64732 3.64927C7.74065 3.55594 7.86732 3.5026 8.00065 3.5026C8.13398 3.5026 8.26065 3.55594 8.35398 3.64927L11.214 6.50927C11.4073 6.7026 11.4073 7.01594 11.214 7.21594Z" fill="#17B26A"/>
</svg>
