<svg width="21" height="12" viewBox="0 0 21 12" fill="none" xmlns="http://www.w3.org/2000/svg">
<path d="M10.9626 8.53492C10.8763 8.53492 10.7919 8.55995 10.7201 8.60684C10.6484 8.65373 10.5924 8.72038 10.5594 8.79836C10.5263 8.87634 10.5177 8.96214 10.5345 9.04492C10.5514 9.1277 10.593 9.20374 10.654 9.26342C10.715 9.3231 10.7928 9.36375 10.8775 9.38021C10.9621 9.39668 11.0499 9.38823 11.1296 9.35593C11.2094 9.32363 11.2776 9.26893 11.3255 9.19875C11.3735 9.12858 11.3991 9.04607 11.3991 8.96167C11.3991 8.84849 11.3531 8.73994 11.2712 8.65991C11.1894 8.57988 11.0784 8.53492 10.9626 8.53492ZM18.199 5.97444C18.5843 5.79134 18.9808 5.63172 19.3862 5.49649C19.4697 5.47106 19.5436 5.42165 19.598 5.35468C19.6525 5.28772 19.6851 5.20628 19.6917 5.12095C19.6917 4.84783 19.6917 2.41538 18.3649 1.50215C18.0958 1.3216 17.785 1.20915 17.4605 1.17489C17.136 1.14063 16.8079 1.18563 16.5056 1.30584C16.4358 1.32794 16.3727 1.36689 16.3224 1.41911C16.272 1.47132 16.236 1.53511 16.2175 1.60457C16.1062 1.97521 15.954 2.33293 15.7636 2.67143L14.1836 0.196303C14.1442 0.136206 14.09 0.0867437 14.0259 0.0524479C13.9619 0.0181521 13.8901 0.00011895 13.817 0H11.8355C11.7198 0 11.6088 0.0449607 11.5269 0.124991C11.4451 0.205022 11.3991 0.313566 11.3991 0.426746C11.3991 0.539926 11.4451 0.648471 11.5269 0.728501C11.6088 0.808531 11.7198 0.853492 11.8355 0.853492H13.5813L15.2224 3.41397C15.1703 3.42068 15.1174 3.42068 15.0653 3.41397C14.8558 3.47371 14.6114 3.35422 14.3233 3.07257L13.9654 2.72264C13.763 2.52386 13.5221 2.36641 13.2569 2.25945C12.9916 2.15249 12.7073 2.09815 12.4204 2.09959H11.2507C10.9638 2.09815 10.6794 2.15249 10.4142 2.25945C10.1489 2.36641 9.90808 2.52386 9.70563 2.72264L8.65813 3.74683L6.49332 3.07257C6.42782 3.05208 6.36806 3.01702 6.31874 2.97015L5.84737 2.50927C5.60367 2.27196 5.27474 2.13719 4.93082 2.13373H1.79708C1.73057 2.13346 1.66489 2.14806 1.60504 2.1764C1.51775 2.21908 0.732128 2.62022 0.793232 3.29448C0.854335 3.96874 1.79708 4.43816 2.58269 4.68567C3.51033 4.9046 4.39497 5.27077 5.20142 5.76961L4.67767 6.40119C4.20385 6.12077 3.6603 5.97314 3.10644 5.97444C2.3975 5.9688 1.70826 6.20237 1.15493 6.63574C0.601604 7.06912 0.218046 7.6758 0.0689312 8.35349C-0.0801832 9.03118 0.0142684 9.73841 0.33636 10.3559C0.658451 10.9735 1.18848 11.4635 1.83706 11.7434C2.48565 12.0233 3.21312 12.076 3.89681 11.8926C4.5805 11.7091 5.17858 11.3008 5.5902 10.7364C6.00182 10.172 6.2018 9.4861 6.15642 8.79433C6.11104 8.10255 5.82307 7.44724 5.34108 6.93889L5.89102 6.27317C6.53315 6.78288 7.02001 7.45504 7.29858 8.2165C7.57716 8.97796 7.63679 9.79954 7.47098 10.5918C7.45935 10.6539 7.46196 10.7178 7.47862 10.7788C7.49528 10.8398 7.52558 10.8964 7.56733 10.9446C7.60908 10.9928 7.66124 11.0313 7.72005 11.0574C7.77887 11.0834 7.84286 11.0964 7.90743 11.0954H14.0178C14.1335 11.0954 14.2446 11.0504 14.3264 10.9704C14.4083 10.8904 14.4542 10.7818 14.4542 10.6687C14.4863 10.0994 14.6347 9.54219 14.8907 9.02995C14.9062 9.60662 15.0922 10.1666 15.4262 10.6421C15.7601 11.1177 16.2278 11.4886 16.7726 11.7099C17.3175 11.9312 17.9162 11.9936 18.4965 11.8894C19.0768 11.7853 19.6138 11.519 20.0428 11.1229C20.4717 10.7268 20.7741 10.2177 20.9135 9.65714C21.0529 9.0966 21.0233 8.50858 20.8283 7.96411C20.6334 7.41964 20.2813 6.94202 19.8147 6.58895C19.3481 6.23587 18.787 6.02244 18.199 5.97444ZM3.10644 11.0954C2.52766 11.0954 1.9726 10.8706 1.56334 10.4704C1.15408 10.0703 0.924168 9.52757 0.924168 8.96167C0.924168 8.39577 1.15408 7.85304 1.56334 7.45289C1.9726 7.05274 2.52766 6.82794 3.10644 6.82794C3.45665 6.8295 3.80119 6.91446 4.11028 7.07545L2.766 8.69708C2.69308 8.78536 2.65901 8.89835 2.67128 9.0112C2.68356 9.12404 2.74118 9.22749 2.83147 9.2988C2.92176 9.3701 3.03732 9.40341 3.15273 9.39141C3.26814 9.3794 3.37395 9.32306 3.44687 9.23478L4.79115 7.62168C5.11048 7.99866 5.28631 8.47219 5.28871 8.96167C5.28871 9.24187 5.23226 9.51933 5.12259 9.77821C5.01292 10.0371 4.85218 10.2723 4.64954 10.4704C4.44689 10.6686 4.20632 10.8257 3.94156 10.933C3.67679 11.0402 3.39302 11.0954 3.10644 11.0954ZM8.40499 10.2419C8.87636 5.18923 2.82711 3.86632 2.80965 3.86632C1.7447 3.51639 1.66614 3.24327 1.66614 3.24327C1.66614 3.24327 1.79708 3.07257 1.91055 2.98722H4.93082C5.04594 2.98883 5.15575 3.03484 5.23633 3.11525L5.70771 3.57613C5.85277 3.7161 6.02906 3.82128 6.22272 3.88339L8.64941 4.67714C8.72592 4.70301 8.80837 4.70712 8.88717 4.68899C8.96598 4.67086 9.0379 4.63123 9.09459 4.57472L10.3254 3.37129C10.5712 3.13192 10.9037 2.99699 11.2507 2.99576H12.4204C12.7673 2.99699 13.0998 3.13192 13.3457 3.37129L13.7035 3.72123L11.853 6.56335C11.8522 6.57757 11.8522 6.59181 11.853 6.60603C11.85 6.6344 11.85 6.663 11.853 6.69138C11.8505 6.71692 11.8505 6.74265 11.853 6.76819C11.8403 6.82154 11.8403 6.87701 11.853 6.93036C11.8519 6.94741 11.8519 6.96451 11.853 6.98156L13.529 10.2419H8.40499ZM13.9218 9.09822L12.7695 6.82794L14.5154 4.19918C14.7761 4.30195 15.0638 4.31991 15.3359 4.25039C16.3135 3.98581 16.846 2.61169 17.0293 2.03131C17.1761 1.9899 17.3305 1.98066 17.4814 2.00427C17.6323 2.02787 17.776 2.08373 17.9022 2.16787C18.2562 2.50268 18.4917 2.93923 18.5744 3.41397H17.9459C17.8301 3.41397 17.7191 3.45893 17.6373 3.53896C17.5554 3.61899 17.5094 3.72753 17.5094 3.84071C17.5094 3.95389 17.5554 4.06244 17.6373 4.14247C17.7191 4.2225 17.8301 4.26746 17.9459 4.26746H18.749C18.749 4.4723 18.8013 4.66007 18.8101 4.82223C18.0846 5.07525 17.3907 5.40736 16.7413 5.81228C16.6675 5.84289 16.6039 5.89317 16.558 5.95737C15.3652 6.70928 14.4433 7.80767 13.9218 9.09822ZM17.9459 11.0954C17.4753 11.0942 17.0177 10.9443 16.6414 10.6681C16.265 10.3918 15.9901 10.004 15.8576 9.56253C15.725 9.12103 15.742 8.64947 15.906 8.21818C16.07 7.78689 16.3722 7.41899 16.7675 7.16933L17.5094 9.1153C17.5269 9.17146 17.556 9.22351 17.595 9.26817C17.634 9.31283 17.6819 9.34915 17.7359 9.37485C17.7899 9.40055 17.8487 9.41509 17.9087 9.41755C17.9687 9.42001 18.0286 9.41034 18.0846 9.38915C18.1406 9.36796 18.1915 9.3357 18.2341 9.29438C18.2768 9.25307 18.3103 9.2036 18.3325 9.14905C18.3547 9.09451 18.3652 9.03607 18.3632 8.9774C18.3613 8.91872 18.347 8.86106 18.3212 8.80804L17.5793 6.82794C17.8658 6.8044 18.1544 6.83628 18.4283 6.92177C18.7023 7.00725 18.9564 7.14466 19.176 7.32615C19.3957 7.50765 19.5767 7.72966 19.7086 7.97953C19.8405 8.2294 19.9208 8.50223 19.9448 8.78243C19.9689 9.06264 19.9363 9.34474 19.8489 9.61262C19.7614 9.8805 19.6209 10.1289 19.4353 10.3437C19.2497 10.5585 19.0226 10.7354 18.767 10.8644C18.5115 10.9934 18.2325 11.0719 17.9459 11.0954Z" fill="#838383"/>
</svg>
