<svg width="20" height="20" viewBox="0 0 20 20" fill="none" xmlns="http://www.w3.org/2000/svg">
<path opacity="0.4" d="M16.75 5.78071C16.75 6.23071 16.5083 6.63902 16.125 6.84735L14.675 7.63069L13.4417 8.28906L10.8833 9.67237C10.6083 9.82237 10.3083 9.89738 10 9.89738C9.69167 9.89738 9.39167 9.82237 9.11667 9.67237L3.875 6.84735C3.49167 6.63902 3.25 6.23071 3.25 5.78071C3.25 5.33071 3.49167 4.92236 3.875 4.71402L5.51667 3.83069L6.82501 3.12238L9.11667 1.88906C9.66667 1.58906 10.3333 1.58906 10.8833 1.88906L16.125 4.71402C16.5083 4.92236 16.75 5.33071 16.75 5.78071Z" fill="#866F6E"/>
<path opacity="0.4" d="M8.25091 10.657L3.3759 8.21535C3.0009 8.02369 2.56757 8.04868 2.20924 8.26535C1.85091 8.48202 1.64258 8.86538 1.64258 9.28204V13.8904C1.64258 14.6904 2.08423 15.407 2.8009 15.7654L7.6759 18.1987C7.84257 18.2821 8.02592 18.3237 8.20925 18.3237C8.42592 18.3237 8.64258 18.2654 8.83425 18.1404C9.19258 17.9237 9.40091 17.5404 9.40091 17.1237V12.5154C9.40924 11.732 8.96757 11.0153 8.25091 10.657Z" fill="#866F6E"/>
<path opacity="0.4" d="M18.3585 9.29269V13.901C18.3585 14.6927 17.9168 15.4093 17.2001 15.7677L12.3251 18.2093C12.1585 18.2927 11.9751 18.3343 11.7918 18.3343C11.5751 18.3343 11.3585 18.276 11.1585 18.151C10.8085 17.9344 10.5918 17.551 10.5918 17.1343V12.5343C10.5918 11.7343 11.0335 11.0177 11.7501 10.6593L13.5418 9.76765L14.7918 9.14265L16.6251 8.226C17.0001 8.03433 17.4335 8.051 17.7918 8.276C18.1418 8.49267 18.3585 8.87603 18.3585 9.29269Z" fill="#866F6E"/>
<path d="M18.8324 18.0349L18.1991 17.4016C18.5324 16.9016 18.7241 16.3016 18.7241 15.6599C18.7241 13.9016 17.2991 12.4766 15.5408 12.4766C13.7824 12.4766 12.3574 13.9016 12.3574 15.6599C12.3574 17.4182 13.7824 18.8432 15.5408 18.8432C16.1824 18.8432 16.7824 18.6516 17.2824 18.3182L17.9158 18.9516C18.0408 19.0766 18.2074 19.1432 18.3741 19.1432C18.5408 19.1432 18.7074 19.0766 18.8324 18.9516C19.0824 18.6932 19.0824 18.2849 18.8324 18.0349Z" fill="#866F6E"/>
</svg>
