<svg width="12" height="12" viewBox="0 0 12 12" fill="none" xmlns="http://www.w3.org/2000/svg">
<path d="M5.37305 1.79785C5.45233 1.75557 5.54275 1.75473 5.62207 1.79688L8.28613 3.23047L5.62012 4.66504L5.61328 4.66895C5.58716 4.68336 5.54267 4.69531 5.5 4.69531C5.46415 4.69527 5.42213 4.68582 5.38184 4.66504L2.71289 3.22949L5.37207 1.79688L5.37305 1.79785Z" fill="#B54708" stroke="#B54708" stroke-width="1.5"/>
<path d="M4.2168 6.52246H4.21777C4.31769 6.57377 4.38876 6.66088 4.41895 6.76465L4.43457 6.87402V9.17383L1.96289 7.94043C1.82659 7.87091 1.75011 7.74265 1.75 7.60059V5.29102L4.2168 6.52246Z" fill="#B54708" stroke="#B54708" stroke-width="1.5"/>
<path d="M9.99982 5.12029V6.35029C9.75982 6.28029 9.50482 6.25029 9.24982 6.25029C8.56982 6.25029 7.90482 6.48529 7.37982 6.90529C6.65982 7.47029 6.24982 8.32529 6.24982 9.25029C6.24982 9.49529 6.27982 9.74029 6.34482 9.97529C6.26982 9.96529 6.19482 9.93529 6.12482 9.89029C5.93482 9.77529 5.81982 9.57029 5.81982 9.34529V6.86529C5.81982 6.43529 6.05982 6.05029 6.43982 5.85529L9.06482 4.54529C9.26982 4.44029 9.49982 4.45529 9.69482 4.57029C9.88482 4.69029 9.99982 4.89529 9.99982 5.12029Z" fill="#B54708"/>
<path d="M10.99 7.825C10.58 7.32 9.955 7 9.25 7C8.72 7 8.23 7.185 7.845 7.495C7.325 7.905 7 8.54 7 9.25C7 9.955 7.32 10.58 7.825 10.99C8.21 11.31 8.71 11.5 9.25 11.5C9.82 11.5 10.335 11.285 10.735 10.94C11.2 10.525 11.5 9.925 11.5 9.25C11.5 8.71 11.31 8.21 10.99 7.825ZM9.765 9.39C9.765 9.52 9.695 9.645 9.585 9.71L8.88 10.13C8.82 10.165 8.755 10.185 8.685 10.185C8.56 10.185 8.435 10.12 8.365 10.005C8.26 9.825 8.315 9.595 8.495 9.49L9.015 9.18V8.55C9.015 8.345 9.185 8.175 9.39 8.175C9.595 8.175 9.765 8.345 9.765 8.55V9.39Z" fill="#B54708"/>
</svg>
