<svg width="24" height="25" viewBox="0 0 24 25" fill="none" xmlns="http://www.w3.org/2000/svg">
<path opacity="0.4" d="M21.0409 7.96734L12.0009 13.1973L2.96094 7.96734C3.36094 7.22734 3.94094 6.57734 4.59094 6.21734L9.93094 3.25734C11.0709 2.61734 12.9309 2.61734 14.0709 3.25734L19.4109 6.21734C20.0609 6.57734 20.6409 7.22734 21.0409 7.96734Z" fill="#B65702"/>
<path opacity="0.6" d="M12.0006 13.1973V22.7773C11.2506 22.7773 10.5006 22.6173 9.93062 22.2973L4.59063 19.3373C3.38063 18.6673 2.39062 16.9873 2.39062 15.6073V9.94729C2.39062 9.30729 2.61062 8.60729 2.96062 7.96729L12.0006 13.1973Z" fill="#B65702"/>
<path d="M21.61 9.94729V15.6073C21.61 16.9873 20.62 18.6673 19.41 19.3373L14.07 22.2973C13.5 22.6173 12.75 22.7773 12 22.7773V13.1973L21.04 7.96729C21.39 8.60729 21.61 9.30729 21.61 9.94729Z" fill="#B65702"/>
</svg>
