<svg width="17" height="16" viewBox="0 0 17 16" fill="none" xmlns="http://www.w3.org/2000/svg">
<path d="M15.3333 12.0041C15.3333 12.5041 15.1933 12.9774 14.9467 13.3774C14.8067 13.6174 14.6267 13.8307 14.42 14.0041C13.9533 14.4241 13.34 14.6707 12.6667 14.6707C11.8533 14.6707 11.1267 14.3041 10.6467 13.7308C10.6333 13.7108 10.6133 13.6974 10.6 13.6774C10.52 13.5841 10.4467 13.4841 10.3867 13.3774C10.14 12.9774 10 12.5041 10 12.0041C10 11.1641 10.3867 10.4107 11 9.92407C11.46 9.55741 12.04 9.3374 12.6667 9.3374C13.3333 9.3374 13.9333 9.57738 14.4 9.98405C14.48 10.044 14.5533 10.1174 14.62 10.1908C15.06 10.6708 15.3333 11.3041 15.3333 12.0041Z" stroke="#6A5554" stroke-width="1.5" stroke-miterlimit="10" stroke-linecap="round" stroke-linejoin="round"/>
<path d="M13.6605 11.9902H11.6738" stroke="#6A5554" stroke-width="1.5" stroke-miterlimit="10" stroke-linecap="round" stroke-linejoin="round"/>
<path d="M12.668 11.0171V13.0104" stroke="#6A5554" stroke-width="1.5" stroke-miterlimit="10" stroke-linecap="round" stroke-linejoin="round"/>
<path d="M2.11328 4.96387L7.99995 8.37052L13.8466 4.98385" stroke="#6A5554" stroke-width="1.5" stroke-linecap="round" stroke-linejoin="round"/>
<path d="M8 14.4104V8.36377" stroke="#6A5554" stroke-width="1.5" stroke-linecap="round" stroke-linejoin="round"/>
<path d="M14.4071 6.1174V9.89076C14.4071 9.92409 14.4071 9.95073 14.4004 9.98406C13.9338 9.5774 13.3337 9.33742 12.6671 9.33742C12.0404 9.33742 11.4604 9.55742 11.0004 9.92409C10.3871 10.4108 10.0004 11.1641 10.0004 12.0041C10.0004 12.5041 10.1404 12.9774 10.3871 13.3774C10.4471 13.4841 10.5204 13.5841 10.6004 13.6774L9.38042 14.3508C8.62042 14.7774 7.38041 14.7774 6.62041 14.3508L3.06041 12.3774C2.25375 11.9307 1.59375 10.8108 1.59375 9.89076V6.1174C1.59375 5.1974 2.25375 4.07742 3.06041 3.63075L6.62041 1.6574C7.38041 1.23074 8.62042 1.23074 9.38042 1.6574L12.9404 3.63075C13.7471 4.07742 14.4071 5.1974 14.4071 6.1174Z" stroke="#6A5554" stroke-width="1.5" stroke-linecap="round" stroke-linejoin="round"/>
</svg>
