<svg width="24" height="24" viewBox="0 0 24 24" fill="none" xmlns="http://www.w3.org/2000/svg">
<path d="M18.5 14.625C19.6204 14.625 20.6342 15.0997 21.3271 15.8584L21.3535 15.8926C21.3592 15.8996 21.3669 15.907 21.375 15.916V15.9258L21.5186 16.0986C22.0565 16.7476 22.375 17.5871 22.375 18.5C22.375 18.8133 22.34 19.1086 22.2656 19.3896L22.2627 19.4014C22.1685 19.7868 22.014 20.1588 21.8145 20.498C21.1424 21.6181 19.9109 22.375 18.5 22.375C17.5772 22.375 16.7497 22.0568 16.1123 21.5215L16.0674 21.4844L15.9385 21.3555H15.9053C15.8928 21.3447 15.8782 21.3327 15.8613 21.3203C15.6016 21.089 15.3703 20.8083 15.1875 20.501L15.1855 20.4971L15.0596 20.2725C14.7828 19.7371 14.625 19.1306 14.625 18.5C14.625 17.4471 15.0384 16.4928 15.7168 15.7969C16.4235 15.073 17.4144 14.625 18.5 14.625ZM18.5 15.4648C17.7449 15.4648 17.1251 16.0847 17.125 16.8398V17.1055H16.8203C16.0651 17.1055 15.4453 17.7253 15.4453 18.4805C15.4456 19.2354 16.0653 19.8555 16.8203 19.8555H17.125V20.2002C17.1251 20.9553 17.7449 21.5752 18.5 21.5752C19.2551 21.5752 19.8749 20.9553 19.875 20.2002V19.8555H20.1797C20.9501 19.8555 21.5544 19.23 21.5547 18.4805C21.5547 17.7253 20.9349 17.1055 20.1797 17.1055H19.875V16.8398C19.8749 16.0847 19.2551 15.4648 18.5 15.4648Z" fill="#175CD3" stroke="#175CD3" stroke-width="1.25"/>
<path opacity="0.4" d="M11.2261 2.82031C11.7125 2.55909 12.2884 2.56116 12.7603 2.81836L12.7632 2.82031L19.0513 6.20801V6.20898C19.3069 6.34789 19.4666 6.61888 19.4556 6.91699L19.4546 6.92871V6.94043C19.4544 7.26375 19.2895 7.53526 19.0435 7.66992L12.7534 11.0596L12.7505 11.0615C12.5146 11.1901 12.2477 11.2549 11.9897 11.2549C11.7318 11.2549 11.4649 11.1902 11.229 11.0615L11.2261 11.0596L4.93604 7.66992C4.69011 7.53521 4.52505 7.26364 4.5249 6.94043C4.5249 6.61615 4.69092 6.34338 4.93799 6.20898L4.93701 6.20801L11.2261 2.82031Z" fill="#175CD3" stroke="#175CD3" stroke-width="1.25"/>
<path opacity="0.4" d="M2.9729 10.4547C3.22692 10.3011 3.51796 10.2899 3.76587 10.4166L3.76978 10.4186L9.62036 13.3492C10.2712 13.6747 10.6619 14.3177 10.6545 15.0133V20.5504C10.6544 20.8391 10.5128 21.0921 10.2766 21.235L10.259 21.2467C10.1373 21.3261 9.99691 21.3649 9.84985 21.3649C9.75531 21.3649 9.66198 21.3485 9.57446 21.317L9.4895 21.2809L3.63892 18.361H3.63989C2.99206 18.037 2.59497 17.3933 2.59497 16.6696V11.1403C2.59497 10.8515 2.73672 10.5976 2.9729 10.4547Z" fill="#175CD3" stroke="#175CD3" stroke-width="1.25"/>
<path opacity="0.4" d="M20.2344 10.4261C20.4904 10.2953 20.7761 10.3077 21.0176 10.4594L21.0205 10.4613C21.2579 10.6083 21.4052 10.8681 21.4053 11.1498V14.2787C20.5802 13.7074 19.5747 13.3754 18.5 13.3754C17.0656 13.3754 15.7556 13.9671 14.8223 14.9232C13.921 15.8473 13.375 17.1136 13.375 18.5004C13.3751 19.4565 13.6474 20.3644 14.1104 21.1351V21.1361C14.1568 21.2153 14.2063 21.2919 14.2568 21.3666C14.2216 21.3712 14.1862 21.3753 14.1504 21.3754C14.0057 21.3754 13.8605 21.337 13.7217 21.2504L13.7188 21.2484C13.4814 21.1014 13.335 20.8416 13.335 20.5599V15.0404C13.335 14.3167 13.732 13.6729 14.3799 13.349L14.3789 13.348L20.2295 10.4291L20.2344 10.4261Z" fill="#175CD3" stroke="#175CD3" stroke-width="1.25"/>
</svg>
