<svg width="20" height="20" viewBox="0 0 20 20" fill="none" xmlns="http://www.w3.org/2000/svg">
<path opacity="0.4" d="M18.2077 9.50781L17.691 15.1578C17.516 16.8245 16.8327 18.5245 13.166 18.5245H6.81602C3.14935 18.5245 2.46602 16.8245 2.29935 15.1661L1.79102 9.74115C1.79935 9.74948 1.80768 9.75781 1.82435 9.76615C2.10768 9.94948 2.38268 10.1328 2.68268 10.2995C2.79935 10.3745 2.92435 10.4411 3.04935 10.5078C3.99102 11.0245 4.99935 11.4328 6.04102 11.7161C6.45768 11.8411 6.88268 11.9328 7.31602 12.0078C7.48268 13.3411 8.62435 14.3745 9.99935 14.3745C11.391 14.3745 12.541 13.3161 12.691 11.9578V11.9495C13.116 11.8661 13.541 11.7578 13.9577 11.6328C14.9993 11.3078 16.0077 10.8745 16.9494 10.3245C16.9994 10.2995 17.041 10.2745 17.0743 10.2495C17.4577 10.0411 17.8244 9.79948 18.1743 9.54948C18.191 9.54115 18.1994 9.52448 18.2077 9.50781Z" fill="#866F6E"/>
<path d="M17.5758 5.81823C16.8675 5.0349 15.6925 4.64323 13.9675 4.64323H13.7675V4.6099C13.7675 3.2099 13.7675 1.47656 10.6342 1.47656H9.36751C6.23418 1.47656 6.23418 3.2099 6.23418 4.6099V4.64323H6.03418C4.30918 4.64323 3.12584 5.0349 2.42585 5.81823C1.60085 6.74323 1.62584 7.96823 1.70918 8.8099L1.71751 8.86823L1.79251 9.74323C1.80085 9.75156 1.81751 9.7599 1.83418 9.76823C2.11751 9.95156 2.39251 10.1349 2.69251 10.3016C2.80918 10.3766 2.93418 10.4432 3.05918 10.5099C4.00084 11.0266 5.00918 11.4349 6.04251 11.7182C6.06751 13.8766 7.83418 15.6266 10.0008 15.6266C12.1842 15.6266 13.9592 13.8516 13.9592 11.6682V11.6349C15.0092 11.3182 16.0175 10.8766 16.9592 10.3266C17.0092 10.3016 17.0425 10.2766 17.0842 10.2516C17.4675 10.0432 17.8342 9.80156 18.1842 9.55156C18.1925 9.54323 18.2092 9.52656 18.2175 9.5099L18.2508 9.2099L18.2925 8.81823C18.3008 8.76823 18.3008 8.72656 18.3092 8.66823C18.3758 7.8349 18.3592 6.6849 17.5758 5.81823ZM7.42584 4.6099C7.42584 3.19323 7.42584 2.6599 9.36751 2.6599H10.6342C12.5758 2.6599 12.5758 3.19323 12.5758 4.6099V4.64323H7.42584V4.6099ZM10.0008 14.3766C8.62584 14.3766 7.48418 13.3432 7.31751 12.0099C7.30084 11.9016 7.29251 11.7849 7.29251 11.6682C7.29251 10.1766 8.50918 8.9599 10.0008 8.9599C11.4925 8.9599 12.7092 10.1766 12.7092 11.6682C12.7092 11.7682 12.7008 11.8599 12.6925 11.9516V11.9599C12.5425 13.3182 11.3925 14.3766 10.0008 14.3766Z" fill="#866F6E"/>
<path d="M9.52409 13.3583C9.36576 13.3583 9.20742 13.3 9.08242 13.175L8.25742 12.3583C8.01576 12.1166 8.01576 11.7166 8.25742 11.475C8.49909 11.2333 8.89909 11.2333 9.14076 11.475L9.54076 11.875L10.8824 10.6416C11.1324 10.4083 11.5324 10.425 11.7658 10.675C11.9991 10.925 11.9824 11.325 11.7324 11.5583L9.95742 13.2C9.82409 13.3 9.67409 13.3583 9.52409 13.3583Z" fill="#866F6E"/>
</svg>
