<svg width="20" height="20" viewBox="0 0 20 20" fill="none" xmlns="http://www.w3.org/2000/svg">
<path opacity="0.4" d="M10.4176 6.17269V18.331H3.40091C2.43424 18.331 1.64258 17.556 1.64258 16.606V4.23935C1.64258 2.05602 3.27591 1.06435 5.26758 2.03935L8.95924 3.86435C9.75924 4.25602 10.4176 5.29769 10.4176 6.17269Z" fill="#866F6E"/>
<path d="M7.47565 8.125H4.58398C4.24232 8.125 3.95898 7.84167 3.95898 7.5C3.95898 7.15833 4.24232 6.875 4.58398 6.875H7.47565C7.81732 6.875 8.10065 7.15833 8.10065 7.5C8.10065 7.84167 7.82565 8.125 7.47565 8.125Z" fill="#866F6E"/>
<path d="M7.47565 11.4609H4.58398C4.24232 11.4609 3.95898 11.1776 3.95898 10.8359C3.95898 10.4943 4.24232 10.2109 4.58398 10.2109H7.47565C7.81732 10.2109 8.10065 10.4943 8.10065 10.8359C8.10065 11.1776 7.82565 11.4609 7.47565 11.4609Z" fill="#866F6E"/>
<path opacity="0.6" d="M18.3327 12.538V16.2464C18.3327 17.3964 17.3993 18.3297 16.2493 18.3297H10.416V8.67969L10.8077 8.76302L14.1743 9.51302L14.5743 9.60469L16.2743 9.98802C16.6827 10.0714 17.0577 10.213 17.3827 10.4214C17.3827 10.4297 17.391 10.4297 17.391 10.4297C17.4743 10.488 17.5577 10.5547 17.6327 10.6297C18.016 11.013 18.266 11.5714 18.3243 12.388C18.3243 12.438 18.3327 12.488 18.3327 12.538Z" fill="#866F6E"/>
<path d="M10.416 8.67969V13.6797C10.7993 14.188 11.3993 14.513 12.0827 14.513C13.241 14.513 14.1743 13.5797 14.1743 12.4297V9.52135L10.8077 8.77135L10.416 8.67969Z" fill="#866F6E"/>
<path d="M18.3258 12.3906C18.2674 11.574 18.0174 11.0156 17.6341 10.6323C17.5591 10.5573 17.4758 10.4906 17.3924 10.4323C17.3924 10.4323 17.3841 10.4323 17.3841 10.424C17.0591 10.2156 16.6841 10.074 16.2758 9.99062L14.5758 9.60729L14.1758 9.51562V12.4323C14.1758 13.574 15.1008 14.5156 16.2591 14.5156C17.3758 14.5156 18.2674 13.6406 18.3341 12.549V12.5406C18.3341 12.4906 18.3258 12.4406 18.3258 12.3906Z" fill="#866F6E"/>
</svg>
