<svg width="24" height="24" viewBox="0 0 24 24" fill="none" xmlns="http://www.w3.org/2000/svg">
<path d="M15.9998 1.875C16.0289 1.875 16.0603 1.88679 16.0867 1.91309C16.113 1.93946 16.1248 1.97086 16.1248 2V4.12988L16.6921 4.18262C17.9256 4.29683 18.7739 4.71309 19.3376 5.31152C19.8795 5.8869 20.2111 6.68984 20.3201 7.71484H3.67944C3.78846 6.68966 4.12085 5.88693 4.66284 5.31152C5.22652 4.71313 6.07404 4.29686 7.30737 4.18262L7.87476 4.12988V2C7.87476 1.9709 7.88654 1.93944 7.91284 1.91309C7.93915 1.88678 7.97068 1.87506 7.99976 1.875C8.02886 1.875 8.06032 1.88679 8.08667 1.91309C8.11305 1.93946 8.12476 1.97086 8.12476 2V4.125H15.8748V2C15.8748 1.9709 15.8865 1.93944 15.9128 1.91309C15.9392 1.88678 15.9707 1.87506 15.9998 1.875Z" fill="#6927DA" stroke="#6927DA" stroke-width="1.25"/>
<path opacity="0.4" d="M4 10.455H19.9883L20.0674 10.4637C20.2446 10.5033 20.3749 10.6625 20.375 10.8397V12.58C20.375 12.8157 20.1702 12.9777 19.9629 12.9432L19.9561 12.9423L19.9482 12.9413L19.4883 12.8876C19.3293 12.8737 19.1658 12.8651 19 12.8651C15.6248 12.8651 12.875 15.6149 12.875 18.9901C12.875 19.5642 13.0899 20.295 13.2764 20.8641L13.2783 20.87C13.3608 21.1136 13.1834 21.3651 12.9199 21.3651H8C6.36912 21.3651 5.30708 20.9018 4.64551 20.1893C3.97628 19.4685 3.62503 18.3941 3.625 16.9901V10.83C3.625 10.6251 3.79518 10.455 4 10.455Z" fill="#6927DA" stroke="#6927DA" stroke-width="1.25"/>
<path d="M19 15.625C20.8648 15.625 22.375 17.1352 22.375 19C22.375 19.6327 22.1975 20.229 21.8877 20.7314L21.8828 20.7402C21.3013 21.7178 20.2316 22.375 19 22.375C17.8453 22.375 16.8326 21.7977 16.2314 20.9199L16.1172 20.7402L16.1123 20.7324L16.002 20.5391C15.7605 20.0796 15.625 19.5536 15.625 19C15.625 17.1352 17.1352 15.625 19 15.625ZM21.5674 17.084C21.0562 16.5363 20.1823 16.494 19.626 17.0107L18.4658 18.082L18.4121 18.0283C17.878 17.4942 17.0019 17.4942 16.4678 18.0283C15.9341 18.5623 15.9341 19.4377 16.4678 19.9717L17.458 20.9619C17.7313 21.2352 18.083 21.3652 18.4297 21.3652C18.7615 21.3652 19.1048 21.2394 19.3643 20.999L21.4941 19.0293L21.5039 19.0195C22.0375 18.5038 22.0902 17.6447 21.5674 17.084Z" fill="#6927DA" stroke="#6927DA" stroke-width="1.25"/>
<path d="M8.5 15C8.24 15 7.98 14.89 7.79 14.71C7.61 14.52 7.5 14.26 7.5 14C7.5 13.74 7.61 13.48 7.79 13.29C8.02 13.06 8.37 12.95 8.7 13.02C8.76 13.03 8.82 13.05 8.88 13.08C8.94 13.1 9 13.13 9.06 13.17C9.11 13.21 9.16 13.25 9.21 13.29C9.39 13.48 9.5 13.74 9.5 14C9.5 14.26 9.39 14.52 9.21 14.71C9.16 14.75 9.11 14.79 9.06 14.83C9 14.87 8.94 14.9 8.88 14.92C8.82 14.95 8.76 14.97 8.7 14.98C8.63 14.99 8.56 15 8.5 15Z" fill="#6927DA"/>
<path d="M12 14.9999C11.74 14.9999 11.48 14.8899 11.29 14.7099C11.11 14.5199 11 14.2599 11 13.9999C11 13.7399 11.11 13.48 11.29 13.29C11.67 12.92 12.34 12.92 12.71 13.29C12.89 13.48 13 13.7399 13 13.9999C13 14.2599 12.89 14.5199 12.71 14.7099C12.52 14.8899 12.26 14.9999 12 14.9999Z" fill="#6927DA"/>
<path d="M8.5 18.5C8.24 18.5 7.98 18.39 7.79 18.21C7.61 18.02 7.5 17.76 7.5 17.5C7.5 17.24 7.61 16.98 7.79 16.79C7.89 16.7 7.99 16.63 8.12 16.58C8.49 16.42 8.93 16.51 9.21 16.79C9.39 16.98 9.5 17.24 9.5 17.5C9.5 17.76 9.39 18.02 9.21 18.21C9.02 18.39 8.76 18.5 8.5 18.5Z" fill="#6927DA"/>
</svg>
