<svg width="16" height="17" viewBox="0 0 16 17" fill="none" xmlns="http://www.w3.org/2000/svg">
<path d="M14.6468 12.998C14.6468 13.238 14.5935 13.4847 14.4802 13.7247C14.3668 13.9647 14.2202 14.1913 14.0268 14.4047C13.7002 14.7647 13.3402 15.0247 12.9335 15.1913C12.5335 15.358 12.1002 15.4447 11.6335 15.4447C10.9535 15.4447 10.2268 15.2847 9.46016 14.958C8.6935 14.6313 7.92683 14.1913 7.16683 13.638C6.40016 13.078 5.6735 12.458 4.98016 11.7713C4.2935 11.078 3.6735 10.3513 3.12016 9.59133C2.5735 8.83133 2.1335 8.07133 1.8135 7.318C1.4935 6.558 1.3335 5.83133 1.3335 5.13799C1.3335 4.68466 1.4135 4.25133 1.5735 3.85133C1.7335 3.44466 1.98683 3.07133 2.34016 2.73799C2.76683 2.31799 3.2335 2.11133 3.72683 2.11133C3.9135 2.11133 4.10016 2.15133 4.26683 2.23133C4.44016 2.31133 4.5935 2.43133 4.7135 2.60466L6.26016 4.78466C6.38016 4.95133 6.46683 5.10466 6.52683 5.25133C6.58683 5.39133 6.62016 5.53133 6.62016 5.658C6.62016 5.818 6.5735 5.97799 6.48016 6.13133C6.3935 6.28466 6.26683 6.44466 6.10683 6.60466L5.60016 7.13133C5.52683 7.20466 5.4935 7.29133 5.4935 7.398C5.4935 7.45133 5.50016 7.49799 5.5135 7.55133C5.5335 7.60466 5.5535 7.64466 5.56683 7.68466C5.68683 7.90466 5.8935 8.19133 6.18683 8.538C6.48683 8.88466 6.80683 9.238 7.1535 9.59133C7.5135 9.94466 7.86016 10.2713 8.2135 10.5713C8.56016 10.8647 8.84683 11.0647 9.0735 11.1847C9.10683 11.198 9.14683 11.218 9.1935 11.238C9.24683 11.258 9.30016 11.2647 9.36016 11.2647C9.4735 11.2647 9.56016 11.2247 9.6335 11.1513L10.1402 10.6513C10.3068 10.4847 10.4668 10.358 10.6202 10.278C10.7735 10.1847 10.9268 10.138 11.0935 10.138C11.2202 10.138 11.3535 10.1647 11.5002 10.2247C11.6468 10.2847 11.8002 10.3713 11.9668 10.4847L14.1735 12.0513C14.3468 12.1713 14.4668 12.3113 14.5402 12.478C14.6068 12.6447 14.6468 12.8113 14.6468 12.998Z" stroke="#866F6E" stroke-width="1.5" stroke-miterlimit="10"/>
</svg>
