<svg width="12" height="13" viewBox="0 0 12 13" fill="none" xmlns="http://www.w3.org/2000/svg">
<mask id="path-1-inside-1_446_42384" fill="white">
<path d="M9.44922 8.06934C8.34422 8.06934 7.44922 8.96434 7.44922 10.0693C7.44922 11.1743 8.34422 12.0693 9.44922 12.0693C10.5542 12.0693 11.4492 11.1743 11.4492 10.0693C11.4492 8.96434 10.5542 8.06934 9.44922 8.06934ZM10.2492 10.8943C10.1742 10.9693 10.0792 11.0043 9.98422 11.0043C9.88922 11.0043 9.79422 10.9693 9.71922 10.8943L9.45422 10.6293L9.17922 10.9043C9.10422 10.9793 9.00922 11.0143 8.91422 11.0143C8.81922 11.0143 8.72422 10.9793 8.64922 10.9043C8.50422 10.7593 8.50422 10.5193 8.64922 10.3743L8.92422 10.0993L8.65922 9.83434C8.51422 9.68934 8.51422 9.44934 8.65922 9.30434C8.80422 9.15934 9.04422 9.15934 9.18922 9.30434L9.45422 9.56934L9.70422 9.31934C9.84922 9.17434 10.0892 9.17434 10.2342 9.31934C10.3792 9.46434 10.3792 9.70434 10.2342 9.84934L9.98422 10.0993L10.2492 10.3643C10.3942 10.5093 10.3942 10.7493 10.2492 10.8943Z"/>
</mask>
<path d="M9.44922 8.06934C8.34422 8.06934 7.44922 8.96434 7.44922 10.0693C7.44922 11.1743 8.34422 12.0693 9.44922 12.0693C10.5542 12.0693 11.4492 11.1743 11.4492 10.0693C11.4492 8.96434 10.5542 8.06934 9.44922 8.06934ZM10.2492 10.8943C10.1742 10.9693 10.0792 11.0043 9.98422 11.0043C9.88922 11.0043 9.79422 10.9693 9.71922 10.8943L9.45422 10.6293L9.17922 10.9043C9.10422 10.9793 9.00922 11.0143 8.91422 11.0143C8.81922 11.0143 8.72422 10.9793 8.64922 10.9043C8.50422 10.7593 8.50422 10.5193 8.64922 10.3743L8.92422 10.0993L8.65922 9.83434C8.51422 9.68934 8.51422 9.44934 8.65922 9.30434C8.80422 9.15934 9.04422 9.15934 9.18922 9.30434L9.45422 9.56934L9.70422 9.31934C9.84922 9.17434 10.0892 9.17434 10.2342 9.31934C10.3792 9.46434 10.3792 9.70434 10.2342 9.84934L9.98422 10.0993L10.2492 10.3643C10.3942 10.5093 10.3942 10.7493 10.2492 10.8943Z" fill="#B42318"/>
<path d="M9.45422 10.6293L10.5149 9.56868L9.45422 8.50801L8.39356 9.56868L9.45422 10.6293ZM9.17922 10.9043L10.2399 11.965L10.2399 11.965L9.17922 10.9043ZM8.64922 10.3743L7.58856 9.31367L7.58856 9.31368L8.64922 10.3743ZM8.92422 10.0993L9.98488 11.16L11.0455 10.0993L9.98488 9.03868L8.92422 10.0993ZM9.45422 9.56934L8.39356 10.63L9.45422 11.6907L10.5149 10.63L9.45422 9.56934ZM9.98422 10.0993L8.92356 9.03868L7.8629 10.0993L8.92356 11.16L9.98422 10.0993ZM9.44922 8.06934V6.56934C7.51579 6.56934 5.94922 8.13591 5.94922 10.0693H7.44922H8.94922C8.94922 9.79276 9.17265 9.56934 9.44922 9.56934V8.06934ZM7.44922 10.0693H5.94922C5.94922 12.0028 7.51579 13.5693 9.44922 13.5693V12.0693V10.5693C9.17265 10.5693 8.94922 10.3459 8.94922 10.0693H7.44922ZM9.44922 12.0693V13.5693C11.3826 13.5693 12.9492 12.0028 12.9492 10.0693H11.4492H9.94922C9.94922 10.3459 9.72579 10.5693 9.44922 10.5693V12.0693ZM11.4492 10.0693H12.9492C12.9492 8.13591 11.3826 6.56934 9.44922 6.56934V8.06934V9.56934C9.72579 9.56934 9.94922 9.79276 9.94922 10.0693H11.4492ZM10.2492 10.8943L9.18856 9.83368C9.40969 9.61254 9.70287 9.50434 9.98422 9.50434V11.0043V12.5043C10.4556 12.5043 10.9387 12.3261 11.3099 11.955L10.2492 10.8943ZM9.98422 11.0043V9.50434C10.2656 9.50434 10.5588 9.61255 10.7799 9.83368L9.71922 10.8943L8.65856 11.955C9.02969 12.3261 9.51286 12.5043 9.98422 12.5043V11.0043ZM9.71922 10.8943L10.7799 9.83368L10.5149 9.56868L9.45422 10.6293L8.39356 11.69L8.65856 11.955L9.71922 10.8943ZM9.45422 10.6293L8.39356 9.56868L8.11856 9.84368L9.17922 10.9043L10.2399 11.965L10.5149 11.69L9.45422 10.6293ZM9.17922 10.9043L8.11856 9.84368C8.33969 9.62254 8.63287 9.51434 8.91422 9.51434V11.0143V12.5143C9.38557 12.5143 9.86875 12.3361 10.2399 11.965L9.17922 10.9043ZM8.91422 11.0143V9.51434C9.19557 9.51434 9.48875 9.62254 9.70988 9.84368L8.64922 10.9043L7.58856 11.965C7.95969 12.3361 8.44287 12.5143 8.91422 12.5143V11.0143ZM8.64922 10.9043L9.70988 9.84368C10.1507 10.2845 10.1507 10.9942 9.70988 11.435L8.64922 10.3743L7.58856 9.31368C6.85777 10.0445 6.85777 11.2342 7.58856 11.965L8.64922 10.9043ZM8.64922 10.3743L9.70988 11.435L9.98488 11.16L8.92422 10.0993L7.86356 9.03867L7.58856 9.31367L8.64922 10.3743ZM8.92422 10.0993L9.98488 9.03868L9.71988 8.77368L8.65922 9.83434L7.59856 10.895L7.86356 11.16L8.92422 10.0993ZM8.65922 9.83434L9.71988 8.77368C10.1607 9.21446 10.1607 9.92421 9.71988 10.365L8.65922 9.30434L7.59856 8.24368C6.86777 8.97446 6.86777 10.1642 7.59856 10.895L8.65922 9.83434ZM8.65922 9.30434L9.71988 10.365C9.27909 10.8058 8.56934 10.8058 8.12856 10.365L9.18922 9.30434L10.2499 8.24368C9.51909 7.51289 8.32935 7.51289 7.59856 8.24368L8.65922 9.30434ZM9.18922 9.30434L8.12856 10.365L8.39356 10.63L9.45422 9.56934L10.5149 8.50868L10.2499 8.24368L9.18922 9.30434ZM9.45422 9.56934L10.5149 10.63L10.7649 10.38L9.70422 9.31934L8.64356 8.25868L8.39356 8.50868L9.45422 9.56934ZM9.70422 9.31934L10.7649 10.38C10.3241 10.8208 9.61434 10.8208 9.17356 10.38L10.2342 9.31934L11.2949 8.25868C10.5641 7.52789 9.37435 7.52789 8.64356 8.25868L9.70422 9.31934ZM10.2342 9.31934L9.17356 10.38C8.73277 9.93921 8.73277 9.22946 9.17356 8.78868L10.2342 9.84934L11.2949 10.91C12.0257 10.1792 12.0257 8.98946 11.2949 8.25868L10.2342 9.31934ZM10.2342 9.84934L9.17356 8.78868L8.92356 9.03868L9.98422 10.0993L11.0449 11.16L11.2949 10.91L10.2342 9.84934ZM9.98422 10.0993L8.92356 11.16L9.18856 11.425L10.2492 10.3643L11.3099 9.30368L11.0449 9.03868L9.98422 10.0993ZM10.2492 10.3643L9.18856 11.425C8.74777 10.9842 8.74777 10.2745 9.18856 9.83368L10.2492 10.8943L11.3099 11.955C12.0407 11.2242 12.0407 10.0345 11.3099 9.30368L10.2492 10.3643Z" fill="#B42318" mask="url(#path-1-inside-1_446_42384)"/>
<path d="M3.07031 3.00439H8.9248C9.64717 3.00439 10.2355 3.58501 10.249 4.3042H1.75098C1.76172 3.58279 2.34627 3.00439 3.07031 3.00439Z" fill="#B42318" stroke="#B42318" stroke-width="1.5"/>
<path d="M10.25 6.54956V6.66284C9.65326 6.52335 9.00248 6.53354 8.3418 6.74487C7.855 6.90065 7.40958 7.17189 7.04785 7.52612C6.27763 8.27369 5.94589 9.20957 5.95508 10.1042H3.07031C2.33964 10.1042 1.75019 9.51554 1.75 8.78491V6.54956H10.25ZM3 7.67944C2.38083 7.67944 1.87506 8.18528 1.875 8.80444C1.875 9.42366 2.38079 9.92944 3 9.92944H4C4.61921 9.92944 5.125 9.42366 5.125 8.80444C5.12494 8.18528 4.61917 7.67944 4 7.67944H3Z" fill="#B42318" stroke="#B42318" stroke-width="1.5"/>
</svg>
