<svg width="12" height="12" viewBox="0 0 12 12" fill="none" xmlns="http://www.w3.org/2000/svg">
<path d="M9.19434 8.48145C9.10526 8.44016 9.01222 8.41032 8.91699 8.39355C9.07474 8.31033 9.25268 8.26163 9.44141 8.25293L9.19434 8.48145Z" fill="#067647" stroke="#067647" stroke-width="1.5"/>
<path d="M11 3.77422V3.99922C11 4.27422 10.775 4.49922 10.5 4.49922H1.5C1.225 4.49922 1 4.27422 1 3.99922V3.76922C1 2.62422 1.925 1.69922 3.07 1.69922H8.925C10.07 1.69922 11 2.62922 11 3.77422Z" fill="#067647"/>
<path d="M1 5.74914V8.22914C1 9.37414 1.925 10.2991 3.07 10.2991H6.2C6.49 10.2991 6.74 10.0541 6.715 9.76414C6.645 8.99914 6.89 8.16914 7.57 7.50914C7.85 7.23414 8.195 7.02414 8.57 6.90414C9.195 6.70414 9.8 6.72914 10.335 6.90914C10.66 7.01914 11 6.78414 11 6.43914V5.74414C11 5.46914 10.775 5.24414 10.5 5.24414H1.5C1.225 5.24914 1 5.47414 1 5.74914ZM4 8.62414H3C2.795 8.62414 2.625 8.45414 2.625 8.24914C2.625 8.04414 2.795 7.87414 3 7.87414H4C4.205 7.87414 4.375 8.04414 4.375 8.24914C4.375 8.45414 4.205 8.62414 4 8.62414Z" fill="#067647"/>
</svg>
