<svg width="12" height="13" viewBox="0 0 12 13" fill="none" xmlns="http://www.w3.org/2000/svg">
<path d="M11 11.1794C11 11.3844 10.83 11.5544 10.625 11.5544H1.375C1.17 11.5544 1 11.3844 1 11.1794C1 10.9744 1.17 10.8044 1.375 10.8044H10.625C10.83 10.8044 11 10.9744 11 11.1794Z" fill="#B54708"/>
<path d="M7.6957 2.81445L2.3257 8.18445C2.1207 8.38945 1.7907 8.38945 1.5907 8.18445H1.5857C0.890703 7.48445 0.890703 6.35445 1.5857 5.65945L5.1607 2.08445C5.8607 1.38445 6.9907 1.38445 7.6907 2.08445C7.8957 2.27945 7.8957 2.61445 7.6957 2.81445Z" fill="#B54708"/>
<path d="M10.4107 4.79948L8.8857 3.27448C8.6807 3.06948 8.3507 3.06948 8.1507 3.27448L2.7807 8.64448C2.5757 8.84448 2.5757 9.17448 2.7807 9.37948L4.3057 10.9095C5.0057 11.6045 6.1357 11.6045 6.8357 10.9095L10.4057 7.33448C11.1157 6.63448 11.1157 5.49948 10.4107 4.79948ZM6.3807 9.31448L5.7757 9.92448C5.6507 10.0495 5.4457 10.0495 5.3157 9.92448C5.1907 9.79948 5.1907 9.59448 5.3157 9.46448L5.9257 8.85448C6.0457 8.73448 6.2557 8.73448 6.3807 8.85448C6.5057 8.97948 6.5057 9.19448 6.3807 9.31448ZM8.3657 7.32948L7.1457 8.55448C7.0207 8.67448 6.8157 8.67448 6.6857 8.55448C6.5607 8.42948 6.5607 8.22448 6.6857 8.09448L7.9107 6.86948C8.0307 6.74948 8.2407 6.74948 8.3657 6.86948C8.4907 6.99948 8.4907 7.20448 8.3657 7.32948Z" fill="#B54708"/>
</svg>
