<svg width="20" height="20" viewBox="0 0 20 20" fill="none" xmlns="http://www.w3.org/2000/svg">
<path d="M6.03268 1.66406H4.44935C2.62435 1.66406 1.66602 2.6224 1.66602 4.43906V6.0224C1.66602 7.83906 2.62435 8.7974 4.44102 8.7974H6.02435C7.84102 8.7974 8.79935 7.83906 8.79935 6.0224V4.43906C8.80768 2.6224 7.84935 1.66406 6.03268 1.66406Z" fill="#866F6E"/>
<path opacity="0.4" d="M15.5576 1.66406H13.9742C12.1576 1.66406 11.1992 2.6224 11.1992 4.43906V6.0224C11.1992 7.83906 12.1576 8.7974 13.9742 8.7974H15.5576C17.3742 8.7974 18.3326 7.83906 18.3326 6.0224V4.43906C18.3326 2.6224 17.3742 1.66406 15.5576 1.66406Z" fill="#866F6E"/>
<path d="M15.5576 11.1953H13.9742C12.1576 11.1953 11.1992 12.1536 11.1992 13.9703V15.5536C11.1992 17.3703 12.1576 18.3286 13.9742 18.3286H15.5576C17.3742 18.3286 18.3326 17.3703 18.3326 15.5536V13.9703C18.3326 12.1536 17.3742 11.1953 15.5576 11.1953Z" fill="#866F6E"/>
<path opacity="0.4" d="M6.03268 11.1953H4.44935C2.62435 11.1953 1.66602 12.1536 1.66602 13.9703V15.5536C1.66602 17.3786 2.62435 18.337 4.44102 18.337H6.02435C7.84102 18.337 8.79935 17.3786 8.79935 15.562V13.9786C8.80768 12.1536 7.84935 11.1953 6.03268 11.1953Z" fill="#866F6E"/>
</svg>
