<svg width="24" height="24" viewBox="0 0 24 24" fill="none" xmlns="http://www.w3.org/2000/svg">
<path opacity="0.4" d="M7.80957 2.625H16.1904C17.886 2.62508 19.1642 3.12799 20.0166 3.98145C20.869 4.83489 21.3699 6.11328 21.3652 7.80859V16.1904C21.3651 17.8858 20.8616 19.1637 20.0078 20.0176C19.1539 20.8715 17.8754 21.375 16.1797 21.375H7.80957C6.11409 21.3749 4.83618 20.8714 3.98242 20.0166C3.12859 19.1616 2.625 17.8807 2.625 16.1797V7.80957C2.62508 6.11408 3.12859 4.83626 3.98242 3.98242C4.78298 3.18186 5.95621 2.68923 7.49707 2.63086L7.80957 2.625Z" fill="#B42318" stroke="#B42318" stroke-width="1.25"/>
<path d="M7 10.2749C7.02914 10.2749 7.06054 10.2866 7.08691 10.313C7.11329 10.3394 7.125 10.3708 7.125 10.3999V13.6099C7.125 13.6638 7.07578 13.7251 7 13.7251C6.97089 13.7251 6.93944 13.7133 6.91309 13.687C6.88677 13.6607 6.87505 13.6292 6.875 13.6001V10.3999C6.875 10.3708 6.88671 10.3394 6.91309 10.313C6.93946 10.2866 6.97086 10.2749 7 10.2749Z" fill="#B42318" stroke="#B42318" stroke-width="1.25"/>
<path d="M12 8.53491C12.0291 8.53491 12.0605 8.54662 12.0869 8.573C12.1133 8.59938 12.125 8.63077 12.125 8.65991V15.3396C12.125 15.3687 12.1132 15.4002 12.0869 15.4265C12.0605 15.4529 12.0291 15.4646 12 15.4646C11.9709 15.4646 11.9395 15.4529 11.9131 15.4265C11.8868 15.4002 11.875 15.3687 11.875 15.3396V8.65991C11.875 8.63077 11.8867 8.59938 11.9131 8.573C11.9395 8.54662 11.9709 8.53491 12 8.53491Z" fill="#B42318" stroke="#B42318" stroke-width="1.25"/>
<path d="M17 10.2749C17.0291 10.2749 17.0605 10.2866 17.0869 10.313C17.1133 10.3394 17.125 10.3708 17.125 10.3999V13.6099C17.125 13.6638 17.0758 13.7251 17 13.7251C16.9709 13.7251 16.9394 13.7133 16.9131 13.687C16.8868 13.6607 16.8751 13.6292 16.875 13.6001V10.3999C16.875 10.3708 16.8867 10.3394 16.9131 10.313C16.9395 10.2866 16.9709 10.2749 17 10.2749Z" fill="#B42318" stroke="#B42318" stroke-width="1.25"/>
</svg>
