<svg width="24" height="24" viewBox="0 0 24 24" fill="none" xmlns="http://www.w3.org/2000/svg">
<path opacity="0.4" d="M7.75977 4.27502H16.2402C18.3564 4.27513 20.0838 5.99642 20.0752 8.1178V17.5299C20.0752 19.6455 18.3542 21.3744 16.2305 21.3746H7.75977C5.64507 21.3745 3.91504 19.6446 3.91504 17.5299V8.11975C3.91519 6.00423 5.63607 4.27517 7.75977 4.27502Z" fill="#462C1F" stroke="#462C1F" stroke-width="1.25"/>
<path d="M9.64966 2.625H14.3499C15.0502 2.625 15.6113 3.18937 15.6047 3.87402V4.82031C15.6046 5.51499 15.0446 6.0752 14.3499 6.0752H9.63989C8.94523 6.07513 8.38518 5.51495 8.38501 4.82031V3.87988C8.38507 3.18954 8.95071 2.62519 9.64966 2.625Z" fill="#462C1F" stroke="#462C1F" stroke-width="1.25"/>
<path d="M8 12.075H15C15.0291 12.075 15.0605 12.0867 15.0869 12.113C15.1133 12.1394 15.125 12.1708 15.125 12.2C15.125 12.2291 15.1133 12.2605 15.0869 12.2869C15.0605 12.3132 15.0291 12.325 15 12.325H8C7.97086 12.325 7.93946 12.3132 7.91309 12.2869C7.88671 12.2605 7.875 12.2291 7.875 12.2C7.875 12.1708 7.88671 12.1394 7.91309 12.113C7.93946 12.0867 7.97086 12.075 8 12.075Z" fill="#462C1F" stroke="#462C1F" stroke-width="1.25"/>
<path d="M8 16.075H12.3799C12.409 16.075 12.4404 16.0867 12.4668 16.113C12.4932 16.1394 12.5049 16.1708 12.5049 16.2C12.5049 16.2291 12.4932 16.2605 12.4668 16.2869C12.4404 16.3132 12.409 16.325 12.3799 16.325H8C7.97086 16.325 7.93946 16.3132 7.91309 16.2869C7.88671 16.2605 7.875 16.2291 7.875 16.2C7.875 16.1708 7.88671 16.1394 7.91309 16.113C7.93946 16.0867 7.97086 16.075 8 16.075Z" fill="#462C1F" stroke="#462C1F" stroke-width="1.25"/>
</svg>
