<svg width="12" height="12" viewBox="0 0 12 12" fill="none" xmlns="http://www.w3.org/2000/svg">
<path d="M4.8252 1.75H7.1748C7.28717 1.75 7.36604 1.8391 7.36523 1.93262V2.41016C7.36515 2.51587 7.28054 2.59961 7.1748 2.59961H4.82031C4.71458 2.59961 4.62997 2.51587 4.62988 2.41016V1.94043C4.62988 1.83981 4.71422 1.75 4.8252 1.75Z" fill="#171717" stroke="#6927DA" stroke-width="1.5"/>
<path d="M9.25537 3.10254C9.47311 3.36135 9.60494 3.69516 9.60498 4.05957V8.76465C9.60498 9.58043 8.93542 10.25 8.11963 10.25H3.88037C3.06458 10.25 2.39502 9.58043 2.39502 8.76465V4.05957C2.39506 3.69539 2.52617 3.36129 2.74365 3.10254C3.03485 3.97362 3.85769 4.60436 4.82471 4.60449H7.17529C8.14221 4.60437 8.96408 3.97347 9.25537 3.10254ZM4.00049 4.97461C3.41986 4.97461 2.93805 5.41941 2.88037 5.98535L2.87549 6.09961L2.88037 6.21484C2.91991 6.60043 3.15671 6.9291 3.48682 7.09961C3.15645 7.27021 2.91971 7.59942 2.88037 7.98535L2.87549 8.09961L2.88037 8.21484C2.93838 8.78045 3.4201 9.22461 4.00049 9.22461H6.18994C6.80915 9.22461 7.31494 8.71882 7.31494 8.09961C7.3149 7.74664 7.15009 7.43117 6.89404 7.22461H7.50049C8.11949 7.22435 8.62549 6.71867 8.62549 6.09961C8.62541 5.48061 8.11944 4.97486 7.50049 4.97461H4.00049Z" fill="#6927DA" stroke="#6927DA" stroke-width="1.5"/>
</svg>
