<svg width="24" height="24" viewBox="0 0 24 24" fill="none" xmlns="http://www.w3.org/2000/svg">
<path d="M12 2.75C17.0958 2.75 21.25 6.90421 21.25 12C21.25 17.0958 17.0958 21.25 12 21.25C6.90421 21.25 2.75 17.0958 2.75 12C2.75 6.90421 6.90421 2.75 12 2.75ZM15.8906 8.10938C15.3078 7.52651 14.3524 7.52656 13.7695 8.10938L12 9.87891L10.2305 8.10938C9.64757 7.52656 8.69224 7.52651 8.10938 8.10938C7.52651 8.69224 7.52656 9.64757 8.10938 10.2305L9.87891 12L8.10938 13.7695C7.52656 14.3524 7.52651 15.3078 8.10938 15.8906C8.40742 16.1887 8.79177 16.3301 9.16992 16.3301C9.54807 16.3301 9.93242 16.1886 10.2305 15.8906L12 14.1201L13.7695 15.8906C14.0676 16.1886 14.4519 16.3301 14.8301 16.3301C15.2082 16.3301 15.5926 16.1887 15.8906 15.8906C16.4735 15.3078 16.4734 14.3524 15.8906 13.7695L14.1201 12L15.8906 10.2305C16.4734 9.64757 16.4735 8.69224 15.8906 8.10938Z" fill="#6A5554" stroke="#6A5554" stroke-width="1.5"/>
</svg>
