<svg width="48" height="48" viewBox="0 0 48 48" fill="none" xmlns="http://www.w3.org/2000/svg">
<path d="M16.1153 10.8838L3.15735 42.2608C2.48135 43.8968 4.10335 45.5188 5.73935 44.8428L37.1164 31.8848L16.1153 10.8838Z" fill="#FF4264"/>
<path d="M37.1205 31.8802L5.74048 44.8402C4.35048 45.4202 2.97048 44.3302 3.00048 42.9902C3.48048 43.9902 4.77048 44.5202 5.87048 43.8302L32.4605 27.2202L37.1205 31.8802Z" fill="#D93855"/>
<path d="M15.2696 40.8999L8.87965 43.5399C7.55965 41.0799 6.54965 38.4299 5.88965 35.6499L10.0896 25.4699C10.5096 31.1299 12.3496 36.3899 15.2696 40.8999ZM20.0496 14.8099L16.1196 10.8799L15.4596 12.4799C15.1596 14.2699 14.9996 16.1199 14.9996 17.9999C14.9996 25.5999 17.5696 32.5999 21.8696 38.1799L28.7196 35.3499C23.6796 29.8799 20.4796 22.7199 20.0496 14.8099Z" fill="#FFC343"/>
<path d="M14.0023 38.7468C14.4013 39.4798 14.8183 40.2018 15.2703 40.8998L8.88032 43.5398C8.66732 43.1418 8.47532 42.7318 8.27832 42.3238L14.0033 38.7458L14.0023 38.7468ZM19.7863 35.1318C20.4263 36.1868 21.1203 37.2058 21.8703 38.1798L28.7203 35.3498C27.6023 34.1358 26.5803 32.8348 25.6533 31.4658L19.7863 35.1318Z" fill="#FFA221"/>
<path d="M37.5231 31.6904C39.0852 30.1283 35.6028 24.1133 29.7449 18.2554C23.887 12.3975 17.872 8.91514 16.3099 10.4772C14.7478 12.0393 18.2302 18.0544 24.088 23.9123C29.9459 29.7701 35.961 33.2525 37.5231 31.6904Z" fill="white"/>
<path d="M15.6026 9.77013C15.2806 10.0921 15.0926 10.4981 15.0076 10.9661L2.23658 41.8751C1.76358 43.0151 2.00758 44.2601 2.87358 45.1251C3.44658 45.6991 4.18758 45.9991 4.95358 45.9991C5.34358 45.9991 5.73958 45.9211 6.12258 45.7621L37.0096 33.0001C37.4886 32.9181 37.9016 32.7241 38.2296 32.3951C40.6586 29.9651 35.8996 22.9951 30.4516 17.5461C25.0036 12.0971 18.0346 7.33813 15.6026 9.76813V9.77013ZM19.9016 20.7991C21.1146 26.0051 23.5876 30.8611 27.0546 34.9511L22.2196 36.9491C18.1576 31.4161 15.9996 24.8951 15.9996 18.0011C15.9996 17.0901 16.0416 16.1731 16.1196 15.2571C17.0066 16.9841 18.3316 18.8961 19.9016 20.7991ZM15.6816 39.6501C13.0846 35.3931 11.4996 30.5561 11.1076 25.6451L14.0236 18.5881C14.1396 25.5261 16.3126 32.1031 20.3326 37.7291L15.6816 39.6501ZM9.35958 42.2621C8.32158 40.1861 7.50958 37.9921 6.94258 35.7251L9.58458 29.3291C10.3276 33.2401 11.7676 37.0031 13.8156 40.4211L9.35958 42.2621ZM5.35758 43.9151C4.78958 44.1511 4.39558 43.8191 4.28758 43.7121C4.18058 43.6051 3.84858 43.2111 4.08458 42.6411L5.71958 38.6841C6.20958 40.1781 6.81058 41.6261 7.50958 43.0261L5.35758 43.9151ZM28.9956 34.1491C26.4276 31.2431 24.4146 27.8971 23.0586 24.2871C23.1666 24.3971 23.2726 24.5111 23.3806 24.6191C26.6536 27.8921 30.4716 30.9091 33.5286 32.2761L28.9956 34.1491ZM36.8156 30.9831C36.1786 31.6161 31.3266 29.7361 24.7946 23.2051C18.2636 16.6731 16.3816 11.8181 17.0166 11.1841C17.0926 11.1081 17.2296 11.0681 17.4226 11.0681C18.8396 11.0681 23.2896 13.2141 29.0376 18.9621C35.5686 25.4931 37.4506 30.3491 36.8156 30.9831ZM27.7206 10.4991C27.5516 10.4991 27.3796 10.4561 27.2216 10.3651C26.7436 10.0891 26.5796 9.47713 26.8556 8.99913C27.6116 7.69013 27.7346 6.94713 27.8776 6.08613C28.0306 5.16613 28.2046 4.12413 29.1406 2.50113C29.4166 2.02213 30.0256 1.85713 30.5066 2.13513C30.9846 2.41113 31.1486 3.02313 30.8726 3.50113C30.1166 4.81013 29.9936 5.55313 29.8506 6.41413C29.6976 7.33413 29.5236 8.37613 28.5876 9.99913C28.4016 10.3201 28.0666 10.4991 27.7206 10.4991ZM39.0716 22.0671C38.6296 22.0671 38.2256 21.7721 38.1066 21.3251C37.9636 20.7911 38.2806 20.2431 38.8136 20.1001C42.2596 19.1771 44.2206 16.9311 44.2396 16.9081C44.5996 16.4911 45.2306 16.4411 45.6486 16.7981C46.0676 17.1561 46.1196 17.7841 45.7626 18.2041C45.6686 18.3151 43.4056 20.9401 39.3306 22.0311C39.2436 22.0541 39.1566 22.0671 39.0716 22.0671Z" fill="#282021"/>
<path d="M44 11C44.5523 11 45 10.5523 45 10C45 9.44772 44.5523 9 44 9C43.4477 9 43 9.44772 43 10C43 10.5523 43.4477 11 44 11Z" fill="#282021"/>
<path d="M35 13C35.5523 13 36 12.5523 36 12C36 11.4477 35.5523 11 35 11C34.4477 11 34 11.4477 34 12C34 12.5523 34.4477 13 35 13Z" fill="#282021"/>
<path d="M22 6C22.5523 6 23 5.55228 23 5C23 4.44772 22.5523 4 22 4C21.4477 4 21 4.44772 21 5C21 5.55228 21.4477 6 22 6Z" fill="#282021"/>
<path d="M44 27C44.5523 27 45 26.5523 45 26C45 25.4477 44.5523 25 44 25C43.4477 25 43 25.4477 43 26C43 26.5523 43.4477 27 44 27Z" fill="#282021"/>
<path d="M38 5C38.5523 5 39 4.55228 39 4C39 3.44772 38.5523 3 38 3C37.4477 3 37 3.44772 37 4C37 4.55228 37.4477 5 38 5Z" fill="#282021"/>
</svg>
