<svg width="22" height="13" viewBox="0 0 22 13" fill="none" xmlns="http://www.w3.org/2000/svg">
<path d="M11.4626 9.03492C11.3763 9.03492 11.2919 9.05995 11.2201 9.10684C11.1484 9.15373 11.0924 9.22038 11.0594 9.29836C11.0263 9.37634 11.0177 9.46214 11.0345 9.54492C11.0514 9.6277 11.093 9.70374 11.154 9.76342C11.215 9.8231 11.2928 9.86375 11.3775 9.88021C11.4621 9.89668 11.5499 9.88823 11.6296 9.85593C11.7094 9.82363 11.7776 9.76893 11.8255 9.69875C11.8735 9.62858 11.8991 9.54607 11.8991 9.46167C11.8991 9.34849 11.8531 9.23994 11.7712 9.15991C11.6894 9.07988 11.5784 9.03492 11.4626 9.03492ZM18.699 6.47444C19.0843 6.29134 19.4808 6.13172 19.8862 5.99649C19.9697 5.97106 20.0436 5.92165 20.098 5.85468C20.1525 5.78772 20.1851 5.70628 20.1917 5.62095C20.1917 5.34783 20.1917 2.91538 18.8649 2.00215C18.5958 1.8216 18.285 1.70915 17.9605 1.67489C17.636 1.64063 17.3079 1.68563 17.0056 1.80584C16.9358 1.82794 16.8727 1.86689 16.8224 1.91911C16.772 1.97132 16.736 2.03511 16.7175 2.10457C16.6062 2.47521 16.454 2.83293 16.2636 3.17143L14.6836 0.696303C14.6442 0.636206 14.59 0.586744 14.5259 0.552448C14.4619 0.518152 14.3901 0.500119 14.317 0.5H12.3355C12.2198 0.5 12.1088 0.544961 12.0269 0.624991C11.9451 0.705022 11.8991 0.813566 11.8991 0.926746C11.8991 1.03993 11.9451 1.14847 12.0269 1.2285C12.1088 1.30853 12.2198 1.35349 12.3355 1.35349H14.0813L15.7224 3.91397C15.6703 3.92068 15.6174 3.92068 15.5653 3.91397C15.3558 3.97371 15.1114 3.85422 14.8233 3.57257L14.4654 3.22264C14.263 3.02386 14.0221 2.86641 13.7569 2.75945C13.4916 2.65249 13.2073 2.59815 12.9204 2.59959H11.7507C11.4638 2.59815 11.1794 2.65249 10.9142 2.75945C10.6489 2.86641 10.4081 3.02386 10.2056 3.22264L9.15813 4.24683L6.99332 3.57257C6.92782 3.55208 6.86806 3.51702 6.81874 3.47015L6.34737 3.00927C6.10367 2.77196 5.77474 2.63719 5.43082 2.63373H2.29708C2.23057 2.63346 2.16489 2.64806 2.10504 2.6764C2.01775 2.71908 1.23213 3.12022 1.29323 3.79448C1.35434 4.46874 2.29708 4.93816 3.08269 5.18567C4.01033 5.4046 4.89497 5.77077 5.70142 6.26961L5.17767 6.90119C4.70385 6.62077 4.1603 6.47314 3.60644 6.47444C2.8975 6.4688 2.20826 6.70237 1.65493 7.13574C1.1016 7.56912 0.718046 8.1758 0.568931 8.85349C0.419817 9.53118 0.514268 10.2384 0.83636 10.8559C1.15845 11.4735 1.68848 11.9635 2.33706 12.2434C2.98565 12.5233 3.71312 12.576 4.39681 12.3926C5.0805 12.2091 5.67858 11.8008 6.0902 11.2364C6.50182 10.672 6.7018 9.9861 6.65642 9.29433C6.61104 8.60255 6.32307 7.94724 5.84108 7.43889L6.39102 6.77317C7.03315 7.28288 7.52001 7.95504 7.79858 8.7165C8.07716 9.47796 8.13679 10.2995 7.97098 11.0918C7.95935 11.1539 7.96196 11.2178 7.97862 11.2788C7.99528 11.3398 8.02558 11.3964 8.06733 11.4446C8.10908 11.4928 8.16124 11.5313 8.22005 11.5574C8.27887 11.5834 8.34286 11.5964 8.40743 11.5954H14.5178C14.6335 11.5954 14.7446 11.5504 14.8264 11.4704C14.9083 11.3904 14.9542 11.2818 14.9542 11.1687C14.9863 10.5994 15.1347 10.0422 15.3907 9.52995C15.4062 10.1066 15.5922 10.6666 15.9262 11.1421C16.2601 11.6177 16.7278 11.9886 17.2726 12.2099C17.8175 12.4312 18.4162 12.4936 18.9965 12.3894C19.5768 12.2853 20.1138 12.019 20.5428 11.6229C20.9717 11.2268 21.2741 10.7177 21.4135 10.1571C21.5529 9.5966 21.5233 9.00858 21.3283 8.46411C21.1334 7.91964 20.7813 7.44202 20.3147 7.08895C19.8481 6.73587 19.287 6.52244 18.699 6.47444ZM3.60644 11.5954C3.02766 11.5954 2.4726 11.3706 2.06334 10.9704C1.65408 10.5703 1.42417 10.0276 1.42417 9.46167C1.42417 8.89577 1.65408 8.35304 2.06334 7.95289C2.4726 7.55274 3.02766 7.32794 3.60644 7.32794C3.95665 7.3295 4.30119 7.41446 4.61028 7.57545L3.266 9.19708C3.19308 9.28536 3.15901 9.39835 3.17128 9.5112C3.18356 9.62404 3.24118 9.72749 3.33147 9.7988C3.42176 9.8701 3.53732 9.90341 3.65273 9.89141C3.76814 9.8794 3.87395 9.82306 3.94687 9.73478L5.29115 8.12168C5.61048 8.49866 5.78631 8.97219 5.78871 9.46167C5.78871 9.74187 5.73226 10.0193 5.62259 10.2782C5.51292 10.5371 5.35218 10.7723 5.14954 10.9704C4.94689 11.1686 4.70632 11.3257 4.44156 11.433C4.17679 11.5402 3.89302 11.5954 3.60644 11.5954ZM8.90499 10.7419C9.37636 5.68923 3.32711 4.36632 3.30965 4.36632C2.2447 4.01639 2.16614 3.74327 2.16614 3.74327C2.16614 3.74327 2.29708 3.57257 2.41055 3.48722H5.43082C5.54594 3.48883 5.65575 3.53484 5.73633 3.61525L6.20771 4.07613C6.35277 4.2161 6.52906 4.32128 6.72272 4.38339L9.14941 5.17714C9.22592 5.20301 9.30837 5.20712 9.38717 5.18899C9.46598 5.17086 9.5379 5.13123 9.59459 5.07472L10.8254 3.87129C11.0712 3.63192 11.4037 3.49699 11.7507 3.49576H12.9204C13.2673 3.49699 13.5998 3.63192 13.8457 3.87129L14.2035 4.22123L12.353 7.06335C12.3522 7.07757 12.3522 7.09181 12.353 7.10603C12.35 7.1344 12.35 7.163 12.353 7.19138C12.3505 7.21692 12.3505 7.24265 12.353 7.26819C12.3403 7.32154 12.3403 7.37701 12.353 7.43036C12.3519 7.44741 12.3519 7.46451 12.353 7.48156L14.029 10.7419H8.90499ZM14.4218 9.59822L13.2695 7.32794L15.0154 4.69918C15.2761 4.80195 15.5638 4.81991 15.8359 4.75039C16.8135 4.48581 17.346 3.11169 17.5293 2.53131C17.6761 2.4899 17.8305 2.48066 17.9814 2.50427C18.1323 2.52787 18.276 2.58373 18.4022 2.66787C18.7562 3.00268 18.9917 3.43923 19.0744 3.91397H18.4459C18.3301 3.91397 18.2191 3.95893 18.1373 4.03896C18.0554 4.11899 18.0094 4.22753 18.0094 4.34071C18.0094 4.45389 18.0554 4.56244 18.1373 4.64247C18.2191 4.7225 18.3301 4.76746 18.4459 4.76746H19.249C19.249 4.9723 19.3013 5.16007 19.3101 5.32223C18.5846 5.57525 17.8907 5.90736 17.2413 6.31228C17.1675 6.34289 17.1039 6.39317 17.058 6.45737C15.8652 7.20928 14.9433 8.30767 14.4218 9.59822ZM18.4459 11.5954C17.9753 11.5942 17.5177 11.4443 17.1414 11.1681C16.765 10.8918 16.4901 10.504 16.3576 10.0625C16.225 9.62103 16.242 9.14947 16.406 8.71818C16.57 8.28689 16.8722 7.91899 17.2675 7.66933L18.0094 9.6153C18.0269 9.67146 18.056 9.72351 18.095 9.76817C18.134 9.81283 18.1819 9.84915 18.2359 9.87485C18.2899 9.90055 18.3487 9.91509 18.4087 9.91755C18.4687 9.92001 18.5286 9.91034 18.5846 9.88915C18.6406 9.86796 18.6915 9.8357 18.7341 9.79438C18.7768 9.75307 18.8103 9.7036 18.8325 9.64905C18.8547 9.59451 18.8652 9.53607 18.8632 9.4774C18.8613 9.41872 18.847 9.36106 18.8212 9.30804L18.0793 7.32794C18.3658 7.3044 18.6544 7.33628 18.9283 7.42177C19.2023 7.50725 19.4564 7.64466 19.676 7.82615C19.8957 8.00765 20.0767 8.22966 20.2086 8.47953C20.3405 8.7294 20.4208 9.00223 20.4448 9.28243C20.4689 9.56264 20.4363 9.84474 20.3489 10.1126C20.2614 10.3805 20.1209 10.6289 19.9353 10.8437C19.7497 11.0585 19.5226 11.2354 19.267 11.3644C19.0115 11.4934 18.7325 11.5719 18.4459 11.5954Z" fill="#838383"/>
</svg>
