<svg width="20" height="20" viewBox="0 0 20 20" fill="none" xmlns="http://www.w3.org/2000/svg">
<path opacity="0.4" d="M12.5007 3.33594H7.50065C5.20065 3.33594 3.33398 5.2026 3.33398 7.5026V12.5026C3.33398 14.8026 5.20065 16.6693 7.50065 16.6693H12.5007C14.8007 16.6693 16.6673 14.8026 16.6673 12.5026V7.5026C16.6673 5.2026 14.8007 3.33594 12.5007 3.33594ZM14.384 11.8859C14.384 13.2693 13.2673 14.3859 11.884 14.3859H8.11732C6.73398 14.3859 5.61732 13.2693 5.61732 11.8859V8.11927C5.61732 6.73594 6.73398 5.61927 8.11732 5.61927H11.8757C13.259 5.61927 14.3757 6.73594 14.3757 8.11927V11.8859H14.384Z" fill="#866F6E"/>
<path d="M7.55078 2.28906V3.33073H7.50078C7.08411 3.33073 6.68411 3.38906 6.30078 3.50573V2.28906C6.30078 1.9474 6.57578 1.66406 6.92578 1.66406C7.26745 1.66406 7.55078 1.9474 7.55078 2.28906Z" fill="#866F6E"/>
<path d="M10.625 2.28906V3.33073H9.375V2.28906C9.375 1.9474 9.65833 1.66406 10 1.66406C10.3417 1.66406 10.625 1.9474 10.625 2.28906Z" fill="#866F6E"/>
<path d="M13.709 2.28906V3.50573C13.3257 3.38906 12.9173 3.33073 12.5007 3.33073H12.459V2.28906C12.459 1.9474 12.7423 1.66406 13.084 1.66406C13.4257 1.66406 13.709 1.9474 13.709 2.28906Z" fill="#866F6E"/>
<path d="M18.3339 6.91406C18.3339 7.26406 18.0589 7.53906 17.7089 7.53906H16.6672V7.4974C16.6672 7.08073 16.6089 6.6724 16.4922 6.28906H17.7089C18.0589 6.28906 18.3339 6.5724 18.3339 6.91406Z" fill="#866F6E"/>
<path d="M18.3327 10C18.3327 10.3417 18.0577 10.625 17.7077 10.625H16.666V9.375H17.7077C18.0577 9.375 18.3327 9.65 18.3327 10Z" fill="#866F6E"/>
<path d="M18.3339 13.0859C18.3339 13.4276 18.0589 13.7109 17.7089 13.7109H16.4922C16.6089 13.3276 16.6672 12.9193 16.6672 12.5026V12.4609H17.7089C18.0589 12.4609 18.3339 12.7359 18.3339 13.0859Z" fill="#866F6E"/>
<path d="M13.709 16.4922V17.7089C13.709 18.0505 13.4257 18.3339 13.084 18.3339C12.7423 18.3339 12.459 18.0505 12.459 17.7089V16.6672H12.5007C12.9173 16.6672 13.3257 16.6089 13.709 16.4922Z" fill="#866F6E"/>
<path d="M10.6328 16.6641V17.7057C10.6328 18.0474 10.3495 18.3307 10.0078 18.3307C9.65781 18.3307 9.38281 18.0474 9.38281 17.7057V16.6641H10.6328Z" fill="#866F6E"/>
<path d="M7.55078 16.6672V17.7089C7.55078 18.0505 7.26745 18.3339 6.92578 18.3339C6.57578 18.3339 6.30078 18.0505 6.30078 17.7089V16.4922C6.68411 16.6089 7.08411 16.6672 7.50078 16.6672H7.55078Z" fill="#866F6E"/>
<path d="M3.50768 6.28906C3.39102 6.6724 3.33268 7.08073 3.33268 7.4974V7.53906H2.29102C1.94935 7.53906 1.66602 7.26406 1.66602 6.91406C1.66602 6.5724 1.94935 6.28906 2.29102 6.28906H3.50768V6.28906Z" fill="#866F6E"/>
<path d="M3.33268 9.375V10.625H2.29102C1.94935 10.625 1.66602 10.3417 1.66602 10C1.66602 9.65 1.94935 9.375 2.29102 9.375H3.33268Z" fill="#866F6E"/>
<path d="M3.50768 13.7109H2.29102C1.94935 13.7109 1.66602 13.4276 1.66602 13.0859C1.66602 12.7359 1.94935 12.4609 2.29102 12.4609H3.33268V12.5026C3.33268 12.9193 3.39102 13.3276 3.50768 13.7109Z" fill="#866F6E"/>
<path d="M14.3839 8.11719V11.8755C14.3839 13.2589 13.2672 14.3755 11.8839 14.3755H8.11719C6.73385 14.3755 5.61719 13.2589 5.61719 11.8755V8.11719C5.61719 6.73385 6.73385 5.61719 8.11719 5.61719H11.8755C13.2589 5.61719 14.3839 6.74219 14.3839 8.11719Z" fill="#866F6E"/>
</svg>
