<svg width="24" height="25" viewBox="0 0 24 25" fill="none" xmlns="http://www.w3.org/2000/svg">
<g clip-path="url(#clip0_1651_237121)">
<path d="M21.81 4.71722C20.27 8.55722 16.41 13.7772 13.18 16.3672L11.21 17.9472C10.96 18.1272 10.71 18.2872 10.43 18.3972C10.43 18.2172 10.42 18.0172 10.39 17.8272C10.28 16.9872 9.90002 16.2072 9.23002 15.5372C8.55002 14.8572 7.72002 14.4572 6.87002 14.3472C6.67002 14.3372 6.47002 14.3172 6.27002 14.3372C6.38002 14.0272 6.55002 13.7372 6.76002 13.4972L8.32002 11.5272C10.9 8.29722 16.14 4.41722 19.97 2.88722C20.56 2.66722 21.13 2.82722 21.49 3.19722C21.87 3.56722 22.05 4.13722 21.81 4.71722Z" stroke="#6A5554" stroke-width="1.5" stroke-linecap="round" stroke-linejoin="round"/>
<path d="M10.43 18.3972C10.43 19.4972 10.01 20.5472 9.22003 21.3472C8.61003 21.9572 7.78003 22.3772 6.79003 22.5072L4.33003 22.7772C2.99003 22.9272 1.84003 21.7872 2.00003 20.4272L2.27003 17.9672C2.51003 15.7772 4.34003 14.3772 6.28003 14.3372C6.48003 14.3272 6.69003 14.3372 6.88003 14.3472C7.73003 14.4572 8.56003 14.8472 9.24003 15.5372C9.91003 16.2072 10.29 16.9872 10.4 17.8272C10.41 18.0172 10.43 18.2072 10.43 18.3972Z" stroke="#6A5554" stroke-width="1.5" stroke-linecap="round" stroke-linejoin="round"/>
<path d="M14.24 15.2472C14.24 12.6372 12.12 10.5172 9.51001 10.5172" stroke="#6A5554" stroke-width="1.5" stroke-linecap="round" stroke-linejoin="round"/>
<path d="M20.12 13.5072L20.86 14.2372C22.35 15.7272 22.35 17.1972 20.86 18.6872L17.9 21.6472C16.43 23.1172 14.94 23.1172 13.47 21.6472" stroke="#6A5554" stroke-width="1.5" stroke-linecap="round"/>
<path d="M3.11001 11.2872C1.64001 9.79722 1.64001 8.32722 3.11001 6.83722L6.07001 3.87722C7.54001 2.40722 9.03001 2.40722 10.5 3.87722L11.24 4.61722" stroke="#6A5554" stroke-width="1.5" stroke-linecap="round"/>
<path d="M11.25 4.6272L7.54999 8.3272" stroke="#6A5554" stroke-width="1.5" stroke-linecap="round"/>
<path d="M20.12 13.5072L17.16 16.4572" stroke="#6A5554" stroke-width="1.5" stroke-linecap="round"/>
</g>
<defs>
<clipPath id="clip0_1651_237121">
<rect width="24" height="24" fill="white" transform="translate(0 0.777222)"/>
</clipPath>
</defs>
</svg>
