<svg width="24" height="24" viewBox="0 0 24 24" fill="none" xmlns="http://www.w3.org/2000/svg">
<path opacity="0.4" d="M7.75977 4.27502H16.2402C18.3564 4.27513 20.0838 5.99642 20.0752 8.1178V17.5299C20.0752 19.6455 18.3542 21.3744 16.2305 21.3746H7.75977C5.64507 21.3745 3.91504 19.6446 3.91504 17.5299V8.11975C3.91519 6.00423 5.63607 4.27517 7.75977 4.27502Z" fill="#B54708" stroke="#B54708" stroke-width="1.25"/>
<path d="M9.64966 2.625H14.3499C15.0502 2.625 15.6113 3.18937 15.6047 3.87402V4.82031C15.6046 5.51499 15.0446 6.0752 14.3499 6.0752H9.63989C8.94523 6.07513 8.38518 5.51495 8.38501 4.82031V3.87988C8.38507 3.18954 8.95071 2.62519 9.64966 2.625Z" fill="#B54708" stroke="#B54708" stroke-width="1.25"/>
</svg>
