<svg width="160" height="160" viewBox="0 0 160 160" fill="none" xmlns="http://www.w3.org/2000/svg">
<path d="M150.826 113.75C143.167 124.283 129.755 125.632 128.897 125.702C120.797 126.394 110.239 123.831 103.032 124.579C100.509 124.84 98.1113 125.421 98.1113 125.421C95.162 126.139 92.9852 127.061 91.9219 127.528C85.4918 130.372 69.6975 138.763 63.1018 141.587C59.5859 143.097 45.9432 148.93 30.7658 144.962C26.8385 143.934 11.31 139.866 5.60215 125.421C2.31187 117.09 2.72316 106.397 8.13005 98.7079C8.43601 98.2765 8.752 97.8602 9.073 97.459C9.2636 97.2232 9.45921 96.9925 9.65482 96.7668C13.3413 92.5737 18.0059 90.2866 21.7627 88.4458C32.0899 83.385 36.4134 85.7925 39.8993 81.8401C44.6993 76.3881 39.0868 68.8847 38.7558 57.6195C38.7558 57.3536 38.7407 57.0878 38.7457 56.8169C38.7457 56.2602 38.7457 55.7035 38.7758 55.1267C39.3476 42.1461 47.5031 27.8765 60.0222 20.0069C60.3232 19.8214 60.6241 19.6358 60.93 19.4552C62.9965 18.2263 65.1783 17.1731 67.4605 16.3254C77.7075 12.5135 93.9984 11.375 105.138 21.1104C108.102 23.6985 110.385 26.7831 112.12 30.0583C112.301 30.3944 112.471 30.7304 112.637 31.0715C113.755 33.3486 114.618 35.696 115.28 38.0282C115.4 38.4445 115.511 38.8659 115.616 39.2872C117.622 47.237 117.296 54.7104 116.434 57.7449C116.303 58.2063 115.706 60.1423 115.817 62.7204C115.857 63.6182 116.062 68.4583 119.473 71.7185C121.314 73.479 123.355 74.0809 124.393 74.3919C129.289 75.8615 138.292 78.8909 142.385 81.0025C147.47 83.6157 153.203 89.0477 155.059 95.9994C155.155 96.3605 155.24 96.7217 155.305 97.0928C155.445 97.7599 155.546 98.447 155.606 99.1392C156.213 106.352 152.21 111.854 150.821 113.76L150.826 113.75Z" fill="#F2F4F7"/>
<path d="M155.31 97.0876C144.591 93.9678 133.126 98.5371 123.44 103.207C111.368 109.03 99.4604 115.194 87.2924 120.822C81.2937 123.595 75.2397 126.249 69.0955 128.686C62.9865 131.109 56.747 133.331 50.2717 134.595C44.4736 135.728 38.204 136.245 32.4109 134.8C29.9532 134.189 27.5658 133.15 25.5996 131.53C23.5633 129.855 22.1789 127.583 21.3413 125.1C19.4755 119.608 20.0122 113.634 18.3871 108.072C17.5545 105.223 16.1902 102.484 14.0184 100.413C12.6341 99.0888 10.9238 98.0355 9.08301 97.4587C9.2736 97.223 9.46922 96.9923 9.66483 96.7666C9.8805 96.8167 10.0912 96.8819 10.3018 96.9471C15.789 98.7227 18.7081 104.37 19.8918 109.637C21.1357 115.194 20.604 121.353 23.1771 126.555C25.705 131.671 31.162 133.812 36.5639 134.324C43.0191 134.936 49.5746 133.822 55.784 132.087C62.209 130.286 68.4586 127.824 74.6178 125.266C80.8623 122.673 87.0216 119.859 93.1256 116.955C99.2347 114.051 105.299 111.041 111.358 108.042C117.286 105.103 123.175 102.028 129.274 99.46C134.951 97.0575 140.965 95.2017 147.175 95.1164C149.783 95.0813 152.486 95.3371 155.069 95.9942C155.165 96.3553 155.25 96.7164 155.315 97.0876H155.31Z" fill="white"/>
<path d="M115.621 39.2873C112.12 37.9481 108.428 37.0954 104.707 36.639C98.5174 35.8867 92.2228 36.1375 86.0685 37.0353C79.824 37.9431 73.6798 39.4679 67.7362 41.5694C61.7776 43.671 56.0297 46.3494 50.5726 49.5343C47.8541 51.1243 45.2058 52.8447 42.6529 54.6954C41.3387 55.6484 40.0447 56.6265 38.7557 57.6196C38.7557 57.3538 38.7406 57.0879 38.7457 56.8171C40.456 55.3726 42.2265 54.0083 44.0673 52.7193C46.6905 50.8785 49.404 49.1682 52.1927 47.5933C57.7801 44.4434 63.7036 41.8603 69.8027 39.8741C75.8917 37.898 82.1613 36.5287 88.5162 35.7713C94.7908 35.024 101.186 34.9588 107.43 36.0121C110.069 36.4534 112.717 37.1105 115.275 38.0284C115.395 38.4447 115.506 38.866 115.611 39.2873H115.621Z" fill="white"/>
<path d="M112.642 31.0761C107.802 31.0862 102.981 30.5645 98.2065 29.8473C93.4166 29.1301 88.6467 28.2523 83.8868 27.3445C79.2272 26.4517 74.5777 25.4485 70.0435 24.0492C67.7865 23.352 65.5595 22.5344 63.3877 21.6015C62.2642 21.12 61.1257 20.5984 60.0272 20.0166C60.3282 19.831 60.6291 19.6454 60.9351 19.4648C64.5112 21.1652 68.268 22.4943 72.0699 23.5777C76.579 24.8617 81.1733 25.8046 85.7827 26.6623C90.5225 27.5501 95.2674 28.4379 100.047 29.1C104.045 29.6567 108.087 30.0429 112.125 30.063C112.306 30.399 112.476 30.7351 112.642 31.0761Z" fill="white"/>
<path d="M123.696 71.9442C118.47 69.6571 119.007 57.5693 121.79 56.4809C123.28 55.8991 125.537 58.422 126.992 60.0471C128.21 61.4063 132.76 66.4922 130.854 69.8577C129.64 71.9994 126.074 72.9875 123.696 71.9442Z" fill="#F2F4F7"/>
<path d="M103.423 94.5996H113.9C116.609 94.5996 118.806 96.7965 118.806 99.505V109.702C118.806 111.979 116.96 113.825 114.683 113.825H104.29C101.537 113.825 99.3047 111.588 99.3047 108.839V98.7225C99.3047 96.4454 101.15 94.5996 103.428 94.5996H103.423Z" fill="#F2F4F7"/>
<path d="M112.336 94.5996H104.03C101.415 94.5996 99.2949 96.7195 99.2949 99.3344V107.64C99.2949 110.255 101.415 112.375 104.03 112.375H112.336C114.951 112.375 117.07 110.255 117.07 107.64V99.3344C117.07 96.7195 114.951 94.5996 112.336 94.5996Z" fill="#F2F4F7"/>
<path d="M99.3903 104.315C99.4605 104.827 99.7012 106.091 100.729 107.215C100.865 107.365 102.169 108.754 104.22 108.925C106.352 109.1 107.104 107.786 108.83 107.586C110.204 107.43 112.281 107.972 115.165 111.448C114.874 111.694 114.121 112.26 112.993 112.416C111.939 112.561 111.117 112.27 110.766 112.12C108.118 112.195 105.464 112.27 102.816 112.341C102.6 112.341 101.371 112.305 100.439 111.302C99.6611 110.46 99.5859 109.482 99.5758 109.211C99.5156 107.581 99.4555 105.951 99.3953 104.315H99.3903Z" fill="white"/>
<path d="M103.423 94.5996H113.9C116.609 94.5996 118.806 96.7965 118.806 99.505V109.702C118.806 111.979 116.96 113.825 114.683 113.825H104.29C101.537 113.825 99.3047 111.588 99.3047 108.839V98.7225C99.3047 96.4454 101.15 94.5996 103.428 94.5996H103.423Z" stroke="black" stroke-width="0.8" stroke-linecap="round" stroke-linejoin="round"/>
<path d="M112.336 94.5996H104.03C101.415 94.5996 99.2949 96.7195 99.2949 99.3344V107.64C99.2949 110.255 101.415 112.375 104.03 112.375H112.336C114.951 112.375 117.07 110.255 117.07 107.64V99.3344C117.07 96.7195 114.951 94.5996 112.336 94.5996Z" stroke="black" stroke-width="0.8" stroke-linecap="round" stroke-linejoin="round"/>
<path d="M71.9288 51.6047L36.4469 60.3724C30.7619 61.7772 27.2921 67.5246 28.6969 73.2095L42.0741 127.345C43.4789 133.03 49.2263 136.5 54.9113 135.095L90.3932 126.328C96.0782 124.923 99.548 119.176 98.1432 113.491L84.7659 59.3546C83.3612 53.6697 77.6138 50.1999 71.9288 51.6047Z" fill="#C9C8C8"/>
<path d="M70.6929 58.27L41.751 65.1917C37.3111 66.2535 34.5727 70.7135 35.6345 75.1534L46.1225 119.008C47.1843 123.447 51.6443 126.186 56.0842 125.124L85.0261 118.202C89.466 117.141 92.2044 112.681 91.1426 108.241L80.6546 64.3866C79.5928 59.9467 75.1328 57.2082 70.6929 58.27Z" fill="white"/>
<path d="M52.7042 126.945C54.0283 128.254 56.0797 127.923 57.7299 127.597C60.002 127.146 62.259 126.619 64.5111 126.088C69.0703 125.014 73.5995 123.831 78.0985 122.527C79.3474 122.165 80.5963 121.794 81.8452 121.413C83.0942 121.032 84.3481 120.55 85.602 120.109C85.7173 120.069 85.6722 119.888 85.5518 119.923C84.4584 120.239 83.3449 120.49 82.2515 120.821C81.1581 121.152 80.0697 121.478 78.9763 121.799C76.7894 122.436 74.5876 123.043 72.3857 123.63C67.9819 124.804 63.5481 125.877 59.0891 126.835C57.1029 127.261 54.6553 128.054 52.7945 126.82C52.7192 126.77 52.639 126.88 52.7042 126.94V126.945Z" fill="black"/>
<path d="M98.0057 113.95C97.4188 115.756 96.5461 117.411 95.222 118.785C93.8978 120.159 92.1072 121.283 90.2564 122.025C88.3104 122.803 86.284 123.174 84.2326 123.545C82.3016 123.896 80.4057 124.383 78.7706 125.506C77.1355 126.63 75.7963 128.179 75.1844 129.99C75.1292 130.151 75.39 130.266 75.4652 130.105C75.8615 129.283 76.2677 128.49 76.8345 127.773C77.4013 127.056 78.0483 126.424 78.7806 125.892C80.4558 124.678 82.437 124.212 84.4433 123.861C86.4496 123.51 88.521 123.104 90.4521 122.306C92.2326 121.569 93.9129 120.556 95.2771 119.186C96.6414 117.817 97.8702 115.966 98.126 113.965C98.1361 113.895 98.0257 113.885 98.0057 113.95Z" fill="black"/>
<path d="M74.2365 51.3242C74.2365 51.3242 75.4904 51.4345 77.1305 52.1518C77.7876 52.4377 79.0064 52.9844 80.2503 54.138C81.2333 55.0509 82.6176 56.3349 82.7781 58.1505C82.8835 59.3443 82.3618 59.6703 82.5575 60.6032C82.8634 62.0578 84.4785 62.9405 85.7424 63.4471C85.6471 62.1179 85.3261 59.9712 84.1474 57.649C83.6709 56.711 82.9336 55.2665 81.4992 54.0076C78.4296 51.3192 74.2365 51.3242 74.2365 51.3242Z" fill="white"/>
<path d="M70.6929 58.27L41.751 65.1917C37.3111 66.2535 34.5727 70.7135 35.6345 75.1534L46.1225 119.008C47.1843 123.447 51.6443 126.186 56.0842 125.124L85.0261 118.202C89.466 117.141 92.2044 112.681 91.1426 108.241L80.6546 64.3866C79.5928 59.9467 75.1328 57.2082 70.6929 58.27Z" stroke="black" stroke-width="0.8" stroke-linecap="round" stroke-linejoin="round"/>
<path d="M71.9288 51.6047L36.4469 60.3724C30.7619 61.7772 27.2921 67.5246 28.6969 73.2095L42.0741 127.345C43.4789 133.03 49.2263 136.5 54.9113 135.095L90.3932 126.328C96.0782 124.923 99.548 119.176 98.1432 113.491L84.7659 59.3546C83.3612 53.6697 77.6138 50.1999 71.9288 51.6047Z" stroke="black" stroke-width="0.8" stroke-linecap="round" stroke-linejoin="round"/>
<path d="M44.0674 74.1606C48.6417 72.6208 53.6273 71.1362 59.0041 69.812C63.2373 68.7688 67.3 67.9261 71.152 67.249" stroke="black" stroke-width="0.8" stroke-linecap="round" stroke-linejoin="round"/>
<path d="M45.3965 78.7905C49.9708 77.2507 54.9564 75.766 60.3332 74.4419C64.5664 73.3986 68.6291 72.556 72.4811 71.8789" stroke="black" stroke-width="0.8" stroke-linecap="round" stroke-linejoin="round"/>
<path d="M48.8169 92.6431C53.3912 91.1032 58.3768 89.6186 63.7536 88.2944C67.9868 87.2512 72.0495 86.4086 75.9015 85.7314" stroke="black" stroke-width="0.8" stroke-linecap="round" stroke-linejoin="round"/>
<path d="M50.2515 97.4539C52.4483 96.6814 54.8358 95.9441 57.4138 95.2821C59.4452 94.7604 61.3913 94.3391 63.2421 93.998" stroke="black" stroke-width="0.8" stroke-linecap="round" stroke-linejoin="round"/>
<path d="M52.584 108.046C57.1583 106.507 62.1439 105.022 67.5207 103.698C71.7539 102.655 75.8166 101.812 79.6686 101.135" stroke="black" stroke-width="0.8" stroke-linecap="round" stroke-linejoin="round"/>
<path d="M54.0186 112.856C56.2154 112.084 58.6029 111.346 61.1809 110.684C63.2123 110.163 65.1584 109.741 67.0091 109.4" stroke="black" stroke-width="0.8" stroke-linecap="round" stroke-linejoin="round"/>
<path d="M64.2601 51.1337L64.3755 51.5951C64.5711 52.3976 64.0846 53.2051 63.2821 53.4008L62.304 53.6415C61.4965 53.8422 61.005 54.6647 61.2156 55.4672L61.2256 55.4973C61.4313 56.2848 62.2288 56.7613 63.0213 56.5707L64.1147 56.3049C65.9655 55.8585 67.8313 56.992 68.2777 58.8428L68.4081 59.3845C68.6037 60.182 68.1172 60.9845 67.3197 61.1851C60.8695 62.7951 54.4144 64.4052 47.9642 66.0152C47.1717 66.2108 46.3692 65.7393 46.1586 64.9468C46.1134 64.7813 46.0733 64.6208 46.0282 64.4553C45.5316 62.5795 46.6752 60.6635 48.5661 60.2171C48.9974 60.1168 49.4288 60.0114 49.8652 59.9111C50.6777 59.7155 51.1742 58.8979 50.9686 58.0854L50.9184 57.8798C50.7178 57.0923 49.9203 56.6108 49.1278 56.7964L47.894 57.0873C47.0965 57.2729 46.299 56.7864 46.1034 55.9939L46.0031 55.5876C45.8025 54.7851 46.294 53.9725 47.0965 53.7769C52.2175 52.528 57.3385 51.2791 62.4645 50.0302C63.262 49.8346 64.0695 50.3262 64.2702 51.1237L64.2601 51.1337Z" fill="white"/>
<path d="M64.2601 51.1337L64.3755 51.5951C64.5711 52.3976 64.0846 53.2051 63.2821 53.4008L62.304 53.6415C61.4965 53.8422 61.005 54.6647 61.2156 55.4672L61.2256 55.4973C61.4313 56.2848 62.2288 56.7613 63.0213 56.5707L64.1147 56.3049C65.9655 55.8585 67.8313 56.992 68.2777 58.8428L68.4081 59.3845C68.6037 60.182 68.1172 60.9845 67.3197 61.1851C60.8695 62.7951 54.4144 64.4052 47.9642 66.0152C47.1717 66.2108 46.3692 65.7393 46.1586 64.9468C46.1134 64.7813 46.0733 64.6208 46.0282 64.4553C45.5316 62.5795 46.6752 60.6635 48.5661 60.2171C48.9974 60.1168 49.4288 60.0114 49.8652 59.9111C50.6777 59.7155 51.1742 58.8979 50.9686 58.0854L50.9184 57.8798C50.7178 57.0923 49.9203 56.6108 49.1278 56.7964L47.894 57.0873C47.0965 57.2729 46.299 56.7864 46.1034 55.9939L46.0031 55.5876C45.8025 54.7851 46.294 53.9725 47.0965 53.7769C52.2175 52.528 57.3385 51.2791 62.4645 50.0302C63.262 49.8346 64.0695 50.3262 64.2702 51.1237L64.2601 51.1337Z" stroke="black" stroke-width="0.8" stroke-linecap="round" stroke-linejoin="round"/>
<path d="M49.7046 61.8928C51.751 61.0752 54.1435 60.2627 56.8469 59.5956C59.3748 58.9686 61.7171 58.5824 63.7936 58.3467" stroke="black" stroke-width="0.8" stroke-linecap="round" stroke-linejoin="round"/>
<path d="M103.423 72.4805H113.9C116.609 72.4805 118.806 74.6773 118.806 77.3858V87.5827C118.806 89.8598 116.96 91.7056 114.683 91.7056H104.29C101.537 91.7056 99.3047 89.4686 99.3047 86.72V76.6033C99.3047 74.3262 101.15 72.4805 103.428 72.4805H103.423Z" fill="#F2F4F7"/>
<path d="M112.336 72.4805H104.03C101.415 72.4805 99.2949 74.6003 99.2949 77.2153V85.5212C99.2949 88.1362 101.415 90.256 104.03 90.256H112.336C114.951 90.256 117.07 88.1362 117.07 85.5212V77.2153C117.07 74.6003 114.951 72.4805 112.336 72.4805Z" fill="#F2F4F7"/>
<path d="M103.423 72.4805H113.9C116.609 72.4805 118.806 74.6773 118.806 77.3858V87.5827C118.806 89.8598 116.96 91.7056 114.683 91.7056H104.29C101.537 91.7056 99.3047 89.4686 99.3047 86.72V76.6033C99.3047 74.3262 101.15 72.4805 103.428 72.4805H103.423Z" stroke="black" stroke-width="0.8" stroke-linecap="round" stroke-linejoin="round"/>
<path d="M112.336 72.4805H104.03C101.415 72.4805 99.2949 74.6003 99.2949 77.2153V85.5212C99.2949 88.1362 101.415 90.256 104.03 90.256H112.336C114.951 90.256 117.07 88.1362 117.07 85.5212V77.2153C117.07 74.6003 114.951 72.4805 112.336 72.4805Z" stroke="black" stroke-width="0.8" stroke-linecap="round" stroke-linejoin="round"/>
<path d="M110.977 76.5734C110.902 76.5985 110.816 76.5884 110.746 76.6286C110.646 76.6837 110.545 76.769 110.45 76.8292C110.28 76.9345 110.124 77.075 109.979 77.2154C109.663 77.5214 109.372 77.8674 109.081 78.1985C108.504 78.8505 107.987 79.5728 107.511 80.3001C107.034 81.0273 106.603 81.7897 106.212 82.5722C106.021 82.9534 105.841 83.3446 105.675 83.7358C105.495 84.1521 105.239 84.6135 105.299 85.08C105.339 85.401 105.68 85.5765 105.941 85.3458C106.267 85.0549 106.387 84.6135 106.548 84.2173C106.708 83.8211 106.884 83.4499 107.07 83.0687C107.446 82.3013 107.862 81.554 108.308 80.8217C108.755 80.0894 109.246 79.3972 109.743 78.7051C109.984 78.369 110.244 78.053 110.495 77.727C110.616 77.5715 110.746 77.406 110.841 77.2305C110.891 77.1352 110.952 77.0449 111.002 76.9496C111.057 76.8493 111.047 76.7841 111.082 76.6687C111.102 76.6085 111.042 76.5483 110.982 76.5684L110.977 76.5734Z" fill="black"/>
<path d="M105.715 78.816C105.61 78.6254 105.574 78.4949 105.65 78.2993L105.529 78.4548L105.61 78.3996L104.978 78.0385C104.953 78.4548 105.384 78.7106 105.66 78.9564C105.936 79.2021 106.216 79.4379 106.492 79.6786C107.064 80.1702 107.611 80.6918 108.147 81.2184C108.684 81.7451 109.181 82.2667 109.667 82.8235C109.918 83.1094 110.144 83.4404 110.415 83.7062C110.685 83.9721 110.961 84.3683 111.403 84.3081C111.603 84.283 111.719 84.1978 111.794 84.0122C111.964 83.6009 111.663 83.2448 111.443 82.9137C111.222 82.5827 110.921 82.2818 110.66 81.9808C110.149 81.404 109.617 80.8423 109.06 80.3056C108.504 79.7689 107.922 79.2623 107.32 78.7758C107.019 78.5351 106.718 78.2993 106.402 78.0786C106.086 77.8579 105.685 77.4818 105.284 77.6322C104.948 77.7626 104.862 78.194 105.183 78.3996C105.359 78.515 105.439 78.7608 105.574 78.9213C105.64 78.9965 105.755 78.9012 105.71 78.816H105.715Z" fill="black"/>
<path d="M103.423 50.3613H113.901C116.609 50.3613 118.806 52.5582 118.806 55.2667V65.4635C118.806 67.7407 116.96 69.5864 114.683 69.5864H104.291C101.537 69.5864 99.3052 67.3494 99.3052 64.6008V54.4842C99.3052 52.2071 101.151 50.3613 103.428 50.3613H103.423Z" fill="#F2F4F7"/>
<path d="M112.336 50.3613H104.03C101.415 50.3613 99.2954 52.4812 99.2954 55.0961V63.4021C99.2954 66.017 101.415 68.1369 104.03 68.1369H112.336C114.951 68.1369 117.071 66.017 117.071 63.4021V55.0961C117.071 52.4812 114.951 50.3613 112.336 50.3613Z" fill="#F2F4F7"/>
<path d="M103.423 50.3613H113.901C116.609 50.3613 118.806 52.5582 118.806 55.2667V65.4635C118.806 67.7407 116.96 69.5864 114.683 69.5864H104.291C101.537 69.5864 99.3052 67.3494 99.3052 64.6008V54.4842C99.3052 52.2071 101.151 50.3613 103.428 50.3613H103.423Z" stroke="black" stroke-width="0.8" stroke-linecap="round" stroke-linejoin="round"/>
<path d="M112.336 50.3613H104.03C101.415 50.3613 99.2954 52.4812 99.2954 55.0961V63.4021C99.2954 66.017 101.415 68.1369 104.03 68.1369H112.336C114.951 68.1369 117.071 66.017 117.071 63.4021V55.0961C117.071 52.4812 114.951 50.3613 112.336 50.3613Z" stroke="black" stroke-width="0.8" stroke-linecap="round" stroke-linejoin="round"/>
<path d="M105.444 60.573C105.484 60.8739 105.66 61.0896 105.841 61.3253C106.021 61.561 106.212 61.8168 106.382 62.0726C106.723 62.5692 107.074 63.0958 107.21 63.6877C107.265 63.9435 107.536 64.1291 107.787 64.1291C108.073 64.1291 108.263 63.9385 108.363 63.6877C108.654 62.9805 108.88 62.2432 109.191 61.541C109.502 60.8388 109.873 60.1165 110.269 59.4394C110.666 58.7623 111.087 58.1303 111.553 57.5184C111.774 57.2275 112 56.9466 112.231 56.6657C112.501 56.3347 112.832 56.0087 113.018 55.6225C113.264 55.1259 112.767 54.5993 112.256 54.8601C111.879 55.0557 111.563 55.4068 111.283 55.7178C111.002 56.0288 110.741 56.3447 110.49 56.6707C109.979 57.3328 109.512 58.025 109.091 58.7472C108.669 59.4695 108.313 60.2118 107.992 60.9742C107.671 61.7366 107.355 62.5441 107.215 63.3667L108.308 63.2212C107.912 62.6996 107.616 62.1077 107.225 61.5811C107.039 61.3303 106.849 61.0795 106.633 60.8538C106.417 60.6281 106.157 60.3272 105.841 60.277C105.67 60.2469 105.419 60.3573 105.449 60.573H105.444Z" fill="black"/>
<path d="M73.4203 31.5513L70.9001 32.5435C70.1268 32.8479 69.7468 33.7216 70.0512 34.4948L71.0434 37.015C71.3479 37.7883 72.2215 38.1683 72.9948 37.8639L75.5149 36.8717C76.2882 36.5672 76.6682 35.6936 76.3638 34.9203L75.3716 32.4002C75.0671 31.6269 74.1935 31.2469 73.4203 31.5513Z" stroke="black" stroke-width="0.8" stroke-linecap="round" stroke-linejoin="round"/>
<path d="M28.9009 107.048L26.6295 105.573C25.9326 105.12 25.0007 105.318 24.548 106.015L23.0726 108.286C22.6199 108.983 22.8179 109.915 23.5148 110.368L25.7862 111.843C26.4831 112.296 27.415 112.098 27.8677 111.401L29.3431 109.129C29.7958 108.433 29.5978 107.501 28.9009 107.048Z" stroke="black" stroke-width="0.8" stroke-linecap="round" stroke-linejoin="round"/>
</svg>
