<svg width="16" height="17" viewBox="0 0 16 17" fill="none" xmlns="http://www.w3.org/2000/svg">
<path d="M10.3866 8.77729C10.3866 10.0973 9.31995 11.164 7.99995 11.164C6.67995 11.164 5.61328 10.0973 5.61328 8.77729C5.61328 7.45729 6.67995 6.39062 7.99995 6.39062C9.31995 6.39062 10.3866 7.45729 10.3866 8.77729Z" stroke="#6A5554" stroke-width="1.5" stroke-linecap="round" stroke-linejoin="round"/>
<path d="M7.9999 14.2911C10.3532 14.2911 12.5466 12.9045 14.0732 10.5045C14.6732 9.56448 14.6732 7.98448 14.0732 7.04448C12.5466 4.64448 10.3532 3.25781 7.9999 3.25781C5.64656 3.25781 3.45323 4.64448 1.92656 7.04448C1.32656 7.98448 1.32656 9.56448 1.92656 10.5045C3.45323 12.9045 5.64656 14.2911 7.9999 14.2911Z" stroke="#6A5554" stroke-width="1.5" stroke-linecap="round" stroke-linejoin="round"/>
</svg>
