<svg width="20" height="20" viewBox="0 0 20 20" fill="none" xmlns="http://www.w3.org/2000/svg">
<path d="M9.99976 2.4165C14.1771 2.4165 17.5836 5.82221 17.5837 9.99951C17.5837 14.177 14.1772 17.5835 9.99976 17.5835C5.82245 17.5833 2.41675 14.1769 2.41675 9.99951C2.41693 5.82232 5.82256 2.41668 9.99976 2.4165ZM9.99976 5.2915C9.24402 5.29168 8.62476 5.91073 8.62476 6.6665V10.8335C8.62487 11.2992 8.86126 11.7115 9.21851 11.9604C9.10653 12.0232 9.00252 12.0981 8.90698 12.1841L8.87769 12.2104L8.85132 12.2397C8.72166 12.3838 8.61615 12.5471 8.54077 12.728C8.46716 12.9047 8.41675 13.1114 8.41675 13.3335C8.4168 13.5472 8.46378 13.7463 8.53296 13.9185V13.9194C8.53374 13.9215 8.5351 13.9233 8.53589 13.9253C8.5376 13.9295 8.53903 13.9338 8.54077 13.938V13.937C8.624 14.1457 8.7381 14.3005 8.85132 14.4263L8.87769 14.4556L8.90698 14.4819C9.05105 14.6116 9.21435 14.7171 9.39526 14.7925C9.57181 14.866 9.77793 14.9165 9.99976 14.9165C10.2218 14.9165 10.4285 14.8661 10.6052 14.7925C10.7861 14.7171 10.9494 14.6116 11.0935 14.4819L11.1228 14.4556L11.1492 14.4263C11.2622 14.3006 11.3746 14.1453 11.4578 13.937L11.4587 13.938C11.4605 13.9338 11.4619 13.9295 11.4636 13.9253C11.4644 13.9233 11.4658 13.9215 11.4666 13.9194L11.4656 13.9185C11.5349 13.7462 11.5837 13.5474 11.5837 13.3335C11.5837 13.1114 11.5324 12.9047 11.4587 12.728C11.3834 12.5472 11.2788 12.3838 11.1492 12.2397L11.1228 12.2104L11.0935 12.1841L10.9822 12.0913C10.9185 12.0428 10.851 11.9997 10.781 11.9604C11.1385 11.7115 11.3746 11.2993 11.3748 10.8335V6.6665C11.3748 5.91062 10.7556 5.2915 9.99976 5.2915Z" fill="#F79009" stroke="#F79009" stroke-width="1.5"/>
</svg>
