<svg width="20" height="20" viewBox="0 0 20 20" fill="none" xmlns="http://www.w3.org/2000/svg">
<path d="M7.76596 11.064H10.341V17.064C10.341 17.9473 11.441 18.364 12.0243 17.6973L18.3326 10.5306C18.8826 9.90562 18.441 8.93062 17.6076 8.93062H15.0326V2.93062C15.0326 2.04729 13.9326 1.63062 13.3493 2.29729L7.04096 9.46396C6.4993 10.089 6.94096 11.064 7.76596 11.064Z" fill="#866F6E"/>
<path opacity="0.4" d="M7.08333 3.96094H1.25C0.908333 3.96094 0.625 3.6776 0.625 3.33594C0.625 2.99427 0.908333 2.71094 1.25 2.71094H7.08333C7.425 2.71094 7.70833 2.99427 7.70833 3.33594C7.70833 3.6776 7.425 3.96094 7.08333 3.96094Z" fill="#866F6E"/>
<path opacity="0.4" d="M6.25 17.2891H1.25C0.908333 17.2891 0.625 17.0057 0.625 16.6641C0.625 16.3224 0.908333 16.0391 1.25 16.0391H6.25C6.59167 16.0391 6.875 16.3224 6.875 16.6641C6.875 17.0057 6.59167 17.2891 6.25 17.2891Z" fill="#866F6E"/>
<path opacity="0.4" d="M3.75 10.625H1.25C0.908333 10.625 0.625 10.3417 0.625 10C0.625 9.65833 0.908333 9.375 1.25 9.375H3.75C4.09167 9.375 4.375 9.65833 4.375 10C4.375 10.3417 4.09167 10.625 3.75 10.625Z" fill="#866F6E"/>
</svg>
