<svg width="44" height="44" viewBox="0 0 44 44" fill="none" xmlns="http://www.w3.org/2000/svg">
<rect x="0.5" y="0.5" width="43" height="43" rx="7.5" fill="#475467"/>
<rect x="0.5" y="0.5" width="43" height="43" rx="7.5" stroke="#475467"/>
<path d="M25.492 13.6665H18.5087C15.4753 13.6665 13.667 15.4748 13.667 18.5082V25.4832C13.667 28.5248 15.4753 30.3332 18.5087 30.3332H25.4837C28.517 30.3332 30.3253 28.5248 30.3253 25.4915V18.5082C30.3337 15.4748 28.5253 13.6665 25.492 13.6665ZM22.0003 25.2332C20.217 25.2332 18.767 23.7832 18.767 21.9998C18.767 20.2165 20.217 18.7665 22.0003 18.7665C23.7837 18.7665 25.2337 20.2165 25.2337 21.9998C25.2337 23.7832 23.7837 25.2332 22.0003 25.2332ZM26.9337 17.7332C26.892 17.8332 26.8337 17.9248 26.7587 18.0082C26.6753 18.0832 26.5837 18.1415 26.4837 18.1832C26.3837 18.2248 26.2753 18.2498 26.167 18.2498C25.942 18.2498 25.7337 18.1665 25.5753 18.0082C25.5003 17.9248 25.442 17.8332 25.4003 17.7332C25.3587 17.6332 25.3337 17.5248 25.3337 17.4165C25.3337 17.3082 25.3587 17.1998 25.4003 17.0998C25.442 16.9915 25.5003 16.9082 25.5753 16.8248C25.767 16.6332 26.0587 16.5415 26.3253 16.5998C26.3837 16.6082 26.4337 16.6248 26.4837 16.6498C26.5337 16.6665 26.5837 16.6915 26.6337 16.7248C26.6753 16.7498 26.717 16.7915 26.7587 16.8248C26.8337 16.9082 26.892 16.9915 26.9337 17.0998C26.9753 17.1998 27.0003 17.3082 27.0003 17.4165C27.0003 17.5248 26.9753 17.6332 26.9337 17.7332Z" fill="#F5F7F8"/>
</svg>
