<svg width="44" height="44" viewBox="0 0 44 44" fill="none" xmlns="http://www.w3.org/2000/svg">
<rect x="0.5" y="0.5" width="43" height="43" rx="7.5" fill="#475467"/>
<rect x="0.5" y="0.5" width="43" height="43" rx="7.5" stroke="#475467"/>
<path d="M30.3337 25.4915C30.3337 28.5248 28.5253 30.3332 25.492 30.3332H24.5003C24.042 30.3332 23.667 29.9582 23.667 29.4998V24.6915C23.667 24.4665 23.8503 24.2748 24.0753 24.2748L25.542 24.2498C25.6587 24.2415 25.7587 24.1582 25.7837 24.0415L26.0753 22.4498C26.1003 22.2998 25.9837 22.1582 25.8253 22.1582L24.0503 22.1832C23.817 22.1832 23.6337 21.9998 23.6253 21.7748L23.592 19.7332C23.592 19.5998 23.7003 19.4832 23.842 19.4832L25.842 19.4498C25.9836 19.4498 26.092 19.3415 26.092 19.1998L26.0587 17.1998C26.0587 17.0582 25.9503 16.9498 25.8087 16.9498L23.5587 16.9832C22.1753 17.0082 21.0753 18.1415 21.1003 19.5248L21.142 21.8165C21.1503 22.0498 20.967 22.2332 20.7337 22.2415L19.7337 22.2582C19.592 22.2582 19.4837 22.3665 19.4837 22.5082L19.5087 24.0915C19.5087 24.2332 19.617 24.3415 19.7587 24.3415L20.7587 24.3248C20.992 24.3248 21.1753 24.5082 21.1837 24.7332L21.2586 29.4832C21.267 29.9498 20.892 30.3332 20.4253 30.3332H18.5087C15.4753 30.3332 13.667 28.5248 13.667 25.4832V18.5082C13.667 15.4748 15.4753 13.6665 18.5087 13.6665H25.492C28.5253 13.6665 30.3337 15.4748 30.3337 18.5082V25.4915Z" fill="#F5F7F8"/>
</svg>
