<svg width="12" height="12" viewBox="0 0 12 12" fill="none" xmlns="http://www.w3.org/2000/svg">
<g clip-path="url(#clip0_1926_25708)">
<mask id="path-1-inside-1_1926_25708" fill="white">
<path d="M3.82479 10.4549C3.80979 10.4549 3.78979 10.4649 3.77479 10.4649C2.80479 9.98492 2.01479 9.18992 1.52979 8.21992C1.52979 8.20492 1.53979 8.18492 1.53979 8.16992C2.14979 8.34992 2.77979 8.48492 3.40479 8.58992C3.51479 9.21992 3.64479 9.84492 3.82479 10.4549Z"/>
</mask>
<path d="M3.82479 10.4549C3.80979 10.4549 3.78979 10.4649 3.77479 10.4649C2.80479 9.98492 2.01479 9.18992 1.52979 8.21992C1.52979 8.20492 1.53979 8.18492 1.53979 8.16992C2.14979 8.34992 2.77979 8.48492 3.40479 8.58992C3.51479 9.21992 3.64479 9.84492 3.82479 10.4549Z" fill="#6927DA"/>
<path d="M3.82479 10.4549V11.9549H5.83135L5.26346 10.0304L3.82479 10.4549ZM3.77479 10.4649L3.10951 11.8093L3.42395 11.9649H3.77479V10.4649ZM1.52979 8.21992H0.0297852V8.57402L0.188144 8.89074L1.52979 8.21992ZM1.53979 8.16992L1.96431 6.73125L0.0397851 6.16336V8.16992H1.53979ZM3.40479 8.58992L4.88243 8.33192L4.69989 7.28648L3.6533 7.11065L3.40479 8.58992ZM3.82479 10.4549V8.95492C3.74114 8.95492 3.67016 8.96178 3.61691 8.96902C3.56335 8.9763 3.51888 8.9852 3.48735 8.99221C3.45569 8.99924 3.43013 9.00594 3.41496 9.01004C3.40064 9.01391 3.38806 9.01753 3.38769 9.01764C3.38368 9.01878 3.39189 9.01641 3.40187 9.01372C3.41271 9.01079 3.43397 9.00518 3.46141 8.99908C3.48872 8.99301 3.52906 8.98489 3.57859 8.97816C3.62782 8.97147 3.69489 8.96492 3.77479 8.96492V10.4649V11.9649C3.85844 11.9649 3.92941 11.9581 3.98266 11.9508C4.03622 11.9435 4.08069 11.9346 4.11222 11.9276C4.14388 11.9206 4.16944 11.9139 4.18461 11.9098C4.19893 11.9059 4.21151 11.9023 4.21188 11.9022C4.21589 11.9011 4.20768 11.9034 4.1977 11.9061C4.18686 11.9091 4.1656 11.9147 4.13816 11.9208C4.11085 11.9268 4.07051 11.935 4.02098 11.9417C3.97175 11.9484 3.90469 11.9549 3.82479 11.9549V10.4549ZM3.77479 10.4649L4.44006 9.12052C3.76828 8.7881 3.21307 8.23239 2.87143 7.5491L1.52979 8.21992L0.188144 8.89074C0.816501 10.1475 1.84129 11.1817 3.10951 11.8093L3.77479 10.4649ZM1.52979 8.21992H3.02979C3.02979 8.29982 3.02324 8.36688 3.01655 8.41611C3.00981 8.46564 3.0017 8.50598 2.99563 8.53328C2.98953 8.56072 2.98392 8.58199 2.98099 8.59283C2.9783 8.6028 2.97593 8.61101 2.97707 8.607C2.97718 8.60664 2.9808 8.59405 2.98467 8.57974C2.98877 8.56457 2.99547 8.539 3.0025 8.50735C3.00951 8.47582 3.01841 8.43135 3.02569 8.37779C3.03293 8.32454 3.03979 8.25357 3.03979 8.16992H1.53979H0.0397851C0.0397851 8.09002 0.0463319 8.02296 0.0530224 7.97374C0.0597554 7.9242 0.0678736 7.88387 0.0739417 7.85656C0.080039 7.82912 0.0856465 7.80785 0.0885754 7.79702C0.0912713 7.78704 0.0936445 7.77883 0.0924985 7.78284C0.0923946 7.78321 0.0887713 7.79579 0.0849035 7.8101C0.0808028 7.82528 0.0741016 7.85084 0.0670667 7.8825C0.0600611 7.91402 0.0511616 7.9585 0.0438818 8.01206C0.0366445 8.0653 0.0297852 8.13627 0.0297852 8.21992H1.52979ZM1.53979 8.16992L1.11526 9.60859C1.7971 9.80979 2.48827 9.95697 3.15627 10.0692L3.40479 8.58992L3.6533 7.11065C3.0713 7.01288 2.50247 6.89005 1.96431 6.73125L1.53979 8.16992ZM3.40479 8.58992L1.92714 8.84792C2.04217 9.50674 2.18365 10.1933 2.38611 10.8794L3.82479 10.4549L5.26346 10.0304C5.10592 9.49651 4.9874 8.9331 4.88243 8.33192L3.40479 8.58992Z" fill="#6927DA" mask="url(#path-1-inside-1_1926_25708)"/>
<mask id="path-3-inside-2_1926_25708" fill="white">
<path d="M10.47 8.22492C9.97502 9.21992 9.15002 10.0249 8.14502 10.5099C8.33502 9.87492 8.49502 9.23492 8.60002 8.58992C9.23002 8.48492 9.85002 8.34992 10.46 8.16992C10.455 8.18992 10.47 8.20992 10.47 8.22492Z"/>
</mask>
<path d="M10.47 8.22492C9.97502 9.21992 9.15002 10.0249 8.14502 10.5099C8.33502 9.87492 8.49502 9.23492 8.60002 8.58992C9.23002 8.48492 9.85002 8.34992 10.46 8.16992C10.455 8.18992 10.47 8.20992 10.47 8.22492Z" fill="#6927DA"/>
<path d="M10.47 8.22492L11.813 8.89304L11.97 8.57743V8.22492H10.47ZM8.14502 10.5099L6.70797 10.0799L5.73262 13.3396L8.79696 11.8608L8.14502 10.5099ZM8.60002 8.58992L8.35342 7.11033L7.29235 7.28718L7.11951 8.34891L8.60002 8.58992ZM10.46 8.16992L11.9152 8.53373L12.5515 5.98883L10.0355 6.73125L10.46 8.16992ZM10.47 8.22492L9.12703 7.5568C8.78364 8.24705 8.20527 8.81531 7.49308 9.159L8.14502 10.5099L8.79696 11.8608C10.0948 11.2345 11.1664 10.1928 11.813 8.89304L10.47 8.22492ZM8.14502 10.5099L9.58207 10.9399C9.78462 10.263 9.96224 9.55757 10.0805 8.83094L8.60002 8.58992L7.11951 8.34891C7.0278 8.91228 6.88542 9.48688 6.70797 10.0799L8.14502 10.5099ZM8.60002 8.58992L8.84662 10.0695C9.52452 9.95653 10.2054 9.80901 10.8845 9.60859L10.46 8.16992L10.0355 6.73125C9.49467 6.89084 8.93552 7.01331 8.35342 7.11033L8.60002 8.58992ZM10.46 8.16992L9.00481 7.80612C8.94532 8.04408 8.95377 8.25157 8.97455 8.39698C8.9942 8.5345 9.02858 8.63903 9.04012 8.67364C9.0457 8.69039 9.0524 8.7093 9.05004 8.70255C9.04982 8.70194 9.04797 8.69666 9.04557 8.68955C9.0431 8.68226 9.0392 8.67049 9.03465 8.65578C9.02617 8.62833 9.01111 8.57686 8.99797 8.51052C8.98484 8.44424 8.97002 8.34557 8.97002 8.22492H10.47H11.97C11.97 8.10052 11.9547 7.99794 11.9408 7.92763C11.9269 7.85724 11.9107 7.80159 11.9009 7.76985C11.8912 7.73866 11.8823 7.71355 11.881 7.70985C11.8771 7.6986 11.8821 7.71289 11.8862 7.72495C11.8946 7.75019 11.9262 7.84503 11.9444 7.97271C11.9638 8.10828 11.9722 8.30576 11.9152 8.53373L10.46 8.16992Z" fill="#6927DA" mask="url(#path-3-inside-2_1926_25708)"/>
<path d="M10.51 3.85523C9.88002 3.66523 9.24502 3.51023 8.60002 3.40023C8.49502 2.75523 8.34002 2.11523 8.14502 1.49023C9.18002 1.98523 10.015 2.82023 10.51 3.85523Z" fill="#6927DA"/>
<path d="M3.82523 1.5443C3.64523 2.1543 3.51523 2.7743 3.41023 3.4043C2.76523 3.5043 2.12523 3.6643 1.49023 3.8543C1.97523 2.8493 2.78023 2.0243 3.77523 1.5293C3.79023 1.5293 3.81023 1.5443 3.82523 1.5443Z" fill="#6927DA"/>
<path d="M7.74488 3.295C6.58488 3.165 5.41488 3.165 4.25488 3.295C4.37988 2.61 4.53988 1.925 4.76488 1.265C4.77488 1.225 4.76988 1.195 4.77488 1.155C5.16988 1.06 5.57488 1 5.99988 1C6.41988 1 6.82988 1.06 7.21988 1.155C7.22488 1.195 7.22488 1.225 7.23488 1.265C7.45988 1.93 7.61988 2.61 7.74488 3.295Z" fill="#6927DA"/>
<path d="M3.295 7.74586C2.605 7.62086 1.925 7.46086 1.265 7.23586C1.225 7.22586 1.195 7.23086 1.155 7.22586C1.06 6.83086 1 6.42586 1 6.00086C1 5.58086 1.06 5.17086 1.155 4.78086C1.195 4.77586 1.225 4.77586 1.265 4.76586C1.93 4.54586 2.605 4.38086 3.295 4.25586C3.17 5.41586 3.17 6.58586 3.295 7.74586Z" fill="#6927DA"/>
<path d="M11.0001 6.00086C11.0001 6.42586 10.9401 6.83086 10.8451 7.22586C10.8051 7.23086 10.7751 7.22586 10.7351 7.23586C10.0701 7.45586 9.39008 7.62086 8.70508 7.74586C8.83508 6.58586 8.83508 5.41586 8.70508 4.25586C9.39008 4.38086 10.0751 4.54086 10.7351 4.76586C10.7751 4.77586 10.8051 4.78086 10.8451 4.78086C10.9401 5.17586 11.0001 5.58086 11.0001 6.00086Z" fill="#6927DA"/>
<path d="M7.74488 8.70508C7.61988 9.39508 7.45988 10.0751 7.23488 10.7351C7.22488 10.7751 7.22488 10.8051 7.21988 10.8451C6.82988 10.9401 6.41988 11.0001 5.99988 11.0001C5.57488 11.0001 5.16988 10.9401 4.77488 10.8451C4.76988 10.8051 4.77488 10.7751 4.76488 10.7351C4.54488 10.0701 4.37988 9.39508 4.25488 8.70508C4.83488 8.77008 5.41488 8.81508 5.99988 8.81508C6.58488 8.81508 7.16988 8.77008 7.74488 8.70508Z" fill="#6927DA"/>
<path d="M7.88167 7.88167C6.63112 8.03944 5.36888 8.03944 4.11833 7.88167C3.96056 6.63112 3.96056 5.36888 4.11833 4.11833C5.36888 3.96056 6.63112 3.96056 7.88167 4.11833C8.03944 5.36888 8.03944 6.63112 7.88167 7.88167Z" fill="#6927DA"/>
</g>
<defs>
<clipPath id="clip0_1926_25708">
<rect width="12" height="12" fill="white"/>
</clipPath>
</defs>
</svg>
