<svg width="24" height="24" viewBox="0 0 24 24" fill="none" xmlns="http://www.w3.org/2000/svg">
<rect x="0.5" y="0.5" width="23" height="23" rx="11.5" stroke="#D0D5DD"/>
<g clip-path="url(#clip0_4379_129192)">
<path d="M11.9971 7.375H12.0029C13.5988 7.37517 15.3641 8.30706 15.8252 10.3359C16.3483 12.644 14.9435 14.6514 13.541 16L13.5391 16.001C13.1111 16.4168 12.5577 16.6249 12.0029 16.625C11.4484 16.625 10.8931 16.4177 10.459 16C9.05681 14.6518 7.65171 12.6393 8.1748 10.3311C8.63567 8.30326 10.4049 7.37516 11.9971 7.375ZM12.0029 9.08008C10.8568 9.08008 9.92773 10.0091 9.92773 11.1553C9.92788 12.3013 10.8569 13.2305 12.0029 13.2305C13.1488 13.2302 14.077 12.3011 14.0771 11.1553C14.0771 10.0093 13.1489 9.08032 12.0029 9.08008Z" fill="#D0D5DD" stroke="#D0D5DD"/>
</g>
<defs>
<clipPath id="clip0_4379_129192">
<rect width="12" height="12" fill="white" transform="translate(6 6)"/>
</clipPath>
</defs>
</svg>
