<svg width="21" height="20" viewBox="0 0 21 20" fill="none" xmlns="http://www.w3.org/2000/svg">
<path d="M10.4995 2.41675C14.6769 2.41675 18.0833 5.82245 18.0835 9.99976C18.0835 14.1772 14.677 17.5837 10.4995 17.5837C6.32221 17.5836 2.9165 14.1771 2.9165 9.99976C2.91668 5.82256 6.32232 2.41693 10.4995 2.41675ZM10.4995 5.29175C9.74378 5.29193 9.12451 5.91098 9.12451 6.66675V10.8337C9.12462 11.2994 9.36102 11.7117 9.71826 11.9607C9.60629 12.0235 9.50228 12.0984 9.40674 12.1843L9.37744 12.2107L9.35107 12.24C9.22141 12.3841 9.11591 12.5474 9.04053 12.7283C8.96692 12.905 8.9165 13.1117 8.9165 13.3337C8.91655 13.5475 8.96354 13.7465 9.03271 13.9187V13.9197C9.0335 13.9217 9.03486 13.9235 9.03564 13.9255C9.03736 13.9297 9.03879 13.9341 9.04053 13.9382V13.9373C9.12375 14.1459 9.23786 14.3007 9.35107 14.4265L9.37744 14.4558L9.40674 14.4822C9.55081 14.6118 9.71411 14.7173 9.89502 14.7927C10.0716 14.8662 10.2777 14.9167 10.4995 14.9167C10.7216 14.9167 10.9283 14.8663 11.105 14.7927C11.2859 14.7173 11.4492 14.6118 11.5933 14.4822L11.6226 14.4558L11.6489 14.4265C11.762 14.3009 11.8743 14.1455 11.9575 13.9373L11.9585 13.9382C11.9602 13.9341 11.9617 13.9297 11.9634 13.9255C11.9642 13.9235 11.9655 13.9217 11.9663 13.9197L11.9653 13.9187C12.0346 13.7464 12.0834 13.5477 12.0835 13.3337C12.0835 13.1116 12.0321 12.905 11.9585 12.7283C11.8831 12.5474 11.7786 12.384 11.6489 12.24L11.6226 12.2107L11.5933 12.1843L11.4819 12.0916C11.4183 12.0431 11.3508 11.9999 11.2808 11.9607C11.6383 11.7117 11.8744 11.2996 11.8745 10.8337V6.66675C11.8745 5.91087 11.2554 5.29175 10.4995 5.29175Z" fill="#F04438" stroke="#F04438" stroke-width="1.5"/>
</svg>
