<svg width="24" height="25" viewBox="0 0 24 25" fill="none" xmlns="http://www.w3.org/2000/svg">
<path d="M19.79 15.7072C17.73 17.7572 14.78 18.3872 12.19 17.5772L7.48002 22.2772C7.14002 22.6272 6.47002 22.8372 5.99002 22.7672L3.81002 22.4672C3.09002 22.3672 2.42002 21.6872 2.31002 20.9672L2.01002 18.7872C1.94002 18.3072 2.17002 17.6372 2.50002 17.2972L7.20002 12.5972C6.40002 9.99723 7.02002 7.04723 9.08002 4.99723C12.03 2.04723 16.82 2.04723 19.78 4.99723C22.74 7.94723 22.74 12.7572 19.79 15.7072Z" stroke="#6A5554" stroke-width="1.5" stroke-miterlimit="10" stroke-linecap="round" stroke-linejoin="round"/>
<path d="M6.89001 18.2672L9.19001 20.5672" stroke="#6A5554" stroke-width="1.5" stroke-miterlimit="10" stroke-linecap="round" stroke-linejoin="round"/>
<path d="M14.5 11.7772C15.3284 11.7772 16 11.1056 16 10.2772C16 9.44879 15.3284 8.77722 14.5 8.77722C13.6716 8.77722 13 9.44879 13 10.2772C13 11.1056 13.6716 11.7772 14.5 11.7772Z" stroke="#6A5554" stroke-width="1.5" stroke-linecap="round" stroke-linejoin="round"/>
</svg>
