<svg width="20" height="20" viewBox="0 0 20 20" fill="none" xmlns="http://www.w3.org/2000/svg">
<path d="M1.6665 12.0835L9.7017 16.1011C9.81101 16.1557 9.86567 16.1831 9.923 16.1938C9.97378 16.2033 10.0259 16.2033 10.0767 16.1938C10.134 16.1831 10.1887 16.1557 10.298 16.1011L18.3332 12.0835M1.6665 7.9168L9.7017 3.89921C9.81101 3.84455 9.86567 3.81722 9.923 3.80646C9.97378 3.79693 10.0259 3.79693 10.0767 3.80646C10.134 3.81722 10.1887 3.84455 10.298 3.89921L18.3332 7.9168L10.298 11.9344C10.1887 11.9891 10.134 12.0164 10.0767 12.0271C10.0259 12.0367 9.97378 12.0367 9.923 12.0271C9.86567 12.0164 9.81101 11.9891 9.7017 11.9344L1.6665 7.9168Z" stroke="#B65702" stroke-width="1.66667" stroke-linecap="round" stroke-linejoin="round"/>
</svg>
