<svg width="19" height="19" viewBox="0 0 19 19" fill="none" xmlns="http://www.w3.org/2000/svg">
<path d="M6.16667 12L12 6.16665M6.58333 2.41667V0.75M11.5833 15.75V17.4167M2.41667 6.58333H0.75M15.75 11.5833H17.4167M3.17851 3.17851L2 2M14.9882 14.9881L16.1667 16.1666M9.08336 13.7973L7.31559 15.5651C6.01385 16.8668 3.9033 16.8668 2.60155 15.5651C1.2998 14.2633 1.2998 12.1528 2.60155 10.851L4.36932 9.08326M13.7974 9.08326L15.5652 7.31549C16.8669 6.01375 16.8669 3.9032 15.5652 2.60145C14.2634 1.2997 12.1529 1.2997 10.8511 2.60145L9.08336 4.36922" stroke="#D92D20" stroke-width="1.5" stroke-linecap="round" stroke-linejoin="round"/>
</svg>
