<svg width="20" height="20" viewBox="0 0 20 20" fill="none" xmlns="http://www.w3.org/2000/svg">
<path d="M16.5846 11.25H3.41797C2.16797 11.25 1.66797 11.7833 1.66797 13.1083V16.475C1.66797 17.8 2.16797 18.3333 3.41797 18.3333H16.5846C17.8346 18.3333 18.3346 17.8 18.3346 16.475V13.1083C18.3346 11.7833 17.8346 11.25 16.5846 11.25Z" stroke="#8F4400" stroke-width="1.5" stroke-linecap="round" stroke-linejoin="round"/>
<path d="M16.5846 1.66663H3.41797C2.16797 1.66663 1.66797 2.19996 1.66797 3.52496V6.89163C1.66797 8.21663 2.16797 8.74996 3.41797 8.74996H16.5846C17.8346 8.74996 18.3346 8.21663 18.3346 6.89163V3.52496C18.3346 2.19996 17.8346 1.66663 16.5846 1.66663Z" stroke="#8F4400" stroke-width="1.5" stroke-linecap="round" stroke-linejoin="round"/>
</svg>
