<svg width="24" height="25" viewBox="0 0 24 25" fill="none" xmlns="http://www.w3.org/2000/svg">
<path d="M22 9.77724V15.7772C22 18.2772 21.5 20.0272 20.38 21.1572L14 14.7772L21.73 7.04724C21.91 7.83724 22 8.73724 22 9.77724Z" stroke="#6A5554" stroke-width="1.5" stroke-linecap="round" stroke-linejoin="round"/>
<path d="M21.73 7.04723L6.26999 22.5072C3.25999 21.8172 2 19.7372 2 15.7772V9.77722C2 4.77722 4 2.77722 9 2.77722H15C18.96 2.77722 21.04 4.03723 21.73 7.04723Z" stroke="#6A5554" stroke-width="1.5" stroke-linecap="round" stroke-linejoin="round"/>
<path d="M20.38 21.1572C19.25 22.2772 17.5 22.7772 15 22.7772H9.00003C7.96003 22.7772 7.06002 22.6872 6.27002 22.5072L14 14.7772L20.38 21.1572Z" stroke="#6A5554" stroke-width="1.5" stroke-linecap="round" stroke-linejoin="round"/>
<path d="M6.24002 8.75719C6.92002 5.82719 11.32 5.82719 12 8.75719C12.39 10.4772 11.31 11.9372 10.36 12.8372C9.67001 13.4972 8.58003 13.4972 7.88003 12.8372C6.93003 11.9372 5.84002 10.4772 6.24002 8.75719Z" stroke="#6A5554" stroke-width="1.5"/>
<path d="M9.0946 9.47723H9.10359" stroke="#6A5554" stroke-width="1.5" stroke-linecap="round" stroke-linejoin="round"/>
</svg>
