<svg width="25" height="24" viewBox="0 0 25 24" fill="none" xmlns="http://www.w3.org/2000/svg">
<path d="M22.4004 8V13C22.4004 17 20.4004 19 16.4004 19H15.9004C15.5904 19 15.2904 19.15 15.1004 19.4L13.6004 21.4C12.9404 22.28 11.8604 22.28 11.2004 21.4L9.70039 19.4C9.54039 19.18 9.17039 19 8.90039 19H8.40039C4.40039 19 2.40039 18 2.40039 13V8C2.40039 4 4.40039 2 8.40039 2H12.4004" stroke="#6A5554" stroke-width="1.5" stroke-miterlimit="10" stroke-linecap="round" stroke-linejoin="round"/>
<path d="M15.6001 4.61996C15.2701 3.62996 15.6601 2.40996 16.7401 2.06996C17.3001 1.89996 18.0001 2.03996 18.4001 2.56996C18.7801 2.01996 19.5001 1.89996 20.0601 2.06996C21.1401 2.39996 21.5301 3.62996 21.2001 4.61996C20.6901 6.18996 18.9001 6.99996 18.4001 6.99996C17.9001 6.99996 16.1301 6.19996 15.6001 4.61996Z" stroke="#6A5554" stroke-width="1.5" stroke-linecap="round" stroke-linejoin="round"/>
<path d="M16.3969 11H16.4058" stroke="#6A5554" stroke-width="1.5" stroke-linecap="round" stroke-linejoin="round"/>
<path d="M12.3959 11H12.4049" stroke="#6A5554" stroke-width="1.5" stroke-linecap="round" stroke-linejoin="round"/>
<path d="M8.3949 11H8.40388" stroke="#6A5554" stroke-width="1.5" stroke-linecap="round" stroke-linejoin="round"/>
</svg>
