<svg width="24" height="24" viewBox="0 0 24 24" fill="none" xmlns="http://www.w3.org/2000/svg">
<path opacity="0.4" d="M19.3009 7.9234V13.0734C19.3009 16.1534 17.5409 17.4734 14.9009 17.4734H6.11093C5.66093 17.4734 5.23093 17.4334 4.83093 17.3434C4.58093 17.3034 4.34094 17.2334 4.12094 17.1534C2.62094 16.5934 1.71094 15.2934 1.71094 13.0734V7.9234C1.71094 4.8434 3.47093 3.52344 6.11093 3.52344H14.9009C17.1409 3.52344 18.7509 4.47343 19.1809 6.64343C19.2509 7.04343 19.3009 7.4534 19.3009 7.9234Z" fill="#1570EF"/>
<path d="M22.3001 10.9206V16.0706C22.3001 19.1506 20.5401 20.4706 17.9001 20.4706H9.11008C8.37008 20.4706 7.70009 20.3706 7.12009 20.1506C5.93009 19.7106 5.12008 18.8006 4.83008 17.3406C5.23008 17.4306 5.66008 17.4706 6.11008 17.4706H14.9001C17.5401 17.4706 19.3001 16.1506 19.3001 13.0706V7.92059C19.3001 7.45059 19.2601 7.03062 19.1801 6.64062C21.0801 7.04063 22.3001 8.38059 22.3001 10.9206Z" fill="#1570EF"/>
<path d="M10.4994 13.1394C11.9574 13.1394 13.1394 11.9574 13.1394 10.4994C13.1394 9.04136 11.9574 7.85938 10.4994 7.85938C9.04136 7.85938 7.85938 9.04136 7.85938 10.4994C7.85938 11.9574 9.04136 13.1394 10.4994 13.1394Z" fill="#1570EF"/>
<path d="M4.7793 8.25C4.3693 8.25 4.0293 8.59 4.0293 9V12C4.0293 12.41 4.3693 12.75 4.7793 12.75C5.1893 12.75 5.5293 12.41 5.5293 12V9C5.5293 8.59 5.1993 8.25 4.7793 8.25Z" fill="#1570EF"/>
<path d="M16.2109 8.25C15.8009 8.25 15.4609 8.59 15.4609 9V12C15.4609 12.41 15.8009 12.75 16.2109 12.75C16.6209 12.75 16.9609 12.41 16.9609 12V9C16.9609 8.59 16.6309 8.25 16.2109 8.25Z" fill="#1570EF"/>
</svg>
