<svg width="20" height="20" viewBox="0 0 20 20" fill="none" xmlns="http://www.w3.org/2000/svg">
<path opacity="0.4" d="M14.166 6.45573C14.0077 6.45573 13.8493 6.39739 13.7243 6.27239C13.4827 6.03073 13.4827 5.63073 13.7243 5.38906L15.4327 3.68073C13.966 2.43073 12.0743 1.66406 9.99935 1.66406C5.39935 1.66406 1.66602 5.3974 1.66602 9.9974C1.66602 14.5974 5.39935 18.3307 9.99935 18.3307C14.5993 18.3307 18.3327 14.5974 18.3327 9.9974C18.3327 7.9224 17.566 6.03073 16.316 4.56407L14.6077 6.27239C14.4827 6.39739 14.3243 6.45573 14.166 6.45573Z" fill="#866F6E"/>
<path d="M11.4577 9.85L10.6243 9.55833V7.70833H10.691C11.116 7.70833 11.4577 8.08333 11.4577 8.54167C11.4577 8.88333 11.741 9.16667 12.0827 9.16667C12.4243 9.16667 12.7077 8.88333 12.7077 8.54167C12.7077 7.39167 11.8077 6.45833 10.691 6.45833H10.6243V6.25C10.6243 5.90833 10.341 5.625 9.99935 5.625C9.65768 5.625 9.37435 5.90833 9.37435 6.25V6.45833H9.12436C8.11603 6.45833 7.29102 7.30833 7.29102 8.35833C7.29102 9.575 7.99935 9.96667 8.54102 10.1583L9.37435 10.45V12.3H9.30769C8.88269 12.3 8.54102 11.925 8.54102 11.4667C8.54102 11.125 8.25768 10.8417 7.91602 10.8417C7.57435 10.8417 7.29102 11.125 7.29102 11.4667C7.29102 12.6167 8.19103 13.55 9.30769 13.55H9.37435V13.7583C9.37435 14.1 9.65768 14.3833 9.99935 14.3833C10.341 14.3833 10.6243 14.1 10.6243 13.7583V13.55H10.8743C11.8827 13.55 12.7077 12.7 12.7077 11.65C12.7077 10.425 11.9993 10.0333 11.4577 9.85ZM8.94934 8.96667C8.66601 8.86667 8.54102 8.80833 8.54102 8.35C8.54102 7.99166 8.80769 7.7 9.12436 7.7H9.37435V9.10833L8.94934 8.96667ZM10.8743 12.2917H10.6243V10.8833L11.0494 11.0333C11.3327 11.1333 11.4577 11.1917 11.4577 11.65C11.4577 12 11.191 12.2917 10.8743 12.2917Z" fill="#866F6E"/>
<path d="M18.9089 1.42292C18.8422 1.27292 18.7255 1.14792 18.5672 1.08125C18.4922 1.04792 18.4089 1.03125 18.3255 1.03125H14.9922C14.6505 1.03125 14.3672 1.31458 14.3672 1.65625C14.3672 1.99792 14.6505 2.28125 14.9922 2.28125H16.8172L15.4255 3.67292C15.7422 3.94792 16.0339 4.23959 16.3089 4.55625L17.7005 3.16459V4.99792C17.7005 5.33959 17.9839 5.62292 18.3255 5.62292C18.6672 5.62292 18.9505 5.33959 18.9505 4.99792V1.66459C18.9589 1.58125 18.9422 1.50625 18.9089 1.42292Z" fill="#866F6E"/>
</svg>
