<svg width="16" height="17" viewBox="0 0 16 17" fill="none" xmlns="http://www.w3.org/2000/svg">
<path d="M12.8673 6.05733V9.49068C12.8673 11.544 11.694 12.424 9.93396 12.424H4.07395C3.77395 12.424 3.48729 12.3974 3.22062 12.3374C3.05395 12.3107 2.89396 12.264 2.74729 12.2107C1.74729 11.8374 1.14062 10.9707 1.14062 9.49068V6.05733C1.14062 4.004 2.31395 3.12402 4.07395 3.12402H9.93396C11.4273 3.12402 12.5006 3.75735 12.7873 5.20402C12.834 5.47069 12.8673 5.744 12.8673 6.05733Z" stroke="#866F6E" stroke-width="1.5" stroke-miterlimit="10" stroke-linecap="round" stroke-linejoin="round"/>
<path d="M14.8693 8.05741V11.4908C14.8693 13.5441 13.696 14.4241 11.936 14.4241H6.07599C5.58266 14.4241 5.136 14.3574 4.74933 14.2108C3.956 13.9174 3.41599 13.3108 3.22266 12.3374C3.48932 12.3974 3.77599 12.4241 4.07599 12.4241H9.93599C11.696 12.4241 12.8693 11.5441 12.8693 9.49076V6.05741C12.8693 5.74408 12.8427 5.4641 12.7893 5.2041C14.056 5.47077 14.8693 6.36408 14.8693 8.05741Z" stroke="#866F6E" stroke-width="1.5" stroke-miterlimit="10" stroke-linecap="round" stroke-linejoin="round"/>
<path d="M6.99829 9.53711C7.97031 9.53711 8.7583 8.74912 8.7583 7.7771C8.7583 6.80508 7.97031 6.01709 6.99829 6.01709C6.02627 6.01709 5.23828 6.80508 5.23828 7.7771C5.23828 8.74912 6.02627 9.53711 6.99829 9.53711Z" stroke="#866F6E" stroke-width="1.5" stroke-miterlimit="10" stroke-linecap="round" stroke-linejoin="round"/>
<path d="M3.1875 6.31055V9.2439" stroke="#866F6E" stroke-width="1.5" stroke-miterlimit="10" stroke-linecap="round" stroke-linejoin="round"/>
<path d="M10.8164 6.31104V9.24438" stroke="#866F6E" stroke-width="1.5" stroke-miterlimit="10" stroke-linecap="round" stroke-linejoin="round"/>
</svg>
