<svg width="12" height="12" viewBox="0 0 12 12" fill="none" xmlns="http://www.w3.org/2000/svg">
<path d="M10.8301 5.21927L10.3401 7.30927C9.92009 9.11427 9.09009 9.84427 7.53009 9.69427C7.28009 9.67427 7.01009 9.62927 6.72009 9.55927L5.88009 9.35927C3.79509 8.86427 3.15009 7.83427 3.64009 5.74427L4.13009 3.64927C4.23009 3.22427 4.35009 2.85427 4.50009 2.54927C5.08509 1.33927 6.08009 1.01427 7.75009 1.40927L8.58509 1.60427C10.6801 2.09427 11.3201 3.12927 10.8301 5.21927Z" stroke="#B42318" stroke-width="1.5" stroke-linecap="round" stroke-linejoin="round"/>
<path d="M7.53017 9.69578C7.22017 9.90578 6.83017 10.0808 6.35517 10.2358L5.56517 10.4958C3.58017 11.1358 2.53517 10.6008 1.89017 8.61578L1.25017 6.64078C0.610171 4.65578 1.14017 3.60578 3.12517 2.96578L3.91517 2.70578C4.12017 2.64078 4.31517 2.58578 4.50017 2.55078C4.35017 2.85578 4.23017 3.22578 4.13017 3.65078L3.64017 5.74578C3.15017 7.83578 3.79517 8.86578 5.88017 9.36078L6.72017 9.56078C7.01017 9.63078 7.28017 9.67578 7.53017 9.69578Z" stroke="#B42318" stroke-width="1.5" stroke-linecap="round" stroke-linejoin="round"/>
</svg>
