<svg width="20" height="20" viewBox="0 0 20 20" fill="none" xmlns="http://www.w3.org/2000/svg">
<path opacity="0.4" d="M9.77441 3.00684C10.4651 2.76851 11.4127 2.76642 12.7432 3.08105L12.7451 3.08203L14.1377 3.40723V3.40625C15.8109 3.79766 16.7124 4.3671 17.1572 5.08398C17.6021 5.801 17.7108 6.86075 17.3193 8.53027L16.5029 12.0137L16.502 12.0146C16.1672 13.4535 15.6975 14.3267 15.1162 14.8242C14.6296 15.2406 13.9795 15.4652 13.041 15.4395L12.6211 15.4131L12.6094 15.4121L12.3232 15.3828C12.0301 15.3461 11.7139 15.2879 11.375 15.2061L11.373 15.2051L9.97363 14.8721H9.97266C8.30706 14.4766 7.40648 13.9074 6.96094 13.1904C6.51607 12.4742 6.40484 11.4164 6.7959 9.74805L6.79688 9.74707L7.61328 6.25684C7.77265 5.57953 7.95675 5.02144 8.17285 4.58203L8.1748 4.57812C8.59562 3.70772 9.11852 3.23319 9.77441 3.00684Z" fill="#B65702" stroke="#B65702" stroke-width="1.5"/>
<path d="M6.15234 5.91113V5.91211L5.33594 9.40332C4.91048 11.218 4.92936 12.7614 5.68652 13.9805C6.39592 15.1223 7.64782 15.8107 9.29199 16.2461L9.62598 16.3301L10.0771 16.4375L9.04004 16.7793C7.45791 17.2888 6.43463 17.2652 5.71582 16.8975C5.04123 16.5522 4.45483 15.812 3.95996 14.415L3.8623 14.127L2.7959 10.8369H2.79688C2.28582 9.25185 2.30611 8.22456 2.67285 7.50391C3.03905 6.78446 3.8542 6.16579 5.4375 5.65527L5.44238 5.6543L6.28906 5.375C6.24055 5.54944 6.19534 5.72841 6.15234 5.91113Z" fill="#B65702" stroke="#B65702" stroke-width="1.5"/>
<mask id="path-3-inside-1_5578_212254" fill="white">
<path d="M14.5751 8.76108C14.5251 8.76108 14.4751 8.75274 14.4168 8.74441L10.3751 7.71941C10.0418 7.63608 9.84181 7.29441 9.92514 6.96108C10.0085 6.62774 10.3501 6.42774 10.6835 6.51108L14.7251 7.53608C15.0585 7.61941 15.2585 7.96108 15.1751 8.29441C15.1085 8.56941 14.8501 8.76108 14.5751 8.76108Z"/>
</mask>
<path d="M14.5751 8.76108C14.5251 8.76108 14.4751 8.75274 14.4168 8.74441L10.3751 7.71941C10.0418 7.63608 9.84181 7.29441 9.92514 6.96108C10.0085 6.62774 10.3501 6.42774 10.6835 6.51108L14.7251 7.53608C15.0585 7.61941 15.2585 7.96108 15.1751 8.29441C15.1085 8.56941 14.8501 8.76108 14.5751 8.76108Z" fill="#B65702"/>
<path d="M14.4168 8.74441L14.0481 10.1984L14.1255 10.218L14.2047 10.2293L14.4168 8.74441ZM10.3751 7.71941L10.7439 6.26543L10.7389 6.2642L10.3751 7.71941ZM10.6835 6.51108L11.0522 5.0571L11.0473 5.05586L10.6835 6.51108ZM14.7251 7.53608L14.3564 8.99006L14.3613 8.99129L14.7251 7.53608ZM15.1751 8.29441L13.7199 7.9306L13.7174 7.94101L15.1751 8.29441ZM14.5751 8.76108V7.26108C14.632 7.26108 14.6716 7.26581 14.6778 7.26655C14.6811 7.26695 14.6806 7.26694 14.6713 7.26561C14.6667 7.26495 14.6617 7.26423 14.6543 7.26315C14.6475 7.26216 14.6384 7.26084 14.6289 7.25949L14.4168 8.74441L14.2047 10.2293C14.2116 10.2303 14.272 10.2394 14.3204 10.2452C14.3787 10.2522 14.4683 10.2611 14.5751 10.2611V8.76108ZM14.4168 8.74441L14.7855 7.29044L10.7439 6.26544L10.3751 7.71941L10.0064 9.17338L14.0481 10.1984L14.4168 8.74441ZM10.3751 7.71941L10.7389 6.2642C11.2277 6.38638 11.4933 6.873 11.3804 7.32488L9.92514 6.96108L8.46993 6.59727C8.19029 7.71582 8.85596 8.88578 10.0113 9.17462L10.3751 7.71941ZM9.92514 6.96108L11.3804 7.32488C11.2582 7.81359 10.7716 8.07926 10.3197 7.96629L10.6835 6.51108L11.0473 5.05586C9.92873 4.77623 8.75877 5.4419 8.46993 6.59727L9.92514 6.96108ZM10.6835 6.51108L10.3147 7.96505L14.3564 8.99005L14.7251 7.53608L15.0939 6.08211L11.0522 5.05711L10.6835 6.51108ZM14.7251 7.53608L14.3613 8.99129C13.8726 8.86911 13.607 8.38249 13.7199 7.93061L15.1751 8.29441L16.6304 8.65821C16.91 7.53967 16.2443 6.36971 15.0889 6.08086L14.7251 7.53608ZM15.1751 8.29441L13.7174 7.94101C13.8211 7.51328 14.1891 7.26108 14.5751 7.26108V8.76108V10.2611C15.5112 10.2611 16.3959 9.62554 16.6329 8.64781L15.1751 8.29441Z" fill="#B65702" mask="url(#path-3-inside-1_5578_212254)"/>
<mask id="path-5-inside-2_5578_212254" fill="white">
<path d="M12.1343 11.5715C12.0843 11.5715 12.0343 11.5632 11.9759 11.5548L9.55092 10.9382C9.21759 10.8548 9.01759 10.5132 9.10092 10.1798C9.18425 9.84649 9.52592 9.64649 9.85925 9.72983L12.2843 10.3465C12.6176 10.4298 12.8176 10.7715 12.7343 11.1048C12.6676 11.3882 12.4176 11.5715 12.1343 11.5715Z"/>
</mask>
<path d="M12.1343 11.5715C12.0843 11.5715 12.0343 11.5632 11.9759 11.5548L9.55092 10.9382C9.21759 10.8548 9.01759 10.5132 9.10092 10.1798C9.18425 9.84649 9.52592 9.64649 9.85925 9.72983L12.2843 10.3465C12.6176 10.4298 12.8176 10.7715 12.7343 11.1048C12.6676 11.3882 12.4176 11.5715 12.1343 11.5715Z" fill="#B65702"/>
<path d="M11.9759 11.5548L11.6062 13.0086L11.6842 13.0284L11.7638 13.0398L11.9759 11.5548ZM9.55092 10.9382L9.9206 9.48442L9.91472 9.48295L9.55092 10.9382ZM9.85925 9.72983L10.2289 8.27608L10.2231 8.27461L9.85925 9.72983ZM12.2843 10.3465L11.9146 11.8002L11.9205 11.8017L12.2843 10.3465ZM12.7343 11.1048L11.279 10.741L11.2765 10.7511L11.2741 10.7613L12.7343 11.1048ZM12.1343 11.5715V10.0715C12.1911 10.0715 12.2307 10.0762 12.2369 10.077C12.2402 10.0774 12.2397 10.0774 12.2304 10.076C12.2258 10.0754 12.2209 10.0747 12.2134 10.0736C12.2066 10.0726 12.1976 10.0713 12.1881 10.0699L11.9759 11.5548L11.7638 13.0398C11.7707 13.0407 11.8311 13.0498 11.8795 13.0556C11.9378 13.0626 12.0274 13.0715 12.1343 13.0715V11.5715ZM11.9759 11.5548L12.3456 10.1011L9.9206 9.48443L9.55092 10.9382L9.18124 12.3919L11.6062 13.0086L11.9759 11.5548ZM9.55092 10.9382L9.91472 9.48295C10.4034 9.60512 10.6691 10.0917 10.5561 10.5436L9.10092 10.1798L7.64571 9.81602C7.36607 10.9346 8.03174 12.1045 9.18712 12.3934L9.55092 10.9382ZM9.10092 10.1798L10.5561 10.5436C10.434 11.0323 9.94733 11.298 9.49545 11.185L9.85925 9.72983L10.2231 8.27461C9.10451 7.99498 7.93455 8.66064 7.64571 9.81602L9.10092 10.1798ZM9.85925 9.72983L9.48958 11.1836L11.9146 11.8002L12.2843 10.3465L12.6539 8.89276L10.2289 8.27609L9.85925 9.72983ZM12.2843 10.3465L11.9205 11.8017C11.4317 11.6795 11.1661 11.1929 11.279 10.741L12.7343 11.1048L14.1895 11.4686C14.4691 10.3501 13.8034 9.18012 12.6481 8.89128L12.2843 10.3465ZM12.7343 11.1048L11.2741 10.7613C11.3767 10.3253 11.7654 10.0715 12.1343 10.0715V11.5715V13.0715C13.0698 13.0715 13.9585 12.4511 14.1944 11.4484L12.7343 11.1048Z" fill="#B65702" mask="url(#path-5-inside-2_5578_212254)"/>
</svg>
