<svg width="24" height="24" viewBox="0 0 24 24" fill="none" xmlns="http://www.w3.org/2000/svg">
<path d="M18.0166 2.62494C18.9394 2.63402 19.7824 3.00626 20.3877 3.61127C20.9978 4.23116 21.375 5.07518 21.375 5.99994V8.41986C21.375 9.07606 21.1698 9.55081 20.8604 9.86029C20.5509 10.1698 20.0761 10.3749 19.4199 10.3749H16.625V4.0097C16.6251 3.25014 17.2494 2.62678 18.0166 2.62494Z" fill="#CE747F" stroke="#CE747F" stroke-width="1.25"/>
<path opacity="0.4" d="M5.99988 2.62494H15.7684C15.5203 3.02557 15.3749 3.49601 15.3749 3.99994V20.9999C15.3749 21.3018 15.0236 21.4843 14.7723 21.2978H14.7714L13.0643 20.0195C12.4216 19.5303 11.5143 19.6019 10.9481 20.1679L9.26746 21.8476C9.12153 21.9935 8.87723 21.9935 8.73132 21.8476L7.07312 20.1796L7.07214 20.1777L6.95984 20.0761C6.38203 19.5944 5.54558 19.5611 4.93445 20.0195L3.22546 21.2997L3.22253 21.3017C2.97777 21.4871 2.62488 21.318 2.62488 20.9999V5.99994C2.62488 4.97672 2.85778 4.1474 3.34753 3.58002C3.82271 3.02976 4.62783 2.62494 5.99988 2.62494Z" fill="#CE747F" stroke="#CE747F" stroke-width="1.25"/>
<path d="M9.00012 7.12506C9.02926 7.12506 9.06066 7.13677 9.08704 7.16315C9.11341 7.18952 9.12512 7.22092 9.12512 7.25006V9.87506H11.7501C11.7793 9.87506 11.8107 9.88677 11.837 9.91315C11.8634 9.93952 11.8751 9.97092 11.8751 10.0001C11.8751 10.0292 11.8634 10.0606 11.837 10.087C11.8107 10.1134 11.7793 10.1251 11.7501 10.1251H9.12512V12.7501C9.12512 12.7792 9.11341 12.8106 9.08704 12.837C9.06066 12.8634 9.02926 12.8751 9.00012 12.8751C8.97098 12.8751 8.93959 12.8634 8.91321 12.837C8.88683 12.8106 8.87512 12.7792 8.87512 12.7501V10.1251H6.25012C6.22098 10.1251 6.18959 10.1134 6.16321 10.087C6.13683 10.0606 6.12512 10.0292 6.12512 10.0001C6.12512 9.97092 6.13683 9.93952 6.16321 9.91315C6.18959 9.88677 6.22098 9.87506 6.25012 9.87506H8.87512V7.25006C8.87512 7.22092 8.88683 7.18952 8.91321 7.16315C8.93959 7.13677 8.97098 7.12506 9.00012 7.12506Z" fill="#CE747F" stroke="#CE747F" stroke-width="1.25"/>
</svg>
