<svg width="12" height="13" viewBox="0 0 12 13" fill="none" xmlns="http://www.w3.org/2000/svg">
<path d="M6.71517 8.27756H2.20017C1.29017 8.27756 0.710168 7.30257 1.15017 6.50257L2.31517 4.38256L3.40517 2.39756C3.86017 1.57256 5.05017 1.57256 5.50517 2.39756L6.60017 4.38256L7.12517 5.33756L7.76517 6.50257C8.20517 7.30257 7.62517 8.27756 6.71517 8.27756Z" stroke="#175CD3" stroke-width="1.5" stroke-linecap="round" stroke-linejoin="round"/>
<path d="M11 8.52734C11 10.3223 9.545 11.7773 7.75 11.7773C5.955 11.7773 4.5 10.3223 4.5 8.52734C4.5 8.44234 4.505 8.36234 4.51 8.27734H6.715C7.625 8.27734 8.205 7.30235 7.765 6.50235L7.125 5.33734C7.325 5.29734 7.535 5.27734 7.75 5.27734C9.545 5.27734 11 6.73234 11 8.52734Z" stroke="#175CD3" stroke-width="1.5" stroke-linecap="round" stroke-linejoin="round"/>
</svg>
