<svg width="20" height="21" viewBox="0 0 20 21" fill="none" xmlns="http://www.w3.org/2000/svg">
<path d="M17.3261 11.0606C17.5296 10.8862 17.6313 10.7991 17.6686 10.6953C17.7013 10.6042 17.7013 10.5046 17.6686 10.4136C17.6313 10.3098 17.5296 10.2226 17.3261 10.0483L10.2672 3.99775C9.917 3.69759 9.74191 3.54751 9.59367 3.54383C9.46483 3.54063 9.34177 3.59723 9.26035 3.69713C9.16667 3.81208 9.16667 4.04269 9.16667 4.50392V8.0833C7.38777 8.39451 5.75966 9.29591 4.54976 10.6493C3.23069 12.1249 2.50103 14.0344 2.5 16.0136V16.5236C3.37445 15.4702 4.46626 14.6182 5.70063 14.026C6.78891 13.504 7.96535 13.1947 9.16667 13.1132V16.605C9.16667 17.0662 9.16667 17.2968 9.26035 17.4118C9.34177 17.5117 9.46483 17.5683 9.59367 17.5651C9.74191 17.5614 9.917 17.4113 10.2672 17.1111L17.3261 11.0606Z" stroke="white" stroke-width="2" stroke-linecap="round" stroke-linejoin="round"/>
</svg>
