<svg width="20" height="20" viewBox="0 0 20 20" fill="none" xmlns="http://www.w3.org/2000/svg">
<path opacity="0.4" d="M9.13398 1.71616L4.55065 3.43283C3.67565 3.76616 2.95898 4.7995 2.95898 5.74116V12.4912C2.95898 13.1662 3.40065 14.0578 3.94232 14.4578L8.52565 17.8828C9.33398 18.4912 10.659 18.4912 11.4673 17.8828L16.0507 14.4578C16.5923 14.0495 17.034 13.1662 17.034 12.4912V5.74116C17.034 4.80783 16.3173 3.76616 15.4423 3.44116L10.859 1.7245C10.3923 1.54116 9.60898 1.54116 9.13398 1.71616Z" fill="#866F6E"/>
<path d="M8.88255 11.8547C8.72422 11.8547 8.56589 11.7964 8.44089 11.6714L7.09922 10.3297C6.85755 10.088 6.85755 9.68802 7.09922 9.44635C7.34089 9.20469 7.74088 9.20469 7.98255 9.44635L8.88255 10.3464L12.0242 7.20469C12.2659 6.96302 12.6659 6.96302 12.9076 7.20469C13.1492 7.44635 13.1492 7.84635 12.9076 8.08802L9.32422 11.6714C9.19922 11.7964 9.04088 11.8547 8.88255 11.8547Z" fill="#866F6E"/>
</svg>
