<svg width="24" height="24" viewBox="0 0 24 24" fill="none" xmlns="http://www.w3.org/2000/svg">
<rect x="0.5" y="0.5" width="23" height="23" rx="11.5" stroke="#B87B00"/>
<path d="M12 7C9.245 7 7 9.245 7 12C7 14.755 9.245 17 12 17C14.755 17 17 14.755 17 12C17 9.245 14.755 7 12 7ZM14.39 10.85L11.555 13.685C11.485 13.755 11.39 13.795 11.29 13.795C11.19 13.795 11.095 13.755 11.025 13.685L9.61 12.27C9.465 12.125 9.465 11.885 9.61 11.74C9.755 11.595 9.995 11.595 10.14 11.74L11.29 12.89L13.86 10.32C14.005 10.175 14.245 10.175 14.39 10.32C14.535 10.465 14.535 10.7 14.39 10.85Z" fill="#B87B00"/>
</svg>
