<svg width="24" height="25" viewBox="0 0 24 25" fill="none" xmlns="http://www.w3.org/2000/svg">
<path d="M16.25 23.2773C17.2165 23.2773 18 22.4938 18 21.5273C18 20.5608 17.2165 19.7773 16.25 19.7773C15.2835 19.7773 14.5 20.5608 14.5 21.5273C14.5 22.4938 15.2835 23.2773 16.25 23.2773Z" fill="#B65702"/>
<path d="M8.25 23.2773C9.2165 23.2773 10 22.4938 10 21.5273C10 20.5608 9.2165 19.7773 8.25 19.7773C7.2835 19.7773 6.5 20.5608 6.5 21.5273C6.5 22.4938 7.2835 23.2773 8.25 23.2773Z" fill="#B65702"/>
<path opacity="0.4" d="M4.84 4.71735L4.64 7.16734C4.6 7.63734 4.97 8.02734 5.44 8.02734H20.75C21.17 8.02734 21.52 7.70734 21.55 7.28734C21.68 5.51734 20.33 4.07735 18.56 4.07735H6.28999C6.18999 3.63735 5.98999 3.21734 5.67999 2.86734C5.18999 2.33734 4.49 2.02734 3.77 2.02734H2C1.59 2.02734 1.25 2.36734 1.25 2.77734C1.25 3.18734 1.59 3.52734 2 3.52734H3.74001C4.05001 3.52734 4.34 3.65735 4.55 3.87735C4.76 4.10735 4.86 4.40735 4.84 4.71735Z" fill="#B65702"/>
<path d="M20.5101 9.52734H5.17006C4.75006 9.52734 4.41005 9.84734 4.37005 10.2573L4.01005 14.6073C3.87005 16.3073 5.21006 17.7773 6.92006 17.7773H18.0401C19.5401 17.7773 20.8601 16.5473 20.9701 15.0473L21.3001 10.3773C21.3401 9.91735 20.9801 9.52734 20.5101 9.52734Z" fill="#B65702"/>
</svg>
