<svg width="24" height="25" viewBox="0 0 24 25" fill="none" xmlns="http://www.w3.org/2000/svg">
<path d="M3.01001 11.9972V16.4872C3.01001 20.9772 4.81001 22.7772 9.30001 22.7772H14.69C19.18 22.7772 20.98 20.9772 20.98 16.4872V11.9972" stroke="#6A5554" stroke-width="1.5" stroke-linecap="round" stroke-linejoin="round"/>
<path d="M12 12.7772C13.83 12.7772 15.18 11.2872 15 9.45722L14.34 2.77722H9.66999L8.99999 9.45722C8.81999 11.2872 10.17 12.7772 12 12.7772Z" stroke="#6A5554" stroke-width="1.5" stroke-linecap="round" stroke-linejoin="round"/>
<path d="M18.31 12.7772C20.33 12.7772 21.81 11.1372 21.61 9.12722L21.33 6.37722C20.97 3.77722 19.97 2.77722 17.35 2.77722H14.3L15 9.78722C15.17 11.4372 16.66 12.7772 18.31 12.7772Z" stroke="#6A5554" stroke-width="1.5" stroke-linecap="round" stroke-linejoin="round"/>
<path d="M5.64 12.7772C7.29 12.7772 8.78 11.4372 8.94 9.78722L9.16 7.57722L9.64001 2.77722H6.59C3.97001 2.77722 2.97 3.77722 2.61 6.37722L2.34 9.12722C2.14 11.1372 3.62 12.7772 5.64 12.7772Z" stroke="#6A5554" stroke-width="1.5" stroke-linecap="round" stroke-linejoin="round"/>
<path d="M12 17.7772C10.33 17.7772 9.5 18.6072 9.5 20.2772V22.7772H14.5V20.2772C14.5 18.6072 13.67 17.7772 12 17.7772Z" stroke="#6A5554" stroke-width="1.5" stroke-linecap="round" stroke-linejoin="round"/>
</svg>
