<svg width="24" height="24" viewBox="0 0 24 24" fill="none" xmlns="http://www.w3.org/2000/svg">
<path opacity="0.4" d="M17 20.5H7C4 20.5 2 19 2 15.5V8.5C2 5 4 3.5 7 3.5H17C20 3.5 22 5 22 8.5V15.5C22 19 20 20.5 17 20.5Z" fill="#866F6E"/>
<path d="M12.0027 12.868C11.1627 12.868 10.3127 12.608 9.66271 12.078L6.53271 9.57802C6.21271 9.31802 6.15271 8.84802 6.41271 8.52802C6.67271 8.20802 7.14271 8.14802 7.46271 8.40802L10.5927 10.908C11.3527 11.518 12.6427 11.518 13.4027 10.908L16.5327 8.40802C16.8527 8.14802 17.3327 8.19802 17.5827 8.52802C17.8427 8.84802 17.7927 9.32802 17.4627 9.57802L14.3327 12.078C13.6927 12.608 12.8427 12.868 12.0027 12.868Z" fill="#866F6E"/>
</svg>
