<svg width="24" height="25" viewBox="0 0 24 25" fill="none" xmlns="http://www.w3.org/2000/svg">
<path d="M15.39 5.98722L16.8 8.80721C16.99 9.19721 17.5 9.56721 17.93 9.64721L20.48 10.0672C22.11 10.3372 22.49 11.5172 21.32 12.6972L19.33 14.6872C19 15.0172 18.81 15.6672 18.92 16.1372L19.49 18.5972C19.94 20.5372 18.9 21.2972 17.19 20.2772L14.8 18.8572C14.37 18.5972 13.65 18.5972 13.22 18.8572L10.83 20.2772C9.12 21.2872 8.08001 20.5372 8.53001 18.5972L9.10002 16.1372C9.21002 15.6772 9.02001 15.0272 8.69001 14.6872L6.70002 12.6972C5.53002 11.5272 5.91002 10.3472 7.54002 10.0672L10.09 9.64721C10.52 9.57721 11.03 9.19721 11.22 8.80721L12.63 5.98722C13.38 4.45722 14.62 4.45722 15.39 5.98722Z" stroke="#6A5554" stroke-width="1.5" stroke-linecap="round" stroke-linejoin="round"/>
<path d="M8 5.77722H2" stroke="#6A5554" stroke-width="1.5" stroke-linecap="round" stroke-linejoin="round"/>
<path d="M5 19.7772H2" stroke="#6A5554" stroke-width="1.5" stroke-linecap="round" stroke-linejoin="round"/>
<path d="M3 12.7772H2" stroke="#6A5554" stroke-width="1.5" stroke-linecap="round" stroke-linejoin="round"/>
</svg>
