<svg width="11" height="11" viewBox="0 0 11 11" fill="none" xmlns="http://www.w3.org/2000/svg">
<path d="M8.35588 10.5C8.22413 10.5 8.09532 10.4721 7.97592 10.4186L7.91475 10.3901L5.49915 9.08354L3.08356 10.3907L3.02121 10.4203C2.87788 10.4828 2.71969 10.5083 2.56261 10.4943C2.40553 10.4803 2.25513 10.4273 2.12661 10.3405C1.99057 10.246 1.88585 10.1165 1.82479 9.96743C1.76372 9.81834 1.74886 9.65582 1.78194 9.49899L2.34482 6.91033L1.40258 6.09781L0.288003 5.13585L0.242126 5.09012C0.133264 4.98112 0.0572743 4.8464 0.0220966 4.70004C-0.0130811 4.55368 -0.00615563 4.40104 0.0421493 4.25809C0.143902 3.96587 0.406812 3.7495 0.724422 3.6954L0.784415 3.68537L3.54938 3.39482L4.69395 0.9913L4.72924 0.929958C4.80559 0.799795 4.9172 0.691317 5.05255 0.615731C5.18789 0.540145 5.34207 0.500193 5.49915 0.5C5.81853 0.5 6.1132 0.666183 6.26906 0.9294L6.30435 0.991858L7.4501 3.3965L10.2151 3.68704L10.2762 3.69652C10.5933 3.75229 10.8562 3.96754 10.9573 4.26087C11.0573 4.55142 10.9779 4.87319 10.7574 5.09402L10.7115 5.13752L8.65408 6.91312L9.21695 9.49621C9.25032 9.65408 9.23538 9.81771 9.1739 9.96779C9.11241 10.1179 9.00695 10.2482 8.86993 10.3433C8.72028 10.4456 8.54037 10.5004 8.35588 10.5ZM3.56291 6.8395C3.53997 6.941 3.28883 8.09201 3.06591 9.11588L5.2086 7.95762C5.29731 7.9097 5.39765 7.8845 5.49974 7.8845C5.60184 7.8845 5.70218 7.9097 5.79088 7.95762L7.93357 9.11477L7.43422 6.82612C7.41355 6.73118 7.41939 6.63277 7.45116 6.54063C7.48294 6.44849 7.53954 6.36582 7.61538 6.3008L9.43869 4.72708L6.98722 4.47C6.88561 4.45922 6.78871 4.42351 6.7061 4.3664C6.62348 4.30929 6.55799 4.23275 6.51609 4.14432L5.49974 2.0135L4.48457 4.14432C4.3987 4.32389 4.21989 4.44713 4.01345 4.47L1.56197 4.72708L3.38529 6.3008C3.46301 6.36732 3.52049 6.45239 3.55174 6.54714C3.58298 6.64189 3.58684 6.74286 3.56291 6.8395Z" fill="#838383"/>
</svg>
