<svg width="24" height="24" viewBox="0 0 24 24" fill="none" xmlns="http://www.w3.org/2000/svg">
<path opacity="0.4" d="M11.9996 2.75C12.3242 2.75 12.8038 2.99528 13.2487 3.87402V3.875L14.9684 7.32422L14.9694 7.3252C15.0385 7.46355 15.1276 7.59193 15.2272 7.71094L6.37952 16.5596L6.47034 16.1689L6.47131 16.1641C6.56085 15.7651 6.51792 15.3366 6.4137 14.9717C6.30966 14.6075 6.12022 14.2193 5.83069 13.9297L3.40002 11.5C2.73757 10.8375 2.64678 10.3081 2.74475 9.98926C2.85257 9.6692 3.23059 9.29574 4.15491 9.13867L7.27307 8.62012L7.28088 8.61816C7.64941 8.55265 8.00514 8.3719 8.2887 8.16406C8.57197 7.95643 8.85466 7.67037 9.02795 7.33203L9.03088 7.32422L10.7506 3.87402C11.1954 2.99536 11.6751 2.75017 11.9996 2.75Z" fill="#B65702" stroke="#B65702" stroke-width="1.5"/>
<path d="M18.8215 8.96875L18.8254 8.96973L19.8342 9.13867V9.13965C20.7599 9.29683 21.138 9.66989 21.2454 9.99023C21.3428 10.3092 21.2518 10.8382 20.5901 11.5L20.5891 11.501L18.1682 13.9307C17.8781 14.2213 17.6851 14.6062 17.5793 14.9746C17.4748 15.339 17.4334 15.7656 17.5286 16.166V16.167L18.219 19.1777V19.1797C18.4915 20.3544 18.2342 20.8712 17.9993 21.042C17.8941 21.1171 17.7538 21.1699 17.5403 21.1699C17.2093 21.1699 16.7419 21.0431 16.1516 20.6943H16.1506L13.2229 18.9551L13.22 18.9531L13.0764 18.877C12.7357 18.7136 12.3513 18.6475 12.0002 18.6475C11.599 18.6475 11.1539 18.734 10.7805 18.9531L10.7766 18.9551L7.85083 20.6924C6.81163 21.3009 6.24205 21.2146 6.01099 21.0488L17.7405 9.32031C18.0321 9.0287 18.4381 8.90181 18.8215 8.96875Z" fill="#B65702" stroke="#B65702" stroke-width="1.5"/>
</svg>
