<svg width="14" height="14" viewBox="0 0 14 14" fill="none" xmlns="http://www.w3.org/2000/svg">
<path d="M2.56944 9.05705L5.21194 11.6995C6.29694 12.7845 8.05861 12.7845 9.14944 11.6995L11.7103 9.13871C12.7953 8.05371 12.7953 6.29205 11.7103 5.20121L9.06194 2.56455C8.50777 2.01038 7.74361 1.71288 6.96194 1.75371L4.04527 1.89371C2.87861 1.94621 1.95111 2.87371 1.89277 4.03455L1.75277 6.95121C1.71777 7.73871 2.01527 8.50288 2.56944 9.05705Z" stroke="#866F6E" stroke-width="1.5" stroke-linecap="round" stroke-linejoin="round"/>
<path d="M5.67904 7.13249C6.48445 7.13249 7.13737 6.47957 7.13737 5.67415C7.13737 4.86874 6.48445 4.21582 5.67904 4.21582C4.87362 4.21582 4.2207 4.86874 4.2207 5.67415C4.2207 6.47957 4.87362 7.13249 5.67904 7.13249Z" stroke="#866F6E" stroke-width="1.5" stroke-linecap="round"/>
<path d="M7.7207 10.0492L10.054 7.71582" stroke="#866F6E" stroke-width="1.5" stroke-miterlimit="10" stroke-linecap="round" stroke-linejoin="round"/>
</svg>
