<svg width="24" height="24" viewBox="0 0 24 24" fill="none" xmlns="http://www.w3.org/2000/svg">
<path opacity="0.4" d="M11.7329 3.40454C12.8934 3.34403 14.0316 3.78535 14.8579 4.61157L14.8589 4.61255L19.3989 9.13306C21.0149 10.7601 21.0125 13.3838 19.3979 14.9983L15.0093 19.387C13.3824 21.0051 10.7574 21.0032 9.14209 19.3879L4.61182 14.8577C3.78662 14.0323 3.34247 12.894 3.39404 11.72L3.63428 6.72095C3.71838 5.05212 5.05084 3.72025 6.72803 3.64478H6.72998L11.73 3.40454H11.7329Z" fill="#8F4400" stroke="#8F4400" stroke-width="1.25"/>
<path d="M9.5 7.245C10.7454 7.245 11.7548 8.25453 11.7549 9.49988C11.7549 10.7453 10.7454 11.7548 9.5 11.7548C8.25465 11.7547 7.24512 10.7452 7.24512 9.49988C7.24518 8.25457 8.25469 7.24506 9.5 7.245Z" fill="#8F4400" stroke="#8F4400" stroke-width="1.25"/>
<path d="M16.9995 12.8774C17.0363 12.8774 17.0675 12.8908 17.0884 12.9116C17.1091 12.9324 17.1225 12.9629 17.1226 12.9995C17.1226 13.0363 17.1092 13.0675 17.0884 13.0884L13.0884 17.0884C13.0732 17.1036 13.0587 17.1117 13.0464 17.1167C13.0335 17.1219 13.0176 17.1245 12.9995 17.1245C12.9817 17.1245 12.9664 17.1218 12.9536 17.1167C12.9413 17.1117 12.9268 17.1036 12.9116 17.0884C12.8908 17.0675 12.8774 17.0363 12.8774 16.9995C12.8775 16.9629 12.8908 16.9324 12.9116 16.9116L16.9116 12.9116C16.9324 12.8908 16.9629 12.8775 16.9995 12.8774Z" fill="#8F4400" stroke="#8F4400" stroke-width="1.25"/>
</svg>
