<svg width="20" height="20" viewBox="0 0 20 20" fill="none" xmlns="http://www.w3.org/2000/svg">
<path opacity="0.4" d="M13.491 1.66406H6.50768C3.47435 1.66406 1.66602 3.4724 1.66602 6.50573V13.4891C1.66602 16.5224 3.47435 18.3307 6.50768 18.3307H13.491C16.5243 18.3307 18.3327 16.5224 18.3327 13.4891V6.50573C18.3327 3.4724 16.5243 1.66406 13.491 1.66406Z" fill="#866F6E"/>
<path d="M15.2578 7.39062C15.2578 7.73229 14.9828 8.01562 14.6328 8.01562H10.2578C9.91615 8.01562 9.63281 7.73229 9.63281 7.39062C9.63281 7.04896 9.91615 6.76562 10.2578 6.76562H14.6328C14.9828 6.76562 15.2578 7.04896 15.2578 7.39062Z" fill="#866F6E"/>
<path d="M8.30911 6.58021L6.43411 8.45521C6.30911 8.58021 6.15078 8.63854 5.99245 8.63854C5.83411 8.63854 5.66745 8.58021 5.55078 8.45521L4.92578 7.83021C4.67578 7.58854 4.67578 7.18854 4.92578 6.94688C5.16745 6.70521 5.55911 6.70521 5.80911 6.94688L5.99245 7.13021L7.42578 5.69687C7.66745 5.45521 8.05911 5.45521 8.30911 5.69687C8.55078 5.93854 8.55078 6.33854 8.30911 6.58021Z" fill="#866F6E"/>
<path d="M15.2578 13.2266C15.2578 13.5682 14.9828 13.8516 14.6328 13.8516H10.2578C9.91615 13.8516 9.63281 13.5682 9.63281 13.2266C9.63281 12.8849 9.91615 12.6016 10.2578 12.6016H14.6328C14.9828 12.6016 15.2578 12.8849 15.2578 13.2266Z" fill="#866F6E"/>
<path d="M8.30911 12.4161L6.43411 14.2911C6.30911 14.4161 6.15078 14.4745 5.99245 14.4745C5.83411 14.4745 5.66745 14.4161 5.55078 14.2911L4.92578 13.6661C4.67578 13.4245 4.67578 13.0245 4.92578 12.7828C5.16745 12.5411 5.55911 12.5411 5.80911 12.7828L5.99245 12.9661L7.42578 11.5328C7.66745 11.2911 8.05911 11.2911 8.30911 11.5328C8.55078 11.7745 8.55078 12.1745 8.30911 12.4161Z" fill="#866F6E"/>
</svg>
