<svg width="24" height="24" viewBox="0 0 24 24" fill="none" xmlns="http://www.w3.org/2000/svg">
<rect x="0.5" y="0.5" width="23" height="23" rx="11.5" stroke="#D0D5DD"/>
<path d="M13.7559 12.6367C13.8257 13.539 14.5799 14.25 15.5 14.25H16.5V14.5C16.5 14.907 16.2586 15.2547 15.9111 15.4111C15.6586 14.5956 14.8964 14 14 14C13.0716 14 12.2898 14.6396 12.0664 15.5H11.9336C11.7102 14.6396 10.9284 14 10 14C9.10354 14 8.34035 14.5955 8.08789 15.4111C7.74082 15.2546 7.5 14.9067 7.5 14.5V13.5H12.25C12.892 13.5 13.4514 13.1525 13.7559 12.6367ZM14.4199 9C14.5973 9 14.7647 9.09628 14.8574 9.25586L14.9121 9.35254C14.5281 9.48968 14.2069 9.75698 14 10.1016V9H14.4199Z" fill="#D0D5DD" stroke="#D0D5DD"/>
<path d="M10 15.5C10.2761 15.5 10.5 15.7239 10.5 16C10.5 16.2761 10.2761 16.5 10 16.5C9.72386 16.5 9.5 16.2761 9.5 16C9.5 15.7239 9.72386 15.5 10 15.5Z" fill="#D0D5DD" stroke="#D0D5DD"/>
<path d="M14 15.5C14.2761 15.5 14.5 15.7239 14.5 16C14.5 16.2761 14.2761 16.5 14 16.5C13.7239 16.5 13.5 16.2761 13.5 16C13.5 15.7239 13.7239 15.5 14 15.5Z" fill="#D0D5DD" stroke="#D0D5DD"/>
<path d="M17 12.265V13H15.5C15.225 13 15 12.775 15 12.5V11C15 10.725 15.225 10.5 15.5 10.5H16.145L16.87 11.77C16.955 11.92 17 12.09 17 12.265Z" fill="#D0D5DD"/>
<path d="M12.54 7H8.845C7.825 7 7 7.825 7 8.845V12.04C7 12.315 7.225 12.54 7.5 12.54H12.075C12.585 12.54 13 12.125 13 11.615V7.46C13 7.205 12.795 7 12.54 7ZM10.69 9.955C10.69 10.085 10.62 10.21 10.51 10.275L9.885 10.65C9.82 10.69 9.755 10.705 9.69 10.705C9.565 10.705 9.44 10.64 9.37 10.525C9.26 10.345 9.32 10.115 9.495 10.01L9.94 9.745V9.205C9.94 9 10.11 8.83 10.315 8.83C10.52 8.83 10.69 9 10.69 9.205V9.955Z" fill="#D0D5DD"/>
</svg>
