<svg width="20" height="20" viewBox="0 0 20 20" fill="none" xmlns="http://www.w3.org/2000/svg">
<path opacity="0.4" d="M13.491 1.66406H6.50768C3.47435 1.66406 1.66602 3.4724 1.66602 6.50573V13.4807C1.66602 16.5224 3.47435 18.3307 6.50768 18.3307H13.4827C16.516 18.3307 18.3243 16.5224 18.3243 13.4891V6.50573C18.3327 3.4724 16.5243 1.66406 13.491 1.66406Z" fill="#866F6E"/>
<path d="M14.0671 10.3948C14.0671 10.0698 13.8087 9.81146 13.4837 9.81146C13.1587 9.81146 12.9004 10.0698 12.9004 10.3948V10.5448L10.6337 8.27812C10.5087 8.15312 10.3421 8.09479 10.1671 8.11146C9.99206 8.12812 9.83372 8.21979 9.74206 8.36979L8.89206 9.63646L6.92539 7.65313C6.70039 7.42813 6.33372 7.42813 6.10039 7.65313C5.87539 7.87813 5.87539 8.24479 6.10039 8.47812L8.58372 10.9615C8.70872 11.0865 8.87539 11.1448 9.05039 11.1281C9.22539 11.1115 9.38372 11.0198 9.47539 10.8698L10.3254 9.60313L12.0837 11.3615H11.9337C11.6087 11.3615 11.3504 11.6198 11.3504 11.9448C11.3504 12.2698 11.6087 12.5281 11.9337 12.5281H13.4837C13.5587 12.5281 13.6337 12.5115 13.7087 12.4865C13.8504 12.4281 13.9671 12.3115 14.0254 12.1698C14.0587 12.0948 14.0671 12.0198 14.0671 11.9448V10.3948Z" fill="#866F6E"/>
</svg>
