<svg width="20" height="20" viewBox="0 0 20 20" fill="none" xmlns="http://www.w3.org/2000/svg">
<path opacity="0.4" d="M13.491 1.66406H6.50768C3.47435 1.66406 1.66602 3.4724 1.66602 6.50573V13.4807C1.66602 16.5224 3.47435 18.3307 6.50768 18.3307H13.4827C16.516 18.3307 18.3243 16.5224 18.3243 13.4891V6.50573C18.3327 3.4724 16.5243 1.66406 13.491 1.66406Z" fill="#866F6E"/>
<path d="M14.0249 7.84271C13.9665 7.70104 13.8499 7.58438 13.7082 7.52604C13.6415 7.50104 13.5665 7.48438 13.4915 7.48438H11.9415C11.6165 7.48438 11.3582 7.74271 11.3582 8.06771C11.3582 8.39271 11.6165 8.65104 11.9415 8.65104H12.0915L10.3332 10.4094L9.4832 9.14271C9.3832 9.00104 9.2332 8.90104 9.0582 8.88438C8.87487 8.86771 8.71654 8.92604 8.59154 9.05104L6.1082 11.5344C5.8832 11.7594 5.8832 12.126 6.1082 12.3594C6.22487 12.476 6.36654 12.526 6.51654 12.526C6.66654 12.526 6.81654 12.4677 6.92487 12.3594L8.9082 10.376L9.7582 11.6427C9.8582 11.7844 10.0082 11.8844 10.1832 11.901C10.3665 11.9177 10.5249 11.8594 10.6499 11.7344L12.9165 9.46771V9.61771C12.9165 9.94271 13.1749 10.201 13.4999 10.201C13.8249 10.201 14.0832 9.94271 14.0832 9.61771V8.05938C14.0665 7.98438 14.0582 7.90938 14.0249 7.84271Z" fill="#866F6E"/>
</svg>
