<svg width="24" height="25" viewBox="0 0 24 25" fill="none" xmlns="http://www.w3.org/2000/svg">
<path d="M12 14.7772H13C14.1 14.7772 15 13.8772 15 12.7772V2.77722H6C4.5 2.77722 3.19001 3.60721 2.51001 4.82721" stroke="#6A5554" stroke-width="1.5" stroke-linecap="round" stroke-linejoin="round"/>
<path d="M2 17.7772C2 19.4372 3.34 20.7772 5 20.7772H6C6 19.6772 6.9 18.7772 8 18.7772C9.1 18.7772 10 19.6772 10 20.7772H14C14 19.6772 14.9 18.7772 16 18.7772C17.1 18.7772 18 19.6772 18 20.7772H19C20.66 20.7772 22 19.4372 22 17.7772V14.7772H19C18.45 14.7772 18 14.3272 18 13.7772V10.7772C18 10.2272 18.45 9.77722 19 9.77722H20.29L18.58 6.78723C18.22 6.16723 17.56 5.77722 16.84 5.77722H15V12.7772C15 13.8772 14.1 14.7772 13 14.7772H12" stroke="#6A5554" stroke-width="1.5" stroke-linecap="round" stroke-linejoin="round"/>
<path d="M8 22.7772C9.10457 22.7772 10 21.8818 10 20.7772C10 19.6727 9.10457 18.7772 8 18.7772C6.89543 18.7772 6 19.6727 6 20.7772C6 21.8818 6.89543 22.7772 8 22.7772Z" stroke="#6A5554" stroke-width="1.5" stroke-linecap="round" stroke-linejoin="round"/>
<path d="M16 22.7772C17.1046 22.7772 18 21.8818 18 20.7772C18 19.6727 17.1046 18.7772 16 18.7772C14.8954 18.7772 14 19.6727 14 20.7772C14 21.8818 14.8954 22.7772 16 22.7772Z" stroke="#6A5554" stroke-width="1.5" stroke-linecap="round" stroke-linejoin="round"/>
<path d="M22 12.7772V14.7772H19C18.45 14.7772 18 14.3272 18 13.7772V10.7772C18 10.2272 18.45 9.77722 19 9.77722H20.29L22 12.7772Z" stroke="#6A5554" stroke-width="1.5" stroke-linecap="round" stroke-linejoin="round"/>
<path d="M2 8.77722H8" stroke="#6A5554" stroke-width="1.5" stroke-linecap="round" stroke-linejoin="round"/>
<path d="M2 11.7772H6" stroke="#6A5554" stroke-width="1.5" stroke-linecap="round" stroke-linejoin="round"/>
<path d="M2 14.7772H4" stroke="#6A5554" stroke-width="1.5" stroke-linecap="round" stroke-linejoin="round"/>
</svg>
