<svg width="24" height="24" viewBox="0 0 24 24" fill="none" xmlns="http://www.w3.org/2000/svg">
<path opacity="0.4" d="M21.08 8.58003V15.42C21.08 16.54 20.48 17.58 19.51 18.15L13.57 21.58C12.6 22.14 11.4 22.14 10.42 21.58L4.48003 18.15C3.51003 17.59 2.91003 16.55 2.91003 15.42V8.58003C2.91003 7.46003 3.51003 6.41999 4.48003 5.84999L10.42 2.42C11.39 1.86 12.59 1.86 13.57 2.42L19.51 5.84999C20.48 6.41999 21.08 7.45003 21.08 8.58003Z" fill="#669F2A"/>
<path d="M12 11.9998C13.2869 11.9998 14.33 10.9566 14.33 9.6698C14.33 8.38298 13.2869 7.33984 12 7.33984C10.7132 7.33984 9.67004 8.38298 9.67004 9.6698C9.67004 10.9566 10.7132 11.9998 12 11.9998Z" fill="#669F2A"/>
<path d="M14.68 16.6603C15.49 16.6603 15.96 15.7604 15.51 15.0904C14.83 14.0804 13.51 13.4004 12 13.4004C10.49 13.4004 9.17004 14.0804 8.49004 15.0904C8.04004 15.7604 8.51004 16.6603 9.32004 16.6603H14.68Z" fill="#669F2A"/>
</svg>
