<svg width="20" height="20" viewBox="0 0 20 20" fill="none" xmlns="http://www.w3.org/2000/svg">
<path d="M15.0002 13.956C14.8669 13.956 14.7419 13.9143 14.6252 13.831C14.3502 13.6226 14.2919 13.231 14.5002 12.956C15.8086 11.2143 15.8086 8.78096 14.5002 7.03929C14.2919 6.76429 14.3502 6.37262 14.6252 6.16429C14.9002 5.95596 15.2919 6.01429 15.5002 6.28929C17.1336 8.47262 17.1336 11.5226 15.5002 13.706C15.3752 13.8726 15.1919 13.956 15.0002 13.956Z" fill="#866F6E"/>
<path d="M16.5256 16.0445C16.3923 16.0445 16.2673 16.0028 16.1506 15.9195C15.8756 15.7112 15.8173 15.3195 16.0256 15.0445C18.2506 12.0778 18.2506 7.92783 16.0256 4.96116C15.8173 4.68616 15.8756 4.2945 16.1506 4.08616C16.4256 3.87783 16.8173 3.93616 17.0256 4.21116C19.584 7.6195 19.584 12.3862 17.0256 15.7945C16.909 15.9612 16.7173 16.0445 16.5256 16.0445Z" fill="#866F6E"/>
<path opacity="0.4" d="M13.1257 6.17835V13.8284C13.1257 15.2617 12.609 16.3367 11.684 16.8534C11.309 17.0617 10.8923 17.1617 10.459 17.1617C9.79232 17.1617 9.07565 16.9367 8.34232 16.4784L5.90898 14.9534C5.74232 14.8534 5.55065 14.795 5.35898 14.795H4.58398V5.21168H5.35898C5.55065 5.21168 5.74232 5.15335 5.90898 5.05335L8.34232 3.52835C9.55898 2.77002 10.7507 2.63668 11.684 3.15335C12.609 3.67002 13.1257 4.74502 13.1257 6.17835Z" fill="#866F6E"/>
<path d="M4.58268 5.21094V14.7943H4.16602C2.14935 14.7943 1.04102 13.6859 1.04102 11.6693V8.33594C1.04102 6.31927 2.14935 5.21094 4.16602 5.21094H4.58268Z" fill="#866F6E"/>
</svg>
