<svg width="170" height="48" viewBox="0 0 170 48" fill="none" xmlns="http://www.w3.org/2000/svg">
<path fill-rule="evenodd" clip-rule="evenodd" d="M22 46C34.1503 46 44 36.1503 44 24C44 11.8497 34.1503 2 22 2C9.84971 2 0 11.8497 0 24C0 36.1503 9.84971 46 22 46ZM28.8632 12.2485C29.1973 11.0619 28.0457 10.3601 26.994 11.1094L12.3124 21.5685C11.1718 22.3811 11.3512 24 12.5819 24H16.448V23.9701H23.9828L17.8433 26.1363L15.1368 35.7515C14.8027 36.9382 15.9542 37.6399 17.006 36.8906L31.6876 26.4315C32.8282 25.619 32.6487 24 31.4181 24H25.5553L28.8632 12.2485Z" fill="#155EEF"/>
<path d="M55.3809 33.9122V30.4322H58.1409V16.3922H55.3809V12.9122H66.1809C67.4609 12.9122 68.5709 13.1322 69.5109 13.5722C70.4709 13.9922 71.2109 14.6022 71.7309 15.4022C72.2709 16.1822 72.5409 17.1222 72.5409 18.2222V18.5222C72.5409 19.4822 72.3609 20.2722 72.0009 20.8922C71.6409 21.4922 71.2109 21.9622 70.7109 22.3022C70.2309 22.6222 69.7709 22.8522 69.3309 22.9922V23.5322C69.7709 23.6522 70.2509 23.8822 70.7709 24.2222C71.2909 24.5422 71.7309 25.0122 72.0909 25.6322C72.4709 26.2522 72.6609 27.0622 72.6609 28.0622V28.3622C72.6609 29.5222 72.3909 30.5222 71.8509 31.3622C71.3109 32.1822 70.5609 32.8122 69.6009 33.2522C68.6609 33.6922 67.5609 33.9122 66.3009 33.9122H55.3809ZM62.1009 30.3122H65.8209C66.6809 30.3122 67.3709 30.1022 67.8909 29.6822C68.4309 29.2622 68.7009 28.6622 68.7009 27.8822V27.5822C68.7009 26.8022 68.4409 26.2022 67.9209 25.7822C67.4009 25.3622 66.7009 25.1522 65.8209 25.1522H62.1009V30.3122ZM62.1009 21.5522H65.7609C66.5809 21.5522 67.2509 21.3422 67.7709 20.9222C68.3109 20.5022 68.5809 19.9222 68.5809 19.1822V18.8822C68.5809 18.1222 68.3209 17.5422 67.8009 17.1422C67.2809 16.7222 66.6009 16.5122 65.7609 16.5122H62.1009V21.5522Z" fill="#101828"/>
<path d="M81.6027 34.3322C80.1227 34.3322 78.7927 34.0322 77.6127 33.4322C76.4327 32.8322 75.5027 31.9622 74.8227 30.8222C74.1427 29.6822 73.8027 28.3122 73.8027 26.7122V26.2322C73.8027 24.6322 74.1427 23.2622 74.8227 22.1222C75.5027 20.9822 76.4327 20.1122 77.6127 19.5122C78.7927 18.9122 80.1227 18.6122 81.6027 18.6122C83.0827 18.6122 84.4127 18.9122 85.5927 19.5122C86.7727 20.1122 87.7027 20.9822 88.3827 22.1222C89.0627 23.2622 89.4027 24.6322 89.4027 26.2322V26.7122C89.4027 28.3122 89.0627 29.6822 88.3827 30.8222C87.7027 31.9622 86.7727 32.8322 85.5927 33.4322C84.4127 34.0322 83.0827 34.3322 81.6027 34.3322ZM81.6027 30.9722C82.7627 30.9722 83.7227 30.6022 84.4827 29.8622C85.2427 29.1022 85.6227 28.0222 85.6227 26.6222V26.3222C85.6227 24.9222 85.2427 23.8522 84.4827 23.1122C83.7427 22.3522 82.7827 21.9722 81.6027 21.9722C80.4427 21.9722 79.4827 22.3522 78.7227 23.1122C77.9627 23.8522 77.5827 24.9222 77.5827 26.3222V26.6222C77.5827 28.0222 77.9627 29.1022 78.7227 29.8622C79.4827 30.6022 80.4427 30.9722 81.6027 30.9722Z" fill="#101828"/>
<path d="M91.3919 33.9122V12.9122H95.1719V33.9122H91.3919Z" fill="#101828"/>
<path d="M103.561 33.9122C102.581 33.9122 101.781 33.6122 101.161 33.0122C100.561 32.3922 100.261 31.5722 100.261 30.5522V22.1522H96.5406V19.0322H100.261V14.4122H104.041V19.0322H108.121V22.1522H104.041V29.8922C104.041 30.4922 104.321 30.7922 104.881 30.7922H107.761V33.9122H103.561Z" fill="#101828"/>
<path d="M116.222 34.3322C114.282 34.3322 112.692 33.9122 111.452 33.0722C110.212 32.2322 109.462 31.0322 109.202 29.4722L112.682 28.5722C112.822 29.2722 113.052 29.8222 113.372 30.2222C113.712 30.6222 114.122 30.9122 114.602 31.0922C115.102 31.2522 115.642 31.3322 116.222 31.3322C117.102 31.3322 117.752 31.1822 118.172 30.8822C118.592 30.5622 118.802 30.1722 118.802 29.7122C118.802 29.2522 118.602 28.9022 118.202 28.6622C117.802 28.4022 117.162 28.1922 116.282 28.0322L115.442 27.8822C114.402 27.6822 113.452 27.4122 112.592 27.0722C111.732 26.7122 111.042 26.2222 110.522 25.6022C110.002 24.9822 109.742 24.1822 109.742 23.2022C109.742 21.7222 110.282 20.5922 111.362 19.8122C112.442 19.0122 113.862 18.6122 115.622 18.6122C117.282 18.6122 118.662 18.9822 119.762 19.7222C120.862 20.4622 121.582 21.4322 121.922 22.6322L118.412 23.7122C118.252 22.9522 117.922 22.4122 117.422 22.0922C116.942 21.7722 116.342 21.6122 115.622 21.6122C114.902 21.6122 114.352 21.7422 113.972 22.0022C113.592 22.2422 113.402 22.5822 113.402 23.0222C113.402 23.5022 113.602 23.8622 114.002 24.1022C114.402 24.3222 114.942 24.4922 115.622 24.6122L116.462 24.7622C117.582 24.9622 118.592 25.2322 119.492 25.5722C120.412 25.8922 121.132 26.3622 121.652 26.9822C122.192 27.5822 122.462 28.4022 122.462 29.4422C122.462 31.0022 121.892 32.2122 120.752 33.0722C119.632 33.9122 118.122 34.3322 116.222 34.3322Z" fill="#101828"/>
<path d="M124.275 33.9122V12.9122H128.055V20.8622H128.595C128.755 20.5422 129.005 20.2222 129.345 19.9022C129.685 19.5822 130.135 19.3222 130.695 19.1222C131.275 18.9022 132.005 18.7922 132.885 18.7922C134.045 18.7922 135.055 19.0622 135.915 19.6022C136.795 20.1222 137.475 20.8522 137.955 21.7922C138.435 22.7122 138.675 23.7922 138.675 25.0322V33.9122H134.895V25.3322C134.895 24.2122 134.615 23.3722 134.055 22.8122C133.515 22.2522 132.735 21.9722 131.715 21.9722C130.555 21.9722 129.655 22.3622 129.015 23.1422C128.375 23.9022 128.055 24.9722 128.055 26.3522V33.9122H124.275Z" fill="#101828"/>
<path d="M141.261 33.9122V19.0322H145.041V33.9122H141.261ZM143.151 17.2922C142.471 17.2922 141.891 17.0722 141.411 16.6322C140.951 16.1922 140.721 15.6122 140.721 14.8922C140.721 14.1722 140.951 13.5922 141.411 13.1522C141.891 12.7122 142.471 12.4922 143.151 12.4922C143.851 12.4922 144.431 12.7122 144.891 13.1522C145.351 13.5922 145.581 14.1722 145.581 14.8922C145.581 15.6122 145.351 16.1922 144.891 16.6322C144.431 17.0722 143.851 17.2922 143.151 17.2922Z" fill="#101828"/>
<path d="M150.19 33.9122V22.1522H146.41V19.0322H150.19V16.2722C150.19 15.2522 150.49 14.4422 151.09 13.8422C151.71 13.2222 152.51 12.9122 153.49 12.9122H157.39V16.0322H154.81C154.25 16.0322 153.97 16.3322 153.97 16.9322V19.0322H157.87V22.1522H153.97V33.9122H150.19Z" fill="#101828"/>
<path d="M164.703 33.9122C163.723 33.9122 162.923 33.6122 162.303 33.0122C161.703 32.3922 161.403 31.5722 161.403 30.5522V22.1522H157.683V19.0322H161.403V14.4122H165.183V19.0322H169.263V22.1522H165.183V29.8922C165.183 30.4922 165.463 30.7922 166.023 30.7922H168.903V33.9122H164.703Z" fill="#101828"/>
</svg>
