<svg width="800" height="99" viewBox="0 0 800 99" fill="none" xmlns="http://www.w3.org/2000/svg">
<g clip-path="url(#clip0_2191_238066)">
<rect width="800" height="99" rx="8" fill="#282021"/>
<path d="M496.967 226.852H330.848L240.473 47H578.768L496.967 226.852Z" fill="url(#paint0_linear_2191_238066)"/>
<path d="M542.897 -556.379L542.897 -516.684M542.897 -556.379C542.897 -559.484 545.721 -562 549.203 -562L593.741 -562C597.224 -562 600.047 -559.484 600.047 -556.379L600.047 -516.684C600.047 -513.58 597.224 -511.064 593.741 -511.064M542.897 -556.379C542.897 -559.484 540.074 -562 536.591 -562L492.054 -562C488.571 -562 485.747 -559.484 485.747 -556.379M549.203 -511.064L593.741 -511.064M549.203 -511.064C545.721 -511.064 542.897 -513.58 542.897 -516.684M549.203 -511.064C545.721 -511.064 542.897 -508.547 542.897 -505.443M542.897 -516.684C542.897 -513.58 540.074 -511.064 536.591 -511.064M593.741 -511.064C597.224 -511.064 600.047 -508.547 600.047 -505.443L600.047 -465.748C600.047 -462.644 597.224 -460.127 593.741 -460.127M542.897 -505.443L542.897 -465.748M542.897 -505.443C542.897 -508.547 540.074 -511.064 536.591 -511.064M549.203 -460.127L593.741 -460.127M549.203 -460.127C545.721 -460.127 542.897 -462.644 542.897 -465.748M549.203 -460.127C545.721 -460.127 542.897 -457.611 542.897 -454.507M542.897 -465.748C542.897 -462.644 540.074 -460.127 536.591 -460.127M593.741 -460.127C597.224 -460.127 600.047 -457.611 600.047 -454.507L600.047 -414.811C600.047 -411.707 597.223 -409.191 593.741 -409.191M542.897 -454.507L542.897 -414.811M542.897 -454.507C542.897 -457.611 540.074 -460.127 536.591 -460.127M549.203 -409.191L593.741 -409.191M549.203 -409.191C545.721 -409.191 542.897 -411.707 542.897 -414.811M549.203 -409.191C545.721 -409.191 542.897 -406.674 542.897 -403.57M542.897 -414.811C542.897 -411.707 540.074 -409.191 536.591 -409.191M593.741 -409.191C597.223 -409.191 600.047 -406.674 600.047 -403.57L600.047 -363.875C600.047 -360.771 597.223 -358.254 593.741 -358.254M542.897 -403.57L542.897 -363.875M542.897 -403.57C542.897 -406.674 540.074 -409.191 536.591 -409.191M549.203 -358.254L593.741 -358.254M549.203 -358.254C545.721 -358.254 542.897 -360.771 542.897 -363.875M549.203 -358.254C545.721 -358.254 542.897 -355.738 542.897 -352.634M542.897 -363.875C542.897 -360.771 540.074 -358.254 536.591 -358.254M593.741 -358.254C597.223 -358.254 600.047 -355.738 600.047 -352.634L600.047 -312.939C600.047 -309.834 597.223 -307.318 593.741 -307.318M542.897 -352.634L542.897 -312.939M542.897 -352.634C542.897 -355.738 540.074 -358.254 536.591 -358.254M549.203 -307.318L593.741 -307.318M549.203 -307.318C545.721 -307.318 542.897 -309.834 542.897 -312.939M549.203 -307.318C545.721 -307.318 542.897 -304.802 542.897 -301.697M542.897 -312.939C542.897 -309.834 540.074 -307.318 536.591 -307.318M593.741 -307.318C597.223 -307.318 600.047 -304.802 600.047 -301.697L600.047 -262.002C600.047 -258.898 597.223 -256.382 593.741 -256.382M542.897 -301.697L542.897 -262.002M542.897 -301.697C542.897 -304.802 540.074 -307.318 536.591 -307.318M549.203 -256.382L593.741 -256.382M549.203 -256.382C545.721 -256.382 542.897 -258.898 542.897 -262.002M549.203 -256.382C545.721 -256.382 542.897 -253.865 542.897 -250.761M542.897 -262.002C542.897 -258.898 540.074 -256.382 536.591 -256.382M593.741 -256.382C597.223 -256.382 600.047 -253.865 600.047 -250.761L600.047 -211.066C600.047 -207.962 597.223 -205.445 593.741 -205.445M542.897 54.8575L542.897 94.5527M542.897 54.8575C542.897 51.7533 545.721 49.2369 549.203 49.2369M542.897 54.8575C542.897 51.7533 540.074 49.2369 536.591 49.2369M549.203 49.2369L593.741 49.2369M549.203 49.2369C545.721 49.2369 542.897 46.7205 542.897 43.6164M549.203 100.173L593.741 100.173M549.203 100.173C545.721 100.173 542.897 97.6569 542.897 94.5527M549.203 100.173C545.721 100.173 542.897 102.69 542.897 105.794M542.897 94.5527C542.897 97.6569 540.074 100.173 536.591 100.173M593.741 100.173C597.223 100.173 600.047 97.6569 600.047 94.5527L600.047 54.8575C600.047 51.7533 597.223 49.2369 593.741 49.2369M593.741 100.173C597.223 100.173 600.047 102.69 600.047 105.794L600.047 145.489C600.047 148.593 597.223 151.11 593.741 151.11M593.741 49.2369C597.223 49.2369 600.047 46.7205 600.047 43.6164L600.047 3.92108C600.047 0.816927 597.223 -1.69946 593.741 -1.69946M542.897 105.794L542.897 145.489M542.897 105.794C542.897 102.69 540.074 100.173 536.591 100.173M549.203 151.11L593.741 151.11M549.203 151.11C545.721 151.11 542.897 148.593 542.897 145.489M549.203 151.11C545.721 151.11 542.897 153.626 542.897 156.73M542.897 145.489C542.897 148.593 540.074 151.11 536.591 151.11M593.741 151.11C597.223 151.11 600.047 153.626 600.047 156.73L600.047 196.426C600.047 199.53 597.223 202.046 593.741 202.046M542.897 156.73L542.897 196.426M542.897 156.73C542.897 153.626 540.074 151.11 536.591 151.11M549.203 202.046L593.741 202.046M549.203 202.046C545.721 202.046 542.897 199.53 542.897 196.426M549.203 202.046C545.721 202.046 542.897 204.563 542.897 207.667M542.897 196.426C542.897 199.53 540.074 202.046 536.591 202.046M593.741 202.046C597.223 202.046 600.047 204.563 600.047 207.667L600.047 247.362C600.047 250.466 597.223 252.983 593.741 252.983M542.897 207.667L542.897 247.362M542.897 207.667C542.897 204.563 540.074 202.046 536.591 202.046M549.203 252.983L593.741 252.983M549.203 252.983C545.721 252.983 542.897 250.466 542.897 247.362M549.203 252.983C545.721 252.983 542.897 255.499 542.897 258.603M542.897 247.362C542.897 250.466 540.074 252.983 536.591 252.983M593.741 252.983C597.223 252.983 600.047 255.499 600.047 258.603L600.047 298.298C600.047 301.403 597.223 303.919 593.741 303.919M542.897 258.603L542.897 298.298M542.897 258.603C542.897 255.499 540.074 252.983 536.591 252.983M549.203 303.919L593.741 303.919M549.203 303.919C545.721 303.919 542.897 301.403 542.897 298.298M549.203 303.919C545.721 303.919 542.897 306.435 542.897 309.54M542.897 298.298C542.897 301.403 540.074 303.919 536.591 303.919M593.741 303.919C597.223 303.919 600.047 306.435 600.047 309.54L600.047 349.235C600.047 352.339 597.223 354.855 593.741 354.855M542.897 309.54L542.897 349.235M542.897 309.54C542.897 306.435 540.074 303.919 536.591 303.919M549.203 354.855L593.741 354.855M549.203 354.855C545.721 354.855 542.897 352.339 542.897 349.235M549.203 354.855C545.721 354.855 542.897 357.372 542.897 360.476M542.897 349.235C542.897 352.339 540.074 354.855 536.591 354.855M593.741 354.855C597.223 354.855 600.047 357.372 600.047 360.476L600.047 400.171C600.047 403.275 597.223 405.792 593.741 405.792M542.897 -250.761L542.897 -211.066M542.897 -250.761C542.897 -253.865 540.074 -256.382 536.591 -256.382M549.203 -205.445L593.741 -205.445M549.203 -205.445C545.721 -205.445 542.897 -207.962 542.897 -211.066M549.203 -205.445C545.721 -205.445 542.897 -202.929 542.897 -199.825M542.897 -211.066C542.897 -207.962 540.074 -205.445 536.591 -205.445M593.741 -205.445C597.223 -205.445 600.047 -202.929 600.047 -199.825L600.047 -160.129C600.047 -157.025 597.223 -154.509 593.741 -154.509M542.897 -199.825L542.897 -160.129M542.897 -199.825C542.897 -202.929 540.074 -205.445 536.591 -205.445M549.203 -154.509L593.741 -154.509M549.203 -154.509C545.721 -154.509 542.897 -157.025 542.897 -160.129M549.203 -154.509C545.721 -154.509 542.897 -151.992 542.897 -148.888M542.897 -160.129C542.897 -157.025 540.074 -154.509 536.591 -154.509M593.741 -154.509C597.223 -154.509 600.047 -151.992 600.047 -148.888L600.047 -109.193C600.047 -106.089 597.223 -103.572 593.741 -103.572M542.897 -148.888L542.897 -109.193M542.897 -148.888C542.897 -151.992 540.074 -154.509 536.591 -154.509M549.203 -103.572L593.741 -103.572M549.203 -103.572C545.721 -103.572 542.897 -106.089 542.897 -109.193M549.203 -103.572C545.721 -103.572 542.897 -101.056 542.897 -97.9517M542.897 -109.193C542.897 -106.089 540.074 -103.572 536.591 -103.572M593.741 -103.572C597.223 -103.572 600.047 -101.056 600.047 -97.9518L600.047 -58.2565C600.047 -55.1523 597.223 -52.6359 593.741 -52.6359M542.897 -97.9517L542.897 -58.2565M542.897 -97.9517C542.897 -101.056 540.074 -103.572 536.591 -103.572M549.203 -52.6359L593.741 -52.6359M549.203 -52.6359C545.721 -52.6359 542.897 -55.1523 542.897 -58.2565M549.203 -52.6359C545.721 -52.6359 542.897 -50.1195 542.897 -47.0153M542.897 -58.2565C542.897 -55.1523 540.074 -52.6359 536.591 -52.6359M593.741 -52.6359C597.223 -52.6359 600.047 -50.1195 600.047 -47.0153L600.047 -7.32007C600.047 -4.21591 597.223 -1.69946 593.741 -1.69946M542.897 -47.0153L542.897 -7.32007M542.897 -47.0153C542.897 -50.1195 540.074 -52.6359 536.591 -52.6359M549.203 -1.69946L593.741 -1.69946M549.203 -1.69946C545.721 -1.69947 542.897 -4.21592 542.897 -7.32007M549.203 -1.69946C545.721 -1.69947 542.897 0.816985 542.897 3.92114M542.897 -7.32007C542.897 -4.21592 540.074 -1.69947 536.591 -1.69947M542.897 3.92114L542.897 43.6164M542.897 3.92114C542.897 0.816985 540.074 -1.69947 536.591 -1.69947M542.897 43.6164C542.897 46.7205 540.074 49.2369 536.591 49.2369M542.897 360.476L542.897 400.171M542.897 360.476C542.897 357.372 540.074 354.855 536.591 354.855M549.203 405.792L593.741 405.792M549.203 405.792C545.721 405.792 542.897 403.275 542.897 400.171M549.203 405.792C545.721 405.792 542.897 408.308 542.897 411.412M542.897 400.171C542.897 403.275 540.074 405.792 536.591 405.792M593.741 405.792C597.223 405.792 600.047 408.308 600.047 411.412L600.047 451.108C600.047 454.212 597.223 456.728 593.741 456.728M542.897 411.412L542.897 451.108M542.897 411.412C542.897 408.308 540.074 405.792 536.591 405.792M549.203 456.728L593.741 456.728M549.203 456.728C545.721 456.728 542.897 454.212 542.897 451.108M549.203 456.728C545.721 456.728 542.897 459.245 542.897 462.349M542.897 451.108C542.897 454.212 540.074 456.728 536.591 456.728M593.741 456.728C597.223 456.728 600.047 459.245 600.047 462.349L600.047 502.044C600.047 505.148 597.223 507.665 593.741 507.665M542.897 462.349L542.897 502.044M542.897 462.349C542.897 459.245 540.074 456.728 536.591 456.728M549.203 507.665L593.741 507.665M549.203 507.665C545.721 507.665 542.897 505.148 542.897 502.044M549.203 507.665C545.721 507.665 542.897 510.181 542.897 513.285M542.897 502.044C542.897 505.148 540.074 507.665 536.591 507.665M593.741 507.665C597.223 507.665 600.047 510.181 600.047 513.285L600.047 552.98C600.047 556.085 597.223 558.601 593.741 558.601M542.897 513.285L542.897 552.98M542.897 513.285C542.897 510.181 540.074 507.665 536.591 507.665M549.203 558.601L593.741 558.601M549.203 558.601C545.721 558.601 542.897 556.085 542.897 552.98M549.203 558.601C545.721 558.601 542.897 561.118 542.897 564.222M542.897 552.98C542.897 556.085 540.074 558.601 536.591 558.601M593.741 558.601C597.223 558.601 600.047 561.117 600.047 564.222L600.047 603.917C600.047 607.021 597.223 609.537 593.741 609.537M542.897 564.222L542.897 603.917M542.897 564.222C542.897 561.118 540.074 558.601 536.591 558.601M549.203 609.537L593.741 609.537M549.203 609.537C545.721 609.537 542.897 607.021 542.897 603.917M549.203 609.537C545.721 609.537 542.897 612.054 542.897 615.158M542.897 603.917C542.897 607.021 540.074 609.537 536.591 609.537M593.741 609.537C597.223 609.537 600.047 612.054 600.047 615.158L600.047 654.853C600.047 657.957 597.223 660.474 593.741 660.474L549.203 660.474C545.721 660.474 542.897 657.957 542.897 654.853M542.897 615.158L542.897 654.853M542.897 615.158C542.897 612.054 540.074 609.537 536.591 609.537M542.897 654.853C542.897 657.957 540.074 660.474 536.591 660.474L492.054 660.474C488.571 660.474 485.747 657.957 485.747 654.853M485.747 -556.379L485.747 -516.684M485.747 -556.379C485.747 -559.484 482.924 -562 479.441 -562L434.904 -562C431.421 -562 428.598 -559.484 428.598 -556.379M492.054 -511.064L536.591 -511.064M492.054 -511.064C488.571 -511.064 485.747 -513.58 485.747 -516.684M492.054 -511.064C488.571 -511.064 485.748 -508.547 485.748 -505.443M485.747 -516.684C485.747 -513.58 482.924 -511.064 479.441 -511.064M485.748 -505.443L485.748 -465.748M485.748 -505.443C485.748 -508.547 482.924 -511.064 479.441 -511.064M492.054 -460.127L536.591 -460.127M492.054 -460.127C488.571 -460.127 485.748 -462.644 485.748 -465.748M492.054 -460.127C488.571 -460.127 485.748 -457.611 485.748 -454.507M485.748 -465.748C485.748 -462.644 482.924 -460.127 479.441 -460.127M485.748 -454.507L485.748 -414.811M485.748 -454.507C485.748 -457.611 482.924 -460.127 479.441 -460.127M492.054 -409.191L536.591 -409.191M492.054 -409.191C488.571 -409.191 485.748 -411.707 485.748 -414.811M492.054 -409.191C488.571 -409.191 485.748 -406.674 485.748 -403.57M485.748 -414.811C485.748 -411.707 482.924 -409.191 479.441 -409.191M485.748 -403.57L485.748 -363.875M485.748 -403.57C485.748 -406.674 482.924 -409.191 479.441 -409.191M492.054 -358.254L536.591 -358.254M492.054 -358.254C488.571 -358.254 485.748 -360.771 485.748 -363.875M492.054 -358.254C488.571 -358.254 485.748 -355.738 485.748 -352.634M485.748 -363.875C485.748 -360.771 482.924 -358.254 479.441 -358.254M485.748 -352.634L485.748 -312.939M485.748 -352.634C485.748 -355.738 482.924 -358.254 479.441 -358.254M492.054 -307.318L536.591 -307.318M492.054 -307.318C488.571 -307.318 485.748 -309.834 485.748 -312.939M492.054 -307.318C488.571 -307.318 485.748 -304.802 485.748 -301.697M485.748 -312.939C485.748 -309.834 482.924 -307.318 479.441 -307.318M485.748 -301.697L485.748 -262.002M485.748 -301.697C485.748 -304.802 482.924 -307.318 479.441 -307.318M492.054 -256.382L536.591 -256.382M492.054 -256.382C488.571 -256.382 485.748 -258.898 485.748 -262.002M492.054 -256.382C488.571 -256.382 485.747 -253.865 485.747 -250.761M485.748 -262.002C485.748 -258.898 482.924 -256.382 479.441 -256.382M485.747 54.8575L485.747 94.5527M485.747 54.8575C485.747 51.7533 488.571 49.2369 492.054 49.2369M485.747 54.8575C485.747 51.7533 482.924 49.2369 479.441 49.2369M492.054 49.2369L536.591 49.2369M492.054 49.2369C488.571 49.2369 485.747 46.7205 485.747 43.6164M492.054 100.173L536.591 100.173M492.054 100.173C488.571 100.173 485.747 97.6569 485.747 94.5527M492.054 100.173C488.571 100.173 485.747 102.69 485.747 105.794M485.747 94.5527C485.747 97.6569 482.924 100.173 479.441 100.173M485.747 105.794L485.747 145.489M485.747 105.794C485.747 102.69 482.924 100.173 479.441 100.173M492.054 151.11L536.591 151.11M492.054 151.11C488.571 151.11 485.747 148.593 485.747 145.489M492.054 151.11C488.571 151.11 485.747 153.626 485.747 156.73M485.747 145.489C485.747 148.593 482.924 151.11 479.441 151.11M485.747 156.73L485.747 196.426M485.747 156.73C485.747 153.626 482.924 151.11 479.441 151.11M492.054 202.046L536.591 202.046M492.054 202.046C488.571 202.046 485.747 199.53 485.747 196.426M492.054 202.046C488.571 202.046 485.747 204.563 485.747 207.667M485.747 196.426C485.747 199.53 482.924 202.046 479.441 202.046M485.747 207.667L485.747 247.362M485.747 207.667C485.747 204.563 482.924 202.046 479.441 202.046M492.054 252.983L536.591 252.983M492.054 252.983C488.571 252.983 485.747 250.466 485.747 247.362M492.054 252.983C488.571 252.983 485.747 255.499 485.747 258.603M485.747 247.362C485.747 250.466 482.924 252.983 479.441 252.983M485.747 258.603L485.747 298.298M485.747 258.603C485.747 255.499 482.924 252.983 479.441 252.983M492.054 303.919L536.591 303.919M492.054 303.919C488.571 303.919 485.747 301.403 485.747 298.298M492.054 303.919C488.571 303.919 485.747 306.435 485.747 309.54M485.747 298.298C485.747 301.403 482.924 303.919 479.441 303.919M485.747 309.54L485.747 349.235M485.747 309.54C485.747 306.435 482.924 303.919 479.441 303.919M492.054 354.855L536.591 354.855M492.054 354.855C488.571 354.855 485.747 352.339 485.747 349.235M492.054 354.855C488.571 354.855 485.747 357.372 485.747 360.476M485.747 349.235C485.747 352.339 482.924 354.855 479.441 354.855M485.747 -250.761L485.747 -211.066M485.747 -250.761C485.747 -253.865 482.924 -256.382 479.441 -256.382M492.054 -205.445L536.591 -205.445M492.054 -205.445C488.571 -205.445 485.747 -207.962 485.747 -211.066M492.054 -205.445C488.571 -205.445 485.748 -202.929 485.748 -199.825M485.747 -211.066C485.747 -207.962 482.924 -205.445 479.441 -205.445M485.748 -199.825L485.748 -160.129M485.748 -199.825C485.748 -202.929 482.924 -205.445 479.441 -205.445M492.054 -154.509L536.591 -154.509M492.054 -154.509C488.571 -154.509 485.748 -157.025 485.748 -160.129M492.054 -154.509C488.571 -154.509 485.748 -151.992 485.748 -148.888M485.748 -160.129C485.748 -157.025 482.924 -154.509 479.441 -154.509M485.748 -148.888L485.748 -109.193M485.748 -148.888C485.748 -151.992 482.924 -154.509 479.441 -154.509M492.054 -103.572L536.591 -103.572M492.054 -103.572C488.571 -103.572 485.748 -106.089 485.748 -109.193M492.054 -103.572C488.571 -103.572 485.748 -101.056 485.748 -97.9517M485.748 -109.193C485.748 -106.089 482.924 -103.572 479.441 -103.572M485.748 -97.9517L485.747 -58.2565M485.748 -97.9517C485.748 -101.056 482.924 -103.572 479.441 -103.572M492.054 -52.6359L536.591 -52.6359M492.054 -52.6359C488.571 -52.6359 485.747 -55.1523 485.747 -58.2565M492.054 -52.6359C488.571 -52.6359 485.747 -50.1195 485.747 -47.0153M485.747 -58.2565C485.747 -55.1523 482.924 -52.6359 479.441 -52.6359M485.747 -47.0153L485.747 -7.32007M485.747 -47.0153C485.747 -50.1195 482.924 -52.6359 479.441 -52.6359M492.054 -1.69947L536.591 -1.69947M492.054 -1.69947C488.571 -1.69947 485.747 -4.21592 485.747 -7.32007M492.054 -1.69947C488.571 -1.69947 485.747 0.816983 485.747 3.92114M485.747 -7.32007C485.747 -4.21592 482.924 -1.69947 479.441 -1.69947M485.747 3.92114L485.747 43.6164M485.747 3.92114C485.747 0.816983 482.924 -1.69947 479.441 -1.69947M485.747 43.6164C485.747 46.7205 482.924 49.2369 479.441 49.2369M485.747 360.476L485.747 400.171M485.747 360.476C485.747 357.372 482.924 354.855 479.441 354.855M492.054 405.792L536.591 405.792M492.054 405.792C488.571 405.792 485.747 403.275 485.747 400.171M492.054 405.792C488.571 405.792 485.747 408.308 485.747 411.412M485.747 400.171C485.747 403.275 482.924 405.792 479.441 405.792M485.747 411.412L485.747 451.108M485.747 411.412C485.747 408.308 482.924 405.792 479.441 405.792M492.054 456.728L536.591 456.728M492.054 456.728C488.571 456.728 485.747 454.212 485.747 451.108M492.054 456.728C488.571 456.728 485.747 459.245 485.747 462.349M485.747 451.108C485.747 454.212 482.924 456.728 479.441 456.728M485.747 462.349L485.747 502.044M485.747 462.349C485.747 459.245 482.924 456.728 479.441 456.728M492.054 507.665L536.591 507.665M492.054 507.665C488.571 507.665 485.747 505.148 485.747 502.044M492.054 507.665C488.571 507.665 485.747 510.181 485.747 513.285M485.747 502.044C485.747 505.148 482.924 507.665 479.441 507.665M485.747 513.285L485.747 552.98M485.747 513.285C485.747 510.181 482.924 507.665 479.441 507.665M492.054 558.601L536.591 558.601M492.054 558.601C488.571 558.601 485.747 556.085 485.747 552.98M492.054 558.601C488.571 558.601 485.747 561.118 485.747 564.222M485.747 552.98C485.747 556.085 482.924 558.601 479.441 558.601M485.747 564.222L485.747 603.917M485.747 564.222C485.747 561.118 482.924 558.601 479.441 558.601M492.054 609.537L536.591 609.537M492.054 609.537C488.571 609.537 485.747 607.021 485.747 603.917M492.054 609.537C488.571 609.537 485.747 612.054 485.747 615.158M485.747 603.917C485.747 607.021 482.924 609.537 479.441 609.537M485.747 615.158L485.747 654.853M485.747 615.158C485.747 612.054 482.924 609.537 479.441 609.537M485.747 654.853C485.747 657.957 482.924 660.474 479.441 660.474L434.904 660.474C431.421 660.474 428.598 657.957 428.598 654.853M428.598 -556.379L428.598 -516.684M428.598 -556.379C428.598 -559.484 425.775 -562 422.292 -562L377.754 -562C374.272 -562 371.448 -559.484 371.448 -556.379M434.904 -511.064L479.441 -511.064M434.904 -511.064C431.421 -511.064 428.598 -513.58 428.598 -516.684M434.904 -511.064C431.421 -511.064 428.598 -508.547 428.598 -505.443M428.598 -516.684C428.598 -513.58 425.775 -511.064 422.292 -511.064M428.598 -505.443L428.598 -465.748M428.598 -505.443C428.598 -508.547 425.775 -511.064 422.292 -511.064M434.904 -460.127L479.441 -460.127M434.904 -460.127C431.421 -460.127 428.598 -462.644 428.598 -465.748M434.904 -460.127C431.421 -460.127 428.598 -457.611 428.598 -454.507M428.598 -465.748C428.598 -462.644 425.775 -460.127 422.292 -460.127M428.598 -454.507L428.598 -414.811M428.598 -454.507C428.598 -457.611 425.775 -460.127 422.292 -460.127M434.904 -409.191L479.441 -409.191M434.904 -409.191C431.421 -409.191 428.598 -411.707 428.598 -414.811M434.904 -409.191C431.421 -409.191 428.598 -406.674 428.598 -403.57M428.598 -414.811C428.598 -411.707 425.775 -409.191 422.292 -409.191M428.598 -403.57L428.598 -363.875M428.598 -403.57C428.598 -406.674 425.775 -409.191 422.292 -409.191M434.904 -358.254L479.441 -358.254M434.904 -358.254C431.421 -358.254 428.598 -360.771 428.598 -363.875M434.904 -358.254C431.421 -358.254 428.598 -355.738 428.598 -352.634M428.598 -363.875C428.598 -360.771 425.775 -358.254 422.292 -358.254M428.598 -352.634L428.598 -312.939M428.598 -352.634C428.598 -355.738 425.775 -358.254 422.292 -358.254M434.904 -307.318L479.441 -307.318M434.904 -307.318C431.421 -307.318 428.598 -309.834 428.598 -312.939M434.904 -307.318C431.421 -307.318 428.598 -304.802 428.598 -301.697M428.598 -312.939C428.598 -309.834 425.775 -307.318 422.292 -307.318M428.598 -301.697L428.598 -262.002M428.598 -301.697C428.598 -304.802 425.775 -307.318 422.292 -307.318M434.904 -256.382L479.441 -256.382M434.904 -256.382C431.421 -256.382 428.598 -258.898 428.598 -262.002M434.904 -256.382C431.421 -256.382 428.598 -253.865 428.598 -250.761M428.598 -262.002C428.598 -258.898 425.775 -256.382 422.292 -256.382M428.598 54.8575L428.598 94.5527M428.598 54.8575C428.598 51.7533 431.421 49.2369 434.904 49.2369M428.598 54.8575C428.598 51.7533 425.774 49.2369 422.292 49.2369M434.904 49.2369L479.441 49.2369M434.904 49.2369C431.421 49.2369 428.598 46.7205 428.598 43.6164M434.904 100.173L479.441 100.173M434.904 100.173C431.421 100.173 428.598 97.6569 428.598 94.5527M434.904 100.173C431.421 100.173 428.598 102.69 428.598 105.794M428.598 94.5527C428.598 97.6569 425.774 100.173 422.292 100.173M428.598 105.794L428.598 145.489M428.598 105.794C428.598 102.69 425.774 100.173 422.292 100.173M434.904 151.11L479.441 151.11M434.904 151.11C431.421 151.11 428.598 148.593 428.598 145.489M434.904 151.11C431.421 151.11 428.598 153.626 428.598 156.73M428.598 145.489C428.598 148.593 425.775 151.11 422.292 151.11M428.598 156.73L428.598 196.426M428.598 156.73C428.598 153.626 425.775 151.11 422.292 151.11M434.904 202.046L479.441 202.046M434.904 202.046C431.421 202.046 428.598 199.53 428.598 196.426M434.904 202.046C431.421 202.046 428.598 204.563 428.598 207.667M428.598 196.426C428.598 199.53 425.775 202.046 422.292 202.046M428.598 207.667L428.598 247.362M428.598 207.667C428.598 204.563 425.775 202.046 422.292 202.046M434.904 252.983L479.441 252.983M434.904 252.983C431.421 252.983 428.598 250.466 428.598 247.362M434.904 252.983C431.421 252.983 428.598 255.499 428.598 258.603M428.598 247.362C428.598 250.466 425.775 252.983 422.292 252.983M428.598 258.603L428.598 298.298M428.598 258.603C428.598 255.499 425.775 252.983 422.292 252.983M434.904 303.919L479.441 303.919M434.904 303.919C431.421 303.919 428.598 301.403 428.598 298.298M434.904 303.919C431.421 303.919 428.598 306.435 428.598 309.54M428.598 298.298C428.598 301.403 425.775 303.919 422.292 303.919M428.598 309.54L428.598 349.235M428.598 309.54C428.598 306.435 425.775 303.919 422.292 303.919M434.904 354.855L479.441 354.855M434.904 354.855C431.421 354.855 428.598 352.339 428.598 349.235M434.904 354.855C431.421 354.855 428.598 357.372 428.598 360.476M428.598 349.235C428.598 352.339 425.775 354.855 422.292 354.855M428.598 -250.761L428.598 -211.066M428.598 -250.761C428.598 -253.865 425.775 -256.382 422.292 -256.382M434.904 -205.445L479.441 -205.445M434.904 -205.445C431.421 -205.445 428.598 -207.962 428.598 -211.066M434.904 -205.445C431.421 -205.445 428.598 -202.929 428.598 -199.825M428.598 -211.066C428.598 -207.962 425.775 -205.445 422.292 -205.445M428.598 -199.825L428.598 -160.129M428.598 -199.825C428.598 -202.929 425.775 -205.445 422.292 -205.445M434.904 -154.509L479.441 -154.509M434.904 -154.509C431.421 -154.509 428.598 -157.025 428.598 -160.129M434.904 -154.509C431.421 -154.509 428.598 -151.992 428.598 -148.888M428.598 -160.129C428.598 -157.025 425.775 -154.509 422.292 -154.509M428.598 -148.888L428.598 -109.193M428.598 -148.888C428.598 -151.992 425.775 -154.509 422.292 -154.509M434.904 -103.572L479.441 -103.572M434.904 -103.572C431.421 -103.572 428.598 -106.089 428.598 -109.193M434.904 -103.572C431.421 -103.572 428.598 -101.056 428.598 -97.9517M428.598 -109.193C428.598 -106.089 425.775 -103.572 422.292 -103.572M428.598 -97.9517L428.598 -58.2565M428.598 -97.9517C428.598 -101.056 425.775 -103.572 422.292 -103.572M434.904 -52.6359L479.441 -52.6359M434.904 -52.6359C431.421 -52.6359 428.598 -55.1523 428.598 -58.2565M434.904 -52.6359C431.421 -52.6359 428.598 -50.1195 428.598 -47.0153M428.598 -58.2565C428.598 -55.1523 425.775 -52.6359 422.292 -52.6359M428.598 -47.0153L428.598 -7.32008M428.598 -47.0153C428.598 -50.1195 425.775 -52.6359 422.292 -52.6359M434.904 -1.69947L479.441 -1.69947M434.904 -1.69947C431.421 -1.69947 428.598 -4.21592 428.598 -7.32008M434.904 -1.69947C431.421 -1.69947 428.598 0.816981 428.598 3.92114M428.598 -7.32008C428.598 -4.21592 425.775 -1.69947 422.292 -1.69947M428.598 3.92114L428.598 43.6164M428.598 3.92114C428.598 0.816981 425.775 -1.69947 422.292 -1.69947M428.598 43.6164C428.598 46.7205 425.774 49.2369 422.292 49.2369M428.598 360.476L428.598 400.171M428.598 360.476C428.598 357.372 425.775 354.855 422.292 354.855M434.904 405.792L479.441 405.792M434.904 405.792C431.421 405.792 428.598 403.275 428.598 400.171M434.904 405.792C431.421 405.792 428.598 408.308 428.598 411.412M428.598 400.171C428.598 403.275 425.774 405.792 422.292 405.792M428.598 411.412L428.598 451.108M428.598 411.412C428.598 408.308 425.774 405.792 422.292 405.792M434.904 456.728L479.441 456.728M434.904 456.728C431.421 456.728 428.598 454.212 428.598 451.108M434.904 456.728C431.421 456.728 428.598 459.245 428.598 462.349M428.598 451.108C428.598 454.212 425.775 456.728 422.292 456.728M428.598 462.349L428.598 502.044M428.598 462.349C428.598 459.245 425.775 456.728 422.292 456.728M434.904 507.665L479.441 507.665M434.904 507.665C431.421 507.665 428.598 505.148 428.598 502.044M434.904 507.665C431.421 507.665 428.598 510.181 428.598 513.285M428.598 502.044C428.598 505.148 425.775 507.665 422.292 507.665M428.598 513.285L428.598 552.98M428.598 513.285C428.598 510.181 425.775 507.665 422.292 507.665M434.904 558.601L479.441 558.601M434.904 558.601C431.421 558.601 428.598 556.085 428.598 552.98M434.904 558.601C431.421 558.601 428.598 561.118 428.598 564.222M428.598 552.98C428.598 556.085 425.775 558.601 422.292 558.601M428.598 564.222L428.598 603.917M428.598 564.222C428.598 561.118 425.775 558.601 422.292 558.601M434.904 609.537L479.441 609.537M434.904 609.537C431.421 609.537 428.598 607.021 428.598 603.917M434.904 609.537C431.421 609.537 428.598 612.054 428.598 615.158M428.598 603.917C428.598 607.021 425.775 609.537 422.292 609.537M428.598 615.158L428.598 654.853M428.598 615.158C428.598 612.054 425.775 609.537 422.292 609.537M428.598 654.853C428.598 657.957 425.775 660.474 422.292 660.474L377.754 660.474C374.272 660.474 371.448 657.957 371.448 654.853M371.448 -556.379L371.448 -516.684M371.448 -556.379C371.448 -559.484 368.625 -562 365.142 -562L320.605 -562C317.122 -562 314.298 -559.484 314.298 -556.379M377.754 -511.064L422.292 -511.064M377.754 -511.064C374.272 -511.064 371.448 -513.58 371.448 -516.684M377.754 -511.064C374.272 -511.064 371.448 -508.547 371.448 -505.443M371.448 -516.684C371.448 -513.58 368.625 -511.064 365.142 -511.064M371.448 -505.443L371.448 -465.748M371.448 -505.443C371.448 -508.547 368.625 -511.064 365.142 -511.064M377.754 -460.127L422.292 -460.127M377.754 -460.127C374.272 -460.127 371.448 -462.644 371.448 -465.748M377.754 -460.127C374.272 -460.127 371.448 -457.611 371.448 -454.507M371.448 -465.748C371.448 -462.644 368.625 -460.127 365.142 -460.127M371.448 -454.507L371.448 -414.811M371.448 -454.507C371.448 -457.611 368.625 -460.127 365.142 -460.127M377.754 -409.191L422.292 -409.191M377.754 -409.191C374.272 -409.191 371.448 -411.707 371.448 -414.811M377.754 -409.191C374.272 -409.191 371.448 -406.674 371.448 -403.57M371.448 -414.811C371.448 -411.707 368.625 -409.191 365.142 -409.191M371.448 -403.57L371.448 -363.875M371.448 -403.57C371.448 -406.674 368.625 -409.191 365.142 -409.191M377.754 -358.254L422.292 -358.254M377.754 -358.254C374.272 -358.254 371.448 -360.771 371.448 -363.875M377.754 -358.254C374.272 -358.254 371.448 -355.738 371.448 -352.634M371.448 -363.875C371.448 -360.771 368.625 -358.254 365.142 -358.254M371.448 -352.634L371.448 -312.939M371.448 -352.634C371.448 -355.738 368.625 -358.254 365.142 -358.254M377.754 -307.318L422.292 -307.318M377.754 -307.318C374.272 -307.318 371.448 -309.834 371.448 -312.939M377.754 -307.318C374.272 -307.318 371.448 -304.802 371.448 -301.697M371.448 -312.939C371.448 -309.834 368.625 -307.318 365.142 -307.318M371.448 -301.697L371.448 -262.002M371.448 -301.697C371.448 -304.802 368.625 -307.318 365.142 -307.318M377.754 -256.382L422.292 -256.382M377.754 -256.382C374.272 -256.382 371.448 -258.898 371.448 -262.002M377.754 -256.382C374.272 -256.382 371.448 -253.865 371.448 -250.761M371.448 -262.002C371.448 -258.898 368.625 -256.382 365.142 -256.382M371.448 54.8575L371.448 94.5527M371.448 54.8575C371.448 51.7533 374.272 49.2369 377.754 49.2369M371.448 54.8575C371.448 51.7533 368.625 49.2369 365.142 49.2369M377.754 49.2369L422.292 49.2369M377.754 49.2369C374.272 49.2369 371.448 46.7205 371.448 43.6164M377.754 100.173L422.292 100.173M377.754 100.173C374.272 100.173 371.448 97.6569 371.448 94.5527M377.754 100.173C374.272 100.173 371.448 102.69 371.448 105.794M371.448 94.5527C371.448 97.6569 368.625 100.173 365.142 100.173M371.448 105.794L371.448 145.489M371.448 105.794C371.448 102.69 368.625 100.173 365.142 100.173M377.754 151.11L422.292 151.11M377.754 151.11C374.272 151.11 371.448 148.593 371.448 145.489M377.754 151.11C374.272 151.11 371.448 153.626 371.448 156.73M371.448 145.489C371.448 148.593 368.625 151.11 365.142 151.11M371.448 156.73L371.448 196.426M371.448 156.73C371.448 153.626 368.625 151.11 365.142 151.11M377.754 202.046L422.292 202.046M377.754 202.046C374.272 202.046 371.448 199.53 371.448 196.426M377.754 202.046C374.272 202.046 371.448 204.563 371.448 207.667M371.448 196.426C371.448 199.53 368.625 202.046 365.142 202.046M371.448 207.667L371.448 247.362M371.448 207.667C371.448 204.563 368.625 202.046 365.142 202.046M377.754 252.983L422.292 252.983M377.754 252.983C374.272 252.983 371.448 250.466 371.448 247.362M377.754 252.983C374.272 252.983 371.448 255.499 371.448 258.603M371.448 247.362C371.448 250.466 368.625 252.983 365.142 252.983M371.448 258.603L371.448 298.298M371.448 258.603C371.448 255.499 368.625 252.983 365.142 252.983M377.754 303.919L422.292 303.919M377.754 303.919C374.272 303.919 371.448 301.403 371.448 298.298M377.754 303.919C374.272 303.919 371.448 306.435 371.448 309.54M371.448 298.298C371.448 301.403 368.625 303.919 365.142 303.919M371.448 309.54L371.448 349.235M371.448 309.54C371.448 306.435 368.625 303.919 365.142 303.919M377.754 354.855L422.292 354.855M377.754 354.855C374.272 354.855 371.448 352.339 371.448 349.235M377.754 354.855C374.272 354.855 371.448 357.372 371.448 360.476M371.448 349.235C371.448 352.339 368.625 354.855 365.142 354.855M371.448 -250.761L371.448 -211.066M371.448 -250.761C371.448 -253.865 368.625 -256.382 365.142 -256.382M377.754 -205.445L422.292 -205.445M377.754 -205.445C374.272 -205.445 371.448 -207.962 371.448 -211.066M377.754 -205.445C374.272 -205.445 371.448 -202.929 371.448 -199.825M371.448 -211.066C371.448 -207.962 368.625 -205.445 365.142 -205.445M371.448 -199.825L371.448 -160.129M371.448 -199.825C371.448 -202.929 368.625 -205.445 365.142 -205.445M377.754 -154.509L422.292 -154.509M377.754 -154.509C374.272 -154.509 371.448 -157.025 371.448 -160.129M377.754 -154.509C374.272 -154.509 371.448 -151.992 371.448 -148.888M371.448 -160.129C371.448 -157.025 368.625 -154.509 365.142 -154.509M371.448 -148.888L371.448 -109.193M371.448 -148.888C371.448 -151.992 368.625 -154.509 365.142 -154.509M377.754 -103.572L422.292 -103.572M377.754 -103.572C374.272 -103.572 371.448 -106.089 371.448 -109.193M377.754 -103.572C374.272 -103.572 371.448 -101.056 371.448 -97.9517M371.448 -109.193C371.448 -106.089 368.625 -103.572 365.142 -103.572M371.448 -97.9517L371.448 -58.2565M371.448 -97.9517C371.448 -101.056 368.625 -103.572 365.142 -103.572M377.754 -52.6359L422.292 -52.6359M377.754 -52.6359C374.272 -52.6359 371.448 -55.1523 371.448 -58.2565M377.754 -52.6359C374.272 -52.6359 371.448 -50.1195 371.448 -47.0153M371.448 -58.2565C371.448 -55.1523 368.625 -52.6359 365.142 -52.6359M371.448 -47.0153L371.448 -7.32008M371.448 -47.0153C371.448 -50.1195 368.625 -52.6359 365.142 -52.6359M377.754 -1.69947L422.292 -1.69947M377.754 -1.69947C374.272 -1.69947 371.448 -4.21592 371.448 -7.32008M377.754 -1.69947C374.272 -1.69947 371.448 0.816978 371.448 3.92113M371.448 -7.32008C371.448 -4.21592 368.625 -1.69947 365.142 -1.69947M371.448 3.92113L371.448 43.6164M371.448 3.92113C371.448 0.816978 368.625 -1.69947 365.142 -1.69947M371.448 43.6164C371.448 46.7205 368.625 49.2369 365.142 49.2369M371.448 360.476L371.448 400.171M371.448 360.476C371.448 357.372 368.625 354.855 365.142 354.855M377.754 405.792L422.292 405.792M377.754 405.792C374.272 405.792 371.448 403.275 371.448 400.171M377.754 405.792C374.272 405.792 371.448 408.308 371.448 411.412M371.448 400.171C371.448 403.275 368.625 405.792 365.142 405.792M371.448 411.412L371.448 451.108M371.448 411.412C371.448 408.308 368.625 405.792 365.142 405.792M377.754 456.728L422.292 456.728M377.754 456.728C374.272 456.728 371.448 454.212 371.448 451.108M377.754 456.728C374.272 456.728 371.448 459.245 371.448 462.349M371.448 451.108C371.448 454.212 368.625 456.728 365.142 456.728M371.448 462.349L371.448 502.044M371.448 462.349C371.448 459.245 368.625 456.728 365.142 456.728M377.754 507.665L422.292 507.665M377.754 507.665C374.272 507.665 371.448 505.148 371.448 502.044M377.754 507.665C374.272 507.665 371.448 510.181 371.448 513.285M371.448 502.044C371.448 505.148 368.625 507.665 365.142 507.665M371.448 513.285L371.448 552.98M371.448 513.285C371.448 510.181 368.625 507.665 365.142 507.665M377.754 558.601L422.292 558.601M377.754 558.601C374.272 558.601 371.448 556.085 371.448 552.98M377.754 558.601C374.272 558.601 371.448 561.118 371.448 564.222M371.448 552.98C371.448 556.085 368.625 558.601 365.142 558.601M371.448 564.222L371.448 603.917M371.448 564.222C371.448 561.118 368.625 558.601 365.142 558.601M377.754 609.537L422.292 609.537M377.754 609.537C374.272 609.537 371.448 607.021 371.448 603.917M377.754 609.537C374.272 609.537 371.448 612.054 371.448 615.158M371.448 603.917C371.448 607.021 368.625 609.537 365.142 609.537M371.448 615.158L371.448 654.853M371.448 615.158C371.448 612.054 368.625 609.537 365.142 609.537M371.448 654.853C371.448 657.957 368.625 660.474 365.142 660.474L320.605 660.474C317.122 660.474 314.298 657.957 314.298 654.853M314.298 -556.379L314.298 -516.684M314.298 -556.379C314.298 -559.484 311.475 -562 307.993 -562L263.455 -562C259.972 -562 257.149 -559.484 257.149 -556.379M320.605 -511.064L365.142 -511.064M320.605 -511.064C317.122 -511.064 314.298 -513.58 314.298 -516.684M320.605 -511.064C317.122 -511.064 314.298 -508.547 314.298 -505.443M314.298 -516.684C314.298 -513.58 311.475 -511.064 307.993 -511.064M314.298 -505.443L314.298 -465.748M314.298 -505.443C314.298 -508.547 311.475 -511.064 307.993 -511.064M320.605 -460.127L365.142 -460.127M320.605 -460.127C317.122 -460.127 314.298 -462.644 314.298 -465.748M320.605 -460.127C317.122 -460.127 314.298 -457.611 314.298 -454.507M314.298 -465.748C314.298 -462.644 311.475 -460.127 307.993 -460.127M314.298 -454.507L314.298 -414.811M314.298 -454.507C314.298 -457.611 311.475 -460.127 307.993 -460.127M320.605 -409.191L365.142 -409.191M320.605 -409.191C317.122 -409.191 314.298 -411.707 314.298 -414.811M320.605 -409.191C317.122 -409.191 314.298 -406.674 314.298 -403.57M314.298 -414.811C314.298 -411.707 311.475 -409.191 307.993 -409.191M314.298 -403.57L314.298 -363.875M314.298 -403.57C314.298 -406.674 311.475 -409.191 307.993 -409.191M320.605 -358.254L365.142 -358.254M320.605 -358.254C317.122 -358.254 314.298 -360.771 314.298 -363.875M320.605 -358.254C317.122 -358.254 314.298 -355.738 314.298 -352.634M314.298 -363.875C314.298 -360.771 311.475 -358.254 307.993 -358.254M314.298 -352.634L314.298 -312.939M314.298 -352.634C314.298 -355.738 311.475 -358.254 307.993 -358.254M320.605 -307.318L365.142 -307.318M320.605 -307.318C317.122 -307.318 314.298 -309.834 314.298 -312.939M320.605 -307.318C317.122 -307.318 314.298 -304.802 314.298 -301.697M314.298 -312.939C314.298 -309.834 311.475 -307.318 307.993 -307.318M314.298 -301.697L314.298 -262.002M314.298 -301.697C314.298 -304.802 311.475 -307.318 307.993 -307.318M320.605 -256.382L365.142 -256.382M320.605 -256.382C317.122 -256.382 314.298 -258.898 314.298 -262.002M320.605 -256.382C317.122 -256.382 314.298 -253.865 314.298 -250.761M314.298 -262.002C314.298 -258.898 311.475 -256.382 307.993 -256.382M314.298 54.8575L314.298 94.5527M314.298 54.8575C314.298 51.7533 317.122 49.2369 320.605 49.2369M314.298 54.8575C314.298 51.7533 311.475 49.2369 307.993 49.2369M320.605 49.2369L365.142 49.2369M320.605 49.2369C317.122 49.2369 314.298 46.7205 314.298 43.6164M320.605 100.173L365.142 100.173M320.605 100.173C317.122 100.173 314.298 97.6569 314.298 94.5527M320.605 100.173C317.122 100.173 314.298 102.69 314.298 105.794M314.298 94.5527C314.298 97.6569 311.475 100.173 307.993 100.173M314.298 105.794L314.298 145.489M314.298 105.794C314.298 102.69 311.475 100.173 307.993 100.173M320.605 151.11L365.142 151.11M320.605 151.11C317.122 151.11 314.298 148.593 314.298 145.489M320.605 151.11C317.122 151.11 314.298 153.626 314.298 156.73M314.298 145.489C314.298 148.593 311.475 151.11 307.993 151.11M314.298 156.73L314.298 196.426M314.298 156.73C314.298 153.626 311.475 151.11 307.993 151.11M320.605 202.046L365.142 202.046M320.605 202.046C317.122 202.046 314.298 199.53 314.298 196.426M320.605 202.046C317.122 202.046 314.298 204.563 314.298 207.667M314.298 196.426C314.298 199.53 311.475 202.046 307.993 202.046M314.298 207.667L314.298 247.362M314.298 207.667C314.298 204.563 311.475 202.046 307.993 202.046M320.605 252.983L365.142 252.983M320.605 252.983C317.122 252.983 314.298 250.466 314.298 247.362M320.605 252.983C317.122 252.983 314.298 255.499 314.298 258.603M314.298 247.362C314.298 250.466 311.475 252.983 307.992 252.983M314.298 258.603L314.298 298.298M314.298 258.603C314.298 255.499 311.475 252.983 307.992 252.983M320.605 303.919L365.142 303.919M320.605 303.919C317.122 303.919 314.298 301.403 314.298 298.298M320.605 303.919C317.122 303.919 314.298 306.435 314.298 309.54M314.298 298.298C314.298 301.403 311.475 303.919 307.992 303.919M314.298 309.54L314.298 349.235M314.298 309.54C314.298 306.435 311.475 303.919 307.992 303.919M320.605 354.855L365.142 354.855M320.605 354.855C317.122 354.855 314.298 352.339 314.298 349.235M320.605 354.855C317.122 354.855 314.298 357.372 314.298 360.476M314.298 349.235C314.298 352.339 311.475 354.855 307.992 354.855M314.298 -250.761L314.298 -211.066M314.298 -250.761C314.298 -253.865 311.475 -256.382 307.993 -256.382M320.605 -205.445L365.142 -205.445M320.605 -205.445C317.122 -205.445 314.298 -207.962 314.298 -211.066M320.605 -205.445C317.122 -205.445 314.298 -202.929 314.298 -199.825M314.298 -211.066C314.298 -207.962 311.475 -205.445 307.993 -205.445M314.298 -199.825L314.298 -160.129M314.298 -199.825C314.298 -202.929 311.475 -205.445 307.993 -205.445M320.605 -154.509L365.142 -154.509M320.605 -154.509C317.122 -154.509 314.298 -157.025 314.298 -160.129M320.605 -154.509C317.122 -154.509 314.298 -151.992 314.298 -148.888M314.298 -160.129C314.298 -157.025 311.475 -154.509 307.993 -154.509M314.298 -148.888L314.298 -109.193M314.298 -148.888C314.298 -151.992 311.475 -154.509 307.993 -154.509M320.605 -103.572L365.142 -103.572M320.605 -103.572C317.122 -103.572 314.298 -106.089 314.298 -109.193M320.605 -103.572C317.122 -103.572 314.298 -101.056 314.298 -97.9517M314.298 -109.193C314.298 -106.089 311.475 -103.572 307.993 -103.572M314.298 -97.9517L314.298 -58.2565M314.298 -97.9517C314.298 -101.056 311.475 -103.572 307.993 -103.572M320.605 -52.6359L365.142 -52.6359M320.605 -52.6359C317.122 -52.6359 314.298 -55.1523 314.298 -58.2565M320.605 -52.6359C317.122 -52.6359 314.298 -50.1195 314.298 -47.0153M314.298 -58.2565C314.298 -55.1523 311.475 -52.6359 307.993 -52.6359M314.298 -47.0153L314.298 -7.32008M314.298 -47.0153C314.298 -50.1195 311.475 -52.6359 307.993 -52.6359M320.605 -1.69947L365.142 -1.69947M320.605 -1.69947C317.122 -1.69947 314.298 -4.21593 314.298 -7.32008M320.605 -1.69947C317.122 -1.69947 314.298 0.816976 314.298 3.92113M314.298 -7.32008C314.298 -4.21593 311.475 -1.69947 307.993 -1.69947M314.298 3.92113L314.298 43.6164M314.298 3.92113C314.298 0.816976 311.475 -1.69947 307.993 -1.69947M314.298 43.6164C314.298 46.7205 311.475 49.2369 307.993 49.2369M314.298 360.476L314.298 400.171M314.298 360.476C314.298 357.372 311.475 354.855 307.992 354.855M320.605 405.792L365.142 405.792M320.605 405.792C317.122 405.792 314.298 403.275 314.298 400.171M320.605 405.792C317.122 405.792 314.298 408.308 314.298 411.412M314.298 400.171C314.298 403.275 311.475 405.792 307.992 405.792M314.298 411.412L314.298 451.108M314.298 411.412C314.298 408.308 311.475 405.792 307.992 405.792M320.605 456.728L365.142 456.728M320.605 456.728C317.122 456.728 314.298 454.212 314.298 451.108M320.605 456.728C317.122 456.728 314.298 459.245 314.298 462.349M314.298 451.108C314.298 454.212 311.475 456.728 307.992 456.728M314.298 462.349L314.298 502.044M314.298 462.349C314.298 459.245 311.475 456.728 307.992 456.728M320.605 507.665L365.142 507.665M320.605 507.665C317.122 507.665 314.298 505.148 314.298 502.044M320.605 507.665C317.122 507.665 314.298 510.181 314.298 513.285M314.298 502.044C314.298 505.148 311.475 507.665 307.992 507.665M314.298 513.285L314.298 552.98M314.298 513.285C314.298 510.181 311.475 507.665 307.992 507.665M320.605 558.601L365.142 558.601M320.605 558.601C317.122 558.601 314.298 556.085 314.298 552.98M320.605 558.601C317.122 558.601 314.298 561.118 314.298 564.222M314.298 552.98C314.298 556.085 311.475 558.601 307.992 558.601M314.298 564.222L314.298 603.917M314.298 564.222C314.298 561.118 311.475 558.601 307.992 558.601M320.605 609.537L365.142 609.537M320.605 609.537C317.122 609.537 314.298 607.021 314.298 603.917M320.605 609.537C317.122 609.537 314.298 612.054 314.298 615.158M314.298 603.917C314.298 607.021 311.475 609.537 307.992 609.537M314.298 615.158L314.298 654.853M314.298 615.158C314.298 612.054 311.475 609.537 307.992 609.537M314.298 654.853C314.298 657.957 311.475 660.474 307.992 660.474L263.455 660.474C259.972 660.474 257.149 657.957 257.149 654.853M257.149 -556.379L257.149 -516.684M257.149 -556.379C257.149 -559.484 254.326 -562 250.843 -562L206.305 -562C202.823 -562 199.999 -559.484 199.999 -556.379L199.999 -516.684C199.999 -513.58 202.823 -511.064 206.305 -511.064M263.455 -511.064L307.993 -511.064M263.455 -511.064C259.972 -511.064 257.149 -513.58 257.149 -516.684M263.455 -511.064C259.972 -511.064 257.149 -508.547 257.149 -505.443M257.149 -516.684C257.149 -513.58 254.326 -511.064 250.843 -511.064M257.149 -505.443L257.149 -465.748M257.149 -505.443C257.149 -508.547 254.326 -511.064 250.843 -511.064M263.455 -460.127L307.993 -460.127M263.455 -460.127C259.972 -460.127 257.149 -462.644 257.149 -465.748M263.455 -460.127C259.972 -460.127 257.149 -457.611 257.149 -454.507M257.149 -465.748C257.149 -462.644 254.325 -460.127 250.843 -460.127M257.149 -454.507L257.149 -414.811M257.149 -454.507C257.149 -457.611 254.325 -460.127 250.843 -460.127M263.455 -409.191L307.993 -409.191M263.455 -409.191C259.972 -409.191 257.149 -411.707 257.149 -414.811M263.455 -409.191C259.972 -409.191 257.149 -406.674 257.149 -403.57M257.149 -414.811C257.149 -411.707 254.325 -409.191 250.843 -409.191M257.149 -403.57L257.149 -363.875M257.149 -403.57C257.149 -406.674 254.325 -409.191 250.843 -409.191M263.455 -358.254L307.993 -358.254M263.455 -358.254C259.972 -358.254 257.149 -360.771 257.149 -363.875M263.455 -358.254C259.972 -358.254 257.149 -355.738 257.149 -352.634M257.149 -363.875C257.149 -360.771 254.325 -358.254 250.843 -358.254M257.149 -352.634L257.149 -312.939M257.149 -352.634C257.149 -355.738 254.325 -358.254 250.843 -358.254M263.455 -307.318L307.993 -307.318M263.455 -307.318C259.972 -307.318 257.149 -309.834 257.149 -312.939M263.455 -307.318C259.972 -307.318 257.149 -304.802 257.149 -301.697M257.149 -312.939C257.149 -309.834 254.325 -307.318 250.843 -307.318M257.149 -301.697L257.149 -262.002M257.149 -301.697C257.149 -304.802 254.325 -307.318 250.843 -307.318M263.455 -256.382L307.993 -256.382M263.455 -256.382C259.972 -256.382 257.149 -258.898 257.149 -262.002M263.455 -256.382C259.972 -256.382 257.149 -253.865 257.149 -250.761M257.149 -262.002C257.149 -258.898 254.325 -256.382 250.843 -256.382M257.149 54.8575L257.149 94.5527M257.149 54.8575C257.149 51.7533 259.972 49.2369 263.455 49.2369M257.149 54.8575C257.149 51.7533 254.326 49.2369 250.843 49.2369M263.455 49.2369L307.993 49.2369M263.455 49.2369C259.972 49.2369 257.149 46.7205 257.149 43.6164M263.455 100.173L307.993 100.173M263.455 100.173C259.972 100.173 257.149 97.6569 257.149 94.5527M263.455 100.173C259.972 100.173 257.149 102.69 257.149 105.794M257.149 94.5527C257.149 97.6569 254.326 100.173 250.843 100.173M257.149 105.794L257.149 145.489M257.149 105.794C257.149 102.69 254.326 100.173 250.843 100.173M263.455 151.11L307.993 151.11M263.455 151.11C259.972 151.11 257.149 148.593 257.149 145.489M263.455 151.11C259.972 151.11 257.149 153.626 257.149 156.73M257.149 145.489C257.149 148.593 254.325 151.11 250.843 151.11M257.149 156.73L257.149 196.426M257.149 156.73C257.149 153.626 254.325 151.11 250.843 151.11M263.455 202.046L307.993 202.046M263.455 202.046C259.972 202.046 257.149 199.53 257.149 196.426M263.455 202.046C259.972 202.046 257.149 204.563 257.149 207.667M257.149 196.426C257.149 199.53 254.325 202.046 250.843 202.046M257.149 207.667L257.149 247.362M257.149 207.667C257.149 204.563 254.325 202.046 250.843 202.046M263.455 252.983L307.992 252.983M263.455 252.983C259.972 252.983 257.149 250.466 257.149 247.362M263.455 252.983C259.972 252.983 257.149 255.499 257.149 258.603M257.149 247.362C257.149 250.466 254.325 252.983 250.843 252.983M257.149 258.603L257.149 298.298M257.149 258.603C257.149 255.499 254.325 252.983 250.843 252.983M263.455 303.919L307.992 303.919M263.455 303.919C259.972 303.919 257.149 301.403 257.149 298.298M263.455 303.919C259.972 303.919 257.149 306.435 257.149 309.54M257.149 298.298C257.149 301.403 254.325 303.919 250.843 303.919M257.149 309.54L257.149 349.235M257.149 309.54C257.149 306.435 254.325 303.919 250.843 303.919M263.455 354.855L307.992 354.855M263.455 354.855C259.972 354.855 257.149 352.339 257.149 349.235M263.455 354.855C259.972 354.855 257.149 357.372 257.149 360.476M257.149 349.235C257.149 352.339 254.325 354.855 250.843 354.855M257.149 -250.761L257.149 -211.066M257.149 -250.761C257.149 -253.865 254.325 -256.382 250.843 -256.382M263.455 -205.445L307.993 -205.445M263.455 -205.445C259.972 -205.445 257.149 -207.962 257.149 -211.066M263.455 -205.445C259.972 -205.445 257.149 -202.929 257.149 -199.825M257.149 -211.066C257.149 -207.962 254.326 -205.445 250.843 -205.445M257.149 -199.825L257.149 -160.129M257.149 -199.825C257.149 -202.929 254.326 -205.445 250.843 -205.445M263.455 -154.509L307.993 -154.509M263.455 -154.509C259.972 -154.509 257.149 -157.025 257.149 -160.129M263.455 -154.509C259.972 -154.509 257.149 -151.992 257.149 -148.888M257.149 -160.129C257.149 -157.025 254.325 -154.509 250.843 -154.509M257.149 -148.888L257.149 -109.193M257.149 -148.888C257.149 -151.992 254.325 -154.509 250.843 -154.509M263.455 -103.572L307.993 -103.572M263.455 -103.572C259.972 -103.572 257.149 -106.089 257.149 -109.193M263.455 -103.572C259.972 -103.572 257.149 -101.056 257.149 -97.9517M257.149 -109.193C257.149 -106.089 254.325 -103.572 250.843 -103.572M257.149 -97.9517L257.149 -58.2565M257.149 -97.9517C257.149 -101.056 254.325 -103.572 250.843 -103.572M263.455 -52.6359L307.993 -52.6359M263.455 -52.6359C259.972 -52.6359 257.149 -55.1523 257.149 -58.2565M263.455 -52.6359C259.972 -52.6359 257.149 -50.1195 257.149 -47.0153M257.149 -58.2565C257.149 -55.1523 254.325 -52.6359 250.843 -52.6359M257.149 -47.0153L257.149 -7.32008M257.149 -47.0153C257.149 -50.1195 254.325 -52.6359 250.843 -52.6359M263.455 -1.69948L307.993 -1.69947M263.455 -1.69948C259.972 -1.69948 257.149 -4.21593 257.149 -7.32008M263.455 -1.69948C259.972 -1.69948 257.149 0.816974 257.149 3.92113M257.149 -7.32008C257.149 -4.21593 254.325 -1.69948 250.843 -1.69948M257.149 3.92113L257.149 43.6164M257.149 3.92113C257.149 0.816974 254.325 -1.69948 250.843 -1.69948M257.149 43.6164C257.149 46.7205 254.326 49.2369 250.843 49.2369M257.149 360.476L257.149 400.171M257.149 360.476C257.149 357.372 254.325 354.855 250.843 354.855M263.455 405.792L307.992 405.792M263.455 405.792C259.972 405.792 257.149 403.275 257.149 400.171M263.455 405.792C259.972 405.792 257.149 408.308 257.149 411.412M257.149 400.171C257.149 403.275 254.325 405.792 250.843 405.792M257.149 411.412L257.149 451.108M257.149 411.412C257.149 408.308 254.325 405.792 250.843 405.792M263.455 456.728L307.992 456.728M263.455 456.728C259.972 456.728 257.149 454.212 257.149 451.108M263.455 456.728C259.972 456.728 257.149 459.245 257.149 462.349M257.149 451.108C257.149 454.212 254.325 456.728 250.843 456.728M257.149 462.349L257.149 502.044M257.149 462.349C257.149 459.245 254.325 456.728 250.843 456.728M263.455 507.665L307.992 507.665M263.455 507.665C259.972 507.665 257.149 505.148 257.149 502.044M263.455 507.665C259.972 507.665 257.149 510.181 257.149 513.285M257.149 502.044C257.149 505.148 254.325 507.665 250.843 507.665M257.149 513.285L257.149 552.98M257.149 513.285C257.149 510.181 254.325 507.665 250.843 507.665M263.455 558.601L307.992 558.601M263.455 558.601C259.972 558.601 257.149 556.085 257.149 552.98M263.455 558.601C259.972 558.601 257.149 561.118 257.149 564.222M257.149 552.98C257.149 556.085 254.325 558.601 250.843 558.601M257.149 564.222L257.149 603.917M257.149 564.222C257.149 561.118 254.325 558.601 250.843 558.601M263.455 609.537L307.992 609.537M263.455 609.537C259.972 609.537 257.149 607.021 257.149 603.917M263.455 609.537C259.972 609.537 257.149 612.054 257.149 615.158M257.149 603.917C257.149 607.021 254.325 609.537 250.843 609.537M257.149 615.158L257.149 654.853M257.149 615.158C257.149 612.054 254.325 609.537 250.843 609.537M257.149 654.853C257.149 657.957 254.325 660.474 250.843 660.474L206.305 660.474C202.823 660.474 199.999 657.957 199.999 654.853L199.999 615.158C199.999 612.054 202.823 609.537 206.305 609.537M206.305 -511.064L250.843 -511.064M206.305 -511.064C202.823 -511.064 199.999 -508.547 199.999 -505.443L199.999 -465.748C199.999 -462.644 202.823 -460.127 206.305 -460.127M206.305 -460.127L250.843 -460.127M206.305 -460.127C202.823 -460.127 199.999 -457.611 199.999 -454.507L199.999 -414.811C199.999 -411.707 202.823 -409.191 206.305 -409.191M206.305 -409.191L250.843 -409.191M206.305 -409.191C202.823 -409.191 199.999 -406.674 199.999 -403.57L199.999 -363.875C199.999 -360.771 202.823 -358.254 206.305 -358.254M206.305 -358.254L250.843 -358.254M206.305 -358.254C202.823 -358.254 199.999 -355.738 199.999 -352.634L199.999 -312.939C199.999 -309.834 202.823 -307.318 206.305 -307.318M206.305 -307.318L250.843 -307.318M206.305 -307.318C202.823 -307.318 199.999 -304.802 199.999 -301.697L199.999 -262.002C199.999 -258.898 202.823 -256.382 206.305 -256.382M206.305 -256.382L250.843 -256.382M206.305 -256.382C202.823 -256.382 199.999 -253.865 199.999 -250.761L199.999 -211.066C199.999 -207.962 202.823 -205.445 206.305 -205.445M206.305 49.2369L250.843 49.2369M206.305 49.2369C202.823 49.2369 199.999 51.7533 199.999 54.8575L199.999 94.5527C199.999 97.6569 202.823 100.173 206.305 100.173M206.305 49.2369C202.823 49.2369 199.999 46.7205 199.999 43.6164L199.999 3.92113C199.999 0.816971 202.823 -1.69948 206.305 -1.69948M206.305 100.173L250.843 100.173M206.305 100.173C202.823 100.173 199.999 102.69 199.999 105.794L199.999 145.489C199.999 148.593 202.823 151.11 206.305 151.11M206.305 151.11L250.843 151.11M206.305 151.11C202.823 151.11 199.999 153.626 199.999 156.73L199.999 196.426C199.999 199.53 202.823 202.046 206.305 202.046M206.305 202.046L250.843 202.046M206.305 202.046C202.823 202.046 199.999 204.563 199.999 207.667L199.999 247.362C199.999 250.466 202.823 252.983 206.305 252.983M206.305 252.983L250.843 252.983M206.305 252.983C202.823 252.983 199.999 255.499 199.999 258.603L199.999 298.298C199.999 301.403 202.823 303.919 206.305 303.919M206.305 303.919L250.843 303.919M206.305 303.919C202.823 303.919 199.999 306.435 199.999 309.54L199.999 349.235C199.999 352.339 202.823 354.855 206.305 354.855M206.305 354.855L250.843 354.855M206.305 354.855C202.823 354.855 199.999 357.372 199.999 360.476L199.999 400.171C199.999 403.275 202.823 405.792 206.305 405.792M206.305 -205.445L250.843 -205.445M206.305 -205.445C202.823 -205.445 199.999 -202.929 199.999 -199.825L199.999 -160.129C199.999 -157.025 202.823 -154.509 206.305 -154.509M206.305 -154.509L250.843 -154.509M206.305 -154.509C202.823 -154.509 199.999 -151.992 199.999 -148.888L199.999 -109.193C199.999 -106.089 202.823 -103.572 206.305 -103.572M206.305 -103.572L250.843 -103.572M206.305 -103.572C202.823 -103.572 199.999 -101.056 199.999 -97.9517L199.999 -58.2565C199.999 -55.1523 202.823 -52.6359 206.305 -52.6359M206.305 -52.6359L250.843 -52.6359M206.305 -52.6359C202.823 -52.6359 199.999 -50.1195 199.999 -47.0153L199.999 -7.32008C199.999 -4.21593 202.823 -1.69948 206.305 -1.69948M206.305 -1.69948L250.843 -1.69948M206.305 405.792L250.843 405.792M206.305 405.792C202.823 405.792 199.999 408.308 199.999 411.412L199.999 451.108C199.999 454.212 202.823 456.728 206.305 456.728M206.305 456.728L250.843 456.728M206.305 456.728C202.823 456.728 199.999 459.245 199.999 462.349L199.999 502.044C199.999 505.148 202.823 507.665 206.305 507.665M206.305 507.665L250.843 507.665M206.305 507.665C202.823 507.665 199.999 510.181 199.999 513.285L199.999 552.98C199.999 556.085 202.823 558.601 206.305 558.601M206.305 558.601L250.843 558.601M206.305 558.601C202.823 558.601 199.999 561.118 199.999 564.222L199.999 603.917C199.999 607.021 202.823 609.537 206.305 609.537M206.305 609.537L250.843 609.537" stroke="url(#paint1_linear_2191_238066)" stroke-opacity="0.8" stroke-width="0.210789"/>
<rect x="21" y="49" width="23.5571" height="23.5571" rx="5.19643" fill="#FEAA00"/>
<path d="M37.0915 53.9172C37.4327 53.9454 37.6735 53.8911 37.7393 53.777C37.7913 53.6797 38.1038 53.5722 38.4101 53.5577C38.7149 53.5279 39.3029 53.5627 39.6942 53.6321C40.3811 53.7341 40.3993 53.7631 40.4864 54.3389C40.5373 54.703 40.3947 55.7626 40.1377 56.9103C39.8899 57.9956 39.5043 59.4019 39.2453 60.0577C39.0016 60.712 38.5334 61.5881 38.1897 62.0061C37.8459 62.4242 37.1725 63.0897 36.7176 63.4725C36.246 63.8415 35.4998 64.3911 35.065 64.6643C34.6301 64.9374 33.4955 65.4481 32.5593 65.7857C31.6231 66.1232 29.9079 66.6753 28.7553 67.0032C27.6013 67.3159 26.4473 67.6286 26.205 67.6676C25.9489 67.7234 25.6683 67.8431 25.5706 67.9449C25.4714 68.0315 25.3524 68.0739 25.316 68.0159C25.2629 67.9442 25.3643 67.5653 25.5237 67.1499C25.6816 66.7192 25.8235 65.9673 25.8353 65.4586C25.8471 64.95 25.9801 64.1066 26.1138 63.5861C26.2475 63.0656 26.5574 62.1434 26.7889 61.5211C27.0371 60.9124 27.4978 59.9601 27.8297 59.4203C28.1463 58.8818 28.8126 57.9863 29.2983 57.4468C29.784 56.9072 30.3764 56.3573 30.625 56.2253C30.8584 56.0949 31.6972 55.7053 32.4628 55.3537C33.2299 55.0173 34.1602 54.6189 34.5322 54.4903C34.9042 54.3616 35.4606 54.2304 35.7654 54.2006C36.0686 54.1556 36.3827 54.0634 36.4377 53.9965C36.4927 53.9296 36.7975 53.8998 37.0915 53.9172Z" fill="#FFEECD"/>
<path d="M54.2702 69.1491C50.0485 69.492 48.7148 69.25 48.7148 64.8536V54.0239C50.2591 54.0239 52.2246 53.9432 52.2246 56.0204V64.8536C52.2246 66.1947 52.2446 66.2955 54.2702 66.2955V69.1491Z" fill="#FEAA00"/>
<path d="M60.7885 69.25C57.5194 69.25 55.193 66.9207 55.193 63.825C55.193 61.0319 57.1283 58.4102 60.5478 58.4102C62.8341 58.4102 64.9199 59.8219 65.6219 62.5948C65.9327 63.8049 64.96 64.7426 63.7667 64.7426H58.5824C58.823 65.751 59.5149 66.5173 60.608 66.5173C61.5807 66.5173 62.0018 66.3358 62.8642 65.7913C63.857 65.1964 64.7795 65.6602 65.5918 66.9308C64.4286 68.292 63.0247 69.25 60.7885 69.25ZM58.5924 62.9679C58.7829 62.9074 59.0035 62.8772 59.2843 62.8772H62.3929C62.1222 61.7983 61.5807 61.2134 60.5478 61.2134C59.4748 61.2134 58.823 61.9293 58.5924 62.9679Z" fill="#FEAA00"/>
<path d="M73.5653 60.437C74.1469 58.9849 74.4678 58.6623 75.7513 58.6623H77.7268L72.1814 72.5574H68.762L70.2461 68.8063C69.7246 68.645 69.3035 68.2517 69.0628 67.566L65.9241 58.6623H67.8795C69.4439 58.6623 69.845 59.953 70.0556 60.5882C70.5068 61.9394 71.0884 63.704 71.6399 65.2972L73.5653 60.437Z" fill="#FEAA00"/>
<path d="M85.7279 60.437C86.3095 58.9849 86.6304 58.6623 87.914 58.6623H89.8894L84.3441 72.5574H80.9246L82.4087 68.8063C81.8873 68.645 81.4661 68.2517 81.2254 67.566L78.0867 58.6623H80.0421C81.6065 58.6623 82.0076 59.953 82.2182 60.5882C82.6694 61.9394 83.251 63.704 83.8026 65.2972L85.7279 60.437Z" fill="#FEAA00"/>
<path d="M95.1559 69.3407C91.6963 69.3407 89.781 66.6988 89.781 63.7948C89.781 60.8806 91.9671 58.5211 95.1559 58.5211C98.3347 58.5211 100.521 60.8806 100.521 63.7948C100.521 66.6988 98.6155 69.3407 95.1559 69.3407ZM93.1704 63.8755C93.1704 65.267 93.9626 66.2451 95.1559 66.2451C96.3392 66.2451 97.1314 65.267 97.1314 63.8755C97.1314 62.6755 96.3392 58.6623 95.1559 58.6623C93.9626 58.6623 93.1704 62.6755 93.1704 63.8755Z" fill="#FEAA00"/>
<path d="M103.819 69.1491L100.63 58.6623H102.234C103.839 58.6623 104.36 58.8135 104.701 60.2756L105.443 63.2503C105.613 63.936 105.684 64.5813 105.694 65.2367L107.99 58.6623H110.657L112.663 64.5309L113.876 60.2051C114.338 58.6421 114.849 58.6724 116.283 58.6623H117.827L114.739 69.1491H111.209L109.584 63.7746L109.274 62.6553L108.943 63.7545L107.298 69.1491H103.819Z" fill="#FEAA00"/>
</g>
<defs>
<linearGradient id="paint0_linear_2191_238066" x1="409.62" y1="47" x2="409.62" y2="226.852" gradientUnits="userSpaceOnUse">
<stop stop-color="white" stop-opacity="0"/>
<stop offset="0.509615" stop-color="white" stop-opacity="0.201923"/>
<stop offset="1" stop-color="white" stop-opacity="0.3"/>
</linearGradient>
<linearGradient id="paint1_linear_2191_238066" x1="552.283" y1="185.196" x2="197.604" y2="-19.7974" gradientUnits="userSpaceOnUse">
<stop stop-color="#10686C"/>
<stop offset="0.245555" stop-color="#10686C" stop-opacity="0.15"/>
<stop offset="0.480555" stop-color="#10686C"/>
<stop offset="0.680555" stop-color="#10686C" stop-opacity="0.15"/>
<stop offset="1" stop-color="#10686C"/>
</linearGradient>
<clipPath id="clip0_2191_238066">
<rect width="800" height="99" rx="8" fill="white"/>
</clipPath>
</defs>
</svg>
