<svg width="1382" height="730" viewBox="0 0 1382 730" fill="none" xmlns="http://www.w3.org/2000/svg">
<path d="M-59.6212 181.012C215.533 275.327 378.288 238.652 476.781 185.853C586.701 126.923 665.825 21.5026 699.077 43.2944C720.371 57.2468 707.6 113.387 672.497 229.345C566.058 580.98 508.01 644.579 544.456 712.598C595.496 807.9 744.715 748.893 854.944 863.61C935.899 947.869 944.776 1072.68 938.303 1169.27" stroke="#D0D5DD" stroke-width="1.18318" stroke-miterlimit="10"/>
<path d="M-54.9618 167.47C213.044 258.53 376.631 228.266 472.186 182.028C578.97 130.354 653.462 29.8349 684.836 52.9319C705.009 67.7792 692.42 122.922 658.529 234.916C555.57 575.233 497.67 640.496 534.494 707.333C587.079 801.938 741.863 733.435 857.048 845.579C859.559 848.025 861.999 850.464 864.375 852.973C942.778 935.864 952.58 1061.66 947.387 1158.89" stroke="#D0D5DD" stroke-width="1.18318" stroke-miterlimit="10"/>
<path d="M-50.2981 153.97C210.537 241.771 374.739 218.029 467.586 178.248C571.077 133.905 641.098 38.2262 670.591 62.6146C689.646 78.3651 677.238 132.517 644.551 240.531C545.058 569.496 487.087 636.598 524.542 702.116C578.338 796.225 739.098 717.991 859.164 827.594C861.8 829.998 864.427 832.394 866.924 834.919C948.452 917.35 960.581 1047.87 956.479 1148.55" stroke="#D0D5DD" stroke-width="1.18318" stroke-miterlimit="10"/>
<path d="M-45.6397 140.435C208.075 224.975 372.554 207.872 462.985 174.436C562.978 137.461 628.733 46.6037 656.338 72.2643C674.275 88.9344 662.038 142.056 630.573 246.111C534.536 563.761 476.645 632.59 514.587 696.867C569.779 790.367 736.39 702.481 861.278 809.576C864.051 811.952 866.813 814.334 869.459 816.815C955.426 897.462 968.569 1034.03 965.559 1138.16" stroke="#D0D5DD" stroke-width="1.18318" stroke-miterlimit="10"/>
<path d="M-40.9863 126.936C205.572 208.229 370.029 197.84 458.375 170.657C554.626 141.042 616.364 55.0397 642.083 81.9531C658.902 99.5485 646.841 151.646 616.59 251.733C524.02 558.052 466.209 628.613 504.63 691.65C561.251 784.553 733.736 686.972 863.399 791.583C866.304 793.937 869.212 796.294 872.023 798.764C961.723 878.321 976.576 1020.23 974.657 1127.84" stroke="#D0D5DD" stroke-width="1.18318" stroke-miterlimit="10"/>
<path d="M-36.3259 113.412C203.081 191.459 367.123 187.852 453.778 166.864C545.99 144.527 603.994 63.4592 627.842 91.62C643.538 110.157 631.656 161.211 602.617 257.333C513.519 552.327 455.802 624.611 494.682 686.418C552.741 778.704 731.14 671.402 865.512 773.59C868.566 775.912 871.625 778.227 874.571 780.7C967.981 859.185 984.585 1006.44 983.745 1117.49" stroke="#D0D5DD" stroke-width="1.18318" stroke-miterlimit="10"/>
<path d="M-31.6627 99.8951C200.596 174.682 363.781 177.885 449.173 163.062C537.025 147.81 591.626 71.9133 613.589 101.283C628.163 120.77 616.452 170.783 588.636 262.923C503.008 546.589 445.397 620.599 484.727 681.175C544.248 772.853 728.575 655.79 867.623 755.582C870.828 757.884 874.027 760.159 877.109 762.618C974.205 840.043 992.569 992.627 992.825 1107.12" stroke="#D0D5DD" stroke-width="1.18318" stroke-miterlimit="10"/>
<path d="M-27.0019 86.375C198.109 157.907 359.876 151.635 444.573 159.265C524.595 135.163 579.242 80.3777 599.343 110.948C612.786 131.396 601.274 180.341 574.646 268.538C492.485 540.872 434.996 616.596 474.76 675.954C535.758 767.004 726.038 640.155 869.723 737.591C873.063 739.857 876.419 742.112 879.649 744.56C980.414 820.955 1000.58 978.84 1001.91 1096.79" stroke="#D0D5DD" stroke-width="1.18318" stroke-miterlimit="10"/>
<path d="M-22.3404 72.8443C195.625 141.125 357.254 139.192 439.974 155.457C515.725 136.331 566.845 88.8454 585.096 120.605C597.404 142.022 586.09 189.888 560.683 274.112C481.977 535.104 424.637 612.551 464.825 670.698C527.315 761.109 723.562 624.444 871.854 719.563C875.337 721.796 878.839 724.021 882.215 726.461C986.628 801.846 1008.59 964.995 1011.02 1086.41" stroke="#D0D5DD" stroke-width="1.18318" stroke-miterlimit="10"/>
<path d="M-17.6849 59.3333C193.132 124.359 354.618 126.771 435.367 151.666C506.85 137.513 554.431 97.3437 570.845 130.279C582.008 152.671 570.895 199.466 546.702 279.716C471.469 529.405 414.274 608.529 454.873 665.467C518.874 755.237 721.092 608.724 873.97 701.564C877.594 703.767 881.243 705.967 884.764 708.393C992.812 782.781 1016.59 951.189 1020.11 1076.06" stroke="#D0D5DD" stroke-width="1.18318" stroke-miterlimit="10"/>
<path d="M-13.021 45.81C190.65 107.584 351.993 114.336 430.765 147.866C497.977 138.688 542.004 105.841 556.595 139.938C566.602 163.316 555.703 209.031 532.735 285.302C460.977 523.652 403.934 604.481 444.926 660.221C510.459 749.33 718.654 592.951 876.093 683.55C879.865 685.719 883.651 687.897 887.319 690.304C998.993 763.72 1024.59 937.369 1029.2 1065.69" stroke="#D0D5DD" stroke-width="1.18318" stroke-miterlimit="10"/>
<path d="M-8.35877 32.2982C188.153 90.8173 349.372 101.922 426.156 144.093C489.097 139.892 529.555 114.369 542.332 149.625C551.168 173.992 540.501 218.616 518.734 290.928C450.445 517.949 393.575 600.46 434.959 655.017C502.039 743.459 716.201 577.193 878.188 665.577C882.107 667.716 886.025 669.856 889.839 672.271C1005.13 744.726 1032.57 923.595 1038.26 1055.37" stroke="#D0D5DD" stroke-width="1.18318" stroke-miterlimit="10"/>
<path d="M-3.70495 18.7694C185.661 74.0365 346.729 89.473 421.558 140.274C480.228 141.048 517.096 122.855 528.093 159.273C535.748 184.628 525.315 228.165 504.762 296.509C439.954 512.213 383.258 596.39 425.008 649.76C493.657 737.514 713.792 561.332 880.309 647.554C884.371 649.655 888.44 651.787 892.411 654.177C1011.3 725.701 1040.6 909.756 1047.37 1045" stroke="#D0D5DD" stroke-width="1.18318" stroke-miterlimit="10"/>
<path d="M0.967905 5.25866C183.178 57.2627 344.102 77.0444 416.956 136.483C471.353 142.23 504.625 131.362 513.849 168.942C520.315 195.289 510.132 237.732 490.793 302.108C429.441 506.476 372.94 592.335 415.059 644.526C485.297 731.583 711.402 545.455 882.426 629.55C886.637 631.618 890.85 633.727 894.958 636.095C1017.45 706.686 1048.59 895.947 1056.48 1034.65" stroke="#D0D5DD" stroke-width="1.18318" stroke-miterlimit="10"/>
<path d="M5.61779 -8.27013C180.685 40.4847 341.472 64.6116 412.354 132.68C462.48 143.402 492.136 139.861 499.59 178.612C504.855 205.944 494.934 247.3 476.793 307.697C418.91 500.737 362.622 588.246 405.087 639.28C476.928 725.622 708.964 529.57 884.524 611.535C888.877 613.57 893.231 615.66 897.485 618.009C1023.57 687.694 1056.57 882.129 1065.53 1024.27" stroke="#D0D5DD" stroke-width="1.18318" stroke-miterlimit="10"/>
<path d="M10.2785 -21.7824C178.197 23.7177 338.844 52.1869 407.752 128.888C453.61 144.589 479.637 148.367 485.35 188.28C489.404 216.597 479.747 256.869 462.834 313.311C408.421 495.017 352.344 584.175 395.154 634.062C468.617 719.668 706.595 513.653 886.643 593.559C891.142 595.559 895.636 597.629 900.05 599.978C1029.73 668.738 1064.59 868.331 1074.65 1013.92" stroke="#D0D5DD" stroke-width="1.18318" stroke-miterlimit="10"/>
<path d="M14.9372 -35.3024C175.708 6.94849 336.203 39.7656 403.15 125.091C444.729 145.743 467.121 156.862 471.1 197.948C473.934 227.243 464.558 266.435 448.865 318.899C397.921 489.276 342.068 580.073 385.213 628.814C460.317 713.665 704.213 497.691 888.782 575.532C893.43 577.492 898.062 579.547 902.611 581.865C1035.86 649.782 1072.59 854.53 1083.73 1003.58" stroke="#D0D5DD" stroke-width="1.18318" stroke-miterlimit="10"/>
<path d="M19.6085 -48.8332C173.231 -9.83699 333.593 27.3143 398.556 121.283C435.872 146.93 454.613 165.335 456.86 207.596C458.485 237.858 449.379 275.987 434.887 324.491C387.415 483.538 331.79 575.967 375.258 623.577C452.014 707.668 701.813 481.726 890.882 557.546C895.676 559.465 900.448 561.505 905.142 563.805C1042 630.846 1080.58 840.715 1092.81 993.233" stroke="#D0D5DD" stroke-width="1.18318" stroke-miterlimit="10"/>
<path d="M24.2699 -62.348C170.722 -26.5901 295.338 48.4229 393.949 117.499C430.849 143.347 442.078 173.829 442.604 217.278C442.998 248.512 434.181 285.569 420.903 330.106C376.893 477.827 321.513 571.867 365.298 618.356C443.739 701.638 699.428 465.725 893.007 539.534C897.941 541.418 902.862 543.447 907.7 545.725C1048.14 611.91 1088.58 826.892 1101.92 982.866" stroke="#D0D5DD" stroke-width="1.18318" stroke-miterlimit="10"/>
<path d="M28.924 -75.8693C168.255 -43.3771 318.677 8.31307 389.351 113.692C414.843 151.708 429.547 182.29 428.358 226.936C427.515 259.136 418.993 295.123 406.927 335.694C366.389 472.09 311.254 567.73 355.35 613.109C435.479 695.573 697.038 449.692 895.122 521.519C900.208 523.367 905.258 525.388 910.251 527.643C1054.14 593.269 1096.59 813.085 1111.01 972.514" stroke="#D0D5DD" stroke-width="1.18318" stroke-miterlimit="10"/>
<path d="M33.5774 -89.3899C165.755 -60.1579 320.624 -7.34149 384.744 109.895C407.486 151.482 417.002 190.754 414.105 236.601C412.021 269.762 403.796 304.691 392.944 341.289C355.873 466.359 300.801 563.786 345.39 607.874C427.581 689.14 694.736 433.357 897.231 503.516C902.465 505.313 907.652 507.33 912.792 509.565C1060.34 574.222 1104.59 799.269 1120.09 962.143" stroke="#D0D5DD" stroke-width="1.18318" stroke-miterlimit="10"/>
<path d="M38.2359 -102.912C163.262 -76.9317 323.058 -22.4054 380.137 106.096C466.175 299.821 260.235 529.965 335.441 602.637C421.17 685.482 706.554 403.546 915.341 491.489C1066.53 555.174 1112.6 785.467 1129.18 951.788" stroke="#D0D5DD" stroke-width="1.18318" stroke-miterlimit="10"/>
</svg>
