<svg width="1440" height="556" viewBox="0 0 1440 556" fill="none" xmlns="http://www.w3.org/2000/svg">
<path d="M-382.676 518.086C-50.325 274.362 852.763 378.599 991.041 590.599C1081.68 729.582 795.921 1010.19 739.26 1108.26C661.953 1241.97 756.159 936.626 674.804 773.895C578.12 580.528 123.484 272.65 423.305 106.898C684.996 -37.7254 918.568 107.864 1059.81 -42.1567C1187.49 -177.897 1130.97 -439.628 1063.84 -638.374" stroke="#D0D5DD" stroke-width="1.56688" stroke-miterlimit="10"/>
<path d="M-371.074 529.727C-45.7129 303.184 826.315 406.696 963.405 605.221C1053.2 735.301 781.337 999.832 728.362 1090.03C654.883 1215.03 744.678 922.323 667.935 764.89C575.884 576.155 144.311 278.006 433.678 117.914C691.663 -25.0575 926.121 128.468 1073.34 -18.189C1205.05 -150.384 1156.03 -412.72 1094.63 -611.526" stroke="#D0D5DD" stroke-width="1.56688" stroke-miterlimit="10"/>
<path d="M-359.541 541.305C-41.1691 331.944 799.759 434.691 935.721 619.76C1024.67 740.937 766.685 989.414 717.396 1071.74C647.643 1187.98 733.128 907.958 660.977 755.802C573.559 571.7 165.11 283.3 443.983 128.867C698.281 -12.432 934.129 149.534 1086.83 5.69625C1223.03 -122.45 1181.04 -385.853 1125.38 -584.76" stroke="#D0D5DD" stroke-width="1.56688" stroke-miterlimit="10"/>
<path d="M-347.896 552.953C-36.4939 360.794 773.254 462.695 908.128 634.389C996.17 746.603 752.124 979.087 706.522 1053.53C640.313 1160.91 721.608 893.582 654.05 746.744C571.386 567.113 185.919 288.603 454.298 139.791C704.91 0.203433 941.907 170.448 1100.27 29.6114C1240.5 -94.9496 1206.05 -358.937 1156.1 -557.985" stroke="#D0D5DD" stroke-width="1.56688" stroke-miterlimit="10"/>
<path d="M-336.314 564.57C-31.7804 389.472 746.625 490.607 880.492 648.967C967.608 752.197 737.521 968.669 695.504 1035.14C633.062 1133.84 710.127 879.196 647.122 737.675C569.17 562.596 206.747 293.916 464.611 150.743C711.537 12.8277 949.48 191.109 1113.78 53.4752C1258.06 -67.3998 1231.11 -332.112 1186.86 -531.221" stroke="#D0D5DD" stroke-width="1.56688" stroke-miterlimit="10"/>
<path d="M-324.732 576.195C-27.1274 418.258 719.957 518.487 852.837 663.573C938.966 757.76 722.918 958.258 684.567 1016.87C625.791 1106.67 698.666 864.756 640.193 728.613C566.955 558.047 227.594 299.257 474.964 161.704C718.184 25.5203 957.134 211.899 1127.28 77.4074C1275.63 -39.842 1256.19 -305.3 1217.64 -504.428" stroke="#D0D5DD" stroke-width="1.56688" stroke-miterlimit="10"/>
<path d="M-313.109 587.82C-22.4737 447.045 692.967 546.085 825.222 678.179C910.284 763.241 708.194 947.887 673.61 998.586C618.399 1079.46 687.226 850.337 633.285 719.572C564.76 553.477 248.362 304.557 485.258 172.724C724.772 38.1927 964.689 232.708 1140.75 101.359C1293.03 -12.2441 1281.19 -278.246 1248.38 -477.596" stroke="#D0D5DD" stroke-width="1.56688" stroke-miterlimit="10"/>
<path d="M-301.529 599.438C-17.8629 475.823 665.934 573.716 797.585 692.758C881.539 768.655 693.65 937.287 662.691 980.291C610.945 1052.18 675.844 835.85 626.434 710.382C562.583 548.638 269.55 310.232 495.69 183.516C731.82 51.1997 972.341 253.289 1154.35 125.103C1310.67 15.0239 1306.34 -251.521 1279.23 -450.972" stroke="#D0D5DD" stroke-width="1.56688" stroke-miterlimit="10"/>
<path d="M-289.939 611.07C-13.202 504.617 638.709 601.321 769.937 707.371C852.582 774.144 679.075 926.703 651.741 962.013C603.299 1024.64 664.471 821.378 619.473 701.45C560.435 544.238 290.244 315.822 505.95 194.584C738.414 64.0008 979.822 274.026 1167.77 149.123C1328.02 42.6095 1331.33 -224.52 1309.92 -424.071" stroke="#D0D5DD" stroke-width="1.56688" stroke-miterlimit="10"/>
<path d="M-278.342 622.664C-8.57367 533.372 611.23 628.828 742.297 721.946C823.492 779.614 664.447 916.019 640.799 943.735C595.459 996.851 653.046 806.927 612.54 692.377C558.336 539.556 311.128 321.031 516.4 205.473C745.198 76.6218 987.451 294.584 1181.38 172.963C1345.56 69.9748 1356.48 -197.719 1340.81 -397.371" stroke="#D0D5DD" stroke-width="1.56688" stroke-miterlimit="10"/>
<path d="M-266.76 634.281C-3.92065 562.151 583.474 656.378 714.662 736.524C794.225 785.148 649.944 905.137 629.761 925.562C587.221 968.586 641.686 792.46 605.51 683.409C556.141 534.939 331.875 326.504 526.531 216.607C751.664 89.5281 994.723 315.386 1194.68 197.049C1362.71 97.5046 1381.32 -170.632 1371.35 -370.385" stroke="#D0D5DD" stroke-width="1.56688" stroke-miterlimit="10"/>
<path d="M-255.156 645.93C0.713581 590.921 555.417 683.999 687.048 751.134C764.758 790.774 638.243 897.952 618.926 907.157C586.94 947.201 630.549 777.782 598.703 674.27C554.209 530.11 352.824 331.707 536.967 227.49C758.433 102.103 1002.3 335.856 1208.28 220.883C1380.25 124.844 1406.48 -143.817 1402.23 -343.69" stroke="#D0D5DD" stroke-width="1.56688" stroke-miterlimit="10"/>
<path d="M-243.555 657.531C5.34583 619.724 526.996 711.815 659.392 765.737C735.087 796.555 623.921 887.74 607.988 888.888C580.152 920.431 619.449 763.098 591.774 665.206C552.234 525.316 373.631 337.044 547.239 238.407C765.039 114.752 1009.71 356.361 1221.73 244.731C1397.59 152.137 1431.47 -116.967 1432.94 -316.961" stroke="#D0D5DD" stroke-width="1.56688" stroke-miterlimit="10"/>
<path d="M-231.973 669.148C9.9787 648.482 498.293 739.949 631.757 780.315C705.236 802.552 609.58 877.542 597.091 870.533C573.364 893.576 608.391 748.369 584.925 656.096C550.381 520.396 394.498 342.276 557.693 249.339C771.807 127.397 1017.26 376.841 1235.35 268.615C1415.06 179.424 1456.69 -90.1422 1463.8 -290.177" stroke="#D0D5DD" stroke-width="1.56688" stroke-miterlimit="10"/>
<path d="M-220.396 680.773C14.6259 677.269 469.342 768.534 604.115 794.901C675.239 808.819 595.253 867.333 586.088 852.327C566.469 866.829 597.307 733.748 577.87 647.035C548.361 515.404 415.179 347.577 567.879 260.299C778.328 140.049 1024.55 397.308 1248.69 292.527C1432.29 206.74 1481.56 -63.2089 1494.43 -263.405" stroke="#D0D5DD" stroke-width="1.56688" stroke-miterlimit="10"/>
<path d="M-208.793 692.375C19.2601 706.032 440.379 797.7 576.461 809.504C645.188 815.425 580.913 857.14 575.172 834.037C559.663 840.04 586.371 719.024 571.023 638.051C546.872 510.65 436.028 352.914 578.274 271.337C785.017 152.738 1032.04 417.813 1262.27 316.496C1449.72 234.033 1506.66 -36.2587 1525.27 -236.555" stroke="#D0D5DD" stroke-width="1.56688" stroke-miterlimit="10"/>
<path d="M-197.209 704C23.9151 734.818 411.376 827.715 548.828 824.089C615.217 822.357 566.594 846.931 564.217 815.75C552.836 813.233 575.557 704.302 564.096 628.989C545.343 505.697 456.817 358.194 588.569 282.237C791.585 165.31 1039.38 438.119 1275.71 340.368C1467 261.228 1531.66 -9.406 1555.97 -209.803" stroke="#D0D5DD" stroke-width="1.56688" stroke-miterlimit="10"/>
<path d="M-185.607 715.641C28.5272 763.6 382.813 858.37 521.212 838.691C585.426 829.546 552.252 836.737 553.279 797.479C546.028 786.441 564.861 689.536 557.086 620.004C543.973 500.781 477.543 363.53 598.861 293.334C798.151 178.038 1046.79 458.623 1289.18 364.396C1484.3 288.56 1556.7 17.6032 1586.71 -182.895" stroke="#D0D5DD" stroke-width="1.56688" stroke-miterlimit="10"/>
<path d="M-174.004 727.25C33.1815 792.391 354.756 889.618 493.578 853.281C555.899 836.966 543.914 826.714 542.343 779.218C541.678 759.418 554.207 674.698 550.279 610.867C543.028 495.732 498.392 368.674 609.297 304.218C804.84 190.534 1054.26 478.873 1302.76 388.252C1501.75 315.679 1581.82 44.4201 1617.57 -156.179" stroke="#D0D5DD" stroke-width="1.56688" stroke-miterlimit="10"/>
<path d="M-162.361 738.93C37.875 821.212 327.463 921.3 466.084 867.842C526.894 844.416 526.693 816.619 531.567 760.865C534.004 732.887 544.055 660.032 543.511 601.759C542.504 490.734 519.32 373.888 619.771 315.132C811.547 202.999 1061.84 499.134 1316.42 412.098C1519.25 342.768 1607.03 71.2874 1648.47 -129.432" stroke="#D0D5DD" stroke-width="1.56688" stroke-miterlimit="10"/>
<path d="M-150.846 750.484C42.4616 849.928 300.728 952.977 438.281 882.458C497.863 851.922 510.412 806.299 520.463 742.629C526.203 706.151 533.636 645.421 536.436 592.749C542.096 485.933 539.84 378.977 629.877 326.082C817.725 215.178 1068.92 519.027 1329.69 436C1536.29 369.631 1631.84 98.1503 1679.02 -102.67" stroke="#D0D5DD" stroke-width="1.56688" stroke-miterlimit="10"/>
<path d="M-139.24 762.094C47.0978 878.699 274.708 984.648 410.649 897.048C586.332 784.009 465.618 440.68 640.273 337.088C824.436 227.895 1076.5 539.66 1343.25 459.957C1553.8 397.092 1656.98 125.108 1709.84 -75.8331" stroke="#D0D5DD" stroke-width="1.56688" stroke-miterlimit="10"/>
</svg>
